<?xml version="1.0" encoding="utf-8"?><svg xmlns="http://www.w3.org/2000/svg" xmlns:xlink="http://www.w3.org/1999/xlink"><symbol id="checkbox" viewBox="-1 -15 25 21"><style>.ast0{fill:#47b900}</style><path class="ast0" d="M18 6H-1v-18h18l-2 2H1V4h15v-7l2-2z"/><path class="ast0" d="M9.2 1.3L2.8-5.1l1.4-1.4 5 4.9L22.6-15l1.4 1.4z"/></symbol><symbol id="logo" viewBox="0 0 64 64"><style>.bst0{fill:#47b900}.bst1{fill:#fff}</style><path class="bst0" d="M6.5 54V31.1h5.2l3.2 15.6L18 31.1h5.3V54H20V36l-3.5 18h-3.4L9.8 36v18H6.5zM26.8 31.1h7c1.9 0 3.2.2 4 .6s1.4 1 2 2c.5.9.8 2 .8 3.2 0 1.1-.2 2.1-.7 3-.5.9-1 1.5-1.8 2 1 .4 1.8 1.1 2.4 2 .6 1 .9 2.1.9 3.5 0 1.7-.4 3.1-1.1 4.2-.7 1.1-1.6 1.9-2.6 2.1-.7.2-2.3.3-4.9.3h-5.9V31.1zm3.5 3.8v5.3h2.3c1.4 0 2.2 0 2.6-.1.6-.1 1.1-.4 1.4-.8.3-.4.5-1 .5-1.8 0-.7-.1-1.2-.4-1.6-.3-.4-.6-.7-1-.8-.4-.1-1.5-.2-3.4-.2h-2zm0 9.1v6.1h3.3c1.4 0 2.3-.1 2.8-.2.4-.2.7-.5 1-.9.3-.5.4-1.1.4-1.8s-.1-1.4-.4-1.8c-.3-.5-.7-.8-1.2-1-.5-.2-1.5-.3-3-.3h-2.9zM44.3 54V31.1h12.9V35h-9.4v5.1h8.7V44h-8.7v6.2h9.7V54H44.3z"/><g><path class="bst1" d="M28.6 28.9L19 19.3l-9.6 9.6-2.8-2.8L19 13.7l12.4 12.4z"/><path class="bst0" d="M41.1 15.7L32 6.6l-9.1 9.1-2.8-2.9L32 .9l11.9 11.9z"/><path class="bst1" d="M54.6 28.9L45 19.3l-9.6 9.6-2.8-2.8L45 13.7l12.4 12.4z"/></g><g><path class="bst1" d="M10.6 61.1v-.2-.2c-.1.1-.2.1-.3.2-.1.1-.2.1-.4.2-.1 0-.3.1-.5.1h-.5c-.3 0-.6 0-.9-.1-.3-.1-.6-.2-.8-.4-.2-.2-.4-.4-.6-.7-.1-.3-.2-.7-.2-1.1s.1-.8.2-1.1c.2-.5.4-.8.6-1s.5-.4.8-.5c.3-.1.6-.2 1-.2s.7.1 1 .2c.3.1.5.3.7.5l.1-.5H12v4.8c0 .3 0 .5-.1.7-.1.2-.1.4-.2.5-.1.2-.3.3-.5.5-.2.1-.4.2-.7.3-.3.1-.5.2-.8.2-.3 0-.6.1-1 .1H7.6c-.2 0-.3 0-.4-.1-.1 0-.3-.1-.3-.1v-.9c.3.1.5.1.8.2.3 0 .6.1.9.1.6 0 1.1-.1 1.5-.3.4-.2.5-.5.5-.9v-.3zm-1.3-.9h.4c.1 0 .2-.1.4-.1s.2-.1.3-.2.2-.1.2-.2v-2.1c-.2-.1-.3-.3-.6-.4-.2-.1-.5-.1-.7-.2H9c-.1 0-.2 0-.3.1-.1 0-.2.1-.3.2-.1.1-.2.2-.2.3s-.2.3-.2.5-.1.4-.1.6c0 .2 0 .5.1.6.1.2.1.3.3.5.1.1.3.2.4.3.2.1.4.1.6.1zM22.2 57.2h-.1c-.4 0-.8.1-1.2.2-.3.1-.6.3-.8.5V61h-1.4v-4.7h1.2l.1.7c.2-.2.4-.4.7-.6.3-.1.7-.2 1.1-.2h.4v1zM33.7 58.6c0 .4-.1.7-.2 1-.1.3-.3.6-.6.8s-.6.4-.9.5c-.4.1-.8.2-1.2.2-.5 0-.9-.1-1.2-.2-.4-.1-.7-.3-.9-.5-.3-.2-.4-.5-.6-.8-.1-.3-.2-.6-.2-1s.1-.7.2-1 .3-.6.6-.8c.3-.2.6-.4.9-.5.4-.1.8-.2 1.2-.2.5 0 .9.1 1.2.2.4.1.7.3.9.5s.4.5.6.8c.2.3.2.7.2 1zm-1.5 0c0-.3 0-.5-.1-.7-.1-.2-.2-.4-.3-.5-.1-.1-.3-.2-.5-.3s-.4-.1-.6-.1c-.2 0-.4 0-.6.1s-.3.2-.5.3-.2.3-.3.5c-.1.2-.1.4-.1.7s0 .5.1.7c.1.2.2.4.3.5.1.1.3.2.5.3.2.1.4.1.6.1s.4 0 .6-.1c.2-.1.3-.2.5-.3.1-.1.2-.3.3-.5.1-.2.1-.4.1-.7zM42.7 61.1c-.6 0-1.1-.1-1.5-.2-.4-.2-.7-.4-.9-.7-.1-.1-.2-.3-.2-.5-.1-.2-.1-.4-.1-.6v-2.9h1.4V59.4c0 .1.1.2.1.3.1.1.2.3.4.3.2.1.4.1.6.1.3 0 .5 0 .7-.1.2-.1.3-.2.4-.4.1-.2.1-.4.1-.6v-2.8h1.4v2.9c0 .4-.1.7-.2 1-.1.1-.2.3-.4.4-.1.1-.3.2-.5.3-.2.1-.4.2-.7.2 0 .1-.3.1-.6.1zM54.9 61.1c-.3 0-.6 0-.9-.1-.3-.1-.5-.2-.6-.3v2.7H52v-7h1.3l.1.5c.2-.2.4-.3.7-.5.3-.1.6-.2 1-.2.3 0 .6 0 .9.1.3.1.6.2.8.4s.4.4.6.8.2.7.2 1.1c0 .4-.1.8-.2 1.1-.2.3-.4.6-.6.8-.3.2-.5.4-.8.5s-.8.1-1.1.1zm-.2-4c-.3 0-.5.1-.7.1-.2.1-.4.2-.6.4v2.1l.2.2c.1.1.2.1.3.2.1 0 .2.1.3.1h.4c.2 0 .4 0 .6-.1.2-.1.3-.2.4-.3.1-.1.2-.3.3-.5.1-.2.1-.4.1-.6 0-.3 0-.5-.1-.7s-.2-.4-.3-.5c-.1-.1-.3-.2-.4-.3-.1-.1-.3-.1-.5-.1z"/></g></symbol><symbol id="social__add" viewBox="0 0 80 80"><style>.cst0{fill:#fff;stroke:red;stroke-width:2.961;stroke-miterlimit:10}</style><path class="cst0" d="M76 78H3.9c-1 0-1.9-.9-1.9-1.9V4c0-1 .9-1.9 1.9-1.9H76c1 0 1.9.9 1.9 1.9v72.1c0 1-.9 1.9-1.9 1.9z"/><path d="M72.9 33.9c0-2.5-1.8-4.1-4.3-4.2h-1.5v-.8-7.2c0-.7-.2-1.3-.7-1.8-4.5-5-8.9-10.1-13.4-15.1-.3-.4-.7-.7-1.1-1H16.1c-1.8.6-2.3 1.9-2.3 3.7v22.2h-1.5C9.8 29.8 8 31.4 8 34v20.8c0 2.5 1.7 4.2 4.3 4.2h1.5v13.5c0 1.8.5 3.1 2.3 3.7h48.7c1.8-.6 2.3-1.9 2.3-3.7-.1-4.2 0-8.4 0-12.6V59h1.5c2.6 0 4.3-1.7 4.3-4.2.1-7 .1-13.9 0-20.9zM16.7 6.8H50v14c0 1.4.5 1.9 1.9 1.9H64v7H16.6c.1-7.7.1-15.3.1-22.9zm38.9 30.5c-.1-.3-.3-.4-.7-.4-.3 0-.6.1-.7.4-.1.3-.2.9-.2 2v10c0 .9.1 1.5.2 1.8.1.3.4.4.7.4.4 0 .7-.2.8-.5.1-.3.2-1 .2-2v-2.5h-1.1v-3.2h6.4v11.1h-3.4l-.5-1.4c-.4.6-.8 1.1-1.4 1.4-.6.3-1.2.5-2 .5-.9 0-1.8-.2-2.6-.7-.8-.4-1.4-1-1.8-1.6s-.7-1.3-.8-2.1c-.1-.7-.1-1.8-.1-3.2v-6.2c0-2 .1-3.4.3-4.3.2-.9.8-1.7 1.9-2.5 1-.8 2.4-1.1 4-1.1s2.9.3 4 1 1.7 1.4 2.1 2.3.5 2.2.5 3.9v.9h-5.5v-1.9c-.1-1.1-.1-1.8-.3-2.1zm-9.1-3.6l-2.8 20.8h-8.3l-3.2-20.8H38c.7 5.7 1.1 10.6 1.4 14.5.3-4 .6-7.6.9-10.7l.4-3.9h5.8zM23.4 51.1c.1.2.4.3.8.3s.6-.1.8-.4c.2-.3.3-.7.3-1.3 0-1.2-.2-2-.5-2.4-.3-.4-1.2-1-2.6-1.9-1.4-.9-2.3-1.5-2.7-1.9-.4-.4-.8-1-1.1-1.7-.3-.7-.4-1.6-.4-2.7 0-1.6.2-2.8.6-3.5s1.1-1.3 2-1.7c.9-.4 2-.6 3.3-.6 1.4 0 2.6.2 3.6.7 1 .5 1.7 1 2 1.7s.5 1.9.5 3.5v.8h-5.1v-1.5c0-.7-.1-1.2-.2-1.4-.1-.2-.3-.3-.6-.3s-.6.1-.7.4-.4.6-.4 1.1c0 .7.1 1.2.3 1.6.2.3.7.8 1.5 1.3 2.4 1.4 4 2.6 4.6 3.5s.9 2.4.9 4.4c0 1.5-.2 2.6-.5 3.3-.3.7-1 1.3-2 1.8s-2.2.7-3.5.7c-1.5 0-2.7-.3-3.7-.8s-1.7-1.2-2-2.1c-.3-.9-.5-2.1-.5-3.6V47h5.1v2.5c-.1.9 0 1.4.2 1.6zm40 21.5h-46c-.4 0-.8 0-.8-.6V59.4 59H64V71.9c.2.6 0 .7-.6.7z"/></symbol><symbol id="social__facebook" viewBox="0 0 80 80"><style>.dst0{fill:#fff;stroke:red;stroke-width:2.961;stroke-miterlimit:10}</style><path class="dst0" d="M76 78H3.9c-1 0-1.9-.9-1.9-1.9V4c0-1 .9-1.9 1.9-1.9H76c1 0 1.9.9 1.9 1.9v72.1c0 1-.9 1.9-1.9 1.9z"/><path d="M72.9 33.9c0-2.5-1.8-4.1-4.3-4.2h-1.5v-.8-7.2c0-.7-.2-1.3-.7-1.8-4.5-5-8.9-10.1-13.4-15.1-.3-.4-.7-.7-1.1-1H16.1c-1.8.6-2.3 1.9-2.3 3.7v22.2h-1.5C9.8 29.8 8 31.4 8 34v20.8c0 2.5 1.7 4.2 4.3 4.2h1.5v13.5c0 1.8.5 3.1 2.3 3.7h48.7c1.8-.6 2.3-1.9 2.3-3.7-.1-4.2 0-8.4 0-12.6V59h1.5c2.6 0 4.3-1.7 4.3-4.2.1-7 .1-13.9 0-20.9zM16.7 6.8H50v14c0 1.4.5 1.9 1.9 1.9H64v7H16.6c.1-7.7.1-15.3.1-22.9zm38.9 30.5c-.1-.3-.3-.4-.7-.4-.3 0-.6.1-.7.4-.1.3-.2.9-.2 2v10c0 .9.1 1.5.2 1.8.1.3.4.4.7.4.4 0 .7-.2.8-.5.1-.3.2-1 .2-2v-2.5h-1.1v-3.2h6.4v11.1h-3.4l-.5-1.4c-.4.6-.8 1.1-1.4 1.4-.6.3-1.2.5-2 .5-.9 0-1.8-.2-2.6-.7-.8-.4-1.4-1-1.8-1.6s-.7-1.3-.8-2.1c-.1-.7-.1-1.8-.1-3.2v-6.2c0-2 .1-3.4.3-4.3.2-.9.8-1.7 1.9-2.5 1-.8 2.4-1.1 4-1.1s2.9.3 4 1 1.7 1.4 2.1 2.3.5 2.2.5 3.9v.9h-5.5v-1.9c-.1-1.1-.1-1.8-.3-2.1zm-9.1-3.6l-2.8 20.8h-8.3l-3.2-20.8H38c.7 5.7 1.1 10.6 1.4 14.5.3-4 .6-7.6.9-10.7l.4-3.9h5.8zM23.4 51.1c.1.2.4.3.8.3s.6-.1.8-.4c.2-.3.3-.7.3-1.3 0-1.2-.2-2-.5-2.4-.3-.4-1.2-1-2.6-1.9-1.4-.9-2.3-1.5-2.7-1.9-.4-.4-.8-1-1.1-1.7-.3-.7-.4-1.6-.4-2.7 0-1.6.2-2.8.6-3.5s1.1-1.3 2-1.7c.9-.4 2-.6 3.3-.6 1.4 0 2.6.2 3.6.7 1 .5 1.7 1 2 1.7s.5 1.9.5 3.5v.8h-5.1v-1.5c0-.7-.1-1.2-.2-1.4-.1-.2-.3-.3-.6-.3s-.6.1-.7.4-.4.6-.4 1.1c0 .7.1 1.2.3 1.6.2.3.7.8 1.5 1.3 2.4 1.4 4 2.6 4.6 3.5s.9 2.4.9 4.4c0 1.5-.2 2.6-.5 3.3-.3.7-1 1.3-2 1.8s-2.2.7-3.5.7c-1.5 0-2.7-.3-3.7-.8s-1.7-1.2-2-2.1c-.3-.9-.5-2.1-.5-3.6V47h5.1v2.5c-.1.9 0 1.4.2 1.6zm40 21.5h-46c-.4 0-.8 0-.8-.6V59.4 59H64V71.9c.2.6 0 .7-.6.7z"/></symbol><symbol id="social__mail-ru" viewBox="0 0 80 80"><style>.est0{fill:#fff;stroke:red;stroke-width:2.961;stroke-miterlimit:10}</style><path class="est0" d="M76 78H3.9c-1 0-1.9-.9-1.9-1.9V4c0-1 .9-1.9 1.9-1.9H76c1 0 1.9.9 1.9 1.9v72.1c0 1-.9 1.9-1.9 1.9z"/><path d="M72.9 33.9c0-2.5-1.8-4.1-4.3-4.2h-1.5v-.8-7.2c0-.7-.2-1.3-.7-1.8-4.5-5-8.9-10.1-13.4-15.1-.3-.4-.7-.7-1.1-1H16.1c-1.8.6-2.3 1.9-2.3 3.7v22.2h-1.5C9.8 29.8 8 31.4 8 34v20.8c0 2.5 1.7 4.2 4.3 4.2h1.5v13.5c0 1.8.5 3.1 2.3 3.7h48.7c1.8-.6 2.3-1.9 2.3-3.7-.1-4.2 0-8.4 0-12.6V59h1.5c2.6 0 4.3-1.7 4.3-4.2.1-7 .1-13.9 0-20.9zM16.7 6.8H50v14c0 1.4.5 1.9 1.9 1.9H64v7H16.6c.1-7.7.1-15.3.1-22.9zm38.9 30.5c-.1-.3-.3-.4-.7-.4-.3 0-.6.1-.7.4-.1.3-.2.9-.2 2v10c0 .9.1 1.5.2 1.8.1.3.4.4.7.4.4 0 .7-.2.8-.5.1-.3.2-1 .2-2v-2.5h-1.1v-3.2h6.4v11.1h-3.4l-.5-1.4c-.4.6-.8 1.1-1.4 1.4-.6.3-1.2.5-2 .5-.9 0-1.8-.2-2.6-.7-.8-.4-1.4-1-1.8-1.6s-.7-1.3-.8-2.1c-.1-.7-.1-1.8-.1-3.2v-6.2c0-2 .1-3.4.3-4.3.2-.9.8-1.7 1.9-2.5 1-.8 2.4-1.1 4-1.1s2.9.3 4 1 1.7 1.4 2.1 2.3.5 2.2.5 3.9v.9h-5.5v-1.9c-.1-1.1-.1-1.8-.3-2.1zm-9.1-3.6l-2.8 20.8h-8.3l-3.2-20.8H38c.7 5.7 1.1 10.6 1.4 14.5.3-4 .6-7.6.9-10.7l.4-3.9h5.8zM23.4 51.1c.1.2.4.3.8.3s.6-.1.8-.4c.2-.3.3-.7.3-1.3 0-1.2-.2-2-.5-2.4-.3-.4-1.2-1-2.6-1.9-1.4-.9-2.3-1.5-2.7-1.9-.4-.4-.8-1-1.1-1.7-.3-.7-.4-1.6-.4-2.7 0-1.6.2-2.8.6-3.5s1.1-1.3 2-1.7c.9-.4 2-.6 3.3-.6 1.4 0 2.6.2 3.6.7 1 .5 1.7 1 2 1.7s.5 1.9.5 3.5v.8h-5.1v-1.5c0-.7-.1-1.2-.2-1.4-.1-.2-.3-.3-.6-.3s-.6.1-.7.4-.4.6-.4 1.1c0 .7.1 1.2.3 1.6.2.3.7.8 1.5 1.3 2.4 1.4 4 2.6 4.6 3.5s.9 2.4.9 4.4c0 1.5-.2 2.6-.5 3.3-.3.7-1 1.3-2 1.8s-2.2.7-3.5.7c-1.5 0-2.7-.3-3.7-.8s-1.7-1.2-2-2.1c-.3-.9-.5-2.1-.5-3.6V47h5.1v2.5c-.1.9 0 1.4.2 1.6zm40 21.5h-46c-.4 0-.8 0-.8-.6V59.4 59H64V71.9c.2.6 0 .7-.6.7z"/></symbol><symbol id="social__ok" viewBox="0 0 80 80"><style>.fst0{fill:#fff;stroke:red;stroke-width:2.961;stroke-miterlimit:10}</style><path class="fst0" d="M76 78H3.9c-1 0-1.9-.9-1.9-1.9V4c0-1 .9-1.9 1.9-1.9H76c1 0 1.9.9 1.9 1.9v72.1c0 1-.9 1.9-1.9 1.9z"/><path d="M72.9 33.9c0-2.5-1.8-4.1-4.3-4.2h-1.5v-.8-7.2c0-.7-.2-1.3-.7-1.8-4.5-5-8.9-10.1-13.4-15.1-.3-.4-.7-.7-1.1-1H16.1c-1.8.6-2.3 1.9-2.3 3.7v22.2h-1.5C9.8 29.8 8 31.4 8 34v20.8c0 2.5 1.7 4.2 4.3 4.2h1.5v13.5c0 1.8.5 3.1 2.3 3.7h48.7c1.8-.6 2.3-1.9 2.3-3.7-.1-4.2 0-8.4 0-12.6V59h1.5c2.6 0 4.3-1.7 4.3-4.2.1-7 .1-13.9 0-20.9zM16.7 6.8H50v14c0 1.4.5 1.9 1.9 1.9H64v7H16.6c.1-7.7.1-15.3.1-22.9zm38.9 30.5c-.1-.3-.3-.4-.7-.4-.3 0-.6.1-.7.4-.1.3-.2.9-.2 2v10c0 .9.1 1.5.2 1.8.1.3.4.4.7.4.4 0 .7-.2.8-.5.1-.3.2-1 .2-2v-2.5h-1.1v-3.2h6.4v11.1h-3.4l-.5-1.4c-.4.6-.8 1.1-1.4 1.4-.6.3-1.2.5-2 .5-.9 0-1.8-.2-2.6-.7-.8-.4-1.4-1-1.8-1.6s-.7-1.3-.8-2.1c-.1-.7-.1-1.8-.1-3.2v-6.2c0-2 .1-3.4.3-4.3.2-.9.8-1.7 1.9-2.5 1-.8 2.4-1.1 4-1.1s2.9.3 4 1 1.7 1.4 2.1 2.3.5 2.2.5 3.9v.9h-5.5v-1.9c-.1-1.1-.1-1.8-.3-2.1zm-9.1-3.6l-2.8 20.8h-8.3l-3.2-20.8H38c.7 5.7 1.1 10.6 1.4 14.5.3-4 .6-7.6.9-10.7l.4-3.9h5.8zM23.4 51.1c.1.2.4.3.8.3s.6-.1.8-.4c.2-.3.3-.7.3-1.3 0-1.2-.2-2-.5-2.4-.3-.4-1.2-1-2.6-1.9-1.4-.9-2.3-1.5-2.7-1.9-.4-.4-.8-1-1.1-1.7-.3-.7-.4-1.6-.4-2.7 0-1.6.2-2.8.6-3.5s1.1-1.3 2-1.7c.9-.4 2-.6 3.3-.6 1.4 0 2.6.2 3.6.7 1 .5 1.7 1 2 1.7s.5 1.9.5 3.5v.8h-5.1v-1.5c0-.7-.1-1.2-.2-1.4-.1-.2-.3-.3-.6-.3s-.6.1-.7.4-.4.6-.4 1.1c0 .7.1 1.2.3 1.6.2.3.7.8 1.5 1.3 2.4 1.4 4 2.6 4.6 3.5s.9 2.4.9 4.4c0 1.5-.2 2.6-.5 3.3-.3.7-1 1.3-2 1.8s-2.2.7-3.5.7c-1.5 0-2.7-.3-3.7-.8s-1.7-1.2-2-2.1c-.3-.9-.5-2.1-.5-3.6V47h5.1v2.5c-.1.9 0 1.4.2 1.6zm40 21.5h-46c-.4 0-.8 0-.8-.6V59.4 59H64V71.9c.2.6 0 .7-.6.7z"/></symbol><symbol id="social__print" viewBox="0 0 80 80"><style>.gst0{fill:#fff;stroke:red;stroke-width:2.961;stroke-miterlimit:10}</style><path class="gst0" d="M76 78H3.9c-1 0-1.9-.9-1.9-1.9V4c0-1 .9-1.9 1.9-1.9H76c1 0 1.9.9 1.9 1.9v72.1c0 1-.9 1.9-1.9 1.9z"/><path d="M72.9 33.9c0-2.5-1.8-4.1-4.3-4.2h-1.5v-.8-7.2c0-.7-.2-1.3-.7-1.8-4.5-5-8.9-10.1-13.4-15.1-.3-.4-.7-.7-1.1-1H16.1c-1.8.6-2.3 1.9-2.3 3.7v22.2h-1.5C9.8 29.8 8 31.4 8 34v20.8c0 2.5 1.7 4.2 4.3 4.2h1.5v13.5c0 1.8.5 3.1 2.3 3.7h48.7c1.8-.6 2.3-1.9 2.3-3.7-.1-4.2 0-8.4 0-12.6V59h1.5c2.6 0 4.3-1.7 4.3-4.2.1-7 .1-13.9 0-20.9zM16.7 6.8H50v14c0 1.4.5 1.9 1.9 1.9H64v7H16.6c.1-7.7.1-15.3.1-22.9zm38.9 30.5c-.1-.3-.3-.4-.7-.4-.3 0-.6.1-.7.4-.1.3-.2.9-.2 2v10c0 .9.1 1.5.2 1.8.1.3.4.4.7.4.4 0 .7-.2.8-.5.1-.3.2-1 .2-2v-2.5h-1.1v-3.2h6.4v11.1h-3.4l-.5-1.4c-.4.6-.8 1.1-1.4 1.4-.6.3-1.2.5-2 .5-.9 0-1.8-.2-2.6-.7-.8-.4-1.4-1-1.8-1.6s-.7-1.3-.8-2.1c-.1-.7-.1-1.8-.1-3.2v-6.2c0-2 .1-3.4.3-4.3.2-.9.8-1.7 1.9-2.5 1-.8 2.4-1.1 4-1.1s2.9.3 4 1 1.7 1.4 2.1 2.3.5 2.2.5 3.9v.9h-5.5v-1.9c-.1-1.1-.1-1.8-.3-2.1zm-9.1-3.6l-2.8 20.8h-8.3l-3.2-20.8H38c.7 5.7 1.1 10.6 1.4 14.5.3-4 .6-7.6.9-10.7l.4-3.9h5.8zM23.4 51.1c.1.2.4.3.8.3s.6-.1.8-.4c.2-.3.3-.7.3-1.3 0-1.2-.2-2-.5-2.4-.3-.4-1.2-1-2.6-1.9-1.4-.9-2.3-1.5-2.7-1.9-.4-.4-.8-1-1.1-1.7-.3-.7-.4-1.6-.4-2.7 0-1.6.2-2.8.6-3.5s1.1-1.3 2-1.7c.9-.4 2-.6 3.3-.6 1.4 0 2.6.2 3.6.7 1 .5 1.7 1 2 1.7s.5 1.9.5 3.5v.8h-5.1v-1.5c0-.7-.1-1.2-.2-1.4-.1-.2-.3-.3-.6-.3s-.6.1-.7.4-.4.6-.4 1.1c0 .7.1 1.2.3 1.6.2.3.7.8 1.5 1.3 2.4 1.4 4 2.6 4.6 3.5s.9 2.4.9 4.4c0 1.5-.2 2.6-.5 3.3-.3.7-1 1.3-2 1.8s-2.2.7-3.5.7c-1.5 0-2.7-.3-3.7-.8s-1.7-1.2-2-2.1c-.3-.9-.5-2.1-.5-3.6V47h5.1v2.5c-.1.9 0 1.4.2 1.6zm40 21.5h-46c-.4 0-.8 0-.8-.6V59.4 59H64V71.9c.2.6 0 .7-.6.7z"/></symbol><symbol id="social__twitter" viewBox="0 0 80 80"><style>.hst0{fill:#fff;stroke:red;stroke-width:2.961;stroke-miterlimit:10}</style><path class="hst0" d="M76 78H3.9c-1 0-1.9-.9-1.9-1.9V4c0-1 .9-1.9 1.9-1.9H76c1 0 1.9.9 1.9 1.9v72.1c0 1-.9 1.9-1.9 1.9z"/><path d="M72.9 33.9c0-2.5-1.8-4.1-4.3-4.2h-1.5v-.8-7.2c0-.7-.2-1.3-.7-1.8-4.5-5-8.9-10.1-13.4-15.1-.3-.4-.7-.7-1.1-1H16.1c-1.8.6-2.3 1.9-2.3 3.7v22.2h-1.5C9.8 29.8 8 31.4 8 34v20.8c0 2.5 1.7 4.2 4.3 4.2h1.5v13.5c0 1.8.5 3.1 2.3 3.7h48.7c1.8-.6 2.3-1.9 2.3-3.7-.1-4.2 0-8.4 0-12.6V59h1.5c2.6 0 4.3-1.7 4.3-4.2.1-7 .1-13.9 0-20.9zM16.7 6.8H50v14c0 1.4.5 1.9 1.9 1.9H64v7H16.6c.1-7.7.1-15.3.1-22.9zm38.9 30.5c-.1-.3-.3-.4-.7-.4-.3 0-.6.1-.7.4-.1.3-.2.9-.2 2v10c0 .9.1 1.5.2 1.8.1.3.4.4.7.4.4 0 .7-.2.8-.5.1-.3.2-1 .2-2v-2.5h-1.1v-3.2h6.4v11.1h-3.4l-.5-1.4c-.4.6-.8 1.1-1.4 1.4-.6.3-1.2.5-2 .5-.9 0-1.8-.2-2.6-.7-.8-.4-1.4-1-1.8-1.6s-.7-1.3-.8-2.1c-.1-.7-.1-1.8-.1-3.2v-6.2c0-2 .1-3.4.3-4.3.2-.9.8-1.7 1.9-2.5 1-.8 2.4-1.1 4-1.1s2.9.3 4 1 1.7 1.4 2.1 2.3.5 2.2.5 3.9v.9h-5.5v-1.9c-.1-1.1-.1-1.8-.3-2.1zm-9.1-3.6l-2.8 20.8h-8.3l-3.2-20.8H38c.7 5.7 1.1 10.6 1.4 14.5.3-4 .6-7.6.9-10.7l.4-3.9h5.8zM23.4 51.1c.1.2.4.3.8.3s.6-.1.8-.4c.2-.3.3-.7.3-1.3 0-1.2-.2-2-.5-2.4-.3-.4-1.2-1-2.6-1.9-1.4-.9-2.3-1.5-2.7-1.9-.4-.4-.8-1-1.1-1.7-.3-.7-.4-1.6-.4-2.7 0-1.6.2-2.8.6-3.5s1.1-1.3 2-1.7c.9-.4 2-.6 3.3-.6 1.4 0 2.6.2 3.6.7 1 .5 1.7 1 2 1.7s.5 1.9.5 3.5v.8h-5.1v-1.5c0-.7-.1-1.2-.2-1.4-.1-.2-.3-.3-.6-.3s-.6.1-.7.4-.4.6-.4 1.1c0 .7.1 1.2.3 1.6.2.3.7.8 1.5 1.3 2.4 1.4 4 2.6 4.6 3.5s.9 2.4.9 4.4c0 1.5-.2 2.6-.5 3.3-.3.7-1 1.3-2 1.8s-2.2.7-3.5.7c-1.5 0-2.7-.3-3.7-.8s-1.7-1.2-2-2.1c-.3-.9-.5-2.1-.5-3.6V47h5.1v2.5c-.1.9 0 1.4.2 1.6zm40 21.5h-46c-.4 0-.8 0-.8-.6V59.4 59H64V71.9c.2.6 0 .7-.6.7z"/></symbol><symbol id="social__vk" viewBox="0 0 80 80"><style>.ist0{fill:#fff;stroke:red;stroke-width:2.961;stroke-miterlimit:10}</style><path class="ist0" d="M76 78H3.9c-1 0-1.9-.9-1.9-1.9V4c0-1 .9-1.9 1.9-1.9H76c1 0 1.9.9 1.9 1.9v72.1c0 1-.9 1.9-1.9 1.9z"/><path d="M72.9 33.9c0-2.5-1.8-4.1-4.3-4.2h-1.5v-.8-7.2c0-.7-.2-1.3-.7-1.8-4.5-5-8.9-10.1-13.4-15.1-.3-.4-.7-.7-1.1-1H16.1c-1.8.6-2.3 1.9-2.3 3.7v22.2h-1.5C9.8 29.8 8 31.4 8 34v20.8c0 2.5 1.7 4.2 4.3 4.2h1.5v13.5c0 1.8.5 3.1 2.3 3.7h48.7c1.8-.6 2.3-1.9 2.3-3.7-.1-4.2 0-8.4 0-12.6V59h1.5c2.6 0 4.3-1.7 4.3-4.2.1-7 .1-13.9 0-20.9zM16.7 6.8H50v14c0 1.4.5 1.9 1.9 1.9H64v7H16.6c.1-7.7.1-15.3.1-22.9zm38.9 30.5c-.1-.3-.3-.4-.7-.4-.3 0-.6.1-.7.4-.1.3-.2.9-.2 2v10c0 .9.1 1.5.2 1.8.1.3.4.4.7.4.4 0 .7-.2.8-.5.1-.3.2-1 .2-2v-2.5h-1.1v-3.2h6.4v11.1h-3.4l-.5-1.4c-.4.6-.8 1.1-1.4 1.4-.6.3-1.2.5-2 .5-.9 0-1.8-.2-2.6-.7-.8-.4-1.4-1-1.8-1.6s-.7-1.3-.8-2.1c-.1-.7-.1-1.8-.1-3.2v-6.2c0-2 .1-3.4.3-4.3.2-.9.8-1.7 1.9-2.5 1-.8 2.4-1.1 4-1.1s2.9.3 4 1 1.7 1.4 2.1 2.3.5 2.2.5 3.9v.9h-5.5v-1.9c-.1-1.1-.1-1.8-.3-2.1zm-9.1-3.6l-2.8 20.8h-8.3l-3.2-20.8H38c.7 5.7 1.1 10.6 1.4 14.5.3-4 .6-7.6.9-10.7l.4-3.9h5.8zM23.4 51.1c.1.2.4.3.8.3s.6-.1.8-.4c.2-.3.3-.7.3-1.3 0-1.2-.2-2-.5-2.4-.3-.4-1.2-1-2.6-1.9-1.4-.9-2.3-1.5-2.7-1.9-.4-.4-.8-1-1.1-1.7-.3-.7-.4-1.6-.4-2.7 0-1.6.2-2.8.6-3.5s1.1-1.3 2-1.7c.9-.4 2-.6 3.3-.6 1.4 0 2.6.2 3.6.7 1 .5 1.7 1 2 1.7s.5 1.9.5 3.5v.8h-5.1v-1.5c0-.7-.1-1.2-.2-1.4-.1-.2-.3-.3-.6-.3s-.6.1-.7.4-.4.6-.4 1.1c0 .7.1 1.2.3 1.6.2.3.7.8 1.5 1.3 2.4 1.4 4 2.6 4.6 3.5s.9 2.4.9 4.4c0 1.5-.2 2.6-.5 3.3-.3.7-1 1.3-2 1.8s-2.2.7-3.5.7c-1.5 0-2.7-.3-3.7-.8s-1.7-1.2-2-2.1c-.3-.9-.5-2.1-.5-3.6V47h5.1v2.5c-.1.9 0 1.4.2 1.6zm40 21.5h-46c-.4 0-.8 0-.8-.6V59.4 59H64V71.9c.2.6 0 .7-.6.7z"/></symbol><symbol id="upline__e-mail" viewBox="0 0 30 20"><style>.jst0{fill:#fff}</style><path class="jst0" d="M0 2v16c0 1.1.9 2 2 2h26c1.1 0 2-.9 2-2V2c0-1.1-.9-2-2-2H2C.9 0 0 .9 0 2zm17.1 10.5c-1.2 1.2-3.1 1.2-4.2 0L2.4 2h25.2L17.1 12.5zM8.6 11L2 17.6V4.4L8.6 11zm1.4 1.4l1.5 1.5c1 1 2.3 1.5 3.5 1.5s2.6-.5 3.5-1.5l1.5-1.5 5.6 5.6H4.4l5.6-5.6zM21.4 11L28 4.4v13.2L21.4 11z"/></symbol><symbol id="upline__phone" viewBox="0 0 36 22"><style>.kst0{fill:#fff}</style><path class="kst0" d="M28 22H8v-6c0-.4.1-.9.4-1.2l2.6-3.5V7h14v4.4l2.6 3.5c.3.3.4.8.4 1.2V22zm-18-2h16v-3.3c0-.4-.1-.9-.4-1.2L23 12V9H13v3l-2.6 3.5c-.3.3-.4.8-.4 1.2V20z"/><path class="kst0" d="M32.5 3.3C30.4 1.2 25 .2 18 .1c0 0 .2 0 0 0-7 0-12.4 1.1-14.5 3.2C1.8 5.1.1 7.8 1.1 9.6c.5 1 1.6 1.5 3.2 1.5.6 0 1.2-.1 1.9-.2C10 10.3 10 8.1 10 7c0-.8 2.9-1.9 7.5-2h1c4.6.1 7.5 1.2 7.5 2 0 1.1 0 3.3 3.8 4 .7.1 1.4.2 1.9.2 1.7 0 2.6-.5 3.2-1.5 1-1.9-.7-4.6-2.4-6.4zm.8 5.4c-.2.4-1.1.6-3.1.3C28 8.6 28 7.9 28 7.1c0-3-5.2-4.1-10-4.1S8 4.1 8 7.1C8 7.9 8 8.6 5.8 9c-2 .3-2.9.1-3.1-.3-.3-.6.7-2.5 2.2-4C6.6 3 12 2.1 18 2.1c0 0-.2 0 0 0 6 0 11.4.9 13.1 2.6 1.5 1.5 2.5 3.4 2.2 4zM17 16h2v2h-2zM14 16h2v2h-2zM20 16h2v2h-2zM17 13h2v2h-2zM14 13h2v2h-2zM20 13h2v2h-2z"/><path class="kst0" d="M17 10h2v2h-2zM14 10h2v2h-2zM20 10h2v2h-2z"/></symbol><symbol id="uslugi__calculator" viewBox="0 0 80 80"><style>.lst0{fill:#fff;stroke:red;stroke-width:2.961;stroke-miterlimit:10}</style><path class="lst0" d="M76 78H3.9c-1 0-1.9-.9-1.9-1.9V4c0-1 .9-1.9 1.9-1.9H76c1 0 1.9.9 1.9 1.9v72.1c0 1-.9 1.9-1.9 1.9z"/><path d="M72.9 33.9c0-2.5-1.8-4.1-4.3-4.2h-1.5v-.8-7.2c0-.7-.2-1.3-.7-1.8-4.5-5-8.9-10.1-13.4-15.1-.3-.4-.7-.7-1.1-1H16.1c-1.8.6-2.3 1.9-2.3 3.7v22.2h-1.5C9.8 29.8 8 31.4 8 34v20.8c0 2.5 1.7 4.2 4.3 4.2h1.5v13.5c0 1.8.5 3.1 2.3 3.7h48.7c1.8-.6 2.3-1.9 2.3-3.7-.1-4.2 0-8.4 0-12.6V59h1.5c2.6 0 4.3-1.7 4.3-4.2.1-7 .1-13.9 0-20.9zM16.7 6.8H50v14c0 1.4.5 1.9 1.9 1.9H64v7H16.6c.1-7.7.1-15.3.1-22.9zm38.9 30.5c-.1-.3-.3-.4-.7-.4-.3 0-.6.1-.7.4-.1.3-.2.9-.2 2v10c0 .9.1 1.5.2 1.8.1.3.4.4.7.4.4 0 .7-.2.8-.5.1-.3.2-1 .2-2v-2.5h-1.1v-3.2h6.4v11.1h-3.4l-.5-1.4c-.4.6-.8 1.1-1.4 1.4-.6.3-1.2.5-2 .5-.9 0-1.8-.2-2.6-.7-.8-.4-1.4-1-1.8-1.6s-.7-1.3-.8-2.1c-.1-.7-.1-1.8-.1-3.2v-6.2c0-2 .1-3.4.3-4.3.2-.9.8-1.7 1.9-2.5 1-.8 2.4-1.1 4-1.1s2.9.3 4 1 1.7 1.4 2.1 2.3.5 2.2.5 3.9v.9h-5.5v-1.9c-.1-1.1-.1-1.8-.3-2.1zm-9.1-3.6l-2.8 20.8h-8.3l-3.2-20.8H38c.7 5.7 1.1 10.6 1.4 14.5.3-4 .6-7.6.9-10.7l.4-3.9h5.8zM23.4 51.1c.1.2.4.3.8.3s.6-.1.8-.4c.2-.3.3-.7.3-1.3 0-1.2-.2-2-.5-2.4-.3-.4-1.2-1-2.6-1.9-1.4-.9-2.3-1.5-2.7-1.9-.4-.4-.8-1-1.1-1.7-.3-.7-.4-1.6-.4-2.7 0-1.6.2-2.8.6-3.5s1.1-1.3 2-1.7c.9-.4 2-.6 3.3-.6 1.4 0 2.6.2 3.6.7 1 .5 1.7 1 2 1.7s.5 1.9.5 3.5v.8h-5.1v-1.5c0-.7-.1-1.2-.2-1.4-.1-.2-.3-.3-.6-.3s-.6.1-.7.4-.4.6-.4 1.1c0 .7.1 1.2.3 1.6.2.3.7.8 1.5 1.3 2.4 1.4 4 2.6 4.6 3.5s.9 2.4.9 4.4c0 1.5-.2 2.6-.5 3.3-.3.7-1 1.3-2 1.8s-2.2.7-3.5.7c-1.5 0-2.7-.3-3.7-.8s-1.7-1.2-2-2.1c-.3-.9-.5-2.1-.5-3.6V47h5.1v2.5c-.1.9 0 1.4.2 1.6zm40 21.5h-46c-.4 0-.8 0-.8-.6V59.4 59H64V71.9c.2.6 0 .7-.6.7z"/></symbol><symbol id="uslugi__manager" viewBox="0 0 80 80"><style>.mst0{fill:#fff;stroke:red;stroke-width:2.961;stroke-miterlimit:10}</style><path class="mst0" d="M76 78H3.9c-1 0-1.9-.9-1.9-1.9V4c0-1 .9-1.9 1.9-1.9H76c1 0 1.9.9 1.9 1.9v72.1c0 1-.9 1.9-1.9 1.9z"/><path d="M72.9 33.9c0-2.5-1.8-4.1-4.3-4.2h-1.5v-.8-7.2c0-.7-.2-1.3-.7-1.8-4.5-5-8.9-10.1-13.4-15.1-.3-.4-.7-.7-1.1-1H16.1c-1.8.6-2.3 1.9-2.3 3.7v22.2h-1.5C9.8 29.8 8 31.4 8 34v20.8c0 2.5 1.7 4.2 4.3 4.2h1.5v13.5c0 1.8.5 3.1 2.3 3.7h48.7c1.8-.6 2.3-1.9 2.3-3.7-.1-4.2 0-8.4 0-12.6V59h1.5c2.6 0 4.3-1.7 4.3-4.2.1-7 .1-13.9 0-20.9zM16.7 6.8H50v14c0 1.4.5 1.9 1.9 1.9H64v7H16.6c.1-7.7.1-15.3.1-22.9zm38.9 30.5c-.1-.3-.3-.4-.7-.4-.3 0-.6.1-.7.4-.1.3-.2.9-.2 2v10c0 .9.1 1.5.2 1.8.1.3.4.4.7.4.4 0 .7-.2.8-.5.1-.3.2-1 .2-2v-2.5h-1.1v-3.2h6.4v11.1h-3.4l-.5-1.4c-.4.6-.8 1.1-1.4 1.4-.6.3-1.2.5-2 .5-.9 0-1.8-.2-2.6-.7-.8-.4-1.4-1-1.8-1.6s-.7-1.3-.8-2.1c-.1-.7-.1-1.8-.1-3.2v-6.2c0-2 .1-3.4.3-4.3.2-.9.8-1.7 1.9-2.5 1-.8 2.4-1.1 4-1.1s2.9.3 4 1 1.7 1.4 2.1 2.3.5 2.2.5 3.9v.9h-5.5v-1.9c-.1-1.1-.1-1.8-.3-2.1zm-9.1-3.6l-2.8 20.8h-8.3l-3.2-20.8H38c.7 5.7 1.1 10.6 1.4 14.5.3-4 .6-7.6.9-10.7l.4-3.9h5.8zM23.4 51.1c.1.2.4.3.8.3s.6-.1.8-.4c.2-.3.3-.7.3-1.3 0-1.2-.2-2-.5-2.4-.3-.4-1.2-1-2.6-1.9-1.4-.9-2.3-1.5-2.7-1.9-.4-.4-.8-1-1.1-1.7-.3-.7-.4-1.6-.4-2.7 0-1.6.2-2.8.6-3.5s1.1-1.3 2-1.7c.9-.4 2-.6 3.3-.6 1.4 0 2.6.2 3.6.7 1 .5 1.7 1 2 1.7s.5 1.9.5 3.5v.8h-5.1v-1.5c0-.7-.1-1.2-.2-1.4-.1-.2-.3-.3-.6-.3s-.6.1-.7.4-.4.6-.4 1.1c0 .7.1 1.2.3 1.6.2.3.7.8 1.5 1.3 2.4 1.4 4 2.6 4.6 3.5s.9 2.4.9 4.4c0 1.5-.2 2.6-.5 3.3-.3.7-1 1.3-2 1.8s-2.2.7-3.5.7c-1.5 0-2.7-.3-3.7-.8s-1.7-1.2-2-2.1c-.3-.9-.5-2.1-.5-3.6V47h5.1v2.5c-.1.9 0 1.4.2 1.6zm40 21.5h-46c-.4 0-.8 0-.8-.6V59.4 59H64V71.9c.2.6 0 .7-.6.7z"/></symbol><symbol id="uslugi__montazman" viewBox="0 0 80 80"><style>.nst0{fill:#fff;stroke:red;stroke-width:2.961;stroke-miterlimit:10}</style><path class="nst0" d="M76 78H3.9c-1 0-1.9-.9-1.9-1.9V4c0-1 .9-1.9 1.9-1.9H76c1 0 1.9.9 1.9 1.9v72.1c0 1-.9 1.9-1.9 1.9z"/><path d="M72.9 33.9c0-2.5-1.8-4.1-4.3-4.2h-1.5v-.8-7.2c0-.7-.2-1.3-.7-1.8-4.5-5-8.9-10.1-13.4-15.1-.3-.4-.7-.7-1.1-1H16.1c-1.8.6-2.3 1.9-2.3 3.7v22.2h-1.5C9.8 29.8 8 31.4 8 34v20.8c0 2.5 1.7 4.2 4.3 4.2h1.5v13.5c0 1.8.5 3.1 2.3 3.7h48.7c1.8-.6 2.3-1.9 2.3-3.7-.1-4.2 0-8.4 0-12.6V59h1.5c2.6 0 4.3-1.7 4.3-4.2.1-7 .1-13.9 0-20.9zM16.7 6.8H50v14c0 1.4.5 1.9 1.9 1.9H64v7H16.6c.1-7.7.1-15.3.1-22.9zm38.9 30.5c-.1-.3-.3-.4-.7-.4-.3 0-.6.1-.7.4-.1.3-.2.9-.2 2v10c0 .9.1 1.5.2 1.8.1.3.4.4.7.4.4 0 .7-.2.8-.5.1-.3.2-1 .2-2v-2.5h-1.1v-3.2h6.4v11.1h-3.4l-.5-1.4c-.4.6-.8 1.1-1.4 1.4-.6.3-1.2.5-2 .5-.9 0-1.8-.2-2.6-.7-.8-.4-1.4-1-1.8-1.6s-.7-1.3-.8-2.1c-.1-.7-.1-1.8-.1-3.2v-6.2c0-2 .1-3.4.3-4.3.2-.9.8-1.7 1.9-2.5 1-.8 2.4-1.1 4-1.1s2.9.3 4 1 1.7 1.4 2.1 2.3.5 2.2.5 3.9v.9h-5.5v-1.9c-.1-1.1-.1-1.8-.3-2.1zm-9.1-3.6l-2.8 20.8h-8.3l-3.2-20.8H38c.7 5.7 1.1 10.6 1.4 14.5.3-4 .6-7.6.9-10.7l.4-3.9h5.8zM23.4 51.1c.1.2.4.3.8.3s.6-.1.8-.4c.2-.3.3-.7.3-1.3 0-1.2-.2-2-.5-2.4-.3-.4-1.2-1-2.6-1.9-1.4-.9-2.3-1.5-2.7-1.9-.4-.4-.8-1-1.1-1.7-.3-.7-.4-1.6-.4-2.7 0-1.6.2-2.8.6-3.5s1.1-1.3 2-1.7c.9-.4 2-.6 3.3-.6 1.4 0 2.6.2 3.6.7 1 .5 1.7 1 2 1.7s.5 1.9.5 3.5v.8h-5.1v-1.5c0-.7-.1-1.2-.2-1.4-.1-.2-.3-.3-.6-.3s-.6.1-.7.4-.4.6-.4 1.1c0 .7.1 1.2.3 1.6.2.3.7.8 1.5 1.3 2.4 1.4 4 2.6 4.6 3.5s.9 2.4.9 4.4c0 1.5-.2 2.6-.5 3.3-.3.7-1 1.3-2 1.8s-2.2.7-3.5.7c-1.5 0-2.7-.3-3.7-.8s-1.7-1.2-2-2.1c-.3-.9-.5-2.1-.5-3.6V47h5.1v2.5c-.1.9 0 1.4.2 1.6zm40 21.5h-46c-.4 0-.8 0-.8-.6V59.4 59H64V71.9c.2.6 0 .7-.6.7z"/></symbol><symbol id="uslugi__projectman" viewBox="0 0 80 80"><style>.ost0{fill:#fff;stroke:red;stroke-width:2.961;stroke-miterlimit:10}</style><path class="ost0" d="M76 78H3.9c-1 0-1.9-.9-1.9-1.9V4c0-1 .9-1.9 1.9-1.9H76c1 0 1.9.9 1.9 1.9v72.1c0 1-.9 1.9-1.9 1.9z"/><path d="M72.9 33.9c0-2.5-1.8-4.1-4.3-4.2h-1.5v-.8-7.2c0-.7-.2-1.3-.7-1.8-4.5-5-8.9-10.1-13.4-15.1-.3-.4-.7-.7-1.1-1H16.1c-1.8.6-2.3 1.9-2.3 3.7v22.2h-1.5C9.8 29.8 8 31.4 8 34v20.8c0 2.5 1.7 4.2 4.3 4.2h1.5v13.5c0 1.8.5 3.1 2.3 3.7h48.7c1.8-.6 2.3-1.9 2.3-3.7-.1-4.2 0-8.4 0-12.6V59h1.5c2.6 0 4.3-1.7 4.3-4.2.1-7 .1-13.9 0-20.9zM16.7 6.8H50v14c0 1.4.5 1.9 1.9 1.9H64v7H16.6c.1-7.7.1-15.3.1-22.9zm38.9 30.5c-.1-.3-.3-.4-.7-.4-.3 0-.6.1-.7.4-.1.3-.2.9-.2 2v10c0 .9.1 1.5.2 1.8.1.3.4.4.7.4.4 0 .7-.2.8-.5.1-.3.2-1 .2-2v-2.5h-1.1v-3.2h6.4v11.1h-3.4l-.5-1.4c-.4.6-.8 1.1-1.4 1.4-.6.3-1.2.5-2 .5-.9 0-1.8-.2-2.6-.7-.8-.4-1.4-1-1.8-1.6s-.7-1.3-.8-2.1c-.1-.7-.1-1.8-.1-3.2v-6.2c0-2 .1-3.4.3-4.3.2-.9.8-1.7 1.9-2.5 1-.8 2.4-1.1 4-1.1s2.9.3 4 1 1.7 1.4 2.1 2.3.5 2.2.5 3.9v.9h-5.5v-1.9c-.1-1.1-.1-1.8-.3-2.1zm-9.1-3.6l-2.8 20.8h-8.3l-3.2-20.8H38c.7 5.7 1.1 10.6 1.4 14.5.3-4 .6-7.6.9-10.7l.4-3.9h5.8zM23.4 51.1c.1.2.4.3.8.3s.6-.1.8-.4c.2-.3.3-.7.3-1.3 0-1.2-.2-2-.5-2.4-.3-.4-1.2-1-2.6-1.9-1.4-.9-2.3-1.5-2.7-1.9-.4-.4-.8-1-1.1-1.7-.3-.7-.4-1.6-.4-2.7 0-1.6.2-2.8.6-3.5s1.1-1.3 2-1.7c.9-.4 2-.6 3.3-.6 1.4 0 2.6.2 3.6.7 1 .5 1.7 1 2 1.7s.5 1.9.5 3.5v.8h-5.1v-1.5c0-.7-.1-1.2-.2-1.4-.1-.2-.3-.3-.6-.3s-.6.1-.7.4-.4.6-.4 1.1c0 .7.1 1.2.3 1.6.2.3.7.8 1.5 1.3 2.4 1.4 4 2.6 4.6 3.5s.9 2.4.9 4.4c0 1.5-.2 2.6-.5 3.3-.3.7-1 1.3-2 1.8s-2.2.7-3.5.7c-1.5 0-2.7-.3-3.7-.8s-1.7-1.2-2-2.1c-.3-.9-.5-2.1-.5-3.6V47h5.1v2.5c-.1.9 0 1.4.2 1.6zm40 21.5h-46c-.4 0-.8 0-.8-.6V59.4 59H64V71.9c.2.6 0 .7-.6.7z"/></symbol><symbol id="why__experience" viewBox="0 0 80 80"><style>.pst0{fill:#fff;stroke:red;stroke-width:2.961;stroke-miterlimit:10}</style><path class="pst0" d="M76 78H3.9c-1 0-1.9-.9-1.9-1.9V4c0-1 .9-1.9 1.9-1.9H76c1 0 1.9.9 1.9 1.9v72.1c0 1-.9 1.9-1.9 1.9z"/><path d="M72.9 33.9c0-2.5-1.8-4.1-4.3-4.2h-1.5v-.8-7.2c0-.7-.2-1.3-.7-1.8-4.5-5-8.9-10.1-13.4-15.1-.3-.4-.7-.7-1.1-1H16.1c-1.8.6-2.3 1.9-2.3 3.7v22.2h-1.5C9.8 29.8 8 31.4 8 34v20.8c0 2.5 1.7 4.2 4.3 4.2h1.5v13.5c0 1.8.5 3.1 2.3 3.7h48.7c1.8-.6 2.3-1.9 2.3-3.7-.1-4.2 0-8.4 0-12.6V59h1.5c2.6 0 4.3-1.7 4.3-4.2.1-7 .1-13.9 0-20.9zM16.7 6.8H50v14c0 1.4.5 1.9 1.9 1.9H64v7H16.6c.1-7.7.1-15.3.1-22.9zm38.9 30.5c-.1-.3-.3-.4-.7-.4-.3 0-.6.1-.7.4-.1.3-.2.9-.2 2v10c0 .9.1 1.5.2 1.8.1.3.4.4.7.4.4 0 .7-.2.8-.5.1-.3.2-1 .2-2v-2.5h-1.1v-3.2h6.4v11.1h-3.4l-.5-1.4c-.4.6-.8 1.1-1.4 1.4-.6.3-1.2.5-2 .5-.9 0-1.8-.2-2.6-.7-.8-.4-1.4-1-1.8-1.6s-.7-1.3-.8-2.1c-.1-.7-.1-1.8-.1-3.2v-6.2c0-2 .1-3.4.3-4.3.2-.9.8-1.7 1.9-2.5 1-.8 2.4-1.1 4-1.1s2.9.3 4 1 1.7 1.4 2.1 2.3.5 2.2.5 3.9v.9h-5.5v-1.9c-.1-1.1-.1-1.8-.3-2.1zm-9.1-3.6l-2.8 20.8h-8.3l-3.2-20.8H38c.7 5.7 1.1 10.6 1.4 14.5.3-4 .6-7.6.9-10.7l.4-3.9h5.8zM23.4 51.1c.1.2.4.3.8.3s.6-.1.8-.4c.2-.3.3-.7.3-1.3 0-1.2-.2-2-.5-2.4-.3-.4-1.2-1-2.6-1.9-1.4-.9-2.3-1.5-2.7-1.9-.4-.4-.8-1-1.1-1.7-.3-.7-.4-1.6-.4-2.7 0-1.6.2-2.8.6-3.5s1.1-1.3 2-1.7c.9-.4 2-.6 3.3-.6 1.4 0 2.6.2 3.6.7 1 .5 1.7 1 2 1.7s.5 1.9.5 3.5v.8h-5.1v-1.5c0-.7-.1-1.2-.2-1.4-.1-.2-.3-.3-.6-.3s-.6.1-.7.4-.4.6-.4 1.1c0 .7.1 1.2.3 1.6.2.3.7.8 1.5 1.3 2.4 1.4 4 2.6 4.6 3.5s.9 2.4.9 4.4c0 1.5-.2 2.6-.5 3.3-.3.7-1 1.3-2 1.8s-2.2.7-3.5.7c-1.5 0-2.7-.3-3.7-.8s-1.7-1.2-2-2.1c-.3-.9-.5-2.1-.5-3.6V47h5.1v2.5c-.1.9 0 1.4.2 1.6zm40 21.5h-46c-.4 0-.8 0-.8-.6V59.4 59H64V71.9c.2.6 0 .7-.6.7z"/></symbol><symbol id="why__optimization" viewBox="0 0 80 80"><style>.qst0{fill:#fff;stroke:red;stroke-width:2.961;stroke-miterlimit:10}</style><path class="qst0" d="M76 78H3.9c-1 0-1.9-.9-1.9-1.9V4c0-1 .9-1.9 1.9-1.9H76c1 0 1.9.9 1.9 1.9v72.1c0 1-.9 1.9-1.9 1.9z"/><path d="M72.9 33.9c0-2.5-1.8-4.1-4.3-4.2h-1.5v-.8-7.2c0-.7-.2-1.3-.7-1.8-4.5-5-8.9-10.1-13.4-15.1-.3-.4-.7-.7-1.1-1H16.1c-1.8.6-2.3 1.9-2.3 3.7v22.2h-1.5C9.8 29.8 8 31.4 8 34v20.8c0 2.5 1.7 4.2 4.3 4.2h1.5v13.5c0 1.8.5 3.1 2.3 3.7h48.7c1.8-.6 2.3-1.9 2.3-3.7-.1-4.2 0-8.4 0-12.6V59h1.5c2.6 0 4.3-1.7 4.3-4.2.1-7 .1-13.9 0-20.9zM16.7 6.8H50v14c0 1.4.5 1.9 1.9 1.9H64v7H16.6c.1-7.7.1-15.3.1-22.9zm38.9 30.5c-.1-.3-.3-.4-.7-.4-.3 0-.6.1-.7.4-.1.3-.2.9-.2 2v10c0 .9.1 1.5.2 1.8.1.3.4.4.7.4.4 0 .7-.2.8-.5.1-.3.2-1 .2-2v-2.5h-1.1v-3.2h6.4v11.1h-3.4l-.5-1.4c-.4.6-.8 1.1-1.4 1.4-.6.3-1.2.5-2 .5-.9 0-1.8-.2-2.6-.7-.8-.4-1.4-1-1.8-1.6s-.7-1.3-.8-2.1c-.1-.7-.1-1.8-.1-3.2v-6.2c0-2 .1-3.4.3-4.3.2-.9.8-1.7 1.9-2.5 1-.8 2.4-1.1 4-1.1s2.9.3 4 1 1.7 1.4 2.1 2.3.5 2.2.5 3.9v.9h-5.5v-1.9c-.1-1.1-.1-1.8-.3-2.1zm-9.1-3.6l-2.8 20.8h-8.3l-3.2-20.8H38c.7 5.7 1.1 10.6 1.4 14.5.3-4 .6-7.6.9-10.7l.4-3.9h5.8zM23.4 51.1c.1.2.4.3.8.3s.6-.1.8-.4c.2-.3.3-.7.3-1.3 0-1.2-.2-2-.5-2.4-.3-.4-1.2-1-2.6-1.9-1.4-.9-2.3-1.5-2.7-1.9-.4-.4-.8-1-1.1-1.7-.3-.7-.4-1.6-.4-2.7 0-1.6.2-2.8.6-3.5s1.1-1.3 2-1.7c.9-.4 2-.6 3.3-.6 1.4 0 2.6.2 3.6.7 1 .5 1.7 1 2 1.7s.5 1.9.5 3.5v.8h-5.1v-1.5c0-.7-.1-1.2-.2-1.4-.1-.2-.3-.3-.6-.3s-.6.1-.7.4-.4.6-.4 1.1c0 .7.1 1.2.3 1.6.2.3.7.8 1.5 1.3 2.4 1.4 4 2.6 4.6 3.5s.9 2.4.9 4.4c0 1.5-.2 2.6-.5 3.3-.3.7-1 1.3-2 1.8s-2.2.7-3.5.7c-1.5 0-2.7-.3-3.7-.8s-1.7-1.2-2-2.1c-.3-.9-.5-2.1-.5-3.6V47h5.1v2.5c-.1.9 0 1.4.2 1.6zm40 21.5h-46c-.4 0-.8 0-.8-.6V59.4 59H64V71.9c.2.6 0 .7-.6.7z"/></symbol><symbol id="why__team" viewBox="0 0 80 80"><style>.rst0{fill:#fff;stroke:red;stroke-width:2.961;stroke-miterlimit:10}</style><path class="rst0" d="M76 78H3.9c-1 0-1.9-.9-1.9-1.9V4c0-1 .9-1.9 1.9-1.9H76c1 0 1.9.9 1.9 1.9v72.1c0 1-.9 1.9-1.9 1.9z"/><path d="M72.9 33.9c0-2.5-1.8-4.1-4.3-4.2h-1.5v-.8-7.2c0-.7-.2-1.3-.7-1.8-4.5-5-8.9-10.1-13.4-15.1-.3-.4-.7-.7-1.1-1H16.1c-1.8.6-2.3 1.9-2.3 3.7v22.2h-1.5C9.8 29.8 8 31.4 8 34v20.8c0 2.5 1.7 4.2 4.3 4.2h1.5v13.5c0 1.8.5 3.1 2.3 3.7h48.7c1.8-.6 2.3-1.9 2.3-3.7-.1-4.2 0-8.4 0-12.6V59h1.5c2.6 0 4.3-1.7 4.3-4.2.1-7 .1-13.9 0-20.9zM16.7 6.8H50v14c0 1.4.5 1.9 1.9 1.9H64v7H16.6c.1-7.7.1-15.3.1-22.9zm38.9 30.5c-.1-.3-.3-.4-.7-.4-.3 0-.6.1-.7.4-.1.3-.2.9-.2 2v10c0 .9.1 1.5.2 1.8.1.3.4.4.7.4.4 0 .7-.2.8-.5.1-.3.2-1 .2-2v-2.5h-1.1v-3.2h6.4v11.1h-3.4l-.5-1.4c-.4.6-.8 1.1-1.4 1.4-.6.3-1.2.5-2 .5-.9 0-1.8-.2-2.6-.7-.8-.4-1.4-1-1.8-1.6s-.7-1.3-.8-2.1c-.1-.7-.1-1.8-.1-3.2v-6.2c0-2 .1-3.4.3-4.3.2-.9.8-1.7 1.9-2.5 1-.8 2.4-1.1 4-1.1s2.9.3 4 1 1.7 1.4 2.1 2.3.5 2.2.5 3.9v.9h-5.5v-1.9c-.1-1.1-.1-1.8-.3-2.1zm-9.1-3.6l-2.8 20.8h-8.3l-3.2-20.8H38c.7 5.7 1.1 10.6 1.4 14.5.3-4 .6-7.6.9-10.7l.4-3.9h5.8zM23.4 51.1c.1.2.4.3.8.3s.6-.1.8-.4c.2-.3.3-.7.3-1.3 0-1.2-.2-2-.5-2.4-.3-.4-1.2-1-2.6-1.9-1.4-.9-2.3-1.5-2.7-1.9-.4-.4-.8-1-1.1-1.7-.3-.7-.4-1.6-.4-2.7 0-1.6.2-2.8.6-3.5s1.1-1.3 2-1.7c.9-.4 2-.6 3.3-.6 1.4 0 2.6.2 3.6.7 1 .5 1.7 1 2 1.7s.5 1.9.5 3.5v.8h-5.1v-1.5c0-.7-.1-1.2-.2-1.4-.1-.2-.3-.3-.6-.3s-.6.1-.7.4-.4.6-.4 1.1c0 .7.1 1.2.3 1.6.2.3.7.8 1.5 1.3 2.4 1.4 4 2.6 4.6 3.5s.9 2.4.9 4.4c0 1.5-.2 2.6-.5 3.3-.3.7-1 1.3-2 1.8s-2.2.7-3.5.7c-1.5 0-2.7-.3-3.7-.8s-1.7-1.2-2-2.1c-.3-.9-.5-2.1-.5-3.6V47h5.1v2.5c-.1.9 0 1.4.2 1.6zm40 21.5h-46c-.4 0-.8 0-.8-.6V59.4 59H64V71.9c.2.6 0 .7-.6.7z"/></symbol><symbol id="why__technology" viewBox="0 0 80 80"><style>.sst0{fill:#fff;stroke:red;stroke-width:2.961;stroke-miterlimit:10}</style><path class="sst0" d="M76 78H3.9c-1 0-1.9-.9-1.9-1.9V4c0-1 .9-1.9 1.9-1.9H76c1 0 1.9.9 1.9 1.9v72.1c0 1-.9 1.9-1.9 1.9z"/><path d="M72.9 33.9c0-2.5-1.8-4.1-4.3-4.2h-1.5v-.8-7.2c0-.7-.2-1.3-.7-1.8-4.5-5-8.9-10.1-13.4-15.1-.3-.4-.7-.7-1.1-1H16.1c-1.8.6-2.3 1.9-2.3 3.7v22.2h-1.5C9.8 29.8 8 31.4 8 34v20.8c0 2.5 1.7 4.2 4.3 4.2h1.5v13.5c0 1.8.5 3.1 2.3 3.7h48.7c1.8-.6 2.3-1.9 2.3-3.7-.1-4.2 0-8.4 0-12.6V59h1.5c2.6 0 4.3-1.7 4.3-4.2.1-7 .1-13.9 0-20.9zM16.7 6.8H50v14c0 1.4.5 1.9 1.9 1.9H64v7H16.6c.1-7.7.1-15.3.1-22.9zm38.9 30.5c-.1-.3-.3-.4-.7-.4-.3 0-.6.1-.7.4-.1.3-.2.9-.2 2v10c0 .9.1 1.5.2 1.8.1.3.4.4.7.4.4 0 .7-.2.8-.5.1-.3.2-1 .2-2v-2.5h-1.1v-3.2h6.4v11.1h-3.4l-.5-1.4c-.4.6-.8 1.1-1.4 1.4-.6.3-1.2.5-2 .5-.9 0-1.8-.2-2.6-.7-.8-.4-1.4-1-1.8-1.6s-.7-1.3-.8-2.1c-.1-.7-.1-1.8-.1-3.2v-6.2c0-2 .1-3.4.3-4.3.2-.9.8-1.7 1.9-2.5 1-.8 2.4-1.1 4-1.1s2.9.3 4 1 1.7 1.4 2.1 2.3.5 2.2.5 3.9v.9h-5.5v-1.9c-.1-1.1-.1-1.8-.3-2.1zm-9.1-3.6l-2.8 20.8h-8.3l-3.2-20.8H38c.7 5.7 1.1 10.6 1.4 14.5.3-4 .6-7.6.9-10.7l.4-3.9h5.8zM23.4 51.1c.1.2.4.3.8.3s.6-.1.8-.4c.2-.3.3-.7.3-1.3 0-1.2-.2-2-.5-2.4-.3-.4-1.2-1-2.6-1.9-1.4-.9-2.3-1.5-2.7-1.9-.4-.4-.8-1-1.1-1.7-.3-.7-.4-1.6-.4-2.7 0-1.6.2-2.8.6-3.5s1.1-1.3 2-1.7c.9-.4 2-.6 3.3-.6 1.4 0 2.6.2 3.6.7 1 .5 1.7 1 2 1.7s.5 1.9.5 3.5v.8h-5.1v-1.5c0-.7-.1-1.2-.2-1.4-.1-.2-.3-.3-.6-.3s-.6.1-.7.4-.4.6-.4 1.1c0 .7.1 1.2.3 1.6.2.3.7.8 1.5 1.3 2.4 1.4 4 2.6 4.6 3.5s.9 2.4.9 4.4c0 1.5-.2 2.6-.5 3.3-.3.7-1 1.3-2 1.8s-2.2.7-3.5.7c-1.5 0-2.7-.3-3.7-.8s-1.7-1.2-2-2.1c-.3-.9-.5-2.1-.5-3.6V47h5.1v2.5c-.1.9 0 1.4.2 1.6zm40 21.5h-46c-.4 0-.8 0-.8-.6V59.4 59H64V71.9c.2.6 0 .7-.6.7z"/></symbol></svg>