<?xml version="1.0" encoding="utf-8"?><svg width="112" height="1220" viewBox="0 0 112 1220" xmlns="http://www.w3.org/2000/svg" xmlns:xlink="http://www.w3.org/1999/xlink"><svg viewBox="30 -26 44 64" width="44" height="64" id="calculator"><path class="ast0" d="M68 38H36c-3.3 0-6-2.7-6-6v-52c0-3.3 2.7-6 6-6h32c3.3 0 6 2.7 6 6v52c0 3.3-2.7 6-6 6zM36-24c-2.2 0-4 1.8-4 4v52c0 2.2 1.8 4 4 4h32c2.2 0 4-1.8 4-4v-52c0-2.2-1.8-4-4-4H36z"/><path class="ast0" d="M67-9H37c-1.1 0-2-.9-2-2v-6c0-1.1.9-2 2-2h30c1.1 0 2 .9 2 2v6c0 1.1-.9 2-2 2zm-30-8v6h30v-6H37zM55 9h-6c-1.1 0-2-.9-2-2V1c0-1.1.9-2 2-2h6c1.1 0 2 .9 2 2v6c0 1.1-.9 2-2 2zm0-2v1-1zm-6-6v6h6V1h-6zM55 21h-6c-1.1 0-2-.9-2-2v-6c0-1.1.9-2 2-2h6c1.1 0 2 .9 2 2v6c0 1.1-.9 2-2 2zm0-2v1-1zm-6-6v6h6v-6h-6zM55 33h-6c-1.1 0-2-.9-2-2v-6c0-1.1.9-2 2-2h6c1.1 0 2 .9 2 2v6c0 1.1-.9 2-2 2zm0-2v1-1zm-6-6v6h6v-6h-6zM43 33h-6c-1.1 0-2-.9-2-2v-6c0-1.1.9-2 2-2h6c1.1 0 2 .9 2 2v6c0 1.1-.9 2-2 2zm0-2v1-1zm-6-6v6h6v-6h-6zM43 21h-6c-1.1 0-2-.9-2-2v-6c0-1.1.9-2 2-2h6c1.1 0 2 .9 2 2v6c0 1.1-.9 2-2 2zm0-2v1-1zm-6-6v6h6v-6h-6zM43 9h-6c-1.1 0-2-.9-2-2V1c0-1.1.9-2 2-2h6c1.1 0 2 .9 2 2v6c0 1.1-.9 2-2 2zm0-2v1-1zm-6-6v6h6V1h-6zM67 9h-6c-1.1 0-2-.9-2-2V1c0-1.1.9-2 2-2h6c1.1 0 2 .9 2 2v6c0 1.1-.9 2-2 2zm0-2v1-1zm-6-6v6h6V1h-6zM67 33h-6c-1.1 0-2-.9-2-2V13c0-1.1.9-2 2-2h6c1.1 0 2 .9 2 2v18c0 1.1-.9 2-2 2zm0-2v1-1zm-6-18v18h6V13h-6z"/></svg><svg viewBox="-16 0 64 64" width="64" height="64" id="cam" y="64"><path d="M46 38h-4c-1.1 0-2 .9-2 2v6.6l-6-3.5V43c0-3.3-2.7-6-6-6h-.6l-3.5-6 14.6-8.4c.7-.4 1.2-1 1.4-1.8.2-.8.1-1.6-.3-2.3l-4.5-7.8.9-.5c.7-.4 1.2-1 1.4-1.8.2-.8.1-1.6-.3-2.3L33.6 0l-49.2 28.4 12.9 3.4 4.8 8.3c.4.7 1 1.2 1.8 1.4.3.1.5.1.8.1.5 0 1-.1 1.5-.4L18.7 34l3.8 6.5.1-.1c-.4.8-.6 1.7-.6 2.6 0 3.3 2.7 6 6 6 1.1 0 2-.3 2.9-.8l9.1 5.3V62c0 1.1.9 2 2 2h4c1.1 0 2-.9 2-2V40c0-1.1-.9-2-2-2zm-56.4-10.3l43.3-25L35.3 7c.1.2.2.5.1.8s-.2.5-.4.6l-2.6 1.5-34.6 20-8.2-2.2zM5.2 39.5c-.2.1-.5.2-.8.1-.3-.1-.5-.2-.6-.5l-4.5-7.8 34.1-19.7 4.5 7.8c.1.2.2.5.1.8s-.2.5-.5.6L5.2 39.5zm15.3-6.4l1.7-1 3.2 5.5c-.6.3-1.2.7-1.6 1.2l-3.3-5.7zM24 43c0-2.2 1.8-4 4-4s4 1.8 4 4-1.8 4-4 4-4-1.8-4-4zm8.6 3.9c.4-.5.8-1.1 1-1.7l6.4 3.7v2.3l-7.4-4.3zM42 62V40h4v22h-4z"/><path d="M-5.1 39.6l-5-8.6-1.8 1 6 10.4 5.2-3-1-1.8z"/></svg><svg viewBox="-1 -15 25 21" width="25" height="21" id="checkbox" y="128"><path class="cst0" d="M18 6H-1v-18h18l-2 2H1V4h15v-7l2-2z"/><path class="cst0" d="M9.2 1.3L2.8-5.1l1.4-1.4 5 4.9L22.6-15l1.4 1.4z"/></svg><svg viewBox="0 0 94 64" width="94" height="64" id="experience" y="149"><path d="M13.6 59.6L9 44v-9.7l10 5.8V47c0 9.5 12.3 16.9 28.1 16.9C62.7 63.9 75 56.5 75 47v-6.8l16.7-9.7c1.2-.7 1.9-1.8 1.9-2.9s-.7-2.2-1.9-2.9L51 1.3c-2.2-1.3-5.7-1.3-7.9 0L2.4 24.8c-1.2.7-1.9 1.8-1.9 2.9s.7 2.2 1.9 2.9L7 33.2V44L2.4 59.6c-.2.8.2 1.6 1 1.8l.5.2c2.7.9 5.6.9 8.3 0l.5-.2c.7-.2 1.1-1 .9-1.8zm-2.1.5l-.3.1c-2.1.5-4.3.5-6.4 0l-.3-.1c-.3-.1-.4-.4-.4-.6L8 47.4l3.8 12.1c.1.3 0 .6-.3.6zM73 47c0 8.2-11.6 14.9-25.9 14.9C32.7 61.9 21 55.2 21 47v-5.7l22.6 13c1 .6 2.2.9 3.5.9 1.3 0 2.5-.3 3.5-.9L73 41.4V47zm17.7-18.2L49.6 52.6c-1.3.8-3.7.8-5 0l-34.5-20 34-6.1c.7.6 1.7 1 2.9 1 2.1 0 3.8-1.2 3.8-2.8S49.1 22 47 22c-2.1 0-3.8 1.2-3.8 2.7L7.4 31.1l-4-2.3c-.6-.3-.9-.8-.9-1.1s.3-.8.9-1.1L44.1 3c.8-.5 1.9-.7 3-.7s2.2.2 3 .7l40.7 23.5c.6.3.9.8.9 1.1s-.4.9-1 1.2z"/></svg><svg viewBox="-5 7 17 17" width="17" height="17" id="home" y="213"><path class="est0" d="M12 15.6L3.5 7-5 15.6l1.4 1.4.6-.6V24h13v-7.6l.6.6 1.4-1.4zM5 23H2v-5h3v5zm4 0H6v-6H1v6h-3v-7.6l5.5-5.6L9 15.4V23zM8 9h1v3h1V8H7v2h1z"/></svg><svg id="logo" viewBox="0 0 64 64" width="64" height="64" y="230"><style>.fst0{fill:#47b900}.fst1{fill:#fff}</style><path class="fst0" d="M6.5 54V31.1h5.2l3.2 15.6L18 31.1h5.3V54H20V36l-3.5 18h-3.4L9.8 36v18H6.5zM26.8 31.1h7c1.9 0 3.2.2 4 .6s1.4 1 2 2c.5.9.8 2 .8 3.2 0 1.1-.2 2.1-.7 3-.5.9-1 1.5-1.8 2 1 .4 1.8 1.1 2.4 2 .6 1 .9 2.1.9 3.5 0 1.7-.4 3.1-1.1 4.2-.7 1.1-1.6 1.9-2.6 2.1-.7.2-2.3.3-4.9.3h-5.9V31.1zm3.5 3.8v5.3h2.3c1.4 0 2.2 0 2.6-.1.6-.1 1.1-.4 1.4-.8.3-.4.5-1 .5-1.8 0-.7-.1-1.2-.4-1.6-.3-.4-.6-.7-1-.8-.4-.1-1.5-.2-3.4-.2h-2zm0 9.1v6.1h3.3c1.4 0 2.3-.1 2.8-.2.4-.2.7-.5 1-.9.3-.5.4-1.1.4-1.8s-.1-1.4-.4-1.8c-.3-.5-.7-.8-1.2-1-.5-.2-1.5-.3-3-.3h-2.9zM44.3 54V31.1h12.9V35h-9.4v5.1h8.7V44h-8.7v6.2h9.7V54H44.3z"/><g><path class="fst1" d="M28.6 28.9L19 19.3l-9.6 9.6-2.8-2.8L19 13.7l12.4 12.4z"/><path class="fst0" d="M41.1 15.7L32 6.6l-9.1 9.1-2.8-2.9L32 .9l11.9 11.9z"/><path class="fst1" d="M54.6 28.9L45 19.3l-9.6 9.6-2.8-2.8L45 13.7l12.4 12.4z"/></g><g><path class="fst1" d="M10.6 61.1v-.2-.2c-.1.1-.2.1-.3.2-.1.1-.2.1-.4.2-.1 0-.3.1-.5.1h-.5c-.3 0-.6 0-.9-.1-.3-.1-.6-.2-.8-.4-.2-.2-.4-.4-.6-.7-.1-.3-.2-.7-.2-1.1s.1-.8.2-1.1c.2-.5.4-.8.6-1s.5-.4.8-.5c.3-.1.6-.2 1-.2s.7.1 1 .2c.3.1.5.3.7.5l.1-.5H12v4.8c0 .3 0 .5-.1.7-.1.2-.1.4-.2.5-.1.2-.3.3-.5.5-.2.1-.4.2-.7.3-.3.1-.5.2-.8.2-.3 0-.6.1-1 .1H7.6c-.2 0-.3 0-.4-.1-.1 0-.3-.1-.3-.1v-.9c.3.1.5.1.8.2.3 0 .6.1.9.1.6 0 1.1-.1 1.5-.3.4-.2.5-.5.5-.9v-.3zm-1.3-.9h.4c.1 0 .2-.1.4-.1s.2-.1.3-.2.2-.1.2-.2v-2.1c-.2-.1-.3-.3-.6-.4-.2-.1-.5-.1-.7-.2H9c-.1 0-.2 0-.3.1-.1 0-.2.1-.3.2-.1.1-.2.2-.2.3s-.2.3-.2.5-.1.4-.1.6c0 .2 0 .5.1.6.1.2.1.3.3.5.1.1.3.2.4.3.2.1.4.1.6.1zM22.2 57.2h-.1c-.4 0-.8.1-1.2.2-.3.1-.6.3-.8.5V61h-1.4v-4.7h1.2l.1.7c.2-.2.4-.4.7-.6.3-.1.7-.2 1.1-.2h.4v1zM33.7 58.6c0 .4-.1.7-.2 1-.1.3-.3.6-.6.8s-.6.4-.9.5c-.4.1-.8.2-1.2.2-.5 0-.9-.1-1.2-.2-.4-.1-.7-.3-.9-.5-.3-.2-.4-.5-.6-.8-.1-.3-.2-.6-.2-1s.1-.7.2-1 .3-.6.6-.8c.3-.2.6-.4.9-.5.4-.1.8-.2 1.2-.2.5 0 .9.1 1.2.2.4.1.7.3.9.5s.4.5.6.8c.2.3.2.7.2 1zm-1.5 0c0-.3 0-.5-.1-.7-.1-.2-.2-.4-.3-.5-.1-.1-.3-.2-.5-.3s-.4-.1-.6-.1c-.2 0-.4 0-.6.1s-.3.2-.5.3-.2.3-.3.5c-.1.2-.1.4-.1.7s0 .5.1.7c.1.2.2.4.3.5.1.1.3.2.5.3.2.1.4.1.6.1s.4 0 .6-.1c.2-.1.3-.2.5-.3.1-.1.2-.3.3-.5.1-.2.1-.4.1-.7zM42.7 61.1c-.6 0-1.1-.1-1.5-.2-.4-.2-.7-.4-.9-.7-.1-.1-.2-.3-.2-.5-.1-.2-.1-.4-.1-.6v-2.9h1.4V59.4c0 .1.1.2.1.3.1.1.2.3.4.3.2.1.4.1.6.1.3 0 .5 0 .7-.1.2-.1.3-.2.4-.4.1-.2.1-.4.1-.6v-2.8h1.4v2.9c0 .4-.1.7-.2 1-.1.1-.2.3-.4.4-.1.1-.3.2-.5.3-.2.1-.4.2-.7.2 0 .1-.3.1-.6.1zM54.9 61.1c-.3 0-.6 0-.9-.1-.3-.1-.5-.2-.6-.3v2.7H52v-7h1.3l.1.5c.2-.2.4-.3.7-.5.3-.1.6-.2 1-.2.3 0 .6 0 .9.1.3.1.6.2.8.4s.4.4.6.8.2.7.2 1.1c0 .4-.1.8-.2 1.1-.2.3-.4.6-.6.8-.3.2-.5.4-.8.5s-.8.1-1.1.1zm-.2-4c-.3 0-.5.1-.7.1-.2.1-.4.2-.6.4v2.1l.2.2c.1.1.2.1.3.2.1 0 .2.1.3.1h.4c.2 0 .4 0 .6-.1.2-.1.3-.2.4-.3.1-.1.2-.3.3-.5.1-.2.1-.4.1-.6 0-.3 0-.5-.1-.7s-.2-.4-.3-.5c-.1-.1-.3-.2-.4-.3-.1-.1-.3-.1-.5-.1z"/></g></svg><svg viewBox="0 0 25 16" width="25" height="16" id="mail" y="294"><path class="gst0" d="M25 0H0v16h25V0zM13.6 10.6c-.6.6-1.6.6-2.1 0L1.9 1h21.2l-9.5 9.6zM1 1.5L7.5 8 1 14.6V1.5zM2 15l6.2-6.2 2.5 2.5c.5.5 1.1.7 1.8.7s1.3-.3 1.8-.7l2.5-2.5L23 15H2zm22-.4l-6.5-6.5L24 1.5v13.1z"/></svg><svg viewBox="20 -26 64 64" width="64" height="64" id="manager" y="310"><path class="hst0" d="M84 36.9c0-.5-1-11.8-16.7-15.9-3.5-.9-6.4-3.6-7.3-4.4v-4.1c1-.9 3.5-3.3 3.9-6.5 1.4-.3 3.3-1.7 4.1-6.8.5-3.3-.1-5.1-1.8-5.7.8-4.2-.3-9.1-3-12.5-1.8-2.3-4-3.6-6.5-3.9l-1-3H55c-6.9 0-11.8 1.9-14.8 5.7-3.7 4.8-3 11-2.4 13.7-1.8.6-2.3 2.4-1.8 5.7.8 5.1 2.7 6.5 4.1 6.8.4 3.2 2.9 5.7 3.9 6.5v4.1c-.9.9-3.8 3.5-7.3 4.4C21 25.1 20 36.5 20 36.9l-.1 1.1H84v-1.1zM45.6 11.2S42 8.4 42 5v-.4l-.7-.6h-.4c-1 .1-2.3-1.2-2.9-5.2-.5-3.3.4-3.5.8-3.6.3-.1.8-.1 1-.6.2-.2.3-.5.2-.9-.5-1.8-1.7-8.2 1.8-12.8 2.5-3.2 6.6-4.8 12.5-5l1 3h.7c2.1 0 4 1.1 5.6 3.1C64-14.7 65-10.1 64-6.3c-.1.3 0 .6.1.9.3.4.7.5 1 .6.5.1 1.3.3.8 3.6C65.3 2.7 64 4 63 4h-.5l-.5.6V5c0 3.4-3.6 6.2-3.6 6.2l-.4.3v3.7c0 1.8-3.1 2.8-6 2.8s-6-1-6-2.8v-3.7l-.4-.3zM37.3 23c1.4-.4 2.7-1 3.8-1.6.3 4.1 1.7 10.9 4 14.6H22.2c.6-2.7 3.4-10 15.1-13zm10.2 13C45 33.1 43 24.4 43 20.1c1.1-.8 1.9-1.6 2.4-2 .4.3.8.6 1.4.9.9.4 2 .7 3.2.9L49.1 36h-1.6zm7.4 0L54 19.9c1.8-.3 3.5-.8 4.6-1.8.4.4 1.3 1.2 2.4 2 0 4.3-2 13.1-4.5 15.9h-1.6zm4.1 0c2.3-3.8 3.7-10.5 4-14.6 1.1.7 2.4 1.3 3.8 1.6 11.7 3 14.5 10.3 15.1 13H59z"/></svg><svg viewBox="0 0 80 64" width="80" height="64" id="montaz" y="374"><path class="ist0" d="M70.5 36c-2.6-20.8-14.1-24.5-16-24.9-.6-2.3-1.7-4.2-3.2-5.6-2.7-2.4-5.8-2.5-7-2.5-1-1.9-2.4-3-4.3-3s-3.3 1.1-4.3 3c-1.1 0-4.3.2-6.9 2.5-1.5 1.4-2.6 3.2-3.2 5.6-1.9.5-13.4 4.1-16 24.9-6.3.2-9.6 4.6-9.6 9 0 5.7 8.5 19 25 19h30c16.5 0 25-13.3 25-19 0-4.4-3.3-8.8-9.5-9zM49.9 7c2 1.9 3.1 4.9 3.1 9v11.1c0 .6.4 1 1 1s1-.4 1-1V16c0-1-.1-1.8-.2-2.7 3.4 1.3 14 7.2 14.2 31.2-1.6.7-7.9 2.1-14 3.3-.1-2-1.2-5.7-2.7-10.3-1.8-5.5-3.8-11.8-4.3-16.6l-.1-1.1c-.6-5.4-1.2-10.9-2.6-14.8 1.2.1 3 .6 4.6 2zM40 2c3.9 0 5 10.4 5.9 18l.1 1.1c.6 5 2.6 11.4 4.4 17 1.3 4.2 2.6 8.2 2.6 9.9 0 2.4-5.7 4.3-13 4.3S27 50.4 27 48c0-1.7 1.3-5.6 2.6-9.9 1.8-5.6 3.8-12 4.4-17l.1-1.1c.9-7.6 2-18 5.9-18zM25.2 13.3c-.1.9-.2 1.8-.2 2.7v11.1c0 .6.4 1 1 1s1-.4 1-1V16c0-4.1 1-7.1 3.1-9 1.6-1.4 3.5-1.9 4.7-2-1.4 3.8-2 9.3-2.6 14.8l-.2 1.1c-.5 4.8-2.5 11.1-4.3 16.6-1.5 4.6-2.6 8.3-2.7 10.3-6.1-1.2-12.4-2.6-14-3.3.1-23.9 10.8-29.9 14.2-31.2zM55 62H25C9.2 62 2 49 2 45c0-3.2 2.3-6.7 7.3-7-.2 2.2-.3 4.5-.3 7 0 .9 0 1.8 16.6 4.9.7 1 2 2.1 4.5 2.9 2.6.9 6.2 1.4 9.9 1.4 6.2 0 12.5-1.4 14.4-4.3C71 46.8 71 45.9 71 45c0-2.5-.1-4.8-.3-7 5 .3 7.3 3.7 7.3 7 0 4-7.2 17-23 17z"/></svg><svg viewBox="0 0 64 64" width="64" height="64" id="optimization" y="438"><path d="M59.7 47.9C62.4 43.2 64 37.8 64 32c0-5.8-1.6-11.2-4.3-15.9V16l-.1-.1C56.8 11.1 52.8 7.1 48 4.3l-.1-.1h-.1C43.2 1.6 37.8 0 32 0c-5.8 0-11.2 1.6-15.9 4.3H16l-.1.1C11.1 7.2 7.1 11.2 4.3 16l-.1.1v.1C1.6 20.8 0 26.2 0 32c0 5.8 1.6 11.2 4.3 15.9v.1s0 .1.1.1c2.8 4.8 6.8 8.8 11.6 11.6l.1.1h.1c4.6 2.7 10 4.2 15.8 4.2 5.8 0 11.2-1.5 15.9-4.2h.1l.1-.1c4.8-2.8 8.8-6.8 11.6-11.6v-.2c0 .1 0 0 0 0zm-11.8 9.6l-1-1.7c-.3-.5-.9-.6-1.4-.4-.5.3-.6.9-.4 1.4l1 1.7c-3.9 2.1-8.4 3.4-13.1 3.5v-2c0-.6-.4-1-1-1s-1 .4-1 1v2c-4.7-.2-9.2-1.4-13.1-3.5l1-1.7c.3-.5.1-1.1-.4-1.4-.5-.3-1.1-.1-1.4.4l-1 1.7C12.3 55 9 51.7 6.5 47.9l1.7-1c.5-.3.6-.9.4-1.4-.3-.5-.9-.6-1.4-.4l-1.7 1C3.4 42.2 2.2 37.7 2 33h2c.6 0 1-.4 1-1s-.4-1-1-1H2c.2-4.7 1.4-9.2 3.5-13.1l1.7 1c.2.1.4.1.6.1.3 0 .7-.2.9-.5.3-.5.1-1.1-.4-1.4l-1.7-1C9 12.3 12.3 9 16.1 6.5l1 1.7c.2.3.5.5.9.5.2 0 .3 0 .5-.1.5-.3.6-.9.4-1.4l-1-1.7C21.8 3.4 26.3 2.2 31 2v2c0 .6.4 1 1 1s1-.4 1-1V2c4.7.2 9.2 1.4 13.1 3.5l-1 1.7c-.3.5-.1 1.1.4 1.4.2.1.3.1.5.1.3 0 .7-.2.9-.5l1-1.7c3.9 2.4 7.2 5.7 9.6 9.6l-1.7 1c-.5.3-.6.9-.4 1.4.2.3.5.5.9.5.2 0 .3 0 .5-.1l1.7-1c2.1 3.9 3.4 8.4 3.5 13.1h-2c-.6 0-1 .4-1 1s.4 1 1 1h2c-.2 4.7-1.4 9.2-3.5 13.1l-1.7-1c-.5-.3-1.1-.1-1.4.4-.3.5-.1 1.1.4 1.4l1.7 1c-2.5 3.8-5.8 7.1-9.6 9.6z"/><path d="M32 8c-.6 0-1 .4-1 1v22H18c-.6 0-1 .4-1 1s.4 1 1 1h14c.6 0 1-.4 1-1V9c0-.6-.4-1-1-1z"/></svg><svg viewBox="5 2 34 21" width="34" height="21" id="phone" y="502"><path class="kst0" d="M32 18v5H12v-5l4.5-8.1V7h4v2.5h3V7h4v2.8L32 18zm-5.5-7.8V8h-2v2.5h-5V8h-2v2.1L13 18v4h18v-4l-4.5-7.8z"/><path class="kst0" d="M35.4 3.9c-2.7-2.6-24.1-2.6-26.8 0C6.7 5.9 5.2 9 6 11c.4.9 1.3 2 4 2 2.9 0 4.5-1.5 4.5-4.1 0-2.3 3.8-3.6 7.5-3.6 2 0 3.9.3 5.3 1 1 .5 2.2 1.3 2.2 2.6 0 3.4 1.3 4.1 4.5 4.1 2.6 0 3.6-1.2 4-2 .9-2.1-.7-5.1-2.6-7.1zM10 12c-1.6 0-2.7-.5-3-1.4-.3-.6-.2-1.5.1-2.3 1.2.9 2.4 1.4 3.8 1.4.8 0 1.7-.2 2.6-.5C13.4 11 12.3 12 10 12zm17.7-6.7c-1.5-.7-3.5-1.1-5.7-1.1-3.7 0-7.6 1.2-8.4 3.7-2.4 1.1-4.2.9-6.1-.7.5-.9 1.1-1.8 1.9-2.4 2.2-2.2 23-2.2 25.3 0 .7.7 1.3 1.6 1.8 2.5-2.3 1.9-4.4 1.4-6.1.7-.4-1.2-1.2-2.1-2.7-2.7zm9.3 5.3c-.4.9-1.4 1.4-3 1.4-2.9 0-3.5-.5-3.5-2.8.8.3 1.7.5 2.6.5 1.2 0 2.5-.4 3.8-1.4.3.8.3 1.7.1 2.3z"/><path class="kst0" d="M21 12h2v2h-2zM18 12h2v2h-2zM24 12h2v2h-2zM21 15h2v2h-2zM18 15h2v2h-2zM24 15h2v2h-2zM21 18h2v2h-2zM18 18h2v2h-2zM24 18h2v2h-2z"/></svg><svg viewBox="0 0 60 64" width="60" height="64" id="project" y="523"><path class="lst0" d="M29.9 21.5c2.8 0 5-2.2 5-5s-2.2-5-5-5-5 2.2-5 5 2.2 5 5 5zm0-8c1.7 0 3 1.3 3 3s-1.3 3-3 3-3-1.3-3-3 1.3-3 3-3z"/><path class="lst0" d="M56.9 41c-1.3 0-2.4.8-2.8 2h-7.2l-9.8-21c1.2-1.5 1.9-3.4 1.9-5.5 0-3.9-2.5-7.2-6-8.5V2c0-1.1-.7-2-1.7-2h-2.7c-.9 0-1.7.9-1.7 2v6c-3.5 1.2-6 4.6-6 8.5 0 2.1.7 4 1.9 5.5L13 43H5.8c-.4-1.2-1.5-2-2.8-2-1.7 0-3 1.3-3 3s1.3 3 3 3c1.3 0 2.4-.8 2.8-2h6.3l-4.6 9.9C7 55.9 7 57 7.4 58c.2.7.7 1.2 1.2 1.7l-1.5 2.9c-.2.5 0 1.1.4 1.3.1.1.2.1.4.1.4 0 .7-.2.9-.6l1.5-2.9c.3.1.5.1.8.1 1.5 0 3-.9 3.6-2.3L20.9 45h6v1c0 1.1.9 2 2 2h2c1.1 0 2-.9 2-2v-1h6l6.2 13.3c.7 1.5 2.1 2.3 3.6 2.3.3 0 .5 0 .8-.1l1.5 2.9c.2.4.5.6.9.6.1 0 .3 0 .4-.1.5-.2.7-.8.4-1.3l-1.5-2.9c.5-.4.9-1 1.2-1.7.5-1 .4-2.1 0-3.1L47.8 45h6.3c.4 1.2 1.5 2 2.8 2 1.7 0 3-1.3 3-3s-1.3-3-3-3zm-28-39h2v5.6c-.3 0-.7-.1-1-.1s-.7 0-1 .1V2zm1 7.5c3.9 0 7 3.1 7 7s-3.1 7-7 7-7-3.1-7-7 3.1-7 7-7zm-17 47.9c-.2.5-.6.8-1.1 1-.5.2-1 .2-1.5-.1-.5-.2-.8-.6-1-1.1s-.2-1 .1-1.5l15-32.2c1 .8 2.3 1.4 3.6 1.8L12.9 57.4zm18-11.4h-2v-4h2v4zm2-3v-1c0-1.1-.9-2-2-2h-2c-1.1 0-2 .9-2 2v1h-5.1l8.1-17.4L38 43h-5.1zm17.7 14.3c-.2.5-.5.9-1 1.1s-1 .2-1.5.1c-.5-.2-.9-.5-1.1-1L32 25.3c1.3-.3 2.6-.9 3.6-1.8l15 32.2c.2.5.2 1.1 0 1.6z"/></svg><svg id="social-add" viewBox="0 0 80 80" width="80" height="80" y="587"><style>.mst0{fill:#fff;stroke:red;stroke-width:2.961;stroke-miterlimit:10}</style><path class="mst0" d="M76 78H3.9c-1 0-1.9-.9-1.9-1.9V4c0-1 .9-1.9 1.9-1.9H76c1 0 1.9.9 1.9 1.9v72.1c0 1-.9 1.9-1.9 1.9z"/><path d="M72.9 33.9c0-2.5-1.8-4.1-4.3-4.2h-1.5v-.8-7.2c0-.7-.2-1.3-.7-1.8-4.5-5-8.9-10.1-13.4-15.1-.3-.4-.7-.7-1.1-1H16.1c-1.8.6-2.3 1.9-2.3 3.7v22.2h-1.5C9.8 29.8 8 31.4 8 34v20.8c0 2.5 1.7 4.2 4.3 4.2h1.5v13.5c0 1.8.5 3.1 2.3 3.7h48.7c1.8-.6 2.3-1.9 2.3-3.7-.1-4.2 0-8.4 0-12.6V59h1.5c2.6 0 4.3-1.7 4.3-4.2.1-7 .1-13.9 0-20.9zM16.7 6.8H50v14c0 1.4.5 1.9 1.9 1.9H64v7H16.6c.1-7.7.1-15.3.1-22.9zm38.9 30.5c-.1-.3-.3-.4-.7-.4-.3 0-.6.1-.7.4-.1.3-.2.9-.2 2v10c0 .9.1 1.5.2 1.8.1.3.4.4.7.4.4 0 .7-.2.8-.5.1-.3.2-1 .2-2v-2.5h-1.1v-3.2h6.4v11.1h-3.4l-.5-1.4c-.4.6-.8 1.1-1.4 1.4-.6.3-1.2.5-2 .5-.9 0-1.8-.2-2.6-.7-.8-.4-1.4-1-1.8-1.6s-.7-1.3-.8-2.1c-.1-.7-.1-1.8-.1-3.2v-6.2c0-2 .1-3.4.3-4.3.2-.9.8-1.7 1.9-2.5 1-.8 2.4-1.1 4-1.1s2.9.3 4 1 1.7 1.4 2.1 2.3.5 2.2.5 3.9v.9h-5.5v-1.9c-.1-1.1-.1-1.8-.3-2.1zm-9.1-3.6l-2.8 20.8h-8.3l-3.2-20.8H38c.7 5.7 1.1 10.6 1.4 14.5.3-4 .6-7.6.9-10.7l.4-3.9h5.8zM23.4 51.1c.1.2.4.3.8.3s.6-.1.8-.4c.2-.3.3-.7.3-1.3 0-1.2-.2-2-.5-2.4-.3-.4-1.2-1-2.6-1.9-1.4-.9-2.3-1.5-2.7-1.9-.4-.4-.8-1-1.1-1.7-.3-.7-.4-1.6-.4-2.7 0-1.6.2-2.8.6-3.5s1.1-1.3 2-1.7c.9-.4 2-.6 3.3-.6 1.4 0 2.6.2 3.6.7 1 .5 1.7 1 2 1.7s.5 1.9.5 3.5v.8h-5.1v-1.5c0-.7-.1-1.2-.2-1.4-.1-.2-.3-.3-.6-.3s-.6.1-.7.4-.4.6-.4 1.1c0 .7.1 1.2.3 1.6.2.3.7.8 1.5 1.3 2.4 1.4 4 2.6 4.6 3.5s.9 2.4.9 4.4c0 1.5-.2 2.6-.5 3.3-.3.7-1 1.3-2 1.8s-2.2.7-3.5.7c-1.5 0-2.7-.3-3.7-.8s-1.7-1.2-2-2.1c-.3-.9-.5-2.1-.5-3.6V47h5.1v2.5c-.1.9 0 1.4.2 1.6zm40 21.5h-46c-.4 0-.8 0-.8-.6V59.4 59H64V71.9c.2.6 0 .7-.6.7z"/></svg><svg viewBox="0 0 14 20" width="14" height="20" id="social-facebook" y="667"><path class="nst0" d="M9 19v-7h3l1-4H9V6c0-.6.4-1 1-1h3V1.5S11 1 10 1 4 1 4 6v2H1v4h3v7h5z"/></svg><svg id="social-mail-ru" viewBox="0 0 80 80" width="80" height="80" y="687"><style>.ost0{fill:#fff;stroke:red;stroke-width:2.961;stroke-miterlimit:10}</style><path class="ost0" d="M76 78H3.9c-1 0-1.9-.9-1.9-1.9V4c0-1 .9-1.9 1.9-1.9H76c1 0 1.9.9 1.9 1.9v72.1c0 1-.9 1.9-1.9 1.9z"/><path d="M72.9 33.9c0-2.5-1.8-4.1-4.3-4.2h-1.5v-.8-7.2c0-.7-.2-1.3-.7-1.8-4.5-5-8.9-10.1-13.4-15.1-.3-.4-.7-.7-1.1-1H16.1c-1.8.6-2.3 1.9-2.3 3.7v22.2h-1.5C9.8 29.8 8 31.4 8 34v20.8c0 2.5 1.7 4.2 4.3 4.2h1.5v13.5c0 1.8.5 3.1 2.3 3.7h48.7c1.8-.6 2.3-1.9 2.3-3.7-.1-4.2 0-8.4 0-12.6V59h1.5c2.6 0 4.3-1.7 4.3-4.2.1-7 .1-13.9 0-20.9zM16.7 6.8H50v14c0 1.4.5 1.9 1.9 1.9H64v7H16.6c.1-7.7.1-15.3.1-22.9zm38.9 30.5c-.1-.3-.3-.4-.7-.4-.3 0-.6.1-.7.4-.1.3-.2.9-.2 2v10c0 .9.1 1.5.2 1.8.1.3.4.4.7.4.4 0 .7-.2.8-.5.1-.3.2-1 .2-2v-2.5h-1.1v-3.2h6.4v11.1h-3.4l-.5-1.4c-.4.6-.8 1.1-1.4 1.4-.6.3-1.2.5-2 .5-.9 0-1.8-.2-2.6-.7-.8-.4-1.4-1-1.8-1.6s-.7-1.3-.8-2.1c-.1-.7-.1-1.8-.1-3.2v-6.2c0-2 .1-3.4.3-4.3.2-.9.8-1.7 1.9-2.5 1-.8 2.4-1.1 4-1.1s2.9.3 4 1 1.7 1.4 2.1 2.3.5 2.2.5 3.9v.9h-5.5v-1.9c-.1-1.1-.1-1.8-.3-2.1zm-9.1-3.6l-2.8 20.8h-8.3l-3.2-20.8H38c.7 5.7 1.1 10.6 1.4 14.5.3-4 .6-7.6.9-10.7l.4-3.9h5.8zM23.4 51.1c.1.2.4.3.8.3s.6-.1.8-.4c.2-.3.3-.7.3-1.3 0-1.2-.2-2-.5-2.4-.3-.4-1.2-1-2.6-1.9-1.4-.9-2.3-1.5-2.7-1.9-.4-.4-.8-1-1.1-1.7-.3-.7-.4-1.6-.4-2.7 0-1.6.2-2.8.6-3.5s1.1-1.3 2-1.7c.9-.4 2-.6 3.3-.6 1.4 0 2.6.2 3.6.7 1 .5 1.7 1 2 1.7s.5 1.9.5 3.5v.8h-5.1v-1.5c0-.7-.1-1.2-.2-1.4-.1-.2-.3-.3-.6-.3s-.6.1-.7.4-.4.6-.4 1.1c0 .7.1 1.2.3 1.6.2.3.7.8 1.5 1.3 2.4 1.4 4 2.6 4.6 3.5s.9 2.4.9 4.4c0 1.5-.2 2.6-.5 3.3-.3.7-1 1.3-2 1.8s-2.2.7-3.5.7c-1.5 0-2.7-.3-3.7-.8s-1.7-1.2-2-2.1c-.3-.9-.5-2.1-.5-3.6V47h5.1v2.5c-.1.9 0 1.4.2 1.6zm40 21.5h-46c-.4 0-.8 0-.8-.6V59.4 59H64V71.9c.2.6 0 .7-.6.7z"/></svg><svg id="social-ok" viewBox="0 0 80 80" width="80" height="80" y="767"><style>.pst0{fill:#fff;stroke:red;stroke-width:2.961;stroke-miterlimit:10}</style><path class="pst0" d="M76 78H3.9c-1 0-1.9-.9-1.9-1.9V4c0-1 .9-1.9 1.9-1.9H76c1 0 1.9.9 1.9 1.9v72.1c0 1-.9 1.9-1.9 1.9z"/><path d="M72.9 33.9c0-2.5-1.8-4.1-4.3-4.2h-1.5v-.8-7.2c0-.7-.2-1.3-.7-1.8-4.5-5-8.9-10.1-13.4-15.1-.3-.4-.7-.7-1.1-1H16.1c-1.8.6-2.3 1.9-2.3 3.7v22.2h-1.5C9.8 29.8 8 31.4 8 34v20.8c0 2.5 1.7 4.2 4.3 4.2h1.5v13.5c0 1.8.5 3.1 2.3 3.7h48.7c1.8-.6 2.3-1.9 2.3-3.7-.1-4.2 0-8.4 0-12.6V59h1.5c2.6 0 4.3-1.7 4.3-4.2.1-7 .1-13.9 0-20.9zM16.7 6.8H50v14c0 1.4.5 1.9 1.9 1.9H64v7H16.6c.1-7.7.1-15.3.1-22.9zm38.9 30.5c-.1-.3-.3-.4-.7-.4-.3 0-.6.1-.7.4-.1.3-.2.9-.2 2v10c0 .9.1 1.5.2 1.8.1.3.4.4.7.4.4 0 .7-.2.8-.5.1-.3.2-1 .2-2v-2.5h-1.1v-3.2h6.4v11.1h-3.4l-.5-1.4c-.4.6-.8 1.1-1.4 1.4-.6.3-1.2.5-2 .5-.9 0-1.8-.2-2.6-.7-.8-.4-1.4-1-1.8-1.6s-.7-1.3-.8-2.1c-.1-.7-.1-1.8-.1-3.2v-6.2c0-2 .1-3.4.3-4.3.2-.9.8-1.7 1.9-2.5 1-.8 2.4-1.1 4-1.1s2.9.3 4 1 1.7 1.4 2.1 2.3.5 2.2.5 3.9v.9h-5.5v-1.9c-.1-1.1-.1-1.8-.3-2.1zm-9.1-3.6l-2.8 20.8h-8.3l-3.2-20.8H38c.7 5.7 1.1 10.6 1.4 14.5.3-4 .6-7.6.9-10.7l.4-3.9h5.8zM23.4 51.1c.1.2.4.3.8.3s.6-.1.8-.4c.2-.3.3-.7.3-1.3 0-1.2-.2-2-.5-2.4-.3-.4-1.2-1-2.6-1.9-1.4-.9-2.3-1.5-2.7-1.9-.4-.4-.8-1-1.1-1.7-.3-.7-.4-1.6-.4-2.7 0-1.6.2-2.8.6-3.5s1.1-1.3 2-1.7c.9-.4 2-.6 3.3-.6 1.4 0 2.6.2 3.6.7 1 .5 1.7 1 2 1.7s.5 1.9.5 3.5v.8h-5.1v-1.5c0-.7-.1-1.2-.2-1.4-.1-.2-.3-.3-.6-.3s-.6.1-.7.4-.4.6-.4 1.1c0 .7.1 1.2.3 1.6.2.3.7.8 1.5 1.3 2.4 1.4 4 2.6 4.6 3.5s.9 2.4.9 4.4c0 1.5-.2 2.6-.5 3.3-.3.7-1 1.3-2 1.8s-2.2.7-3.5.7c-1.5 0-2.7-.3-3.7-.8s-1.7-1.2-2-2.1c-.3-.9-.5-2.1-.5-3.6V47h5.1v2.5c-.1.9 0 1.4.2 1.6zm40 21.5h-46c-.4 0-.8 0-.8-.6V59.4 59H64V71.9c.2.6 0 .7-.6.7z"/></svg><svg id="social-print" viewBox="0 0 80 80" width="80" height="80" y="847"><style>.qst0{fill:#fff;stroke:red;stroke-width:2.961;stroke-miterlimit:10}</style><path class="qst0" d="M76 78H3.9c-1 0-1.9-.9-1.9-1.9V4c0-1 .9-1.9 1.9-1.9H76c1 0 1.9.9 1.9 1.9v72.1c0 1-.9 1.9-1.9 1.9z"/><path d="M72.9 33.9c0-2.5-1.8-4.1-4.3-4.2h-1.5v-.8-7.2c0-.7-.2-1.3-.7-1.8-4.5-5-8.9-10.1-13.4-15.1-.3-.4-.7-.7-1.1-1H16.1c-1.8.6-2.3 1.9-2.3 3.7v22.2h-1.5C9.8 29.8 8 31.4 8 34v20.8c0 2.5 1.7 4.2 4.3 4.2h1.5v13.5c0 1.8.5 3.1 2.3 3.7h48.7c1.8-.6 2.3-1.9 2.3-3.7-.1-4.2 0-8.4 0-12.6V59h1.5c2.6 0 4.3-1.7 4.3-4.2.1-7 .1-13.9 0-20.9zM16.7 6.8H50v14c0 1.4.5 1.9 1.9 1.9H64v7H16.6c.1-7.7.1-15.3.1-22.9zm38.9 30.5c-.1-.3-.3-.4-.7-.4-.3 0-.6.1-.7.4-.1.3-.2.9-.2 2v10c0 .9.1 1.5.2 1.8.1.3.4.4.7.4.4 0 .7-.2.8-.5.1-.3.2-1 .2-2v-2.5h-1.1v-3.2h6.4v11.1h-3.4l-.5-1.4c-.4.6-.8 1.1-1.4 1.4-.6.3-1.2.5-2 .5-.9 0-1.8-.2-2.6-.7-.8-.4-1.4-1-1.8-1.6s-.7-1.3-.8-2.1c-.1-.7-.1-1.8-.1-3.2v-6.2c0-2 .1-3.4.3-4.3.2-.9.8-1.7 1.9-2.5 1-.8 2.4-1.1 4-1.1s2.9.3 4 1 1.7 1.4 2.1 2.3.5 2.2.5 3.9v.9h-5.5v-1.9c-.1-1.1-.1-1.8-.3-2.1zm-9.1-3.6l-2.8 20.8h-8.3l-3.2-20.8H38c.7 5.7 1.1 10.6 1.4 14.5.3-4 .6-7.6.9-10.7l.4-3.9h5.8zM23.4 51.1c.1.2.4.3.8.3s.6-.1.8-.4c.2-.3.3-.7.3-1.3 0-1.2-.2-2-.5-2.4-.3-.4-1.2-1-2.6-1.9-1.4-.9-2.3-1.5-2.7-1.9-.4-.4-.8-1-1.1-1.7-.3-.7-.4-1.6-.4-2.7 0-1.6.2-2.8.6-3.5s1.1-1.3 2-1.7c.9-.4 2-.6 3.3-.6 1.4 0 2.6.2 3.6.7 1 .5 1.7 1 2 1.7s.5 1.9.5 3.5v.8h-5.1v-1.5c0-.7-.1-1.2-.2-1.4-.1-.2-.3-.3-.6-.3s-.6.1-.7.4-.4.6-.4 1.1c0 .7.1 1.2.3 1.6.2.3.7.8 1.5 1.3 2.4 1.4 4 2.6 4.6 3.5s.9 2.4.9 4.4c0 1.5-.2 2.6-.5 3.3-.3.7-1 1.3-2 1.8s-2.2.7-3.5.7c-1.5 0-2.7-.3-3.7-.8s-1.7-1.2-2-2.1c-.3-.9-.5-2.1-.5-3.6V47h5.1v2.5c-.1.9 0 1.4.2 1.6zm40 21.5h-46c-.4 0-.8 0-.8-.6V59.4 59H64V71.9c.2.6 0 .7-.6.7z"/></svg><svg id="social-twitter" viewBox="0 0 80 80" width="80" height="80" y="927"><style>.rst0{fill:#fff;stroke:red;stroke-width:2.961;stroke-miterlimit:10}</style><path class="rst0" d="M76 78H3.9c-1 0-1.9-.9-1.9-1.9V4c0-1 .9-1.9 1.9-1.9H76c1 0 1.9.9 1.9 1.9v72.1c0 1-.9 1.9-1.9 1.9z"/><path d="M72.9 33.9c0-2.5-1.8-4.1-4.3-4.2h-1.5v-.8-7.2c0-.7-.2-1.3-.7-1.8-4.5-5-8.9-10.1-13.4-15.1-.3-.4-.7-.7-1.1-1H16.1c-1.8.6-2.3 1.9-2.3 3.7v22.2h-1.5C9.8 29.8 8 31.4 8 34v20.8c0 2.5 1.7 4.2 4.3 4.2h1.5v13.5c0 1.8.5 3.1 2.3 3.7h48.7c1.8-.6 2.3-1.9 2.3-3.7-.1-4.2 0-8.4 0-12.6V59h1.5c2.6 0 4.3-1.7 4.3-4.2.1-7 .1-13.9 0-20.9zM16.7 6.8H50v14c0 1.4.5 1.9 1.9 1.9H64v7H16.6c.1-7.7.1-15.3.1-22.9zm38.9 30.5c-.1-.3-.3-.4-.7-.4-.3 0-.6.1-.7.4-.1.3-.2.9-.2 2v10c0 .9.1 1.5.2 1.8.1.3.4.4.7.4.4 0 .7-.2.8-.5.1-.3.2-1 .2-2v-2.5h-1.1v-3.2h6.4v11.1h-3.4l-.5-1.4c-.4.6-.8 1.1-1.4 1.4-.6.3-1.2.5-2 .5-.9 0-1.8-.2-2.6-.7-.8-.4-1.4-1-1.8-1.6s-.7-1.3-.8-2.1c-.1-.7-.1-1.8-.1-3.2v-6.2c0-2 .1-3.4.3-4.3.2-.9.8-1.7 1.9-2.5 1-.8 2.4-1.1 4-1.1s2.9.3 4 1 1.7 1.4 2.1 2.3.5 2.2.5 3.9v.9h-5.5v-1.9c-.1-1.1-.1-1.8-.3-2.1zm-9.1-3.6l-2.8 20.8h-8.3l-3.2-20.8H38c.7 5.7 1.1 10.6 1.4 14.5.3-4 .6-7.6.9-10.7l.4-3.9h5.8zM23.4 51.1c.1.2.4.3.8.3s.6-.1.8-.4c.2-.3.3-.7.3-1.3 0-1.2-.2-2-.5-2.4-.3-.4-1.2-1-2.6-1.9-1.4-.9-2.3-1.5-2.7-1.9-.4-.4-.8-1-1.1-1.7-.3-.7-.4-1.6-.4-2.7 0-1.6.2-2.8.6-3.5s1.1-1.3 2-1.7c.9-.4 2-.6 3.3-.6 1.4 0 2.6.2 3.6.7 1 .5 1.7 1 2 1.7s.5 1.9.5 3.5v.8h-5.1v-1.5c0-.7-.1-1.2-.2-1.4-.1-.2-.3-.3-.6-.3s-.6.1-.7.4-.4.6-.4 1.1c0 .7.1 1.2.3 1.6.2.3.7.8 1.5 1.3 2.4 1.4 4 2.6 4.6 3.5s.9 2.4.9 4.4c0 1.5-.2 2.6-.5 3.3-.3.7-1 1.3-2 1.8s-2.2.7-3.5.7c-1.5 0-2.7-.3-3.7-.8s-1.7-1.2-2-2.1c-.3-.9-.5-2.1-.5-3.6V47h5.1v2.5c-.1.9 0 1.4.2 1.6zm40 21.5h-46c-.4 0-.8 0-.8-.6V59.4 59H64V71.9c.2.6 0 .7-.6.7z"/></svg><svg viewBox="0 0 35 21" width="35" height="21" id="social-vk" y="1007"><path class="sst0" d="M4 1.7h3.2c.7 0 1.1.4 1.4 1 .4.9.7 1.7 1.1 2.5.7 1.4 1.5 2.7 2.5 4 .2.3.5.5.7.7.4.3.8.1.9-.3.2-.5.3-1 .3-1.6V5.7c0-.5 0-1-.1-1.5 0-.2-.1-.4-.1-.7-.2-.5-.6-.8-1.1-1-.1 0-.2 0-.3-.1-.2-.1-.3-.2-.2-.4.1-.2.2-.3.4-.5.3-.3.8-.4 1.2-.5h4c.5 0 1 0 1.5.1.7.1 1.1.6 1.2 1.2.1.7 0 1.5 0 2.2v3.3c0 .5 0 1 .2 1.4 0 .1.1.3.2.4.2.3.5.4.8.2l.6-.6c1.4-1.6 2.5-3.3 3.3-5.2.2-.5.4-1 .6-1.4 0-.1.1-.2.1-.3.2-.4.5-.5.9-.5h5.5c.3 0 .5 0 .8.1.5.1.7.5.6 1-.2.9-.6 1.7-1.1 2.4-.8 1.1-1.6 2.2-2.3 3.2-.4.6-.8 1.1-1.2 1.7-.3.3-.5.7-.6 1.1-.1.2 0 .5.1.7.2.2.4.5.6.7l2.1 2.1c.8.8 1.6 1.7 2.2 2.7.2.3.3.5.3.8.1.6-.3 1-.8 1.2-.2.1-.5.1-.7.1h-2.3c-.8 0-1.6 0-2.3-.1-.9 0-1.7-.4-2.4-1.1-.7-.7-1.4-1.5-2.1-2.2-.2-.3-.5-.5-.8-.7l-.6-.3c-.3 0-.5.1-.7.3-.2.2-.3.5-.4.9-.1.7-.2 1.3-.3 2-.1.6-.5 1-1.1 1.1-.7.1-1.4.1-2 0-.5 0-1-.1-1.6-.2-1.3-.2-2.6-.7-3.8-1.3-1.5-.9-2.7-2-3.7-3.3-1.2-1.5-2.3-3.1-3.2-4.7-1.6-2.3-2.7-4.6-3.8-7-.1-.2-.1-.5-.1-.7.1-.4.3-.5.7-.5h.9c.2-.1.5-.1.8-.1z"/></svg><svg viewBox="0 0 112 64" width="112" height="64" id="team" y="1028"><path d="M56 32c-8.8 0-16-7.2-16-16S47.2 0 56 0s16 7.2 16 16-7.2 16-16 16zm0-30c-7.7 0-14 6.3-14 14s6.3 14 14 14 14-6.3 14-14S63.7 2 56 2zM80.1 64H31.9c-2.2 0-4.2-1-5.6-2.8s-1.8-4-1.2-6.1l3.2-11.7c.6-2.1 2-3.7 3.9-4.6l14-6.1.5.5s3.9 3.7 9.3 3.7c5.5 0 9.3-3.7 9.3-3.7l.5-.5 14 6.1c1.9.9 3.4 2.5 3.9 4.6l3.2 11.7c.6 2.1.1 4.3-1.2 6.1S82.3 64 80.1 64zM45.8 35.2L33 40.8c-1.4.6-2.4 1.8-2.8 3.3L27 55.7c-.4 1.5-.1 3.1.9 4.4 1 1.2 2.4 2 4 2h48.3c1.6 0 3-.7 4-2 1-1.2 1.3-2.8.9-4.4L81.8 44c-.4-1.5-1.4-2.7-2.8-3.3l-12.8-5.6C64.9 36.3 61.1 39 56 39s-8.9-2.7-10.2-3.8zM21 31c-6.1 0-11-4.9-11-11S14.9 9 21 9s11 4.9 11 11-4.9 11-11 11zm0-20c-5 0-9 4-9 9s4 9 9 9 9-4 9-9-4-9-9-9z"/><path d="M23.4 53H5c-1.5 0-3-.7-3.9-1.9s-1.3-2.7-1-4.2L2 38.8c.3-1.3 1-3 2.6-3.7l9.6-4.3.5.5S17.4 34 21 34c3.6 0 6.3-2.7 6.3-2.7l.5-.5 8.2 3.5-2.6 1.1-5.2-2.2c-1.1.9-3.7 2.8-7.2 2.8-3.4 0-6.1-1.9-7.2-2.8l-8.4 3.7c-.6.3-1.1 1-1.4 2.3l-1.9 8.1c-.2.9 0 1.8.6 2.5.6.8 1.4 1.2 2.3 1.2h19l-.6 2z"/><g><path d="M80 20c0-6.1 4.9-11 11-11s11 4.9 11 11-4.9 11-11 11-11-4.9-11-11zm2 0c0 5 4 9 9 9s9-4 9-9-4-9-9-9-9 4-9 9z"/><path d="M88.6 53H107c1.5 0 3-.7 3.9-1.9s1.3-2.7 1-4.2l-1.9-8.1c-.3-1.3-1-3-2.6-3.7l-9.6-4.3-.5.5S94.6 34 91 34c-3.6 0-6.3-2.7-6.3-2.7l-.5-.5-8.2 3.5 2.6 1.1 5.2-2.2c1.1.9 3.7 2.8 7.2 2.8 3.4 0 6.1-1.9 7.2-2.8l8.4 3.7c.6.3 1.1 1 1.4 2.3l1.9 8.1c.2.9 0 1.8-.6 2.5s-1.4 1.1-2.3 1.1H88l.6 2.1z"/></g></svg><svg viewBox="0 0 64 64" width="64" height="64" id="technology" y="1092"><path d="M62.5 55.5l-15-15 .7-.7c.4-.4.4-1 0-1.4s-1-.4-1.4 0l-.7.7-2.8 2.8-7.6-7.6-1.4 1.4 7.6 7.6-2.8 2.8-.7.7c-.4.4-.4 1 0 1.4.2.2.5.3.7.3s.5-.1.7-.3l.7-.7 15 15c1 1 2.3 1.5 3.5 1.5s2.6-.5 3.5-1.5c2-1.9 2-5.1 0-7zm-1.4 5.6c-1.2 1.2-3.1 1.2-4.2 0l-15-15 4.2-4.2 15 15c1.2 1.2 1.2 3.1 0 4.2zM9.4 5.1L5.1.9.9 5.1l4.2 4.2c.6.6 1.4.9 2.1.9.4 0 .9-.1 1.3-.3l19.8 19.8 1.4-1.4L9.9 8.5c.6-1.1.4-2.4-.5-3.4zM6.5 8L3.7 5.1l1.4-1.4L8 6.5c.4.4.4 1 0 1.4-.4.4-1.1.4-1.5.1z"/><path d="M62.1 6.1l-1.5 1.5-5.4 5.4H51V8.8l5.7-5.7 1.2-1.2C53.3-.8 47.3-.2 43.3 3.7 41 6 39.8 9 39.8 12.2c0 1.4.3 2.8.8 4.2L16.4 40.6c-1.3-.5-2.7-.8-4.2-.8C9 39.8 6 41 3.7 43.3c-3.9 3.9-4.6 10-1.8 14.6L3 56.7 8.8 51H13v4.2L7.6 61l-1.5 1.3c1.8 1.1 3.9 1.6 6.1 1.6 3.2 0 6.2-1.3 8.5-3.6 3.4-3.4 4.3-8.4 2.7-12.7l24.2-24.2c1.3.5 2.7.8 4.2.8 3.1 0 6.1-1.2 8.5-3.5 2.3-2.3 3.5-5.3 3.5-8.5 0-2.2-.6-4.3-1.7-6.1zm-3.2 13.2c-3.2 3.2-7.9 3.8-11.7 1.8l-1.5 1.5-23.2 23.1-1.5 1.5c2 3.8 1.4 8.5-1.8 11.7-1.9 1.9-4.4 2.9-7.1 2.9-.9 0-1.7-.1-2.6-.3l5.1-5.1.3-.3V49h-7l-2 2-3.4 3.4c-.9-3.3 0-7 2.6-9.7 1.9-1.9 4.4-2.9 7.1-2.9 1.6 0 3.2.4 4.6 1.1l1.5-1.5 23.2-23.2 1.5-1.5c-.7-1.4-1.1-3-1.1-4.6 0-2.7 1-5.2 2.9-7.1 1.9-1.9 4.5-2.9 7.1-2.9.9 0 1.7.1 2.6.3L51 5.9l-2 2V15h7.1l.3-.3 5.1-5.1c.2.8.3 1.7.3 2.6 0 2.7-1 5.2-2.9 7.1z"/></svg><svg viewBox="0 0 53 64" width="53" height="64" id="vodsnab" y="1156"><path d="M51 6h-4c-1.1 0-2 .9-2 2v5h-7.3c-1.2-1.4-2.8-2.3-4.7-2.8V7.4c.6-.3 1-.8 1.4-1.3l4.8 1.2c.3.1.5.1.8.1.6 0 1.3-.2 1.8-.6.8-.6 1.2-1.5 1.2-2.4v-.8c0-.9-.4-1.8-1.2-2.4-.8-.6-1.7-.8-2.6-.5l-4.9 1.2C33.7.8 32.4 0 31 0s-2.7.8-3.4 1.9L22.8.7c-.9-.2-1.9-.1-2.6.5-.8.6-1.2 1.5-1.2 2.4v.8c0 .9.4 1.8 1.2 2.4.5.4 1.2.6 1.8.6.3 0 .5 0 .8-.1l4.9-1.2c.3.5.8 1 1.4 1.3v2.8c-1.8.4-3.5 1.4-4.7 2.8H19c-8.3 0-15 6.7-15 15v6h12v-4c0-2.8 2.2-5 5-5h3.3c1.6 1.8 4 3 6.7 3s5-1.2 6.7-3H45v5c0 1.1.9 2 2 2h4c1.1 0 2-.9 2-2V8c0-1.1-.9-2-2-2zM39.7 2.7c.3-.1.6 0 .9.2.3.1.4.4.4.7v.8c0 .3-.1.6-.4.8-.3.2-.6.3-.9.2L35 4.2V4v-.2l4.7-1.1zM31 2c1.1 0 2 .9 2 2s-.9 2-2 2-2-.9-2-2 .9-2 2-2zm-8.7 3.3c-.3.1-.6 0-.9-.2-.3-.1-.4-.4-.4-.7v-.8c0-.3.1-.6.4-.8.2-.2.6-.3.9-.2L27 3.8v.4l-4.7 1.1zM21 23c-3.9 0-7 3.1-7 7v2H6v-4c0-7.2 5.8-13 13-13h3.9c-.6 1.2-.9 2.6-.9 4s.3 2.8.9 4H21zm10 3c-3.9 0-7-3.1-7-7s3.1-7 7-7 7 3.1 7 7-3.1 7-7 7zm8.1-3c.6-1.2.9-2.6.9-4s-.3-2.8-.9-4H45v8h-5.9zM51 30h-4V8h4v22zM10 36.4l-.8 1C8.3 38.5 0 48.8 0 54c0 5.5 4.5 10 10 10s10-4.5 10-10c0-5.2-8.3-15.5-9.2-16.6l-.8-1zM10 62c-4.4 0-8-3.6-8-8 0-3.4 5.2-10.8 8-14.4 2.8 3.6 8 11 8 14.4 0 4.4-3.6 8-8 8z"/></svg></svg>