<?xml version="1.0" encoding="utf-8"?><svg width="80" height="1516" viewBox="0 0 80 1516" xmlns="http://www.w3.org/2000/svg" xmlns:xlink="http://www.w3.org/1999/xlink"><svg id="checkbox" viewBox="0 0 80 80" width="80" height="80"><style>.ast0{fill:#fff;stroke:red;stroke-width:2.961;stroke-miterlimit:10}</style><path class="ast0" d="M76 78H3.9c-1 0-1.9-.9-1.9-1.9V4c0-1 .9-1.9 1.9-1.9H76c1 0 1.9.9 1.9 1.9v72.1c0 1-.9 1.9-1.9 1.9z"/><path d="M72.9 33.9c0-2.5-1.8-4.1-4.3-4.2h-1.5v-.8-7.2c0-.7-.2-1.3-.7-1.8-4.5-5-8.9-10.1-13.4-15.1-.3-.4-.7-.7-1.1-1H16.1c-1.8.6-2.3 1.9-2.3 3.7v22.2h-1.5C9.8 29.8 8 31.4 8 34v20.8c0 2.5 1.7 4.2 4.3 4.2h1.5v13.5c0 1.8.5 3.1 2.3 3.7h48.7c1.8-.6 2.3-1.9 2.3-3.7-.1-4.2 0-8.4 0-12.6V59h1.5c2.6 0 4.3-1.7 4.3-4.2.1-7 .1-13.9 0-20.9zM16.7 6.8H50v14c0 1.4.5 1.9 1.9 1.9H64v7H16.6c.1-7.7.1-15.3.1-22.9zm38.9 30.5c-.1-.3-.3-.4-.7-.4-.3 0-.6.1-.7.4-.1.3-.2.9-.2 2v10c0 .9.1 1.5.2 1.8.1.3.4.4.7.4.4 0 .7-.2.8-.5.1-.3.2-1 .2-2v-2.5h-1.1v-3.2h6.4v11.1h-3.4l-.5-1.4c-.4.6-.8 1.1-1.4 1.4-.6.3-1.2.5-2 .5-.9 0-1.8-.2-2.6-.7-.8-.4-1.4-1-1.8-1.6s-.7-1.3-.8-2.1c-.1-.7-.1-1.8-.1-3.2v-6.2c0-2 .1-3.4.3-4.3.2-.9.8-1.7 1.9-2.5 1-.8 2.4-1.1 4-1.1s2.9.3 4 1 1.7 1.4 2.1 2.3.5 2.2.5 3.9v.9h-5.5v-1.9c-.1-1.1-.1-1.8-.3-2.1zm-9.1-3.6l-2.8 20.8h-8.3l-3.2-20.8H38c.7 5.7 1.1 10.6 1.4 14.5.3-4 .6-7.6.9-10.7l.4-3.9h5.8zM23.4 51.1c.1.2.4.3.8.3s.6-.1.8-.4c.2-.3.3-.7.3-1.3 0-1.2-.2-2-.5-2.4-.3-.4-1.2-1-2.6-1.9-1.4-.9-2.3-1.5-2.7-1.9-.4-.4-.8-1-1.1-1.7-.3-.7-.4-1.6-.4-2.7 0-1.6.2-2.8.6-3.5s1.1-1.3 2-1.7c.9-.4 2-.6 3.3-.6 1.4 0 2.6.2 3.6.7 1 .5 1.7 1 2 1.7s.5 1.9.5 3.5v.8h-5.1v-1.5c0-.7-.1-1.2-.2-1.4-.1-.2-.3-.3-.6-.3s-.6.1-.7.4-.4.6-.4 1.1c0 .7.1 1.2.3 1.6.2.3.7.8 1.5 1.3 2.4 1.4 4 2.6 4.6 3.5s.9 2.4.9 4.4c0 1.5-.2 2.6-.5 3.3-.3.7-1 1.3-2 1.8s-2.2.7-3.5.7c-1.5 0-2.7-.3-3.7-.8s-1.7-1.2-2-2.1c-.3-.9-.5-2.1-.5-3.6V47h5.1v2.5c-.1.9 0 1.4.2 1.6zm40 21.5h-46c-.4 0-.8 0-.8-.6V59.4 59H64V71.9c.2.6 0 .7-.6.7z"/></svg><svg id="logo" viewBox="-437 243 76 76" width="76" height="76" y="80"><style>.bst0{fill:#fff;stroke:red;stroke-width:2.961;stroke-miterlimit:10}</style><path class="bst0" d="M-363 319h-72.1c-1 0-1.9-.9-1.9-1.9V245c0-1 .9-1.9 1.9-1.9h72.1c1 0 1.9.9 1.9 1.9v72.1c0 1-.9 1.9-1.9 1.9z"/><path d="M-366.1 274.9c0-2.5-1.8-4.1-4.3-4.2h-1.5v-.8-7.2c0-.7-.2-1.3-.7-1.8-4.5-5-8.9-10.1-13.4-15.1-.3-.4-.7-.7-1.1-1h-35.8c-1.8.6-2.3 1.9-2.3 3.7v22.2h-1.5c-2.5.1-4.3 1.7-4.3 4.3v20.8c0 2.5 1.7 4.2 4.3 4.2h1.5v13.5c0 1.8.5 3.1 2.3 3.7h48.7c1.8-.6 2.3-1.9 2.3-3.7-.1-4.2 0-8.4 0-12.6v-.9h1.5c2.6 0 4.3-1.7 4.3-4.2.1-7 .1-13.9 0-20.9zm-56.2-27.1h33.3v14c0 1.4.5 1.9 1.9 1.9H-375v7h-47.4c.1-7.7.1-15.3.1-22.9zm38.9 30.5c-.1-.3-.3-.4-.7-.4-.3 0-.6.1-.7.4-.1.3-.2.9-.2 2v10c0 .9.1 1.5.2 1.8.1.3.4.4.7.4.4 0 .7-.2.8-.5.1-.3.2-1 .2-2v-2.5h-1.1v-3.2h6.4v11.1h-3.4l-.5-1.4c-.4.6-.8 1.1-1.4 1.4-.6.3-1.2.5-2 .5-.9 0-1.8-.2-2.6-.7-.8-.4-1.4-1-1.8-1.6s-.7-1.3-.8-2.1c-.1-.7-.1-1.8-.1-3.2v-6.2c0-2 .1-3.4.3-4.3.2-.9.8-1.7 1.9-2.5 1-.8 2.4-1.1 4-1.1s2.9.3 4 1 1.7 1.4 2.1 2.3.5 2.2.5 3.9v.9h-5.5v-1.9c-.1-1.1-.1-1.8-.3-2.1zm-9.1-3.6l-2.8 20.8h-8.3l-3.2-20.8h5.8c.7 5.7 1.1 10.6 1.4 14.5.3-4 .6-7.6.9-10.7l.4-3.9h5.8v.1zm-23.1 17.4c.1.2.4.3.8.3s.6-.1.8-.4.3-.7.3-1.3c0-1.2-.2-2-.5-2.4-.3-.4-1.2-1-2.6-1.9-1.4-.9-2.3-1.5-2.7-1.9-.4-.4-.8-1-1.1-1.7-.3-.7-.4-1.6-.4-2.7 0-1.6.2-2.8.6-3.5.4-.7 1.1-1.3 2-1.7s2-.6 3.3-.6c1.4 0 2.6.2 3.6.7s1.7 1 2 1.7c.3.7.5 1.9.5 3.5v.8h-5.1v-1.5c0-.7-.1-1.2-.2-1.4-.1-.2-.3-.3-.6-.3s-.6.1-.7.4c-.1.3-.4.6-.4 1.1 0 .7.1 1.2.3 1.6.2.3.7.8 1.5 1.3 2.4 1.4 4 2.6 4.6 3.5.6.9.9 2.4.9 4.4 0 1.5-.2 2.6-.5 3.3-.3.7-1 1.3-2 1.8s-2.2.7-3.5.7c-1.5 0-2.7-.3-3.7-.8s-1.7-1.2-2-2.1c-.3-.9-.5-2.1-.5-3.6V288h5.1v2.5c-.1.9 0 1.4.2 1.6zm40 21.5h-46c-.4 0-.8 0-.8-.6v-12.6-.4h47.4V312.9c.2.6 0 .7-.6.7z"/></svg><svg id="social__add" viewBox="0 0 80 80" width="80" height="80" y="156"><style>.cst0{fill:#fff;stroke:red;stroke-width:2.961;stroke-miterlimit:10}</style><path class="cst0" d="M76 78H3.9c-1 0-1.9-.9-1.9-1.9V4c0-1 .9-1.9 1.9-1.9H76c1 0 1.9.9 1.9 1.9v72.1c0 1-.9 1.9-1.9 1.9z"/><path d="M72.9 33.9c0-2.5-1.8-4.1-4.3-4.2h-1.5v-.8-7.2c0-.7-.2-1.3-.7-1.8-4.5-5-8.9-10.1-13.4-15.1-.3-.4-.7-.7-1.1-1H16.1c-1.8.6-2.3 1.9-2.3 3.7v22.2h-1.5C9.8 29.8 8 31.4 8 34v20.8c0 2.5 1.7 4.2 4.3 4.2h1.5v13.5c0 1.8.5 3.1 2.3 3.7h48.7c1.8-.6 2.3-1.9 2.3-3.7-.1-4.2 0-8.4 0-12.6V59h1.5c2.6 0 4.3-1.7 4.3-4.2.1-7 .1-13.9 0-20.9zM16.7 6.8H50v14c0 1.4.5 1.9 1.9 1.9H64v7H16.6c.1-7.7.1-15.3.1-22.9zm38.9 30.5c-.1-.3-.3-.4-.7-.4-.3 0-.6.1-.7.4-.1.3-.2.9-.2 2v10c0 .9.1 1.5.2 1.8.1.3.4.4.7.4.4 0 .7-.2.8-.5.1-.3.2-1 .2-2v-2.5h-1.1v-3.2h6.4v11.1h-3.4l-.5-1.4c-.4.6-.8 1.1-1.4 1.4-.6.3-1.2.5-2 .5-.9 0-1.8-.2-2.6-.7-.8-.4-1.4-1-1.8-1.6s-.7-1.3-.8-2.1c-.1-.7-.1-1.8-.1-3.2v-6.2c0-2 .1-3.4.3-4.3.2-.9.8-1.7 1.9-2.5 1-.8 2.4-1.1 4-1.1s2.9.3 4 1 1.7 1.4 2.1 2.3.5 2.2.5 3.9v.9h-5.5v-1.9c-.1-1.1-.1-1.8-.3-2.1zm-9.1-3.6l-2.8 20.8h-8.3l-3.2-20.8H38c.7 5.7 1.1 10.6 1.4 14.5.3-4 .6-7.6.9-10.7l.4-3.9h5.8zM23.4 51.1c.1.2.4.3.8.3s.6-.1.8-.4c.2-.3.3-.7.3-1.3 0-1.2-.2-2-.5-2.4-.3-.4-1.2-1-2.6-1.9-1.4-.9-2.3-1.5-2.7-1.9-.4-.4-.8-1-1.1-1.7-.3-.7-.4-1.6-.4-2.7 0-1.6.2-2.8.6-3.5s1.1-1.3 2-1.7c.9-.4 2-.6 3.3-.6 1.4 0 2.6.2 3.6.7 1 .5 1.7 1 2 1.7s.5 1.9.5 3.5v.8h-5.1v-1.5c0-.7-.1-1.2-.2-1.4-.1-.2-.3-.3-.6-.3s-.6.1-.7.4-.4.6-.4 1.1c0 .7.1 1.2.3 1.6.2.3.7.8 1.5 1.3 2.4 1.4 4 2.6 4.6 3.5s.9 2.4.9 4.4c0 1.5-.2 2.6-.5 3.3-.3.7-1 1.3-2 1.8s-2.2.7-3.5.7c-1.5 0-2.7-.3-3.7-.8s-1.7-1.2-2-2.1c-.3-.9-.5-2.1-.5-3.6V47h5.1v2.5c-.1.9 0 1.4.2 1.6zm40 21.5h-46c-.4 0-.8 0-.8-.6V59.4 59H64V71.9c.2.6 0 .7-.6.7z"/></svg><svg id="social__facebook" viewBox="0 0 80 80" width="80" height="80" y="236"><style>.dst0{fill:#fff;stroke:red;stroke-width:2.961;stroke-miterlimit:10}</style><path class="dst0" d="M76 78H3.9c-1 0-1.9-.9-1.9-1.9V4c0-1 .9-1.9 1.9-1.9H76c1 0 1.9.9 1.9 1.9v72.1c0 1-.9 1.9-1.9 1.9z"/><path d="M72.9 33.9c0-2.5-1.8-4.1-4.3-4.2h-1.5v-.8-7.2c0-.7-.2-1.3-.7-1.8-4.5-5-8.9-10.1-13.4-15.1-.3-.4-.7-.7-1.1-1H16.1c-1.8.6-2.3 1.9-2.3 3.7v22.2h-1.5C9.8 29.8 8 31.4 8 34v20.8c0 2.5 1.7 4.2 4.3 4.2h1.5v13.5c0 1.8.5 3.1 2.3 3.7h48.7c1.8-.6 2.3-1.9 2.3-3.7-.1-4.2 0-8.4 0-12.6V59h1.5c2.6 0 4.3-1.7 4.3-4.2.1-7 .1-13.9 0-20.9zM16.7 6.8H50v14c0 1.4.5 1.9 1.9 1.9H64v7H16.6c.1-7.7.1-15.3.1-22.9zm38.9 30.5c-.1-.3-.3-.4-.7-.4-.3 0-.6.1-.7.4-.1.3-.2.9-.2 2v10c0 .9.1 1.5.2 1.8.1.3.4.4.7.4.4 0 .7-.2.8-.5.1-.3.2-1 .2-2v-2.5h-1.1v-3.2h6.4v11.1h-3.4l-.5-1.4c-.4.6-.8 1.1-1.4 1.4-.6.3-1.2.5-2 .5-.9 0-1.8-.2-2.6-.7-.8-.4-1.4-1-1.8-1.6s-.7-1.3-.8-2.1c-.1-.7-.1-1.8-.1-3.2v-6.2c0-2 .1-3.4.3-4.3.2-.9.8-1.7 1.9-2.5 1-.8 2.4-1.1 4-1.1s2.9.3 4 1 1.7 1.4 2.1 2.3.5 2.2.5 3.9v.9h-5.5v-1.9c-.1-1.1-.1-1.8-.3-2.1zm-9.1-3.6l-2.8 20.8h-8.3l-3.2-20.8H38c.7 5.7 1.1 10.6 1.4 14.5.3-4 .6-7.6.9-10.7l.4-3.9h5.8zM23.4 51.1c.1.2.4.3.8.3s.6-.1.8-.4c.2-.3.3-.7.3-1.3 0-1.2-.2-2-.5-2.4-.3-.4-1.2-1-2.6-1.9-1.4-.9-2.3-1.5-2.7-1.9-.4-.4-.8-1-1.1-1.7-.3-.7-.4-1.6-.4-2.7 0-1.6.2-2.8.6-3.5s1.1-1.3 2-1.7c.9-.4 2-.6 3.3-.6 1.4 0 2.6.2 3.6.7 1 .5 1.7 1 2 1.7s.5 1.9.5 3.5v.8h-5.1v-1.5c0-.7-.1-1.2-.2-1.4-.1-.2-.3-.3-.6-.3s-.6.1-.7.4-.4.6-.4 1.1c0 .7.1 1.2.3 1.6.2.3.7.8 1.5 1.3 2.4 1.4 4 2.6 4.6 3.5s.9 2.4.9 4.4c0 1.5-.2 2.6-.5 3.3-.3.7-1 1.3-2 1.8s-2.2.7-3.5.7c-1.5 0-2.7-.3-3.7-.8s-1.7-1.2-2-2.1c-.3-.9-.5-2.1-.5-3.6V47h5.1v2.5c-.1.9 0 1.4.2 1.6zm40 21.5h-46c-.4 0-.8 0-.8-.6V59.4 59H64V71.9c.2.6 0 .7-.6.7z"/></svg><svg id="social__mail-ru" viewBox="0 0 80 80" width="80" height="80" y="316"><style>.est0{fill:#fff;stroke:red;stroke-width:2.961;stroke-miterlimit:10}</style><path class="est0" d="M76 78H3.9c-1 0-1.9-.9-1.9-1.9V4c0-1 .9-1.9 1.9-1.9H76c1 0 1.9.9 1.9 1.9v72.1c0 1-.9 1.9-1.9 1.9z"/><path d="M72.9 33.9c0-2.5-1.8-4.1-4.3-4.2h-1.5v-.8-7.2c0-.7-.2-1.3-.7-1.8-4.5-5-8.9-10.1-13.4-15.1-.3-.4-.7-.7-1.1-1H16.1c-1.8.6-2.3 1.9-2.3 3.7v22.2h-1.5C9.8 29.8 8 31.4 8 34v20.8c0 2.5 1.7 4.2 4.3 4.2h1.5v13.5c0 1.8.5 3.1 2.3 3.7h48.7c1.8-.6 2.3-1.9 2.3-3.7-.1-4.2 0-8.4 0-12.6V59h1.5c2.6 0 4.3-1.7 4.3-4.2.1-7 .1-13.9 0-20.9zM16.7 6.8H50v14c0 1.4.5 1.9 1.9 1.9H64v7H16.6c.1-7.7.1-15.3.1-22.9zm38.9 30.5c-.1-.3-.3-.4-.7-.4-.3 0-.6.1-.7.4-.1.3-.2.9-.2 2v10c0 .9.1 1.5.2 1.8.1.3.4.4.7.4.4 0 .7-.2.8-.5.1-.3.2-1 .2-2v-2.5h-1.1v-3.2h6.4v11.1h-3.4l-.5-1.4c-.4.6-.8 1.1-1.4 1.4-.6.3-1.2.5-2 .5-.9 0-1.8-.2-2.6-.7-.8-.4-1.4-1-1.8-1.6s-.7-1.3-.8-2.1c-.1-.7-.1-1.8-.1-3.2v-6.2c0-2 .1-3.4.3-4.3.2-.9.8-1.7 1.9-2.5 1-.8 2.4-1.1 4-1.1s2.9.3 4 1 1.7 1.4 2.1 2.3.5 2.2.5 3.9v.9h-5.5v-1.9c-.1-1.1-.1-1.8-.3-2.1zm-9.1-3.6l-2.8 20.8h-8.3l-3.2-20.8H38c.7 5.7 1.1 10.6 1.4 14.5.3-4 .6-7.6.9-10.7l.4-3.9h5.8zM23.4 51.1c.1.2.4.3.8.3s.6-.1.8-.4c.2-.3.3-.7.3-1.3 0-1.2-.2-2-.5-2.4-.3-.4-1.2-1-2.6-1.9-1.4-.9-2.3-1.5-2.7-1.9-.4-.4-.8-1-1.1-1.7-.3-.7-.4-1.6-.4-2.7 0-1.6.2-2.8.6-3.5s1.1-1.3 2-1.7c.9-.4 2-.6 3.3-.6 1.4 0 2.6.2 3.6.7 1 .5 1.7 1 2 1.7s.5 1.9.5 3.5v.8h-5.1v-1.5c0-.7-.1-1.2-.2-1.4-.1-.2-.3-.3-.6-.3s-.6.1-.7.4-.4.6-.4 1.1c0 .7.1 1.2.3 1.6.2.3.7.8 1.5 1.3 2.4 1.4 4 2.6 4.6 3.5s.9 2.4.9 4.4c0 1.5-.2 2.6-.5 3.3-.3.7-1 1.3-2 1.8s-2.2.7-3.5.7c-1.5 0-2.7-.3-3.7-.8s-1.7-1.2-2-2.1c-.3-.9-.5-2.1-.5-3.6V47h5.1v2.5c-.1.9 0 1.4.2 1.6zm40 21.5h-46c-.4 0-.8 0-.8-.6V59.4 59H64V71.9c.2.6 0 .7-.6.7z"/></svg><svg id="social__ok" viewBox="0 0 80 80" width="80" height="80" y="396"><style>.fst0{fill:#fff;stroke:red;stroke-width:2.961;stroke-miterlimit:10}</style><path class="fst0" d="M76 78H3.9c-1 0-1.9-.9-1.9-1.9V4c0-1 .9-1.9 1.9-1.9H76c1 0 1.9.9 1.9 1.9v72.1c0 1-.9 1.9-1.9 1.9z"/><path d="M72.9 33.9c0-2.5-1.8-4.1-4.3-4.2h-1.5v-.8-7.2c0-.7-.2-1.3-.7-1.8-4.5-5-8.9-10.1-13.4-15.1-.3-.4-.7-.7-1.1-1H16.1c-1.8.6-2.3 1.9-2.3 3.7v22.2h-1.5C9.8 29.8 8 31.4 8 34v20.8c0 2.5 1.7 4.2 4.3 4.2h1.5v13.5c0 1.8.5 3.1 2.3 3.7h48.7c1.8-.6 2.3-1.9 2.3-3.7-.1-4.2 0-8.4 0-12.6V59h1.5c2.6 0 4.3-1.7 4.3-4.2.1-7 .1-13.9 0-20.9zM16.7 6.8H50v14c0 1.4.5 1.9 1.9 1.9H64v7H16.6c.1-7.7.1-15.3.1-22.9zm38.9 30.5c-.1-.3-.3-.4-.7-.4-.3 0-.6.1-.7.4-.1.3-.2.9-.2 2v10c0 .9.1 1.5.2 1.8.1.3.4.4.7.4.4 0 .7-.2.8-.5.1-.3.2-1 .2-2v-2.5h-1.1v-3.2h6.4v11.1h-3.4l-.5-1.4c-.4.6-.8 1.1-1.4 1.4-.6.3-1.2.5-2 .5-.9 0-1.8-.2-2.6-.7-.8-.4-1.4-1-1.8-1.6s-.7-1.3-.8-2.1c-.1-.7-.1-1.8-.1-3.2v-6.2c0-2 .1-3.4.3-4.3.2-.9.8-1.7 1.9-2.5 1-.8 2.4-1.1 4-1.1s2.9.3 4 1 1.7 1.4 2.1 2.3.5 2.2.5 3.9v.9h-5.5v-1.9c-.1-1.1-.1-1.8-.3-2.1zm-9.1-3.6l-2.8 20.8h-8.3l-3.2-20.8H38c.7 5.7 1.1 10.6 1.4 14.5.3-4 .6-7.6.9-10.7l.4-3.9h5.8zM23.4 51.1c.1.2.4.3.8.3s.6-.1.8-.4c.2-.3.3-.7.3-1.3 0-1.2-.2-2-.5-2.4-.3-.4-1.2-1-2.6-1.9-1.4-.9-2.3-1.5-2.7-1.9-.4-.4-.8-1-1.1-1.7-.3-.7-.4-1.6-.4-2.7 0-1.6.2-2.8.6-3.5s1.1-1.3 2-1.7c.9-.4 2-.6 3.3-.6 1.4 0 2.6.2 3.6.7 1 .5 1.7 1 2 1.7s.5 1.9.5 3.5v.8h-5.1v-1.5c0-.7-.1-1.2-.2-1.4-.1-.2-.3-.3-.6-.3s-.6.1-.7.4-.4.6-.4 1.1c0 .7.1 1.2.3 1.6.2.3.7.8 1.5 1.3 2.4 1.4 4 2.6 4.6 3.5s.9 2.4.9 4.4c0 1.5-.2 2.6-.5 3.3-.3.7-1 1.3-2 1.8s-2.2.7-3.5.7c-1.5 0-2.7-.3-3.7-.8s-1.7-1.2-2-2.1c-.3-.9-.5-2.1-.5-3.6V47h5.1v2.5c-.1.9 0 1.4.2 1.6zm40 21.5h-46c-.4 0-.8 0-.8-.6V59.4 59H64V71.9c.2.6 0 .7-.6.7z"/></svg><svg id="social__print" viewBox="0 0 80 80" width="80" height="80" y="476"><style>.gst0{fill:#fff;stroke:red;stroke-width:2.961;stroke-miterlimit:10}</style><path class="gst0" d="M76 78H3.9c-1 0-1.9-.9-1.9-1.9V4c0-1 .9-1.9 1.9-1.9H76c1 0 1.9.9 1.9 1.9v72.1c0 1-.9 1.9-1.9 1.9z"/><path d="M72.9 33.9c0-2.5-1.8-4.1-4.3-4.2h-1.5v-.8-7.2c0-.7-.2-1.3-.7-1.8-4.5-5-8.9-10.1-13.4-15.1-.3-.4-.7-.7-1.1-1H16.1c-1.8.6-2.3 1.9-2.3 3.7v22.2h-1.5C9.8 29.8 8 31.4 8 34v20.8c0 2.5 1.7 4.2 4.3 4.2h1.5v13.5c0 1.8.5 3.1 2.3 3.7h48.7c1.8-.6 2.3-1.9 2.3-3.7-.1-4.2 0-8.4 0-12.6V59h1.5c2.6 0 4.3-1.7 4.3-4.2.1-7 .1-13.9 0-20.9zM16.7 6.8H50v14c0 1.4.5 1.9 1.9 1.9H64v7H16.6c.1-7.7.1-15.3.1-22.9zm38.9 30.5c-.1-.3-.3-.4-.7-.4-.3 0-.6.1-.7.4-.1.3-.2.9-.2 2v10c0 .9.1 1.5.2 1.8.1.3.4.4.7.4.4 0 .7-.2.8-.5.1-.3.2-1 .2-2v-2.5h-1.1v-3.2h6.4v11.1h-3.4l-.5-1.4c-.4.6-.8 1.1-1.4 1.4-.6.3-1.2.5-2 .5-.9 0-1.8-.2-2.6-.7-.8-.4-1.4-1-1.8-1.6s-.7-1.3-.8-2.1c-.1-.7-.1-1.8-.1-3.2v-6.2c0-2 .1-3.4.3-4.3.2-.9.8-1.7 1.9-2.5 1-.8 2.4-1.1 4-1.1s2.9.3 4 1 1.7 1.4 2.1 2.3.5 2.2.5 3.9v.9h-5.5v-1.9c-.1-1.1-.1-1.8-.3-2.1zm-9.1-3.6l-2.8 20.8h-8.3l-3.2-20.8H38c.7 5.7 1.1 10.6 1.4 14.5.3-4 .6-7.6.9-10.7l.4-3.9h5.8zM23.4 51.1c.1.2.4.3.8.3s.6-.1.8-.4c.2-.3.3-.7.3-1.3 0-1.2-.2-2-.5-2.4-.3-.4-1.2-1-2.6-1.9-1.4-.9-2.3-1.5-2.7-1.9-.4-.4-.8-1-1.1-1.7-.3-.7-.4-1.6-.4-2.7 0-1.6.2-2.8.6-3.5s1.1-1.3 2-1.7c.9-.4 2-.6 3.3-.6 1.4 0 2.6.2 3.6.7 1 .5 1.7 1 2 1.7s.5 1.9.5 3.5v.8h-5.1v-1.5c0-.7-.1-1.2-.2-1.4-.1-.2-.3-.3-.6-.3s-.6.1-.7.4-.4.6-.4 1.1c0 .7.1 1.2.3 1.6.2.3.7.8 1.5 1.3 2.4 1.4 4 2.6 4.6 3.5s.9 2.4.9 4.4c0 1.5-.2 2.6-.5 3.3-.3.7-1 1.3-2 1.8s-2.2.7-3.5.7c-1.5 0-2.7-.3-3.7-.8s-1.7-1.2-2-2.1c-.3-.9-.5-2.1-.5-3.6V47h5.1v2.5c-.1.9 0 1.4.2 1.6zm40 21.5h-46c-.4 0-.8 0-.8-.6V59.4 59H64V71.9c.2.6 0 .7-.6.7z"/></svg><svg id="social__twitter" viewBox="0 0 80 80" width="80" height="80" y="556"><style>.hst0{fill:#fff;stroke:red;stroke-width:2.961;stroke-miterlimit:10}</style><path class="hst0" d="M76 78H3.9c-1 0-1.9-.9-1.9-1.9V4c0-1 .9-1.9 1.9-1.9H76c1 0 1.9.9 1.9 1.9v72.1c0 1-.9 1.9-1.9 1.9z"/><path d="M72.9 33.9c0-2.5-1.8-4.1-4.3-4.2h-1.5v-.8-7.2c0-.7-.2-1.3-.7-1.8-4.5-5-8.9-10.1-13.4-15.1-.3-.4-.7-.7-1.1-1H16.1c-1.8.6-2.3 1.9-2.3 3.7v22.2h-1.5C9.8 29.8 8 31.4 8 34v20.8c0 2.5 1.7 4.2 4.3 4.2h1.5v13.5c0 1.8.5 3.1 2.3 3.7h48.7c1.8-.6 2.3-1.9 2.3-3.7-.1-4.2 0-8.4 0-12.6V59h1.5c2.6 0 4.3-1.7 4.3-4.2.1-7 .1-13.9 0-20.9zM16.7 6.8H50v14c0 1.4.5 1.9 1.9 1.9H64v7H16.6c.1-7.7.1-15.3.1-22.9zm38.9 30.5c-.1-.3-.3-.4-.7-.4-.3 0-.6.1-.7.4-.1.3-.2.9-.2 2v10c0 .9.1 1.5.2 1.8.1.3.4.4.7.4.4 0 .7-.2.8-.5.1-.3.2-1 .2-2v-2.5h-1.1v-3.2h6.4v11.1h-3.4l-.5-1.4c-.4.6-.8 1.1-1.4 1.4-.6.3-1.2.5-2 .5-.9 0-1.8-.2-2.6-.7-.8-.4-1.4-1-1.8-1.6s-.7-1.3-.8-2.1c-.1-.7-.1-1.8-.1-3.2v-6.2c0-2 .1-3.4.3-4.3.2-.9.8-1.7 1.9-2.5 1-.8 2.4-1.1 4-1.1s2.9.3 4 1 1.7 1.4 2.1 2.3.5 2.2.5 3.9v.9h-5.5v-1.9c-.1-1.1-.1-1.8-.3-2.1zm-9.1-3.6l-2.8 20.8h-8.3l-3.2-20.8H38c.7 5.7 1.1 10.6 1.4 14.5.3-4 .6-7.6.9-10.7l.4-3.9h5.8zM23.4 51.1c.1.2.4.3.8.3s.6-.1.8-.4c.2-.3.3-.7.3-1.3 0-1.2-.2-2-.5-2.4-.3-.4-1.2-1-2.6-1.9-1.4-.9-2.3-1.5-2.7-1.9-.4-.4-.8-1-1.1-1.7-.3-.7-.4-1.6-.4-2.7 0-1.6.2-2.8.6-3.5s1.1-1.3 2-1.7c.9-.4 2-.6 3.3-.6 1.4 0 2.6.2 3.6.7 1 .5 1.7 1 2 1.7s.5 1.9.5 3.5v.8h-5.1v-1.5c0-.7-.1-1.2-.2-1.4-.1-.2-.3-.3-.6-.3s-.6.1-.7.4-.4.6-.4 1.1c0 .7.1 1.2.3 1.6.2.3.7.8 1.5 1.3 2.4 1.4 4 2.6 4.6 3.5s.9 2.4.9 4.4c0 1.5-.2 2.6-.5 3.3-.3.7-1 1.3-2 1.8s-2.2.7-3.5.7c-1.5 0-2.7-.3-3.7-.8s-1.7-1.2-2-2.1c-.3-.9-.5-2.1-.5-3.6V47h5.1v2.5c-.1.9 0 1.4.2 1.6zm40 21.5h-46c-.4 0-.8 0-.8-.6V59.4 59H64V71.9c.2.6 0 .7-.6.7z"/></svg><svg id="social__vk" viewBox="0 0 80 80" width="80" height="80" y="636"><style>.ist0{fill:#fff;stroke:red;stroke-width:2.961;stroke-miterlimit:10}</style><path class="ist0" d="M76 78H3.9c-1 0-1.9-.9-1.9-1.9V4c0-1 .9-1.9 1.9-1.9H76c1 0 1.9.9 1.9 1.9v72.1c0 1-.9 1.9-1.9 1.9z"/><path d="M72.9 33.9c0-2.5-1.8-4.1-4.3-4.2h-1.5v-.8-7.2c0-.7-.2-1.3-.7-1.8-4.5-5-8.9-10.1-13.4-15.1-.3-.4-.7-.7-1.1-1H16.1c-1.8.6-2.3 1.9-2.3 3.7v22.2h-1.5C9.8 29.8 8 31.4 8 34v20.8c0 2.5 1.7 4.2 4.3 4.2h1.5v13.5c0 1.8.5 3.1 2.3 3.7h48.7c1.8-.6 2.3-1.9 2.3-3.7-.1-4.2 0-8.4 0-12.6V59h1.5c2.6 0 4.3-1.7 4.3-4.2.1-7 .1-13.9 0-20.9zM16.7 6.8H50v14c0 1.4.5 1.9 1.9 1.9H64v7H16.6c.1-7.7.1-15.3.1-22.9zm38.9 30.5c-.1-.3-.3-.4-.7-.4-.3 0-.6.1-.7.4-.1.3-.2.9-.2 2v10c0 .9.1 1.5.2 1.8.1.3.4.4.7.4.4 0 .7-.2.8-.5.1-.3.2-1 .2-2v-2.5h-1.1v-3.2h6.4v11.1h-3.4l-.5-1.4c-.4.6-.8 1.1-1.4 1.4-.6.3-1.2.5-2 .5-.9 0-1.8-.2-2.6-.7-.8-.4-1.4-1-1.8-1.6s-.7-1.3-.8-2.1c-.1-.7-.1-1.8-.1-3.2v-6.2c0-2 .1-3.4.3-4.3.2-.9.8-1.7 1.9-2.5 1-.8 2.4-1.1 4-1.1s2.9.3 4 1 1.7 1.4 2.1 2.3.5 2.2.5 3.9v.9h-5.5v-1.9c-.1-1.1-.1-1.8-.3-2.1zm-9.1-3.6l-2.8 20.8h-8.3l-3.2-20.8H38c.7 5.7 1.1 10.6 1.4 14.5.3-4 .6-7.6.9-10.7l.4-3.9h5.8zM23.4 51.1c.1.2.4.3.8.3s.6-.1.8-.4c.2-.3.3-.7.3-1.3 0-1.2-.2-2-.5-2.4-.3-.4-1.2-1-2.6-1.9-1.4-.9-2.3-1.5-2.7-1.9-.4-.4-.8-1-1.1-1.7-.3-.7-.4-1.6-.4-2.7 0-1.6.2-2.8.6-3.5s1.1-1.3 2-1.7c.9-.4 2-.6 3.3-.6 1.4 0 2.6.2 3.6.7 1 .5 1.7 1 2 1.7s.5 1.9.5 3.5v.8h-5.1v-1.5c0-.7-.1-1.2-.2-1.4-.1-.2-.3-.3-.6-.3s-.6.1-.7.4-.4.6-.4 1.1c0 .7.1 1.2.3 1.6.2.3.7.8 1.5 1.3 2.4 1.4 4 2.6 4.6 3.5s.9 2.4.9 4.4c0 1.5-.2 2.6-.5 3.3-.3.7-1 1.3-2 1.8s-2.2.7-3.5.7c-1.5 0-2.7-.3-3.7-.8s-1.7-1.2-2-2.1c-.3-.9-.5-2.1-.5-3.6V47h5.1v2.5c-.1.9 0 1.4.2 1.6zm40 21.5h-46c-.4 0-.8 0-.8-.6V59.4 59H64V71.9c.2.6 0 .7-.6.7z"/></svg><svg id="upline__e-mail" viewBox="0 0 80 80" width="80" height="80" y="716"><style>.jst0{fill:#fff;stroke:red;stroke-width:2.961;stroke-miterlimit:10}</style><path class="jst0" d="M76 78H3.9c-1 0-1.9-.9-1.9-1.9V4c0-1 .9-1.9 1.9-1.9H76c1 0 1.9.9 1.9 1.9v72.1c0 1-.9 1.9-1.9 1.9z"/><path d="M72.9 33.9c0-2.5-1.8-4.1-4.3-4.2h-1.5v-.8-7.2c0-.7-.2-1.3-.7-1.8-4.5-5-8.9-10.1-13.4-15.1-.3-.4-.7-.7-1.1-1H16.1c-1.8.6-2.3 1.9-2.3 3.7v22.2h-1.5C9.8 29.8 8 31.4 8 34v20.8c0 2.5 1.7 4.2 4.3 4.2h1.5v13.5c0 1.8.5 3.1 2.3 3.7h48.7c1.8-.6 2.3-1.9 2.3-3.7-.1-4.2 0-8.4 0-12.6V59h1.5c2.6 0 4.3-1.7 4.3-4.2.1-7 .1-13.9 0-20.9zM16.7 6.8H50v14c0 1.4.5 1.9 1.9 1.9H64v7H16.6c.1-7.7.1-15.3.1-22.9zm38.9 30.5c-.1-.3-.3-.4-.7-.4-.3 0-.6.1-.7.4-.1.3-.2.9-.2 2v10c0 .9.1 1.5.2 1.8.1.3.4.4.7.4.4 0 .7-.2.8-.5.1-.3.2-1 .2-2v-2.5h-1.1v-3.2h6.4v11.1h-3.4l-.5-1.4c-.4.6-.8 1.1-1.4 1.4-.6.3-1.2.5-2 .5-.9 0-1.8-.2-2.6-.7-.8-.4-1.4-1-1.8-1.6s-.7-1.3-.8-2.1c-.1-.7-.1-1.8-.1-3.2v-6.2c0-2 .1-3.4.3-4.3.2-.9.8-1.7 1.9-2.5 1-.8 2.4-1.1 4-1.1s2.9.3 4 1 1.7 1.4 2.1 2.3.5 2.2.5 3.9v.9h-5.5v-1.9c-.1-1.1-.1-1.8-.3-2.1zm-9.1-3.6l-2.8 20.8h-8.3l-3.2-20.8H38c.7 5.7 1.1 10.6 1.4 14.5.3-4 .6-7.6.9-10.7l.4-3.9h5.8zM23.4 51.1c.1.2.4.3.8.3s.6-.1.8-.4c.2-.3.3-.7.3-1.3 0-1.2-.2-2-.5-2.4-.3-.4-1.2-1-2.6-1.9-1.4-.9-2.3-1.5-2.7-1.9-.4-.4-.8-1-1.1-1.7-.3-.7-.4-1.6-.4-2.7 0-1.6.2-2.8.6-3.5s1.1-1.3 2-1.7c.9-.4 2-.6 3.3-.6 1.4 0 2.6.2 3.6.7 1 .5 1.7 1 2 1.7s.5 1.9.5 3.5v.8h-5.1v-1.5c0-.7-.1-1.2-.2-1.4-.1-.2-.3-.3-.6-.3s-.6.1-.7.4-.4.6-.4 1.1c0 .7.1 1.2.3 1.6.2.3.7.8 1.5 1.3 2.4 1.4 4 2.6 4.6 3.5s.9 2.4.9 4.4c0 1.5-.2 2.6-.5 3.3-.3.7-1 1.3-2 1.8s-2.2.7-3.5.7c-1.5 0-2.7-.3-3.7-.8s-1.7-1.2-2-2.1c-.3-.9-.5-2.1-.5-3.6V47h5.1v2.5c-.1.9 0 1.4.2 1.6zm40 21.5h-46c-.4 0-.8 0-.8-.6V59.4 59H64V71.9c.2.6 0 .7-.6.7z"/></svg><svg id="upline__phone" viewBox="0 0 80 80" width="80" height="80" y="796"><style>.kst0{fill:#fff;stroke:red;stroke-width:2.961;stroke-miterlimit:10}</style><path class="kst0" d="M76 78H3.9c-1 0-1.9-.9-1.9-1.9V4c0-1 .9-1.9 1.9-1.9H76c1 0 1.9.9 1.9 1.9v72.1c0 1-.9 1.9-1.9 1.9z"/><path d="M72.9 33.9c0-2.5-1.8-4.1-4.3-4.2h-1.5v-.8-7.2c0-.7-.2-1.3-.7-1.8-4.5-5-8.9-10.1-13.4-15.1-.3-.4-.7-.7-1.1-1H16.1c-1.8.6-2.3 1.9-2.3 3.7v22.2h-1.5C9.8 29.8 8 31.4 8 34v20.8c0 2.5 1.7 4.2 4.3 4.2h1.5v13.5c0 1.8.5 3.1 2.3 3.7h48.7c1.8-.6 2.3-1.9 2.3-3.7-.1-4.2 0-8.4 0-12.6V59h1.5c2.6 0 4.3-1.7 4.3-4.2.1-7 .1-13.9 0-20.9zM16.7 6.8H50v14c0 1.4.5 1.9 1.9 1.9H64v7H16.6c.1-7.7.1-15.3.1-22.9zm38.9 30.5c-.1-.3-.3-.4-.7-.4-.3 0-.6.1-.7.4-.1.3-.2.9-.2 2v10c0 .9.1 1.5.2 1.8.1.3.4.4.7.4.4 0 .7-.2.8-.5.1-.3.2-1 .2-2v-2.5h-1.1v-3.2h6.4v11.1h-3.4l-.5-1.4c-.4.6-.8 1.1-1.4 1.4-.6.3-1.2.5-2 .5-.9 0-1.8-.2-2.6-.7-.8-.4-1.4-1-1.8-1.6s-.7-1.3-.8-2.1c-.1-.7-.1-1.8-.1-3.2v-6.2c0-2 .1-3.4.3-4.3.2-.9.8-1.7 1.9-2.5 1-.8 2.4-1.1 4-1.1s2.9.3 4 1 1.7 1.4 2.1 2.3.5 2.2.5 3.9v.9h-5.5v-1.9c-.1-1.1-.1-1.8-.3-2.1zm-9.1-3.6l-2.8 20.8h-8.3l-3.2-20.8H38c.7 5.7 1.1 10.6 1.4 14.5.3-4 .6-7.6.9-10.7l.4-3.9h5.8zM23.4 51.1c.1.2.4.3.8.3s.6-.1.8-.4c.2-.3.3-.7.3-1.3 0-1.2-.2-2-.5-2.4-.3-.4-1.2-1-2.6-1.9-1.4-.9-2.3-1.5-2.7-1.9-.4-.4-.8-1-1.1-1.7-.3-.7-.4-1.6-.4-2.7 0-1.6.2-2.8.6-3.5s1.1-1.3 2-1.7c.9-.4 2-.6 3.3-.6 1.4 0 2.6.2 3.6.7 1 .5 1.7 1 2 1.7s.5 1.9.5 3.5v.8h-5.1v-1.5c0-.7-.1-1.2-.2-1.4-.1-.2-.3-.3-.6-.3s-.6.1-.7.4-.4.6-.4 1.1c0 .7.1 1.2.3 1.6.2.3.7.8 1.5 1.3 2.4 1.4 4 2.6 4.6 3.5s.9 2.4.9 4.4c0 1.5-.2 2.6-.5 3.3-.3.7-1 1.3-2 1.8s-2.2.7-3.5.7c-1.5 0-2.7-.3-3.7-.8s-1.7-1.2-2-2.1c-.3-.9-.5-2.1-.5-3.6V47h5.1v2.5c-.1.9 0 1.4.2 1.6zm40 21.5h-46c-.4 0-.8 0-.8-.6V59.4 59H64V71.9c.2.6 0 .7-.6.7z"/></svg><svg id="uslugi__calculator" viewBox="0 0 80 80" width="80" height="80" y="876"><style>.lst0{fill:#fff;stroke:red;stroke-width:2.961;stroke-miterlimit:10}</style><path class="lst0" d="M76 78H3.9c-1 0-1.9-.9-1.9-1.9V4c0-1 .9-1.9 1.9-1.9H76c1 0 1.9.9 1.9 1.9v72.1c0 1-.9 1.9-1.9 1.9z"/><path d="M72.9 33.9c0-2.5-1.8-4.1-4.3-4.2h-1.5v-.8-7.2c0-.7-.2-1.3-.7-1.8-4.5-5-8.9-10.1-13.4-15.1-.3-.4-.7-.7-1.1-1H16.1c-1.8.6-2.3 1.9-2.3 3.7v22.2h-1.5C9.8 29.8 8 31.4 8 34v20.8c0 2.5 1.7 4.2 4.3 4.2h1.5v13.5c0 1.8.5 3.1 2.3 3.7h48.7c1.8-.6 2.3-1.9 2.3-3.7-.1-4.2 0-8.4 0-12.6V59h1.5c2.6 0 4.3-1.7 4.3-4.2.1-7 .1-13.9 0-20.9zM16.7 6.8H50v14c0 1.4.5 1.9 1.9 1.9H64v7H16.6c.1-7.7.1-15.3.1-22.9zm38.9 30.5c-.1-.3-.3-.4-.7-.4-.3 0-.6.1-.7.4-.1.3-.2.9-.2 2v10c0 .9.1 1.5.2 1.8.1.3.4.4.7.4.4 0 .7-.2.8-.5.1-.3.2-1 .2-2v-2.5h-1.1v-3.2h6.4v11.1h-3.4l-.5-1.4c-.4.6-.8 1.1-1.4 1.4-.6.3-1.2.5-2 .5-.9 0-1.8-.2-2.6-.7-.8-.4-1.4-1-1.8-1.6s-.7-1.3-.8-2.1c-.1-.7-.1-1.8-.1-3.2v-6.2c0-2 .1-3.4.3-4.3.2-.9.8-1.7 1.9-2.5 1-.8 2.4-1.1 4-1.1s2.9.3 4 1 1.7 1.4 2.1 2.3.5 2.2.5 3.9v.9h-5.5v-1.9c-.1-1.1-.1-1.8-.3-2.1zm-9.1-3.6l-2.8 20.8h-8.3l-3.2-20.8H38c.7 5.7 1.1 10.6 1.4 14.5.3-4 .6-7.6.9-10.7l.4-3.9h5.8zM23.4 51.1c.1.2.4.3.8.3s.6-.1.8-.4c.2-.3.3-.7.3-1.3 0-1.2-.2-2-.5-2.4-.3-.4-1.2-1-2.6-1.9-1.4-.9-2.3-1.5-2.7-1.9-.4-.4-.8-1-1.1-1.7-.3-.7-.4-1.6-.4-2.7 0-1.6.2-2.8.6-3.5s1.1-1.3 2-1.7c.9-.4 2-.6 3.3-.6 1.4 0 2.6.2 3.6.7 1 .5 1.7 1 2 1.7s.5 1.9.5 3.5v.8h-5.1v-1.5c0-.7-.1-1.2-.2-1.4-.1-.2-.3-.3-.6-.3s-.6.1-.7.4-.4.6-.4 1.1c0 .7.1 1.2.3 1.6.2.3.7.8 1.5 1.3 2.4 1.4 4 2.6 4.6 3.5s.9 2.4.9 4.4c0 1.5-.2 2.6-.5 3.3-.3.7-1 1.3-2 1.8s-2.2.7-3.5.7c-1.5 0-2.7-.3-3.7-.8s-1.7-1.2-2-2.1c-.3-.9-.5-2.1-.5-3.6V47h5.1v2.5c-.1.9 0 1.4.2 1.6zm40 21.5h-46c-.4 0-.8 0-.8-.6V59.4 59H64V71.9c.2.6 0 .7-.6.7z"/></svg><svg id="uslugi__manager" viewBox="0 0 80 80" width="80" height="80" y="956"><style>.mst0{fill:#fff;stroke:red;stroke-width:2.961;stroke-miterlimit:10}</style><path class="mst0" d="M76 78H3.9c-1 0-1.9-.9-1.9-1.9V4c0-1 .9-1.9 1.9-1.9H76c1 0 1.9.9 1.9 1.9v72.1c0 1-.9 1.9-1.9 1.9z"/><path d="M72.9 33.9c0-2.5-1.8-4.1-4.3-4.2h-1.5v-.8-7.2c0-.7-.2-1.3-.7-1.8-4.5-5-8.9-10.1-13.4-15.1-.3-.4-.7-.7-1.1-1H16.1c-1.8.6-2.3 1.9-2.3 3.7v22.2h-1.5C9.8 29.8 8 31.4 8 34v20.8c0 2.5 1.7 4.2 4.3 4.2h1.5v13.5c0 1.8.5 3.1 2.3 3.7h48.7c1.8-.6 2.3-1.9 2.3-3.7-.1-4.2 0-8.4 0-12.6V59h1.5c2.6 0 4.3-1.7 4.3-4.2.1-7 .1-13.9 0-20.9zM16.7 6.8H50v14c0 1.4.5 1.9 1.9 1.9H64v7H16.6c.1-7.7.1-15.3.1-22.9zm38.9 30.5c-.1-.3-.3-.4-.7-.4-.3 0-.6.1-.7.4-.1.3-.2.9-.2 2v10c0 .9.1 1.5.2 1.8.1.3.4.4.7.4.4 0 .7-.2.8-.5.1-.3.2-1 .2-2v-2.5h-1.1v-3.2h6.4v11.1h-3.4l-.5-1.4c-.4.6-.8 1.1-1.4 1.4-.6.3-1.2.5-2 .5-.9 0-1.8-.2-2.6-.7-.8-.4-1.4-1-1.8-1.6s-.7-1.3-.8-2.1c-.1-.7-.1-1.8-.1-3.2v-6.2c0-2 .1-3.4.3-4.3.2-.9.8-1.7 1.9-2.5 1-.8 2.4-1.1 4-1.1s2.9.3 4 1 1.7 1.4 2.1 2.3.5 2.2.5 3.9v.9h-5.5v-1.9c-.1-1.1-.1-1.8-.3-2.1zm-9.1-3.6l-2.8 20.8h-8.3l-3.2-20.8H38c.7 5.7 1.1 10.6 1.4 14.5.3-4 .6-7.6.9-10.7l.4-3.9h5.8zM23.4 51.1c.1.2.4.3.8.3s.6-.1.8-.4c.2-.3.3-.7.3-1.3 0-1.2-.2-2-.5-2.4-.3-.4-1.2-1-2.6-1.9-1.4-.9-2.3-1.5-2.7-1.9-.4-.4-.8-1-1.1-1.7-.3-.7-.4-1.6-.4-2.7 0-1.6.2-2.8.6-3.5s1.1-1.3 2-1.7c.9-.4 2-.6 3.3-.6 1.4 0 2.6.2 3.6.7 1 .5 1.7 1 2 1.7s.5 1.9.5 3.5v.8h-5.1v-1.5c0-.7-.1-1.2-.2-1.4-.1-.2-.3-.3-.6-.3s-.6.1-.7.4-.4.6-.4 1.1c0 .7.1 1.2.3 1.6.2.3.7.8 1.5 1.3 2.4 1.4 4 2.6 4.6 3.5s.9 2.4.9 4.4c0 1.5-.2 2.6-.5 3.3-.3.7-1 1.3-2 1.8s-2.2.7-3.5.7c-1.5 0-2.7-.3-3.7-.8s-1.7-1.2-2-2.1c-.3-.9-.5-2.1-.5-3.6V47h5.1v2.5c-.1.9 0 1.4.2 1.6zm40 21.5h-46c-.4 0-.8 0-.8-.6V59.4 59H64V71.9c.2.6 0 .7-.6.7z"/></svg><svg id="uslugi__montazman" viewBox="0 0 80 80" width="80" height="80" y="1036"><style>.nst0{fill:#fff;stroke:red;stroke-width:2.961;stroke-miterlimit:10}</style><path class="nst0" d="M76 78H3.9c-1 0-1.9-.9-1.9-1.9V4c0-1 .9-1.9 1.9-1.9H76c1 0 1.9.9 1.9 1.9v72.1c0 1-.9 1.9-1.9 1.9z"/><path d="M72.9 33.9c0-2.5-1.8-4.1-4.3-4.2h-1.5v-.8-7.2c0-.7-.2-1.3-.7-1.8-4.5-5-8.9-10.1-13.4-15.1-.3-.4-.7-.7-1.1-1H16.1c-1.8.6-2.3 1.9-2.3 3.7v22.2h-1.5C9.8 29.8 8 31.4 8 34v20.8c0 2.5 1.7 4.2 4.3 4.2h1.5v13.5c0 1.8.5 3.1 2.3 3.7h48.7c1.8-.6 2.3-1.9 2.3-3.7-.1-4.2 0-8.4 0-12.6V59h1.5c2.6 0 4.3-1.7 4.3-4.2.1-7 .1-13.9 0-20.9zM16.7 6.8H50v14c0 1.4.5 1.9 1.9 1.9H64v7H16.6c.1-7.7.1-15.3.1-22.9zm38.9 30.5c-.1-.3-.3-.4-.7-.4-.3 0-.6.1-.7.4-.1.3-.2.9-.2 2v10c0 .9.1 1.5.2 1.8.1.3.4.4.7.4.4 0 .7-.2.8-.5.1-.3.2-1 .2-2v-2.5h-1.1v-3.2h6.4v11.1h-3.4l-.5-1.4c-.4.6-.8 1.1-1.4 1.4-.6.3-1.2.5-2 .5-.9 0-1.8-.2-2.6-.7-.8-.4-1.4-1-1.8-1.6s-.7-1.3-.8-2.1c-.1-.7-.1-1.8-.1-3.2v-6.2c0-2 .1-3.4.3-4.3.2-.9.8-1.7 1.9-2.5 1-.8 2.4-1.1 4-1.1s2.9.3 4 1 1.7 1.4 2.1 2.3.5 2.2.5 3.9v.9h-5.5v-1.9c-.1-1.1-.1-1.8-.3-2.1zm-9.1-3.6l-2.8 20.8h-8.3l-3.2-20.8H38c.7 5.7 1.1 10.6 1.4 14.5.3-4 .6-7.6.9-10.7l.4-3.9h5.8zM23.4 51.1c.1.2.4.3.8.3s.6-.1.8-.4c.2-.3.3-.7.3-1.3 0-1.2-.2-2-.5-2.4-.3-.4-1.2-1-2.6-1.9-1.4-.9-2.3-1.5-2.7-1.9-.4-.4-.8-1-1.1-1.7-.3-.7-.4-1.6-.4-2.7 0-1.6.2-2.8.6-3.5s1.1-1.3 2-1.7c.9-.4 2-.6 3.3-.6 1.4 0 2.6.2 3.6.7 1 .5 1.7 1 2 1.7s.5 1.9.5 3.5v.8h-5.1v-1.5c0-.7-.1-1.2-.2-1.4-.1-.2-.3-.3-.6-.3s-.6.1-.7.4-.4.6-.4 1.1c0 .7.1 1.2.3 1.6.2.3.7.8 1.5 1.3 2.4 1.4 4 2.6 4.6 3.5s.9 2.4.9 4.4c0 1.5-.2 2.6-.5 3.3-.3.7-1 1.3-2 1.8s-2.2.7-3.5.7c-1.5 0-2.7-.3-3.7-.8s-1.7-1.2-2-2.1c-.3-.9-.5-2.1-.5-3.6V47h5.1v2.5c-.1.9 0 1.4.2 1.6zm40 21.5h-46c-.4 0-.8 0-.8-.6V59.4 59H64V71.9c.2.6 0 .7-.6.7z"/></svg><svg id="uslugi__projectman" viewBox="0 0 80 80" width="80" height="80" y="1116"><style>.ost0{fill:#fff;stroke:red;stroke-width:2.961;stroke-miterlimit:10}</style><path class="ost0" d="M76 78H3.9c-1 0-1.9-.9-1.9-1.9V4c0-1 .9-1.9 1.9-1.9H76c1 0 1.9.9 1.9 1.9v72.1c0 1-.9 1.9-1.9 1.9z"/><path d="M72.9 33.9c0-2.5-1.8-4.1-4.3-4.2h-1.5v-.8-7.2c0-.7-.2-1.3-.7-1.8-4.5-5-8.9-10.1-13.4-15.1-.3-.4-.7-.7-1.1-1H16.1c-1.8.6-2.3 1.9-2.3 3.7v22.2h-1.5C9.8 29.8 8 31.4 8 34v20.8c0 2.5 1.7 4.2 4.3 4.2h1.5v13.5c0 1.8.5 3.1 2.3 3.7h48.7c1.8-.6 2.3-1.9 2.3-3.7-.1-4.2 0-8.4 0-12.6V59h1.5c2.6 0 4.3-1.7 4.3-4.2.1-7 .1-13.9 0-20.9zM16.7 6.8H50v14c0 1.4.5 1.9 1.9 1.9H64v7H16.6c.1-7.7.1-15.3.1-22.9zm38.9 30.5c-.1-.3-.3-.4-.7-.4-.3 0-.6.1-.7.4-.1.3-.2.9-.2 2v10c0 .9.1 1.5.2 1.8.1.3.4.4.7.4.4 0 .7-.2.8-.5.1-.3.2-1 .2-2v-2.5h-1.1v-3.2h6.4v11.1h-3.4l-.5-1.4c-.4.6-.8 1.1-1.4 1.4-.6.3-1.2.5-2 .5-.9 0-1.8-.2-2.6-.7-.8-.4-1.4-1-1.8-1.6s-.7-1.3-.8-2.1c-.1-.7-.1-1.8-.1-3.2v-6.2c0-2 .1-3.4.3-4.3.2-.9.8-1.7 1.9-2.5 1-.8 2.4-1.1 4-1.1s2.9.3 4 1 1.7 1.4 2.1 2.3.5 2.2.5 3.9v.9h-5.5v-1.9c-.1-1.1-.1-1.8-.3-2.1zm-9.1-3.6l-2.8 20.8h-8.3l-3.2-20.8H38c.7 5.7 1.1 10.6 1.4 14.5.3-4 .6-7.6.9-10.7l.4-3.9h5.8zM23.4 51.1c.1.2.4.3.8.3s.6-.1.8-.4c.2-.3.3-.7.3-1.3 0-1.2-.2-2-.5-2.4-.3-.4-1.2-1-2.6-1.9-1.4-.9-2.3-1.5-2.7-1.9-.4-.4-.8-1-1.1-1.7-.3-.7-.4-1.6-.4-2.7 0-1.6.2-2.8.6-3.5s1.1-1.3 2-1.7c.9-.4 2-.6 3.3-.6 1.4 0 2.6.2 3.6.7 1 .5 1.7 1 2 1.7s.5 1.9.5 3.5v.8h-5.1v-1.5c0-.7-.1-1.2-.2-1.4-.1-.2-.3-.3-.6-.3s-.6.1-.7.4-.4.6-.4 1.1c0 .7.1 1.2.3 1.6.2.3.7.8 1.5 1.3 2.4 1.4 4 2.6 4.6 3.5s.9 2.4.9 4.4c0 1.5-.2 2.6-.5 3.3-.3.7-1 1.3-2 1.8s-2.2.7-3.5.7c-1.5 0-2.7-.3-3.7-.8s-1.7-1.2-2-2.1c-.3-.9-.5-2.1-.5-3.6V47h5.1v2.5c-.1.9 0 1.4.2 1.6zm40 21.5h-46c-.4 0-.8 0-.8-.6V59.4 59H64V71.9c.2.6 0 .7-.6.7z"/></svg><svg id="why__experience" viewBox="0 0 80 80" width="80" height="80" y="1196"><style>.pst0{fill:#fff;stroke:red;stroke-width:2.961;stroke-miterlimit:10}</style><path class="pst0" d="M76 78H3.9c-1 0-1.9-.9-1.9-1.9V4c0-1 .9-1.9 1.9-1.9H76c1 0 1.9.9 1.9 1.9v72.1c0 1-.9 1.9-1.9 1.9z"/><path d="M72.9 33.9c0-2.5-1.8-4.1-4.3-4.2h-1.5v-.8-7.2c0-.7-.2-1.3-.7-1.8-4.5-5-8.9-10.1-13.4-15.1-.3-.4-.7-.7-1.1-1H16.1c-1.8.6-2.3 1.9-2.3 3.7v22.2h-1.5C9.8 29.8 8 31.4 8 34v20.8c0 2.5 1.7 4.2 4.3 4.2h1.5v13.5c0 1.8.5 3.1 2.3 3.7h48.7c1.8-.6 2.3-1.9 2.3-3.7-.1-4.2 0-8.4 0-12.6V59h1.5c2.6 0 4.3-1.7 4.3-4.2.1-7 .1-13.9 0-20.9zM16.7 6.8H50v14c0 1.4.5 1.9 1.9 1.9H64v7H16.6c.1-7.7.1-15.3.1-22.9zm38.9 30.5c-.1-.3-.3-.4-.7-.4-.3 0-.6.1-.7.4-.1.3-.2.9-.2 2v10c0 .9.1 1.5.2 1.8.1.3.4.4.7.4.4 0 .7-.2.8-.5.1-.3.2-1 .2-2v-2.5h-1.1v-3.2h6.4v11.1h-3.4l-.5-1.4c-.4.6-.8 1.1-1.4 1.4-.6.3-1.2.5-2 .5-.9 0-1.8-.2-2.6-.7-.8-.4-1.4-1-1.8-1.6s-.7-1.3-.8-2.1c-.1-.7-.1-1.8-.1-3.2v-6.2c0-2 .1-3.4.3-4.3.2-.9.8-1.7 1.9-2.5 1-.8 2.4-1.1 4-1.1s2.9.3 4 1 1.7 1.4 2.1 2.3.5 2.2.5 3.9v.9h-5.5v-1.9c-.1-1.1-.1-1.8-.3-2.1zm-9.1-3.6l-2.8 20.8h-8.3l-3.2-20.8H38c.7 5.7 1.1 10.6 1.4 14.5.3-4 .6-7.6.9-10.7l.4-3.9h5.8zM23.4 51.1c.1.2.4.3.8.3s.6-.1.8-.4c.2-.3.3-.7.3-1.3 0-1.2-.2-2-.5-2.4-.3-.4-1.2-1-2.6-1.9-1.4-.9-2.3-1.5-2.7-1.9-.4-.4-.8-1-1.1-1.7-.3-.7-.4-1.6-.4-2.7 0-1.6.2-2.8.6-3.5s1.1-1.3 2-1.7c.9-.4 2-.6 3.3-.6 1.4 0 2.6.2 3.6.7 1 .5 1.7 1 2 1.7s.5 1.9.5 3.5v.8h-5.1v-1.5c0-.7-.1-1.2-.2-1.4-.1-.2-.3-.3-.6-.3s-.6.1-.7.4-.4.6-.4 1.1c0 .7.1 1.2.3 1.6.2.3.7.8 1.5 1.3 2.4 1.4 4 2.6 4.6 3.5s.9 2.4.9 4.4c0 1.5-.2 2.6-.5 3.3-.3.7-1 1.3-2 1.8s-2.2.7-3.5.7c-1.5 0-2.7-.3-3.7-.8s-1.7-1.2-2-2.1c-.3-.9-.5-2.1-.5-3.6V47h5.1v2.5c-.1.9 0 1.4.2 1.6zm40 21.5h-46c-.4 0-.8 0-.8-.6V59.4 59H64V71.9c.2.6 0 .7-.6.7z"/></svg><svg id="why__optimization" viewBox="0 0 80 80" width="80" height="80" y="1276"><style>.qst0{fill:#fff;stroke:red;stroke-width:2.961;stroke-miterlimit:10}</style><path class="qst0" d="M76 78H3.9c-1 0-1.9-.9-1.9-1.9V4c0-1 .9-1.9 1.9-1.9H76c1 0 1.9.9 1.9 1.9v72.1c0 1-.9 1.9-1.9 1.9z"/><path d="M72.9 33.9c0-2.5-1.8-4.1-4.3-4.2h-1.5v-.8-7.2c0-.7-.2-1.3-.7-1.8-4.5-5-8.9-10.1-13.4-15.1-.3-.4-.7-.7-1.1-1H16.1c-1.8.6-2.3 1.9-2.3 3.7v22.2h-1.5C9.8 29.8 8 31.4 8 34v20.8c0 2.5 1.7 4.2 4.3 4.2h1.5v13.5c0 1.8.5 3.1 2.3 3.7h48.7c1.8-.6 2.3-1.9 2.3-3.7-.1-4.2 0-8.4 0-12.6V59h1.5c2.6 0 4.3-1.7 4.3-4.2.1-7 .1-13.9 0-20.9zM16.7 6.8H50v14c0 1.4.5 1.9 1.9 1.9H64v7H16.6c.1-7.7.1-15.3.1-22.9zm38.9 30.5c-.1-.3-.3-.4-.7-.4-.3 0-.6.1-.7.4-.1.3-.2.9-.2 2v10c0 .9.1 1.5.2 1.8.1.3.4.4.7.4.4 0 .7-.2.8-.5.1-.3.2-1 .2-2v-2.5h-1.1v-3.2h6.4v11.1h-3.4l-.5-1.4c-.4.6-.8 1.1-1.4 1.4-.6.3-1.2.5-2 .5-.9 0-1.8-.2-2.6-.7-.8-.4-1.4-1-1.8-1.6s-.7-1.3-.8-2.1c-.1-.7-.1-1.8-.1-3.2v-6.2c0-2 .1-3.4.3-4.3.2-.9.8-1.7 1.9-2.5 1-.8 2.4-1.1 4-1.1s2.9.3 4 1 1.7 1.4 2.1 2.3.5 2.2.5 3.9v.9h-5.5v-1.9c-.1-1.1-.1-1.8-.3-2.1zm-9.1-3.6l-2.8 20.8h-8.3l-3.2-20.8H38c.7 5.7 1.1 10.6 1.4 14.5.3-4 .6-7.6.9-10.7l.4-3.9h5.8zM23.4 51.1c.1.2.4.3.8.3s.6-.1.8-.4c.2-.3.3-.7.3-1.3 0-1.2-.2-2-.5-2.4-.3-.4-1.2-1-2.6-1.9-1.4-.9-2.3-1.5-2.7-1.9-.4-.4-.8-1-1.1-1.7-.3-.7-.4-1.6-.4-2.7 0-1.6.2-2.8.6-3.5s1.1-1.3 2-1.7c.9-.4 2-.6 3.3-.6 1.4 0 2.6.2 3.6.7 1 .5 1.7 1 2 1.7s.5 1.9.5 3.5v.8h-5.1v-1.5c0-.7-.1-1.2-.2-1.4-.1-.2-.3-.3-.6-.3s-.6.1-.7.4-.4.6-.4 1.1c0 .7.1 1.2.3 1.6.2.3.7.8 1.5 1.3 2.4 1.4 4 2.6 4.6 3.5s.9 2.4.9 4.4c0 1.5-.2 2.6-.5 3.3-.3.7-1 1.3-2 1.8s-2.2.7-3.5.7c-1.5 0-2.7-.3-3.7-.8s-1.7-1.2-2-2.1c-.3-.9-.5-2.1-.5-3.6V47h5.1v2.5c-.1.9 0 1.4.2 1.6zm40 21.5h-46c-.4 0-.8 0-.8-.6V59.4 59H64V71.9c.2.6 0 .7-.6.7z"/></svg><svg id="why__team" viewBox="0 0 80 80" width="80" height="80" y="1356"><style>.rst0{fill:#fff;stroke:red;stroke-width:2.961;stroke-miterlimit:10}</style><path class="rst0" d="M76 78H3.9c-1 0-1.9-.9-1.9-1.9V4c0-1 .9-1.9 1.9-1.9H76c1 0 1.9.9 1.9 1.9v72.1c0 1-.9 1.9-1.9 1.9z"/><path d="M72.9 33.9c0-2.5-1.8-4.1-4.3-4.2h-1.5v-.8-7.2c0-.7-.2-1.3-.7-1.8-4.5-5-8.9-10.1-13.4-15.1-.3-.4-.7-.7-1.1-1H16.1c-1.8.6-2.3 1.9-2.3 3.7v22.2h-1.5C9.8 29.8 8 31.4 8 34v20.8c0 2.5 1.7 4.2 4.3 4.2h1.5v13.5c0 1.8.5 3.1 2.3 3.7h48.7c1.8-.6 2.3-1.9 2.3-3.7-.1-4.2 0-8.4 0-12.6V59h1.5c2.6 0 4.3-1.7 4.3-4.2.1-7 .1-13.9 0-20.9zM16.7 6.8H50v14c0 1.4.5 1.9 1.9 1.9H64v7H16.6c.1-7.7.1-15.3.1-22.9zm38.9 30.5c-.1-.3-.3-.4-.7-.4-.3 0-.6.1-.7.4-.1.3-.2.9-.2 2v10c0 .9.1 1.5.2 1.8.1.3.4.4.7.4.4 0 .7-.2.8-.5.1-.3.2-1 .2-2v-2.5h-1.1v-3.2h6.4v11.1h-3.4l-.5-1.4c-.4.6-.8 1.1-1.4 1.4-.6.3-1.2.5-2 .5-.9 0-1.8-.2-2.6-.7-.8-.4-1.4-1-1.8-1.6s-.7-1.3-.8-2.1c-.1-.7-.1-1.8-.1-3.2v-6.2c0-2 .1-3.4.3-4.3.2-.9.8-1.7 1.9-2.5 1-.8 2.4-1.1 4-1.1s2.9.3 4 1 1.7 1.4 2.1 2.3.5 2.2.5 3.9v.9h-5.5v-1.9c-.1-1.1-.1-1.8-.3-2.1zm-9.1-3.6l-2.8 20.8h-8.3l-3.2-20.8H38c.7 5.7 1.1 10.6 1.4 14.5.3-4 .6-7.6.9-10.7l.4-3.9h5.8zM23.4 51.1c.1.2.4.3.8.3s.6-.1.8-.4c.2-.3.3-.7.3-1.3 0-1.2-.2-2-.5-2.4-.3-.4-1.2-1-2.6-1.9-1.4-.9-2.3-1.5-2.7-1.9-.4-.4-.8-1-1.1-1.7-.3-.7-.4-1.6-.4-2.7 0-1.6.2-2.8.6-3.5s1.1-1.3 2-1.7c.9-.4 2-.6 3.3-.6 1.4 0 2.6.2 3.6.7 1 .5 1.7 1 2 1.7s.5 1.9.5 3.5v.8h-5.1v-1.5c0-.7-.1-1.2-.2-1.4-.1-.2-.3-.3-.6-.3s-.6.1-.7.4-.4.6-.4 1.1c0 .7.1 1.2.3 1.6.2.3.7.8 1.5 1.3 2.4 1.4 4 2.6 4.6 3.5s.9 2.4.9 4.4c0 1.5-.2 2.6-.5 3.3-.3.7-1 1.3-2 1.8s-2.2.7-3.5.7c-1.5 0-2.7-.3-3.7-.8s-1.7-1.2-2-2.1c-.3-.9-.5-2.1-.5-3.6V47h5.1v2.5c-.1.9 0 1.4.2 1.6zm40 21.5h-46c-.4 0-.8 0-.8-.6V59.4 59H64V71.9c.2.6 0 .7-.6.7z"/></svg><svg id="why__technology" viewBox="0 0 80 80" width="80" height="80" y="1436"><style>.sst0{fill:#fff;stroke:red;stroke-width:2.961;stroke-miterlimit:10}</style><path class="sst0" d="M76 78H3.9c-1 0-1.9-.9-1.9-1.9V4c0-1 .9-1.9 1.9-1.9H76c1 0 1.9.9 1.9 1.9v72.1c0 1-.9 1.9-1.9 1.9z"/><path d="M72.9 33.9c0-2.5-1.8-4.1-4.3-4.2h-1.5v-.8-7.2c0-.7-.2-1.3-.7-1.8-4.5-5-8.9-10.1-13.4-15.1-.3-.4-.7-.7-1.1-1H16.1c-1.8.6-2.3 1.9-2.3 3.7v22.2h-1.5C9.8 29.8 8 31.4 8 34v20.8c0 2.5 1.7 4.2 4.3 4.2h1.5v13.5c0 1.8.5 3.1 2.3 3.7h48.7c1.8-.6 2.3-1.9 2.3-3.7-.1-4.2 0-8.4 0-12.6V59h1.5c2.6 0 4.3-1.7 4.3-4.2.1-7 .1-13.9 0-20.9zM16.7 6.8H50v14c0 1.4.5 1.9 1.9 1.9H64v7H16.6c.1-7.7.1-15.3.1-22.9zm38.9 30.5c-.1-.3-.3-.4-.7-.4-.3 0-.6.1-.7.4-.1.3-.2.9-.2 2v10c0 .9.1 1.5.2 1.8.1.3.4.4.7.4.4 0 .7-.2.8-.5.1-.3.2-1 .2-2v-2.5h-1.1v-3.2h6.4v11.1h-3.4l-.5-1.4c-.4.6-.8 1.1-1.4 1.4-.6.3-1.2.5-2 .5-.9 0-1.8-.2-2.6-.7-.8-.4-1.4-1-1.8-1.6s-.7-1.3-.8-2.1c-.1-.7-.1-1.8-.1-3.2v-6.2c0-2 .1-3.4.3-4.3.2-.9.8-1.7 1.9-2.5 1-.8 2.4-1.1 4-1.1s2.9.3 4 1 1.7 1.4 2.1 2.3.5 2.2.5 3.9v.9h-5.5v-1.9c-.1-1.1-.1-1.8-.3-2.1zm-9.1-3.6l-2.8 20.8h-8.3l-3.2-20.8H38c.7 5.7 1.1 10.6 1.4 14.5.3-4 .6-7.6.9-10.7l.4-3.9h5.8zM23.4 51.1c.1.2.4.3.8.3s.6-.1.8-.4c.2-.3.3-.7.3-1.3 0-1.2-.2-2-.5-2.4-.3-.4-1.2-1-2.6-1.9-1.4-.9-2.3-1.5-2.7-1.9-.4-.4-.8-1-1.1-1.7-.3-.7-.4-1.6-.4-2.7 0-1.6.2-2.8.6-3.5s1.1-1.3 2-1.7c.9-.4 2-.6 3.3-.6 1.4 0 2.6.2 3.6.7 1 .5 1.7 1 2 1.7s.5 1.9.5 3.5v.8h-5.1v-1.5c0-.7-.1-1.2-.2-1.4-.1-.2-.3-.3-.6-.3s-.6.1-.7.4-.4.6-.4 1.1c0 .7.1 1.2.3 1.6.2.3.7.8 1.5 1.3 2.4 1.4 4 2.6 4.6 3.5s.9 2.4.9 4.4c0 1.5-.2 2.6-.5 3.3-.3.7-1 1.3-2 1.8s-2.2.7-3.5.7c-1.5 0-2.7-.3-3.7-.8s-1.7-1.2-2-2.1c-.3-.9-.5-2.1-.5-3.6V47h5.1v2.5c-.1.9 0 1.4.2 1.6zm40 21.5h-46c-.4 0-.8 0-.8-.6V59.4 59H64V71.9c.2.6 0 .7-.6.7z"/></svg></svg>