<?xml version="1.0" encoding="utf-8"?><svg width="112" height="1587" viewBox="0 0 112 1587" xmlns="http://www.w3.org/2000/svg" xmlns:xlink="http://www.w3.org/1999/xlink"><svg viewBox="30 -26 44 64" width="44" height="64" id="calculator"><path class="aast0" d="M68 38H36c-3.3 0-6-2.7-6-6v-52c0-3.3 2.7-6 6-6h32c3.3 0 6 2.7 6 6v52c0 3.3-2.7 6-6 6zM36-24c-2.2 0-4 1.8-4 4v52c0 2.2 1.8 4 4 4h32c2.2 0 4-1.8 4-4v-52c0-2.2-1.8-4-4-4H36z"/><path class="aast0" d="M67-9H37c-1.1 0-2-.9-2-2v-6c0-1.1.9-2 2-2h30c1.1 0 2 .9 2 2v6c0 1.1-.9 2-2 2zm-30-8v6h30v-6H37zM55 9h-6c-1.1 0-2-.9-2-2V1c0-1.1.9-2 2-2h6c1.1 0 2 .9 2 2v6c0 1.1-.9 2-2 2zm0-2v1-1zm-6-6v6h6V1h-6zM55 21h-6c-1.1 0-2-.9-2-2v-6c0-1.1.9-2 2-2h6c1.1 0 2 .9 2 2v6c0 1.1-.9 2-2 2zm0-2v1-1zm-6-6v6h6v-6h-6zM55 33h-6c-1.1 0-2-.9-2-2v-6c0-1.1.9-2 2-2h6c1.1 0 2 .9 2 2v6c0 1.1-.9 2-2 2zm0-2v1-1zm-6-6v6h6v-6h-6zM43 33h-6c-1.1 0-2-.9-2-2v-6c0-1.1.9-2 2-2h6c1.1 0 2 .9 2 2v6c0 1.1-.9 2-2 2zm0-2v1-1zm-6-6v6h6v-6h-6zM43 21h-6c-1.1 0-2-.9-2-2v-6c0-1.1.9-2 2-2h6c1.1 0 2 .9 2 2v6c0 1.1-.9 2-2 2zm0-2v1-1zm-6-6v6h6v-6h-6zM43 9h-6c-1.1 0-2-.9-2-2V1c0-1.1.9-2 2-2h6c1.1 0 2 .9 2 2v6c0 1.1-.9 2-2 2zm0-2v1-1zm-6-6v6h6V1h-6zM67 9h-6c-1.1 0-2-.9-2-2V1c0-1.1.9-2 2-2h6c1.1 0 2 .9 2 2v6c0 1.1-.9 2-2 2zm0-2v1-1zm-6-6v6h6V1h-6zM67 33h-6c-1.1 0-2-.9-2-2V13c0-1.1.9-2 2-2h6c1.1 0 2 .9 2 2v18c0 1.1-.9 2-2 2zm0-2v1-1zm-6-18v18h6V13h-6z"/></svg><svg viewBox="-16 0 64 64" width="64" height="64" id="cam" y="64"><path d="M46 38h-4c-1.1 0-2 .9-2 2v6.6l-6-3.5V43c0-3.3-2.7-6-6-6h-.6l-3.5-6 14.6-8.4c.7-.4 1.2-1 1.4-1.8.2-.8.1-1.6-.3-2.3l-4.5-7.8.9-.5c.7-.4 1.2-1 1.4-1.8.2-.8.1-1.6-.3-2.3L33.6 0l-49.2 28.4 12.9 3.4 4.8 8.3c.4.7 1 1.2 1.8 1.4.3.1.5.1.8.1.5 0 1-.1 1.5-.4L18.7 34l3.8 6.5.1-.1c-.4.8-.6 1.7-.6 2.6 0 3.3 2.7 6 6 6 1.1 0 2-.3 2.9-.8l9.1 5.3V62c0 1.1.9 2 2 2h4c1.1 0 2-.9 2-2V40c0-1.1-.9-2-2-2zm-56.4-10.3l43.3-25L35.3 7c.1.2.2.5.1.8s-.2.5-.4.6l-2.6 1.5-34.6 20-8.2-2.2zM5.2 39.5c-.2.1-.5.2-.8.1-.3-.1-.5-.2-.6-.5l-4.5-7.8 34.1-19.7 4.5 7.8c.1.2.2.5.1.8s-.2.5-.5.6L5.2 39.5zm15.3-6.4l1.7-1 3.2 5.5c-.6.3-1.2.7-1.6 1.2l-3.3-5.7zM24 43c0-2.2 1.8-4 4-4s4 1.8 4 4-1.8 4-4 4-4-1.8-4-4zm8.6 3.9c.4-.5.8-1.1 1-1.7l6.4 3.7v2.3l-7.4-4.3zM42 62V40h4v22h-4z"/><path d="M-5.1 39.6l-5-8.6-1.8 1 6 10.4 5.2-3-1-1.8z"/></svg><svg viewBox="-1 -15 25 21" width="25" height="21" id="checkbox" y="128"><path class="acst0" d="M18 6H-1v-18h18l-2 2H1V4h15v-7l2-2z"/><path class="acst0" d="M9.2 1.3L2.8-5.1l1.4-1.4 5 4.9L22.6-15l1.4 1.4z"/></svg><svg viewBox="-12 0 40 64" width="40" height="64" id="electrosnab" y="149"><path d="M21.3 28.9C19.1 26 17 23.3 17 21c0-.6-.4-1-1-1s-1 .4-1 1c0 3 2.3 6 4.8 9.1C22.7 33.8 26 38 26 43c0 10.1-8.4 19-18 19s-18-8.9-18-19c0-5.5 3.4-9.7 6.4-13.3 2.3-2.8 4.2-5.2 4.6-7.9L16.2 18c.5-.1.9-.7.7-1.2-.1-.5-.7-.9-1.2-.7L-1 20.2v.8c0 2.2-1.9 4.6-4.2 7.4-3 3.7-6.8 8.4-6.8 14.6 0 11.4 9.2 21 20 21s20-9.6 20-21c0-5.7-3.5-10.2-6.7-14.1zM0 17h.2l16-4c.5-.1.9-.7.7-1.2-.1-.5-.7-.9-1.2-.7l-16 4c-.5.1-.9.7-.7 1.2.1.4.6.7 1 .7zM0 12h.2l16-4c.5-.1.9-.7.7-1.2-.1-.5-.7-.9-1.2-.7l-16 4c-.5.1-.9.7-.7 1.2.1.4.6.7 1 .7zM2.7 4.9c.5.2 1.1-.1 1.3-.6C4 4.2 4.8 2 8 2s4 2.2 4.1 2.3c.1.4.5.7.9.7.1 0 .2 0 .3-.1.5-.2.8-.7.6-1.3C13.9 3.5 12.6 0 8 0 3.3 0 2.1 3.5 2 3.7c-.1.5.2 1.1.7 1.2z"/><path d="M6 23c-.6 0-1 .4-1 1 0 6-1 10.7-2.8 13.4l-.5.7.6.6c.2.2.3.3.5.3.5 0 1.6-.7 5.2-2.9 5.1 3.2 5.1 3.1 5.7 2.5l.6-.6-.5-.7C12 34.8 11 29.9 11 24c0-.6-.4-1-1-1s-1 .4-1 1c0 4.5.6 8.5 1.7 11.5-.7-.5-1.5-.9-2.2-1.4l-.5-.3-.5.3c-.7.5-1.5.9-2.1 1.3C6.4 32.5 7 28.6 7 24c0-.6-.4-1-1-1z"/></svg><svg viewBox="0 0 94 64" width="94" height="64" id="experience" y="213"><path d="M13.6 59.6L9 44v-9.7l10 5.8V47c0 9.5 12.3 16.9 28.1 16.9C62.7 63.9 75 56.5 75 47v-6.8l16.7-9.7c1.2-.7 1.9-1.8 1.9-2.9s-.7-2.2-1.9-2.9L51 1.3c-2.2-1.3-5.7-1.3-7.9 0L2.4 24.8c-1.2.7-1.9 1.8-1.9 2.9s.7 2.2 1.9 2.9L7 33.2V44L2.4 59.6c-.2.8.2 1.6 1 1.8l.5.2c2.7.9 5.6.9 8.3 0l.5-.2c.7-.2 1.1-1 .9-1.8zm-2.1.5l-.3.1c-2.1.5-4.3.5-6.4 0l-.3-.1c-.3-.1-.4-.4-.4-.6L8 47.4l3.8 12.1c.1.3 0 .6-.3.6zM73 47c0 8.2-11.6 14.9-25.9 14.9C32.7 61.9 21 55.2 21 47v-5.7l22.6 13c1 .6 2.2.9 3.5.9 1.3 0 2.5-.3 3.5-.9L73 41.4V47zm17.7-18.2L49.6 52.6c-1.3.8-3.7.8-5 0l-34.5-20 34-6.1c.7.6 1.7 1 2.9 1 2.1 0 3.8-1.2 3.8-2.8S49.1 22 47 22c-2.1 0-3.8 1.2-3.8 2.7L7.4 31.1l-4-2.3c-.6-.3-.9-.8-.9-1.1s.3-.8.9-1.1L44.1 3c.8-.5 1.9-.7 3-.7s2.2.2 3 .7l40.7 23.5c.6.3.9.8.9 1.1s-.4.9-1 1.2z"/></svg><svg viewBox="-5 7 17 17" width="17" height="17" id="home" y="277"><path class="afst0" d="M12 15.6L3.5 7-5 15.6l1.4 1.4.6-.6V24h13v-7.6l.6.6 1.4-1.4zM5 23H2v-5h3v5zm4 0H6v-6H1v6h-3v-7.6l5.5-5.6L9 15.4V23zM8 9h1v3h1V8H7v2h1z"/></svg><svg viewBox="0 0 64 64" width="64" height="64" id="inzhenernie-sistemi" y="294"><path d="M32 .5L0 9.7V16h3v48h58V16h3V9.7L32 .5zM62 14h-3v48H5V14H2v-2.7l30-8.7 30 8.7V14z"/><path d="M20 38h-2c-1-1-1.8-1.7-3-1.9V35h3c1.1 0 2-.9 2-2v-1c0-1.1-.9-2-2-2h-8c-1.1 0-2 .9-2 2v1c0 1.1.9 2 2 2h3v1.1c-1.2.3-2.3 1-3 1.9H7v2h4.2c.4-1.2 1.5-2 2.8-2s2.4.8 2.8 2H20c2.8 0 5 2.2 5 5v2h-2v-2c0-1.7-1.3-3-3-3h-3.2c-.4 1.2-1.5 2-2.8 2s-2.4-.8-2.8-2H7v2h3c.9 1.2 2.4 2 4 2s3-.8 4-2h2c.6 0 1 .4 1 1v4h6v-4c0-3.9-3.1-7-7-7zm-10-6h8v1h-8v-1zM42 60c.8 0 1.5-.3 2-.8.5.5 1.2.8 2 .8s1.5-.3 2-.8c.5.5 1.2.8 2 .8s1.5-.3 2-.8c.5.5 1.2.8 2 .8 1.7 0 3-1.3 3-3V43c0-1.7-1.3-3-3-3-.8 0-1.5.3-2 .8-.5-.5-1.2-.8-2-.8s-1.5.3-2 .8c-.5-.5-1.2-.8-2-.8s-1.5.3-2 .8c-.5-.5-1.2-.8-2-.8-1.7 0-3 1.3-3 3v14c0 1.7 1.3 3 3 3zm12-18c.6 0 1 .4 1 1v14c0 .6-.4 1-1 1s-1-.4-1-1V43c0-.6.4-1 1-1zm-4 0c.6 0 1 .4 1 1v14c0 .6-.4 1-1 1s-1-.4-1-1V43c0-.6.4-1 1-1zm-4 0c.6 0 1 .4 1 1v14c0 .6-.4 1-1 1s-1-.4-1-1V43c0-.6.4-1 1-1zm-5 1c0-.6.4-1 1-1s1 .4 1 1v14c0 .6-.4 1-1 1s-1-.4-1-1V43zM50 35h4c1.7 0 3-1.3 3-3v-8c0-1.7-1.3-3-3-3h-4c-1.7 0-3 1.3-3 3v8c0 1.7 1.3 3 3 3zm-1-11c0-.6.4-1 1-1h4c.6 0 1 .4 1 1v8c0 .6-.4 1-1 1h-4c-.6 0-1-.4-1-1v-8z"/><path d="M53 32c.6 0 1-.4 1-1v-6c0-.6-.4-1-1-1s-1 .4-1 1v6c0 .6.4 1 1 1zM35 12h-6v1.6c0 1.2-.4 2.3-1.2 3.2-.4.5-1.8 2.2-1.8 4.2 0 1.8.8 3.5 2.2 4.7 1.1.9 2.4 1.3 3.8 1.3.4 0 .8 0 1.3-.1 2.4-.5 4.2-2.4 4.6-4.8.3-1.9-.8-4.1-1.8-5.3-.7-.8-1.1-2-1.1-3.1V12zm.9 9.7c-.3 1.6-1.5 2.9-3.1 3.2-1.2.3-2.4 0-3.4-.8A4.1 4.1 0 0 1 28 21c0-.8.5-2 1.3-2.9 1-1.1 1.6-2.6 1.7-4.1h2c.1 1.5.6 2.9 1.6 4 .8 1 1.5 2.5 1.3 3.7zM29 9v2h6V9c0-1.7-1.3-3-3-3s-3 1.3-3 3zm4 0h-2c0-.6.4-1 1-1s1 .4 1 1z"/></svg><svg id="logo" viewBox="0 0 64 64" width="64" height="64" y="358"><style>.ahst0{fill:#47b900}.ahst1{fill:#fff}</style><path class="ahst0" d="M6.5 54V31.1h5.2l3.2 15.6L18 31.1h5.3V54H20V36l-3.5 18h-3.4L9.8 36v18H6.5zM26.8 31.1h7c1.9 0 3.2.2 4 .6s1.4 1 2 2c.5.9.8 2 .8 3.2 0 1.1-.2 2.1-.7 3-.5.9-1 1.5-1.8 2 1 .4 1.8 1.1 2.4 2 .6 1 .9 2.1.9 3.5 0 1.7-.4 3.1-1.1 4.2-.7 1.1-1.6 1.9-2.6 2.1-.7.2-2.3.3-4.9.3h-5.9V31.1zm3.5 3.8v5.3h2.3c1.4 0 2.2 0 2.6-.1.6-.1 1.1-.4 1.4-.8.3-.4.5-1 .5-1.8 0-.7-.1-1.2-.4-1.6-.3-.4-.6-.7-1-.8-.4-.1-1.5-.2-3.4-.2h-2zm0 9.1v6.1h3.3c1.4 0 2.3-.1 2.8-.2.4-.2.7-.5 1-.9.3-.5.4-1.1.4-1.8s-.1-1.4-.4-1.8c-.3-.5-.7-.8-1.2-1-.5-.2-1.5-.3-3-.3h-2.9zM44.3 54V31.1h12.9V35h-9.4v5.1h8.7V44h-8.7v6.2h9.7V54H44.3z"/><g><path class="ahst1" d="M28.6 28.9L19 19.3l-9.6 9.6-2.8-2.8L19 13.7l12.4 12.4z"/><path class="ahst0" d="M41.1 15.7L32 6.6l-9.1 9.1-2.8-2.9L32 .9l11.9 11.9z"/><path class="ahst1" d="M54.6 28.9L45 19.3l-9.6 9.6-2.8-2.8L45 13.7l12.4 12.4z"/></g><g><path class="ahst1" d="M10.6 61.1v-.2-.2c-.1.1-.2.1-.3.2-.1.1-.2.1-.4.2-.1 0-.3.1-.5.1h-.5c-.3 0-.6 0-.9-.1-.3-.1-.6-.2-.8-.4-.2-.2-.4-.4-.6-.7-.1-.3-.2-.7-.2-1.1s.1-.8.2-1.1c.2-.5.4-.8.6-1s.5-.4.8-.5c.3-.1.6-.2 1-.2s.7.1 1 .2c.3.1.5.3.7.5l.1-.5H12v4.8c0 .3 0 .5-.1.7-.1.2-.1.4-.2.5-.1.2-.3.3-.5.5-.2.1-.4.2-.7.3-.3.1-.5.2-.8.2-.3 0-.6.1-1 .1H7.6c-.2 0-.3 0-.4-.1-.1 0-.3-.1-.3-.1v-.9c.3.1.5.1.8.2.3 0 .6.1.9.1.6 0 1.1-.1 1.5-.3.4-.2.5-.5.5-.9v-.3zm-1.3-.9h.4c.1 0 .2-.1.4-.1s.2-.1.3-.2.2-.1.2-.2v-2.1c-.2-.1-.3-.3-.6-.4-.2-.1-.5-.1-.7-.2H9c-.1 0-.2 0-.3.1-.1 0-.2.1-.3.2-.1.1-.2.2-.2.3s-.2.3-.2.5-.1.4-.1.6c0 .2 0 .5.1.6.1.2.1.3.3.5.1.1.3.2.4.3.2.1.4.1.6.1zM22.2 57.2h-.1c-.4 0-.8.1-1.2.2-.3.1-.6.3-.8.5V61h-1.4v-4.7h1.2l.1.7c.2-.2.4-.4.7-.6.3-.1.7-.2 1.1-.2h.4v1zM33.7 58.6c0 .4-.1.7-.2 1-.1.3-.3.6-.6.8s-.6.4-.9.5c-.4.1-.8.2-1.2.2-.5 0-.9-.1-1.2-.2-.4-.1-.7-.3-.9-.5-.3-.2-.4-.5-.6-.8-.1-.3-.2-.6-.2-1s.1-.7.2-1 .3-.6.6-.8c.3-.2.6-.4.9-.5.4-.1.8-.2 1.2-.2.5 0 .9.1 1.2.2.4.1.7.3.9.5s.4.5.6.8c.2.3.2.7.2 1zm-1.5 0c0-.3 0-.5-.1-.7-.1-.2-.2-.4-.3-.5-.1-.1-.3-.2-.5-.3s-.4-.1-.6-.1c-.2 0-.4 0-.6.1s-.3.2-.5.3-.2.3-.3.5c-.1.2-.1.4-.1.7s0 .5.1.7c.1.2.2.4.3.5.1.1.3.2.5.3.2.1.4.1.6.1s.4 0 .6-.1c.2-.1.3-.2.5-.3.1-.1.2-.3.3-.5.1-.2.1-.4.1-.7zM42.7 61.1c-.6 0-1.1-.1-1.5-.2-.4-.2-.7-.4-.9-.7-.1-.1-.2-.3-.2-.5-.1-.2-.1-.4-.1-.6v-2.9h1.4V59.4c0 .1.1.2.1.3.1.1.2.3.4.3.2.1.4.1.6.1.3 0 .5 0 .7-.1.2-.1.3-.2.4-.4.1-.2.1-.4.1-.6v-2.8h1.4v2.9c0 .4-.1.7-.2 1-.1.1-.2.3-.4.4-.1.1-.3.2-.5.3-.2.1-.4.2-.7.2 0 .1-.3.1-.6.1zM54.9 61.1c-.3 0-.6 0-.9-.1-.3-.1-.5-.2-.6-.3v2.7H52v-7h1.3l.1.5c.2-.2.4-.3.7-.5.3-.1.6-.2 1-.2.3 0 .6 0 .9.1.3.1.6.2.8.4s.4.4.6.8.2.7.2 1.1c0 .4-.1.8-.2 1.1-.2.3-.4.6-.6.8-.3.2-.5.4-.8.5s-.8.1-1.1.1zm-.2-4c-.3 0-.5.1-.7.1-.2.1-.4.2-.6.4v2.1l.2.2c.1.1.2.1.3.2.1 0 .2.1.3.1h.4c.2 0 .4 0 .6-.1.2-.1.3-.2.4-.3.1-.1.2-.3.3-.5.1-.2.1-.4.1-.6 0-.3 0-.5-.1-.7s-.2-.4-.3-.5c-.1-.1-.3-.2-.4-.3-.1-.1-.3-.1-.5-.1z"/></g></svg><svg viewBox="0 0 25 16" width="25" height="16" id="mail" y="422"><path class="aist0" d="M25 0H0v16h25V0zM13.6 10.6c-.6.6-1.6.6-2.1 0L1.9 1h21.2l-9.5 9.6zM1 1.5L7.5 8 1 14.6V1.5zM2 15l6.2-6.2 2.5 2.5c.5.5 1.1.7 1.8.7s1.3-.3 1.8-.7l2.5-2.5L23 15H2zm22-.4l-6.5-6.5L24 1.5v13.1z"/></svg><svg viewBox="20 -26 64 64" width="64" height="64" id="manager" y="438"><path class="ajst0" d="M84 36.9c0-.5-1-11.8-16.7-15.9-3.5-.9-6.4-3.6-7.3-4.4v-4.1c1-.9 3.5-3.3 3.9-6.5 1.4-.3 3.3-1.7 4.1-6.8.5-3.3-.1-5.1-1.8-5.7.8-4.2-.3-9.1-3-12.5-1.8-2.3-4-3.6-6.5-3.9l-1-3H55c-6.9 0-11.8 1.9-14.8 5.7-3.7 4.8-3 11-2.4 13.7-1.8.6-2.3 2.4-1.8 5.7.8 5.1 2.7 6.5 4.1 6.8.4 3.2 2.9 5.7 3.9 6.5v4.1c-.9.9-3.8 3.5-7.3 4.4C21 25.1 20 36.5 20 36.9l-.1 1.1H84v-1.1zM45.6 11.2S42 8.4 42 5v-.4l-.7-.6h-.4c-1 .1-2.3-1.2-2.9-5.2-.5-3.3.4-3.5.8-3.6.3-.1.8-.1 1-.6.2-.2.3-.5.2-.9-.5-1.8-1.7-8.2 1.8-12.8 2.5-3.2 6.6-4.8 12.5-5l1 3h.7c2.1 0 4 1.1 5.6 3.1C64-14.7 65-10.1 64-6.3c-.1.3 0 .6.1.9.3.4.7.5 1 .6.5.1 1.3.3.8 3.6C65.3 2.7 64 4 63 4h-.5l-.5.6V5c0 3.4-3.6 6.2-3.6 6.2l-.4.3v3.7c0 1.8-3.1 2.8-6 2.8s-6-1-6-2.8v-3.7l-.4-.3zM37.3 23c1.4-.4 2.7-1 3.8-1.6.3 4.1 1.7 10.9 4 14.6H22.2c.6-2.7 3.4-10 15.1-13zm10.2 13C45 33.1 43 24.4 43 20.1c1.1-.8 1.9-1.6 2.4-2 .4.3.8.6 1.4.9.9.4 2 .7 3.2.9L49.1 36h-1.6zm7.4 0L54 19.9c1.8-.3 3.5-.8 4.6-1.8.4.4 1.3 1.2 2.4 2 0 4.3-2 13.1-4.5 15.9h-1.6zm4.1 0c2.3-3.8 3.7-10.5 4-14.6 1.1.7 2.4 1.3 3.8 1.6 11.7 3 14.5 10.3 15.1 13H59z"/></svg><svg viewBox="0 0 80 64" width="80" height="64" id="montaz" y="502"><path class="akst0" d="M70.5 36c-2.6-20.8-14.1-24.5-16-24.9-.6-2.3-1.7-4.2-3.2-5.6-2.7-2.4-5.8-2.5-7-2.5-1-1.9-2.4-3-4.3-3s-3.3 1.1-4.3 3c-1.1 0-4.3.2-6.9 2.5-1.5 1.4-2.6 3.2-3.2 5.6-1.9.5-13.4 4.1-16 24.9-6.3.2-9.6 4.6-9.6 9 0 5.7 8.5 19 25 19h30c16.5 0 25-13.3 25-19 0-4.4-3.3-8.8-9.5-9zM49.9 7c2 1.9 3.1 4.9 3.1 9v11.1c0 .6.4 1 1 1s1-.4 1-1V16c0-1-.1-1.8-.2-2.7 3.4 1.3 14 7.2 14.2 31.2-1.6.7-7.9 2.1-14 3.3-.1-2-1.2-5.7-2.7-10.3-1.8-5.5-3.8-11.8-4.3-16.6l-.1-1.1c-.6-5.4-1.2-10.9-2.6-14.8 1.2.1 3 .6 4.6 2zM40 2c3.9 0 5 10.4 5.9 18l.1 1.1c.6 5 2.6 11.4 4.4 17 1.3 4.2 2.6 8.2 2.6 9.9 0 2.4-5.7 4.3-13 4.3S27 50.4 27 48c0-1.7 1.3-5.6 2.6-9.9 1.8-5.6 3.8-12 4.4-17l.1-1.1c.9-7.6 2-18 5.9-18zM25.2 13.3c-.1.9-.2 1.8-.2 2.7v11.1c0 .6.4 1 1 1s1-.4 1-1V16c0-4.1 1-7.1 3.1-9 1.6-1.4 3.5-1.9 4.7-2-1.4 3.8-2 9.3-2.6 14.8l-.2 1.1c-.5 4.8-2.5 11.1-4.3 16.6-1.5 4.6-2.6 8.3-2.7 10.3-6.1-1.2-12.4-2.6-14-3.3.1-23.9 10.8-29.9 14.2-31.2zM55 62H25C9.2 62 2 49 2 45c0-3.2 2.3-6.7 7.3-7-.2 2.2-.3 4.5-.3 7 0 .9 0 1.8 16.6 4.9.7 1 2 2.1 4.5 2.9 2.6.9 6.2 1.4 9.9 1.4 6.2 0 12.5-1.4 14.4-4.3C71 46.8 71 45.9 71 45c0-2.5-.1-4.8-.3-7 5 .3 7.3 3.7 7.3 7 0 4-7.2 17-23 17z"/></svg><svg viewBox="0 0 64 64" width="64" height="64" id="optimization" y="566"><path d="M59.7 47.9C62.4 43.2 64 37.8 64 32c0-5.8-1.6-11.2-4.3-15.9V16l-.1-.1C56.8 11.1 52.8 7.1 48 4.3l-.1-.1h-.1C43.2 1.6 37.8 0 32 0c-5.8 0-11.2 1.6-15.9 4.3H16l-.1.1C11.1 7.2 7.1 11.2 4.3 16l-.1.1v.1C1.6 20.8 0 26.2 0 32c0 5.8 1.6 11.2 4.3 15.9v.1s0 .1.1.1c2.8 4.8 6.8 8.8 11.6 11.6l.1.1h.1c4.6 2.7 10 4.2 15.8 4.2 5.8 0 11.2-1.5 15.9-4.2h.1l.1-.1c4.8-2.8 8.8-6.8 11.6-11.6v-.2c0 .1 0 0 0 0zm-11.8 9.6l-1-1.7c-.3-.5-.9-.6-1.4-.4-.5.3-.6.9-.4 1.4l1 1.7c-3.9 2.1-8.4 3.4-13.1 3.5v-2c0-.6-.4-1-1-1s-1 .4-1 1v2c-4.7-.2-9.2-1.4-13.1-3.5l1-1.7c.3-.5.1-1.1-.4-1.4-.5-.3-1.1-.1-1.4.4l-1 1.7C12.3 55 9 51.7 6.5 47.9l1.7-1c.5-.3.6-.9.4-1.4-.3-.5-.9-.6-1.4-.4l-1.7 1C3.4 42.2 2.2 37.7 2 33h2c.6 0 1-.4 1-1s-.4-1-1-1H2c.2-4.7 1.4-9.2 3.5-13.1l1.7 1c.2.1.4.1.6.1.3 0 .7-.2.9-.5.3-.5.1-1.1-.4-1.4l-1.7-1C9 12.3 12.3 9 16.1 6.5l1 1.7c.2.3.5.5.9.5.2 0 .3 0 .5-.1.5-.3.6-.9.4-1.4l-1-1.7C21.8 3.4 26.3 2.2 31 2v2c0 .6.4 1 1 1s1-.4 1-1V2c4.7.2 9.2 1.4 13.1 3.5l-1 1.7c-.3.5-.1 1.1.4 1.4.2.1.3.1.5.1.3 0 .7-.2.9-.5l1-1.7c3.9 2.4 7.2 5.7 9.6 9.6l-1.7 1c-.5.3-.6.9-.4 1.4.2.3.5.5.9.5.2 0 .3 0 .5-.1l1.7-1c2.1 3.9 3.4 8.4 3.5 13.1h-2c-.6 0-1 .4-1 1s.4 1 1 1h2c-.2 4.7-1.4 9.2-3.5 13.1l-1.7-1c-.5-.3-1.1-.1-1.4.4-.3.5-.1 1.1.4 1.4l1.7 1c-2.5 3.8-5.8 7.1-9.6 9.6z"/><path d="M32 8c-.6 0-1 .4-1 1v22H18c-.6 0-1 .4-1 1s.4 1 1 1h14c.6 0 1-.4 1-1V9c0-.6-.4-1-1-1z"/></svg><svg id="p-aviasales" viewBox="0 20 64 25" width="64" height="25" y="630"><style>.amst0{fill:#fff}</style><path class="amst0" d="M25 37.1v3.5c0 2.4-1.6 4-4.5 4H4.1c-2.5 0-4.1-1.5-4.1-4v-3.5h.8c1.8 0 3.4-1.3 3.4-3v-3.2c0-1.7-1.5-3-3.4-3H0v-3.5c0-2.4 1.6-4 4.1-4h16.4c2.5 0 4.5 1.5 4.5 4v3.5h-.8c-1.8 0-3.4 1.3-3.4 3v3c0 1.7 1.5 3.2 3.4 3.2h.8zm-5.8-6.2c0-3-2.6-5.5-5.8-5.5h-1.7c-3.2 0-5.8 2.4-5.8 5.5v5.7c0 3 2.6 5.5 5.8 5.5h1.7c3.2 0 5.8-2.5 5.8-5.5v-5.7z"/><path class="amst0" d="M13.5 41.3h-1.9c-2.6 0-4.9-2.2-4.9-4.7v-5.7c0-2.5 2.2-4.6 4.8-4.6h1.9c2.6 0 4.9 2.1 4.9 4.6v5.7c0 2.5-2.2 4.7-4.8 4.7zm3.1-10.5c0-1.6-1.5-2.9-3.3-2.9h-1.7c-1.8 0-3.3 1.2-3.3 2.9v3.5c0 1.6 1.5 2.9 3.3 2.9h1.7c1.8 0 3.3-1.2 3.3-2.9v-3.5z"/><path class="amst0" d="M12.1 36.3c-1.8 0-2.9-.9-2.9-2.6v-1.1s0-.4.4-.4.4.4.4.4v1.1c0 1.3.8 1.8 2 1.8h.1s.4 0 .4.4-.4.4-.4.4z"/><g><path class="amst0" d="M29.45 35.25l-.07-.68h-.03c-.28.42-.82.8-1.54.8-1.02 0-1.54-.76-1.54-1.54 0-1.3 1.08-2 3.02-1.99v-.11c0-.44-.11-1.24-1.14-1.24-.47 0-.95.16-1.31.4l-.21-.64c.42-.29 1.02-.48 1.65-.48 1.54 0 1.91 1.12 1.91 2.19v2c0 .47.02.92.08 1.29h-.82zm-.14-2.73c-1-.02-2.13.17-2.13 1.21 0 .63.39.93.86.93.65 0 1.07-.44 1.21-.9.03-.1.05-.21.05-.31v-.93zM31.93 29.89l.99 3.01c.17.49.3.93.4 1.37h.03c.11-.44.26-.89.43-1.37l.97-3.01h.96l-1.97 5.36h-.87l-1.91-5.36h.97zM37.59 28.38c.01.33-.22.6-.58.6-.32 0-.55-.27-.55-.6 0-.34.24-.61.57-.61.34 0 .56.27.56.61zm-1.02 6.87v-5.36h.91v5.36h-.91zM41.78 35.25l-.07-.68h-.03c-.28.42-.82.8-1.54.8-1.02 0-1.54-.76-1.54-1.54 0-1.3 1.08-2 3.02-1.99v-.11c0-.44-.11-1.24-1.14-1.24-.47 0-.95.16-1.31.4l-.21-.64c.42-.29 1.02-.48 1.65-.48 1.54 0 1.91 1.12 1.91 2.19v2c0 .47.02.92.08 1.29h-.82zm-.14-2.73c-1-.02-2.13.17-2.13 1.21 0 .63.39.93.86.93.65 0 1.07-.44 1.21-.9.03-.1.05-.21.05-.31v-.93zM43.87 34.25c.27.19.75.39 1.2.39.66 0 .97-.35.97-.8 0-.46-.26-.72-.93-.99-.9-.34-1.33-.88-1.33-1.52 0-.86.65-1.57 1.73-1.57.51 0 .96.15 1.24.33l-.23.71a1.9 1.9 0 0 0-1.03-.31c-.54 0-.84.33-.84.73 0 .44.3.64.95.91.87.35 1.32.82 1.32 1.62 0 .94-.69 1.61-1.88 1.61-.55 0-1.06-.14-1.41-.37l.24-.74zM50.88 35.25l-.07-.68h-.03c-.28.42-.82.8-1.54.8-1.02 0-1.54-.76-1.54-1.54 0-1.3 1.08-2 3.02-1.99v-.11c0-.44-.11-1.24-1.14-1.24-.47 0-.95.16-1.31.4l-.21-.64c.42-.29 1.02-.48 1.65-.48 1.54 0 1.91 1.12 1.91 2.19v2c0 .47.02.92.08 1.29h-.82zm-.13-2.73c-1-.02-2.13.17-2.13 1.21 0 .63.39.93.86.93.65 0 1.07-.44 1.21-.9.03-.1.05-.21.05-.31v-.93zM53.1 27.39h.91v7.87h-.91v-7.87zM56.05 32.75c.02 1.32.81 1.86 1.72 1.86.65 0 1.05-.12 1.39-.28l.16.7c-.32.16-.87.33-1.67.33-1.55 0-2.47-1.08-2.47-2.7s.89-2.89 2.36-2.89c1.64 0 2.08 1.54 2.08 2.53 0 .2-.02.35-.03.45h-3.54zm2.68-.7c.01-.62-.24-1.58-1.27-1.58-.92 0-1.33.91-1.4 1.58h2.67zM60.62 34.25c.27.19.75.39 1.2.39.66 0 .97-.35.97-.8 0-.46-.26-.72-.93-.99-.9-.34-1.33-.88-1.33-1.52 0-.86.65-1.57 1.73-1.57.51 0 .96.15 1.24.33l-.23.71a1.9 1.9 0 0 0-1.03-.31c-.54 0-.84.33-.84.73 0 .44.3.64.95.91.87.35 1.32.82 1.32 1.62 0 .94-.69 1.61-1.88 1.61-.55 0-1.06-.14-1.41-.37l.24-.74z"/></g></svg><svg id="p-daikin" viewBox="0 0 64 19" width="64" height="19" y="655"><style>.anst0{fill:#fefefe}.anst1{fill:#48b4e0}.anst2{fill:#0193cf}</style><path class="anst0" d="M32 18.3H.1c-.1 0-.1 0-.1-.1V.8C0 .7 0 .7.1.7h63.8c.1 0 .1 0 .1.1v17.4c0 .1 0 .1-.1.1H32zM9.5 3.7H3c-.1 0-.1 0-.1.1v12.1c4.4-4.1 8.8-8.1 13.2-12.2H9.5zm7.6 9.6h2.4c.4 0 .7 0 1.1-.1 1.3-.2 2.2-.8 2.9-2 .4-.6.6-1.3.6-2 0-.9-.4-1.6-1-2.1-.8-.7-1.7-.9-2.7-1h-4.2c-.1 0-.1 0-.1.1l-1.8 6.9c0 .1 0 .1.1.1.9.1 1.8.1 2.7.1zm36.8-3.9c0 .1 0 .1.1.1l1.5 3.6c0 .1 0 .1.1.1h3.3c.1 0 .1 0 .1-.1.1-.3.1-.6.2-.9.1-.5.2-.9.4-1.4.1-.5.2-.9.4-1.4.1-.5.2-.9.4-1.4.1-.4.2-.7.3-1.1.1-.3.1-.6.2-.9h-2.2c-.1 0-.1 0-.1.1-.3 1-.6 2.1-.7 3.1 0 .2-.1.4-.1.6l-.1-.1c-.5-1.2-1-2.4-1.4-3.6 0-.1-.1-.1-.2-.1h-3.2c-.1 0-.2 0-.2.1-.5 1.8-.9 3.6-1.4 5.5-.1.5-.3 1-.4 1.5H53.2c0-.1 0-.1.1-.2.1-.4.2-.7.3-1.1.1-.4.2-.9.3-1.3-.1-.3-.1-.7 0-1.1zM42 6.1c-.1 0-.1 0 0 0h-3.1c-.1 0-.1 0-.1.1-.6 2.3-1.2 4.6-1.7 6.9 0 .1 0 .1.1.1h2.7c.3 0 .3 0 .4-.3.2-.6.3-1.1.5-1.7.1 0 .1.1.1.1.4.6.9 1.2 1.3 1.8 0 .1.1.1.2.1h3.5s0-.1-.1-.1c-.8-1.2-1.5-2.4-2.3-3.5-.1-.1-.1-.1 0-.2 1.1-1 2.2-2 3.3-2.9l.3-.3H43.8c-.1 0-.1 0-.1.1-.4.3-.8.6-1.1.9-.3.3-.7.6-1 .8.1-.6.2-1.2.4-1.9zm-19 7.2c.1 0 .1 0 0 0h2.2c.1 0 .1 0 .1-.1.1-.3.3-.5.4-.8 0-.1.1-.1.2-.1h2.6c.1 0 .1 0 .1.1 0 .2.1.5.1.7 0 .1 0 .1.1.1h2.9c.1 0 .1 0 .1-.1l-.6-3.3c-.2-1.2-.4-2.4-.6-3.7 0-.1-.1-.1-.2-.1h-3.5c-.1 0-.2 0-.2.1-1 1.9-2.1 3.7-3.1 5.6 0 .6-.3 1.1-.6 1.6zm9.6 0h3.1c.1 0 .1 0 .1-.1.1-.5.2-1 .4-1.5.5-1.8.9-3.6 1.4-5.4 0-.1 0-.1-.1-.1h-2.9c-.1 0-.1 0-.2.1-.5 1.7-1 3.5-1.4 5.3-.2.6-.3 1.1-.4 1.7zm17.1-7.2h-1.5c-.1 0-.1 0-.2.1-.6 2.3-1.1 4.6-1.7 6.9 0 .1 0 .1.1.1h2.9c.1 0 .1 0 .2-.1.6-2.3 1.1-4.6 1.7-6.9 0-.1 0-.1-.1-.1h-1.4z"/><path class="anst1" d="M9.5 3.7h6.7C11.8 7.8 7.4 11.8 3 15.9v-.1-6.1-.1l.2-.2c.7-.6 1.3-1.2 2-1.8.4-.3.7-.6 1.1-1 .6-.5 1.2-1.1 1.8-1.6.4-.3.8-.7 1.2-1 .1-.1.2-.2.2-.3z"/><path class="anst2" d="M17.1 13.3h-2.8c-.1 0-.1 0-.1-.1L16 6.3c0-.1.1-.1.1-.1h4.2c1 0 1.9.3 2.7 1 .6.6 1 1.3 1 2.1 0 .7-.2 1.4-.6 2-.6 1.1-1.6 1.8-2.9 2-.4.1-.7.1-1.1.1-.7-.1-1.5-.1-2.3-.1zm.7-1.8c.6 0 1.2 0 1.7-.1.4-.1.8-.4 1-.8.2-.4.3-.8.3-1.2 0-.7-.3-1.1-1-1.2-.2-.2-.6-.2-.9-.2-.1 0-.1 0-.2.1-.1.5-.3 1-.4 1.5-.1.6-.3 1.2-.5 1.9zM53.9 9.4c-.1.4-.2.8-.2 1.2-.1.5-.2.9-.3 1.3-.1.4-.2.7-.3 1.1 0 .1-.1.1-.1.2H50.7c.1-.5.3-1 .4-1.5.5-1.8.9-3.6 1.4-5.5 0-.1.1-.1.2-.1h3.2c.1 0 .1 0 .2.1.5 1.2 1 2.4 1.4 3.6 0 0 0 .1.1.1 0-.2.1-.4.1-.6.2-1.1.5-2.1.7-3.1 0-.1 0-.1.1-.1h2.2c-.1.3-.2.6-.2.9-.1.4-.2.7-.3 1.1-.1.5-.2.9-.4 1.4-.1.5-.2.9-.4 1.4-.1.5-.2.9-.4 1.4-.1.3-.1.6-.2.9 0 .1 0 .1-.1.1h-3.3c-.1 0-.1 0-.1-.1l-1.5-3.6c.2-.1.2-.1.1-.2zM42 6.1c-.2.6-.3 1.2-.5 1.9.4-.3.7-.6 1-.8.4-.3.8-.6 1.1-.9l.1-.1H47l-.3.3c-1.1 1-2.2 2-3.3 2.9-.1.1-.1.1 0 .2.8 1.2 1.5 2.4 2.3 3.5 0 0 0 .1.1.1h-3.5c-.1 0-.1 0-.2-.1-.4-.6-.9-1.2-1.3-1.8 0 0 0-.1-.1-.1-.2.6-.3 1.1-.5 1.7-.1.3-.1.3-.4.3h-2.7c-.1 0-.1 0-.1-.1.6-2.3 1.2-4.6 1.7-6.9 0-.1 0-.1.1-.1H42c-.1 0-.1 0 0 0zM23 13.3c.3-.5.5-1 .8-1.4 1-1.9 2.1-3.7 3.1-5.6.1-.1.1-.1.2-.1h3.5c.1 0 .1 0 .2.1.2 1.2.4 2.5.6 3.7l.6 3.3c0 .1 0 .1-.1.1H29c-.1 0-.1 0-.1-.1 0-.2-.1-.5-.1-.7 0-.1 0-.1-.1-.1h-2.6c-.1 0-.1 0-.2.1-.1.3-.3.5-.4.8 0 .1-.1.1-.1.1-.9-.2-1.6-.2-2.4-.2.1 0 .1 0 0 0zm4-3h1.2c.1 0 .1 0 .1-.1 0-.3-.1-.5-.1-.8 0-.3-.1-.5-.2-.9-.4.7-.7 1.2-1 1.8zM32.6 13.3c.1-.6.3-1.1.4-1.7.4-1.8.9-3.6 1.3-5.3 0-.1.1-.1.2-.1h2.9c.1 0 .1 0 .1.1-.5 1.8-.9 3.6-1.4 5.4-.1.5-.2 1-.4 1.5 0 .1 0 .1-.1.1h-3zM49.7 6.1h1.5c.1 0 .1 0 .1.1-.6 2.3-1.2 4.6-1.7 6.9 0 .1-.1.1-.2.1h-2.9c-.1 0-.1 0-.1-.1.6-2.3 1.2-4.6 1.7-6.9 0-.1.1-.1.2-.1h1.4z"/><path d="M9.5 3.7c0 .1-.1.2-.2.2-.4.4-.8.7-1.2 1.1-.6.5-1.2 1.1-1.9 1.7-.3.3-.7.6-1 .9-.7.6-1.3 1.2-2 1.8-.1.1-.2.2-.3.2v-.1-5.7c0-.1 0-.1.1-.1h6.5z"/><path class="anst0" d="M17.8 11.5c.2-.6.3-1.2.5-1.8.1-.5.3-1 .4-1.5.1-.2.1-.2.2-.2.3 0 .7 0 1 .1.7.2 1 .6 1 1.2 0 .4-.1.8-.3 1.2-.2.4-.6.7-1 .8-.6.2-1.2.2-1.8.2zM27 10.3c.3-.6.7-1.2 1-1.8.1.3.1.6.2.9 0 .3.1.5.1.8 0 .1 0 .1-.1.1H27z"/></svg><svg id="p-fazer" viewBox="0 0 64 64" width="64" height="64" y="674"><style>.aost0{fill:#15256b}.aost1{fill:#fff}</style><circle class="aost0" cx="32" cy="32" r="32"/><path class="aost1" d="M57.3 23.9c.2-.8-.5-.6-.7-.1-.2.5-.4.9-.7 1.3-.5.7-1.5 1.6-2.2.5-.5-.8 0-2 .1-2.9.1-1.3-.4-1.7-1.3-2.6-.5-.6-1.1-2.1-1.5-.5-.3 1.4-.8 2.6-1.4 3.9-1 2-3.2 5.4-5.8 5.2-2.8-.3-.9-4.7.2-5.7.3-.3.8-.8 1.3-.6.7.2.4 1.1.2 1.5-.4.7-1.2.9-1.8 1.5-.8.8.1 1.1.8.8.9-.3 1.7-.9 2.4-1.5.8-.8 1.5-2.5.5-3.5-.8-.9-2.3-.4-3.2 0-1.3.7-2.3 1.9-3 3.2-.4.7-.7 1.5-.9 2.4-.2 1.2.1 1.9-.1 2.2-1.1 2-4 .4-5.7.7.9-1 1.9-2.1 2.9-3 .8-.8 1.8-1.5 2.1-2.7.2-1-.2-1.8-1.3-1.4-1.4.4-2.7 1.2-4.2 1.4-.8.1-1 0-1.6-.3-.4-.2-.6-.3-.9.1-.2.3-.2.9-.3 1.3-.1.6-.2 1-.5 1.6-.5 1.2-1 2.6-1.7 3.7-.3.5-1.2 1.8-1.7.9-.7-1.1.4-3.1.7-4.2-.8.1-1.5.3-2 1.1s-.8 1.7-1.3 2.5c-.4.7-1.9 2.8-2.4 1-.4-1.3.8-2.8 1.6-3.7.4-.5 2.2-2.5 2.6-1.1.7-.5 1.3-1.2.1-1.6-1-.3-2.2.3-3 .9-1.9 1.4-3.1 3.7-3.5 6-.2 1.2-.2 3.6 1.7 3.2 1.5-.4 2-2.4 3-3.4.1 0 .4 1.8.5 2 .7 1 1.9-.2 2.5-.8 2.1-2.3 3-5.4 4.4-8.2 1.6 1 3.7.4 5.3-.2-1.4 1.9-3.4 3.2-5.1 4.7-.5.4-3.5 3-2 3.7.6.3 1.4-.8 1.8-1.1 1-.6 2-.5 3.1-.4 2 .1 3.7-.6 4.9-2.2 1.9 2.9 5.4 0 7-1.7 1.7-1.8 2.9-4 4-6.2 2 1.8-1.6 4.8.5 6.6 2.6 1.6 5.2-2.6 5.6-4.3zm-48-1.3c2.3-3.7 7.2-3.8 11.1-4 2.6-.1 5.4-.2 7.8-1.4 1-.5 1.9-1.2 2.6-2.1.6-.7 1.5-1.9 1.1-2.9-.8.6-1.5 1.4-2.5 1.8-1 .5-2.1.7-3.2 1-2.4.5-4.8.6-7.2 1-2.2.4-4.5 1-6.4 2.2-1.4.9-3.9 2.6-3.3 4.4m10.5 6.2c.5-.1 1-.8.5-1.2-.4-.4-1.2.1-1.6.3-1.5.7-2.9 1.5-4.2 2.5l.6-3.9c.2-1.1.3-2.3.8-3.4.3-.6 1-1.3.8-2.1-.2-1.1-1.3-.3-1.6.3-1.2 1.7-1.3 3.9-1.7 5.9-.5 2.4-1 4.8-1.6 7.2-.6 2.3-1.7 4.5-2.4 6.7-.5 1.7-1.2 3.9-.5 5.7.7 1.7 2.2-.1 2.7-1 1.1-1.9 1.5-4.3 1.8-6.5.3-2.1.2-4.5 1.3-6.4.6-1 1.4-1.9 2.3-2.7.5-.4 1.1-.8 1.6-1.1.2 0 .8-.2 1.2-.3zM18.2 46.9c-2.2-1.7-1.7-1.6 3.4.9 1.5.8 16 5.7 25-10.5 2.1-6.5 7.9-2.2 5 2.3C49.3 43.8 42.9 51 31.4 51c-7.9 0-11.6-2.9-13.2-4.1z"/></svg><svg id="p-fazer2" viewBox="0 0 64 64" width="64" height="64" y="738"><style>.apst0{fill:#15256b}.apst1{fill:#fff}</style><circle class="apst0" cx="32" cy="32" r="32"/><path class="apst1" d="M57.3 23.9c.2-.8-.5-.6-.7-.1-.2.5-.4.9-.7 1.3-.5.7-1.5 1.6-2.2.5-.5-.8 0-2 .1-2.9.1-1.3-.4-1.7-1.3-2.6-.5-.6-1.1-2.1-1.5-.5-.3 1.4-.8 2.6-1.4 3.9-1 2-3.2 5.4-5.8 5.2-2.8-.3-.9-4.7.2-5.7.3-.3.8-.8 1.3-.6.7.2.4 1.1.2 1.5-.4.7-1.2.9-1.8 1.5-.8.8.1 1.1.8.8.9-.3 1.7-.9 2.4-1.5.8-.8 1.5-2.5.5-3.5-.8-.9-2.3-.4-3.2 0-1.3.7-2.3 1.9-3 3.2-.4.7-.7 1.5-.9 2.4-.2 1.2.1 1.9-.1 2.2-1.1 2-4 .4-5.7.7.9-1 1.9-2.1 2.9-3 .8-.8 1.8-1.5 2.1-2.7.2-1-.2-1.8-1.3-1.4-1.4.4-2.7 1.2-4.2 1.4-.8.1-1 0-1.6-.3-.4-.2-.6-.3-.9.1-.2.3-.2.9-.3 1.3-.1.6-.2 1-.5 1.6-.5 1.2-1 2.6-1.7 3.7-.3.5-1.2 1.8-1.7.9-.7-1.1.4-3.1.7-4.2-.8.1-1.5.3-2 1.1s-.8 1.7-1.3 2.5c-.4.7-1.9 2.8-2.4 1-.4-1.3.8-2.8 1.6-3.7.4-.5 2.2-2.5 2.6-1.1.7-.5 1.3-1.2.1-1.6-1-.3-2.2.3-3 .9-1.9 1.4-3.1 3.7-3.5 6-.2 1.2-.2 3.6 1.7 3.2 1.5-.4 2-2.4 3-3.4.1 0 .4 1.8.5 2 .7 1 1.9-.2 2.5-.8 2.1-2.3 3-5.4 4.4-8.2 1.6 1 3.7.4 5.3-.2-1.4 1.9-3.4 3.2-5.1 4.7-.5.4-3.5 3-2 3.7.6.3 1.4-.8 1.8-1.1 1-.6 2-.5 3.1-.4 2 .1 3.7-.6 4.9-2.2 1.9 2.9 5.4 0 7-1.7 1.7-1.8 2.9-4 4-6.2 2 1.8-1.6 4.8.5 6.6 2.6 1.6 5.2-2.6 5.6-4.3zm-48-1.3c2.3-3.7 7.2-3.8 11.1-4 2.6-.1 5.4-.2 7.8-1.4 1-.5 1.9-1.2 2.6-2.1.6-.7 1.5-1.9 1.1-2.9-.8.6-1.5 1.4-2.5 1.8-1 .5-2.1.7-3.2 1-2.4.5-4.8.6-7.2 1-2.2.4-4.5 1-6.4 2.2-1.4.9-3.9 2.6-3.3 4.4m10.5 6.2c.5-.1 1-.8.5-1.2-.4-.4-1.2.1-1.6.3-1.5.7-2.9 1.5-4.2 2.5l.6-3.9c.2-1.1.3-2.3.8-3.4.3-.6 1-1.3.8-2.1-.2-1.1-1.3-.3-1.6.3-1.2 1.7-1.3 3.9-1.7 5.9-.5 2.4-1 4.8-1.6 7.2-.6 2.3-1.7 4.5-2.4 6.7-.5 1.7-1.2 3.9-.5 5.7.7 1.7 2.2-.1 2.7-1 1.1-1.9 1.5-4.3 1.8-6.5.3-2.1.2-4.5 1.3-6.4.6-1 1.4-1.9 2.3-2.7.5-.4 1.1-.8 1.6-1.1.2 0 .8-.2 1.2-.3zM18.2 46.9c-2.2-1.7-1.7-1.6 3.4.9 1.5.8 16 5.7 25-10.5 2.1-6.5 7.9-2.2 5 2.3C49.3 43.8 42.9 51 31.4 51c-7.9 0-11.6-2.9-13.2-4.1z"/></svg><svg id="p-ikea" viewBox="0 0 64 22" width="64" height="22" y="802"><style>.aqst0{fill:#0a67b2}.aqst1{fill:#ffe500}</style><path class="aqst0" d="M0 .7h59.3V22H0z"/><path class="aqst1" d="M29.7 21c16.1 0 29.2-4.4 29.2-9.8S45.8 1.5 29.7 1.5.5 5.9.5 11.3s13 9.7 29.2 9.7"/><path class="aqst0" d="M61.6 3.1h-.3V.9h.8c.5 0 .8.2.8.6 0 .4-.2.6-.6.6l.6 1h-.4l-.5-1h-.4v1m.4-1.2c.3 0 .5 0 .5-.4 0-.3-.2-.3-.5-.3h-.4v.7h.4zm-1.9.1C60.1.9 61 .1 62 .1c1 0 1.9.8 1.9 1.9 0 1.1-.9 1.9-1.9 1.9-1.1 0-1.9-.8-1.9-1.9zM62 3.6c.9 0 1.5-.7 1.5-1.6 0-.9-.7-1.6-1.5-1.6-.9 0-1.5.7-1.5 1.6 0 .9.6 1.6 1.5 1.6zM47.3 15s.2-.3.2-.6l-.4-1h-2.3l-.4 1c-.1.3.2.6.2.6h-4.7s.3-.2.4-.6l2.5-6.6c.2-.4-.1-.7-.1-.7h7.5s-.3.2-.1.7l2.6 6.6c.2.4.5.6.5.6h-5.9m-.8-3l-.6-1.4c-.1-.2-.1-.4-.1-.4s0 .2-.1.4c0 .1-.6 1.4-.6 1.4h1.4zM8.1 15c.3-.2.3-.7.3-.7V7.7c0-.4-.2-.5-.2-.5h5.4s-.2.1-.2.5v6.6c0 .1 0 .6.3.7H8.1M20.9 10.3l1.8-2.5c.3-.4 0-.6 0-.6H28s-.3.2-.5.5l-2 2.7 2.5 4c.2.3.4.4.6.5.1.1.2.1.2.1h-6.2s.2-.1 0-.5l-1.7-2.7v2.5c0 .1-.1.6.2.7h-5.3c.3-.2.3-.7.3-.7V7.7c0-.4-.2-.5-.2-.5h5.3s-.2.1-.2.5l-.1 2.6M38.9 15v-2.8s-.3.4-.8.4h-3.3V12h2.6c.1 0 .6 0 .7.2V9.8c-.3.2-.7.2-.8.2h-2.6v-.6H38c.5 0 .8.4.8.4V7.2h-9s.2.1.2.5v6.6c0 .1 0 .6-.3.7h9.2"/></svg><svg id="p-kidburg" viewBox="0 0 64 22" width="64" height="22" y="824"><style>.arst0{fill:#b1b2b2}.arst1{fill:#fdfdfd}.arst2{fill:#028dd1}.arst3{fill:#008dd1}.arst4{fill:#038ed2}.arst5{fill:#018dd1}.arst6{fill:#068fd2}.arst7{fill:#048ed2}.arst8{fill:#008cd1}.arst9{fill:#0a91d3}.arst10{fill:#028dd2}.arst11{fill:#22a63f}.arst12{fill:#e21e24}.arst13{fill:#006cb4}.arst14{fill:#fbbb00}.arst15{fill:#2c2c2b}</style><path class="arst0" d="M31.71 13.52c-1.07-.03-2.47.01-3.86.08-1.6.09-3.21.22-4.8.41-2.31.28-4.6.69-6.86 1.27a36.6 36.6 0 0 0-4.23 1.37c-.27.11-.28.21-.15.44.41.79.8 1.59 1.19 2.39.4.81.15 1.41-.7 1.7-.49.17-1 .21-1.51.25-1.74.15-3.48.22-5.23.28-1.65.05-3.31.02-4.96.04-.38 0-.49-.22-.3-.56.88-1.55 1.75-3.1 2.64-4.64.19-.33.19-.56-.02-.89-.96-1.55-1.87-3.12-2.74-4.72-.17-.3-.09-.47.25-.52.7-.1 1.4-.03 2.1-.1.62-.06 1.25-.06 1.88-.07.17 0 .2-.05.18-.22-.18-1.05-.34-2.12-.51-3.17-.04-.25.07-.37.24-.49 1.18-.83 2.44-1.5 3.75-2.09 2.61-1.18 5.33-2.01 8.12-2.64 1.65-.38 3.31-.67 4.98-.92 1.2-.17 2.4-.29 3.61-.4 3.15-.3 6.31-.36 9.47-.29 1.65.04 3.3.14 4.94.28 2.64.23 5.27.6 7.86 1.15 3.31.7 6.54 1.67 9.6 3.13 1.06.51 2.08 1.08 3.05 1.74.27.19.32.4.28.69-.15.92-.28 1.84-.44 2.75-.04.25.06.29.25.29.66.02 1.32.05 1.98.07l1.82.06c.39.01.5.2.31.55-.81 1.49-1.63 2.97-2.56 4.39-.36.55-.38.95-.04 1.5.85 1.39 1.63 2.83 2.44 4.24.09.16.21.31.11.49-.1.18-.29.13-.45.14-.76.07-1.53.07-2.29.03-1.16-.05-2.32-.01-3.49-.06-1.56-.07-3.11-.14-4.66-.31-.43-.05-.87-.09-1.29-.26-.75-.3-.98-.89-.62-1.61.37-.76.75-1.52 1.13-2.27.1-.2.12-.29-.14-.4-2.35-.94-4.78-1.57-7.25-2.05-1.72-.33-3.46-.57-5.2-.74-.97-.1-1.94-.16-2.91-.22-1.53-.07-3.09-.09-4.97-.09z"/><path class="arst1" d="M6.74 18.89c.36-.62.93-1.04 1.47-1.49-.65.23-1.16.68-1.68 1.11.43-.69 1.07-1.17 1.69-1.67-.71.19-1.22.68-1.73 1.18-.06-.43.59-1.08 1.71-1.75-.3-.03-.65.11-1.02.38-.32.22-.54.54-.84.78.34-.82 1-1.35 1.69-1.86-.72.21-1.26.69-1.75 1.23.32-.87 1.03-1.38 1.74-1.88-.76.11-1.32.56-1.87 1.04.39-.78 1.1-1.25 1.75-1.79-.7.17-1.27.59-1.85.99-.11-.18.02-.27.1-.37.39-.44.88-.77 1.38-1.08.07-.04.16-.06.21-.17-.68.14-1.24.51-1.84.81.4-.66 1.09-.98 1.71-1.44-.25.01-.43.12-.62.2-.21.09-.42.19-.62.3-.19.1-.38.22-.58.34.09-.24.28-.43.75-.77.29-.21.58-.4.95-.66-.46.07-.78.24-1.1.4-.18.09-.35.2-.52.29-.06.03-.13.11-.19.03-.05-.07.01-.15.06-.2.19-.2.37-.4.58-.57.29-.24.6-.45.9-.69-.58.18-1.09.51-1.62.8.38-.66 1.05-.99 1.71-1.44-.71.15-1.25.47-1.84.75.27-.59.82-.88 1.32-1.24-.5.05-.9.37-1.44.57.33-.5.77-.74 1.14-1.07-.43.06-.8.28-1.19.44.3-.55.83-.83 1.38-1.19-.58.05-1.03.28-1.5.45.29-.42.76-.62 1.2-.98-.5.13-.87.34-1.26.54.3-.49.76-.8 1.2-1.14-.45.1-.84.33-1.26.51.28-.4.7-.64 1.12-.98-.53.12-.87.36-1.26.5.31-.46.81-.7 1.23-1.03-.47.12-.87.39-1.32.56.31-.49.83-.71 1.3-.99-.49.07-.9.34-1.34.53-.06-.11.01-.15.06-.19.17-.14.81-.51.99-.64.14-.1-.71.35-1.15.46.03-.06 1.04-.64 1.1-.68 2.21-1.28 4.57-2.22 7-2.97 1.92-.59 3.87-1.05 5.84-1.41 1.33-.25 2.68-.44 4.02-.61 1.57-.2 3.14-.3 4.71-.42.46-.04.92-.04 1.38-.06C29.98.6 31.23.57 32.48.59c1.74.02 3.47.06 5.2.19 3.84.28 7.64.8 11.37 1.75 2.89.74 5.71 1.7 8.35 3.11.6.31 1.17.63 1.7 1.02.1.08.21.14.28.34-.5-.2-.92-.47-1.4-.56.46.3.98.53 1.31 1-.45-.16-.85-.44-1.33-.54.44.32.93.57 1.26 1.04-.36-.12-.68-.36-1.14-.46.37.36.76.56 1.02.92-.44-.12-.81-.41-1.35-.53.5.39.97.68 1.28 1.16-.38-.13-.71-.39-1.2-.48.42.34.85.54 1.17.99-.54-.23-1.01-.47-1.6-.52.58.35 1.09.68 1.44 1.21-.45-.15-.85-.41-1.4-.53.5.38 1 .66 1.3 1.15-.47-.21-.91-.49-1.42-.57.47.39 1.07.64 1.32 1.26-.57-.29-1.12-.6-1.83-.77.66.46 1.32.8 1.71 1.45-.51-.24-.96-.6-1.52-.75.35.33.77.56 1.1.91.13.14.39.32.29.46-.11.15-.31-.1-.47-.18-.4-.2-.79-.42-1.32-.51.63.45 1.23.8 1.7 1.31.02.02.02.05.04.12-.58-.3-1.09-.66-1.71-.79.55.44 1.19.77 1.59 1.38-.62-.29-1.19-.67-1.96-.85.73.5 1.47.86 1.88 1.59-.02.03-.04.05-.06.08-.3-.2-.59-.4-.9-.59-.3-.19-.62-.35-1.04-.45.7.6 1.45 1.05 1.82 1.85-.56-.47-1.12-.95-1.88-1.06.71.52 1.41 1.03 1.75 1.89-.52-.46-.97-1.02-1.69-1.2.64.52 1.31 1 1.61 1.82-.28-.25-.5-.55-.81-.77-.31-.23-.65-.39-1.05-.42.74.43 1.43.91 1.76 1.75-.56-.47-1.08-.99-1.81-1.19.6.5 1.25.95 1.67 1.64-.5-.36-.95-.81-1.55-1.01.55.52 1.19.96 1.51 1.69-.58-.38-1.13-.78-1.72-1.13-1.92-1.16-3.99-1.98-6.12-2.64-1.69-.52-3.41-.92-5.14-1.23-1.22-.22-2.45-.4-3.68-.54-1.62-.18-3.24-.31-4.87-.39-1.87-.09-3.75-.13-5.62-.09-1.32.03-2.63.09-3.95.18-1.65.12-3.3.29-4.95.54-2.07.31-4.11.71-6.12 1.28-2.76.78-5.42 1.8-7.81 3.42-.25.17-.49.36-.75.55z"/><path class="arst1" d="M.9 11.03c.26-.03.47-.06.69-.07.98-.04 1.97-.06 2.95-.1.14-.01.18.05.2.17l.63 4.08c.22 1.43.45 2.86.67 4.3 0 .03.01.06.02.09.09.74.51 1.04 1.24.93.92-.14 1.8-.46 2.72-.58.71-.09 1.42-.25 2.15-.1.2.04.39.1.42.35.03.26-.15.37-.35.46-.34.17-.72.21-1.09.25-.95.09-1.89.16-2.84.21-1.52.09-3.03.09-4.55.14-.81.02-1.61.02-2.42.03-.34 0-.35-.02-.17-.32.84-1.46 1.68-2.92 2.49-4.4.15-.28.15-.5-.02-.78-.93-1.46-1.79-2.97-2.64-4.48-.03-.05-.05-.09-.1-.18zM63.09 20.95c-1.62-.04-3.18.04-4.74-.06-.68-.04-1.36-.03-2.04-.06-1.3-.07-2.61-.15-3.9-.33-.24-.03-.47-.1-.68-.22a.395.395 0 0 1-.22-.42c.02-.18.13-.27.3-.31.54-.12 1.08-.08 1.62-.03 1.06.11 2.08.41 3.13.63.36.07.72.08 1.08-.08.44-.21.41-.62.47-.99.26-1.61.51-3.21.75-4.82.17-1.11.35-2.22.51-3.34.03-.24.12-.3.34-.29.94.05 1.88.09 2.82.12.21.01.42 0 .69 0-.2.37-.37.69-.56 1.01-.73 1.24-1.45 2.47-2.19 3.7-.18.29-.17.53-.01.81.82 1.44 1.63 2.88 2.44 4.32.05.1.1.2.19.36z"/><g><path class="arst2" d="M32.77 19.51c.24-.28.31-.54.44-.77.04-.07.05-.17.14-.2.11-.03.25-.06.33.01.11.09-.02.19-.06.27-.14.26-.42.53-.39.75.03.22.28.46.42.7.07.11.16.21.18.36-.29.08-.51.04-.62-.28-.06-.17-.16-.32-.25-.47-.03-.06-.05-.16-.15-.13-.08.02-.05.11-.05.16 0 .18-.01.36 0 .53.01.14-.04.21-.19.21-.16 0-.23-.05-.22-.22.01-.23 0-.46 0-.78-.26.26-.35.52-.47.76-.09.19-.21.25-.42.24-.17-.01-.17-.07-.09-.19.19-.3.54-.63.5-.91-.04-.29-.31-.61-.5-.92-.02-.03-.02-.06-.03-.09.3-.1.5-.03.6.29.05.17.15.32.23.48.02.04.04.1.11.09.07-.02.06-.08.06-.13 0-.19.01-.38 0-.56-.01-.15.06-.2.2-.2s.21.04.21.19c.02.25.02.49.02.81z"/><path class="arst3" d="M37.7 18.57c.35-.11.53 0 .63.31.09.27.25.5.32.81.12-.34.23-.65.32-.96.04-.15.11-.2.27-.2.53.01 1.07.01 1.6 0 .13 0 .19.04.19.18 0 .13-.04.2-.18.19-.07-.01-.15.01-.22 0-.18-.02-.23.07-.23.24.01.42 0 .84 0 1.26 0 .15.02.29-.21.29-.25 0-.19-.16-.19-.3 0-.41-.01-.82 0-1.23.01-.22-.08-.24-.27-.27-.32-.04-.46.09-.55.38-.12.37-.27.72-.43 1.08-.11.24-.29.38-.57.34-.09-.01-.22-.02-.18-.16.02-.08.01-.2.17-.22.31-.05.34-.13.2-.41-.21-.45-.44-.88-.67-1.33z"/><path class="arst4" d="M35.3 19.28c-.3.45-.57.84-.83 1.25-.08.13-.19.17-.32.14-.16-.03-.09-.17-.1-.26-.01-.54 0-1.09-.01-1.63 0-.17.03-.24.22-.24.2 0 .21.1.21.26-.01.35 0 .69 0 1.09.27-.39.5-.73.74-1.07.05-.07.1-.14.15-.2.07-.09.17-.07.26-.06.12.02.1.12.1.2v1.73c0 .18-.08.2-.23.21-.18.01-.2-.08-.2-.23.01-.4.01-.77.01-1.19zM47.74 19.87c.29-.42.56-.79.81-1.18.09-.13.18-.2.34-.16.17.04.1.19.1.29.01.53 0 1.07.01 1.6 0 .16-.03.25-.22.25-.21 0-.21-.11-.2-.26v-1.14c-.29.43-.56.82-.82 1.21-.08.13-.18.2-.33.17-.18-.04-.1-.19-.1-.28-.01-.54 0-1.09-.01-1.63 0-.16.05-.22.21-.22.16 0 .23.05.22.21-.02.37-.01.73-.01 1.14z"/><path class="arst5" d="M43.98 19.59c0-.28.01-.57 0-.85-.01-.16.05-.23.21-.22.28.01.57.01.85 0 .14 0 .21.03.21.19 0 .17-.1.18-.22.18h-.31c-.18-.01-.32-.02-.32.25 0 .25.12.27.31.25.1-.01.21 0 .31 0 .16-.01.15.1.16.21 0 .12-.03.18-.16.17-.09-.01-.19.01-.28 0-.3-.06-.35.1-.33.35.01.16.08.19.21.19.16-.01.31 0 .47 0 .13 0 .19.04.19.18 0 .13-.04.19-.18.19-.31-.01-.63-.01-.94 0-.14 0-.18-.07-.17-.19-.01-.31-.01-.6-.01-.9zM29.17 19.59c0-.28.01-.57 0-.85-.01-.16.05-.22.22-.22.28.01.56.01.85 0 .14 0 .21.03.21.19 0 .17-.1.18-.23.17-.11 0-.23.01-.34 0-.2-.02-.3.02-.3.26 0 .24.12.25.29.24.11-.01.23 0 .35 0 .13 0 .15.08.15.19 0 .1-.01.19-.15.18-.1 0-.21.01-.31 0-.2-.02-.32 0-.32.27s.13.28.33.27c.13-.01.25.01.38 0 .14-.01.18.04.18.18 0 .12-.03.2-.17.19-.3-.01-.61-.01-.91 0-.18.01-.21-.08-.21-.23-.01-.27-.02-.56-.02-.84z"/><path class="arst6" d="M46.05 19.75v-.31c0-.48 0-.49-.47-.55-.12-.01-.16-.06-.16-.18 0-.1 0-.19.14-.19h1.38c.12 0 .16.06.16.18 0 .13-.04.18-.18.19-.45.04-.45.05-.45.51 0 .36-.01.71 0 1.07.01.18-.09.2-.23.2s-.21-.04-.2-.2c.02-.23.01-.47.01-.72z"/><path class="arst7" d="M15.25 19.59c0-.28.01-.56 0-.85-.01-.16.05-.22.22-.22.28.01.56.01.85 0 .15 0 .19.06.19.2 0 .15-.08.16-.2.17-.2.01-.45-.09-.57.04-.15.15-.04.42-.05.63-.01.3-.01.61 0 .91 0 .16-.06.2-.2.2-.15 0-.24-.02-.23-.2 0-.3-.01-.59-.01-.88z"/><path class="arst8" d="M25.71 19.59c0-.27.01-.55 0-.82-.01-.2.07-.25.25-.25.26.01.52.01.79 0 .15 0 .2.05.2.2 0 .15-.08.16-.2.17-.63.04-.63.04-.63.68v.82c0 .15.03.29-.21.28-.24-.01-.2-.16-.2-.3v-.78z"/><path class="arst9" d="M24.92 20.57c-.01.19-.09.36-.26.47-.05.03-.11.1-.19.02-.07-.07-.04-.12.02-.18s.16-.13.02-.22c-.13-.09-.12-.21-.05-.33.07-.1.18-.1.28-.06.13.04.17.16.18.3z"/><path class="arst10" d="M43.65 20.32c-.2-.06-.18-.16-.18-.29v-.6c0-.24-.01-.48 0-.72 0-.13-.05-.18-.18-.18-.3.01-.61.01-.91 0-.16 0-.18.08-.19.21-.01.24-.02.48-.05.72-.04.27-.02.64-.22.76-.33.19-.19.45-.22.68-.01.07.01.15.11.15.09 0 .19-.01.19-.11-.01-.32.21-.27.4-.27.25 0 .5.01.75 0 .17-.01.28.01.28.22 0 .15.11.2.24.15.12-.04.08-.17.07-.25-.03-.16.11-.41-.09-.47zm-.85-.02c-.42 0-.41.01-.33-.41.05-.27.09-.54.11-.81.01-.18.1-.2.24-.19.14 0 .25.01.24.19-.01.18 0 .35 0 .53 0 .15-.01.29 0 .44.01.2-.07.25-.26.25z"/><path class="arst5" d="M24.22 20.43c0-.07-.02-.13-.1-.13-.19 0-.18-.13-.18-.26v-.63h.01c-.01-.28.08-.65-.06-.82-.17-.2-.55-.03-.84-.07-.31-.04-.38.06-.41.38-.05.5.12 1.1-.47 1.44-.02.01-.01.06-.01.09v.47c0 .08.01.15.11.15.08 0 .2.01.19-.11-.02-.33.2-.27.39-.27.24 0 .48.01.72 0 .19-.01.34 0 .33.25 0 .11.06.14.16.14s.15-.05.15-.15c.01-.17.01-.33.01-.48zm-.69-.36c.01.18-.06.23-.23.23-.46.01-.45.02-.36-.43.05-.25.08-.51.09-.77.01-.19.09-.22.25-.22.15 0 .27.01.25.22-.01.17 0 .33 0 .5 0 .16-.01.31 0 .47zM28.85 20.32c-.21-.06-.19-.18-.19-.32v-.6c0-.22-.01-.44 0-.66.01-.16-.05-.23-.21-.22-.27.01-.54.02-.82 0-.22-.02-.26.08-.26.27 0 .22 0 .44-.05.65-.08.32.04.74-.42.88-.02.01-.02.09-.02.15v.38c0 .09-.02.19.13.2.13 0 .2-.05.19-.18-.01-.17.09-.21.24-.2.3.01.61.01.91 0 .17-.01.29.03.29.23 0 .18.12.18.24.14.13-.04.09-.16.07-.24-.04-.17.1-.42-.1-.48zm-.6-.26c.01.17-.03.24-.22.24-.46.01-.45.02-.37-.44.05-.25.08-.52.09-.77.01-.21.14-.19.27-.2.15-.01.24.02.23.2-.01.17 0 .33 0 .5 0 .16-.01.32 0 .47zM37.17 19.53c.29-.15.39-.37.33-.65-.07-.29-.31-.35-.55-.38-.22-.02-.44 0-.66 0-.13 0-.2.06-.2.21.01.59 0 1.17 0 1.76 0 .13.06.2.18.2.28.01.56.05.84-.04.26-.08.44-.23.47-.52.02-.28-.09-.47-.41-.58zm-.44-.68c.18.02.37.03.36.25 0 .25-.21.31-.42.33-.27.03-.15-.18-.18-.29-.03-.19 0-.32.24-.29zm0 1.49c-.25.02-.27-.12-.25-.28 0-.17-.05-.35.22-.32.2.02.43.01.44.28.01.26-.19.3-.41.32zM17.7 18.51c-.51-.14-.99.12-1.12.63-.19.74.08 1.42.62 1.54.03.01.06.01.09.01.67.07 1.04-.32 1.04-1.08 0-.61-.21-.98-.63-1.1zm.11 1.58c-.08.15-.2.24-.38.24s-.31-.08-.37-.23a1.28 1.28 0 0 1-.02-.98c.07-.17.2-.26.39-.25.18 0 .29.09.37.25.07.15.09.32.08.49.01.16.01.32-.07.48zM21.52 18.54c-.53-.19-1.04.07-1.18.6-.2.75.09 1.45.65 1.55.02 0 .04 0 .06.01.67.07 1.05-.33 1.05-1.11-.01-.56-.2-.92-.58-1.05zm-.32 1.78c-.3 0-.48-.25-.48-.71 0-.14.02-.29.06-.43.05-.2.18-.32.4-.32.22 0 .34.12.41.31.05.14.07.28.06.39.01.53-.14.76-.45.76z"/><path class="arst2" d="M19.45 18.51c-.21-.02-.42 0-.63.01-.14.01-.2.07-.19.22.01.29 0 .59 0 .88 0 .28.01.56 0 .85-.01.17.05.21.22.21.26.01.23-.17.21-.32-.04-.3.02-.44.38-.44.42.01.68-.31.69-.7.01-.41-.23-.67-.68-.71zm-.2 1.06c-.31 0-.14-.23-.19-.35.03-.16-.09-.39.23-.37.23.02.39.09.4.34.01.24-.16.38-.44.38z"/></g><g><path transform="rotate(28.777 12.187 7.712)" class="arst11" d="M11.86 5.91h.65v3.6h-.65z"/><path transform="rotate(-14.152 10.223 10.337)" class="arst12" d="M9.42 6.69h1.6v7.3h-1.6z"/><path transform="rotate(-7.778 20.927 7.41)" class="arst11" d="M20.13 4.29h1.6v6.24h-1.6z"/><path transform="rotate(-14.382 16.78 8.163)" class="arst11" d="M15.98 5.04h1.6v6.24h-1.6z"/><path transform="rotate(-60.995 12.418 11.015)" class="arst12" d="M11.74 8.41h1.35v5.2h-1.35z"/><path transform="rotate(17.35 19.026 7.724)" class="arst12" d="M18.7 4.39h.65v6.67h-.65z"/><path class="arst13" d="M23.08 10.2l.27-.65 6.48-.38.03.64zM23.64 9.03l2.44-6.01 3.17 5.66z"/><path class="arst13" d="M29.56 11.34h-1.04l.73-2.14 1-.07z"/><path class="arst12" d="M30.79 2.13h.65V9.9h-.65zM31.44 2.13h4.02v1h-4.02z"/><path transform="scale(-1) rotate(13.202 86.284 -444.867)" class="arst14" d="M50.66 7.48h1.66v5h-1.66z"/><path transform="rotate(-76.845 53.536 7.023)" class="arst13" d="M53.14 4.79h.8v4.47h-.8z"/><path transform="scale(-1) rotate(6.471 141.341 -792.691)" class="arst13" d="M44.41 4.72h.81v6.54h-.81z"/><path class="arst11" d="M38 11.73h.73l4.68-7.33-.72-.03zM42.02 4.34l-2.98 4.65-2.2-5.07z"/><path class="arst12" d="M40.84 4.24l-1.36 2.11-.99-2.3z"/><path class="arst14" d="M25.19 7.78l1.03-2.3 1.31 2.15z"/><path class="arst12" d="M32 4.46V9.9s4 .25 4-2.85-4-2.59-4-2.59z"/><path class="arst13" d="M46.1 4.77l-.55 4.64s3.39.62 3.7-2.03-3.15-2.61-3.15-2.61z"/><path class="arst14" d="M46.77 6.06l-.26 2.19s1.59.29 1.74-.96-1.48-1.23-1.48-1.23z"/><path class="arst11" d="M32.9 5.86v2.52s1.86.12 1.86-1.32-1.86-1.2-1.86-1.2z"/></g><g><path class="arst15" d="M62.69 6c-.72 0-1.31.59-1.31 1.31 0 .72.59 1.31 1.31 1.31.72 0 1.31-.59 1.31-1.31C64 6.59 63.41 6 62.69 6zm0 2.36a1.05 1.05 0 1 1 0-2.1 1.05 1.05 0 0 1 0 2.1z"/><path class="arst1" d="M62.78 6.77c-.04-.01-.08-.01-.13-.01h-.13v.41h.15c.13 0 .25-.06.25-.21 0-.1-.04-.16-.14-.19z"/><path class="arst1" d="M62.69 6.26a1.05 1.05 0 1 0 0 2.1 1.05 1.05 0 0 0 0-2.1zm.29 1.67l-.13-.32c-.05-.11-.1-.22-.24-.22h-.09v.55c0 .07-.29.07-.29 0v-1.3c0-.06.03-.09.09-.09h.37c.05 0 .11 0 .16.01.42.06.52.63.09.76.11.05.16.15.21.26l.12.28.03.09c0 .06-.29.06-.32-.02z"/><path class="arst15" d="M63.15 7.56c-.04-.1-.1-.21-.21-.26.43-.14.33-.7-.09-.76-.05-.01-.11-.01-.16-.01h-.37c-.06 0-.09.03-.09.09v1.3c0 .07.29.07.29 0v-.53h.09c.14 0 .19.11.24.22l.13.32c.03.08.31.08.31 0 0-.03-.01-.06-.03-.09l-.11-.28zm-.48-.39h-.15v-.41h.13c.04 0 .09 0 .13.01.1.03.14.09.14.19 0 .14-.12.21-.25.21z"/></g></svg><svg id="p-kvartira" viewBox="0 0 64 12" width="64" height="12" y="846"><style>.asst0{fill:#9f1613}</style><path class="asst0" d="M6.253.036h-2.22l-2.22 2.886V.036H0v6.993h1.813V3.995l2.368 3.034h2.331l-3.034-3.7L6.253.036zm7.289 3.663c-.222-.222-.592-.37-.962-.407.259-.111.407-.259.555-.555.148-.296.185-.555.185-.851 0-.592-.185-1.036-.444-1.295-.407-.518-.999-.592-1.48-.592H8.695v6.993h2.923c.851 0 1.517-.259 1.887-.666.259-.259.518-.703.518-1.369 0-.555-.185-.999-.481-1.258zm-3.034-2.294h.333c.37 0 .555.111.666.222a.703.703 0 0 1 .185.481.683.683 0 0 1-.185.444c-.185.185-.481.222-.666.222h-.333V1.405zm1.517 3.885c-.185.222-.592.296-1.11.296h-.407v-1.48h.37c.444 0 .888.037 1.11.222a.703.703 0 0 1 .185.481c0 .259-.074.407-.148.481zM20.572.036h-1.961l-2.664 6.993h1.924l.481-1.184h2.516l.444 1.184h1.924L20.572.036zm-1.739 4.403l.777-2.257.777 2.257h-1.554zM28.601.036h-2.886v6.993h1.813V4.735h1.147c.555 0 1.184-.074 1.739-.592.555-.518.592-1.184.592-1.739 0-.592-.111-1.184-.629-1.702-.555-.555-1.184-.666-1.776-.666zm.259 2.96c-.222.185-.555.222-.777.222h-.592V1.479h.592c.222 0 .555.037.777.259.185.185.222.444.222.629.037.148.037.444-.222.629zm4.477-1.443h1.48v5.439h1.813V1.553h1.48V.036h-4.773v1.517zM46.62 6.992V.036h-1.85l-2.59 4.403V.036h-1.813v6.993h1.85l2.59-4.44v4.403h1.813zM52.725.036h-2.886v6.993h1.813V4.735h1.147c.555 0 1.184-.074 1.739-.592.555-.518.592-1.184.592-1.739 0-.592-.111-1.184-.629-1.702-.555-.555-1.184-.666-1.776-.666zm.296 2.96c-.222.185-.555.222-.777.222h-.592V1.479h.592c.222 0 .555.037.777.259.185.185.222.444.222.629 0 .148-.037.444-.222.629zm7.918-2.96h-1.961l-2.664 6.993h1.924l.481-1.184h2.516l.444 1.184h1.924L60.939.036zm-1.776 4.403l.777-2.257.777 2.257h-1.554zM14.948 9.656c-.148-.111-.333-.111-.481-.111h-.444v2.183h.333v-.888h.148c.148 0 .37-.037.518-.185a.628.628 0 0 0 .222-.481c0-.185-.074-.37-.296-.518zm-.444.888h-.148v-.666h.148c.37 0 .444.222.444.333-.037.185-.185.333-.444.333zm1.739 1.184h1.221v-.333h-.888v-.666h.851v-.333h-.851v-.555h.888v-.333h-1.221v2.22zm3.515-.666l-.777-1.702-.481 2.368h.333l.222-1.332.629 1.443.629-1.443.222 1.332h.333l-.407-2.368-.703 1.702zm3.33-1.554c-.666 0-1.147.481-1.147 1.147s.481 1.147 1.147 1.147 1.147-.481 1.147-1.147-.518-1.147-1.147-1.147zm0 1.961c-.481 0-.814-.333-.814-.851s.333-.851.814-.851c.481 0 .814.333.814.851s-.37.851-.814.851zm3.515-1.073h-.962v-.888h-.333v2.22h.333v-.999h.962v.999h.333v-2.22h-.333v.888zm1.258-.518h.481v1.887h.333V9.878h.518v-.333h-1.332v.333zm4.329.555h-.222v-.555h.777v-.333h-1.11v2.22h.555c.148 0 .333-.037.481-.111.185-.111.259-.333.259-.518a.597.597 0 0 0-.222-.481c-.111-.185-.37-.222-.518-.222zm0 .999h-.222v-.703h.222c.37 0 .444.185.444.333 0 .37-.37.37-.444.37zm1.813.296h1.221v-.333h-.888v-.666h.851v-.333h-.851v-.555h.888v-.333h-1.221v2.22zm3.441-1.184a.446.446 0 0 0 .185-.185c.074-.111.074-.185.074-.259a.565.565 0 0 0-.148-.37c-.148-.148-.37-.185-.518-.185s-.259.037-.407.074a1.213 1.213 0 0 0-.296.222l.222.222c.037-.037.074-.111.185-.148.111-.074.185-.074.259-.074s.185 0 .259.074c.074.037.111.111.111.222s-.037.185-.111.222c-.074.074-.222.111-.333.111h-.185v.333h.185c.111 0 .296 0 .407.111.111.074.148.148.148.259 0 .111-.037.222-.111.259-.111.111-.259.111-.333.111a.625.625 0 0 1-.37-.111c-.074-.037-.148-.148-.222-.259l-.296.148c.074.148.185.259.296.37a.747.747 0 0 0 .518.185.932.932 0 0 0 .592-.185c.148-.148.222-.296.222-.481a.625.625 0 0 0-.111-.37c0-.185-.111-.259-.222-.296zm3.145-.74c-.185.185-.37.444-.37.851 0 .296.111.592.37.851.148.111.37.296.777.296.148 0 .37-.037.592-.185v-.407c-.148.111-.333.259-.592.259a.798.798 0 0 1-.814-.814c0-.481.333-.851.814-.851a.81.81 0 0 1 .592.259v-.407a1.086 1.086 0 0 0-.592-.148c-.296 0-.555.074-.777.296zm2.627 0c-.185.185-.37.444-.37.851 0 .296.111.592.37.851.148.111.37.296.777.296.148 0 .37-.037.592-.185v-.407c-.148.111-.333.259-.592.259a.798.798 0 0 1-.814-.814c0-.481.333-.851.814-.851a.81.81 0 0 1 .592.259v-.407a1.086 1.086 0 0 0-.592-.148c-.296 0-.555.074-.777.296zm3.441-.296c-.666 0-1.147.481-1.147 1.147s.481 1.147 1.147 1.147 1.147-.481 1.147-1.147-.518-1.147-1.147-1.147zm0 1.961c-.481 0-.814-.333-.814-.851s.333-.851.814-.851c.481 0 .814.333.814.851s-.37.851-.814.851zm3.182-1.813c-.148-.111-.333-.111-.481-.111h-.481v2.183h.333v-.888h.148c.148 0 .37-.037.518-.185a.628.628 0 0 0 .222-.481c.037-.185-.037-.37-.259-.518zm-.444.888h-.148v-.666h.148c.37 0 .444.222.444.333-.037.185-.185.333-.444.333z"/></svg><svg id="p-minimax" viewBox="0 0 64 11" width="64" height="11" y="858"><style>.atst0{fill:#fff}.atst1{fill:#c6c7c7}.atst2{fill:#fefefe}.atst3{fill:#0096cb}</style><path class="atst0" d="M62.9 3.3h-.5v1.2h.2V4H62.9v-.1H62.6v-.4H62.9v-.2zm0 1.8c-.2 0-.4 0-.6-.2-.2-.1-.3-.2-.4-.4-.1-.2-.2-.4-.2-.6 0-.2 0-.4.2-.6l.4-.4c.2-.1.4-.2.6-.2V3c-.2 0-.3 0-.5.1s-.3.2-.3.3c-.1.2-.1.4-.1.5 0 .2 0 .3.1.5s.2.3.4.3c.2.1.3.1.5.1l-.1.3zm0-1s.1.1.2.3l.1.2h.2l-.2-.2c-.1-.1-.1-.2-.2-.2.1-.2 0-.2-.1-.1.2-.1.3-.1.4-.2.1-.1.1-.1.1-.2s0-.1-.1-.2c0-.1-.1-.1-.2-.1h-.2v.2h.1s.1 0 .1.1v.1c0 .1 0 .1-.1.1h-.2l.1.2zm0-1.3c.2 0 .4.1.6.2.2.1.3.2.4.4.1.2.2.4.2.6 0 .2 0 .4-.1.6s-.2.3-.4.4c-.2.1-.4.2-.6.2v-.3c.2 0 .3 0 .5-.1s.3-.2.4-.3c.1-.2.1-.3.1-.5s0-.3-.1-.5c-.1-.1-.2-.3-.4-.3-.3-.2-.4-.2-.6-.2v-.2z"/><path class="atst1" d="M11.8.5L1.9 10.8v.1s0 .1.1.1H6.4L10 7.5V10s0 .1.1.1h.1l3-2.3V11h2.7V.5s0-.1-.1-.1h-.1L11.9 4V.5s0-.1-.1-.1c0 0-.1 0 0 .1h-.1V4.3h.1L15.5.8v10h-2.3V7.5v-.1h-.1l-3 2.3V7.2s0-.1-.1-.1h-.1l-3.8 3.6h-4L11.8.5h-.1.1z"/><path class="atst1" d="M11.8 4.2V.5L2 10.8v.1h4.2L10 7.2v2.7l3.1-2.4v3.4h2.6V.5zM23.6 10.8h.1V4.1h1.1v2.6l.1.1h2.5v-.1h.1V4.1h1v6.6h-1V7.8h-2.7v2.9h-1.2v.1h.1-.1v.1H25v-3h2.3v3H28.7l.1-.1V4l-.1-.1H27.3v2.7H25V3.9H23.6l-.1.1v6.8l.1.1z"/><path class="atst1" d="M27.4 4v2.7h-2.5V4h-1.3v6.8h1.3v-3h2.5v3h1.3V4zM30 4v.1h1.1v4.5s0 .1.1.1h.1l2.5-4.5H35v6.6h-1V6.4s0-.1-.1-.1h-.1l-2.6 4.5h-1.1V4h-.2v7H31.4l2.4-4.2V11H35.2V3.9H33.8h-.1l-2.4 4.2V3.9H30V4h-.1.1z"/><path class="atst1" d="M33.8 4l-2.6 4.6V4H30v6.9h1.3l2.5-4.5v4.5h1.3V4zM36.4 10.8h.1V4.1h2l1.2 4.6s0 .1.1.1c0 0 .1 0 .1-.1l1.2-4.6h2v6.6H42V5.5s0-.1-.1-.1c0 0-.1 0-.1.1l-1.4 5.3h-1.2l-1.4-5.3-.1-.1s-.1 0-.1.1v5.3h-1.2.1-.1v.1h1.3s.1 0 .1-.1V6.2l1.2 4.6s0 .1.1.1h1.4s.1 0 .1-.1l1.2-4.6v4.6c0 .1 0 .1.1.1H43.3V3.9h-2.2s-.1 0-.1.1l-1.2 4.3L38.7 4l-.1-.1h-2.2V10.9h.1l-.1-.1z"/><path class="atst1" d="M41.1 4l-1.3 4.7L38.6 4h-2.2v6.8h1.4V5.5l1.3 5.3h1.4l1.4-5.3v5.3h1.3V4zM49.6 10.9v-.1h-1.1L48 9.3l-.1-.1h-2.2s-.1 0-.1.1l-.4 1.5h-1l2.1-6.7h1l2.3 6.8v-.1.1h.1L47.5 4s0-.1-.1-.1h-1.2s-.1 0-.1.1L44 10.8v.1h1.3s.1 0 .1-.1l.4-1.5h2.1l.5 1.5s0 .1.1.1h1.3v-.1l-.2.1zm-2-2.8h.1l-.8-2.5s0-.1-.1-.1c0 0-.1 0-.1.1L46 8.1v.1h1.6v-.1h.1-.1V8h-1.4l.6-2.1.7 2.2h.1V8v.1z"/><path class="atst1" d="M46.8 5.6l.8 2.5h-1.5l.7-2.5zm0-1.6h-.6l-2.1 6.9h1.2l.5-1.6H48l.5 1.6h1.2L47.4 4h-.6zM59.9 8.3v.1h1.4v-.1h-.1c-.1.9-.6 1.6-1 1.9-.4.3-.9.5-1.6.5-.8 0-1.4-.3-2-.9-.5-.6-.8-1.4-.8-2.4 0-1.1.3-1.9.8-2.5.5-.6 1.2-.9 2-.9.7 0 1.3.2 1.8.7.1.1.3.4.4.7.2.3.3.6.3.9h.1v-.1h-1.3v.1h.1c-.1-.3-.2-.7-.4-1-.3-.2-.6-.3-1-.3-.5 0-.9.2-1.2.6-.3.4-.5 1-.5 1.8 0 .9.1 1.5.5 1.9.3.4.7.6 1.2.6.3 0 .7-.1.9-.3.3-.3.4-.6.5-1.1l-.1-.2v.1-.1h-.1c-.1.5-.2.8-.4 1-.2.2-.5.3-.8.3-.4 0-.8-.2-1-.5-.3-.3-.4-.9-.4-1.7 0-.8.1-1.3.4-1.7.3-.3.6-.5 1-.5.3 0 .6.1.8.3.2.2.3.5.3.9 0 0 0 .1.1.1H61.2v-.1c0-.3-.1-.6-.2-.9-.1-.3-.3-.6-.4-.8-.5-.5-1.2-.8-1.9-.7-.9 0-1.6.3-2.2.9-.6.6-.8 1.5-.8 2.7 0 1 .3 1.9.8 2.5.5.6 1.3.9 2.1.9.7 0 1.3-.2 1.7-.6.5-.4.9-1.1 1-2.1v-.1h-1.5s-.1 0-.1.1h.2z"/><path class="atst1" d="M58.7 3.9c.8 0 1.4.2 1.9.7.3.3.6 1.1.7 1.6H60c-.1-.3-.2-.7-.4-.9-.2-.2-.5-.3-.9-.3-.5 0-.8.2-1.1.5-.3.3-.4.9-.4 1.7 0 .9.1 1.4.4 1.8s.6.5 1.1.5c.3 0 .6-.1.9-.3.2-.2.3-.5.5-1h1.4c-.1.9-.6 1.6-1 2-.4.3-1 .5-1.7.5-.8 0-1.5-.3-2-.9-.5-.6-.8-1.4-.8-2.4v-.1c0-1 .3-1.9.8-2.5.3-.6 1-.8 1.9-.9zM17.1 4v.1h1.1v4.5s0 .1.1.1h.1L21 4.1h1.1v6.6h-1V6.4s0-.1-.1-.1h-.1l-2.6 4.4h-1.2V4v.1V4H17v7H18.5l2.4-4.2V11H22.3V3.9H20.9h-.1l-2.4 4.3V3.9h-1.3V4H17h.1z"/><path class="atst1" d="M20.9 4l-2.6 4.6V4h-1.2v6.9h1.3L21 6.4v4.5h1.2V4zM50.6 10.8v.1H52v-3l1.9 3H55.7v-.1l-2.4-3.7L55.6 4v-.1H53.8L52 6.6V3.9H50.5V10.9h.1v-.1h.1V4.1h1.1v2.8s0 .1.1.1h.1l2-2.9h1.3l-2.2 3v.1l2.3 3.6H54l-2-3.3s-.1-.1-.1 0-.1.1-.1.1v3.1l-1.2.1z"/><path class="atst1" d="M53.9 4l-2 2.9V4h-1.3v6.8h1.3V7.6l2.1 3.3h1.6l-2.5-3.7L55.5 4z"/><path class="atst0" d="M24.1 2.9V1.4h-.6v-.2h1.4v.2h-.6v1.5h-.2zm-1.9-1.7h.2V2c.1 0 .2 0 .2-.1 0 0 .1-.1.2-.3 0-.1.1-.2.1-.2l.1-.1c.1 0 .1-.1.2-.1h.1v.2c-.1 0-.1 0-.2.1 0 0-.1.1-.1.2s0 .2-.1.2c0 0-.1.1-.2.1.1 0 .2.1.3.3l.3.6H23l-.3-.5c-.1-.1-.2-.2-.2-.3-.1 0-.1-.1-.2-.1v.8h-.2c.1.1.1-1.6.1-1.6zm-1.6 1.7V1.2h1.3v.2h-1v.5h1v.2h-1v.6H22v.2h-1.4zm-1.5-1.7h1.1v1.7H20V1.4h-.6v1.3c0 .1-.1.2-.1.2-.1 0-.1.1-.2.1h-.2v-.2h.1c.1 0 .1 0 .1-.1V1.2zm6.7 0v.2h-.4V2h.4v.2h-.4v.7h-.2V1.2h.6zm-7.9.7v.2h.7c0 .2-.1.3-.2.5-.1.1-.2.2-.4.2-.3 0-.5-.2-.5-.5l-.2.1c.1.4.3.6.7.6.3 0 .5-.1.6-.3.1-.2.2-.4.2-.7 0-.2 0-.3-.1-.4l-.3-.3c-.1-.1-.3-.1-.5-.1s-.3 0-.5.1c-.1.1-.2.2-.2.4l.2.1c.1-.2.2-.3.5-.3.2 0 .3 0 .4.2.1.1.2.2.2.4l-.6-.2zm7.9.3V2c.2 0 .3 0 .3-.1.1-.1.1-.1.1-.2s0-.1-.1-.2c0-.1-.1-.1-.1-.1h-.2v-.2h.3c.1 0 .2 0 .2.1 0 0 .1.1.1.2v.2c0 .2 0 .3-.1.4-.1 0-.2.1-.5.1zm1.7-1.1v.2c-.2 0-.3.1-.4.2-.1.1-.2.3-.2.6 0 .2 0 .4.2.5.1.1.3.2.4.2V3c-.2 0-.3 0-.4-.1l-.3-.3c-.1-.1-.1-.3-.1-.5 0-.3.1-.5.2-.7.1-.2.3-.3.6-.3zm14.4.1h.2V2c.1 0 .2 0 .2-.1 0 0 .1-.1.2-.3 0-.1.1-.2.1-.2l.1-.1s.1-.1.2-.1h.1v.2c-.1 0-.1 0-.2.1 0 0-.1.1-.1.2s-.1.2-.1.3c0 0-.1.1-.2.1.1 0 .2.1.3.3l.3.6h-.3l-.3-.5c-.1-.1-.2-.2-.2-.3-.1 0-.1-.1-.2-.1v.8h-.2l.1-1.7zm-.5 1.1l.2.1c-.1.2-.1.3-.3.4-.1.1-.3.1-.5.1s-.3 0-.5-.1l-.3-.3c-.1-.1-.1-.3-.1-.5s0-.3.1-.5.2-.2.3-.3c.1-.1.3-.1.4-.1.2 0 .3 0 .5.1.1.1.2.2.2.4l-.2.1c0-.1-.1-.2-.2-.3-.1-.1-.2-.1-.3-.1-.1 0-.2 0-.3.1-.1.1-.2.1-.2.2s-.1.2-.1.3c0 .2 0 .3.1.4 0 .1.1.2.2.2.1.1.2.1.3.1.1 0 .2 0 .3-.1.3 0 .4-.1.4-.2zm-2.8.6V1.2h1.3v.2h-1v.5h1v.2h-1v.6H40v.2h-1.4zm-.4 0H38v-.7c-.2.1-.4.1-.6.1-.1 0-.2 0-.3-.1-.1 0-.2-.1-.2-.2s-.1-.2-.1-.3v-.5h.2v.5c0 .2 0 .3.1.4.1 0 .2.1.2.1.2 0 .3 0 .5-.1v-.9h.2l.2 1.7zm-3-1.7h.2v1.4l.9-1.4h.2v1.7h-.2V1.5l-.9 1.4h-.2V1.2zm-1.8 1.7V1.2h.2v.7h.9v-.7h.2v1.7h-.2v-.8h-.9v.8h-.2zm-1.8 0l.6-.9-.6-.8h.3l.3.5c.1.1.1.2.1.2 0-.1.1-.1.1-.2l.3-.5h.3l-.4.8.7.9H33l-.4-.6s0-.1-.1-.1c0 .1-.1.1-.1.1l-.4.6h-.4zm-1.5 0V1.2h1.3v.2h-1v.5h1v.2h-1v.6h1.1v.2h-1.4zm-1 0V1.4h-.6v-.2h1.4v.2h-.6v1.5h-.2zm-1.6 0v-.2c.2 0 .3-.1.4-.2s.2-.3.2-.5c0-.1 0-.3-.1-.4 0-.1-.1-.2-.2-.2-.1-.1-.2-.1-.3-.1v-.2c.2 0 .3 0 .4.1l.3.3c.1.1.1.3.1.5s0 .3-.1.5l-.3.3c-.1.1-.3.1-.4.1zM44 1.2v.2c0 .1 0 .2-.1.3l-.2.5h.3v.2h-.3l-.2.5h-.2l.7-1.7c-.1 0 0 0 0 0zm0 1.2v-.2h.3l-.2-.5c-.1-.1-.1-.2-.1-.3v-.2h.1l.7 1.7h-.3l-.2-.5H44zm1.7-1.2v.2h-.1c-.1 0-.2 0-.3.1-.1.1-.1.1-.1.2v.2c0 .1.1.1.1.1h.2v.2l-.1.1c0 .1-.1.1-.2.2l-.2.3h-.3l.3-.5c.1-.1.1-.2.2-.2l.1-.1c-.2 0-.3-.1-.4-.2.1 0 .1-.1.1-.2s0-.2.1-.3c0-.1.1-.1.2-.2 0 0 .2 0 .4.1zm1.8 0h.2V2c.1 0 .2 0 .2-.1 0 0 .1-.1.2-.3 0-.1.1-.2.1-.2l.1-.1c.1 0 .1-.1.2-.1h.1v.2c-.1 0-.1 0-.2.1 0 0-.1.1-.1.2-.1.1-.1.2-.2.3H48c.1 0 .2.1.3.3l.4.6h-.3l-.3-.5c-.1-.1-.1-.2-.2-.3 0 0-.1-.1-.2-.1v.8h-.2V1.2zm-1.8.9v-.2h.5v-.6h-.5v-.1h.7v1.7h-.2v-.8h-.5zm3.9-1v.2c-.2 0-.3.1-.4.2-.1.1-.2.3-.2.6 0 .2.1.4.2.5.1.1.3.2.4.2V3c-.2 0-.3 0-.4-.1l-.3-.3c-.1-.1-.1-.3-.1-.5 0-.3.1-.5.2-.7.2-.2.4-.3.6-.3zm3.2.1h1.4v1.7H54V1.4h-1v1.5h-.2V1.2zm-2 1.7V1.2h.3l.4 1.2c0 .1.1.2.1.3 0-.1.1-.2.1-.3l.4-1.2h.3v1.7h-.2V1.4l-.5 1.5h-.2L51 1.4v1.5h-.2zm-1.2 0v-.2c.2 0 .3-.1.4-.2.1-.1.2-.3.2-.5 0-.1 0-.3-.1-.4 0-.1-.1-.2-.2-.2-.1-.1-.2-.1-.3-.1v-.2c.2 0 .3 0 .4.1l.3.3c.1.1.1.3.1.5s0 .3-.1.5l-.3.3c-.1.1-.2.1-.4.1zm5.6-1.7v.2-.1c0 .1-.1.2-.1.3l-.2.5h.3v.2h-.3l-.2.5h-.2l.5-1.6h.2zm2.7 0h.2v1.4l.9-1.4h.2v1.7H59V1.5l-.9 1.4h-.2V1.2zm-1.7 1.7V1.2h.2v.7h.9v-.7h.2v1.7h-.2v-.8h-.9v.8h-.2zm-1-.5v-.2h.3l-.2-.5c0-.1-.1-.2-.1-.3v-.2h.1l.7 1.7h-.3l-.2-.5h-.3zm5.2-1.2v.2h-.1c-.1 0-.2 0-.3.1 0 .1-.1.1-.1.2v.2c0 .1.1.1.1.1h.2v.2l-.1.1c0 .1-.1.1-.2.2l-.2.3h-.3l.3-.5c.2 0 .3 0 .3-.1l.1-.1c-.2 0-.3-.1-.4-.2-.1-.1-.1-.2-.1-.3 0-.1 0-.2.1-.3 0-.1.1-.1.2-.2h.3l.2.1zm0 .9v-.2h.5v-.6h-.5v-.1h.7v1.7h-.2v-.8h-.5z"/><path class="atst2" d="M1.1.4l-.5 1L2.1.5l-1.7 2L3 .5.6 3.8 4.3.7.6 5.2 5.5.9l-5 5.5L7 1.1.6 8.2l8-7.1L0 10.4V.4h1.1zM9.5.3L1.4 7.5 7.8.4 1.4 5.8 6.3.4l-5 4.3L5 .4l-3.7 3L3.8.5.9 2.3 2.5.5l-1.7.8.5-.9H0v10.3L9.5.4V.3z"/><path class="atst0" d="M0 .4h1.2l-.6 1 1.8-1L.5 2.6 3.6.4l-3 3.5L4.9.4.6 5.3 6.3.4.6 6.6 7.7.4.6 8.2 9.5.4 0 10.7z"/><path class="atst2" d="M11.8.4L1.9 10.7v.1H6.4L10 7.3v2.5s0 .1.1.1h.1l3-2.3v3.2h2.7V.4s0-.1-.1-.1h-.1L12 3.8V.4c-.1-.1-.1-.1-.2 0V.3c-.1 0-.1 0 0 .1h-.1V4.2h.1L15.5.7v10h-2.3V7.4v-.1h-.1l-3 2.3V7.1s0-.1-.1-.1l-3.8 3.6h-4L11.8.4h-.1.1z"/><path class="atst3" d="M11.8 4.1V.4L2 10.7h4.2L10 7.1v2.7l3.1-2.4v3.3h2.6V.4z"/><path class="atst2" d="M23.6 10.7h.1V3.9h1.1v2.7h2.6l.1-.1V3.9h1v6.7h-1V7.7l-.1-.1h-2.6v3h-1.2v.1h.1-.1v.1H25v-3h2.3v3H28.7l.1-.1V3.9l-.1-.1v-.1h-1.3l-.1.1v2.6H25V3.8l-.1-.1h-1.3v.1l-.1.1v6.8l.1.1z"/><path class="atst3" d="M27.4 3.9v2.6h-2.5V3.9h-1.3v6.8h1.3v-3h2.5v3h1.3V3.9z"/><path class="atst2" d="M30 3.9V4h1.1v4.5s0 .1.1.1h.1L33.8 4H35v6.7h-1V6.2s0-.1-.1-.1h-.1l-2.6 4.5h-1.1V3.8l-.1.1h-.1v7H31.4l2.4-4.2V10.9H35.2V3.8H33.8h-.1L31.3 8V3.8H30v.1h-.1.1z"/><path class="atst3" d="M33.8 3.9l-2.6 4.5V3.9H30v6.8h1.3l2.5-4.5v4.5h1.3V3.9z"/><path class="atst2" d="M36.4 10.7h.1V3.9h2l1.2 4.6s0 .1.1.1c0 0 .1 0 .1-.1l1.2-4.6h2v6.7H42V5.3s0-.1-.1-.1c0 0-.1 0-.1.1l-1.4 5.3h-1.2l-1.4-5.3-.1-.1s-.1 0-.1.1v5.3l-1.2.1v.1h1.3s.1 0 .1-.1V6.1l1.2 4.6s0 .1.1.1h1.4s.1 0 .1-.1l1.2-4.6v4.6c0 .1 0 .1.1.1H43.3V3.8h-2.2s-.1 0-.1.1l-1.2 4.3-1.2-4.3-.1-.1h-2.2V10.8h.1v-.1z"/><path class="atst3" d="M41.1 3.9l-1.3 4.6-1.2-4.6h-2.2v6.8h1.4V5.3l1.3 5.4h1.4l1.4-5.4v5.4h1.3V3.9z"/><path class="atst2" d="M49.6 10.7v-.1h-1.1L48 9.1s0-.1-.1-.1h-2.2s-.1 0-.1.1l-.4 1.5h-1l2.1-6.7h1l2.3 6.8v-.1.1h.1l-2.2-6.9s0-.1-.1-.1h-1.2s-.1 0-.1.1L44 10.7v.1h1.3s.1 0 .1-.1l.4-1.5h2.1l.5 1.5s0 .1.1.1h1.3v-.1h-.2zm-2-2.7h.1l-.8-2.5s0-.1-.1-.1c0 0-.1 0-.1.1L46 8v.1h1.6v-.2h-1.4l.6-2.1.7 2.2h.1v-.1.1z"/><path class="atst3" d="M46.8 5.5l.8 2.5h-1.5l.7-2.5zm0-1.6h-.6l-2.1 6.9h1.2l.5-1.6H48l.5 1.6h1.2l-2.2-6.9h-.7z"/><path class="atst2" d="M59.9 8.2v.1h1.4v-.1h-.1c-.1.9-.6 1.6-1 1.9-.4.3-.9.5-1.6.5-.8 0-1.4-.3-2-.9-.5-.6-.8-1.4-.8-2.4 0-1.1.3-1.9.8-2.5.5-.6 1.2-.9 2-.9.7 0 1.3.2 1.8.7.1.1.3.4.4.7.1.3.2.6.2.9h.1V6h-1.3v.1h.1c-.1-.3-.2-.7-.4-1s-.5-.3-.9-.3c-.5 0-.9.2-1.2.6-.3.4-.5 1-.5 1.8 0 .9.1 1.5.5 1.9.3.4.7.6 1.2.6.3 0 .7-.1.9-.4.3-.3.4-.6.5-1.1h-.1v.1-.1h-.1c-.1.5-.2.8-.4 1-.2.2-.5.3-.8.3-.4 0-.8-.2-1-.5-.3-.3-.4-.9-.4-1.7 0-.8.1-1.3.4-1.7.3-.3.6-.5 1-.5.3 0 .6.1.8.3.2.2.3.5.3.9 0 0 0 .1.1.1H61.2v-.1c0-.3-.1-.6-.2-.9-.1-.3-.3-.6-.4-.8-.5-.5-1.2-.8-1.9-.8-.9 0-1.6.3-2.2 1-.6.6-.8 1.5-.8 2.7 0 1.1.3 1.9.8 2.6.5.6 1.3.9 2.1.9.7 0 1.3-.2 1.7-.6.5-.4.9-1.1 1-2.1v-.1h-1.5s-.1 0-.1.1l.2-.1z"/><path class="atst3" d="M56.6 4.7c-.5.6-.8 1.5-.8 2.6 0 1 .3 1.9.8 2.5.5.6 1.2.9 2 .9.7 0 1.2-.2 1.7-.5.4-.3.9-1 1-2h-1.4c-.1.5-.2.8-.5 1-.2.2-.5.3-.9.3-.5 0-.8-.2-1.1-.5S57 8 57 7.2s.2-1.4.4-1.7c.4-.3.8-.5 1.2-.5.3 0 .6.1.9.3.2.2.3.6.4.9h1.3c-.1-.6-.3-1.4-.7-1.6-.5-.5-1.1-.7-1.8-.7-.9-.1-1.6.2-2.1.8z"/><path class="atst2" d="M17.1 3.9V4h1.1v4.5s0 .1.1.1h.1L21 4h1.1v6.7h-1V6.2s0-.1-.1-.1h-.1l-2.6 4.5h-1.2V3.9 4v-.1H17V10.8H18.5l2.4-4.2V10.8H22.3V3.8H20.9h-.1l-2.4 4.3V3.8h-1.3v.1H17h.1z"/><path class="atst3" d="M20.9 3.9l-2.6 4.5V3.9h-1.2v6.8h1.3L21 6.2v4.5h1.2V3.9z"/><path class="atst2" d="M50.6 10.7v.1H52v-3l1.9 3H55.7v-.1L53.3 7l2.3-3.1v-.1H53.8L52 6.5V3.8H50.5V10.8h.1v-.1h.1V3.9h1.1v2.8s0 .1.1.1h.1l2-2.9h1.3l-2.2 3V7l2.3 3.6H54l-2-3.2s-.1-.1-.1 0-.1 0-.1.1v3.1l-1.2.1z"/><path class="atst3" d="M53.9 3.9l-2 2.9V3.9h-1.3v6.8h1.3V7.5l2.1 3.2h1.6L53.1 7l2.4-3.1z"/></svg><svg id="p-yota" viewBox="0 0 46 64" width="46" height="64" y="869"><style>.aust0{fill:#00aeef}</style><path class="aust0" d="M33 0c1.4 0 2.5 1.1 2.5 2.5V5c0 3.3-1.3 6.5-3.6 8.9-1.6 1.7-3.7 2.8-6 3.4l-.2.1v6.4h.2c2.3.5 4.3 1.7 6 3.4 2.3 2.4 3.6 5.5 3.6 8.9v2.5c0 1.4-1.1 2.5-2.5 2.5s-2.5-1.1-2.5-2.5V36c0-2-.8-3.9-2.2-5.3-1.4-1.4-3.2-2.2-5.1-2.2-1.9 0-3.8.8-5.1 2.2-1.4 1.4-2.2 3.3-2.2 5.3v2.5c0 1.4-1.1 2.5-2.5 2.5s-2.5-1.1-2.5-2.5V36c0-3.3 1.3-6.5 3.6-8.9 1.6-1.7 3.7-2.9 6-3.4h.2v-6.4l-.2-.1c-2.3-.5-4.3-1.7-6-3.4-2.3-2.4-3.6-5.5-3.6-8.9V2.6C10.8 1.2 12 0 13.4 0s2.5 1.1 2.5 2.5V5c0 2 .8 3.9 2.2 5.3 1.4 1.4 3.2 2.2 5.2 2.2 1.9 0 3.8-.8 5.1-2.2C29.8 8.9 30.6 7 30.6 5V2.6C30.5 1.2 31.6 0 33 0m-9.8 31c-2.7 0-4.9 2.2-4.9 4.9s2.2 4.9 4.9 4.9 4.9-2.2 4.9-4.9-2.2-4.9-4.9-4.9m21.9 31.2c.2.6 0 1.2-.6 1.5-.1.1-.3.1-.4.1-.5 0-.9-.3-1-.7l-.9-2.2h-5l-.9 2.2c-.2.6-.9.8-1.5.6-.6-.2-.8-.9-.6-1.5l4.4-10.6c.3-.6.7-.8 1.1-.8.5 0 .9.3 1.1.8l4.3 10.6zm-3.9-3.5l-1.6-3.8-1.6 3.8h3.2zm-17.4-1.3c0 3.3-1.8 6.5-5.8 6.5-1.9 0-3.4-.7-4.5-1.9-1-1.2-1.5-2.8-1.5-4.7 0-4.1 2.4-6.8 6-6.8 3.6.1 5.8 2.7 5.8 6.9m-2.4 0c0-2.9-1.1-4.4-3.4-4.4-3.1 0-3.6 2.8-3.6 4.4 0 1.3.3 2.4.9 3.1.6.7 1.5 1.1 2.7 1.1 2.5 0 3.4-2.2 3.4-4.2m12-6.6h-7.6c-.6 0-1.1.5-1.1 1.2 0 .6.5 1.2 1.1 1.2h2.6v9.5c0 .6.5 1.2 1.2 1.2.3 0 .6-.1.8-.3.2-.2.3-.5.3-.8v-9.5h2.7c.6 0 1.2-.5 1.2-1.2 0-.8-.6-1.3-1.2-1.3m-23.1.2c-.6-.3-1.3-.1-1.6.4l-2.9 5-2.9-5c-.3-.6-1-.7-1.6-.4-.6.3-.7 1-.4 1.6L4.7 59v3.6c0 .6.5 1.2 1.2 1.2.6 0 1.2-.5 1.2-1.2V59l3.7-6.5c.3-.5.1-1.2-.5-1.5"/></svg><svg viewBox="5 2 34 21" width="34" height="21" id="phone" y="933"><path class="avst0" d="M32 18v5H12v-5l4.5-8.1V7h4v2.5h3V7h4v2.8L32 18zm-5.5-7.8V8h-2v2.5h-5V8h-2v2.1L13 18v4h18v-4l-4.5-7.8z"/><path class="avst0" d="M35.4 3.9c-2.7-2.6-24.1-2.6-26.8 0C6.7 5.9 5.2 9 6 11c.4.9 1.3 2 4 2 2.9 0 4.5-1.5 4.5-4.1 0-2.3 3.8-3.6 7.5-3.6 2 0 3.9.3 5.3 1 1 .5 2.2 1.3 2.2 2.6 0 3.4 1.3 4.1 4.5 4.1 2.6 0 3.6-1.2 4-2 .9-2.1-.7-5.1-2.6-7.1zM10 12c-1.6 0-2.7-.5-3-1.4-.3-.6-.2-1.5.1-2.3 1.2.9 2.4 1.4 3.8 1.4.8 0 1.7-.2 2.6-.5C13.4 11 12.3 12 10 12zm17.7-6.7c-1.5-.7-3.5-1.1-5.7-1.1-3.7 0-7.6 1.2-8.4 3.7-2.4 1.1-4.2.9-6.1-.7.5-.9 1.1-1.8 1.9-2.4 2.2-2.2 23-2.2 25.3 0 .7.7 1.3 1.6 1.8 2.5-2.3 1.9-4.4 1.4-6.1.7-.4-1.2-1.2-2.1-2.7-2.7zm9.3 5.3c-.4.9-1.4 1.4-3 1.4-2.9 0-3.5-.5-3.5-2.8.8.3 1.7.5 2.6.5 1.2 0 2.5-.4 3.8-1.4.3.8.3 1.7.1 2.3z"/><path class="avst0" d="M21 12h2v2h-2zM18 12h2v2h-2zM24 12h2v2h-2zM21 15h2v2h-2zM18 15h2v2h-2zM24 15h2v2h-2zM21 18h2v2h-2zM18 18h2v2h-2zM24 18h2v2h-2z"/></svg><svg viewBox="0 0 60 64" width="60" height="64" id="project" y="954"><path class="awst0" d="M29.9 21.5c2.8 0 5-2.2 5-5s-2.2-5-5-5-5 2.2-5 5 2.2 5 5 5zm0-8c1.7 0 3 1.3 3 3s-1.3 3-3 3-3-1.3-3-3 1.3-3 3-3z"/><path class="awst0" d="M56.9 41c-1.3 0-2.4.8-2.8 2h-7.2l-9.8-21c1.2-1.5 1.9-3.4 1.9-5.5 0-3.9-2.5-7.2-6-8.5V2c0-1.1-.7-2-1.7-2h-2.7c-.9 0-1.7.9-1.7 2v6c-3.5 1.2-6 4.6-6 8.5 0 2.1.7 4 1.9 5.5L13 43H5.8c-.4-1.2-1.5-2-2.8-2-1.7 0-3 1.3-3 3s1.3 3 3 3c1.3 0 2.4-.8 2.8-2h6.3l-4.6 9.9C7 55.9 7 57 7.4 58c.2.7.7 1.2 1.2 1.7l-1.5 2.9c-.2.5 0 1.1.4 1.3.1.1.2.1.4.1.4 0 .7-.2.9-.6l1.5-2.9c.3.1.5.1.8.1 1.5 0 3-.9 3.6-2.3L20.9 45h6v1c0 1.1.9 2 2 2h2c1.1 0 2-.9 2-2v-1h6l6.2 13.3c.7 1.5 2.1 2.3 3.6 2.3.3 0 .5 0 .8-.1l1.5 2.9c.2.4.5.6.9.6.1 0 .3 0 .4-.1.5-.2.7-.8.4-1.3l-1.5-2.9c.5-.4.9-1 1.2-1.7.5-1 .4-2.1 0-3.1L47.8 45h6.3c.4 1.2 1.5 2 2.8 2 1.7 0 3-1.3 3-3s-1.3-3-3-3zm-28-39h2v5.6c-.3 0-.7-.1-1-.1s-.7 0-1 .1V2zm1 7.5c3.9 0 7 3.1 7 7s-3.1 7-7 7-7-3.1-7-7 3.1-7 7-7zm-17 47.9c-.2.5-.6.8-1.1 1-.5.2-1 .2-1.5-.1-.5-.2-.8-.6-1-1.1s-.2-1 .1-1.5l15-32.2c1 .8 2.3 1.4 3.6 1.8L12.9 57.4zm18-11.4h-2v-4h2v4zm2-3v-1c0-1.1-.9-2-2-2h-2c-1.1 0-2 .9-2 2v1h-5.1l8.1-17.4L38 43h-5.1zm17.7 14.3c-.2.5-.5.9-1 1.1s-1 .2-1.5.1c-.5-.2-.9-.5-1.1-1L32 25.3c1.3-.3 2.6-.9 3.6-1.8l15 32.2c.2.5.2 1.1 0 1.6z"/></svg><svg viewBox="0 0 14 20" width="14" height="20" id="social-facebook" y="1018"><path class="axst0" d="M9 19v-7h3l1-4H9V6c0-.6.4-1 1-1h3V1.5S11 1 10 1 4 1 4 6v2H1v4h3v7h5z"/></svg><svg id="social-ok" viewBox="0 0 80 80" width="80" height="80" y="1038"><style>.ayst0{fill:#fff;stroke:red;stroke-width:2.961;stroke-miterlimit:10}</style><path class="ayst0" d="M76 78H3.9c-1 0-1.9-.9-1.9-1.9V4c0-1 .9-1.9 1.9-1.9H76c1 0 1.9.9 1.9 1.9v72.1c0 1-.9 1.9-1.9 1.9z"/><path d="M72.9 33.9c0-2.5-1.8-4.1-4.3-4.2h-1.5v-.8-7.2c0-.7-.2-1.3-.7-1.8-4.5-5-8.9-10.1-13.4-15.1-.3-.4-.7-.7-1.1-1H16.1c-1.8.6-2.3 1.9-2.3 3.7v22.2h-1.5C9.8 29.8 8 31.4 8 34v20.8c0 2.5 1.7 4.2 4.3 4.2h1.5v13.5c0 1.8.5 3.1 2.3 3.7h48.7c1.8-.6 2.3-1.9 2.3-3.7-.1-4.2 0-8.4 0-12.6V59h1.5c2.6 0 4.3-1.7 4.3-4.2.1-7 .1-13.9 0-20.9zM16.7 6.8H50v14c0 1.4.5 1.9 1.9 1.9H64v7H16.6c.1-7.7.1-15.3.1-22.9zm38.9 30.5c-.1-.3-.3-.4-.7-.4-.3 0-.6.1-.7.4-.1.3-.2.9-.2 2v10c0 .9.1 1.5.2 1.8.1.3.4.4.7.4.4 0 .7-.2.8-.5.1-.3.2-1 .2-2v-2.5h-1.1v-3.2h6.4v11.1h-3.4l-.5-1.4c-.4.6-.8 1.1-1.4 1.4-.6.3-1.2.5-2 .5-.9 0-1.8-.2-2.6-.7-.8-.4-1.4-1-1.8-1.6s-.7-1.3-.8-2.1c-.1-.7-.1-1.8-.1-3.2v-6.2c0-2 .1-3.4.3-4.3.2-.9.8-1.7 1.9-2.5 1-.8 2.4-1.1 4-1.1s2.9.3 4 1 1.7 1.4 2.1 2.3.5 2.2.5 3.9v.9h-5.5v-1.9c-.1-1.1-.1-1.8-.3-2.1zm-9.1-3.6l-2.8 20.8h-8.3l-3.2-20.8H38c.7 5.7 1.1 10.6 1.4 14.5.3-4 .6-7.6.9-10.7l.4-3.9h5.8zM23.4 51.1c.1.2.4.3.8.3s.6-.1.8-.4c.2-.3.3-.7.3-1.3 0-1.2-.2-2-.5-2.4-.3-.4-1.2-1-2.6-1.9-1.4-.9-2.3-1.5-2.7-1.9-.4-.4-.8-1-1.1-1.7-.3-.7-.4-1.6-.4-2.7 0-1.6.2-2.8.6-3.5s1.1-1.3 2-1.7c.9-.4 2-.6 3.3-.6 1.4 0 2.6.2 3.6.7 1 .5 1.7 1 2 1.7s.5 1.9.5 3.5v.8h-5.1v-1.5c0-.7-.1-1.2-.2-1.4-.1-.2-.3-.3-.6-.3s-.6.1-.7.4-.4.6-.4 1.1c0 .7.1 1.2.3 1.6.2.3.7.8 1.5 1.3 2.4 1.4 4 2.6 4.6 3.5s.9 2.4.9 4.4c0 1.5-.2 2.6-.5 3.3-.3.7-1 1.3-2 1.8s-2.2.7-3.5.7c-1.5 0-2.7-.3-3.7-.8s-1.7-1.2-2-2.1c-.3-.9-.5-2.1-.5-3.6V47h5.1v2.5c-.1.9 0 1.4.2 1.6zm40 21.5h-46c-.4 0-.8 0-.8-.6V59.4 59H64V71.9c.2.6 0 .7-.6.7z"/></svg><svg viewBox="0 0 35 21" width="35" height="21" id="social-vk" y="1118"><path class="azst0" d="M4 1.7h3.2c.7 0 1.1.4 1.4 1 .4.9.7 1.7 1.1 2.5.7 1.4 1.5 2.7 2.5 4 .2.3.5.5.7.7.4.3.8.1.9-.3.2-.5.3-1 .3-1.6V5.7c0-.5 0-1-.1-1.5 0-.2-.1-.4-.1-.7-.2-.5-.6-.8-1.1-1-.1 0-.2 0-.3-.1-.2-.1-.3-.2-.2-.4.1-.2.2-.3.4-.5.3-.3.8-.4 1.2-.5h4c.5 0 1 0 1.5.1.7.1 1.1.6 1.2 1.2.1.7 0 1.5 0 2.2v3.3c0 .5 0 1 .2 1.4 0 .1.1.3.2.4.2.3.5.4.8.2l.6-.6c1.4-1.6 2.5-3.3 3.3-5.2.2-.5.4-1 .6-1.4 0-.1.1-.2.1-.3.2-.4.5-.5.9-.5h5.5c.3 0 .5 0 .8.1.5.1.7.5.6 1-.2.9-.6 1.7-1.1 2.4-.8 1.1-1.6 2.2-2.3 3.2-.4.6-.8 1.1-1.2 1.7-.3.3-.5.7-.6 1.1-.1.2 0 .5.1.7.2.2.4.5.6.7l2.1 2.1c.8.8 1.6 1.7 2.2 2.7.2.3.3.5.3.8.1.6-.3 1-.8 1.2-.2.1-.5.1-.7.1h-2.3c-.8 0-1.6 0-2.3-.1-.9 0-1.7-.4-2.4-1.1-.7-.7-1.4-1.5-2.1-2.2-.2-.3-.5-.5-.8-.7l-.6-.3c-.3 0-.5.1-.7.3-.2.2-.3.5-.4.9-.1.7-.2 1.3-.3 2-.1.6-.5 1-1.1 1.1-.7.1-1.4.1-2 0-.5 0-1-.1-1.6-.2-1.3-.2-2.6-.7-3.8-1.3-1.5-.9-2.7-2-3.7-3.3-1.2-1.5-2.3-3.1-3.2-4.7-1.6-2.3-2.7-4.6-3.8-7-.1-.2-.1-.5-.1-.7.1-.4.3-.5.7-.5h.9c.2-.1.5-.1.8-.1z"/></svg><svg viewBox="0 0 112 64" width="112" height="64" id="team" y="1139"><path d="M56 32c-8.8 0-16-7.2-16-16S47.2 0 56 0s16 7.2 16 16-7.2 16-16 16zm0-30c-7.7 0-14 6.3-14 14s6.3 14 14 14 14-6.3 14-14S63.7 2 56 2zM80.1 64H31.9c-2.2 0-4.2-1-5.6-2.8s-1.8-4-1.2-6.1l3.2-11.7c.6-2.1 2-3.7 3.9-4.6l14-6.1.5.5s3.9 3.7 9.3 3.7c5.5 0 9.3-3.7 9.3-3.7l.5-.5 14 6.1c1.9.9 3.4 2.5 3.9 4.6l3.2 11.7c.6 2.1.1 4.3-1.2 6.1S82.3 64 80.1 64zM45.8 35.2L33 40.8c-1.4.6-2.4 1.8-2.8 3.3L27 55.7c-.4 1.5-.1 3.1.9 4.4 1 1.2 2.4 2 4 2h48.3c1.6 0 3-.7 4-2 1-1.2 1.3-2.8.9-4.4L81.8 44c-.4-1.5-1.4-2.7-2.8-3.3l-12.8-5.6C64.9 36.3 61.1 39 56 39s-8.9-2.7-10.2-3.8zM21 31c-6.1 0-11-4.9-11-11S14.9 9 21 9s11 4.9 11 11-4.9 11-11 11zm0-20c-5 0-9 4-9 9s4 9 9 9 9-4 9-9-4-9-9-9z"/><path d="M23.4 53H5c-1.5 0-3-.7-3.9-1.9s-1.3-2.7-1-4.2L2 38.8c.3-1.3 1-3 2.6-3.7l9.6-4.3.5.5S17.4 34 21 34c3.6 0 6.3-2.7 6.3-2.7l.5-.5 8.2 3.5-2.6 1.1-5.2-2.2c-1.1.9-3.7 2.8-7.2 2.8-3.4 0-6.1-1.9-7.2-2.8l-8.4 3.7c-.6.3-1.1 1-1.4 2.3l-1.9 8.1c-.2.9 0 1.8.6 2.5.6.8 1.4 1.2 2.3 1.2h19l-.6 2z"/><g><path d="M80 20c0-6.1 4.9-11 11-11s11 4.9 11 11-4.9 11-11 11-11-4.9-11-11zm2 0c0 5 4 9 9 9s9-4 9-9-4-9-9-9-9 4-9 9z"/><path d="M88.6 53H107c1.5 0 3-.7 3.9-1.9s1.3-2.7 1-4.2l-1.9-8.1c-.3-1.3-1-3-2.6-3.7l-9.6-4.3-.5.5S94.6 34 91 34c-3.6 0-6.3-2.7-6.3-2.7l-.5-.5-8.2 3.5 2.6 1.1 5.2-2.2c1.1.9 3.7 2.8 7.2 2.8 3.4 0 6.1-1.9 7.2-2.8l8.4 3.7c.6.3 1.1 1 1.4 2.3l1.9 8.1c.2.9 0 1.8-.6 2.5s-1.4 1.1-2.3 1.1H88l.6 2.1z"/></g></svg><svg viewBox="0 0 64 64" width="64" height="64" id="technology" y="1203"><path d="M62.5 55.5l-15-15 .7-.7c.4-.4.4-1 0-1.4s-1-.4-1.4 0l-.7.7-2.8 2.8-7.6-7.6-1.4 1.4 7.6 7.6-2.8 2.8-.7.7c-.4.4-.4 1 0 1.4.2.2.5.3.7.3s.5-.1.7-.3l.7-.7 15 15c1 1 2.3 1.5 3.5 1.5s2.6-.5 3.5-1.5c2-1.9 2-5.1 0-7zm-1.4 5.6c-1.2 1.2-3.1 1.2-4.2 0l-15-15 4.2-4.2 15 15c1.2 1.2 1.2 3.1 0 4.2zM9.4 5.1L5.1.9.9 5.1l4.2 4.2c.6.6 1.4.9 2.1.9.4 0 .9-.1 1.3-.3l19.8 19.8 1.4-1.4L9.9 8.5c.6-1.1.4-2.4-.5-3.4zM6.5 8L3.7 5.1l1.4-1.4L8 6.5c.4.4.4 1 0 1.4-.4.4-1.1.4-1.5.1z"/><path d="M62.1 6.1l-1.5 1.5-5.4 5.4H51V8.8l5.7-5.7 1.2-1.2C53.3-.8 47.3-.2 43.3 3.7 41 6 39.8 9 39.8 12.2c0 1.4.3 2.8.8 4.2L16.4 40.6c-1.3-.5-2.7-.8-4.2-.8C9 39.8 6 41 3.7 43.3c-3.9 3.9-4.6 10-1.8 14.6L3 56.7 8.8 51H13v4.2L7.6 61l-1.5 1.3c1.8 1.1 3.9 1.6 6.1 1.6 3.2 0 6.2-1.3 8.5-3.6 3.4-3.4 4.3-8.4 2.7-12.7l24.2-24.2c1.3.5 2.7.8 4.2.8 3.1 0 6.1-1.2 8.5-3.5 2.3-2.3 3.5-5.3 3.5-8.5 0-2.2-.6-4.3-1.7-6.1zm-3.2 13.2c-3.2 3.2-7.9 3.8-11.7 1.8l-1.5 1.5-23.2 23.1-1.5 1.5c2 3.8 1.4 8.5-1.8 11.7-1.9 1.9-4.4 2.9-7.1 2.9-.9 0-1.7-.1-2.6-.3l5.1-5.1.3-.3V49h-7l-2 2-3.4 3.4c-.9-3.3 0-7 2.6-9.7 1.9-1.9 4.4-2.9 7.1-2.9 1.6 0 3.2.4 4.6 1.1l1.5-1.5 23.2-23.2 1.5-1.5c-.7-1.4-1.1-3-1.1-4.6 0-2.7 1-5.2 2.9-7.1 1.9-1.9 4.5-2.9 7.1-2.9.9 0 1.7.1 2.6.3L51 5.9l-2 2V15h7.1l.3-.3 5.1-5.1c.2.8.3 1.7.3 2.6 0 2.7-1 5.2-2.9 7.1z"/></svg><svg viewBox="0 0 48 64" width="48" height="64" id="teplosnab" y="1267"><path d="M23.3 13.3c-.4.4-.4 1 0 1.4.2.2.4.3.7.3.3 0 .5-.1.7-.3 3-3 1.4-5.8.1-7.7-1.4-2.2-2-3.4-.1-5.3.4-.4.4-1 0-1.4s-1-.4-1.4 0c-3 3-1.4 5.8-.1 7.7 1.3 2.2 1.9 3.5.1 5.3zM30.7 13.3c-.4.4-.4 1 0 1.4.2.2.5.3.7.3.2 0 .5-.1.7-.3 3-3 1.4-5.8.1-7.7-1.4-2.2-2-3.4-.1-5.3.4-.4.4-1 0-1.4-.4-.4-1-.4-1.4 0-3 3-1.3 5.7-.1 7.7 1.3 2.2 2 3.5.1 5.3zM15.9 13.3c-.4.4-.4 1 0 1.4.2.2.5.3.7.3.2 0 .5-.1.7-.3 3-3 1.4-5.8.1-7.7-1.4-2.2-2-3.4-.1-5.3.4-.4.4-1 0-1.4-.4-.4-1-.4-1.4 0-3 3-1.4 5.8-.1 7.7 1.3 2.2 1.9 3.5.1 5.3zM48 31v-8c0-.6-.4-1-1-1 0-1.1-.9-2-2-2h-6c-1.1 0-2 .9-2 2h-2c0-1.1-.9-2-2-2h-6c-1.1 0-2 .9-2 2h-2c0-1.1-.9-2-2-2h-6c-1.1 0-2 .9-2 2h-2c0-1.1-.9-2-2-2H3c-1.1 0-2 .9-2 2-.6 0-1 .4-1 1v8c0 .6.4 1 1 1v20c-.6 0-1 .4-1 1v8c0 .6.4 1 1 1 0 1.1.9 2 2 2h6c1.1 0 2-.9 2-2h2c0 1.1.9 2 2 2h6c1.1 0 2-.9 2-2h2c0 1.1.9 2 2 2h6c1.1 0 2-.9 2-2h2c0 1.1.9 2 2 2h6c1.1 0 2-.9 2-2 .6 0 1-.4 1-1v-8c0-.6-.4-1-1-1V32c.6 0 1-.4 1-1zm-13 1h2v20h-2V32zm2-8v6h-2v-6h2zm-14 8h2v20h-2V32zm2-8v6h-2v-6h2zm-14 8h2v20h-2V32zm2-8v6h-2v-6h2zM9 62H3V22h6v40zm2-2v-6h2v6h-2zm10 2h-6V22h6v40zm2-2v-6h2v6h-2zm4 2V22h6v40h-6zm8-2v-6h2v6h-2zm10 2h-6V22h6v40z"/></svg><svg viewBox="0 0 53 64" width="53" height="64" id="vodsnab" y="1331"><path d="M51 6h-4c-1.1 0-2 .9-2 2v5h-7.3c-1.2-1.4-2.8-2.3-4.7-2.8V7.4c.6-.3 1-.8 1.4-1.3l4.8 1.2c.3.1.5.1.8.1.6 0 1.3-.2 1.8-.6.8-.6 1.2-1.5 1.2-2.4v-.8c0-.9-.4-1.8-1.2-2.4-.8-.6-1.7-.8-2.6-.5l-4.9 1.2C33.7.8 32.4 0 31 0s-2.7.8-3.4 1.9L22.8.7c-.9-.2-1.9-.1-2.6.5-.8.6-1.2 1.5-1.2 2.4v.8c0 .9.4 1.8 1.2 2.4.5.4 1.2.6 1.8.6.3 0 .5 0 .8-.1l4.9-1.2c.3.5.8 1 1.4 1.3v2.8c-1.8.4-3.5 1.4-4.7 2.8H19c-8.3 0-15 6.7-15 15v6h12v-4c0-2.8 2.2-5 5-5h3.3c1.6 1.8 4 3 6.7 3s5-1.2 6.7-3H45v5c0 1.1.9 2 2 2h4c1.1 0 2-.9 2-2V8c0-1.1-.9-2-2-2zM39.7 2.7c.3-.1.6 0 .9.2.3.1.4.4.4.7v.8c0 .3-.1.6-.4.8-.3.2-.6.3-.9.2L35 4.2V4v-.2l4.7-1.1zM31 2c1.1 0 2 .9 2 2s-.9 2-2 2-2-.9-2-2 .9-2 2-2zm-8.7 3.3c-.3.1-.6 0-.9-.2-.3-.1-.4-.4-.4-.7v-.8c0-.3.1-.6.4-.8.2-.2.6-.3.9-.2L27 3.8v.4l-4.7 1.1zM21 23c-3.9 0-7 3.1-7 7v2H6v-4c0-7.2 5.8-13 13-13h3.9c-.6 1.2-.9 2.6-.9 4s.3 2.8.9 4H21zm10 3c-3.9 0-7-3.1-7-7s3.1-7 7-7 7 3.1 7 7-3.1 7-7 7zm8.1-3c.6-1.2.9-2.6.9-4s-.3-2.8-.9-4H45v8h-5.9zM51 30h-4V8h4v22zM10 36.4l-.8 1C8.3 38.5 0 48.8 0 54c0 5.5 4.5 10 10 10s10-4.5 10-10c0-5.2-8.3-15.5-9.2-16.6l-.8-1zM10 62c-4.4 0-8-3.6-8-8 0-3.4 5.2-10.8 8-14.4 2.8 3.6 8 11 8 14.4 0 4.4-3.6 8-8 8z"/></svg><svg viewBox="0 0 64 64" width="64" height="64" id="zdanie-obshchestvennoe" y="1395"><path d="M32 .5L0 9.7V16h3v48h58V16h3V9.7L32 .5zM5 16h6v38H5V16zm54 0v38h-6V16h6zm-8 38h-6V16h6v38zm-8 0h-6V16h6v38zm-8 0h-6V16h6v38zm-8 0h-6V16h6v38zm-8 0h-6V16h6v38zM5 56h54v2H5v-2zm0 6v-2h54v2H5zm57-48H2v-2.7l30-8.7 30 8.7V14z"/><path d="M7 17h2v36H7zM23 17h2v36h-2zM39 17h2v36h-2zM55 17h2v36h-2zM27.5 9c0 2.5 2 4.5 4.5 4.5s4.5-2 4.5-4.5-2-4.5-4.5-4.5-4.5 2-4.5 4.5zm7 0c0 1.4-1.1 2.5-2.5 2.5s-2.5-1.1-2.5-2.5 1.1-2.5 2.5-2.5 2.5 1.1 2.5 2.5z"/></svg><svg viewBox="0 0 64 64" width="64" height="64" id="zdanie-proizvodstvennoe" y="1459"><path d="M61 64H3V16H0V9.7L32 .4l32 9.3V16h-3v48zM5 62h54V14h3v-2.7L32 2.5 2 11.3V14h3v48z"/><path d="M17 20H8v-6h9v6zm-7-2h5v-2h-5v2zM30 20h-9v-6h9v6zm-7-2h5v-2h-5v2zM43 20h-9v-6h9v6zm-7-2h5v-2h-5v2zM56 20h-9v-6h9v6zm-7-2h5v-2h-5v2zM56 62h-2V25H10v37H8V23h48z"/><path d="M23 61H11v-8h12v8zm-10-2h8v-4h-8v4zM36 61H24v-8h12v8zm-10-2h8v-4h-8v4zM49 61H37v-8h12v8zm-10-2h8v-4h-8v4zM23 52H11v-8h12v8zm-10-2h8v-4h-8v4zM36 52H24v-8h12v8zm-10-2h8v-4h-8v4zM23 43H11v-8h12v8zm-10-2h8v-4h-8v4z"/></svg><svg viewBox="0 0 64 64" width="64" height="64" id="zdanie-zhiloe" y="1523"><path d="M32 .5L0 9.7V16h3v48h58V16h3V9.7L32 .5zM28 62V41h8v21h-8zm34-48h-3v48H38V41c0-1.1-.9-2-2-2h-8c-1.1 0-2 .9-2 2v21H5V14H2v-2.7l30-8.7 30 8.7V14z"/><path d="M19 17h-8c-1.1 0-2 .9-2 2v10c0 1.1.9 2 2 2h8c1.1 0 2-.9 2-2V19c0-1.1-.9-2-2-2zm-8 12V19h8v10h-8zM26 19v10c0 1.1.9 2 2 2h8c1.1 0 2-.9 2-2V19c0-1.1-.9-2-2-2h-8c-1.1 0-2 .9-2 2zm10 10h-8V19h8v10zM45 31h8c1.1 0 2-.9 2-2V19c0-1.1-.9-2-2-2h-8c-1.1 0-2 .9-2 2v10c0 1.1.9 2 2 2zm0-12h8v10h-8V19zM45 53h8c1.1 0 2-.9 2-2V41c0-1.1-.9-2-2-2h-8c-1.1 0-2 .9-2 2v10c0 1.1.9 2 2 2zm0-12h8v10h-8V41zM19 39h-8c-1.1 0-2 .9-2 2v10c0 1.1.9 2 2 2h8c1.1 0 2-.9 2-2V41c0-1.1-.9-2-2-2zm-8 12V41h8v10h-8z"/></svg></svg>