<?xml version="1.0" encoding="utf-8"?><svg width="112" height="1804" viewBox="0 0 112 1804" xmlns="http://www.w3.org/2000/svg" xmlns:xlink="http://www.w3.org/1999/xlink"><svg viewBox="30 -26 44 64" width="44" height="64" id="calculator"><path class="aast0" d="M68 38H36c-3.3 0-6-2.7-6-6v-52c0-3.3 2.7-6 6-6h32c3.3 0 6 2.7 6 6v52c0 3.3-2.7 6-6 6zM36-24c-2.2 0-4 1.8-4 4v52c0 2.2 1.8 4 4 4h32c2.2 0 4-1.8 4-4v-52c0-2.2-1.8-4-4-4H36z"/><path class="aast0" d="M67-9H37c-1.1 0-2-.9-2-2v-6c0-1.1.9-2 2-2h30c1.1 0 2 .9 2 2v6c0 1.1-.9 2-2 2zm-30-8v6h30v-6H37zM55 9h-6c-1.1 0-2-.9-2-2V1c0-1.1.9-2 2-2h6c1.1 0 2 .9 2 2v6c0 1.1-.9 2-2 2zm0-2v1-1zm-6-6v6h6V1h-6zM55 21h-6c-1.1 0-2-.9-2-2v-6c0-1.1.9-2 2-2h6c1.1 0 2 .9 2 2v6c0 1.1-.9 2-2 2zm0-2v1-1zm-6-6v6h6v-6h-6zM55 33h-6c-1.1 0-2-.9-2-2v-6c0-1.1.9-2 2-2h6c1.1 0 2 .9 2 2v6c0 1.1-.9 2-2 2zm0-2v1-1zm-6-6v6h6v-6h-6zM43 33h-6c-1.1 0-2-.9-2-2v-6c0-1.1.9-2 2-2h6c1.1 0 2 .9 2 2v6c0 1.1-.9 2-2 2zm0-2v1-1zm-6-6v6h6v-6h-6zM43 21h-6c-1.1 0-2-.9-2-2v-6c0-1.1.9-2 2-2h6c1.1 0 2 .9 2 2v6c0 1.1-.9 2-2 2zm0-2v1-1zm-6-6v6h6v-6h-6zM43 9h-6c-1.1 0-2-.9-2-2V1c0-1.1.9-2 2-2h6c1.1 0 2 .9 2 2v6c0 1.1-.9 2-2 2zm0-2v1-1zm-6-6v6h6V1h-6zM67 9h-6c-1.1 0-2-.9-2-2V1c0-1.1.9-2 2-2h6c1.1 0 2 .9 2 2v6c0 1.1-.9 2-2 2zm0-2v1-1zm-6-6v6h6V1h-6zM67 33h-6c-1.1 0-2-.9-2-2V13c0-1.1.9-2 2-2h6c1.1 0 2 .9 2 2v18c0 1.1-.9 2-2 2zm0-2v1-1zm-6-18v18h6V13h-6z"/></svg><svg viewBox="-16 0 64 64" width="64" height="64" id="cam" y="64"><path d="M46 38h-4c-1.1 0-2 .9-2 2v6.6l-6-3.5V43c0-3.3-2.7-6-6-6h-.6l-3.5-6 14.6-8.4c.7-.4 1.2-1 1.4-1.8.2-.8.1-1.6-.3-2.3l-4.5-7.8.9-.5c.7-.4 1.2-1 1.4-1.8.2-.8.1-1.6-.3-2.3L33.6 0l-49.2 28.4 12.9 3.4 4.8 8.3c.4.7 1 1.2 1.8 1.4.3.1.5.1.8.1.5 0 1-.1 1.5-.4L18.7 34l3.8 6.5.1-.1c-.4.8-.6 1.7-.6 2.6 0 3.3 2.7 6 6 6 1.1 0 2-.3 2.9-.8l9.1 5.3V62c0 1.1.9 2 2 2h4c1.1 0 2-.9 2-2V40c0-1.1-.9-2-2-2zm-56.4-10.3l43.3-25L35.3 7c.1.2.2.5.1.8s-.2.5-.4.6l-2.6 1.5-34.6 20-8.2-2.2zM5.2 39.5c-.2.1-.5.2-.8.1-.3-.1-.5-.2-.6-.5l-4.5-7.8 34.1-19.7 4.5 7.8c.1.2.2.5.1.8s-.2.5-.5.6L5.2 39.5zm15.3-6.4l1.7-1 3.2 5.5c-.6.3-1.2.7-1.6 1.2l-3.3-5.7zM24 43c0-2.2 1.8-4 4-4s4 1.8 4 4-1.8 4-4 4-4-1.8-4-4zm8.6 3.9c.4-.5.8-1.1 1-1.7l6.4 3.7v2.3l-7.4-4.3zM42 62V40h4v22h-4z"/><path d="M-5.1 39.6l-5-8.6-1.8 1 6 10.4 5.2-3-1-1.8z"/></svg><svg viewBox="-1 -15 25 21" width="25" height="21" id="checkbox" y="128"><path class="acst0" d="M18 6H-1v-18h18l-2 2H1V4h15v-7l2-2z"/><path class="acst0" d="M9.2 1.3L2.8-5.1l1.4-1.4 5 4.9L22.6-15l1.4 1.4z"/></svg><svg viewBox="-12 0 40 64" width="40" height="64" id="electrosnab" y="149"><path d="M21.3 28.9C19.1 26 17 23.3 17 21c0-.6-.4-1-1-1s-1 .4-1 1c0 3 2.3 6 4.8 9.1C22.7 33.8 26 38 26 43c0 10.1-8.4 19-18 19s-18-8.9-18-19c0-5.5 3.4-9.7 6.4-13.3 2.3-2.8 4.2-5.2 4.6-7.9L16.2 18c.5-.1.9-.7.7-1.2-.1-.5-.7-.9-1.2-.7L-1 20.2v.8c0 2.2-1.9 4.6-4.2 7.4-3 3.7-6.8 8.4-6.8 14.6 0 11.4 9.2 21 20 21s20-9.6 20-21c0-5.7-3.5-10.2-6.7-14.1zM0 17h.2l16-4c.5-.1.9-.7.7-1.2-.1-.5-.7-.9-1.2-.7l-16 4c-.5.1-.9.7-.7 1.2.1.4.6.7 1 .7zM0 12h.2l16-4c.5-.1.9-.7.7-1.2-.1-.5-.7-.9-1.2-.7l-16 4c-.5.1-.9.7-.7 1.2.1.4.6.7 1 .7zM2.7 4.9c.5.2 1.1-.1 1.3-.6C4 4.2 4.8 2 8 2s4 2.2 4.1 2.3c.1.4.5.7.9.7.1 0 .2 0 .3-.1.5-.2.8-.7.6-1.3C13.9 3.5 12.6 0 8 0 3.3 0 2.1 3.5 2 3.7c-.1.5.2 1.1.7 1.2z"/><path d="M6 23c-.6 0-1 .4-1 1 0 6-1 10.7-2.8 13.4l-.5.7.6.6c.2.2.3.3.5.3.5 0 1.6-.7 5.2-2.9 5.1 3.2 5.1 3.1 5.7 2.5l.6-.6-.5-.7C12 34.8 11 29.9 11 24c0-.6-.4-1-1-1s-1 .4-1 1c0 4.5.6 8.5 1.7 11.5-.7-.5-1.5-.9-2.2-1.4l-.5-.3-.5.3c-.7.5-1.5.9-2.1 1.3C6.4 32.5 7 28.6 7 24c0-.6-.4-1-1-1z"/></svg><svg viewBox="0 0 94 64" width="94" height="64" id="experience" y="213"><path d="M13.6 59.6L9 44v-9.7l10 5.8V47c0 9.5 12.3 16.9 28.1 16.9C62.7 63.9 75 56.5 75 47v-6.8l16.7-9.7c1.2-.7 1.9-1.8 1.9-2.9s-.7-2.2-1.9-2.9L51 1.3c-2.2-1.3-5.7-1.3-7.9 0L2.4 24.8c-1.2.7-1.9 1.8-1.9 2.9s.7 2.2 1.9 2.9L7 33.2V44L2.4 59.6c-.2.8.2 1.6 1 1.8l.5.2c2.7.9 5.6.9 8.3 0l.5-.2c.7-.2 1.1-1 .9-1.8zm-2.1.5l-.3.1c-2.1.5-4.3.5-6.4 0l-.3-.1c-.3-.1-.4-.4-.4-.6L8 47.4l3.8 12.1c.1.3 0 .6-.3.6zM73 47c0 8.2-11.6 14.9-25.9 14.9C32.7 61.9 21 55.2 21 47v-5.7l22.6 13c1 .6 2.2.9 3.5.9 1.3 0 2.5-.3 3.5-.9L73 41.4V47zm17.7-18.2L49.6 52.6c-1.3.8-3.7.8-5 0l-34.5-20 34-6.1c.7.6 1.7 1 2.9 1 2.1 0 3.8-1.2 3.8-2.8S49.1 22 47 22c-2.1 0-3.8 1.2-3.8 2.7L7.4 31.1l-4-2.3c-.6-.3-.9-.8-.9-1.1s.3-.8.9-1.1L44.1 3c.8-.5 1.9-.7 3-.7s2.2.2 3 .7l40.7 23.5c.6.3.9.8.9 1.1s-.4.9-1 1.2z"/></svg><svg viewBox="-5 7 17 17" width="17" height="17" id="home" y="277"><path class="afst0" d="M12 15.6L3.5 7-5 15.6l1.4 1.4.6-.6V24h13v-7.6l.6.6 1.4-1.4zM5 23H2v-5h3v5zm4 0H6v-6H1v6h-3v-7.6l5.5-5.6L9 15.4V23zM8 9h1v3h1V8H7v2h1z"/></svg><svg viewBox="0 0 64 64" width="64" height="64" id="inzhenernie-sistemi" y="294"><path d="M32 .5L0 9.7V16h3v48h58V16h3V9.7L32 .5zM62 14h-3v48H5V14H2v-2.7l30-8.7 30 8.7V14z"/><path d="M20 38h-2c-1-1-1.8-1.7-3-1.9V35h3c1.1 0 2-.9 2-2v-1c0-1.1-.9-2-2-2h-8c-1.1 0-2 .9-2 2v1c0 1.1.9 2 2 2h3v1.1c-1.2.3-2.3 1-3 1.9H7v2h4.2c.4-1.2 1.5-2 2.8-2s2.4.8 2.8 2H20c2.8 0 5 2.2 5 5v2h-2v-2c0-1.7-1.3-3-3-3h-3.2c-.4 1.2-1.5 2-2.8 2s-2.4-.8-2.8-2H7v2h3c.9 1.2 2.4 2 4 2s3-.8 4-2h2c.6 0 1 .4 1 1v4h6v-4c0-3.9-3.1-7-7-7zm-10-6h8v1h-8v-1zM42 60c.8 0 1.5-.3 2-.8.5.5 1.2.8 2 .8s1.5-.3 2-.8c.5.5 1.2.8 2 .8s1.5-.3 2-.8c.5.5 1.2.8 2 .8 1.7 0 3-1.3 3-3V43c0-1.7-1.3-3-3-3-.8 0-1.5.3-2 .8-.5-.5-1.2-.8-2-.8s-1.5.3-2 .8c-.5-.5-1.2-.8-2-.8s-1.5.3-2 .8c-.5-.5-1.2-.8-2-.8-1.7 0-3 1.3-3 3v14c0 1.7 1.3 3 3 3zm12-18c.6 0 1 .4 1 1v14c0 .6-.4 1-1 1s-1-.4-1-1V43c0-.6.4-1 1-1zm-4 0c.6 0 1 .4 1 1v14c0 .6-.4 1-1 1s-1-.4-1-1V43c0-.6.4-1 1-1zm-4 0c.6 0 1 .4 1 1v14c0 .6-.4 1-1 1s-1-.4-1-1V43c0-.6.4-1 1-1zm-5 1c0-.6.4-1 1-1s1 .4 1 1v14c0 .6-.4 1-1 1s-1-.4-1-1V43zM50 35h4c1.7 0 3-1.3 3-3v-8c0-1.7-1.3-3-3-3h-4c-1.7 0-3 1.3-3 3v8c0 1.7 1.3 3 3 3zm-1-11c0-.6.4-1 1-1h4c.6 0 1 .4 1 1v8c0 .6-.4 1-1 1h-4c-.6 0-1-.4-1-1v-8z"/><path d="M53 32c.6 0 1-.4 1-1v-6c0-.6-.4-1-1-1s-1 .4-1 1v6c0 .6.4 1 1 1zM35 12h-6v1.6c0 1.2-.4 2.3-1.2 3.2-.4.5-1.8 2.2-1.8 4.2 0 1.8.8 3.5 2.2 4.7 1.1.9 2.4 1.3 3.8 1.3.4 0 .8 0 1.3-.1 2.4-.5 4.2-2.4 4.6-4.8.3-1.9-.8-4.1-1.8-5.3-.7-.8-1.1-2-1.1-3.1V12zm.9 9.7c-.3 1.6-1.5 2.9-3.1 3.2-1.2.3-2.4 0-3.4-.8A4.1 4.1 0 0 1 28 21c0-.8.5-2 1.3-2.9 1-1.1 1.6-2.6 1.7-4.1h2c.1 1.5.6 2.9 1.6 4 .8 1 1.5 2.5 1.3 3.7zM29 9v2h6V9c0-1.7-1.3-3-3-3s-3 1.3-3 3zm4 0h-2c0-.6.4-1 1-1s1 .4 1 1z"/></svg><svg id="logo" viewBox="0 0 64 64" width="64" height="64" y="358"><style>.ahst0{fill:#47b900}.ahst1{fill:#fff}</style><path class="ahst0" d="M6.5 54V31.1h5.2l3.2 15.6L18 31.1h5.3V54H20V36l-3.5 18h-3.4L9.8 36v18H6.5zM26.8 31.1h7c1.9 0 3.2.2 4 .6s1.4 1 2 2c.5.9.8 2 .8 3.2 0 1.1-.2 2.1-.7 3-.5.9-1 1.5-1.8 2 1 .4 1.8 1.1 2.4 2 .6 1 .9 2.1.9 3.5 0 1.7-.4 3.1-1.1 4.2-.7 1.1-1.6 1.9-2.6 2.1-.7.2-2.3.3-4.9.3h-5.9V31.1zm3.5 3.8v5.3h2.3c1.4 0 2.2 0 2.6-.1.6-.1 1.1-.4 1.4-.8.3-.4.5-1 .5-1.8 0-.7-.1-1.2-.4-1.6-.3-.4-.6-.7-1-.8-.4-.1-1.5-.2-3.4-.2h-2zm0 9.1v6.1h3.3c1.4 0 2.3-.1 2.8-.2.4-.2.7-.5 1-.9.3-.5.4-1.1.4-1.8s-.1-1.4-.4-1.8c-.3-.5-.7-.8-1.2-1-.5-.2-1.5-.3-3-.3h-2.9zM44.3 54V31.1h12.9V35h-9.4v5.1h8.7V44h-8.7v6.2h9.7V54H44.3z"/><g><path class="ahst1" d="M28.6 28.9L19 19.3l-9.6 9.6-2.8-2.8L19 13.7l12.4 12.4z"/><path class="ahst0" d="M41.1 15.7L32 6.6l-9.1 9.1-2.8-2.9L32 .9l11.9 11.9z"/><path class="ahst1" d="M54.6 28.9L45 19.3l-9.6 9.6-2.8-2.8L45 13.7l12.4 12.4z"/></g><g><path class="ahst1" d="M10.6 61.1v-.2-.2c-.1.1-.2.1-.3.2-.1.1-.2.1-.4.2-.1 0-.3.1-.5.1h-.5c-.3 0-.6 0-.9-.1-.3-.1-.6-.2-.8-.4-.2-.2-.4-.4-.6-.7-.1-.3-.2-.7-.2-1.1s.1-.8.2-1.1c.2-.5.4-.8.6-1s.5-.4.8-.5c.3-.1.6-.2 1-.2s.7.1 1 .2c.3.1.5.3.7.5l.1-.5H12v4.8c0 .3 0 .5-.1.7-.1.2-.1.4-.2.5-.1.2-.3.3-.5.5-.2.1-.4.2-.7.3-.3.1-.5.2-.8.2-.3 0-.6.1-1 .1H7.6c-.2 0-.3 0-.4-.1-.1 0-.3-.1-.3-.1v-.9c.3.1.5.1.8.2.3 0 .6.1.9.1.6 0 1.1-.1 1.5-.3.4-.2.5-.5.5-.9v-.3zm-1.3-.9h.4c.1 0 .2-.1.4-.1s.2-.1.3-.2.2-.1.2-.2v-2.1c-.2-.1-.3-.3-.6-.4-.2-.1-.5-.1-.7-.2H9c-.1 0-.2 0-.3.1-.1 0-.2.1-.3.2-.1.1-.2.2-.2.3s-.2.3-.2.5-.1.4-.1.6c0 .2 0 .5.1.6.1.2.1.3.3.5.1.1.3.2.4.3.2.1.4.1.6.1zM22.2 57.2h-.1c-.4 0-.8.1-1.2.2-.3.1-.6.3-.8.5V61h-1.4v-4.7h1.2l.1.7c.2-.2.4-.4.7-.6.3-.1.7-.2 1.1-.2h.4v1zM33.7 58.6c0 .4-.1.7-.2 1-.1.3-.3.6-.6.8s-.6.4-.9.5c-.4.1-.8.2-1.2.2-.5 0-.9-.1-1.2-.2-.4-.1-.7-.3-.9-.5-.3-.2-.4-.5-.6-.8-.1-.3-.2-.6-.2-1s.1-.7.2-1 .3-.6.6-.8c.3-.2.6-.4.9-.5.4-.1.8-.2 1.2-.2.5 0 .9.1 1.2.2.4.1.7.3.9.5s.4.5.6.8c.2.3.2.7.2 1zm-1.5 0c0-.3 0-.5-.1-.7-.1-.2-.2-.4-.3-.5-.1-.1-.3-.2-.5-.3s-.4-.1-.6-.1c-.2 0-.4 0-.6.1s-.3.2-.5.3-.2.3-.3.5c-.1.2-.1.4-.1.7s0 .5.1.7c.1.2.2.4.3.5.1.1.3.2.5.3.2.1.4.1.6.1s.4 0 .6-.1c.2-.1.3-.2.5-.3.1-.1.2-.3.3-.5.1-.2.1-.4.1-.7zM42.7 61.1c-.6 0-1.1-.1-1.5-.2-.4-.2-.7-.4-.9-.7-.1-.1-.2-.3-.2-.5-.1-.2-.1-.4-.1-.6v-2.9h1.4V59.4c0 .1.1.2.1.3.1.1.2.3.4.3.2.1.4.1.6.1.3 0 .5 0 .7-.1.2-.1.3-.2.4-.4.1-.2.1-.4.1-.6v-2.8h1.4v2.9c0 .4-.1.7-.2 1-.1.1-.2.3-.4.4-.1.1-.3.2-.5.3-.2.1-.4.2-.7.2 0 .1-.3.1-.6.1zM54.9 61.1c-.3 0-.6 0-.9-.1-.3-.1-.5-.2-.6-.3v2.7H52v-7h1.3l.1.5c.2-.2.4-.3.7-.5.3-.1.6-.2 1-.2.3 0 .6 0 .9.1.3.1.6.2.8.4s.4.4.6.8.2.7.2 1.1c0 .4-.1.8-.2 1.1-.2.3-.4.6-.6.8-.3.2-.5.4-.8.5s-.8.1-1.1.1zm-.2-4c-.3 0-.5.1-.7.1-.2.1-.4.2-.6.4v2.1l.2.2c.1.1.2.1.3.2.1 0 .2.1.3.1h.4c.2 0 .4 0 .6-.1.2-.1.3-.2.4-.3.1-.1.2-.3.3-.5.1-.2.1-.4.1-.6 0-.3 0-.5-.1-.7s-.2-.4-.3-.5c-.1-.1-.3-.2-.4-.3-.1-.1-.3-.1-.5-.1z"/></g></svg><svg viewBox="0 0 64 64" width="64" height="64" id="loupe" y="422"><path d="M22 5C12.6 5 5 12.6 5 22s7.6 17 17 17 17-7.6 17-17S31.4 5 22 5zm0 32c-8.3 0-15-6.7-15-15S13.7 7 22 7s15 6.7 15 15-6.7 15-15 15z"/><path d="M22 9C14.8 9 9 14.8 9 22c0 .6.4 1 1 1s1-.4 1-1c0-6.1 4.9-11 11-11 .6 0 1-.4 1-1s-.4-1-1-1z"/><path d="M62.8 55.4l-22-22c2-3.3 3.2-7.2 3.2-11.4C44 9.9 34.1 0 22 0S0 9.9 0 22s9.9 22 22 22c4.2 0 8.1-1.2 11.4-3.2l22 22c.8.8 1.8 1.2 2.8 1.2s2.1-.4 2.8-1.2l1.8-1.8c.8-.8 1.2-1.8 1.2-2.8s-.4-2-1.2-2.8zM2 22C2 11 11 2 22 2s20 9 20 20-9 20-20 20S2 33 2 22zm37.7 13.1L57.6 53 53 57.6 35.1 39.7c1.7-1.3 3.3-2.9 4.6-4.6zm21.7 24.6l-1.8 1.8c-.8.8-2.1.8-2.8 0L54.4 59l4.6-4.6 2.4 2.4c.4.4.6.9.6 1.4s-.2 1.1-.6 1.5z"/></svg><svg viewBox="0 0 25 16" width="25" height="16" id="mail" y="486"><path class="ajst0" d="M25 0H0v16h25V0zM13.6 10.6c-.6.6-1.6.6-2.1 0L1.9 1h21.2l-9.5 9.6zM1 1.5L7.5 8 1 14.6V1.5zM2 15l6.2-6.2 2.5 2.5c.5.5 1.1.7 1.8.7s1.3-.3 1.8-.7l2.5-2.5L23 15H2zm22-.4l-6.5-6.5L24 1.5v13.1z"/></svg><svg viewBox="20 -26 64 64" width="64" height="64" id="manager" y="502"><path class="akst0" d="M84 36.9c0-.5-1-11.8-16.7-15.9-3.5-.9-6.4-3.6-7.3-4.4v-4.1c1-.9 3.5-3.3 3.9-6.5 1.4-.3 3.3-1.7 4.1-6.8.5-3.3-.1-5.1-1.8-5.7.8-4.2-.3-9.1-3-12.5-1.8-2.3-4-3.6-6.5-3.9l-1-3H55c-6.9 0-11.8 1.9-14.8 5.7-3.7 4.8-3 11-2.4 13.7-1.8.6-2.3 2.4-1.8 5.7.8 5.1 2.7 6.5 4.1 6.8.4 3.2 2.9 5.7 3.9 6.5v4.1c-.9.9-3.8 3.5-7.3 4.4C21 25.1 20 36.5 20 36.9l-.1 1.1H84v-1.1zM45.6 11.2S42 8.4 42 5v-.4l-.7-.6h-.4c-1 .1-2.3-1.2-2.9-5.2-.5-3.3.4-3.5.8-3.6.3-.1.8-.1 1-.6.2-.2.3-.5.2-.9-.5-1.8-1.7-8.2 1.8-12.8 2.5-3.2 6.6-4.8 12.5-5l1 3h.7c2.1 0 4 1.1 5.6 3.1C64-14.7 65-10.1 64-6.3c-.1.3 0 .6.1.9.3.4.7.5 1 .6.5.1 1.3.3.8 3.6C65.3 2.7 64 4 63 4h-.5l-.5.6V5c0 3.4-3.6 6.2-3.6 6.2l-.4.3v3.7c0 1.8-3.1 2.8-6 2.8s-6-1-6-2.8v-3.7l-.4-.3zM37.3 23c1.4-.4 2.7-1 3.8-1.6.3 4.1 1.7 10.9 4 14.6H22.2c.6-2.7 3.4-10 15.1-13zm10.2 13C45 33.1 43 24.4 43 20.1c1.1-.8 1.9-1.6 2.4-2 .4.3.8.6 1.4.9.9.4 2 .7 3.2.9L49.1 36h-1.6zm7.4 0L54 19.9c1.8-.3 3.5-.8 4.6-1.8.4.4 1.3 1.2 2.4 2 0 4.3-2 13.1-4.5 15.9h-1.6zm4.1 0c2.3-3.8 3.7-10.5 4-14.6 1.1.7 2.4 1.3 3.8 1.6 11.7 3 14.5 10.3 15.1 13H59z"/></svg><svg viewBox="0 0 80 64" width="80" height="64" id="montazh" y="566"><path class="alst0" d="M70.5 36c-2.6-20.8-14.1-24.5-16-24.9-.6-2.3-1.7-4.2-3.2-5.6-2.7-2.4-5.8-2.5-7-2.5-1-1.9-2.4-3-4.3-3s-3.3 1.1-4.3 3c-1.1 0-4.3.2-6.9 2.5-1.5 1.4-2.6 3.2-3.2 5.6-1.9.5-13.4 4.1-16 24.9-6.3.2-9.6 4.6-9.6 9 0 5.7 8.5 19 25 19h30c16.5 0 25-13.3 25-19 0-4.4-3.3-8.8-9.5-9zM49.9 7c2 1.9 3.1 4.9 3.1 9v11.1c0 .6.4 1 1 1s1-.4 1-1V16c0-1-.1-1.8-.2-2.7 3.4 1.3 14 7.2 14.2 31.2-1.6.7-7.9 2.1-14 3.3-.1-2-1.2-5.7-2.7-10.3-1.8-5.5-3.8-11.8-4.3-16.6l-.1-1.1c-.6-5.4-1.2-10.9-2.6-14.8 1.2.1 3 .6 4.6 2zM40 2c3.9 0 5 10.4 5.9 18l.1 1.1c.6 5 2.6 11.4 4.4 17 1.3 4.2 2.6 8.2 2.6 9.9 0 2.4-5.7 4.3-13 4.3S27 50.4 27 48c0-1.7 1.3-5.6 2.6-9.9 1.8-5.6 3.8-12 4.4-17l.1-1.1c.9-7.6 2-18 5.9-18zM25.2 13.3c-.1.9-.2 1.8-.2 2.7v11.1c0 .6.4 1 1 1s1-.4 1-1V16c0-4.1 1-7.1 3.1-9 1.6-1.4 3.5-1.9 4.7-2-1.4 3.8-2 9.3-2.6 14.8l-.2 1.1c-.5 4.8-2.5 11.1-4.3 16.6-1.5 4.6-2.6 8.3-2.7 10.3-6.1-1.2-12.4-2.6-14-3.3.1-23.9 10.8-29.9 14.2-31.2zM55 62H25C9.2 62 2 49 2 45c0-3.2 2.3-6.7 7.3-7-.2 2.2-.3 4.5-.3 7 0 .9 0 1.8 16.6 4.9.7 1 2 2.1 4.5 2.9 2.6.9 6.2 1.4 9.9 1.4 6.2 0 12.5-1.4 14.4-4.3C71 46.8 71 45.9 71 45c0-2.5-.1-4.8-.3-7 5 .3 7.3 3.7 7.3 7 0 4-7.2 17-23 17z"/></svg><svg viewBox="0 0 64 64" width="64" height="64" id="optimization" y="630"><path d="M59.7 47.9C62.4 43.2 64 37.8 64 32c0-5.8-1.6-11.2-4.3-15.9V16l-.1-.1C56.8 11.1 52.8 7.1 48 4.3l-.1-.1h-.1C43.2 1.6 37.8 0 32 0c-5.8 0-11.2 1.6-15.9 4.3H16l-.1.1C11.1 7.2 7.1 11.2 4.3 16l-.1.1v.1C1.6 20.8 0 26.2 0 32c0 5.8 1.6 11.2 4.3 15.9v.1s0 .1.1.1c2.8 4.8 6.8 8.8 11.6 11.6l.1.1h.1c4.6 2.7 10 4.2 15.8 4.2 5.8 0 11.2-1.5 15.9-4.2h.1l.1-.1c4.8-2.8 8.8-6.8 11.6-11.6v-.2c0 .1 0 0 0 0zm-11.8 9.6l-1-1.7c-.3-.5-.9-.6-1.4-.4-.5.3-.6.9-.4 1.4l1 1.7c-3.9 2.1-8.4 3.4-13.1 3.5v-2c0-.6-.4-1-1-1s-1 .4-1 1v2c-4.7-.2-9.2-1.4-13.1-3.5l1-1.7c.3-.5.1-1.1-.4-1.4-.5-.3-1.1-.1-1.4.4l-1 1.7C12.3 55 9 51.7 6.5 47.9l1.7-1c.5-.3.6-.9.4-1.4-.3-.5-.9-.6-1.4-.4l-1.7 1C3.4 42.2 2.2 37.7 2 33h2c.6 0 1-.4 1-1s-.4-1-1-1H2c.2-4.7 1.4-9.2 3.5-13.1l1.7 1c.2.1.4.1.6.1.3 0 .7-.2.9-.5.3-.5.1-1.1-.4-1.4l-1.7-1C9 12.3 12.3 9 16.1 6.5l1 1.7c.2.3.5.5.9.5.2 0 .3 0 .5-.1.5-.3.6-.9.4-1.4l-1-1.7C21.8 3.4 26.3 2.2 31 2v2c0 .6.4 1 1 1s1-.4 1-1V2c4.7.2 9.2 1.4 13.1 3.5l-1 1.7c-.3.5-.1 1.1.4 1.4.2.1.3.1.5.1.3 0 .7-.2.9-.5l1-1.7c3.9 2.4 7.2 5.7 9.6 9.6l-1.7 1c-.5.3-.6.9-.4 1.4.2.3.5.5.9.5.2 0 .3 0 .5-.1l1.7-1c2.1 3.9 3.4 8.4 3.5 13.1h-2c-.6 0-1 .4-1 1s.4 1 1 1h2c-.2 4.7-1.4 9.2-3.5 13.1l-1.7-1c-.5-.3-1.1-.1-1.4.4-.3.5-.1 1.1.4 1.4l1.7 1c-2.5 3.8-5.8 7.1-9.6 9.6z"/><path d="M32 8c-.6 0-1 .4-1 1v22H18c-.6 0-1 .4-1 1s.4 1 1 1h14c.6 0 1-.4 1-1V9c0-.6-.4-1-1-1z"/></svg><svg id="p-aviasales" viewBox="0 20 64 25" width="64" height="25" y="694"><style>.anst0{fill:#fff}</style><path class="anst0" d="M25 37.1v3.5c0 2.4-1.6 4-4.5 4H4.1c-2.5 0-4.1-1.5-4.1-4v-3.5h.8c1.8 0 3.4-1.3 3.4-3v-3.2c0-1.7-1.5-3-3.4-3H0v-3.5c0-2.4 1.6-4 4.1-4h16.4c2.5 0 4.5 1.5 4.5 4v3.5h-.8c-1.8 0-3.4 1.3-3.4 3v3c0 1.7 1.5 3.2 3.4 3.2h.8zm-5.8-6.2c0-3-2.6-5.5-5.8-5.5h-1.7c-3.2 0-5.8 2.4-5.8 5.5v5.7c0 3 2.6 5.5 5.8 5.5h1.7c3.2 0 5.8-2.5 5.8-5.5v-5.7z"/><path class="anst0" d="M13.5 41.3h-1.9c-2.6 0-4.9-2.2-4.9-4.7v-5.7c0-2.5 2.2-4.6 4.8-4.6h1.9c2.6 0 4.9 2.1 4.9 4.6v5.7c0 2.5-2.2 4.7-4.8 4.7zm3.1-10.5c0-1.6-1.5-2.9-3.3-2.9h-1.7c-1.8 0-3.3 1.2-3.3 2.9v3.5c0 1.6 1.5 2.9 3.3 2.9h1.7c1.8 0 3.3-1.2 3.3-2.9v-3.5z"/><path class="anst0" d="M12.1 36.3c-1.8 0-2.9-.9-2.9-2.6v-1.1s0-.4.4-.4.4.4.4.4v1.1c0 1.3.8 1.8 2 1.8h.1s.4 0 .4.4-.4.4-.4.4z"/><g><path class="anst0" d="M29.45 35.25l-.07-.68h-.03c-.28.42-.82.8-1.54.8-1.02 0-1.54-.76-1.54-1.54 0-1.3 1.08-2 3.02-1.99v-.11c0-.44-.11-1.24-1.14-1.24-.47 0-.95.16-1.31.4l-.21-.64c.42-.29 1.02-.48 1.65-.48 1.54 0 1.91 1.12 1.91 2.19v2c0 .47.02.92.08 1.29h-.82zm-.14-2.73c-1-.02-2.13.17-2.13 1.21 0 .63.39.93.86.93.65 0 1.07-.44 1.21-.9.03-.1.05-.21.05-.31v-.93zM31.93 29.89l.99 3.01c.17.49.3.93.4 1.37h.03c.11-.44.26-.89.43-1.37l.97-3.01h.96l-1.97 5.36h-.87l-1.91-5.36h.97zM37.59 28.38c.01.33-.22.6-.58.6-.32 0-.55-.27-.55-.6 0-.34.24-.61.57-.61.34 0 .56.27.56.61zm-1.02 6.87v-5.36h.91v5.36h-.91zM41.78 35.25l-.07-.68h-.03c-.28.42-.82.8-1.54.8-1.02 0-1.54-.76-1.54-1.54 0-1.3 1.08-2 3.02-1.99v-.11c0-.44-.11-1.24-1.14-1.24-.47 0-.95.16-1.31.4l-.21-.64c.42-.29 1.02-.48 1.65-.48 1.54 0 1.91 1.12 1.91 2.19v2c0 .47.02.92.08 1.29h-.82zm-.14-2.73c-1-.02-2.13.17-2.13 1.21 0 .63.39.93.86.93.65 0 1.07-.44 1.21-.9.03-.1.05-.21.05-.31v-.93zM43.87 34.25c.27.19.75.39 1.2.39.66 0 .97-.35.97-.8 0-.46-.26-.72-.93-.99-.9-.34-1.33-.88-1.33-1.52 0-.86.65-1.57 1.73-1.57.51 0 .96.15 1.24.33l-.23.71a1.9 1.9 0 0 0-1.03-.31c-.54 0-.84.33-.84.73 0 .44.3.64.95.91.87.35 1.32.82 1.32 1.62 0 .94-.69 1.61-1.88 1.61-.55 0-1.06-.14-1.41-.37l.24-.74zM50.88 35.25l-.07-.68h-.03c-.28.42-.82.8-1.54.8-1.02 0-1.54-.76-1.54-1.54 0-1.3 1.08-2 3.02-1.99v-.11c0-.44-.11-1.24-1.14-1.24-.47 0-.95.16-1.31.4l-.21-.64c.42-.29 1.02-.48 1.65-.48 1.54 0 1.91 1.12 1.91 2.19v2c0 .47.02.92.08 1.29h-.82zm-.13-2.73c-1-.02-2.13.17-2.13 1.21 0 .63.39.93.86.93.65 0 1.07-.44 1.21-.9.03-.1.05-.21.05-.31v-.93zM53.1 27.39h.91v7.87h-.91v-7.87zM56.05 32.75c.02 1.32.81 1.86 1.72 1.86.65 0 1.05-.12 1.39-.28l.16.7c-.32.16-.87.33-1.67.33-1.55 0-2.47-1.08-2.47-2.7s.89-2.89 2.36-2.89c1.64 0 2.08 1.54 2.08 2.53 0 .2-.02.35-.03.45h-3.54zm2.68-.7c.01-.62-.24-1.58-1.27-1.58-.92 0-1.33.91-1.4 1.58h2.67zM60.62 34.25c.27.19.75.39 1.2.39.66 0 .97-.35.97-.8 0-.46-.26-.72-.93-.99-.9-.34-1.33-.88-1.33-1.52 0-.86.65-1.57 1.73-1.57.51 0 .96.15 1.24.33l-.23.71a1.9 1.9 0 0 0-1.03-.31c-.54 0-.84.33-.84.73 0 .44.3.64.95.91.87.35 1.32.82 1.32 1.62 0 .94-.69 1.61-1.88 1.61-.55 0-1.06-.14-1.41-.37l.24-.74z"/></g></svg><svg id="p-daikin" viewBox="0 0 64 18" width="64" height="18" y="719"><style>.aost0{fill:#fff}.aost1{fill:#0095dc}.aost2{fill:#5bc4f1}</style><path class="aost0" d="M0 0h64v18H0z"/><path class="aost1" d="M22.6 6.2c-.9-1.3-2.5-1.4-3.9-1.4H16L14 13h3.7c1.7 0 3.4-.3 4.5-1.7s1.5-3.6.4-5.1c-.2-.2.2.3 0 0zm-2.2 2.1c0 .5-.1.9-.3 1.3-.3.5-.7 1-1.3 1.1-.4.1-.8.1-1.2.1h-.2l.9-3.6h.6c.3 0 .7 0 1 .1.4.1.5.6.5 1zM27.9 4.8L22.4 13h2.4l1-1.6h3.3l.3 1.6h2.8l-1.6-8.2h-2.7zm-.7 4.4l1.2-1.8.3 1.8h-1.5zM33.2 13h3.3l2-8.2h-3.2zM41.3 10.6l1.6 2.4h2.9l-2.7-4.1 4.5-4.1h-3.1L42.2 7l.6-2.2h-2.9l-2 8.2h2.8zM47.1 13h3.3l2-8.2h-3.2zM59.2 4.8l-.8 3.5-1.3-3.5h-2.9l-2 8.2h2.1l1.1-3.8 1.5 3.8H60l2-8.2z"/><g><path class="aost2" d="M2 2h14.2L2 16.2z"/><path d="M2 2h7.5L2 9.5z"/></g></svg><svg id="p-fazer" viewBox="0 0 64 64" width="64" height="64" y="737"><style>.apst0{fill:#15256b}.apst1{fill:#fff}</style><circle class="apst0" cx="32" cy="32" r="32"/><path class="apst1" d="M57.3 23.9c.2-.8-.5-.6-.7-.1-.2.5-.4.9-.7 1.3-.5.7-1.5 1.6-2.2.5-.5-.8 0-2 .1-2.9.1-1.3-.4-1.7-1.3-2.6-.5-.6-1.1-2.1-1.5-.5-.3 1.4-.8 2.6-1.4 3.9-1 2-3.2 5.4-5.8 5.2-2.8-.3-.9-4.7.2-5.7.3-.3.8-.8 1.3-.6.7.2.4 1.1.2 1.5-.4.7-1.2.9-1.8 1.5-.8.8.1 1.1.8.8.9-.3 1.7-.9 2.4-1.5.8-.8 1.5-2.5.5-3.5-.8-.9-2.3-.4-3.2 0-1.3.7-2.3 1.9-3 3.2-.4.7-.7 1.5-.9 2.4-.2 1.2.1 1.9-.1 2.2-1.1 2-4 .4-5.7.7.9-1 1.9-2.1 2.9-3 .8-.8 1.8-1.5 2.1-2.7.2-1-.2-1.8-1.3-1.4-1.4.4-2.7 1.2-4.2 1.4-.8.1-1 0-1.6-.3-.4-.2-.6-.3-.9.1-.2.3-.2.9-.3 1.3-.1.6-.2 1-.5 1.6-.5 1.2-1 2.6-1.7 3.7-.3.5-1.2 1.8-1.7.9-.7-1.1.4-3.1.7-4.2-.8.1-1.5.3-2 1.1s-.8 1.7-1.3 2.5c-.4.7-1.9 2.8-2.4 1-.4-1.3.8-2.8 1.6-3.7.4-.5 2.2-2.5 2.6-1.1.7-.5 1.3-1.2.1-1.6-1-.3-2.2.3-3 .9-1.9 1.4-3.1 3.7-3.5 6-.2 1.2-.2 3.6 1.7 3.2 1.5-.4 2-2.4 3-3.4.1 0 .4 1.8.5 2 .7 1 1.9-.2 2.5-.8 2.1-2.3 3-5.4 4.4-8.2 1.6 1 3.7.4 5.3-.2-1.4 1.9-3.4 3.2-5.1 4.7-.5.4-3.5 3-2 3.7.6.3 1.4-.8 1.8-1.1 1-.6 2-.5 3.1-.4 2 .1 3.7-.6 4.9-2.2 1.9 2.9 5.4 0 7-1.7 1.7-1.8 2.9-4 4-6.2 2 1.8-1.6 4.8.5 6.6 2.6 1.6 5.2-2.6 5.6-4.3zm-48-1.3c2.3-3.7 7.2-3.8 11.1-4 2.6-.1 5.4-.2 7.8-1.4 1-.5 1.9-1.2 2.6-2.1.6-.7 1.5-1.9 1.1-2.9-.8.6-1.5 1.4-2.5 1.8-1 .5-2.1.7-3.2 1-2.4.5-4.8.6-7.2 1-2.2.4-4.5 1-6.4 2.2-1.4.9-3.9 2.6-3.3 4.4m10.5 6.2c.5-.1 1-.8.5-1.2-.4-.4-1.2.1-1.6.3-1.5.7-2.9 1.5-4.2 2.5l.6-3.9c.2-1.1.3-2.3.8-3.4.3-.6 1-1.3.8-2.1-.2-1.1-1.3-.3-1.6.3-1.2 1.7-1.3 3.9-1.7 5.9-.5 2.4-1 4.8-1.6 7.2-.6 2.3-1.7 4.5-2.4 6.7-.5 1.7-1.2 3.9-.5 5.7.7 1.7 2.2-.1 2.7-1 1.1-1.9 1.5-4.3 1.8-6.5.3-2.1.2-4.5 1.3-6.4.6-1 1.4-1.9 2.3-2.7.5-.4 1.1-.8 1.6-1.1.2 0 .8-.2 1.2-.3zM18.2 46.9c-2.2-1.7-1.7-1.6 3.4.9 1.5.8 16 5.7 25-10.5 2.1-6.5 7.9-2.2 5 2.3C49.3 43.8 42.9 51 31.4 51c-7.9 0-11.6-2.9-13.2-4.1z"/></svg><svg id="p-ikea" viewBox="-447 264 64 24" width="64" height="24" y="801"><style>.aqst0{fill:#0a67b2}.aqst1{fill:#ffe500}</style><path class="aqst0" d="M-447 265h63.3v23H-447z"/><path class="aqst1" d="M-415.3 286.9c17.2 0 31.2-4.8 31.2-10.6s-14-10.5-31.2-10.5-31.2 4.8-31.2 10.6 13.9 10.5 31.2 10.5"/><path class="aqst0" d="M-396.5 280.4s.2-.3.2-.6l-.4-1.1h-2.5l-.4 1.1c-.1.3.2.6.2.6h-5s.3-.2.4-.6l2.7-7.1c.2-.4-.1-.8-.1-.8h8s-.3.2-.1.8l2.8 7.1c.2.4.5.6.5.6h-6.3m-.9-3.2l-.6-1.5c-.1-.2-.1-.4-.1-.4s0 .2-.1.4c0 .1-.6 1.5-.6 1.5h1.4zM-438.4 280.4c.3-.2.3-.8.3-.8v-7.1c0-.4-.2-.5-.2-.5h5.8s-.2.1-.2.5v7.1c0 .1 0 .6.3.8h-6M-424.7 275.3l1.9-2.7c.3-.4 0-.6 0-.6h5.7s-.3.2-.5.5l-2.1 2.9 2.7 4.3c.2.3.4.4.6.5.1.1.2.1.2.1h-6.6s.2-.1 0-.5l-1.8-2.9v2.7c0 .1-.1.6.2.8h-5.7c.3-.2.3-.8.3-.8v-7.1c0-.4-.2-.5-.2-.5h5.7s-.2.1-.2.5l-.2 2.8M-405.5 280.4v-3s-.3.4-.9.4h-3.5v-.6h2.8c.1 0 .6 0 .7.2v-2.6c-.3.2-.7.2-.9.2h-2.8v-.6h3.5c.5 0 .9.4.9.4V272h-9.6s.2.1.2.5v7.1c0 .1 0 .6-.3.8h9.9"/></svg><svg id="p-kidburg" viewBox="-447 270 64 22" width="64" height="22" y="825"><style>.arst0{fill:#b1b2b2}.arst1{fill:#fdfdfd}.arst2{fill:#22a63f}.arst3{fill:#e21e24}.arst4{fill:#006cb4}.arst5{fill:#fbbb00}.arst6{fill:#018dd1}</style><path class="arst0" d="M-415.38 283.52c-1.07-.03-2.47.01-3.86.08-1.6.09-3.21.22-4.8.41-2.31.28-4.6.69-6.86 1.27a36.6 36.6 0 0 0-4.23 1.37c-.27.11-.28.21-.15.44.41.79.8 1.59 1.19 2.39.4.81.15 1.41-.7 1.7-.49.17-1 .21-1.51.25-1.74.15-3.48.22-5.23.28-1.65.05-3.31.02-4.96.04-.38 0-.49-.22-.3-.56.88-1.55 1.75-3.1 2.64-4.64.19-.33.19-.56-.02-.89-.96-1.55-1.87-3.12-2.74-4.72-.17-.3-.09-.47.25-.52.7-.1 1.4-.03 2.1-.1.62-.06 1.25-.06 1.88-.07.17 0 .2-.05.18-.22-.18-1.05-.34-2.12-.51-3.17-.04-.25.07-.37.24-.49 1.18-.83 2.44-1.5 3.75-2.09 2.61-1.18 5.33-2.01 8.12-2.64 1.65-.38 3.31-.67 4.98-.92 1.2-.17 2.4-.29 3.61-.4 3.15-.3 6.31-.36 9.47-.29 1.65.04 3.3.14 4.94.28 2.64.23 5.27.6 7.86 1.15 3.31.7 6.54 1.67 9.6 3.13 1.06.51 2.08 1.08 3.05 1.74.27.19.32.4.28.69-.15.92-.28 1.84-.44 2.75-.04.25.06.29.25.29.66.02 1.32.05 1.98.07l1.82.06c.39.01.5.2.31.55-.81 1.49-1.63 2.97-2.56 4.39-.36.55-.38.95-.04 1.5.85 1.39 1.63 2.83 2.44 4.24.09.16.21.31.11.49-.1.18-.29.13-.45.14-.76.07-1.53.07-2.29.03-1.16-.05-2.32-.01-3.49-.06-1.56-.07-3.11-.14-4.66-.31-.43-.05-.87-.09-1.29-.26-.75-.3-.98-.89-.62-1.61.37-.76.75-1.52 1.13-2.27.1-.2.12-.29-.14-.4-2.35-.94-4.78-1.57-7.25-2.05-1.72-.33-3.46-.57-5.2-.74-.97-.1-1.94-.16-2.91-.22-1.53-.07-3.09-.09-4.97-.09z"/><path class="arst1" d="M-440.35 288.89c.36-.62.93-1.04 1.47-1.49-.65.23-1.16.68-1.68 1.11.43-.69 1.07-1.17 1.69-1.67-.71.19-1.22.68-1.73 1.18-.06-.43.59-1.08 1.71-1.75-.3-.03-.65.11-1.02.38-.32.22-.54.54-.84.78.34-.82 1-1.35 1.69-1.86-.72.21-1.26.69-1.75 1.23.32-.87 1.03-1.38 1.74-1.88-.76.11-1.32.56-1.87 1.04.39-.78 1.1-1.25 1.75-1.79-.7.17-1.27.59-1.85.99-.11-.18.02-.27.1-.37.39-.44.88-.77 1.38-1.08.07-.04.16-.06.21-.17-.68.14-1.24.51-1.84.81.4-.66 1.09-.98 1.71-1.44-.25.01-.43.12-.62.2-.21.09-.42.19-.62.3-.19.1-.38.22-.58.34.09-.24.28-.43.75-.77.29-.21.58-.4.95-.66-.46.07-.78.24-1.1.4-.18.09-.35.2-.52.29-.06.03-.13.11-.19.03-.05-.07.01-.15.06-.2.19-.2.37-.4.58-.57.29-.24.6-.45.9-.69-.58.18-1.09.51-1.62.8.38-.66 1.05-.99 1.71-1.44-.71.15-1.25.47-1.84.75.27-.59.82-.88 1.32-1.24-.5.05-.9.37-1.44.57.33-.5.77-.74 1.14-1.07-.43.06-.8.28-1.19.44.3-.55.83-.83 1.38-1.19-.58.05-1.03.28-1.5.45.29-.42.76-.62 1.2-.98-.5.13-.87.34-1.26.54.3-.49.76-.8 1.2-1.14-.45.1-.84.33-1.26.51.28-.4.7-.64 1.12-.98-.53.12-.87.36-1.26.5.31-.46.81-.7 1.23-1.03-.47.12-.87.39-1.32.56.31-.49.83-.71 1.3-.99-.49.07-.9.34-1.34.53-.06-.11.01-.15.06-.19.17-.14.81-.51.99-.64.14-.1-.71.35-1.15.46.03-.06 1.04-.64 1.1-.68 2.21-1.28 4.57-2.22 7-2.97 1.92-.59 3.87-1.05 5.84-1.41 1.33-.25 2.68-.44 4.02-.61 1.57-.2 3.14-.3 4.71-.42.46-.04.92-.04 1.38-.06 1.24-.05 2.49-.08 3.74-.06 1.74.02 3.47.06 5.2.19 3.84.28 7.64.8 11.37 1.75 2.89.74 5.71 1.7 8.35 3.11.6.31 1.17.63 1.7 1.02.1.08.21.14.28.34-.5-.2-.92-.47-1.4-.56.46.3.98.53 1.31 1-.45-.16-.85-.44-1.33-.54.44.32.93.57 1.26 1.04-.36-.12-.68-.36-1.14-.46.37.36.76.56 1.02.92-.44-.12-.81-.41-1.35-.53.5.39.97.68 1.28 1.16-.38-.13-.71-.39-1.2-.48.42.34.85.54 1.17.99-.54-.23-1.01-.47-1.6-.52.58.35 1.09.68 1.44 1.21-.45-.15-.85-.41-1.4-.53.5.38 1 .66 1.3 1.15-.47-.21-.91-.49-1.42-.57.47.39 1.07.64 1.32 1.26-.57-.29-1.12-.6-1.83-.77.66.46 1.32.8 1.71 1.45-.51-.24-.96-.6-1.52-.75.35.33.77.56 1.1.91.13.14.39.32.29.46-.11.15-.31-.1-.47-.18-.4-.2-.79-.42-1.32-.51.63.45 1.23.8 1.7 1.31.02.02.02.05.04.12-.58-.3-1.09-.66-1.71-.79.55.44 1.19.77 1.59 1.38-.62-.29-1.19-.67-1.96-.85.73.5 1.47.86 1.88 1.59-.02.03-.04.05-.06.08-.3-.2-.59-.4-.9-.59-.3-.19-.62-.35-1.04-.45.7.6 1.45 1.05 1.82 1.85-.56-.47-1.12-.95-1.88-1.06.71.52 1.41 1.03 1.75 1.89-.52-.46-.97-1.02-1.69-1.2.64.52 1.31 1 1.61 1.82-.28-.25-.5-.55-.81-.77-.31-.23-.65-.39-1.05-.42.74.43 1.43.91 1.76 1.75-.56-.47-1.08-.99-1.81-1.19.6.5 1.25.95 1.67 1.64-.5-.36-.95-.81-1.55-1.01.55.52 1.19.96 1.51 1.69-.58-.38-1.13-.78-1.72-1.13-1.92-1.16-3.99-1.98-6.12-2.64-1.69-.52-3.41-.92-5.14-1.23-1.22-.22-2.45-.4-3.68-.54-1.62-.18-3.24-.31-4.87-.39-1.87-.09-3.75-.13-5.62-.09-1.32.03-2.63.09-3.95.18-1.65.12-3.3.29-4.95.54-2.07.31-4.11.71-6.12 1.28-2.76.78-5.42 1.8-7.81 3.42-.25.17-.49.36-.75.55z"/><path class="arst1" d="M-446.19 281.03c.26-.03.47-.06.69-.07.98-.04 1.97-.06 2.95-.1.14-.01.18.05.2.17l.63 4.08c.22 1.43.45 2.86.67 4.3 0 .03.01.06.02.09.09.74.51 1.04 1.24.93.92-.14 1.8-.46 2.72-.58.71-.09 1.42-.25 2.15-.1.2.04.39.1.42.35.03.26-.15.37-.35.46-.34.17-.72.21-1.09.25-.95.09-1.89.16-2.84.21-1.52.09-3.03.09-4.55.14-.81.02-1.61.02-2.42.03-.34 0-.35-.02-.17-.32.84-1.46 1.68-2.92 2.49-4.4.15-.28.15-.5-.02-.78-.93-1.46-1.79-2.97-2.64-4.48-.03-.05-.05-.09-.1-.18zM-384 290.95c-1.62-.04-3.18.04-4.74-.06-.68-.04-1.36-.03-2.04-.06-1.3-.07-2.61-.15-3.9-.33-.24-.03-.47-.1-.68-.22a.395.395 0 0 1-.22-.42c.02-.18.13-.27.3-.31.54-.12 1.08-.08 1.62-.03 1.06.11 2.08.41 3.13.63.36.07.72.08 1.08-.08.44-.21.41-.62.47-.99.26-1.61.51-3.21.75-4.82.17-1.11.35-2.22.51-3.34.03-.24.12-.3.34-.29.94.05 1.88.09 2.82.12.21.01.42 0 .69 0-.2.37-.37.69-.56 1.01-.73 1.24-1.45 2.47-2.19 3.7-.18.29-.17.53-.01.81.82 1.44 1.63 2.88 2.44 4.32.05.1.1.2.19.36z"/><g><path transform="rotate(28.777 -434.906 277.706)" class="arst2" d="M-435.23 275.91h.65v3.6h-.65z"/><path transform="rotate(-14.152 -436.85 280.323)" class="arst3" d="M-437.67 276.69h1.6v7.3h-1.6z"/><path transform="rotate(-7.778 -426.144 277.432)" class="arst2" d="M-426.96 274.29h1.6v6.24h-1.6z"/><path transform="rotate(-14.382 -430.297 278.145)" class="arst2" d="M-431.11 275.04h1.6v6.24h-1.6z"/><path transform="rotate(-60.995 -434.676 281.005)" class="arst3" d="M-435.36 278.41h1.35v5.2h-1.35z"/><path transform="rotate(17.35 -428.067 277.726)" class="arst3" d="M-428.39 274.39h.65v6.67h-.65z"/><path class="arst4" d="M-424.01 280.2l.27-.65 6.48-.38.03.64zM-423.45 279.03l2.44-6.01 3.17 5.66z"/><path class="arst4" d="M-417.53 281.34h-1.04l.73-2.14 1-.07z"/><path class="arst3" d="M-416.3 272.13h.65v7.77h-.65zM-415.65 272.13h4.02v1h-4.02z"/><path transform="scale(-1) rotate(13.202 2419.34 3418.428)" class="arst5" d="M-396.44 277.49h1.66v5h-1.66z"/><path transform="rotate(-76.845 -393.54 277.003)" class="arst4" d="M-393.96 274.78h.8v4.47h-.8z"/><path transform="scale(-1) rotate(6.471 4917.472 7116.384)" class="arst4" d="M-402.69 274.72h.81v6.54h-.81z"/><path class="arst2" d="M-409.09 281.73h.73l4.68-7.33-.72-.03zM-405.07 274.34l-2.98 4.65-2.2-5.07z"/><path class="arst3" d="M-406.25 274.24l-1.36 2.11-.99-2.3z"/><path class="arst5" d="M-421.9 277.78l1.03-2.3 1.31 2.15z"/><path class="arst3" d="M-415.09 274.46v5.44s4 .25 4-2.85-4-2.59-4-2.59z"/><path class="arst4" d="M-400.99 274.77l-.55 4.64s3.39.62 3.7-2.03c.31-2.65-3.15-2.61-3.15-2.61z"/><path class="arst5" d="M-400.32 276.06l-.26 2.19s1.59.29 1.74-.96-1.48-1.23-1.48-1.23z"/><path class="arst2" d="M-414.19 275.86v2.52s1.86.12 1.86-1.32-1.86-1.2-1.86-1.2z"/></g><g><path class="arst6" d="M-430.54 288.26c0 .04.01.16-.06.16h-.65v1.53c0 .09-.4.09-.4 0v-1.72c0-.08.04-.12.12-.12h.93c.06.03.08.08.06.15zM-428.63 289.03c0 1.28-1.88 1.35-1.86.03.01-1.26 1.86-1.33 1.86-.03zm-.42.02c0-.86-.99-.84-1.02-.01-.04.87 1.02.86 1.02.01zM-426.95 288.68c0 .46-.36.66-.78.66h-.16v.61c0 .1-.4.1-.4 0v-1.71c0-.09.05-.14.14-.14h.46c.35 0 .74.15.74.58zm-.42.03c0-.22-.16-.31-.36-.31h-.17v.64h.18c.21 0 .35-.12.35-.33zM-424.88 289.03c0 1.28-1.88 1.35-1.86.03.02-1.26 1.86-1.33 1.86-.03zm-.41.02c0-.86-.99-.84-1.02-.01-.04.87 1.02.86 1.02.01zM-422.81 290.45c0 .09-.35.09-.35 0V290h-1.31v.45c0 .09-.35.09-.35 0v-.68c0-.05.02-.08.07-.08h.09c.29-.4.31-.98.37-1.46 0-.08.04-.12.11-.13h1c.08 0 .11.04.11.12v1.46h.17c.05 0 .08.03.07.08v.69h.02zm-.64-2.03h-.46c-.05.4-.07.94-.34 1.27h.8v-1.27zM-422.01 289.73c0 .14-.03.25-.11.36l-.2.28c-.04.06-.32.09-.28-.01l.19-.4v-.23c-.02-.22.4-.22.4 0zM-419.82 288.26c0 .04.01.16-.06.16h-.65v1.53c0 .09-.4.09-.4 0v-1.72c0-.08.04-.12.12-.12h.93c.06.03.08.08.06.15zM-418.01 290.45c0 .09-.35.09-.35 0V290h-1.31v.45c0 .09-.35.09-.35 0v-.68c0-.05.02-.08.07-.08h.09c.29-.4.31-.98.37-1.46 0-.08.04-.12.11-.13h1c.08 0 .11.04.11.12v1.46h.18c.05 0 .08.03.07.08l.01.69zm-.64-2.03h-.46c-.05.4-.07.94-.34 1.27h.8v-1.27zM-416.57 289.85c0 .04.01.15-.06.15h-.99c-.08 0-.12-.04-.12-.12v-1.65c0-.08.04-.12.12-.12h.98c.09 0 .09.3 0 .3h-.7v.46h.59c.09 0 .09.29 0 .29h-.59v.53h.71c.07.01.06.12.06.16zM-413.22 289.95c0 .1-.39.09-.43-.01l-.14-.43c-.06-.18-.15-.32-.36-.32h-.08v.76c0 .1-.39.1-.39 0v-.76h-.08c-.21 0-.31.14-.36.32l-.14.43c-.05.13-.51.15-.4-.11l.14-.38c.07-.19.16-.36.36-.44-.19-.05-.27-.23-.33-.4l-.12-.34c-.1-.27.35-.23.38-.11l.12.4c.06.18.14.3.34.3h.08v-.71c0-.1.39-.1.39 0v.71h.08c.19 0 .29-.13.34-.3l.13-.4c.04-.13.47-.16.38.11l-.12.33c-.06.17-.14.33-.33.4.2.09.28.25.36.44l.13.38c.03.05.05.09.05.13zM-411.32 289.95c0 .09-.4.09-.4 0v-1c0-.07 0-.14.01-.21-.04.08-.09.16-.15.23l-.68.98c-.06.07-.38.11-.38 0v-1.79c0-.09.4-.09.4 0v1c0 .07 0 .13-.01.2.05-.08.1-.15.15-.23l.68-.98c.06-.06.37-.11.37 0l.01 1.8zM-409.66 288.56c0 .14.04.33-.2.41.23.04.39.22.39.46 0 .43-.42.57-.78.57h-.52c-.08 0-.12-.04-.12-.12v-1.65c0-.08.04-.12.12-.12h.49c0-.01.62.02.62.45zm-.33.07c0-.18-.15-.24-.31-.24h-.2v.49h.22c.16 0 .29-.08.29-.25zm.1.82c0-.22-.2-.28-.38-.28h-.24v.54h.29c.17 0 .33-.08.33-.26zM-408.37 289.48c-.04.11-.13.28-.21.39-.14.19-.68.24-.69.01 0-.13 0-.23.05-.25.03-.01.13.12.29.04.05-.02.08-.09.11-.15l-.63-1.27c-.11-.21.34-.19.41-.05l.27.57c.06.12.11.24.16.37.04-.13.09-.26.14-.39l.22-.58c.03-.11.47-.13.4.05l-.52 1.26zM-406.2 288.26c0 .04 0 .16-.06.16h-.49v1.53c0 .1-.4.1-.4 0v-1.53h-.49c-.09 0-.09-.32 0-.32h1.38c.07 0 .06.13.06.16zM-403.45 290.45c0 .09-.35.09-.35 0V290h-1.31v.45c0 .09-.35.09-.35 0v-.68c0-.05.02-.08.07-.08h.09c.29-.41.31-.98.37-1.46 0-.08.04-.12.11-.13h1c.08 0 .11.04.11.12v1.46h.17c.05 0 .08.03.07.08v.69h.02zm-.64-2.03h-.46c-.05.4-.07.94-.34 1.27h.8v-1.27zM-402 289.85c0 .04 0 .15-.06.15h-.99c-.08 0-.12-.04-.12-.12v-1.65c0-.08.04-.12.12-.12h.98c.09 0 .09.3 0 .3h-.7v.46h.59c.09 0 .09.29 0 .29h-.59v.53h.71c.06.01.06.12.06.16zM-400.36 288.26c0 .03.01.16-.06.16h-.49v1.53c0 .1-.4.1-.4 0v-1.53h-.49c-.09 0-.09-.32 0-.32h1.38c.07 0 .06.13.06.16zM-398.53 289.95c0 .09-.4.09-.4 0v-1c0-.07 0-.14.01-.21-.04.08-.1.15-.15.23l-.68.98c-.05.08-.37.1-.37 0v-1.79c0-.09.4-.09.4 0v1c0 .07 0 .13-.01.2.05-.08.09-.15.15-.23l.68-.98c.06-.06.37-.11.37 0v1.8z"/></g></svg><svg id="p-kvartira" viewBox="162 29 64 11" width="64" height="11" y="847"><style>.asst0{fill:#9f1613}</style><path class="asst0" d="M168.92 29.04h-2.21l-2.21 2.87v-2.87h-1.8V36h1.8v-3.02l2.36 3.02h2.32l-3.02-3.68 2.76-3.28zm7.26 3.64c-.22-.22-.59-.37-.96-.41.26-.11.41-.26.55-.55s.18-.55.18-.85c0-.59-.18-1.03-.44-1.29-.41-.52-.99-.59-1.47-.59h-2.69v6.96h2.91c.85 0 1.51-.26 1.88-.66.26-.26.52-.7.52-1.36 0-.55-.19-.99-.48-1.25zm-3.02-2.28h.33c.37 0 .55.11.66.22.11.11.18.29.18.48 0 .15-.07.33-.18.44-.18.18-.48.22-.66.22h-.33V30.4zm1.51 3.87c-.18.22-.59.29-1.1.29h-.41v-1.47h.37c.44 0 .88.04 1.1.22.11.11.18.29.18.48 0 .25-.07.4-.14.48zm8.5-5.23h-1.95L178.57 36h1.91l.48-1.18h2.5l.44 1.18h1.91l-2.64-6.96zm-1.73 4.38l.77-2.25.77 2.25h-1.54zm9.72-4.38h-2.87V36h1.8v-2.28h1.14c.55 0 1.18-.07 1.73-.59s.59-1.18.59-1.73c0-.59-.11-1.18-.63-1.69-.54-.56-1.17-.67-1.76-.67zm.26 2.94c-.22.18-.55.22-.77.22h-.59v-1.73h.59c.22 0 .55.04.77.26.18.18.22.44.22.63.04.14.04.44-.22.62zm4.46-1.43h1.47v5.41h1.8v-5.41h1.47v-1.51h-4.75v1.51zm13.22 5.41v-6.92h-1.84l-2.58 4.38v-4.38h-1.8V36h1.84l2.58-4.42v4.38h1.8zm6.07-6.92h-2.87V36h1.8v-2.28h1.14c.55 0 1.18-.07 1.73-.59s.59-1.18.59-1.73c0-.59-.11-1.18-.63-1.69-.54-.56-1.17-.67-1.76-.67zm.3 2.94c-.22.18-.55.22-.77.22h-.59v-1.73h.59c.22 0 .55.04.77.26.18.18.22.44.22.63 0 .14-.04.44-.22.62zm7.88-2.94h-1.95L218.75 36h1.91l.48-1.18h2.5l.44 1.18H226l-2.65-6.96zm-1.77 4.38l.77-2.25.77 2.25h-1.54zM176 39.84v-2.03h.52c.9 0 .95 1.26.02 1.26h-.21v.76H176zm.33-1.68v.58h.18c.51 0 .51-.58-.02-.58h-.16zM178.52 39.84v-2.03h1.2v.34h-.87v.45h.81v.34h-.81v.55h.9v.34h-1.23zM182.59 37.56l.29 2.29h-.3l-.17-1.25-.59 1.4-.6-1.4-.18 1.24h-.3l.29-2.29.79 1.64.77-1.63zM187.07 39.84v-2.03h.33v.8h.97v-.8h.33v2.03h-.33v-.88h-.97v.88h-.33zM190.14 39.84v-1.68h-.48v-.34h1.29v.34h-.48v1.68h-.33zM193.37 39.84v-2.03h1.21v.34h-.88v.46h.46c.18 0 .31.05.41.17.1.11.15.26.15.44 0 .16-.04.3-.13.43-.08.12-.23.18-.43.18h-.79zm.32-.87v.53h.34c.09 0 .16-.01.2-.02.04-.01.07-.04.1-.09.03-.04.05-.1.05-.16 0-.18-.11-.27-.33-.27h-.36zM196 39.84v-2.03h1.2v.34h-.87v.45h.81v.34h-.81v.55h.9v.34H196zM199.15 38.99h-.09v-.31c.29.01.44-.09.44-.31 0-.08-.03-.14-.09-.19a.35.35 0 0 0-.23-.07c-.17 0-.28.08-.33.25l-.41-.09c.09-.33.34-.49.75-.49.22 0 .4.05.54.15.14.1.2.22.2.38 0 .19-.11.35-.35.46.28.1.42.27.42.51 0 .18-.07.33-.21.44-.14.11-.34.16-.6.16-.22 0-.39-.03-.51-.1s-.22-.2-.29-.4l.39-.12c.04.11.09.19.15.23.06.04.15.06.25.06.12 0 .21-.02.28-.07.07-.05.1-.12.1-.2 0-.09-.03-.16-.11-.2a.448.448 0 0 0-.3-.09zM210.62 39.84v-2.03h.52c.9 0 .95 1.26.02 1.26h-.21v.76h-.33zm.33-1.68v.58h.18c.51 0 .51-.58-.02-.58h-.16zM184.94 37.82c-.53 0-.96.45-.96 1.01s.43 1.01.96 1.01.96-.45.96-1.01-.43-1.01-.96-1.01zm0 1.7c-.36 0-.66-.31-.66-.69 0-.38.29-.69.66-.69.36 0 .66.31.66.69 0 .38-.3.69-.66.69zM208.42 37.82c-.53 0-.96.45-.96 1.01s.43 1.01.96 1.01.96-.45.96-1.01c.01-.56-.42-1.01-.96-1.01zm0 1.7c-.36 0-.66-.31-.66-.69 0-.38.29-.69.66-.69.36 0 .66.31.66.69 0 .38-.29.69-.66.69zM203.98 39.33c-.12.11-.26.19-.43.19-.36 0-.66-.31-.66-.69 0-.38.29-.69.66-.69.17 0 .31.08.43.19v-.39a.894.894 0 0 0-.43-.12c-.53 0-.96.45-.96 1.01s.43 1.01.96 1.01c.16 0 .3-.05.43-.12v-.39zM206.44 39.33c-.12.11-.26.19-.43.19-.36 0-.66-.31-.66-.69 0-.38.29-.69.66-.69.17 0 .31.08.43.19v-.39a.894.894 0 0 0-.43-.12c-.53 0-.96.45-.96 1.01s.43 1.01.96 1.01c.16 0 .3-.05.43-.12v-.39z"/></svg><svg id="p-mega" viewBox="0 0 64 17" width="64" height="17" y="858"><style>.atst0{fill:#acd0a4}.atst1{fill:#57af47}.atst2{fill:#ffefb6}.atst3{fill:#ffca08}.atst4{fill:#f8b39b}.atst5{fill:#ed1b24}.atst6{fill:#8cccef}.atst7{fill:#009ad6}</style><path class="atst0" d="M11.7.3L10 2.2c-.2.3-.6.3-.9 0L7.5.3C7.3.1 7.1 0 6.9 0H1.4C.9 0 .6.4.6.8v15.4c0 .4.4.8.8.8h5.1c.4 0 .8-.4.8-.8v-3.1c0-.3.4-.5.6-.3l1.3 1.3c.3.3.7.3.9 0l1.3-1.3c.2-.2.6-.1.6.3v3.1c0 .4.4.8.8.8h5.1c.4 0 .8-.4.8-.8V.8c0-.4-.4-.8-.8-.8h-5.5c-.3 0-.5.1-.7.3z"/><path class="atst1" d="M11.2.3L9.5 2.1c-.2.3-.6.3-.9 0L7 .3C6.9.1 6.7 0 6.4 0H1.1C.7 0 .3.4.3.8v15c0 .4.4.8.8.8H6c.4 0 .8-.4.8-.8v-3c0-.3.4-.5.6-.2l1.3 1.3c.2.3.6.3.9 0l1.3-1.3c.2-.2.6-.1.6.2v3c0 .4.4.8.8.8h4.9c.4 0 .8-.4.8-.8V.8c0-.4-.4-.8-.8-.8h-5.4c-.3 0-.5.1-.6.3z"/><path class="atst2" d="M31.7 10.6c.5 0 .8-.4.8-.8V7.1c0-.4-.4-.8-.8-.8h-3.5c-.3 0-.5-.2-.5-.5s.2-.5.5-.5h3.1c.5 0 .8-.4.8-.8V.8c-.1-.4-.4-.8-.9-.8h-5.1-6.6c-.3 0-.6.2-.6.5v16c0 .3.3.5.6.5h12.1c.5 0 .8-.4.8-.8v-3.6c0-.4-.4-.8-.8-.8h-3.5c-.3 0-.5-.2-.5-.5v-.2c0-.3.2-.5.5-.5h3.6z"/><path class="atst3" d="M30.9 10.3c.4 0 .8-.4.8-.8V6.9c0-.4-.4-.8-.8-.8h-3.3c-.3 0-.5-.2-.5-.5s.2-.5.5-.5h2.9c.4 0 .8-.4.8-.8V.8c0-.4-.4-.8-.8-.8H19.4c-.3 0-.5.2-.5.5V16c0 .3.2.5.5.5H30.8c.4 0 .8-.4.8-.8v-3.5c0-.4-.4-.8-.8-.8h-3.3c-.3 0-.5-.2-.5-.5v-.2c0-.3.2-.5.5-.5h3.4z"/><path class="atst4" d="M45.8 7.4h-4.6c-.6 0-1.1.5-1.1 1.1v2.7l-.2.6c-.1.3-.5.3-.6.1l-.4-.6c-.2-.3-.3-.7-.3-1V6.9c0-.6.5-1.1 1.1-1.1h5.5c.6 0 1.1-.5 1.1-1.1V1.1c0-.6-.5-1.1-1.1-1.1h-2.9c-2.6 0-7.2-.2-9.9 2.9-2.6 2.9-2.3 7.9-.3 10.6 2.3 3.2 3.6 3.6 9.1 3.6h4.6c.6 0 1.1-.5 1.1-1.1V8.5c0-.6-.5-1.1-1.1-1.1z"/><path class="atst5" d="M45 7.2h-4.4c-.6 0-1.1.5-1.1 1.1v2.6l-.2.6c-.1.3-.4.3-.6.1l-.3-.6c-.2-.3-.3-.6-.3-1V6.7c0-.6.5-1 1-1h5.3c.6 0 1.1-.5 1.1-1.1V1.1c0-.6-.5-1.1-1-1.1h-2.8c-2.5 0-6.9-.2-9.5 2.8-2.5 2.8-2.2 7.7-.3 10.3 2.2 3.1 3.4 3.5 8.8 3.5H45c.6 0 1.1-.5 1.1-1.1V8.3c0-.6-.5-1.1-1.1-1.1z"/><path class="atst6" d="M63.3 17.1c.4 0 .8-.4.6-.8L59.3.7c-.1-.4-.5-.7-1-.7h-8.6c-.5 0-.9.3-1 .8L44 16.2c-.1.4.2.9.7.9h5.8c.3 0 .6-.1.8-.4l.4-.5c.1-.2.4-.3.6-.3h3.3c.2 0 .3.1.4.2l.6.6c.2.2.4.4.7.4h6z"/><path class="atst7" d="M62.4 16.6c.4 0 .7-.4.6-.8L58.6.7c-.2-.4-.5-.7-.9-.7h-8.2c-.5 0-.9.3-1 .7l-4.4 15c-.1.4.2.8.6.8h5.5c.3 0 .6-.1.8-.4l.4-.5c.1-.2.3-.3.6-.3h3.2c.2 0 .3.1.4.2l.5.6c.1.2.4.4.7.4h5.6z"/><path class="atst5" d="M10.1 12l2.3-7.1v7.3h2.1V2.8H11l-1.9 7-2-7H3.7v9.4h2.1V4.9L8 12z"/><path class="atst7" d="M27.7 11.5c-.4 1.4-1.6 2.3-3 2.3-1.7 0-3.1-1.4-3.1-3.2 0-1.8 1.4-3.2 3.1-3.2.5 0 1.1.1 1.5.4l-3.5 2.7 1.6 2.3L30 8.4c-.9-2.2-2.9-3.7-5.3-3.7-3.2 0-5.7 2.7-5.7 5.9 0 3.3 2.6 5.9 5.7 5.9 2.9 0 5.3-2.2 5.7-5h-2.7z"/><path class="atst1" d="M33.1 2.1v.5h.8c.4 0 .8.4.8.8V13c0 .4-.3.7-.7.7h-.9v.5h6.1v-.5h-1c-.4 0-.7-.3-.7-.7V2.8h2.1c1.4 0 2.5 1.1 2.5 2.5v.3h.6V2.1h-9.6z"/><path class="atst3" d="M57.6 9.5s-.5 1.4-1.2 2c-.1-.6 1.2-8 1.2-8-1.8-1.2-8-.8-9.6 5.5-1 4.1.6 5.2 1.4 5.2 1.6 0 3.5-1.4 4.3-2.7-.2 1.7 0 2.7 1.1 2.7.9 0 2.3-.8 3.5-2.7 1-1.6-.7-2-.7-2zm-6.8 2.1c-1 0 .5-8.3 3.8-6.1.2 1.7-2.1 6.1-3.8 6.1z"/></svg><svg id="p-minimax" viewBox="0 0 64 11" width="64" height="11" y="875"><style>.aust0{fill:#fff}.aust1{fill:#c6c7c7}.aust2{fill:#fefefe}.aust3{fill:#141515}.aust4{fill:#0096cb}</style><path class="aust0" d="M0 0h64v11H0z"/><path class="aust1" d="M11.82.55l-.08-.08L1.96 10.8c-.04.04-.04.06-.02.1.02.02.04.06.1.06h4.24l.06-.04 3.61-3.46v2.48c0 .04.04.06.06.08h.1l2.95-2.27v3.11l.02.08.08.04h2.52l.06-.04.04-.08V.55c0-.04-.02-.08-.06-.1s-.08-.02-.1.02l-3.71 3.52V.55c0-.04-.02-.08-.06-.1s-.08-.02-.1.02l.07.08h-.1v3.67c0 .04.02.06.04.08.04.02.08.02.1-.02l3.73-3.5v9.98h-2.34V7.54c0-.04-.02-.06-.04-.08h-.1l-2.95 2.27v-2.5c0-.04-.04-.08-.06-.1-.04-.02-.08-.02-.1.02l-3.75 3.61H2.27L11.9.62l-.08-.07h-.1.1z"/><path class="aust1" d="M11.82 4.22V.55L2.07 10.82v.04h4.22l3.77-3.63v2.7l3.1-2.39v3.32h2.54V.55zM23.63 10.84h.1V4.11h1.07V6.7l.04.06.06.04h2.48l.06-.04.04-.06V4.11h1.07v6.62h-1.07V7.84l-.04-.06-.06-.02H24.9l-.06.02-.04.06v2.89h-1.17v.11h.1-.1v.1h1.27l.06-.02.04-.08V7.95h2.28v2.89l.02.08.08.02h1.27l.06-.02.04-.08V4.01l-.04-.06-.06-.04h-1.27l-.08.04-.02.06v2.6H25v-2.6l-.04-.06-.06-.04h-1.27l-.06.04-.04.06v6.83l.04.08.06.02z"/><path class="aust1" d="M27.38 4.01V6.7H24.9V4.01h-1.27v6.83h1.27v-3h2.48v3h1.27V4.01zM30 4.01v.1h1.11v4.47c0 .04.04.08.06.1.04.02.1-.02.12-.04l2.54-4.51h1.11v6.62h-.98V6.36c0-.04-.04-.1-.08-.1-.04-.02-.1 0-.1.04l-2.56 4.45h-1.11V3.99H30v.1-.08h-.1v6.87l.04.06.08.04h1.27l.1-.04 2.38-4.16v4.12l.04.06.06.04h1.21l.06-.04.04-.06V4.01l-.04-.06-.06-.04h-1.29c-.04 0-.06.02-.08.04l-2.4 4.22V4.01l-.04-.06-.06-.04h-1.19l-.08.04-.04.06h.1z"/><path class="aust1" d="M33.77 4.01l-2.58 4.57V4.01H30v6.85h1.27l2.56-4.49v4.49h1.21V4.01zM36.42 10.84h.1V4.12h1.97l1.23 4.59c.02.04.04.06.1.06.04 0 .08-.04.1-.06l1.23-4.59h1.97v6.62h-1.13V5.47c0-.04-.04-.1-.1-.1-.04-.02-.1.02-.1.06l-1.37 5.31h-1.23l-1.35-5.31c-.02-.04-.06-.08-.1-.06-.04 0-.08.04-.08.1l-.02 5.29h-1.21l-.01.08h.1-.1v.1h1.31c.04 0 .1-.04.1-.1V6.23l1.19 4.63c.02.04.04.08.1.08h1.37c.04 0 .08-.04.1-.08l1.19-4.63v4.59c0 .06.04.1.1.1h1.31l.06-.04.04-.08V4.02l-.04-.06-.06-.04h-2.13c-.04 0-.1.04-.1.08l-1.17 4.3L38.62 4c-.02-.04-.06-.08-.1-.08h-2.13l-.08.04-.04.06v6.82l.04.08.08.04v-.12h.03z"/><path class="aust1" d="M41.07 4.01L39.8 8.66l-1.25-4.65h-2.13v6.83h1.31V5.47l1.37 5.37h1.39l1.38-5.37.02 5.37h1.31V4.01zM49.57 10.86v-.1h-1.13l-.45-1.5c-.02-.04-.06-.08-.1-.08H45.7c-.04 0-.08.04-.1.08l-.43 1.5h-.98l2.07-6.64h1.05l2.19 6.76.07-.02v-.1.1l.1-.04-2.21-6.84c0-.04-.04-.06-.1-.06h-1.17c-.04 0-.08.04-.1.06l-2.13 6.84.02.1.08.04h1.17c.04 0 .1-.04.1-.08l.43-1.5h2.07l.45 1.5c.02.04.04.08.1.08h1.21l.08-.04.02-.1-.12.04zm-2.03-2.73l.1-.04-.76-2.54c-.02-.04-.04-.06-.1-.06-.04 0-.1.04-.1.06l-.74 2.54.02.1.08.04h1.5l.08-.04.02-.1-.1.04v-.1h-1.37l.61-2.09.66 2.21.1-.02v-.1.1z"/><path class="aust1" d="M46.77 5.59l.02.04.74 2.5h-1.5l.74-2.54zm.02-1.58h-.59l-2.13 6.84h1.17l.47-1.56h2.22l.47 1.56h1.21L47.4 4.01h-.61zM59.84 8.34v.1h1.35v-.1l-.1-.02c-.1.92-.55 1.6-.98 1.93-.41.35-.92.51-1.58.51-.8 0-1.43-.29-1.95-.86-.51-.59-.76-1.39-.78-2.42.02-1.11.27-1.93.78-2.52.53-.59 1.19-.9 2.03-.9.74 0 1.31.23 1.78.7.12.12.27.39.39.68.1.29.2.64.23.9h.1v-.1H59.8v.1l.1-.04c-.08-.35-.16-.74-.41-.96-.25-.23-.55-.33-.92-.33-.47 0-.9.2-1.19.57-.31.39-.45.98-.45 1.78 0 .86.14 1.48.45 1.86.29.39.7.59 1.17.57.35.02.66-.12.92-.35.27-.27.37-.59.47-1.09l-.1-.01v.1-.1l-.1-.02c-.1.47-.23.78-.41.98-.23.23-.47.33-.8.33-.43 0-.76-.16-1.02-.51-.27-.33-.41-.9-.41-1.74 0-.78.14-1.33.41-1.66.27-.35.59-.49 1.05-.49.31 0 .57.1.8.29.18.16.29.51.35.86 0 .04.04.08.1.08h1.31l.06-.04.04-.08c-.04-.29-.12-.64-.23-.94-.12-.31-.29-.59-.43-.76-.49-.49-1.15-.76-1.93-.74-.88-.02-1.62.31-2.17.94-.55.64-.82 1.54-.82 2.66 0 1.05.27 1.93.82 2.54.53.64 1.25.94 2.09.94.68 0 1.25-.18 1.72-.55.45-.37.92-1.09 1.05-2.07l-.04-.08-.08-.04h-1.35c-.04 0-.1.04-.1.08l.09.02z"/><path class="aust1" d="M58.59 3.95h.06c.74 0 1.35.25 1.8.74.29.29.59 1.07.66 1.64H59.8c-.08-.35-.16-.72-.39-.92-.23-.2-.51-.29-.86-.29-.47 0-.84.16-1.11.53-.29.35-.43.92-.43 1.72 0 .86.14 1.43.43 1.8s.64.53 1.11.53c.33 0 .61-.1.86-.35.23-.23.35-.53.45-1.05h1.35c-.1.94-.57 1.64-.98 1.99-.43.35-.98.53-1.66.53-.82 0-1.5-.31-2.03-.92-.51-.59-.78-1.37-.8-2.38v-.23c.02-1.05.29-1.86.8-2.48.51-.55 1.21-.84 2.05-.86zM17.11 4.01v.1h1.13v4.45c0 .04.04.08.08.1.04.02.08 0 .1-.04l2.56-4.49h1.13v6.62h-1V6.38c0-.04-.04-.1-.08-.1s-.1.02-.1.04l-2.56 4.43h-1.15V4.01h-.11v.1-.1h-.1v6.84l.04.06.06.04h1.29l.1-.04 2.4-4.18v4.12l.04.06.06.04h1.21l.08-.04.04-.06V4.01l-.04-.06-.08-.04h-1.29c-.04 0-.06.02-.08.04l-2.42 4.24V4.01l-.04-.06-.08-.04h-1.21l-.06.04-.04.06h.12z"/><path class="aust1" d="M20.92 4.01l-2.6 4.57V4.01h-1.21v6.85h1.29l2.61-4.47v4.47h1.2V4.01zM50.52 10.82v.1h1.33l.06-.04.04-.08V7.93l1.89 2.95.08.04h1.62c.04 0 .06-.02.08-.04v-.1L53.2 7.13l2.32-3.09.02-.1c-.02-.04-.04-.04-.1-.04h-1.56l-.1.04-1.82 2.64V4.02l-.04-.06-.06-.04h-1.33l-.06.04-.04.06v6.82l.04.08.06.04-.01-.14h.11v-6.7h1.13v2.81c0 .04.04.08.08.1.04.02.08 0 .1-.04l1.99-2.87h1.31L53 7.11v.1l2.34 3.55h-1.37l-2.05-3.2c-.02-.04-.06-.06-.1-.04s-.08.06-.08.1v3.11h-1.23v.08h.1-.09v.01z"/><path class="aust1" d="M53.86 4.01l-2.01 2.91V4.01h-1.33v6.81h1.33v-3.2l2.05 3.24h1.64l-2.48-3.69 2.35-3.16z"/><path class="aust2" d="M1.19.47l-.55.94v.08l.02.02v.02h.1l1.5-.88L.6 2.62v.02H.56v.08h.02v.02H.6v.02h.06v-.02L3.28.77.66 3.84H.64v.08h.02v.02h.02v.02h.08v-.02L4.41.89.66 5.23v.02H.64v.08h.02v.02h.02v.02h.08v-.02l4.86-4.26L.66 6.56v.02H.64v.06h.02v.02h.02v.02h.08v-.02h.02l6.31-5.53L.66 8.22H.64v.06l.02.02.02.02h.08V8.3l7.93-7.07-8.57 9.3V.47h1.07zM9.55.34h-.04v.02h-.02L1.53 7.43 7.86.44V.42h.02V.36h-.02V.34h-.1v.02h-.02L1.46 5.87 6.39.42h.02V.36L6.39.34h-.06v.02h-.02l-5 4.32L4.98.44H5V.36L4.98.34h-.06v.02H4.9L1.23 3.37 3.73.44h.02V.4h.02V.38h-.02V.34h-.08v.02h-.02L1.01 2.29 2.57.45h.02V.37L2.57.35h-.08v.02l-1.6.92.47-.86h.02V.35H.05v.02L0 .38v10.37h.04v.02h.08l-.02-.02L9.59.44h.02V.4h.02-.02V.36L9.59.34h-.04z"/><path class="aust3" d="M.06.41h1.23L.7 1.45 2.5.41.61 2.64 3.69.41.7 3.89 4.92.41.7 5.28 6.35.41.7 6.61 7.79.41.7 8.25 9.55.41.06 10.71z"/><path class="aust2" d="M11.82.41l-.08-.06-9.78 10.31c-.04.02-.04.06-.02.1.02.04.04.04.1.04h4.24l.06-.02 3.61-3.46V9.8c0 .04.04.06.06.08h.1l2.95-2.27v3.11l.02.06.08.04h2.52l.06-.04.04-.06V.41c0-.04-.02-.06-.06-.08-.02-.02-.04-.02-.04-.02-.04 0-.04.02-.06.04l-3.71 3.5V.41c0-.04-.02-.06-.06-.08 0-.02-.02-.02-.04-.02h-.02c-.02 0-.04.02-.06.04l.09.06h-.1v3.67c0 .04.02.08.04.1.04.02.08.02.1-.02L15.59.64v9.98h-2.34V7.4c0-.04-.02-.06-.04-.08h-.1l-2.95 2.27v-2.5c0-.04-.04-.08-.06-.1-.04-.02-.08-.02-.1.02l-3.75 3.61H2.27L11.9.48l-.08-.07h-.1.1z"/><path class="aust4" d="M11.82 4.07V.41L2.07 10.67v.04h4.22l3.77-3.62v2.7l3.1-2.4v3.32h2.54V.41z"/><path class="aust2" d="M23.63 10.69h.1V3.95h1.07v2.6l.04.06.06.05h2.48l.06-.05.04-.06v-2.6h1.07v6.66h-1.07V7.7l-.04-.06-.06-.02H24.9l-.06.02-.04.06v2.91h-1.17v.08h.1-.1v.11h1.27l.06-.03.04-.08V7.82h2.28v2.87l.02.08.08.03h1.27l.06-.03.04-.08V3.87l-.04-.08-.06-.02h-1.27l-.08.02-.02.08v2.58H25V3.87l-.04-.08-.06-.02h-1.27l-.06.02-.04.08v6.82l.04.08.06.03z"/><path class="aust4" d="M27.38 3.87v2.68H24.9V3.87h-1.27v6.82h1.27V7.7h2.48v2.99h1.27V3.87z"/><path class="aust2" d="M30 3.87v.1h1.11v4.47c0 .04.04.08.06.1.04 0 .1-.02.12-.04l2.54-4.53h1.11v6.66h-.98V6.22c0-.04-.04-.1-.08-.1s-.1.02-.1.04l-2.56 4.45h-1.11V3.85H30v.1-.08h-.1v6.84l.04.08.08.04h1.27l.1-.04 2.38-4.16v4.1l.04.08.06.04h1.21l.06-.04.04-.08V3.86l-.04-.08-.06-.02h-1.29c-.04 0-.06.02-.08.04l-2.4 4.22V3.86l-.04-.08-.06-.02h-1.19l-.1.02-.04.08.12.01z"/><path class="aust4" d="M33.77 3.87l-2.58 4.57V3.87H30v6.84h1.27l2.56-4.48v4.48h1.21V3.87z"/><path class="aust2" d="M36.42 10.69h.1V3.95h1.97l1.23 4.59c.02.04.04.06.1.06.04 0 .08-.04.1-.06l1.23-4.59h1.97v6.64h-1.13V5.32c0-.04-.04-.1-.1-.1-.04-.02-.1.02-.1.06l-1.37 5.31h-1.23l-1.37-5.31c-.02-.04-.06-.08-.1-.06-.04 0-.08.04-.08.1l-.02 5.29h-1.21v.08h.1-.09v.1h1.31c.04 0 .1-.04.1-.1V6.1l1.19 4.63c.02.04.04.06.1.06h1.37c.04 0 .08-.04.1-.06l1.19-4.63v4.59c0 .06.04.1.1.1h1.31l.06-.02.04-.08V3.87l-.04-.08-.06-.02h-2.13c-.04 0-.1.04-.1.06l-1.17 4.3-1.17-4.3a.11.11 0 0 0-.1-.06h-2.13l-.08.02-.04.08v6.82l.04.08.08.02v-.1h.03z"/><path class="aust4" d="M41.07 3.87L39.8 8.52l-1.25-4.65h-2.13v6.82h1.31V5.32l1.37 5.37h1.39l1.38-5.37.02 5.37h1.31V3.87z"/><path class="aust2" d="M49.57 10.71v-.1h-1.13l-.45-1.5c-.02-.04-.06-.08-.1-.08H45.7c-.04 0-.08.04-.1.08l-.43 1.5h-.98l2.07-6.66h1.05l2.19 6.78.07-.02v-.1.1l.1-.04-2.21-6.84c0-.04-.04-.06-.1-.06h-1.17a.11.11 0 0 0-.1.06l-2.13 6.84.02.1.08.04h1.17c.04 0 .1-.02.1-.06l.43-1.5h2.07l.45 1.5c.02.04.04.06.1.06h1.21l.08-.04.02-.1-.12.04zm-2.03-2.7l.1-.04-.78-2.54c-.02-.04-.04-.06-.1-.06-.04 0-.1.04-.1.06l-.74 2.54.02.1.08.04h1.5l.08-.04.02-.1-.08.04v-.12h-1.37l.61-2.09.66 2.23.1-.02v-.12.12z"/><path class="aust4" d="M46.77 5.47l.02.04.74 2.5h-1.5l.74-2.54zm.02-1.6h-.59l-2.13 6.84h1.17l.47-1.56h2.22l.47 1.56h1.21L47.4 3.87h-.61z"/><path class="aust2" d="M59.84 8.19v.1h1.35v-.1l-.1-.02c-.1.92-.55 1.6-.98 1.93-.41.35-.92.51-1.58.51-.8 0-1.43-.29-1.95-.86-.51-.59-.76-1.39-.78-2.44.02-1.09.27-1.93.78-2.52.53-.59 1.19-.88 2.03-.88.74 0 1.31.23 1.78.7.12.12.27.39.39.68.1.29.2.64.23.9l.1-.02v-.1H59.8v.1l.1-.02c-.08-.35-.16-.74-.41-.96-.25-.23-.55-.33-.92-.33-.47 0-.9.18-1.19.57-.31.39-.45.98-.45 1.78 0 .86.14 1.48.45 1.86.29.39.7.57 1.17.57.35 0 .66-.12.92-.37.27-.25.37-.59.47-1.09h-.1v.1-.09l-.1-.02c-.1.47-.23.78-.41.98-.23.23-.47.31-.8.33-.43-.02-.76-.16-1.02-.51-.27-.33-.41-.9-.41-1.74 0-.8.14-1.33.41-1.66.27-.35.59-.49 1.05-.49.31 0 .57.1.8.29.18.16.29.49.35.86 0 .04.04.08.1.08h1.31l.06-.04.04-.08c-.04-.29-.12-.64-.23-.94-.12-.33-.29-.59-.43-.76-.49-.49-1.15-.76-1.93-.76-.88 0-1.62.33-2.17.96-.55.64-.82 1.54-.82 2.64 0 1.07.27 1.93.82 2.56.53.61 1.25.94 2.09.94.68 0 1.25-.18 1.72-.55.45-.37.92-1.11 1.05-2.07l-.04-.08-.08-.04h-1.35c-.04 0-.1.04-.1.08l.09.02z"/><path class="aust4" d="M56.54 4.73c-.53.61-.8 1.5-.8 2.58 0 1.05.27 1.89.8 2.5.53.59 1.21.9 2.03.9.66 0 1.23-.16 1.66-.53.41-.35.88-1.05.98-1.99h-1.37c-.1.49-.23.8-.45 1.05-.23.23-.53.35-.86.35-.47 0-.82-.18-1.11-.53s-.43-.96-.43-1.8c0-.8.16-1.37.43-1.72.29-.35.66-.53 1.11-.53.35 0 .61.1.86.31.23.2.31.55.39.9h1.31c-.06-.55-.35-1.35-.66-1.62-.47-.49-1.09-.74-1.84-.74-.84-.03-1.54.27-2.05.87z"/><path class="aust2" d="M17.11 3.89v.1h1.13v4.47c0 .04.04.08.08.1s.08 0 .1-.04l2.56-4.51h1.13v6.64h-1V6.22c0-.04-.04-.08-.08-.1s-.1.02-.1.04l-2.56 4.45h-1.15V3.89h-.11v.1-.1h-.1v6.82l.04.08.06.04h1.29l.1-.04 2.4-4.18v4.1l.04.08.06.04h1.21l.08-.04.04-.08V3.89l-.04-.08-.08-.02h-1.29c-.04 0-.06.02-.08.04l-2.42 4.24V3.89l-.04-.08-.06-.02h-1.21l-.06.02-.04.08h.1z"/><path class="aust4" d="M20.92 3.89l-2.6 4.55V3.89h-1.21v6.82h1.29l2.61-4.48v4.48h1.2V3.89z"/><path class="aust2" d="M50.52 10.67v.1h1.33l.06-.04.04-.08V7.78l1.89 2.95.08.04h1.62c.04 0 .06-.02.08-.04v-.1L53.2 7l2.32-3.09.02-.1c-.02-.04-.04-.04-.1-.04h-1.56l-.1.04-1.82 2.66v-2.6l-.04-.06-.06-.04h-1.33l-.06.04-.04.06v6.82l.04.08.06.04-.01-.14h.11V3.95h1.13v2.83c0 .04.04.08.08.1s.08 0 .1-.04l1.99-2.89h1.31L53 6.96v.1l2.34 3.55h-1.37l-2.05-3.2c-.02-.04-.06-.06-.1-.04s-.08.04-.08.1v3.11h-1.23v.08h.1-.09v.01z"/><path class="aust4" d="M53.86 3.87l-2.01 2.91V3.87h-1.33v6.8h1.33V7.48l2.05 3.23h1.64l-2.48-3.69 2.35-3.15z"/><g><path d="M18.37 1.78c.06-.56-.87-.84-1.05-.2l-.23-.06c.15-.48.47-.51.74-.51 1.04 0 1.01 1.81.02 1.81-.3 0-.67-.07-.79-.58l.22-.06c.17.71 1.09.51 1.07-.19h-.65v-.21h.67z"/><path d="M18.98 1.04h1.09v1.75h-.23V1.25h-.63v.9c0 .43-.04.76-.52.62l.03-.18c.22.11.25-.03.25-.31V1.04h.01zM20.45 2.78V1.03h1.26v.21h-1.03v.53h.97v.2h-.97v.59h1.07v.21h-1.3v.01zM22.08 1.04h.23v.76c.47 0 .34-.8.95-.77v.2c-.44 0-.29.51-.65.65.11.03.21.15.32.33l.34.56h-.25l-.29-.47c-.09-.15-.2-.34-.41-.34v.82h-.23V1.04h-.01zM41.72 1.04h.23v.76c.47 0 .34-.8.95-.77v.2c-.44 0-.29.51-.65.65.11.03.21.15.32.33l.34.56h-.25l-.29-.47c-.09-.15-.2-.34-.41-.34v.82h-.23V1.04h-.01zM47.2 1.04h.23v.76c.47 0 .34-.8.95-.77v.2c-.44 0-.29.51-.65.65.11.03.21.15.32.33l.34.56h-.25l-.29-.47c-.09-.15-.2-.34-.41-.34v.82h-.23V1.04h-.01zM23.94 2.78V1.24h-.57v-.21h1.38v.21h-.58v1.54h-.23zM24.98 2.78V1.03h.69c.84 0 .86 1.04.02 1.04h-.48v.71h-.23zm.23-.91h.48c.5 0 .54-.62 0-.62h-.48v.62zM26.49 1.91a.838.838 0 0 1 1.67 0c-.01 1.19-1.67 1.2-1.67 0zm.23 0c0 .92 1.19.94 1.19 0 .01-.95-1.19-.93-1.19 0zM48.53 1.91a.838.838 0 0 1 1.67 0c0 1.19-1.67 1.2-1.67 0zm.24 0c0 .92 1.19.94 1.19 0 0-.95-1.19-.93-1.19 0zM28.9 2.78V1.24h-.57v-.21h1.38v.21h-.58v1.54h-.23zM29.95 2.78V1.03h1.26v.21h-1.03v.53h.97v.2h-.97v.59h1.07v.21h-1.3v.01zM31.39 2.78l.67-.91-.6-.84h.27l.32.45c.07.09.11.16.14.21.04-.06.08-.13.14-.2l.35-.46h.25l-.61.82.66.92h-.29l-.44-.62c-.02-.04-.05-.07-.08-.12-.04.06-.07.11-.08.13l-.44.61-.26.01zM33.2 2.78V1.03h.23v.72h.91v-.72h.23v1.75h-.23v-.82h-.91v.82h-.23zM34.96 1.04h.21v1.38l.93-1.38h.23v1.75h-.21V1.4l-.93 1.38h-.23V1.04zM37.95 2.78h-.23v-.7c-.51.22-1.1.22-1.1-.53v-.51h.23v.49c0 .62.46.53.87.36v-.85h.23v1.74zM38.33 2.78V1.03h1.26v.21h-1.03v.53h.97v.2h-.97v.59h1.07v.21h-1.3v.01zM42.94 2.78l.67-1.75h.25l.71 1.75h-.26l-.2-.53h-.73l-.19.53h-.25zm.51-.71h.59l-.18-.48c-.06-.15-.1-.27-.12-.36-.02.11-.05.22-.09.33l-.2.51zM60.56 2.78v-.77h-.27c-.29 0-.38.2-.52.41l-.23.36h-.29l.3-.48c.06-.09.12-.17.19-.23.03-.03.08-.06.14-.09-.68-.08-.6-.95.01-.95h.9v1.75h-.23zm0-1.55h-.59c-.45-.01-.47.58.02.58h.56v-.58h.01zM45.95 2.78v-.77h-.27c-.29 0-.38.2-.52.41l-.23.36h-.29l.3-.48c.06-.09.12-.17.19-.23.03-.03.08-.06.14-.09-.68-.08-.6-.95.01-.95h.9v1.75h-.23zm0-1.55h-.59c-.45-.01-.47.58.02.58h.56l.01-.58zM50.48 2.78V1.03h.35l.41 1.24c.04.11.07.2.08.26.02-.06.05-.16.09-.28l.42-1.21h.31v1.75h-.22V1.33l-.51 1.46h-.21l-.5-1.49v1.49h-.22v-.01zM52.52 1.04h1.37v1.75h-.23V1.25h-.91v1.54h-.23V1.04zM54.08 2.78l.67-1.75H55l.71 1.75h-.26l-.2-.53h-.73l-.19.53h-.25zm.5-.71h.59l-.18-.48c-.06-.15-.1-.27-.12-.36-.02.11-.05.22-.09.33l-.2.51zM55.9 2.78V1.03h.23v.72h.91v-.72h.23v1.75h-.23v-.82h-.91v.82h-.23zM57.66 1.04h.21v1.38l.93-1.38h.23v1.75h-.21V1.4l-.93 1.38h-.23V1.04zM41.25 2.19c-.21.65-1.15.55-1.15-.28 0-.79.84-.92 1.11-.37l.23-.07c-.35-.75-1.57-.61-1.57.43a.828.828 0 0 0 1.61.33l-.23-.04z"/></g><g><circle cx="62.85" cy="3.89" r="1.15"/><circle class="aust0" cx="62.85" cy="3.89" r=".97"/><path d="M62.39 4.48v-1.2h.53c.45 0 .6.5.09.66.04-.01.07.04.1.06.05.04.09.1.13.16l.21.33h-.2l-.16-.25c-.09-.15-.17-.28-.36-.28h-.18v.53h-.16v-.01zm.16-.67h.37c.32 0 .38-.4.01-.4h-.38v.4z"/></g></svg><svg id="p-nepspb" viewBox="0 0 64 31" width="64" height="31" y="886"><style>.avst0{fill:#1585ff}.avst1{fill:#a3c1ea}</style><path class="avst0" d="M13.05.2C42.44 10.79 27.15 21 27.15 21 56.85 8.78 11.42-.38 13.05.2z"/><path class="avst0" d="M27.11 3.35c21.99 8.22 10.55 16.16 10.55 16.16C59.87 10.01 25.9 2.89 27.11 3.35z"/><path class="avst0" d="M36.73 4.97c17.97 6.54 8.62 12.85 8.62 12.85C63.5 10.27 35.73 4.6 36.73 4.97z"/><g><path class="avst1" d="M11.7 23.11v1.21h1.4v-1.21h.38V26h-.38v-1.35h-1.4V26h-.37v-2.89h.37zM15.62 24.65H14.5v1.04h1.25V26h-1.63v-2.89h1.56v.31H14.5v.91h1.12v.32zM17.77 23.11v.31h-1.16V26h-.37v-2.89h1.53zM20.41 24.53c0 1.81-2.49 2.05-2.63.2-.16-1.98 2.63-2.22 2.63-.2zm-2.24.04c0 1.52 1.86 1.44 1.85-.03-.01-1.47-1.85-1.5-1.85.03zM22.91 25.91c-1.03.52-2.19-.21-2.19-1.32 0-1.08 1.16-1.93 2.2-1.39l-.09.3c-2.18-1.05-2.19 3.19.01 2.11l.07.3zM23.57 23.11l.57 1.23.21.51h.01c.05-.15.11-.32.18-.52l.45-1.22h.39l-.6 1.48c-.21.51-.61 1.73-1.41 1.43l.04-.3c.33.1.59-.22.7-.48.03-.06.02-.11-.01-.18l-.96-1.95h.43zM27.46 23.11v2.58l.25.01-.03.99h-.29l-.02-.69h-1.82l-.03.69h-.29l-.03-.99.22-.01c.32-.59.42-1.18.42-1.85v-.73h1.62zm-1.27.85c0 .6-.08 1.19-.38 1.73h1.28v-2.27h-.9v.54zM28.66 25.09l-.3.91h-.39l.98-2.89h.45l1 2.89H30l-.31-.91h-1.03zm.95-.29l-.28-.83c-.06-.19-.11-.36-.15-.53h-.01c-.04.17-.09.35-.15.52l-.28.84h.87zM30.82 23.14c.59-.1 1.52-.17 1.75.55.26.83-.68 1.32-1.38 1.15V26h-.37v-2.86zm.37 1.4c1.27.33 1.32-1.47 0-1.12v1.12zM35.09 25.91c-1.03.52-2.2-.21-2.19-1.32 0-1.08 1.16-1.93 2.2-1.39l-.1.3c-2.17-1.05-2.2 3.19.01 2.11l.08.3zM36.26 23.43h-.88v-.32h2.14v.32h-.88V26h-.38v-2.57zM41.66 24.65h-1.12v1.04h1.25V26h-1.63v-2.89h1.56v.31h-1.19v.91h1.12l.01.32zM42.65 23.11v1.21h1.4v-1.21h.38V26h-.38v-1.35h-1.4V26h-.37v-2.89h.37zM45.44 23.11v1.21h1.4v-1.21h.38V26h-.38v-1.35h-1.4V26h-.37v-2.89h.37zM48.33 25.09l-.3.91h-.39l.98-2.89h.45l1 2.89h-.4l-.31-.91h-1.03zm.95-.29l-.28-.83c-.06-.19-.11-.36-.15-.53h-.01c-.04.17-.09.35-.15.52l-.28.84h.87zM50.23 26c.04-.08.08-.17.12-.26.13-.33.2-.73.44-.97.07-.07.15-.12.24-.15v-.01c-.53-.09-.82-.69-.51-1.14.32-.49 1.18-.42 1.66-.32V26h-.37v-1.25h-.27c-.18 0-.31.04-.42.14-.2.2-.28.63-.38.9-.03.07-.05.13-.09.21h-.42zm1.56-2.59c-1.21-.24-1.34 1.12 0 1.05v-1.05zM.53 29.37h1.35c-.07-.86-.86-1.19-1.61-.85l-.09-.29c2.75-1.21 2.64 3.89-.05 2.67l.08-.3c.77.35 1.63-.05 1.67-.93H.53v-.3z"/><path class="avst1" d="M3.13 28.11v1.28h.12l.99-1.28h.45L3.6 29.43c.79.11.84.99 1.13 1.57h-.4c-.1-.2-.18-.45-.26-.68-.13-.38-.32-.64-.81-.64h-.13V31h-.37v-2.89h.37zM7.02 30.91c-1.02.51-2.19-.21-2.19-1.33 0-1.08 1.16-1.93 2.2-1.39l-.09.3c-2.18-1.05-2.19 3.19.01 2.11l.07.31zM9.58 28.11V31h-.37v-2.58H7.87V31h-.38v-2.89h2.09zM11.73 29.65h-1.12v1.04h1.25V31h-1.63v-2.89h1.56v.31H10.6v.91h1.12v.32h.01zM12.34 28.14c.64-.11 1.63-.16 1.76.67.13.78-.72 1.19-1.39 1.03V31h-.37v-2.86zm.38 1.4c1.27.33 1.32-1.47 0-1.12v1.12zM15.17 28.43h-.87v-.32h2.14v.32h-.88V31h-.38v-2.57h-.01zM17.11 28.11v1.22c0 .46-.01.84-.03 1.22h.01c.15-.3.33-.61.54-.96l.94-1.49h.37V31h-.35v-1.23c0-.47 0-.81.03-1.17h-.01c-.14.32-.34.65-.54.97L17.16 31h-.4v-2.89h.35zM19.47 28.28c1.22-.79 2.29.9 1.02 1.19v.01c.6.06.91.71.55 1.21-.35.47-1.2.44-1.65.17l.1-.29c1.18.69 1.83-.93.53-.93h-.17v-.28h.17c1.06 0 .65-1.5-.44-.8l-.11-.28zM22.16 30.09l-.3.91h-.39l.98-2.89h.45l.99 2.89h-.4l-.31-.91h-1.02zm.95-.29l-.28-.83c-.06-.19-.11-.36-.15-.53h-.01c-.04.17-.09.35-.15.52l-.28.84h.87zM25.58 28.11v1.22c0 .46-.01.84-.03 1.22h.01c.15-.3.33-.61.54-.96l.94-1.49h.37V31h-.35v-1.23c0-.47 0-.81.03-1.17h-.01c-.14.32-.34.65-.54.97L25.62 31h-.4v-2.89h.36zM31.04 28.11V31h-.37v-2.58h-1.34V31h-.37v-2.89h2.08zM31.7 28.14c.59-.1 1.52-.17 1.75.55.26.83-.68 1.32-1.38 1.15V31h-.37v-2.86zm.37 1.4c1.26.34 1.32-1.47 0-1.12v1.12zM36.42 29.53c0 1.81-2.49 2.05-2.63.2-.16-1.98 2.63-2.22 2.63-.2zm-2.25.04c0 1.52 1.86 1.44 1.85-.03-.01-1.47-1.85-1.5-1.85.03zM38.4 29.65h-1.12v1.04h1.25V31H36.9v-2.89h1.56v.31h-1.19v.91h1.12l.01.32zM39.38 28.11v1.28h.12l.99-1.28h.45l-1.09 1.32c.79.11.84.99 1.13 1.57h-.4c-.1-.2-.18-.45-.26-.68-.13-.38-.32-.64-.81-.64h-.12V31h-.37v-2.89h.36zM42.01 28.43h-.88v-.32h2.14v.32h-.88V31h-.38v-2.57zM43.94 28.11v1.22c0 .46-.01.84-.03 1.22h.01c.15-.3.33-.61.54-.96l.93-1.49h.37V31h-.35v-1.23c0-.47 0-.81.03-1.17h-.01c-.14.32-.34.65-.54.97l-.9 1.43h-.4v-2.89h.35zM46.42 28.14c.59-.1 1.52-.17 1.75.55.26.83-.68 1.32-1.38 1.15V31h-.37v-2.86zm.37 1.4c1.26.34 1.32-1.47 0-1.12v1.12zM51.13 29.53c0 1.81-2.49 2.05-2.63.2-.15-1.98 2.63-2.22 2.63-.2zm-2.24.04c0 1.52 1.86 1.44 1.85-.03-.01-1.47-1.85-1.5-1.85.03zM51.62 28.15c.43-.09 1.21-.17 1.54.22.32.38.15.91-.31 1.08v.01c.51.13.76.69.48 1.15-.32.53-.6.39-1.71.39v-2.85zm.37 1.18h.34c.98 0 .85-1.25-.34-.93v.93zm0 1.39c1.32.26 1.44-1.1.31-1.1h-.31v1.1zM38 23.14c.43-.09 1.21-.17 1.54.22.32.38.15.91-.31 1.08v.01c.51.13.76.69.48 1.15-.32.53-.6.39-1.71.39v-2.85zm.37 1.18h.34c.98 0 .85-1.25-.34-.93v.93zm0 1.39c1.32.26 1.44-1.1.31-1.1h-.31v1.1zM54.41 30.09l-.3.91h-.39l.98-2.89h.45l.99 2.89h-.4l-.31-.91h-1.02zm.95-.29l-.28-.83c-.06-.19-.11-.36-.15-.53h-.01c-.04.17-.09.35-.15.52l-.28.84h.87zM56.94 28.11v1.21h1.4v-1.21h.38V31h-.38v-1.35h-1.4V31h-.37v-2.89h.37zM59.72 28.11v1.22c0 .46-.01.84-.03 1.22h.01c.15-.3.33-.61.54-.96l.93-1.49h.37V31h-.35v-1.23c0-.47 0-.81.03-1.17h-.01c-.14.32-.34.65-.54.97L59.76 31h-.4v-2.89h.36zM63.68 29.65h-1.12v1.04h1.25V31h-1.63v-2.89h1.56v.31h-1.19v.91h1.12l.01.32z"/></g></svg><svg id="p-tt" viewBox="0 0 64 60" width="64" height="60" y="917"><style>.awst0{fill:#e21e24}.awst1{fill:#96ca63}.awst2{fill:#01b2f9}.awst3{fill:#fff}.awst4{fill:#fefefe}</style><path class="awst0" d="M34.02 30.35c0 .19.08.35.16.51.13.28.3.54.49.78.58.72.99 1.54 1.52 2.29.18.27.27.57.28.89l.03.63c.03.42.19.75.55.98.2.13.4.26.61.38.31.18.52.44.6.78.12.5.38.93.69 1.33l.94 1.24c.05.07.1.13.2.13.46.02.91.1 1.37.07.28-.02.53-.1.73-.3.04-.04.08-.09.15-.09h1.82c-.11.23-.23.41-.39.57-.3.29-.45.65-.4 1.06.05.45-.13.76-.46 1.06-.54.49-1.09.96-1.63 1.45-.51.46-1.04.91-1.54 1.39-.36.34-.72.68-1.05 1.05-.39.44-.73.88-.74 1.52-.01.51-.13 1.01-.21 1.52-.02.16.02.27.14.38.25.22.49.44.74.66.11.09.15.2.1.34-.47 1.32-1.06 2.56-2.21 3.45-.23.18-.5.31-.81.35-.2.02-.29.11-.28.33.02.4-.03.8.02 1.2.04.35-.12.53-.38.67-.56.29-.94.76-1.31 1.25-.23.31-.42.64-.57 1-.05.11-.1.16-.23.17-.44.02-.88.1-1.32.16-.54.07-1.05.25-1.6.31-.43.02-.89.14-1.36.14-.09 0-.17 0-.24-.09-.9-1.1-1.92-2.1-2.82-3.21-.85-1.05-1.59-2.15-2-3.45-.17-.54-.26-1.1-.29-1.66-.01-.13.04-.24.13-.32.33-.3.41-.66.37-1.11-.09-1.05-.43-1.97-1.18-2.74-.4-.41-.81-.83-1.18-1.27a.723.723 0 0 1-.17-.53c.04-.55.12-1.09.11-1.64-.01-.57-.05-.59-.59-.43-.26.07-.51-.05-.77-.05-.17 0-.34-.08-.52-.07-.17.01-.29-.05-.28-.27.02-.29 0-.57.01-.86 0-.14-.03-.2-.19-.2-.69.01-1.39 0-2.08.02-.5.01-.99.04-1.49.09-.4.04-.81.06-1.2.19-.12.04-.16-.03-.21-.1-.47-.64-.83-1.34-1.16-2.06-.33-.71-.63-1.45-1-2.14-.1-.19-.2-.4-.33-.56-.24-.28-.29-.58-.28-.94.03-1.17.01-2.33.21-3.49.22-1.27.74-2.41 1.52-3.42.05-.06.09-.11.18-.12.76-.04 1.44-.35 2.1-.7.78-.41 1.55-.86 2.34-1.27.6-.32 1.21-.6 1.9-.68.17-.02.33-.09.5-.14.27-.02.5-.11.69-.31.46-.27.93-.54 1.42-.83v.52c0 .08 0 .15.11.16.36.04.59.27.81.53.04.04.06.11.13.12.41.02.76.23 1.14.32.11.02.13.06.12.17-.03.24-.13.46-.21.69-.03.09-.03.16.06.23.35.27.69.56 1.03.84.27.22.55.44.86.61.15.08.27.08.35-.08.07-.14.19-.17.34-.16.32.03.64.05.97.08.52.03 1.05.11 1.57.03.18-.03.35-.1.55-.11.34-.02.63.13.94.2.56.12 1.14.18 1.69.37.34.12.66.14.98-.07.28-.18.39-.12.51.19-.07-.02-.12-.01-.1.07z"/><path class="awst1" d="M20.73 26.46c-.19.2-.42.29-.69.31-.43-.14-.86-.28-1.3-.34-.16-.02-.33-.04-.49.03-.21.08-.37-.01-.55-.08-.34-.14-.4-.36-.42-.71-.02-.54.07-1.01.49-1.38.28-.25.31-.58.34-.92.04-.54.18-1.07.19-1.61 0-.08.02-.13.11-.14.05-.01.1-.04.14-.06.53-.27.53-.27.89.2.19.24.38.49.57.73.06.07.1.12.2.06.18-.11.37-.08.56-.01.31.11.37.08.56-.19.18-.25.27-.53.31-.84.01-.12-.01-.19-.14-.23-.22-.06-.4-.2-.53-.4-.1-.14-.09-.24.11-.29.38-.1.76-.1 1.14-.07l1.48.12c.18.02.29-.05.4-.19.17-.23.35-.45.53-.67.05-.06.09-.12.17-.13.5-.09.99-.19 1.49-.27.13-.02.31-.06.28.19-.01.1.07.05.11.03.41-.22.75-.52 1.06-.86.05-.06.04-.12.02-.19-.03-.08-.07-.15-.09-.23a.859.859 0 0 1 0-.45c.05-.22.25-.12.38-.14.24-.04.47-.07.68-.21.13-.09.22-.06.18.12-.02.09-.02.17.04.24.16.16.1.33.02.5l-.36.78c-.05.11-.07.2.1.24.15.04.28.15.42.22.08.04.17.07.25-.01.38-.33.84-.53 1.27-.77.19-.11.24-.22.15-.41-.02-.03-.02-.07-.04-.11-.24-.43-.16-.81.13-1.19.23-.3.43-.61.65-.92.08-.11.16-.23.1-.37-.06-.14-.21-.15-.33-.15-.31.01-.61.05-.92.08-.07.01-.1.06-.13.11-.34.46-.77.79-1.31.99-.54.2-1.04.47-1.53.77-.11.07-.18.06-.26-.05-.18-.24-.37-.48-.56-.71-.08-.09-.07-.16.01-.25.84-.89 1.75-1.69 2.8-2.33.19-.11.38-.21.61-.2.09.01.14-.06.17-.12.23-.44.6-.51 1.05-.44.64.1 1.28.2 1.88.45.21.09.41.19.58.35.18.17.3.38.23.64-.03.12.03.16.12.2.42.17.84.14 1.26 0 .39-.13.75-.34 1.13-.5.19-.08.39-.16.6-.18.14-.01.15-.05.08-.17-.28-.45-.54-.9-.83-1.35-.09-.14-.11-.26-.06-.4.07-.22.18-.43.21-.66.01-.08.05-.07.11-.06.22.03.39.14.54.3.27.32.41.7.54 1.08.05.16.12.25.32.27.32.03.61.19.91.31.22.09.43.19.67.16.21-.02.23-.07.1-.24-.26-.35-.5-.72-.6-1.15-.07-.3-.06-.32.25-.32h.74c-.08-.09-.01-.26-.21-.17-.07.03-.07-.07-.1-.12-.04-.06.01-.08.06-.11.31-.16.64-.29.89-.55.06-.06.12-.04.19-.04.51 0 .97.19 1.43.37 1.85.74 3.57 1.73 5.27 2.76 3.77 2.3 6.67 5.45 9.01 9.15 1.67 2.64 2.72 5.52 3.38 8.55.02.1.02.19-.04.27-.23.29-.29.62-.21.98 0 .01 0 .03.01.04.03.29-.01.33-.28.23-.68-.25-1.05-.78-1.18-1.45-.07-.36-.18-.52-.55-.55-.19-.01-.37-.12-.55-.18-.17-.06-.27-.04-.33.16-.1.3-.13.59.01.88.09.18.04.3-.1.43-.32.29-.62.6-.93.89-.13.12-.18.26-.18.44.01.68.01 1.37 0 2.06 0 .21.03.4.19.55.08.08.14.18.21.26.09.1.1.19.05.32-.14.33-.28.65-.37 1.01-.06.24-.24.46-.28.73-.01.04-.02.09-.02.13-.03.28-.07.3-.32.17-.42-.23-.64-.61-.71-1.07-.02-.12-.05-.16-.17-.18-.35-.08-.54-.34-.69-.64-.31-.64-.4-1.32-.42-2.02-.01-.16-.03-.27-.2-.35-.22-.11-.36-.31-.52-.5-.03-.03-.05-.08-.04-.12.11-.64-.12-1.22-.32-1.8-.16-.46-.36-.9-.66-1.3.08.56.15 1.12.18 1.69.03.57.04 1.14.03 1.78-.36-.47-.68-.89-.77-1.43-.01-.08.02-.16-.1-.2-.42-.13-.74-.42-.98-.77-.3-.44-.67-.61-1.19-.54-.2.03-.35.06-.49.21-.26.28-.55.51-.88.7-.13.08-.24.08-.32-.07-.19-.36-.43-.53-.88-.34-.39.17-.83.02-1.24-.07-.6-.14-1.17-.38-1.8-.42-.09-.01-.12-.09-.16-.14-.41-.52-.79-1.07-1.25-1.54-.22-.22-.45-.43-.72-.57-.27-.15-.55-.2-.85-.09-.09.03-.14.07-.1.18.14.36.25.73.47 1.04.16.23.36.43.66.45.09.01.13.06.17.13.54.97 1.41 1.39 2.48 1.5.61.06 1.22.03 1.83.02.17 0 .29.04.37.19.2.38.5.52.94.47.39-.04.37 0 .53.35.18.38.18.73-.02 1.09-.11.22-.19.46-.27.69-.03.08-.07.14-.17.15-.83.04-1.48.47-2.1.96-.69.54-1.34 1.12-2.03 1.65-.61.48-1.28.85-2.07.95-.21.03-.34.02-.43-.22-.19-.54-.43-1.06-.65-1.59-.06-.15-.15-.27-.27-.38-.53-.47-1.05-.95-1.57-1.42-.1-.09-.13-.2-.14-.32-.07-.54-.13-1.07-.19-1.61a.862.862 0 0 0-.13-.38c-.35-.53-.7-1.07-1.05-1.61-.06-.09-.1-.13-.23-.12-.15.02-.28-.09-.39-.2-.25-.26-.49-.53-.73-.8a3.28 3.28 0 0 0-.56-.49c.01-.01.02-.02.03-.04.09.05.15.01.22-.06.22-.21.44-.41.67-.6.28-.24.28-.24.06-.53-.08-.1-.16-.2-.23-.3-.04-.05-.09-.11-.16-.1-.51.03-1.03 0-1.5.23-.2.1-.36.08-.54-.03-.35-.2-.69-.44-1.1-.52-.12-.02-.1-.12-.1-.2v-1.29c0-.27.08-.58-.37-.63.11-.06.18-.04.24-.03.57.08 1.15.11 1.7.33.21.08.41.06.58-.15.15-.19.34-.34.5-.52.06-.07.12-.1.22-.06.41.17.84.23 1.28.21.36-.02.64.08.86.37.07.09.14.2.29.2.54-.02 1.08-.01 1.6-.19.18-.06.2-.12.05-.24-.36-.27-.73-.53-1.07-.83-.6-.51-1.29-.97-1.32-1.93-.17.19-.39.31-.42.52-.05.37-.18.73-.25 1.1-.04.2-.13.2-.28.17-.33-.05-.64-.17-.95-.29-.27-.11-.54-.19-.82-.22-.07-.01-.17-.05-.19.08-.06.38-.21.74-.23 1.12 0 .15-.08.16-.19.12-.14-.06-.27-.12-.41-.19-.13-.06-.23-.06-.34.06-.19.21-.24.2-.46.01-.05-.05-.1-.09-.15-.14-.22-.18-.25-.18-.39.07-.5.85-.95 1.72-1.25 2.69-.1-.42-.25-.85-.64-.98-.44-.15-.39-.42-.38-.74 0-.11-.02-.23 0-.34.08-.46-.28-.68-.5-.98-.02.37-.02.73-.02 1.09 0 .08.01.16-.07.22-.46.34-.81.78-1.17 1.22-.27.32-.26.32-.61.08l-.69-.48c-.15-.11-.32-.21-.43-.37-.22-.3-.26-.73.25-.82.15-.03.18-.1.17-.23-.01-.23.03-.45.17-.64.08-.11.05-.18-.02-.27-.36-.45-.71-.9-1.06-1.35-.08-.11-.17-.13-.29-.11-.24.04-.44.15-.63.29-.4.29-.72.66-1.03 1.04-.25.3-.28.32-.66.19-.22-.07-.43-.19-.66-.21-.09-.01-.18-.01-.24.08-.26.42-.48.79-.61 1.2zm20.78-3.77c-.07.44-.16.84-.2 1.24-.02.21-.1.21-.26.17-.23-.06-.47-.12-.7-.17-.2-.04-.38.12-.37.31.01.41.36.76.77.76.13 0 .26.01.38 0 .11-.01.2.03.28.11.21.22.43.44.65.66.07.07.1.13.05.24-.14.32-.16.65-.16.99 0 .15.05.19.19.19.24-.01.48 0 .72 0 .62 0 .62 0 .96-.51.09-.13.06-.21-.03-.29-.15-.13-.3-.25-.45-.38-.23-.19-.41-.39-.34-.73.04-.18-.25-.65-.42-.67-.29-.03-.22-.2-.17-.36.03-.12.1-.22.17-.32.22-.29.21-.31-.09-.51-.1-.07-.21-.14-.33-.14-.24.01-.36-.16-.48-.32-.04-.07-.09-.15-.17-.27zm-8.99.89c-.32.04-.37.23-.39.49.14-.17.25-.31.39-.49zm3.69-.08l-.01.01h.01v-.01z"/><path class="awst2" d="M8.54 21.37c.02-.15.09-.27.17-.38.83-1.23 1.84-2.31 2.92-3.32 1.86-1.73 3.86-3.29 6.08-4.54 2.6-1.46 5.39-2.43 8.32-2.98 1.89-.35 3.8-.49 5.73-.44 1.09.03 2.18.1 3.26.26.03 0 .06.01.13.03-.49.04-.97.06-1.35.29-.5.3-1.03.27-1.56.26-.19 0-.28.04-.35.24-.31.85-.92 1.43-1.7 1.85-.82.45-1.72.71-2.61.99-.8.25-1.59.49-2.35.86-.48.23-.92.51-1.31.87-.08.08-.16.09-.26.09h-1.94c-.12 0-.19.03-.25.14-.25.48-.74.61-1.18.81-.07.03-.12-.02-.15-.06-.31-.39-.68-.6-1.19-.65-.37-.03-.71-.24-1.03-.44-.56-.35-1.17-.5-1.83-.45-.19.02-.37.08-.53.16-.5.24-.9.6-1.28.99-.78.81-1.41 1.74-2.07 2.65-.59.82-1.17 1.64-1.85 2.39-.54.59-1.13 1.13-1.88 1.45-.16.07-.23.05-.18-.14.14-.29.18-.61.24-.93zM58.14 36.29c.56.56 1.18.93 1.84 1.25.09.04.13.11.19.18.46.55.56 1.17.56 1.89 0 2.22-.36 4.37-1.15 6.44-.19.49-.44.96-.77 1.37-.23.28-.5.52-.86.63-.09.03-.12.07-.13.16-.02.2-.06.4-.09.6-.04.35-.22.62-.49.83-.24.19-.53.19-.77.01-.23-.17-.4-.38-.45-.67-.06-.32-.13-.65-.22-.97-.11-.36-.02-.72.01-1.07.11-1.04.21-2.08.35-3.12.08-.6.3-1.16.46-1.74.04-.15.22-.2.35-.27.15-.09.23-.21.21-.38-.04-.41.1-.76.28-1.12.42-.84.82-1.69 1.23-2.53.06-.13.07-.21-.05-.33-.3-.3-.51-.66-.5-1.16zM5.21 48.56c-1.27-2.96-2.02-5.99-2.2-9.22.16.1.24.21.32.31.39.48.71 1 .93 1.56.25.61.71.89 1.3 1.01.16.04.22.09.21.26-.01.33-.05.67.01.99.06.32.37.51.55.77.43.62.81 1.27 1.32 1.83.11.12 0 .16-.06.21-.43.37-.86.73-1.29 1.1-.37.34-.75.69-1.09 1.18zM44.32 50.64a.69.69 0 0 0-.14.48c0 .12-.03.22-.09.32-.37.61-.63 1.25-.6 1.97.01.24-.08.42-.25.59-.45.46-.82.98-1.24 1.46-.06.07-.13.14-.2.22-.25.28-.55.39-.93.28-.32-.09-.64-.16-.97-.22-.13-.02-.11-.1-.1-.18.04-.32.18-.59.41-.81.13-.12.13-.2-.01-.31-.26-.21-.51-.45-.76-.67-.09-.08-.1-.12 0-.2.37-.29.74-.59 1.11-.89.12-.09.26-.12.4-.15.65-.13 1.21-.39 1.65-.92.27-.32.63-.56 1-.76.21-.11.44-.19.72-.21z"/><path class="awst3" d="M32.93.04c.21.08.43.06.64.08 1.36.13 2.72.24 4.09.36.21.02.42.04.63.05.15.01.23.09.24.22.03.29.02.57-.06.85-.05.18-.14.26-.34.24-.55-.05-1.11-.09-1.66-.15-.17-.02-.22.05-.24.21l-.33 3.86-.18 2.11c-.03.29-.09.35-.37.37-.34.02-.68-.02-1.01-.1-.18-.04-.26-.14-.25-.34.09-1 .18-2.01.26-3.01.06-.74.13-1.48.19-2.22.03-.29.05-.58.08-.88.01-.12-.01-.17-.14-.18-.54-.04-1.08-.09-1.62-.13-.34-.03-.4-.08-.4-.43 0-.32-.01-.65.22-.92.1.01.18.01.25.01zM0 18.38c.29-.34.49-.73.73-1.1.74-1.16 1.48-2.32 2.21-3.49.15-.24.25-.27.5-.14.22.11.42.23.6.4.13.12.15.25.05.4-.3.46-.58.93-.89 1.39-.11.16-.08.23.07.33 1.69 1.06 3.37 2.13 5.05 3.2.28.18.3.23.16.53-.14.29-.31.57-.53.81-.14.16-.27.18-.47.06-1.68-1.07-3.37-2.13-5.04-3.21-.2-.13-.28-.11-.39.09-.27.45-.56.89-.84 1.34-.11.17-.23.22-.41.14-.3-.17-.59-.34-.8-.62v-.13zM19.7 4.98c.16-.3.32-.54.51-.75.55-.62 1.23-.86 2.05-.71.31.05.56.22.77.44.1.11.14.08.2-.03.12-.22.26-.42.42-.61.7-.84 1.92-1.03 2.7-.41.33.26.53.61.67 1 .31.88.5 1.79.76 2.69.1.35.18.7.28 1.04.06.2 0 .3-.17.38-.3.13-.62.22-.95.26-.21.01-.33-.06-.38-.28-.26-1-.54-2-.81-3-.06-.22-.14-.43-.28-.61-.33-.47-.91-.5-1.29-.07-.2.22-.33.49-.45.75-.05.1-.02.19.01.29.29 1.06.57 2.12.86 3.18.06.23 0 .36-.21.44-.3.11-.6.2-.91.24-.2.03-.31-.04-.37-.26-.27-1.02-.55-2.05-.83-3.07-.06-.23-.15-.44-.3-.63-.3-.38-.8-.42-1.15-.1-.26.24-.42.55-.56.86-.03.08-.01.14.01.22.29 1.08.58 2.16.88 3.24.06.22-.01.33-.19.41-.31.13-.64.22-.98.26-.16.02-.27-.04-.32-.22-.46-1.72-.92-3.44-1.39-5.16-.04-.14.01-.24.13-.3.28-.14.57-.22.88-.24.16-.01.24.07.27.21.04.17.08.33.14.54zM45.39 10.73c-.19.04-.38.08-.57.11-.83.13-1.84-.32-2.28-1.04-.36-.58-.28-1.16.02-1.74.29-.55.75-.83 1.37-.85.68-.02 1.3.21 1.91.47.16.07.32.14.47.21.09.05.14.03.17-.06 0-.01.01-.03.02-.04.41-.83.24-1.25-.63-1.58-.47-.18-.95-.19-1.45-.17-.4.01-.48-.1-.37-.49.15-.52.32-.65.85-.65 1 0 1.89.32 2.68.93.62.47.81 1.09.6 1.84-.18.6-.48 1.13-.72 1.69-.31.71-.64 1.41-.96 2.11-.11.24-.19.28-.44.19-.2-.07-.39-.16-.58-.26-.24-.13-.26-.2-.15-.45.03-.07.05-.14.08-.21.01-.01.01-.02.02-.03-.02.01-.03.02-.04.02zm-.61-.83c.27.01.51-.07.75-.16.07-.03.13-.07.16-.15.09-.21.19-.41.28-.62.03-.06.06-.13-.03-.17-.44-.2-.87-.46-1.38-.45-.36 0-.64.23-.73.58-.08.33.05.62.36.8.18.11.38.18.59.17zM17 11.35c-.12.5-.34.95-.74 1.28-.51.43-1.08.69-1.78.61-.9-.1-1.81-1.37-1.3-2.38.28-.54.71-.93 1.18-1.28.24-.18.5-.34.75-.49.12-.07.14-.14.06-.25 0-.01-.01-.01-.01-.02-.47-.77-.89-.86-1.63-.34-.4.28-.69.67-.94 1.09-.24.41-.41.42-.69.04-.31-.41-.32-.59-.03-1.02.61-.89 1.42-1.51 2.47-1.78.56-.15 1.07-.01 1.49.41.23.23.42.49.59.76.6.95 1.2 1.91 1.8 2.86.16.25.15.32-.1.5-.16.12-.34.23-.51.32-.24.13-.31.11-.46-.12-.03-.06-.05-.15-.15-.19zm-1.84.57c.57 0 1.21-.77 1.11-1.32a.689.689 0 0 0-.03-.08c-.12-.2-.25-.39-.37-.59-.06-.09-.11-.1-.2-.04-.26.17-.54.33-.78.53-.16.13-.29.28-.38.47-.21.45.15 1.03.65 1.03zM9.72 17.3c-.33 0-.64-.07-.94-.22a4.513 4.513 0 0 1-2.03-1.93c-.56-1.03-.39-2.15.44-3.04.54-.58 1.16-.99 1.98-.96.68.03 1.23.37 1.72.81.09.08.18.16.26.25.28.28.28.49.01.78-.52.55-1.04 1.09-1.56 1.63-.19.2-.38.41-.58.6-.08.08-.09.13 0 .21.61.55 1.3.55 1.89-.01.45-.42.76-.92 1-1.49.15-.35.26-.36.54-.11.52.47.54.56.2 1.17-.5.89-1.13 1.65-2.08 2.09-.25.15-.54.22-.85.22zm-.97-4.84c-.05.01-.12.02-.19.04-.43.14-.72.43-.83.87-.12.48.12.86.41 1.21.06.07.11.05.16-.01.47-.5.94-.99 1.41-1.48.06-.07.08-.12 0-.19-.27-.25-.56-.43-.96-.44zM56.25 13.03c1.08.01 1.8.57 2.35 1.39.74 1.11.53 2.3-.54 3.24-.1.08-.19.17-.29.25-.28.23-.51.22-.75-.05l-1.95-2.25c-.2-.23-.2-.24-.41-.01-.52.56-.54 1.17-.06 1.79.37.48.84.83 1.37 1.12.35.2.36.28.06.56-.49.46-.6.47-1.15.1-.66-.43-1.21-.97-1.62-1.64-.6-.98-.56-1.95.17-2.85.63-.78 1.39-1.4 2.41-1.6.13-.03.29-.04.41-.05zm1.49 2.41a.84.84 0 0 0-.13-.49c-.47-.76-1.19-.79-1.9-.28-.09.07-.06.12-.01.18.44.51.89 1.02 1.33 1.54.05.06.09.1.17.03.3-.27.53-.56.54-.98zM50.26 12.57c.37-.29.74-.57 1.1-.84.73-.57 1.47-1.13 2.19-1.7.18-.15.34-.15.53-.04.24.14.47.3.68.48.22.19.23.3.01.5-.38.35-.81.62-1.22.93-1.04.77-2.09 1.53-3.13 2.3-.2.15-.38.16-.58.04-.38-.22-.74-.49-1.09-.77-.2-.17-.26-.36-.18-.62.51-1.62 1-3.24 1.51-4.86.18-.59.3-.63.81-.28.17.12.34.25.5.38.18.14.21.3.13.52-.42 1.23-.82 2.47-1.23 3.7-.01.07-.06.15-.03.26zM56.16 21.12c-.01-.15.1-.2.2-.26 1.01-.65 2.01-1.29 3.02-1.93 1.18-.75 2.36-1.5 3.53-2.26.2-.13.35-.1.49.06.2.24.37.5.5.78.1.21.05.34-.15.47-1.68 1.06-3.35 2.14-5.02 3.21-.52.33-1.04.66-1.56 1-.16.11-.29.1-.41-.05-.23-.27-.43-.56-.56-.89-.02-.05-.03-.1-.04-.13zM40.8 4.16c.22-.14.42-.27.63-.38.49-.27.96-.23 1.43.05.16.09.22.21.17.4-.08.31-.15.61-.28.9-.1.21-.19.25-.36.11-.46-.37-.9-.28-1.35.02-.29.2-.49.42-.58.78-.24.92-.53 1.83-.79 2.75-.05.16-.13.25-.3.23-.37-.03-.73-.13-1.06-.3-.15-.07-.19-.18-.14-.35.49-1.68.98-3.36 1.46-5.04.07-.23.19-.29.39-.25.25.05.5.11.73.22.16.07.2.19.16.35-.03.16-.11.32-.11.51z"/><path class="awst1" d="M8.54 21.37c-.06.32-.1.64-.25.93.01-.33.1-.63.25-.93zM34.02 30.35c-.03-.08.03-.09.09-.1.06.04.12.08.19.13-.01.01-.02.02-.03.04-.08-.02-.17-.05-.25-.07z"/><path class="awst2" d="M32.52 23.58c-.14.18-.25.32-.39.49.02-.25.07-.45.39-.49z"/><path class="awst4" d="M36.21 23.5v.01h-.01zM45.39 10.73c.01 0 .02-.01.03-.01-.01.01-.01.02-.02.03l-.01-.02z"/></svg><svg id="p-vibrotechmash" viewBox="0 0 64 20" width="64" height="20" y="977"><style>.axst0{fill:#1d61a4}.axst1{fill:#fff}</style><circle class="axst0" cx="3.52" cy="14.48" r="3.31"/><circle class="axst0" cx="28.22" cy="4.95" r="3.31"/><circle class="axst0" cx="19.39" cy="3.4" r="1.24"/><circle class="axst0" cx="10.97" cy="6.51" r="6.42"/><circle class="axst0" cx="21.53" cy="8.06" r="2.76"/><circle class="axst1" cx="9.04" cy="3.4" r="1.24"/><g><path class="axst1" d="M11.86 17.44c-.2-.13-.43-.21-.66-.25.54-.16 1.08-.6.79-1.22-.24-.52-.95-.55-1.44-.55H8.47v.32l.05.01c.19.03.49.05.49.3v2.63c0 .26-.29.25-.49.27l-.06.01v.32h2c.51 0 1.18-.02 1.55-.42.4-.42.3-1.1-.15-1.42zm-1.13-.58c-.12.12-.32.18-.58.18h-.07v-1.26h.08c.28-.02.56.02.7.29.12.24.06.6-.13.79-.12.12.12-.12 0 0zm-.66.57h.06c.57-.03 1.04.24.96.88-.03.26-.16.49-.42.57-.15.05-.54.07-.6-.14v-1.31zM15.75 15.73l.05.01c.2.03.48.06.48.3l-1.55 1.93v-1.96c0-.25.29-.26.48-.27h.06v-.33h-2.12v.32l.06.01c.18.02.49.06.49.3v2.64c0 .26-.29.25-.49.26h-.06v.33h2.12v-.33h-.06c-.25-.02-.47-.05-.48-.33l1.55-1.93v2c0 .26-.29.24-.48.26h-.06v.32h2.12v-.33h-.06c-.19-.01-.49-.03-.49-.28v-2.64c0-.25.3-.26.49-.27h.06v-.33h-2.12v.32zM21.99 17.21c-.51-.29-1.11-.25-1.67-.23v-1.2h.56c.14 0 .28.01.41.03.27.04.47.54.56.76l.02.04h.31v-1.19h-3.45v.32l.05.01c.19.02.49.05.49.3v2.63c0 .27-.29.25-.49.27l-.06.01v.32h2.3c.53 0 1.13-.2 1.38-.71.23-.5.07-1.09-.41-1.36-.15-.09.16.09 0 0zm-.65.92c0 .29-.1.6-.38.73-.15.07-.57.11-.64-.12v-1.37c.54-.03 1.02.13 1.02.76zM26.58 15.65c-.25-.16-.62-.24-1.11-.24h-2.12v.32l.05.01c.19.02.49.05.49.3v2.63c0 .27-.29.25-.49.27l-.06.01v.32h2.15v-.32l-.06-.01c-.2-.02-.49-.04-.49-.29v-.99h.24c.55 0 1.23-.1 1.58-.59.32-.42.29-1.12-.18-1.42-.24-.16.26.17 0 0zm-1.63.13h.16c.49 0 .72.28.71.77-.01.51-.33.75-.82.75h-.05v-1.52zM31.28 15.84c-.81-.73-2.22-.72-2.98.07-.79.82-.75 2.27.15 3 .82.66 2.17.61 2.9-.15.76-.78.74-2.18-.07-2.92-.18-.16.19.18 0 0zm-.77 2.69c-.33.69-1.17.52-1.43-.12-.26-.63-.25-1.55.01-2.18.27-.63 1.06-.74 1.41-.11.35.65.33 1.76.01 2.41zM32.61 16.6h.31l.01-.04c.07-.22.23-.57.43-.7.15-.1.35-.09.53-.09h.06v2.89c0 .2-.14.24-.3.25l-.27.03v.32h2.2v-.32l-.05-.01c-.21-.02-.53-.03-.53-.3v-2.86h.06c.18 0 .38-.01.53.09.2.13.35.49.43.7l.01.04h.31v-1.19H32.6v1.19zM40.43 18.02c-.16.41-.38.82-.84.87-.42.05-.94.12-.94-.42v-1.01h.32c.39 0 .57.25.62.62l.01.05h.32v-1.68h-.32l-.01.05c-.06.36-.24.59-.62.59h-.32v-1.31h.48c.5 0 .84.16 1.03.67l.01.04h.31v-1.08h-3.43v.32l.05.01c.19.02.49.05.49.3v2.63c0 .26-.29.25-.49.27h-.06v.33h3.62l.08-1.29h-.3l-.01.04zM45.57 18.91c-.25-.06-.43-.23-.57-.44-.32-.45-.64-.91-.95-1.37.36-.41.76-1.07 1.27-1.3.1-.04.19-.06.29-.06h.06v-.33H44.1v.32l.06.01c.23.02.38 0 .31.23-.09.28-.45.59-.63.8l-.26-.39c-.05-.08-.36-.45-.31-.54.05-.1.38-.09.46-.1h.06v-.33h-2.4v.33h.06c.39.03.62.24.84.55.28.38.55.78.81 1.17-.16.18-.31.36-.45.52l-.42.47c-.22.25-.44.46-.79.48h-.06v.33h1.57v-.32h-.06c-.1-.01-.23-.01-.32-.06-.02-.01-.03-.02-.03-.02-.1-.21.67-.94.77-1.06.17.26.52.62.59.92.06.25-.17.2-.41.22h-.06v.33h2.4v-.33h-.06a4.571 4.571 0 0 1-.2-.03zM51.51 18.91c-.15-.03-.29-.07-.29-.25v-2.64c0-.25.27-.26.46-.27h.06v-.33h-1.77v.06c-.01.15-.06.31-.11.44l-.72 1.84-.88-2.35h-1.82v.32h.06c.34.02.55.17.55.53v1.85c0 .49-.05.75-.58.82l-.05.01v.32h1.73v-.32l-.05-.01c-.52-.06-.6-.36-.6-.85v-1.92l.82 2.24c.09.25.2.5.27.75l.01.05h.4l1.18-3.01v2.46c0 .27-.32.27-.52.29l-.06.01v.32h2.15v-.32l-.05-.01c-.05-.01-.11-.02-.19-.03zM56.56 18.91c-.27-.06-.35-.27-.45-.5-.15-.35-.29-.7-.43-1.06-.26-.65-.52-1.31-.79-1.96l-.02-.04h-.61l-.02.04c-.25.6-.47 1.14-.68 1.63l-.61 1.48c-.11.28-.33.41-.62.42h-.06v.33h1.65v-.32l-.06-.01c-.17-.02-.44-.02-.49-.21-.04-.17.17-.56.23-.71h1.2l.3.73c.01.03.02.05.02.06 0 .01 0 .03.01.03-.07.09-.37.09-.47.1h-.06v.32h2.16v-.33h-.06c-.02.02-.08.02-.14 0-.06-.01.06.02 0 0zm-1.89-1.28h-.89l.44-1.12.45 1.12zM63.48 15.88c.06-.13.35-.13.46-.14H64v-.33h-2.09v.32l.05.01c.18.02.44.08.44.3v2.67c0 .31-1.23.3-1.23-.06v-2.64c0-.24.25-.26.44-.27h.06v-.33h-2.04v.32l.05.01c.18.02.44.08.44.3v2.67c0 .31-1.23.3-1.23-.06v-2.64c0-.24.24-.26.43-.27h.06v-.33H57.3v.32l.06.01c.18.02.49.06.49.3v2.64c0 .26-.29.25-.49.26h-.06v.33H64v-.33h-.06c-.19-.01-.49-.03-.49-.28v-2.64c0-.06.01-.1.03-.14z"/></g></svg><svg id="p-wp" viewBox="128 30 64 25" width="64" height="25" y="997"><style>.ayst0{fill:#006eb6}.ayst1{fill:#7c7f7e}</style><path class="ayst0" d="M172.4 30.18h5.6l8.48 18.26-2.64 6.25z"/><path class="ayst0" d="M172.4 30.18h5.6l8.48 18.26-2.64 6.25zM164.37 30.18h5.56l8.52 18.26-2.64 6.25z"/><path class="ayst0" d="M164.37 30.18h5.56l8.52 18.26-2.64 6.25z"/><path class="ayst1" d="M191.55 36.8l-3.85 9.05-7.43-15.74h7.1c4.63 0 4.63 4.58 4.63 4.58 0 1.01-.45 2.11-.45 2.11zM155.89 30.14c-.41 0-1.58.04-3.57.12v18.99h2.6V32.58c.61-.08 1.05-.12 1.42-.12 3.45 0 5.15 1.18 5.15 3.49 0 2.52-1.62 3.81-4.83 3.81h-.12l1.05 2.31c4.38-.2 6.57-2.35 6.57-6.37.01-3.73-2.75-5.56-8.27-5.56zM147.57 30.14l-3.85 13.15-3.41-10.95h-2.27l-3.45 10.99-3.78-13.19h-2.67l5.92 19.11h.81l4.22-12.98 4.46 12.98h.82l5.88-19.11z"/><g><path class="ayst0" d="M128.3 51.26v-.45h.39v.45h-.39zm0 2.74v-2.32h.39V54h-.39zM129.39 54v-2.32h.35v.33c.55-.82 1.53-.27 1.53.56V54h-.39v-1.4c0-.89-1.1-.7-1.1.14V54h-.39zM131.99 54v-2.32h.35v.33c.55-.82 1.53-.27 1.53.56V54h-.39v-1.4c0-.89-1.1-.7-1.1.14V54h-.39zM134.43 52.85c0-1.57 2.14-1.55 2.17-.03.04 1.55-2.17 1.63-2.17.03zm.41 0c0 1.12 1.37 1.1 1.36-.01-.01-1.1-1.36-1.11-1.36.01zM137.82 54l-.88-2.32h.42l.5 1.39c.05.15.1.31.15.47.04-.12.08-.27.15-.44l.51-1.41h.4l-.89 2.31h-.36zM142.96 53.65l.06.35c-.57.12-.84-.09-.84-.67V52h-.29v-.31h.29v-.57l.39-.24v.81h.4V52h-.4v1.35c0 .3.12.34.39.3zM143.46 51.26v-.45h.39v.45h-.39zm0 2.74v-2.32h.39V54h-.39zM145.2 54l-.88-2.32h.42l.5 1.39c.05.15.1.31.15.47.04-.12.08-.27.15-.44l.51-1.41h.4l-.88 2.31h-.37zM148.48 53.26l.41.05c-.15.55-.57.75-1.01.75-.64 0-1.12-.38-1.12-1.26 0-.83.57-1.16 1.08-1.16.7 0 1.05.49 1.05 1.31h-1.73c.02.54.34.8.69.8.31-.01.52-.16.63-.49zm-1.28-.64h1.29c-.02-.2-.07-.34-.15-.44-.4-.48-1.13-.17-1.14.44zM150.84 54.89v-3.21h.36v.3c.41-.57 1.28-.4 1.54.23.08.19.12.39.12.61 0 .24-.04.45-.13.64-.25.56-1.07.83-1.49.3v1.13h-.4zm.36-2.03c0 1.11 1.26 1.06 1.25-.03-.01-1.11-1.25-1.08-1.25.03zM157.54 53.16l.39.05c-.15.63-.5.85-.96.85-.6 0-1.05-.41-1.05-1.2 0-.75.4-1.22 1.06-1.22.32 0 .79.12.93.73l-.38.06c-.09-.39-.32-.47-.55-.47-.5 0-.64.48-.64.89 0 .5.18.89.65.89.23-.01.48-.14.55-.58zM158.37 54v-3.2h.39v1.82l.93-.94h.51l-.89.86.98 1.46h-.48l-.77-1.18-.28.27V54h-.39zM160.58 53.52c-.1-.98 1-.76 1.6-.98.16-.69-1.08-.83-1.16-.13l-.38-.05c.09-.56.58-.71 1.09-.71.61 0 .92.3.85.88v.52c0 .31-.04.68.13.97h-.41s-.07-.11-.08-.29c-.41.37-.89.36-1.07.32-.36-.09-.54-.3-.57-.53zm1.61-.68c-.35.18-1.23.06-1.19.54.05.67 1.21.34 1.19-.21v-.33zM153.34 53.52c-.1-.98 1-.76 1.6-.98.16-.69-1.08-.83-1.16-.13l-.38-.05c.09-.56.58-.71 1.09-.71.61 0 .92.3.85.88v.52c0 .31-.04.68.13.97h-.41s-.07-.11-.08-.29c-.41.37-.89.36-1.07.32-.37-.09-.55-.3-.57-.53zm1.6-.68c-.35.18-1.23.06-1.19.54.05.67 1.21.34 1.19-.21v-.33zM139.45 53.52c-.1-.98 1-.76 1.6-.98.16-.69-1.08-.83-1.16-.13l-.38-.05c.09-.56.58-.71 1.09-.71.61 0 .92.3.85.88v.52c0 .31-.04.68.13.97h-.41s-.07-.11-.08-.29c-.41.37-.89.36-1.07.32-.37-.09-.55-.3-.57-.53zm1.6-.68c-.35.18-1.23.06-1.19.54.05.67 1.21.34 1.19-.21v-.33zM163.23 54.2l.38.06c.04.34.49.44.77.34.4-.15.41-.51.41-.89-.69.81-1.64-.05-1.64-.87-.01-.85 1-1.72 1.68-.87v-.28h.36v2c0 .65-.16 1.14-.89 1.24-.5.07-1.09-.14-1.07-.73zm.32-1.4c0 1.08 1.28 1.1 1.27.01 0-1.04-1.27-1.08-1.27-.01zM165.9 51.26v-.45h.39v.45h-.39zm0 2.74v-2.32h.39V54h-.39zM166.99 54v-2.32h.35v.33c.55-.82 1.53-.27 1.53.56V54h-.39v-1.4c0-.89-1.1-.7-1.1.14V54h-.39zM169.51 54.2l.38.06c.04.34.49.44.77.34.4-.15.41-.51.41-.89-.69.81-1.64-.05-1.64-.87-.01-.85 1-1.72 1.68-.87v-.28h.36v2c0 .65-.16 1.14-.89 1.24-.49.07-1.08-.14-1.07-.73zm.33-1.4c0 1.08 1.28 1.1 1.27.01-.01-1.04-1.27-1.08-1.27-.01z"/></g></svg><svg id="p-yes" viewBox="0 0 64 64" width="64" height="64" y="1022"><style>.azst0{fill:#00b0f9}.azst1{fill:#94c961}.azst2{fill:#f80000}</style><path class="azst0" d="M8.71 54.08V36.9L0 13.29h8.43l4.95 14.07 5.49-14.07h8.25l-9.47 23.67v17.12H8.71z"/><path class="azst1" d="M18.75 37.56L33.26 0l15.81 6.11-2.45 6.35-7.69-2.97-3.22 8.33 7.8 3.01-1.95 5.05-7.8-3.01-4.43 11.48 7.62 2.94-2.45 6.35-15.75-6.08z"/><path class="azst2" d="M60.9 34.05l-7.25-3.56 1.34-2.72c.62-1.27.93-2.12.91-2.56-.01-.44-.24-.76-.67-.98-.47-.23-.94-.17-1.41.18s-.94 1-1.41 1.96c-.6 1.23-.92 2.21-.95 2.97-.05.75.32 1.86 1.1 3.33 2.24 4.23 3.41 7.37 3.52 9.43.11 2.06-.72 4.89-2.49 8.49-1.28 2.62-2.48 4.42-3.59 5.42s-2.59 1.56-4.43 1.69c-1.85.14-3.72-.26-5.62-1.2-2.09-1.02-3.63-2.38-4.64-4.08-1-1.69-1.37-3.4-1.09-5.12.28-1.72 1.09-3.96 2.44-6.71l1.18-2.4 7.25 3.56-2.19 4.47c-.67 1.38-1.01 2.31-1 2.8.01.49.28.87.8 1.12.52.25 1.03.19 1.53-.18s.99-1.05 1.47-2.04c1.06-2.16 1.51-3.69 1.36-4.6-.17-.91-.84-2.62-2.02-5.13-1.17-2.52-1.89-4.3-2.18-5.32-.28-1.02-.32-2.26-.12-3.72.2-1.46.78-3.16 1.74-5.11 1.38-2.81 2.68-4.72 3.91-5.74 1.22-1.01 2.67-1.56 4.34-1.65 1.67-.09 3.43.32 5.29 1.23 2.03.99 3.56 2.24 4.59 3.74 1.03 1.5 1.49 2.97 1.35 4.42-.13 1.45-.92 3.63-2.35 6.54l-.71 1.47z"/><path class="azst0" d="M2.31 62.84v-1.65L.87 58.92h.93l.92 1.55.91-1.55h.91L3.1 61.19v1.65h-.79zM4.36 61.38c0-.25.06-.49.18-.73s.3-.41.52-.54.48-.18.76-.18c.43 0 .78.14 1.06.42s.41.63.41 1.06c0 .43-.14.79-.42 1.07s-.63.42-1.05.42c-.26 0-.51-.06-.75-.18s-.42-.29-.54-.52-.17-.49-.17-.82zm.77.04c0 .28.07.5.2.65s.3.23.5.23.36-.08.49-.23.2-.37.2-.65-.07-.49-.2-.64-.3-.23-.49-.23-.36.08-.5.23-.2.36-.2.64zM9.75 62.84v-.43c-.1.15-.24.27-.41.36-.16.09-.34.14-.53.14s-.36-.04-.51-.13a.746.746 0 0 1-.33-.35c-.07-.15-.1-.36-.1-.63V60h.75v1.31c0 .4.01.65.04.74s.08.16.15.21c.07.05.17.08.28.08.13 0 .24-.04.35-.11s.17-.16.21-.26.05-.37.05-.77V60h.75v2.85h-.7zM11.95 62.84h-.75V60h.7v.4c.12-.19.23-.32.32-.38.1-.06.2-.09.33-.09.17 0 .34.05.5.14l-.23.66a.667.667 0 0 0-.35-.12c-.11 0-.19.03-.27.09-.07.06-.13.16-.17.31-.04.15-.06.47-.06.95v.88z"/><g><path class="azst2" d="M41.92 61.56l.77-.08c.05.26.14.45.28.57.14.12.33.18.57.18.26 0 .45-.05.58-.16.13-.11.19-.23.19-.38 0-.09-.03-.17-.08-.24a.688.688 0 0 0-.29-.17c-.09-.03-.3-.09-.64-.17-.43-.11-.72-.24-.89-.39a1.03 1.03 0 0 1-.19-1.35c.11-.17.28-.31.49-.4s.47-.14.77-.14c.49 0 .86.11 1.11.32s.38.5.39.87l-.79.03c-.03-.2-.11-.35-.22-.44-.11-.09-.28-.13-.5-.13-.23 0-.41.05-.54.14-.08.06-.13.14-.13.24 0 .09.04.17.12.24.1.08.34.17.73.26s.67.19.86.28c.18.1.33.23.43.4.1.17.16.38.16.63 0 .23-.06.44-.19.63-.13.2-.3.34-.53.44-.23.1-.51.14-.85.14-.5 0-.88-.11-1.14-.34-.26-.2-.42-.54-.47-.98zM47.32 61.94l.75.13c-.1.28-.25.48-.46.63-.21.14-.47.22-.78.22-.5 0-.86-.16-1.1-.48-.19-.26-.28-.59-.28-.98 0-.47.12-.84.37-1.11.25-.27.56-.4.94-.4.42 0 .76.14 1 .42s.36.71.35 1.28h-1.89c.01.22.07.4.18.52s.26.19.43.19c.12 0 .22-.03.3-.1s.15-.18.19-.32zm.04-.76c-.01-.22-.06-.38-.17-.5a.538.538 0 0 0-.39-.17c-.16 0-.3.06-.41.18-.11.12-.16.28-.16.49h1.13zM49.33 62.84h-.75V60h.7v.4c.12-.19.23-.32.32-.38.1-.06.2-.09.33-.09.17 0 .34.05.5.14l-.23.66a.667.667 0 0 0-.35-.12c-.11 0-.19.03-.27.09-.07.06-.13.16-.17.31-.04.15-.06.47-.06.95v.88z"/><path class="azst2" d="M51.42 62.84L50.27 60h.79l.54 1.45.16.48c.04-.12.07-.2.08-.24.02-.08.05-.16.08-.24l.53-1.45h.77l-1.13 2.85h-.67zM53.58 59.61v-.7h.75v.7h-.75zm0 3.23V60h.75v2.85h-.75zM57.47 60.84l-.74.13c-.02-.15-.08-.26-.17-.33s-.2-.11-.34-.11c-.19 0-.34.06-.45.19-.11.13-.17.35-.17.65 0 .34.06.58.17.72.11.14.27.21.46.21.14 0 .26-.04.35-.12.09-.08.16-.22.19-.42l.74.13c-.08.34-.22.6-.44.77s-.51.26-.88.26c-.42 0-.75-.13-1-.39s-.37-.63-.37-1.09c0-.47.12-.84.37-1.1.25-.26.58-.39 1.01-.39.35 0 .62.07.83.22s.36.36.44.67zM59.58 61.94l.75.13c-.1.28-.25.48-.46.63-.21.14-.47.22-.78.22-.5 0-.86-.16-1.1-.48-.19-.26-.28-.59-.28-.98 0-.47.12-.84.37-1.11.25-.27.56-.4.94-.4.42 0 .76.14 1 .42s.36.71.35 1.28h-1.89c.01.22.07.4.18.52.12.12.26.19.43.19.12 0 .22-.03.3-.1a.64.64 0 0 0 .19-.32zm.05-.76c-.01-.22-.06-.38-.17-.5a.538.538 0 0 0-.39-.17c-.16 0-.3.06-.41.18-.11.12-.16.28-.16.49h1.13zM60.61 62.03l.76-.12c.03.15.1.26.2.33.1.08.24.11.41.11.19 0 .34-.04.44-.11.07-.05.1-.12.1-.2 0-.06-.02-.1-.05-.14-.04-.04-.12-.07-.25-.1-.61-.13-.99-.26-1.15-.37a.723.723 0 0 1-.34-.64c0-.25.1-.45.29-.62.19-.17.5-.25.91-.25.39 0 .68.06.87.19s.32.31.39.56l-.71.13a.419.419 0 0 0-.17-.25.64.64 0 0 0-.36-.09c-.2 0-.34.03-.43.08-.06.04-.09.09-.09.15 0 .05.02.1.08.14.07.05.3.12.7.21.4.09.68.2.84.33.16.13.24.32.24.56 0 .26-.11.48-.33.67s-.54.28-.97.28c-.39 0-.69-.08-.92-.24a.925.925 0 0 1-.46-.61z"/></g><g><path class="azst1" d="M15.29 62.84v-3.93h2.91v.66h-2.12v.87h1.97v.66h-1.97v1.07h2.19v.66h-2.98zM18.78 60h.69v.39c.25-.3.54-.45.89-.45.18 0 .34.04.47.11.13.08.24.19.33.34.13-.15.26-.27.4-.34.14-.08.3-.11.46-.11.21 0 .39.04.53.13s.25.21.32.37c.05.12.08.32.08.59v1.82h-.75v-1.63c0-.28-.03-.46-.08-.55-.07-.11-.18-.16-.32-.16-.11 0-.2.03-.3.1s-.16.16-.2.28c-.04.12-.06.32-.06.59v1.37h-.74v-1.56c0-.28-.01-.46-.04-.54a.407.407 0 0 0-.12-.18.392.392 0 0 0-.23-.06.51.51 0 0 0-.51.36c-.04.12-.06.31-.06.59v1.38h-.75V60zM23.58 60h.7v.42a1.04 1.04 0 0 1 .89-.48c.33 0 .61.13.84.39s.35.62.35 1.08c0 .47-.12.84-.35 1.11-.23.26-.51.4-.84.4-.16 0-.3-.03-.43-.09s-.26-.17-.4-.32v1.43h-.75V60zm.74 1.37c0 .32.06.56.19.71.13.15.28.23.46.23.17 0 .32-.07.44-.21.12-.14.17-.37.17-.69 0-.3-.06-.52-.18-.66s-.27-.22-.44-.22c-.18 0-.34.07-.46.21-.11.14-.18.35-.18.63zM26.84 62.84v-3.93h.75v3.93h-.75zM28.08 61.38c0-.25.06-.49.18-.73s.3-.41.52-.54c.23-.12.48-.18.76-.18.43 0 .78.14 1.06.42s.41.63.41 1.06c0 .43-.14.79-.42 1.07-.28.28-.63.42-1.05.42-.26 0-.51-.06-.75-.18s-.42-.29-.54-.52-.17-.49-.17-.82zm.78.04c0 .28.07.5.2.65s.3.23.5.23.36-.08.49-.23.2-.37.2-.65-.07-.49-.2-.64-.3-.23-.49-.23-.36.08-.5.23-.2.36-.2.64zM31.14 60h.8l.68 2.02.67-2.02h.78l-1 2.74-.18.5c-.07.17-.13.29-.19.38a.7.7 0 0 1-.21.21c-.08.05-.17.1-.29.13s-.24.04-.38.04-.29-.02-.43-.05l-.07-.59c.12.02.22.03.32.03.17 0 .3-.05.39-.15.08-.1.15-.23.19-.39L31.14 60zM36.09 61.94l.75.13c-.1.28-.25.48-.46.63-.21.14-.47.22-.78.22-.5 0-.86-.16-1.1-.48-.19-.26-.28-.59-.28-.98 0-.47.12-.84.37-1.11.25-.27.56-.4.94-.4.42 0 .76.14 1 .42s.36.71.35 1.28h-1.89c.01.22.07.4.18.52.12.12.26.19.43.19.12 0 .22-.03.3-.1a.64.64 0 0 0 .19-.32zm.04-.76c-.01-.22-.06-.38-.17-.5a.538.538 0 0 0-.39-.17c-.16 0-.3.06-.41.18-.11.12-.16.28-.16.49h1.13zM39.03 61.94l.75.13c-.1.28-.25.48-.46.63-.21.14-.47.22-.78.22-.5 0-.86-.16-1.1-.48-.19-.26-.28-.59-.28-.98 0-.47.12-.84.37-1.11.25-.27.56-.4.94-.4.42 0 .76.14 1 .42s.36.71.35 1.28h-1.89c.01.22.07.4.18.52s.26.19.43.19c.12 0 .22-.03.3-.1s.15-.18.19-.32zm.04-.76c-.01-.22-.06-.38-.17-.5s-.24-.17-.39-.17c-.16 0-.3.06-.41.18-.11.12-.16.28-.16.49h1.13z"/></g></svg><svg id="p-yota" viewBox="0 0 46 64" width="46" height="64" y="1086"><style>.bast0{fill:#00aeef}</style><path class="bast0" d="M33 0c1.4 0 2.5 1.1 2.5 2.5V5c0 3.3-1.3 6.5-3.6 8.9-1.6 1.7-3.7 2.8-6 3.4l-.2.1v6.4h.2c2.3.5 4.3 1.7 6 3.4 2.3 2.4 3.6 5.5 3.6 8.9v2.5c0 1.4-1.1 2.5-2.5 2.5s-2.5-1.1-2.5-2.5V36c0-2-.8-3.9-2.2-5.3-1.4-1.4-3.2-2.2-5.1-2.2-1.9 0-3.8.8-5.1 2.2-1.4 1.4-2.2 3.3-2.2 5.3v2.5c0 1.4-1.1 2.5-2.5 2.5s-2.5-1.1-2.5-2.5V36c0-3.3 1.3-6.5 3.6-8.9 1.6-1.7 3.7-2.9 6-3.4h.2v-6.4l-.2-.1c-2.3-.5-4.3-1.7-6-3.4-2.3-2.4-3.6-5.5-3.6-8.9V2.6C10.8 1.2 12 0 13.4 0s2.5 1.1 2.5 2.5V5c0 2 .8 3.9 2.2 5.3 1.4 1.4 3.2 2.2 5.2 2.2 1.9 0 3.8-.8 5.1-2.2C29.8 8.9 30.6 7 30.6 5V2.6C30.5 1.2 31.6 0 33 0m-9.8 31c-2.7 0-4.9 2.2-4.9 4.9s2.2 4.9 4.9 4.9 4.9-2.2 4.9-4.9-2.2-4.9-4.9-4.9m21.9 31.2c.2.6 0 1.2-.6 1.5-.1.1-.3.1-.4.1-.5 0-.9-.3-1-.7l-.9-2.2h-5l-.9 2.2c-.2.6-.9.8-1.5.6-.6-.2-.8-.9-.6-1.5l4.4-10.6c.3-.6.7-.8 1.1-.8.5 0 .9.3 1.1.8l4.3 10.6zm-3.9-3.5l-1.6-3.8-1.6 3.8h3.2zm-17.4-1.3c0 3.3-1.8 6.5-5.8 6.5-1.9 0-3.4-.7-4.5-1.9-1-1.2-1.5-2.8-1.5-4.7 0-4.1 2.4-6.8 6-6.8 3.6.1 5.8 2.7 5.8 6.9m-2.4 0c0-2.9-1.1-4.4-3.4-4.4-3.1 0-3.6 2.8-3.6 4.4 0 1.3.3 2.4.9 3.1.6.7 1.5 1.1 2.7 1.1 2.5 0 3.4-2.2 3.4-4.2m12-6.6h-7.6c-.6 0-1.1.5-1.1 1.2 0 .6.5 1.2 1.1 1.2h2.6v9.5c0 .6.5 1.2 1.2 1.2.3 0 .6-.1.8-.3.2-.2.3-.5.3-.8v-9.5h2.7c.6 0 1.2-.5 1.2-1.2 0-.8-.6-1.3-1.2-1.3m-23.1.2c-.6-.3-1.3-.1-1.6.4l-2.9 5-2.9-5c-.3-.6-1-.7-1.6-.4-.6.3-.7 1-.4 1.6L4.7 59v3.6c0 .6.5 1.2 1.2 1.2.6 0 1.2-.5 1.2-1.2V59l3.7-6.5c.3-.5.1-1.2-.5-1.5"/></svg><svg viewBox="5 2 34 21" width="34" height="21" id="phone" y="1150"><path class="bbst0" d="M32 18v5H12v-5l4.5-8.1V7h4v2.5h3V7h4v2.8L32 18zm-5.5-7.8V8h-2v2.5h-5V8h-2v2.1L13 18v4h18v-4l-4.5-7.8z"/><path class="bbst0" d="M35.4 3.9c-2.7-2.6-24.1-2.6-26.8 0C6.7 5.9 5.2 9 6 11c.4.9 1.3 2 4 2 2.9 0 4.5-1.5 4.5-4.1 0-2.3 3.8-3.6 7.5-3.6 2 0 3.9.3 5.3 1 1 .5 2.2 1.3 2.2 2.6 0 3.4 1.3 4.1 4.5 4.1 2.6 0 3.6-1.2 4-2 .9-2.1-.7-5.1-2.6-7.1zM10 12c-1.6 0-2.7-.5-3-1.4-.3-.6-.2-1.5.1-2.3 1.2.9 2.4 1.4 3.8 1.4.8 0 1.7-.2 2.6-.5C13.4 11 12.3 12 10 12zm17.7-6.7c-1.5-.7-3.5-1.1-5.7-1.1-3.7 0-7.6 1.2-8.4 3.7-2.4 1.1-4.2.9-6.1-.7.5-.9 1.1-1.8 1.9-2.4 2.2-2.2 23-2.2 25.3 0 .7.7 1.3 1.6 1.8 2.5-2.3 1.9-4.4 1.4-6.1.7-.4-1.2-1.2-2.1-2.7-2.7zm9.3 5.3c-.4.9-1.4 1.4-3 1.4-2.9 0-3.5-.5-3.5-2.8.8.3 1.7.5 2.6.5 1.2 0 2.5-.4 3.8-1.4.3.8.3 1.7.1 2.3z"/><path class="bbst0" d="M21 12h2v2h-2zM18 12h2v2h-2zM24 12h2v2h-2zM21 15h2v2h-2zM18 15h2v2h-2zM24 15h2v2h-2zM21 18h2v2h-2zM18 18h2v2h-2zM24 18h2v2h-2z"/></svg><svg viewBox="0 0 60 64" width="60" height="64" id="project" y="1171"><path class="bcst0" d="M29.9 21.5c2.8 0 5-2.2 5-5s-2.2-5-5-5-5 2.2-5 5 2.2 5 5 5zm0-8c1.7 0 3 1.3 3 3s-1.3 3-3 3-3-1.3-3-3 1.3-3 3-3z"/><path class="bcst0" d="M56.9 41c-1.3 0-2.4.8-2.8 2h-7.2l-9.8-21c1.2-1.5 1.9-3.4 1.9-5.5 0-3.9-2.5-7.2-6-8.5V2c0-1.1-.7-2-1.7-2h-2.7c-.9 0-1.7.9-1.7 2v6c-3.5 1.2-6 4.6-6 8.5 0 2.1.7 4 1.9 5.5L13 43H5.8c-.4-1.2-1.5-2-2.8-2-1.7 0-3 1.3-3 3s1.3 3 3 3c1.3 0 2.4-.8 2.8-2h6.3l-4.6 9.9C7 55.9 7 57 7.4 58c.2.7.7 1.2 1.2 1.7l-1.5 2.9c-.2.5 0 1.1.4 1.3.1.1.2.1.4.1.4 0 .7-.2.9-.6l1.5-2.9c.3.1.5.1.8.1 1.5 0 3-.9 3.6-2.3L20.9 45h6v1c0 1.1.9 2 2 2h2c1.1 0 2-.9 2-2v-1h6l6.2 13.3c.7 1.5 2.1 2.3 3.6 2.3.3 0 .5 0 .8-.1l1.5 2.9c.2.4.5.6.9.6.1 0 .3 0 .4-.1.5-.2.7-.8.4-1.3l-1.5-2.9c.5-.4.9-1 1.2-1.7.5-1 .4-2.1 0-3.1L47.8 45h6.3c.4 1.2 1.5 2 2.8 2 1.7 0 3-1.3 3-3s-1.3-3-3-3zm-28-39h2v5.6c-.3 0-.7-.1-1-.1s-.7 0-1 .1V2zm1 7.5c3.9 0 7 3.1 7 7s-3.1 7-7 7-7-3.1-7-7 3.1-7 7-7zm-17 47.9c-.2.5-.6.8-1.1 1-.5.2-1 .2-1.5-.1-.5-.2-.8-.6-1-1.1s-.2-1 .1-1.5l15-32.2c1 .8 2.3 1.4 3.6 1.8L12.9 57.4zm18-11.4h-2v-4h2v4zm2-3v-1c0-1.1-.9-2-2-2h-2c-1.1 0-2 .9-2 2v1h-5.1l8.1-17.4L38 43h-5.1zm17.7 14.3c-.2.5-.5.9-1 1.1s-1 .2-1.5.1c-.5-.2-.9-.5-1.1-1L32 25.3c1.3-.3 2.6-.9 3.6-1.8l15 32.2c.2.5.2 1.1 0 1.6z"/></svg><svg viewBox="0 0 14 20" width="14" height="20" id="social-facebook" y="1235"><path class="bdst0" d="M9 19v-7h3l1-4H9V6c0-.6.4-1 1-1h3V1.5S11 1 10 1 4 1 4 6v2H1v4h3v7h5z"/></svg><svg id="social-ok" viewBox="0 0 80 80" width="80" height="80" y="1255"><style>.best0{fill:#fff;stroke:red;stroke-width:2.961;stroke-miterlimit:10}</style><path class="best0" d="M76 78H3.9c-1 0-1.9-.9-1.9-1.9V4c0-1 .9-1.9 1.9-1.9H76c1 0 1.9.9 1.9 1.9v72.1c0 1-.9 1.9-1.9 1.9z"/><path d="M72.9 33.9c0-2.5-1.8-4.1-4.3-4.2h-1.5v-.8-7.2c0-.7-.2-1.3-.7-1.8-4.5-5-8.9-10.1-13.4-15.1-.3-.4-.7-.7-1.1-1H16.1c-1.8.6-2.3 1.9-2.3 3.7v22.2h-1.5C9.8 29.8 8 31.4 8 34v20.8c0 2.5 1.7 4.2 4.3 4.2h1.5v13.5c0 1.8.5 3.1 2.3 3.7h48.7c1.8-.6 2.3-1.9 2.3-3.7-.1-4.2 0-8.4 0-12.6V59h1.5c2.6 0 4.3-1.7 4.3-4.2.1-7 .1-13.9 0-20.9zM16.7 6.8H50v14c0 1.4.5 1.9 1.9 1.9H64v7H16.6c.1-7.7.1-15.3.1-22.9zm38.9 30.5c-.1-.3-.3-.4-.7-.4-.3 0-.6.1-.7.4-.1.3-.2.9-.2 2v10c0 .9.1 1.5.2 1.8.1.3.4.4.7.4.4 0 .7-.2.8-.5.1-.3.2-1 .2-2v-2.5h-1.1v-3.2h6.4v11.1h-3.4l-.5-1.4c-.4.6-.8 1.1-1.4 1.4-.6.3-1.2.5-2 .5-.9 0-1.8-.2-2.6-.7-.8-.4-1.4-1-1.8-1.6s-.7-1.3-.8-2.1c-.1-.7-.1-1.8-.1-3.2v-6.2c0-2 .1-3.4.3-4.3.2-.9.8-1.7 1.9-2.5 1-.8 2.4-1.1 4-1.1s2.9.3 4 1 1.7 1.4 2.1 2.3.5 2.2.5 3.9v.9h-5.5v-1.9c-.1-1.1-.1-1.8-.3-2.1zm-9.1-3.6l-2.8 20.8h-8.3l-3.2-20.8H38c.7 5.7 1.1 10.6 1.4 14.5.3-4 .6-7.6.9-10.7l.4-3.9h5.8zM23.4 51.1c.1.2.4.3.8.3s.6-.1.8-.4c.2-.3.3-.7.3-1.3 0-1.2-.2-2-.5-2.4-.3-.4-1.2-1-2.6-1.9-1.4-.9-2.3-1.5-2.7-1.9-.4-.4-.8-1-1.1-1.7-.3-.7-.4-1.6-.4-2.7 0-1.6.2-2.8.6-3.5s1.1-1.3 2-1.7c.9-.4 2-.6 3.3-.6 1.4 0 2.6.2 3.6.7 1 .5 1.7 1 2 1.7s.5 1.9.5 3.5v.8h-5.1v-1.5c0-.7-.1-1.2-.2-1.4-.1-.2-.3-.3-.6-.3s-.6.1-.7.4-.4.6-.4 1.1c0 .7.1 1.2.3 1.6.2.3.7.8 1.5 1.3 2.4 1.4 4 2.6 4.6 3.5s.9 2.4.9 4.4c0 1.5-.2 2.6-.5 3.3-.3.7-1 1.3-2 1.8s-2.2.7-3.5.7c-1.5 0-2.7-.3-3.7-.8s-1.7-1.2-2-2.1c-.3-.9-.5-2.1-.5-3.6V47h5.1v2.5c-.1.9 0 1.4.2 1.6zm40 21.5h-46c-.4 0-.8 0-.8-.6V59.4 59H64V71.9c.2.6 0 .7-.6.7z"/></svg><svg viewBox="0 0 35 21" width="35" height="21" id="social-vk" y="1335"><path class="bfst0" d="M4 1.7h3.2c.7 0 1.1.4 1.4 1 .4.9.7 1.7 1.1 2.5.7 1.4 1.5 2.7 2.5 4 .2.3.5.5.7.7.4.3.8.1.9-.3.2-.5.3-1 .3-1.6V5.7c0-.5 0-1-.1-1.5 0-.2-.1-.4-.1-.7-.2-.5-.6-.8-1.1-1-.1 0-.2 0-.3-.1-.2-.1-.3-.2-.2-.4.1-.2.2-.3.4-.5.3-.3.8-.4 1.2-.5h4c.5 0 1 0 1.5.1.7.1 1.1.6 1.2 1.2.1.7 0 1.5 0 2.2v3.3c0 .5 0 1 .2 1.4 0 .1.1.3.2.4.2.3.5.4.8.2l.6-.6c1.4-1.6 2.5-3.3 3.3-5.2.2-.5.4-1 .6-1.4 0-.1.1-.2.1-.3.2-.4.5-.5.9-.5h5.5c.3 0 .5 0 .8.1.5.1.7.5.6 1-.2.9-.6 1.7-1.1 2.4-.8 1.1-1.6 2.2-2.3 3.2-.4.6-.8 1.1-1.2 1.7-.3.3-.5.7-.6 1.1-.1.2 0 .5.1.7.2.2.4.5.6.7l2.1 2.1c.8.8 1.6 1.7 2.2 2.7.2.3.3.5.3.8.1.6-.3 1-.8 1.2-.2.1-.5.1-.7.1h-2.3c-.8 0-1.6 0-2.3-.1-.9 0-1.7-.4-2.4-1.1-.7-.7-1.4-1.5-2.1-2.2-.2-.3-.5-.5-.8-.7l-.6-.3c-.3 0-.5.1-.7.3-.2.2-.3.5-.4.9-.1.7-.2 1.3-.3 2-.1.6-.5 1-1.1 1.1-.7.1-1.4.1-2 0-.5 0-1-.1-1.6-.2-1.3-.2-2.6-.7-3.8-1.3-1.5-.9-2.7-2-3.7-3.3-1.2-1.5-2.3-3.1-3.2-4.7-1.6-2.3-2.7-4.6-3.8-7-.1-.2-.1-.5-.1-.7.1-.4.3-.5.7-.5h.9c.2-.1.5-.1.8-.1z"/></svg><svg viewBox="0 0 112 64" width="112" height="64" id="team" y="1356"><path d="M56 32c-8.8 0-16-7.2-16-16S47.2 0 56 0s16 7.2 16 16-7.2 16-16 16zm0-30c-7.7 0-14 6.3-14 14s6.3 14 14 14 14-6.3 14-14S63.7 2 56 2zM80.1 64H31.9c-2.2 0-4.2-1-5.6-2.8s-1.8-4-1.2-6.1l3.2-11.7c.6-2.1 2-3.7 3.9-4.6l14-6.1.5.5s3.9 3.7 9.3 3.7c5.5 0 9.3-3.7 9.3-3.7l.5-.5 14 6.1c1.9.9 3.4 2.5 3.9 4.6l3.2 11.7c.6 2.1.1 4.3-1.2 6.1S82.3 64 80.1 64zM45.8 35.2L33 40.8c-1.4.6-2.4 1.8-2.8 3.3L27 55.7c-.4 1.5-.1 3.1.9 4.4 1 1.2 2.4 2 4 2h48.3c1.6 0 3-.7 4-2 1-1.2 1.3-2.8.9-4.4L81.8 44c-.4-1.5-1.4-2.7-2.8-3.3l-12.8-5.6C64.9 36.3 61.1 39 56 39s-8.9-2.7-10.2-3.8zM21 31c-6.1 0-11-4.9-11-11S14.9 9 21 9s11 4.9 11 11-4.9 11-11 11zm0-20c-5 0-9 4-9 9s4 9 9 9 9-4 9-9-4-9-9-9z"/><path d="M23.4 53H5c-1.5 0-3-.7-3.9-1.9s-1.3-2.7-1-4.2L2 38.8c.3-1.3 1-3 2.6-3.7l9.6-4.3.5.5S17.4 34 21 34c3.6 0 6.3-2.7 6.3-2.7l.5-.5 8.2 3.5-2.6 1.1-5.2-2.2c-1.1.9-3.7 2.8-7.2 2.8-3.4 0-6.1-1.9-7.2-2.8l-8.4 3.7c-.6.3-1.1 1-1.4 2.3l-1.9 8.1c-.2.9 0 1.8.6 2.5.6.8 1.4 1.2 2.3 1.2h19l-.6 2z"/><g><path d="M80 20c0-6.1 4.9-11 11-11s11 4.9 11 11-4.9 11-11 11-11-4.9-11-11zm2 0c0 5 4 9 9 9s9-4 9-9-4-9-9-9-9 4-9 9z"/><path d="M88.6 53H107c1.5 0 3-.7 3.9-1.9s1.3-2.7 1-4.2l-1.9-8.1c-.3-1.3-1-3-2.6-3.7l-9.6-4.3-.5.5S94.6 34 91 34c-3.6 0-6.3-2.7-6.3-2.7l-.5-.5-8.2 3.5 2.6 1.1 5.2-2.2c1.1.9 3.7 2.8 7.2 2.8 3.4 0 6.1-1.9 7.2-2.8l8.4 3.7c.6.3 1.1 1 1.4 2.3l1.9 8.1c.2.9 0 1.8-.6 2.5s-1.4 1.1-2.3 1.1H88l.6 2.1z"/></g></svg><svg viewBox="0 0 64 64" width="64" height="64" id="technology" y="1420"><path d="M62.5 55.5l-15-15 .7-.7c.4-.4.4-1 0-1.4s-1-.4-1.4 0l-.7.7-2.8 2.8-7.6-7.6-1.4 1.4 7.6 7.6-2.8 2.8-.7.7c-.4.4-.4 1 0 1.4.2.2.5.3.7.3s.5-.1.7-.3l.7-.7 15 15c1 1 2.3 1.5 3.5 1.5s2.6-.5 3.5-1.5c2-1.9 2-5.1 0-7zm-1.4 5.6c-1.2 1.2-3.1 1.2-4.2 0l-15-15 4.2-4.2 15 15c1.2 1.2 1.2 3.1 0 4.2zM9.4 5.1L5.1.9.9 5.1l4.2 4.2c.6.6 1.4.9 2.1.9.4 0 .9-.1 1.3-.3l19.8 19.8 1.4-1.4L9.9 8.5c.6-1.1.4-2.4-.5-3.4zM6.5 8L3.7 5.1l1.4-1.4L8 6.5c.4.4.4 1 0 1.4-.4.4-1.1.4-1.5.1z"/><path d="M62.1 6.1l-1.5 1.5-5.4 5.4H51V8.8l5.7-5.7 1.2-1.2C53.3-.8 47.3-.2 43.3 3.7 41 6 39.8 9 39.8 12.2c0 1.4.3 2.8.8 4.2L16.4 40.6c-1.3-.5-2.7-.8-4.2-.8C9 39.8 6 41 3.7 43.3c-3.9 3.9-4.6 10-1.8 14.6L3 56.7 8.8 51H13v4.2L7.6 61l-1.5 1.3c1.8 1.1 3.9 1.6 6.1 1.6 3.2 0 6.2-1.3 8.5-3.6 3.4-3.4 4.3-8.4 2.7-12.7l24.2-24.2c1.3.5 2.7.8 4.2.8 3.1 0 6.1-1.2 8.5-3.5 2.3-2.3 3.5-5.3 3.5-8.5 0-2.2-.6-4.3-1.7-6.1zm-3.2 13.2c-3.2 3.2-7.9 3.8-11.7 1.8l-1.5 1.5-23.2 23.1-1.5 1.5c2 3.8 1.4 8.5-1.8 11.7-1.9 1.9-4.4 2.9-7.1 2.9-.9 0-1.7-.1-2.6-.3l5.1-5.1.3-.3V49h-7l-2 2-3.4 3.4c-.9-3.3 0-7 2.6-9.7 1.9-1.9 4.4-2.9 7.1-2.9 1.6 0 3.2.4 4.6 1.1l1.5-1.5 23.2-23.2 1.5-1.5c-.7-1.4-1.1-3-1.1-4.6 0-2.7 1-5.2 2.9-7.1 1.9-1.9 4.5-2.9 7.1-2.9.9 0 1.7.1 2.6.3L51 5.9l-2 2V15h7.1l.3-.3 5.1-5.1c.2.8.3 1.7.3 2.6 0 2.7-1 5.2-2.9 7.1z"/></svg><svg viewBox="0 0 48 64" width="48" height="64" id="teplosnab" y="1484"><path d="M23.3 13.3c-.4.4-.4 1 0 1.4.2.2.4.3.7.3.3 0 .5-.1.7-.3 3-3 1.4-5.8.1-7.7-1.4-2.2-2-3.4-.1-5.3.4-.4.4-1 0-1.4s-1-.4-1.4 0c-3 3-1.4 5.8-.1 7.7 1.3 2.2 1.9 3.5.1 5.3zM30.7 13.3c-.4.4-.4 1 0 1.4.2.2.5.3.7.3.2 0 .5-.1.7-.3 3-3 1.4-5.8.1-7.7-1.4-2.2-2-3.4-.1-5.3.4-.4.4-1 0-1.4-.4-.4-1-.4-1.4 0-3 3-1.3 5.7-.1 7.7 1.3 2.2 2 3.5.1 5.3zM15.9 13.3c-.4.4-.4 1 0 1.4.2.2.5.3.7.3.2 0 .5-.1.7-.3 3-3 1.4-5.8.1-7.7-1.4-2.2-2-3.4-.1-5.3.4-.4.4-1 0-1.4-.4-.4-1-.4-1.4 0-3 3-1.4 5.8-.1 7.7 1.3 2.2 1.9 3.5.1 5.3zM48 31v-8c0-.6-.4-1-1-1 0-1.1-.9-2-2-2h-6c-1.1 0-2 .9-2 2h-2c0-1.1-.9-2-2-2h-6c-1.1 0-2 .9-2 2h-2c0-1.1-.9-2-2-2h-6c-1.1 0-2 .9-2 2h-2c0-1.1-.9-2-2-2H3c-1.1 0-2 .9-2 2-.6 0-1 .4-1 1v8c0 .6.4 1 1 1v20c-.6 0-1 .4-1 1v8c0 .6.4 1 1 1 0 1.1.9 2 2 2h6c1.1 0 2-.9 2-2h2c0 1.1.9 2 2 2h6c1.1 0 2-.9 2-2h2c0 1.1.9 2 2 2h6c1.1 0 2-.9 2-2h2c0 1.1.9 2 2 2h6c1.1 0 2-.9 2-2 .6 0 1-.4 1-1v-8c0-.6-.4-1-1-1V32c.6 0 1-.4 1-1zm-13 1h2v20h-2V32zm2-8v6h-2v-6h2zm-14 8h2v20h-2V32zm2-8v6h-2v-6h2zm-14 8h2v20h-2V32zm2-8v6h-2v-6h2zM9 62H3V22h6v40zm2-2v-6h2v6h-2zm10 2h-6V22h6v40zm2-2v-6h2v6h-2zm4 2V22h6v40h-6zm8-2v-6h2v6h-2zm10 2h-6V22h6v40z"/></svg><svg viewBox="0 0 53 64" width="53" height="64" id="vodsnab" y="1548"><path d="M51 6h-4c-1.1 0-2 .9-2 2v5h-7.3c-1.2-1.4-2.8-2.3-4.7-2.8V7.4c.6-.3 1-.8 1.4-1.3l4.8 1.2c.3.1.5.1.8.1.6 0 1.3-.2 1.8-.6.8-.6 1.2-1.5 1.2-2.4v-.8c0-.9-.4-1.8-1.2-2.4-.8-.6-1.7-.8-2.6-.5l-4.9 1.2C33.7.8 32.4 0 31 0s-2.7.8-3.4 1.9L22.8.7c-.9-.2-1.9-.1-2.6.5-.8.6-1.2 1.5-1.2 2.4v.8c0 .9.4 1.8 1.2 2.4.5.4 1.2.6 1.8.6.3 0 .5 0 .8-.1l4.9-1.2c.3.5.8 1 1.4 1.3v2.8c-1.8.4-3.5 1.4-4.7 2.8H19c-8.3 0-15 6.7-15 15v6h12v-4c0-2.8 2.2-5 5-5h3.3c1.6 1.8 4 3 6.7 3s5-1.2 6.7-3H45v5c0 1.1.9 2 2 2h4c1.1 0 2-.9 2-2V8c0-1.1-.9-2-2-2zM39.7 2.7c.3-.1.6 0 .9.2.3.1.4.4.4.7v.8c0 .3-.1.6-.4.8-.3.2-.6.3-.9.2L35 4.2V4v-.2l4.7-1.1zM31 2c1.1 0 2 .9 2 2s-.9 2-2 2-2-.9-2-2 .9-2 2-2zm-8.7 3.3c-.3.1-.6 0-.9-.2-.3-.1-.4-.4-.4-.7v-.8c0-.3.1-.6.4-.8.2-.2.6-.3.9-.2L27 3.8v.4l-4.7 1.1zM21 23c-3.9 0-7 3.1-7 7v2H6v-4c0-7.2 5.8-13 13-13h3.9c-.6 1.2-.9 2.6-.9 4s.3 2.8.9 4H21zm10 3c-3.9 0-7-3.1-7-7s3.1-7 7-7 7 3.1 7 7-3.1 7-7 7zm8.1-3c.6-1.2.9-2.6.9-4s-.3-2.8-.9-4H45v8h-5.9zM51 30h-4V8h4v22zM10 36.4l-.8 1C8.3 38.5 0 48.8 0 54c0 5.5 4.5 10 10 10s10-4.5 10-10c0-5.2-8.3-15.5-9.2-16.6l-.8-1zM10 62c-4.4 0-8-3.6-8-8 0-3.4 5.2-10.8 8-14.4 2.8 3.6 8 11 8 14.4 0 4.4-3.6 8-8 8z"/></svg><svg viewBox="0 0 64 64" width="64" height="64" id="zdanie-obshchestvennoe" y="1612"><path d="M32 .5L0 9.7V16h3v48h58V16h3V9.7L32 .5zM5 16h6v38H5V16zm54 0v38h-6V16h6zm-8 38h-6V16h6v38zm-8 0h-6V16h6v38zm-8 0h-6V16h6v38zm-8 0h-6V16h6v38zm-8 0h-6V16h6v38zM5 56h54v2H5v-2zm0 6v-2h54v2H5zm57-48H2v-2.7l30-8.7 30 8.7V14z"/><path d="M7 17h2v36H7zM23 17h2v36h-2zM39 17h2v36h-2zM55 17h2v36h-2zM27.5 9c0 2.5 2 4.5 4.5 4.5s4.5-2 4.5-4.5-2-4.5-4.5-4.5-4.5 2-4.5 4.5zm7 0c0 1.4-1.1 2.5-2.5 2.5s-2.5-1.1-2.5-2.5 1.1-2.5 2.5-2.5 2.5 1.1 2.5 2.5z"/></svg><svg viewBox="0 0 64 64" width="64" height="64" id="zdanie-proizvodstvennoe" y="1676"><path d="M61 64H3V16H0V9.7L32 .4l32 9.3V16h-3v48zM5 62h54V14h3v-2.7L32 2.5 2 11.3V14h3v48z"/><path d="M17 20H8v-6h9v6zm-7-2h5v-2h-5v2zM30 20h-9v-6h9v6zm-7-2h5v-2h-5v2zM43 20h-9v-6h9v6zm-7-2h5v-2h-5v2zM56 20h-9v-6h9v6zm-7-2h5v-2h-5v2zM56 62h-2V25H10v37H8V23h48z"/><path d="M23 61H11v-8h12v8zm-10-2h8v-4h-8v4zM36 61H24v-8h12v8zm-10-2h8v-4h-8v4zM49 61H37v-8h12v8zm-10-2h8v-4h-8v4zM23 52H11v-8h12v8zm-10-2h8v-4h-8v4zM36 52H24v-8h12v8zm-10-2h8v-4h-8v4zM23 43H11v-8h12v8zm-10-2h8v-4h-8v4z"/></svg><svg viewBox="0 0 64 64" width="64" height="64" id="zdanie-zhiloe" y="1740"><path d="M32 .5L0 9.7V16h3v48h58V16h3V9.7L32 .5zM28 62V41h8v21h-8zm34-48h-3v48H38V41c0-1.1-.9-2-2-2h-8c-1.1 0-2 .9-2 2v21H5V14H2v-2.7l30-8.7 30 8.7V14z"/><path d="M19 17h-8c-1.1 0-2 .9-2 2v10c0 1.1.9 2 2 2h8c1.1 0 2-.9 2-2V19c0-1.1-.9-2-2-2zm-8 12V19h8v10h-8zM26 19v10c0 1.1.9 2 2 2h8c1.1 0 2-.9 2-2V19c0-1.1-.9-2-2-2h-8c-1.1 0-2 .9-2 2zm10 10h-8V19h8v10zM45 31h8c1.1 0 2-.9 2-2V19c0-1.1-.9-2-2-2h-8c-1.1 0-2 .9-2 2v10c0 1.1.9 2 2 2zm0-12h8v10h-8V19zM45 53h8c1.1 0 2-.9 2-2V41c0-1.1-.9-2-2-2h-8c-1.1 0-2 .9-2 2v10c0 1.1.9 2 2 2zm0-12h8v10h-8V41zM19 39h-8c-1.1 0-2 .9-2 2v10c0 1.1.9 2 2 2h8c1.1 0 2-.9 2-2V41c0-1.1-.9-2-2-2zm-8 12V41h8v10h-8z"/></svg></svg>