<?xml version="1.0" encoding="utf-8"?><svg xmlns="http://www.w3.org/2000/svg" xmlns:xlink="http://www.w3.org/1999/xlink"><symbol viewBox="30 -26 44 64" id="calculator"><path class="aast0" d="M68 38H36c-3.3 0-6-2.7-6-6v-52c0-3.3 2.7-6 6-6h32c3.3 0 6 2.7 6 6v52c0 3.3-2.7 6-6 6zM36-24c-2.2 0-4 1.8-4 4v52c0 2.2 1.8 4 4 4h32c2.2 0 4-1.8 4-4v-52c0-2.2-1.8-4-4-4H36z"/><path class="aast0" d="M67-9H37c-1.1 0-2-.9-2-2v-6c0-1.1.9-2 2-2h30c1.1 0 2 .9 2 2v6c0 1.1-.9 2-2 2zm-30-8v6h30v-6H37zM55 9h-6c-1.1 0-2-.9-2-2V1c0-1.1.9-2 2-2h6c1.1 0 2 .9 2 2v6c0 1.1-.9 2-2 2zm0-2v1-1zm-6-6v6h6V1h-6zM55 21h-6c-1.1 0-2-.9-2-2v-6c0-1.1.9-2 2-2h6c1.1 0 2 .9 2 2v6c0 1.1-.9 2-2 2zm0-2v1-1zm-6-6v6h6v-6h-6zM55 33h-6c-1.1 0-2-.9-2-2v-6c0-1.1.9-2 2-2h6c1.1 0 2 .9 2 2v6c0 1.1-.9 2-2 2zm0-2v1-1zm-6-6v6h6v-6h-6zM43 33h-6c-1.1 0-2-.9-2-2v-6c0-1.1.9-2 2-2h6c1.1 0 2 .9 2 2v6c0 1.1-.9 2-2 2zm0-2v1-1zm-6-6v6h6v-6h-6zM43 21h-6c-1.1 0-2-.9-2-2v-6c0-1.1.9-2 2-2h6c1.1 0 2 .9 2 2v6c0 1.1-.9 2-2 2zm0-2v1-1zm-6-6v6h6v-6h-6zM43 9h-6c-1.1 0-2-.9-2-2V1c0-1.1.9-2 2-2h6c1.1 0 2 .9 2 2v6c0 1.1-.9 2-2 2zm0-2v1-1zm-6-6v6h6V1h-6zM67 9h-6c-1.1 0-2-.9-2-2V1c0-1.1.9-2 2-2h6c1.1 0 2 .9 2 2v6c0 1.1-.9 2-2 2zm0-2v1-1zm-6-6v6h6V1h-6zM67 33h-6c-1.1 0-2-.9-2-2V13c0-1.1.9-2 2-2h6c1.1 0 2 .9 2 2v18c0 1.1-.9 2-2 2zm0-2v1-1zm-6-18v18h6V13h-6z"/></symbol><symbol viewBox="-16 0 64 64" id="cam"><path d="M46 38h-4c-1.1 0-2 .9-2 2v6.6l-6-3.5V43c0-3.3-2.7-6-6-6h-.6l-3.5-6 14.6-8.4c.7-.4 1.2-1 1.4-1.8.2-.8.1-1.6-.3-2.3l-4.5-7.8.9-.5c.7-.4 1.2-1 1.4-1.8.2-.8.1-1.6-.3-2.3L33.6 0l-49.2 28.4 12.9 3.4 4.8 8.3c.4.7 1 1.2 1.8 1.4.3.1.5.1.8.1.5 0 1-.1 1.5-.4L18.7 34l3.8 6.5.1-.1c-.4.8-.6 1.7-.6 2.6 0 3.3 2.7 6 6 6 1.1 0 2-.3 2.9-.8l9.1 5.3V62c0 1.1.9 2 2 2h4c1.1 0 2-.9 2-2V40c0-1.1-.9-2-2-2zm-56.4-10.3l43.3-25L35.3 7c.1.2.2.5.1.8s-.2.5-.4.6l-2.6 1.5-34.6 20-8.2-2.2zM5.2 39.5c-.2.1-.5.2-.8.1-.3-.1-.5-.2-.6-.5l-4.5-7.8 34.1-19.7 4.5 7.8c.1.2.2.5.1.8s-.2.5-.5.6L5.2 39.5zm15.3-6.4l1.7-1 3.2 5.5c-.6.3-1.2.7-1.6 1.2l-3.3-5.7zM24 43c0-2.2 1.8-4 4-4s4 1.8 4 4-1.8 4-4 4-4-1.8-4-4zm8.6 3.9c.4-.5.8-1.1 1-1.7l6.4 3.7v2.3l-7.4-4.3zM42 62V40h4v22h-4z"/><path d="M-5.1 39.6l-5-8.6-1.8 1 6 10.4 5.2-3-1-1.8z"/></symbol><symbol viewBox="-1 -15 25 21" id="checkbox"><path class="acst0" d="M18 6H-1v-18h18l-2 2H1V4h15v-7l2-2z"/><path class="acst0" d="M9.2 1.3L2.8-5.1l1.4-1.4 5 4.9L22.6-15l1.4 1.4z"/></symbol><symbol viewBox="-12 0 40 64" id="electrosnab"><path d="M21.3 28.9C19.1 26 17 23.3 17 21c0-.6-.4-1-1-1s-1 .4-1 1c0 3 2.3 6 4.8 9.1C22.7 33.8 26 38 26 43c0 10.1-8.4 19-18 19s-18-8.9-18-19c0-5.5 3.4-9.7 6.4-13.3 2.3-2.8 4.2-5.2 4.6-7.9L16.2 18c.5-.1.9-.7.7-1.2-.1-.5-.7-.9-1.2-.7L-1 20.2v.8c0 2.2-1.9 4.6-4.2 7.4-3 3.7-6.8 8.4-6.8 14.6 0 11.4 9.2 21 20 21s20-9.6 20-21c0-5.7-3.5-10.2-6.7-14.1zM0 17h.2l16-4c.5-.1.9-.7.7-1.2-.1-.5-.7-.9-1.2-.7l-16 4c-.5.1-.9.7-.7 1.2.1.4.6.7 1 .7zM0 12h.2l16-4c.5-.1.9-.7.7-1.2-.1-.5-.7-.9-1.2-.7l-16 4c-.5.1-.9.7-.7 1.2.1.4.6.7 1 .7zM2.7 4.9c.5.2 1.1-.1 1.3-.6C4 4.2 4.8 2 8 2s4 2.2 4.1 2.3c.1.4.5.7.9.7.1 0 .2 0 .3-.1.5-.2.8-.7.6-1.3C13.9 3.5 12.6 0 8 0 3.3 0 2.1 3.5 2 3.7c-.1.5.2 1.1.7 1.2z"/><path d="M6 23c-.6 0-1 .4-1 1 0 6-1 10.7-2.8 13.4l-.5.7.6.6c.2.2.3.3.5.3.5 0 1.6-.7 5.2-2.9 5.1 3.2 5.1 3.1 5.7 2.5l.6-.6-.5-.7C12 34.8 11 29.9 11 24c0-.6-.4-1-1-1s-1 .4-1 1c0 4.5.6 8.5 1.7 11.5-.7-.5-1.5-.9-2.2-1.4l-.5-.3-.5.3c-.7.5-1.5.9-2.1 1.3C6.4 32.5 7 28.6 7 24c0-.6-.4-1-1-1z"/></symbol><symbol viewBox="0 0 94 64" id="experience"><path d="M13.6 59.6L9 44v-9.7l10 5.8V47c0 9.5 12.3 16.9 28.1 16.9C62.7 63.9 75 56.5 75 47v-6.8l16.7-9.7c1.2-.7 1.9-1.8 1.9-2.9s-.7-2.2-1.9-2.9L51 1.3c-2.2-1.3-5.7-1.3-7.9 0L2.4 24.8c-1.2.7-1.9 1.8-1.9 2.9s.7 2.2 1.9 2.9L7 33.2V44L2.4 59.6c-.2.8.2 1.6 1 1.8l.5.2c2.7.9 5.6.9 8.3 0l.5-.2c.7-.2 1.1-1 .9-1.8zm-2.1.5l-.3.1c-2.1.5-4.3.5-6.4 0l-.3-.1c-.3-.1-.4-.4-.4-.6L8 47.4l3.8 12.1c.1.3 0 .6-.3.6zM73 47c0 8.2-11.6 14.9-25.9 14.9C32.7 61.9 21 55.2 21 47v-5.7l22.6 13c1 .6 2.2.9 3.5.9 1.3 0 2.5-.3 3.5-.9L73 41.4V47zm17.7-18.2L49.6 52.6c-1.3.8-3.7.8-5 0l-34.5-20 34-6.1c.7.6 1.7 1 2.9 1 2.1 0 3.8-1.2 3.8-2.8S49.1 22 47 22c-2.1 0-3.8 1.2-3.8 2.7L7.4 31.1l-4-2.3c-.6-.3-.9-.8-.9-1.1s.3-.8.9-1.1L44.1 3c.8-.5 1.9-.7 3-.7s2.2.2 3 .7l40.7 23.5c.6.3.9.8.9 1.1s-.4.9-1 1.2z"/></symbol><symbol viewBox="-5 7 17 17" id="home"><path class="afst0" d="M12 15.6L3.5 7-5 15.6l1.4 1.4.6-.6V24h13v-7.6l.6.6 1.4-1.4zM5 23H2v-5h3v5zm4 0H6v-6H1v6h-3v-7.6l5.5-5.6L9 15.4V23zM8 9h1v3h1V8H7v2h1z"/></symbol><symbol viewBox="0 0 64 64" id="inzhenernie-sistemi"><path d="M32 .5L0 9.7V16h3v48h58V16h3V9.7L32 .5zM62 14h-3v48H5V14H2v-2.7l30-8.7 30 8.7V14z"/><path d="M20 38h-2c-1-1-1.8-1.7-3-1.9V35h3c1.1 0 2-.9 2-2v-1c0-1.1-.9-2-2-2h-8c-1.1 0-2 .9-2 2v1c0 1.1.9 2 2 2h3v1.1c-1.2.3-2.3 1-3 1.9H7v2h4.2c.4-1.2 1.5-2 2.8-2s2.4.8 2.8 2H20c2.8 0 5 2.2 5 5v2h-2v-2c0-1.7-1.3-3-3-3h-3.2c-.4 1.2-1.5 2-2.8 2s-2.4-.8-2.8-2H7v2h3c.9 1.2 2.4 2 4 2s3-.8 4-2h2c.6 0 1 .4 1 1v4h6v-4c0-3.9-3.1-7-7-7zm-10-6h8v1h-8v-1zM42 60c.8 0 1.5-.3 2-.8.5.5 1.2.8 2 .8s1.5-.3 2-.8c.5.5 1.2.8 2 .8s1.5-.3 2-.8c.5.5 1.2.8 2 .8 1.7 0 3-1.3 3-3V43c0-1.7-1.3-3-3-3-.8 0-1.5.3-2 .8-.5-.5-1.2-.8-2-.8s-1.5.3-2 .8c-.5-.5-1.2-.8-2-.8s-1.5.3-2 .8c-.5-.5-1.2-.8-2-.8-1.7 0-3 1.3-3 3v14c0 1.7 1.3 3 3 3zm12-18c.6 0 1 .4 1 1v14c0 .6-.4 1-1 1s-1-.4-1-1V43c0-.6.4-1 1-1zm-4 0c.6 0 1 .4 1 1v14c0 .6-.4 1-1 1s-1-.4-1-1V43c0-.6.4-1 1-1zm-4 0c.6 0 1 .4 1 1v14c0 .6-.4 1-1 1s-1-.4-1-1V43c0-.6.4-1 1-1zm-5 1c0-.6.4-1 1-1s1 .4 1 1v14c0 .6-.4 1-1 1s-1-.4-1-1V43zM50 35h4c1.7 0 3-1.3 3-3v-8c0-1.7-1.3-3-3-3h-4c-1.7 0-3 1.3-3 3v8c0 1.7 1.3 3 3 3zm-1-11c0-.6.4-1 1-1h4c.6 0 1 .4 1 1v8c0 .6-.4 1-1 1h-4c-.6 0-1-.4-1-1v-8z"/><path d="M53 32c.6 0 1-.4 1-1v-6c0-.6-.4-1-1-1s-1 .4-1 1v6c0 .6.4 1 1 1zM35 12h-6v1.6c0 1.2-.4 2.3-1.2 3.2-.4.5-1.8 2.2-1.8 4.2 0 1.8.8 3.5 2.2 4.7 1.1.9 2.4 1.3 3.8 1.3.4 0 .8 0 1.3-.1 2.4-.5 4.2-2.4 4.6-4.8.3-1.9-.8-4.1-1.8-5.3-.7-.8-1.1-2-1.1-3.1V12zm.9 9.7c-.3 1.6-1.5 2.9-3.1 3.2-1.2.3-2.4 0-3.4-.8A4.1 4.1 0 0 1 28 21c0-.8.5-2 1.3-2.9 1-1.1 1.6-2.6 1.7-4.1h2c.1 1.5.6 2.9 1.6 4 .8 1 1.5 2.5 1.3 3.7zM29 9v2h6V9c0-1.7-1.3-3-3-3s-3 1.3-3 3zm4 0h-2c0-.6.4-1 1-1s1 .4 1 1z"/></symbol><symbol id="logo" viewBox="0 0 64 64"><style>.ahst0{fill:#47b900}.ahst1{fill:#fff}</style><path class="ahst0" d="M6.5 54V31.1h5.2l3.2 15.6L18 31.1h5.3V54H20V36l-3.5 18h-3.4L9.8 36v18H6.5zM26.8 31.1h7c1.9 0 3.2.2 4 .6s1.4 1 2 2c.5.9.8 2 .8 3.2 0 1.1-.2 2.1-.7 3-.5.9-1 1.5-1.8 2 1 .4 1.8 1.1 2.4 2 .6 1 .9 2.1.9 3.5 0 1.7-.4 3.1-1.1 4.2-.7 1.1-1.6 1.9-2.6 2.1-.7.2-2.3.3-4.9.3h-5.9V31.1zm3.5 3.8v5.3h2.3c1.4 0 2.2 0 2.6-.1.6-.1 1.1-.4 1.4-.8.3-.4.5-1 .5-1.8 0-.7-.1-1.2-.4-1.6-.3-.4-.6-.7-1-.8-.4-.1-1.5-.2-3.4-.2h-2zm0 9.1v6.1h3.3c1.4 0 2.3-.1 2.8-.2.4-.2.7-.5 1-.9.3-.5.4-1.1.4-1.8s-.1-1.4-.4-1.8c-.3-.5-.7-.8-1.2-1-.5-.2-1.5-.3-3-.3h-2.9zM44.3 54V31.1h12.9V35h-9.4v5.1h8.7V44h-8.7v6.2h9.7V54H44.3z"/><g><path class="ahst1" d="M28.6 28.9L19 19.3l-9.6 9.6-2.8-2.8L19 13.7l12.4 12.4z"/><path class="ahst0" d="M41.1 15.7L32 6.6l-9.1 9.1-2.8-2.9L32 .9l11.9 11.9z"/><path class="ahst1" d="M54.6 28.9L45 19.3l-9.6 9.6-2.8-2.8L45 13.7l12.4 12.4z"/></g><g><path class="ahst1" d="M10.6 61.1v-.2-.2c-.1.1-.2.1-.3.2-.1.1-.2.1-.4.2-.1 0-.3.1-.5.1h-.5c-.3 0-.6 0-.9-.1-.3-.1-.6-.2-.8-.4-.2-.2-.4-.4-.6-.7-.1-.3-.2-.7-.2-1.1s.1-.8.2-1.1c.2-.5.4-.8.6-1s.5-.4.8-.5c.3-.1.6-.2 1-.2s.7.1 1 .2c.3.1.5.3.7.5l.1-.5H12v4.8c0 .3 0 .5-.1.7-.1.2-.1.4-.2.5-.1.2-.3.3-.5.5-.2.1-.4.2-.7.3-.3.1-.5.2-.8.2-.3 0-.6.1-1 .1H7.6c-.2 0-.3 0-.4-.1-.1 0-.3-.1-.3-.1v-.9c.3.1.5.1.8.2.3 0 .6.1.9.1.6 0 1.1-.1 1.5-.3.4-.2.5-.5.5-.9v-.3zm-1.3-.9h.4c.1 0 .2-.1.4-.1s.2-.1.3-.2.2-.1.2-.2v-2.1c-.2-.1-.3-.3-.6-.4-.2-.1-.5-.1-.7-.2H9c-.1 0-.2 0-.3.1-.1 0-.2.1-.3.2-.1.1-.2.2-.2.3s-.2.3-.2.5-.1.4-.1.6c0 .2 0 .5.1.6.1.2.1.3.3.5.1.1.3.2.4.3.2.1.4.1.6.1zM22.2 57.2h-.1c-.4 0-.8.1-1.2.2-.3.1-.6.3-.8.5V61h-1.4v-4.7h1.2l.1.7c.2-.2.4-.4.7-.6.3-.1.7-.2 1.1-.2h.4v1zM33.7 58.6c0 .4-.1.7-.2 1-.1.3-.3.6-.6.8s-.6.4-.9.5c-.4.1-.8.2-1.2.2-.5 0-.9-.1-1.2-.2-.4-.1-.7-.3-.9-.5-.3-.2-.4-.5-.6-.8-.1-.3-.2-.6-.2-1s.1-.7.2-1 .3-.6.6-.8c.3-.2.6-.4.9-.5.4-.1.8-.2 1.2-.2.5 0 .9.1 1.2.2.4.1.7.3.9.5s.4.5.6.8c.2.3.2.7.2 1zm-1.5 0c0-.3 0-.5-.1-.7-.1-.2-.2-.4-.3-.5-.1-.1-.3-.2-.5-.3s-.4-.1-.6-.1c-.2 0-.4 0-.6.1s-.3.2-.5.3-.2.3-.3.5c-.1.2-.1.4-.1.7s0 .5.1.7c.1.2.2.4.3.5.1.1.3.2.5.3.2.1.4.1.6.1s.4 0 .6-.1c.2-.1.3-.2.5-.3.1-.1.2-.3.3-.5.1-.2.1-.4.1-.7zM42.7 61.1c-.6 0-1.1-.1-1.5-.2-.4-.2-.7-.4-.9-.7-.1-.1-.2-.3-.2-.5-.1-.2-.1-.4-.1-.6v-2.9h1.4V59.4c0 .1.1.2.1.3.1.1.2.3.4.3.2.1.4.1.6.1.3 0 .5 0 .7-.1.2-.1.3-.2.4-.4.1-.2.1-.4.1-.6v-2.8h1.4v2.9c0 .4-.1.7-.2 1-.1.1-.2.3-.4.4-.1.1-.3.2-.5.3-.2.1-.4.2-.7.2 0 .1-.3.1-.6.1zM54.9 61.1c-.3 0-.6 0-.9-.1-.3-.1-.5-.2-.6-.3v2.7H52v-7h1.3l.1.5c.2-.2.4-.3.7-.5.3-.1.6-.2 1-.2.3 0 .6 0 .9.1.3.1.6.2.8.4s.4.4.6.8.2.7.2 1.1c0 .4-.1.8-.2 1.1-.2.3-.4.6-.6.8-.3.2-.5.4-.8.5s-.8.1-1.1.1zm-.2-4c-.3 0-.5.1-.7.1-.2.1-.4.2-.6.4v2.1l.2.2c.1.1.2.1.3.2.1 0 .2.1.3.1h.4c.2 0 .4 0 .6-.1.2-.1.3-.2.4-.3.1-.1.2-.3.3-.5.1-.2.1-.4.1-.6 0-.3 0-.5-.1-.7s-.2-.4-.3-.5c-.1-.1-.3-.2-.4-.3-.1-.1-.3-.1-.5-.1z"/></g></symbol><symbol viewBox="0 0 25 16" id="mail"><path class="aist0" d="M25 0H0v16h25V0zM13.6 10.6c-.6.6-1.6.6-2.1 0L1.9 1h21.2l-9.5 9.6zM1 1.5L7.5 8 1 14.6V1.5zM2 15l6.2-6.2 2.5 2.5c.5.5 1.1.7 1.8.7s1.3-.3 1.8-.7l2.5-2.5L23 15H2zm22-.4l-6.5-6.5L24 1.5v13.1z"/></symbol><symbol viewBox="20 -26 64 64" id="manager"><path class="ajst0" d="M84 36.9c0-.5-1-11.8-16.7-15.9-3.5-.9-6.4-3.6-7.3-4.4v-4.1c1-.9 3.5-3.3 3.9-6.5 1.4-.3 3.3-1.7 4.1-6.8.5-3.3-.1-5.1-1.8-5.7.8-4.2-.3-9.1-3-12.5-1.8-2.3-4-3.6-6.5-3.9l-1-3H55c-6.9 0-11.8 1.9-14.8 5.7-3.7 4.8-3 11-2.4 13.7-1.8.6-2.3 2.4-1.8 5.7.8 5.1 2.7 6.5 4.1 6.8.4 3.2 2.9 5.7 3.9 6.5v4.1c-.9.9-3.8 3.5-7.3 4.4C21 25.1 20 36.5 20 36.9l-.1 1.1H84v-1.1zM45.6 11.2S42 8.4 42 5v-.4l-.7-.6h-.4c-1 .1-2.3-1.2-2.9-5.2-.5-3.3.4-3.5.8-3.6.3-.1.8-.1 1-.6.2-.2.3-.5.2-.9-.5-1.8-1.7-8.2 1.8-12.8 2.5-3.2 6.6-4.8 12.5-5l1 3h.7c2.1 0 4 1.1 5.6 3.1C64-14.7 65-10.1 64-6.3c-.1.3 0 .6.1.9.3.4.7.5 1 .6.5.1 1.3.3.8 3.6C65.3 2.7 64 4 63 4h-.5l-.5.6V5c0 3.4-3.6 6.2-3.6 6.2l-.4.3v3.7c0 1.8-3.1 2.8-6 2.8s-6-1-6-2.8v-3.7l-.4-.3zM37.3 23c1.4-.4 2.7-1 3.8-1.6.3 4.1 1.7 10.9 4 14.6H22.2c.6-2.7 3.4-10 15.1-13zm10.2 13C45 33.1 43 24.4 43 20.1c1.1-.8 1.9-1.6 2.4-2 .4.3.8.6 1.4.9.9.4 2 .7 3.2.9L49.1 36h-1.6zm7.4 0L54 19.9c1.8-.3 3.5-.8 4.6-1.8.4.4 1.3 1.2 2.4 2 0 4.3-2 13.1-4.5 15.9h-1.6zm4.1 0c2.3-3.8 3.7-10.5 4-14.6 1.1.7 2.4 1.3 3.8 1.6 11.7 3 14.5 10.3 15.1 13H59z"/></symbol><symbol viewBox="0 0 80 64" id="montaz"><path class="akst0" d="M70.5 36c-2.6-20.8-14.1-24.5-16-24.9-.6-2.3-1.7-4.2-3.2-5.6-2.7-2.4-5.8-2.5-7-2.5-1-1.9-2.4-3-4.3-3s-3.3 1.1-4.3 3c-1.1 0-4.3.2-6.9 2.5-1.5 1.4-2.6 3.2-3.2 5.6-1.9.5-13.4 4.1-16 24.9-6.3.2-9.6 4.6-9.6 9 0 5.7 8.5 19 25 19h30c16.5 0 25-13.3 25-19 0-4.4-3.3-8.8-9.5-9zM49.9 7c2 1.9 3.1 4.9 3.1 9v11.1c0 .6.4 1 1 1s1-.4 1-1V16c0-1-.1-1.8-.2-2.7 3.4 1.3 14 7.2 14.2 31.2-1.6.7-7.9 2.1-14 3.3-.1-2-1.2-5.7-2.7-10.3-1.8-5.5-3.8-11.8-4.3-16.6l-.1-1.1c-.6-5.4-1.2-10.9-2.6-14.8 1.2.1 3 .6 4.6 2zM40 2c3.9 0 5 10.4 5.9 18l.1 1.1c.6 5 2.6 11.4 4.4 17 1.3 4.2 2.6 8.2 2.6 9.9 0 2.4-5.7 4.3-13 4.3S27 50.4 27 48c0-1.7 1.3-5.6 2.6-9.9 1.8-5.6 3.8-12 4.4-17l.1-1.1c.9-7.6 2-18 5.9-18zM25.2 13.3c-.1.9-.2 1.8-.2 2.7v11.1c0 .6.4 1 1 1s1-.4 1-1V16c0-4.1 1-7.1 3.1-9 1.6-1.4 3.5-1.9 4.7-2-1.4 3.8-2 9.3-2.6 14.8l-.2 1.1c-.5 4.8-2.5 11.1-4.3 16.6-1.5 4.6-2.6 8.3-2.7 10.3-6.1-1.2-12.4-2.6-14-3.3.1-23.9 10.8-29.9 14.2-31.2zM55 62H25C9.2 62 2 49 2 45c0-3.2 2.3-6.7 7.3-7-.2 2.2-.3 4.5-.3 7 0 .9 0 1.8 16.6 4.9.7 1 2 2.1 4.5 2.9 2.6.9 6.2 1.4 9.9 1.4 6.2 0 12.5-1.4 14.4-4.3C71 46.8 71 45.9 71 45c0-2.5-.1-4.8-.3-7 5 .3 7.3 3.7 7.3 7 0 4-7.2 17-23 17z"/></symbol><symbol viewBox="0 0 64 64" id="optimization"><path d="M59.7 47.9C62.4 43.2 64 37.8 64 32c0-5.8-1.6-11.2-4.3-15.9V16l-.1-.1C56.8 11.1 52.8 7.1 48 4.3l-.1-.1h-.1C43.2 1.6 37.8 0 32 0c-5.8 0-11.2 1.6-15.9 4.3H16l-.1.1C11.1 7.2 7.1 11.2 4.3 16l-.1.1v.1C1.6 20.8 0 26.2 0 32c0 5.8 1.6 11.2 4.3 15.9v.1s0 .1.1.1c2.8 4.8 6.8 8.8 11.6 11.6l.1.1h.1c4.6 2.7 10 4.2 15.8 4.2 5.8 0 11.2-1.5 15.9-4.2h.1l.1-.1c4.8-2.8 8.8-6.8 11.6-11.6v-.2c0 .1 0 0 0 0zm-11.8 9.6l-1-1.7c-.3-.5-.9-.6-1.4-.4-.5.3-.6.9-.4 1.4l1 1.7c-3.9 2.1-8.4 3.4-13.1 3.5v-2c0-.6-.4-1-1-1s-1 .4-1 1v2c-4.7-.2-9.2-1.4-13.1-3.5l1-1.7c.3-.5.1-1.1-.4-1.4-.5-.3-1.1-.1-1.4.4l-1 1.7C12.3 55 9 51.7 6.5 47.9l1.7-1c.5-.3.6-.9.4-1.4-.3-.5-.9-.6-1.4-.4l-1.7 1C3.4 42.2 2.2 37.7 2 33h2c.6 0 1-.4 1-1s-.4-1-1-1H2c.2-4.7 1.4-9.2 3.5-13.1l1.7 1c.2.1.4.1.6.1.3 0 .7-.2.9-.5.3-.5.1-1.1-.4-1.4l-1.7-1C9 12.3 12.3 9 16.1 6.5l1 1.7c.2.3.5.5.9.5.2 0 .3 0 .5-.1.5-.3.6-.9.4-1.4l-1-1.7C21.8 3.4 26.3 2.2 31 2v2c0 .6.4 1 1 1s1-.4 1-1V2c4.7.2 9.2 1.4 13.1 3.5l-1 1.7c-.3.5-.1 1.1.4 1.4.2.1.3.1.5.1.3 0 .7-.2.9-.5l1-1.7c3.9 2.4 7.2 5.7 9.6 9.6l-1.7 1c-.5.3-.6.9-.4 1.4.2.3.5.5.9.5.2 0 .3 0 .5-.1l1.7-1c2.1 3.9 3.4 8.4 3.5 13.1h-2c-.6 0-1 .4-1 1s.4 1 1 1h2c-.2 4.7-1.4 9.2-3.5 13.1l-1.7-1c-.5-.3-1.1-.1-1.4.4-.3.5-.1 1.1.4 1.4l1.7 1c-2.5 3.8-5.8 7.1-9.6 9.6z"/><path d="M32 8c-.6 0-1 .4-1 1v22H18c-.6 0-1 .4-1 1s.4 1 1 1h14c.6 0 1-.4 1-1V9c0-.6-.4-1-1-1z"/></symbol><symbol id="p-aviasales" viewBox="0 0 64 25"><style>.amst0{fill:#fff}</style><path class="amst0" d="M25 16.8v3.5c0 2.4-1.6 4-4.5 4H4.1c-2.5 0-4.1-1.5-4.1-4v-3.5h.8c1.8 0 3.4-1.3 3.4-3v-3.2c0-1.7-1.5-3-3.4-3H0V4.1c0-2.4 1.6-4 4.1-4h16.4c2.5 0 4.5 1.5 4.5 4v3.5h-.8c-1.8 0-3.4 1.3-3.4 3v3c0 1.7 1.5 3.2 3.4 3.2h.8zm-5.8-6.2c0-3-2.6-5.5-5.8-5.5h-1.7c-3.2 0-5.8 2.4-5.8 5.5v5.7c0 3 2.6 5.5 5.8 5.5h1.7c3.2 0 5.8-2.5 5.8-5.5v-5.7z"/><path class="amst0" d="M13.5 21h-1.9c-2.6 0-4.9-2.2-4.9-4.7v-5.7C6.7 8.1 8.9 6 11.5 6h1.9c2.6 0 4.9 2.1 4.9 4.6v5.7c0 2.5-2.2 4.7-4.8 4.7zm3.1-10.5c0-1.6-1.5-2.9-3.3-2.9h-1.7c-1.8 0-3.3 1.2-3.3 2.9V14c0 1.6 1.5 2.9 3.3 2.9h1.7c1.8 0 3.3-1.2 3.3-2.9v-3.5z"/><path class="amst0" d="M12.1 16c-1.8 0-2.9-.9-2.9-2.6v-1.1s0-.4.4-.4.4.4.4.4v1.1c0 1.3.8 1.8 2 1.8h.1s.4 0 .4.4-.4.4-.4.4z"/><g><path class="amst0" d="M31.1 14.9s0 .1 0 0c0 .1-.1.1-.1.1h-.5v-.5c-.2.2-.4.4-.7.5-.2.1-.5.2-.8.2-.2 0-.4 0-.6-.1-.2-.1-.4-.2-.5-.3-.1-.1-.2-.3-.3-.4-.1-.2-.1-.4-.1-.6 0-.3.1-.5.2-.7.1-.2.3-.3.4-.5s.4-.2.7-.3.6-.1.9-.1h.6v-.3c0-.2 0-.3-.1-.5 0-.1-.1-.2-.2-.3-.1-.1-.2-.2-.3-.2s-.3-.1-.5-.1-.4 0-.5.1c-.2 0-.3.1-.4.2-.1.1-.2.1-.3.2s-.1.1-.2.1h-.1l-.1-.1v-.1-.1-.2s0-.1.1-.1l.2-.2c.1-.1.2-.1.4-.2s.3-.1.5-.1h.5c.3 0 .6 0 .8.1s.4.2.5.3c.1.1.2.3.3.5s.1.5.1.7v3zm-.8-2.1h-.7c-.2 0-.4 0-.6.1-.2 0-.3.1-.4.2s-.2.2-.2.3c-.1.1-.1.2-.1.4s.1.4.2.6c.1.1.4.2.6.2.2 0 .4-.1.6-.2s.4-.3.6-.5v-1.1zM36.2 10.4v.2l-1.5 4.3s0 .1-.1.1c0 0-.1 0-.1.1h-.8s-.1 0-.1-.1c0 0 0-.1-.1-.1L32 10.6v-.1-.1-.1c0-.1 0 0 .1 0h.6s.1 0 .1.1v.1l1.3 3.7v.1-.1l1.3-3.7v-.1l.1-.1h.6l.1.1c0-.1 0-.1 0 0zM38 8.9c0 .2 0 .3-.1.4s-.2.1-.4.1-.3 0-.4-.1c-.1-.1-.1-.2-.1-.4s0-.3.1-.4c.1-.1.2-.1.4-.1s.3 0 .4.1c.1.1.1.2.1.4zm-.1 6c0 .1-.1.1-.1.1h-.6-.1v-4.6-.1c0-.1 0 0 .1 0h.7v4.6zM42.8 14.9s0 .1 0 0c0 .1-.1.1-.1.1h-.5v-.5c-.2.2-.4.4-.7.5-.2.1-.5.2-.8.2-.2 0-.4 0-.6-.1-.2-.1-.4-.2-.5-.3-.1-.1-.2-.3-.3-.4-.1-.2-.1-.4-.1-.6 0-.3.1-.5.2-.7.1-.2.3-.3.4-.5s.4-.2.7-.3.6-.1.9-.1h.6v-.3c0-.2 0-.3-.1-.5 0-.1-.1-.2-.2-.3-.1-.1-.2-.2-.3-.2s-.3-.1-.5-.1-.4 0-.5.1c-.2 0-.3.1-.4.2-.1.1-.2.1-.3.2s-.1.1-.2.1h-.1l-.1-.1v-.1-.1-.2s0-.1.1-.1l.2-.2c.1-.1.2-.1.4-.2s.3-.1.5-.1h.5c.3 0 .6 0 .8.1s.4.2.5.3c.1.1.2.3.3.5s.1.5.1.7v3zm-.8-2.1h-.7c-.2 0-.4 0-.6.1-.2 0-.3.1-.4.2s-.2.2-.2.3c-.1 0-.1.2-.1.3 0 .2.1.4.2.6.1.1.4.2.6.2.2 0 .4-.1.6-.2s.4-.3.6-.5v-1zM47.2 13.7c0 .2 0 .4-.1.6-.1.2-.2.3-.4.5-.2.1-.3.2-.6.3-.2.1-.5.1-.7.1h-.5c-.1 0-.3-.1-.4-.1-.1 0-.2-.1-.3-.1-.1 0-.1-.1-.2-.1l-.1-.1v-.2-.2-.1-.1h.1s.1 0 .2.1c.1 0 .2.1.3.1.1.1.2.1.4.1s.3.1.5.1h.4c.1 0 .2-.1.3-.1l.2-.2c0-.1.1-.2.1-.3 0-.1 0-.2-.1-.3-.1-.1-.2-.2-.3-.2s-.2-.5-.4-.5c-.1-.1-.3-.1-.4-.2-.1-.1-.3-.1-.4-.2s-.3-.2-.4-.3c-.1-.1-.2-.2-.3-.4-.1-.1-.1-.3-.1-.5s0-.3.1-.5.2-.3.3-.4c.1-.1.3-.2.5-.3s.4-.1.7-.1h.4c.1 0 .2 0 .3.1.1 0 .2.1.2.1.1 0 .1.1.2.1 0 0 .1 0 .1.1v.6h-.1s-.1 0-.1-.1c-.1 0-.1-.1-.2-.1s-.2-.1-.3-.1c-.1 0-.3-.1-.4-.1h-.4c-.1 0-.2.1-.3.1 0 .2 0 .3-.1.4 0 .1-.1.2-.1.3 0 .1 0 .2.1.3.1.1.2.2.3.2s.2.1.4.2c.1.1.3.1.4.2.1.1.3.1.4.2.1.1.3.2.4.3.1.1.2.2.3.4 0 0 .1.2.1.4zM51.7 14.9s0 .1 0 0l-.1.1h-.5v-.5c-.2.2-.4.4-.7.5-.2.1-.5.2-.8.2-.2 0-.4 0-.6-.1-.2-.1-.4-.2-.5-.3-.1-.1-.2-.3-.3-.4-.1-.2-.1-.4-.1-.6 0-.3.1-.5.2-.7.1-.2.3-.3.4-.5s.4-.2.7-.3.6-.1.9-.1h.6v-.3c0-.2 0-.3-.1-.5 0-.1-.1-.2-.2-.3-.1-.1-.2-.2-.3-.2-.1 0-.3-.1-.5-.1s-.4 0-.5.1c-.2 0-.3.1-.4.2-.1.1-.2.1-.3.2s-.1.1-.2.1h-.1l-.1-.1v-.1-.1-.2s0-.1.1-.1l.2-.2c.1-.1.2-.1.4-.2s.3-.1.5-.1h.5c.3 0 .6 0 .8.1s.4.2.5.3c.1.1.2.3.3.5s.1.5.1.7v3zm-.8-2.1h-.7c-.2 0-.4 0-.6.1-.2 0-.3.1-.4.2s-.2.1-.2.2c-.1.1-.1.2-.1.4s.1.4.2.6c.1.1.4.2.6.2.2 0 .4-.1.6-.2.2-.1.4-.3.6-.5v-1zM54.1 14.9s-.1 0 0 0l-.1.1h-.6-.1V8.2v-.1l.1-.1h.6s.1 0 .1.1v6.8zM59.4 12.4c0 .1 0 .2-.1.3-.1.1-.1.1-.2.1h-3c0 .2 0 .5.1.7.1.2.1.4.3.5s.3.3.5.3c.2.1.4.1.7.1.2 0 .4 0 .6-.1.2 0 .3-.1.4-.1.1 0 .2-.1.3-.1.1 0 .1-.1.2-.1h.1V14.8s-.1 0-.2.1-.2.1-.3.1c-.1 0-.3.1-.5.1h-.6c-.4 0-.7-.1-1-.2s-.5-.3-.7-.5c-.2-.2-.3-.5-.4-.8-.1-.3-.1-.7-.1-1.1 0-.4.1-.7.2-1s.2-.6.4-.8c.2-.2.4-.4.7-.5.3-.1.6-.2.9-.2.4 0 .7.1.9.2.2.1.5.3.6.5.2.2.3.4.4.7.1.3.1.5.1.8v.2zm-.8-.2c0-.4-.1-.8-.3-1-.2-.2-.5-.4-.9-.4-.2 0-.4 0-.5.1-.2.1-.3.2-.4.3s-.2.3-.2.4-.1.3-.1.5h2.4zM63.5 13.7c0 .2 0 .4-.1.6-.1.2-.2.3-.4.5s-.3.2-.6.3c-.2.1-.5.1-.7.1h-.5c-.1-.2-.2-.2-.3-.2-.1 0-.2-.1-.3-.1s-.1-.1-.2-.1l-.1-.1v-.2-.2-.1-.1h.1s.1 0 .2.1c.1 0 .2.1.3.1.1.1.2.1.4.1s.3.1.5.1h.4c.1 0 .2-.1.3-.1l.2-.2c0-.1.1-.2.1-.3 0-.1 0-.2-.1-.3s-.2-.2-.3-.2c-.1-.1-.2-.1-.4-.2-.1-.1-.3-.1-.4-.2-.1-.1-.3-.1-.4-.2s-.3-.2-.4-.3c-.1-.1-.2-.2-.3-.4s-.1-.3-.1-.5 0-.3.1-.5.2-.3.3-.4c.1-.1.3-.2.5-.3.2-.1.4-.1.7-.1h.4c.2 0 .2 0 .3.1.1 0 .2.1.2.1.1 0 .1.1.2.1 0 0 .1 0 .1.1v.6h-.1s-.1 0-.1-.1-.1-.2-.2-.2-.2-.1-.3-.1-.3-.1-.4-.1h-.4c-.1 0-.2.1-.3.1l-.2.2c0 .1-.1.2-.1.3 0 .1 0 .2.1.3.1.1.2.2.3.2.1.1.2.1.4.2.1.1.3.1.4.2.1.1.3.1.4.2s.3.2.4.3c.1.1.2.2.3.4s.1.3.1.5z"/></g></symbol><symbol id="p-daikin" viewBox="0 0 64 19"><style>.anst0{fill:#fefefe}.anst1{fill:#48b4e0}.anst2{fill:#0193cf}</style><path class="anst0" d="M32 18.3H.1c-.1 0-.1 0-.1-.1V.8C0 .7 0 .7.1.7h63.8c.1 0 .1 0 .1.1v17.4c0 .1 0 .1-.1.1H32zM9.5 3.7H3c-.1 0-.1 0-.1.1v12.1c4.4-4.1 8.8-8.1 13.2-12.2H9.5zm7.6 9.6h2.4c.4 0 .7 0 1.1-.1 1.3-.2 2.2-.8 2.9-2 .4-.6.6-1.3.6-2 0-.9-.4-1.6-1-2.1-.8-.7-1.7-.9-2.7-1h-4.2c-.1 0-.1 0-.1.1l-1.8 6.9c0 .1 0 .1.1.1.9.1 1.8.1 2.7.1zm36.8-3.9c0 .1 0 .1.1.1l1.5 3.6c0 .1 0 .1.1.1h3.3c.1 0 .1 0 .1-.1.1-.3.1-.6.2-.9.1-.5.2-.9.4-1.4.1-.5.2-.9.4-1.4.1-.5.2-.9.4-1.4.1-.4.2-.7.3-1.1.1-.3.1-.6.2-.9h-2.2c-.1 0-.1 0-.1.1-.3 1-.6 2.1-.7 3.1 0 .2-.1.4-.1.6l-.1-.1c-.5-1.2-1-2.4-1.4-3.6 0-.1-.1-.1-.2-.1h-3.2c-.1 0-.2 0-.2.1-.5 1.8-.9 3.6-1.4 5.5-.1.5-.3 1-.4 1.5H53.2c0-.1 0-.1.1-.2.1-.4.2-.7.3-1.1.1-.4.2-.9.3-1.3-.1-.3-.1-.7 0-1.1zM42 6.1c-.1 0-.1 0 0 0h-3.1c-.1 0-.1 0-.1.1-.6 2.3-1.2 4.6-1.7 6.9 0 .1 0 .1.1.1h2.7c.3 0 .3 0 .4-.3.2-.6.3-1.1.5-1.7.1 0 .1.1.1.1.4.6.9 1.2 1.3 1.8 0 .1.1.1.2.1h3.5s0-.1-.1-.1c-.8-1.2-1.5-2.4-2.3-3.5-.1-.1-.1-.1 0-.2 1.1-1 2.2-2 3.3-2.9l.3-.3H43.8c-.1 0-.1 0-.1.1-.4.3-.8.6-1.1.9-.3.3-.7.6-1 .8.1-.6.2-1.2.4-1.9zm-19 7.2c.1 0 .1 0 0 0h2.2c.1 0 .1 0 .1-.1.1-.3.3-.5.4-.8 0-.1.1-.1.2-.1h2.6c.1 0 .1 0 .1.1 0 .2.1.5.1.7 0 .1 0 .1.1.1h2.9c.1 0 .1 0 .1-.1l-.6-3.3c-.2-1.2-.4-2.4-.6-3.7 0-.1-.1-.1-.2-.1h-3.5c-.1 0-.2 0-.2.1-1 1.9-2.1 3.7-3.1 5.6 0 .6-.3 1.1-.6 1.6zm9.6 0h3.1c.1 0 .1 0 .1-.1.1-.5.2-1 .4-1.5.5-1.8.9-3.6 1.4-5.4 0-.1 0-.1-.1-.1h-2.9c-.1 0-.1 0-.2.1-.5 1.7-1 3.5-1.4 5.3-.2.6-.3 1.1-.4 1.7zm17.1-7.2h-1.5c-.1 0-.1 0-.2.1-.6 2.3-1.1 4.6-1.7 6.9 0 .1 0 .1.1.1h2.9c.1 0 .1 0 .2-.1.6-2.3 1.1-4.6 1.7-6.9 0-.1 0-.1-.1-.1h-1.4z"/><path class="anst1" d="M9.5 3.7h6.7C11.8 7.8 7.4 11.8 3 15.9v-.1-6.1-.1l.2-.2c.7-.6 1.3-1.2 2-1.8.4-.3.7-.6 1.1-1 .6-.5 1.2-1.1 1.8-1.6.4-.3.8-.7 1.2-1 .1-.1.2-.2.2-.3z"/><path class="anst2" d="M17.1 13.3h-2.8c-.1 0-.1 0-.1-.1L16 6.3c0-.1.1-.1.1-.1h4.2c1 0 1.9.3 2.7 1 .6.6 1 1.3 1 2.1 0 .7-.2 1.4-.6 2-.6 1.1-1.6 1.8-2.9 2-.4.1-.7.1-1.1.1-.7-.1-1.5-.1-2.3-.1zm.7-1.8c.6 0 1.2 0 1.7-.1.4-.1.8-.4 1-.8.2-.4.3-.8.3-1.2 0-.7-.3-1.1-1-1.2-.2-.2-.6-.2-.9-.2-.1 0-.1 0-.2.1-.1.5-.3 1-.4 1.5-.1.6-.3 1.2-.5 1.9zM53.9 9.4c-.1.4-.2.8-.2 1.2-.1.5-.2.9-.3 1.3-.1.4-.2.7-.3 1.1 0 .1-.1.1-.1.2H50.7c.1-.5.3-1 .4-1.5.5-1.8.9-3.6 1.4-5.5 0-.1.1-.1.2-.1h3.2c.1 0 .1 0 .2.1.5 1.2 1 2.4 1.4 3.6 0 0 0 .1.1.1 0-.2.1-.4.1-.6.2-1.1.5-2.1.7-3.1 0-.1 0-.1.1-.1h2.2c-.1.3-.2.6-.2.9-.1.4-.2.7-.3 1.1-.1.5-.2.9-.4 1.4-.1.5-.2.9-.4 1.4-.1.5-.2.9-.4 1.4-.1.3-.1.6-.2.9 0 .1 0 .1-.1.1h-3.3c-.1 0-.1 0-.1-.1l-1.5-3.6c.2-.1.2-.1.1-.2zM42 6.1c-.2.6-.3 1.2-.5 1.9.4-.3.7-.6 1-.8.4-.3.8-.6 1.1-.9l.1-.1H47l-.3.3c-1.1 1-2.2 2-3.3 2.9-.1.1-.1.1 0 .2.8 1.2 1.5 2.4 2.3 3.5 0 0 0 .1.1.1h-3.5c-.1 0-.1 0-.2-.1-.4-.6-.9-1.2-1.3-1.8 0 0 0-.1-.1-.1-.2.6-.3 1.1-.5 1.7-.1.3-.1.3-.4.3h-2.7c-.1 0-.1 0-.1-.1.6-2.3 1.2-4.6 1.7-6.9 0-.1 0-.1.1-.1H42c-.1 0-.1 0 0 0zM23 13.3c.3-.5.5-1 .8-1.4 1-1.9 2.1-3.7 3.1-5.6.1-.1.1-.1.2-.1h3.5c.1 0 .1 0 .2.1.2 1.2.4 2.5.6 3.7l.6 3.3c0 .1 0 .1-.1.1H29c-.1 0-.1 0-.1-.1 0-.2-.1-.5-.1-.7 0-.1 0-.1-.1-.1h-2.6c-.1 0-.1 0-.2.1-.1.3-.3.5-.4.8 0 .1-.1.1-.1.1-.9-.2-1.6-.2-2.4-.2.1 0 .1 0 0 0zm4-3h1.2c.1 0 .1 0 .1-.1 0-.3-.1-.5-.1-.8 0-.3-.1-.5-.2-.9-.4.7-.7 1.2-1 1.8zM32.6 13.3c.1-.6.3-1.1.4-1.7.4-1.8.9-3.6 1.3-5.3 0-.1.1-.1.2-.1h2.9c.1 0 .1 0 .1.1-.5 1.8-.9 3.6-1.4 5.4-.1.5-.2 1-.4 1.5 0 .1 0 .1-.1.1h-3zM49.7 6.1h1.5c.1 0 .1 0 .1.1-.6 2.3-1.2 4.6-1.7 6.9 0 .1-.1.1-.2.1h-2.9c-.1 0-.1 0-.1-.1.6-2.3 1.2-4.6 1.7-6.9 0-.1.1-.1.2-.1h1.4z"/><path d="M9.5 3.7c0 .1-.1.2-.2.2-.4.4-.8.7-1.2 1.1-.6.5-1.2 1.1-1.9 1.7-.3.3-.7.6-1 .9-.7.6-1.3 1.2-2 1.8-.1.1-.2.2-.3.2v-.1-5.7c0-.1 0-.1.1-.1h6.5z"/><path class="anst0" d="M17.8 11.5c.2-.6.3-1.2.5-1.8.1-.5.3-1 .4-1.5.1-.2.1-.2.2-.2.3 0 .7 0 1 .1.7.2 1 .6 1 1.2 0 .4-.1.8-.3 1.2-.2.4-.6.7-1 .8-.6.2-1.2.2-1.8.2zM27 10.3c.3-.6.7-1.2 1-1.8.1.3.1.6.2.9 0 .3.1.5.1.8 0 .1 0 .1-.1.1H27z"/></symbol><symbol id="p-fazer" viewBox="0 0 64 64"><style>.aost0{fill:#15256b}.aost1{fill:#fefefe}</style><path class="aost0" d="M63.1 27.1c-2-12.7-12-23.3-24.6-25.9C25.6-1.5 12.1 4.3 5.2 15.6c-6.9 11.3-6 25.9 2.3 36.1 8.3 10.2 22.5 14.3 35 9.9 12.4-4.4 21.1-16.4 21-29.6 0-1.6-.1-3.3-.4-4.9z"/><path class="aost1" d="M34.9 32.1c1.6-.2 3.2 1.5 4.7 0 .5-.5.6-1 .5-1.7-.1-.9-.1-1.8.1-2.7.6-2.6 3.9-7 7-6.1 3.8 1.1.6 5.5-1.7 6.4-.4.1-1.4.5-1.7.1-.4-.6.8-.8 1.1-1 .7-.4 2.5-2.8 1.2-3.4-1.4-.6-2.8 2.4-3.1 3.3-.4 1.2-.8 3.4.7 4 1.4.6 3.1-.7 4.1-1.6 1.2-1.1 2-2.5 2.6-4 .3-.7.6-1.5.8-2.3.1-.5.2-.9.3-1.4.1-.4.1-1.2.3-1.5.3-.5.6-.2.8.3.1.4.1.5.5.8.3.2.6.4.9.7 1.3 1.1 1.1 3 .7 4.5-.1.6-.3 1.4.4 1.8.7.4 1.4-.3 1.7-.8.3-.3.5-.7.7-1.1.2-.3.3-.9.6-1.1.8-.8.5.8.4 1.2-.4 1.5-1.7 3.9-3.2 4.5-.7.3-1.6.3-2.3-.3-.8-.7-.8-1.8-.7-2.8.1-1 .3-2 .5-3 .2-.8.2-1.6-.7-2-.7 3-1.9 5.7-4 7.9-1.9 2.1-5.1 3.7-7.5 1.3-.1 0-.4.8-.5.9-.2.3-.5.6-.9.9-.7.5-1.6.7-2.4.7-1.1 0-2.3-.6-3.4-.5-.6.1-1 .5-1.5.8-.4.3-.8 1-1.3 1.2-1.4.6-.5-1.5-.2-2 .6-.9 1.4-1.7 2.1-2.4l2.7-2.7c.7-.8 1.9-1.6 2.3-2.6-1 .3-2 .6-3.1.7-.5 0-1.1.1-1.6 0-.4 0-.9-.3-1.3-.2-.4 0-.3-.3-.3.4 0 .5-.1.9-.2 1.3-.2 1-.4 2-.8 2.9-.6 1.7-1.4 3.5-2.6 4.9-.6.6-1.6 1.3-2.4.8-.6-.4-.9-1.5-.9-2.1-.2 0-.7 1.1-.8 1.2-.4.6-.8 1.1-1.4 1.6-.8.8-2 1.1-2.7 0-1.4-2.1.2-6 1.4-7.9.7-1.1 1.7-2.1 2.8-2.8 1-.6 2.7-1.1 3.5 0 .2.3.4 1.1-.2 1.1-.2 0-.5-.3-.7-.4-.3-.1-.6-.1-1 0-1.3.5-2.2 1.9-2.8 3.1-.4.7-1.4 2.9-.4 3.6 1.1.7 2.3-1.6 2.7-2.2.4-.6.7-1.3.9-2 .2-.5.4-1.1.8-1.4 1.7-.9.6 2 .5 2.5-.1.6-.3 1.4-.1 1.9.2.7.7.5 1.1.1.8-.9 1.4-2.6 1.8-3.8.4-1.2 1-3 .7-4.3-.1-.4-.5-1.1.3-1.1.6 0 .5.7 1 .9.5.3 1.5 0 2-.1.8-.1 1.7-.4 2.5-.7 1-.4 2.8-1.7 3.5-.5.8 1.3-.6 2.8-1.5 3.7-.8 1.7-2.1 3.1-3.3 4.5zM30.5 52.1c-3.1 0-6.2-.6-9-2-1.3-.7-2.5-1.5-3.7-2.4-.3-.2-1-1.1-.2-.9.5.1 1.2.7 1.6 1 5.3 3 11.7 3.1 17.2.6 2.6-1.2 4.9-2.8 6.9-4.9 1-1 1.8-2.2 2.5-3.4.7-1.1 1-2.5 1.7-3.6 1.5-2.3 4.9-1.3 4.8 1.5-.1 2.6-2.1 5.4-3.9 7.2-4.6 4.6-11.4 6.9-17.9 6.9zM13 30.9c1.1-.9 1.9-1.3 2.9-1.7.8-.3 2-.8 2.9-.7.3.1.7.2.6.7-.1.4-.9.7-1.2.8-1.1.6-2.2 1.3-3.2 2-.8.6-1.6 1.4-2.1 2.3-.6 1-.6 2.3-.8 3.4-.4 2.5-.6 5-1.2 7.4-.2.7-.6 2.1-1.5 2.3-1.1.2-1.2-1.6-1.2-2.3-.1-2.4.2-4.9.7-7.2.3-1.1.7-2.2 1-3.3.4-1.2.5-2.6.8-3.8.4-2.4.8-4.9 1.8-7.1.4-.9 1-1.8 1.9-2.3 1.4-.8.7.8.4 1.6-.5 1.9-1.7 6.2-1.8 7.9z"/><path class="aost1" d="M33.3 11.9c-.4 1.8-1.3 3.5-2.9 4.5-1.7 1.1-4 1.5-5.9 1.9-4.2.8-8.8.6-12.8 2.3-.8.3-1.6.8-2.2 1.3-.4.3-.7.6-1.1.9-.2.2-.6.8-.9.7-1-.1 1.9-3.5 2.4-3.9 1.6-1.3 3.6-1.9 5.6-2.4 2.2-.6 4.4-1 6.6-1.4 2.4-.4 4.9-.7 7.2-1.4 1-.4 2-.9 2.8-1.6 0-.2 1.2-1.8 1.2-.9-.2.9 0-.1 0 0z"/></symbol><symbol id="p-ikea" viewBox="0 0 64 22"><style>.apst0{fill:#0a67b2}.apst1{fill:#ffe500}</style><path class="apst0" d="M0 .7h59.3V22H0z"/><path class="apst1" d="M29.7 21c16.1 0 29.2-4.4 29.2-9.8S45.8 1.5 29.7 1.5.5 5.9.5 11.3s13 9.7 29.2 9.7"/><path class="apst0" d="M61.6 3.1h-.3V.9h.8c.5 0 .8.2.8.6 0 .4-.2.6-.6.6l.6 1h-.4l-.5-1h-.4v1m.4-1.2c.3 0 .5 0 .5-.4 0-.3-.2-.3-.5-.3h-.4v.7h.4zm-1.9.1C60.1.9 61 .1 62 .1c1 0 1.9.8 1.9 1.9 0 1.1-.9 1.9-1.9 1.9-1.1 0-1.9-.8-1.9-1.9zM62 3.6c.9 0 1.5-.7 1.5-1.6 0-.9-.7-1.6-1.5-1.6-.9 0-1.5.7-1.5 1.6 0 .9.6 1.6 1.5 1.6zM47.3 15s.2-.3.2-.6l-.4-1h-2.3l-.4 1c-.1.3.2.6.2.6h-4.7s.3-.2.4-.6l2.5-6.6c.2-.4-.1-.7-.1-.7h7.5s-.3.2-.1.7l2.6 6.6c.2.4.5.6.5.6h-5.9m-.8-3l-.6-1.4c-.1-.2-.1-.4-.1-.4s0 .2-.1.4c0 .1-.6 1.4-.6 1.4h1.4zM8.1 15c.3-.2.3-.7.3-.7V7.7c0-.4-.2-.5-.2-.5h5.4s-.2.1-.2.5v6.6c0 .1 0 .6.3.7H8.1M20.9 10.3l1.8-2.5c.3-.4 0-.6 0-.6H28s-.3.2-.5.5l-2 2.7 2.5 4c.2.3.4.4.6.5.1.1.2.1.2.1h-6.2s.2-.1 0-.5l-1.7-2.7v2.5c0 .1-.1.6.2.7h-5.3c.3-.2.3-.7.3-.7V7.7c0-.4-.2-.5-.2-.5h5.3s-.2.1-.2.5l-.1 2.6M38.9 15v-2.8s-.3.4-.8.4h-3.3V12h2.6c.1 0 .6 0 .7.2V9.8c-.3.2-.7.2-.8.2h-2.6v-.6H38c.5 0 .8.4.8.4V7.2h-9s.2.1.2.5v6.6c0 .1 0 .6-.3.7h9.2"/></symbol><symbol id="p-kidburg" viewBox="-50 -1 64 22"><style>.aqst0{fill:#b1b2b2}.aqst1{fill:#fdfdfd}.aqst2{fill:#bdbebe}.aqst3{fill:#c0c1c1}.aqst4{fill:#e6e6e6}.aqst5{fill:#c8c9c9}.aqst6{fill:#f3f3f3}.aqst7{fill:#eff0f0}.aqst8{fill:#c9caca}.aqst9{fill:#c8c8c8}.aqst10{fill:#c4c5c5}.aqst11{fill:#cbcbcb}.aqst12{fill:#c2c2c2}.aqst13{fill:#ebebeb}.aqst14{fill:#c6c7c7}.aqst15{fill:#eaeaea}.aqst16{fill:#c7c8c8}.aqst17{fill:#edeeee}.aqst18{fill:#c3c4c4}.aqst19{fill:#c7c7c7}.aqst20{fill:#cbcccc}.aqst21{fill:silver}.aqst22{fill:#cccdcd}.aqst23{fill:#c2c3c3}.aqst24{fill:#c3c3c3}.aqst25{fill:#e7e7e7}.aqst26{fill:#e7e8e8}.aqst27{fill:#f0f0f0}.aqst28{fill:#c6c6c6}.aqst29{fill:#eee}.aqst30{fill:#e2e2e2}.aqst31{fill:#dddede}.aqst32{fill:#cdcece}.aqst33{fill:#ededed}.aqst34{fill:#d1d2d2}.aqst35{fill:#e6e7e7}.aqst36{fill:#d5d6d6}.aqst37{fill:#eaebeb}.aqst38{fill:#e21e24}.aqst39{fill:#006bb4}.aqst40{fill:#22a53e}.aqst41{fill:#f29213}.aqst42{fill:#22a53f}.aqst43{fill:#006cb4}.aqst44{fill:#016cb4}.aqst45{fill:#e11e24}.aqst46{fill:#23a53f}.aqst47{fill:#ccc}.aqst48{fill:#d4d4d4}.aqst49{fill:#d9d9d9}.aqst50{fill:#e3e4e4}.aqst51{fill:#d6d7d7}.aqst52{fill:#d5c3b4}.aqst53{fill:#d3d3d3}.aqst54{fill:#e8e8e8}.aqst55{fill:#f4f4f4}.aqst56{fill:#dadbdb}.aqst57{fill:#d3d4d4}.aqst58{fill:#d9dada}.aqst59{fill:#cecfcf}.aqst60{fill:#ddd}.aqst61{fill:#f9ba01}.aqst62{fill:#f9ba00}.aqst63{fill:#2d2d2c}.aqst64{fill:#fff}.aqst65{fill:#038ed1}</style><path class="aqst0" d="M13.3 10.2c-.5.9-1 1.7-1.5 2.6-.4.7-.9 1.5-1.3 2.2-.1.2-.1.4 0 .6.8 1.5 1.7 3.1 2.6 4.6.2.3.1.6-.3.6H8.6c-1.6 0-3.3-.1-4.9-.2-.7 0-1.3-.1-2-.2-.3-.1-.6-.2-.9-.4-.3-.3-.4-.7-.2-1.1.4-.9.8-1.7 1.2-2.5.2-.2.1-.3-.1-.4-2.5-1-5.2-1.7-7.9-2.1-1.6-.3-3.3-.5-4.9-.6-.9-.1-1.8-.1-2.7-.2-1.7-.1-3.4-.1-5.1-.1-1.7 0-3.4.1-5.1.2-2.6.2-5.2.6-7.8 1.2-1.8.4-3.6 1-5.4 1.7-.2.1-.2.2-.1.4l1.2 2.4c.3.6.1 1.1-.5 1.5-.5.3-1.1.3-1.6.3-1.7.2-3.4.2-5 .3H-48.1c-.4 0-.5-.2-.3-.6.2-.4.4-.8.7-1.2.6-1.1 1.3-2.2 1.9-3.3.2-.3.2-.5 0-.8-.9-1.4-1.7-2.9-2.6-4.4-.1-.1-.1-.2-.1-.3-.1-.3.1-.5.4-.5.5 0 1.1-.1 1.6-.1.7 0 1.3-.1 1.9-.1.3 0 .3-.1.3-.3-.1-.9-.3-1.8-.4-2.7-.1-.3.1-.6.3-.8 1-.7 2.1-1.3 3.3-1.8 2.2-1 4.5-1.8 6.9-2.4 2.2-.6 4.4-1 6.7-1.3 1.5-.2 3-.3 4.5-.4 1.5-.1 3-.1 4.5-.1h1.9c1.3 0 2.7 0 4 .1 1.5.1 2.9.2 4.4.4 2.5.3 5 .8 7.5 1.4 2.5.6 5 1.5 7.4 2.6.7.5 1.5.9 2.3 1.5.4.2.5.6.4 1-.1.7-.2 1.5-.3 2.2-.1.4 0 .5.4.5.7 0 1.5.1 2.2.1.4 0 .8 0 1.2.1.2 0 .3.1.4.3v.1z"/><path class="aqst1" d="M6.7 11.2c.4.3.8.6 1.1 1 .1.1.2.1.1.2s-.2 0-.2-.1c-.4-.2-.8-.5-1.3-.6h-.1v.1c.5.3 1 .6 1.3 1 0 .1 0 .1-.1.1-.4-.2-.7-.4-1.2-.6h-.2s.1 0 .1.1c.5.4 1.1.7 1.4 1.2-.5-.2-.9-.5-1.5-.7h-.2l.1.1c.5.4 1.1.7 1.4 1.4-.5-.3-.9-.6-1.4-.8h-.2-.1l.1.1c.5.4.9.8 1.3 1.2 0 .1 0 .1-.1.1-.5-.4-1-.8-1.6-.8.6.4 1.2.9 1.6 1.6 0 .1 0 .1-.1.1-.4-.3-.6-.7-1.1-.9-.1 0-.2-.1-.3-.1.5.4 1.1.8 1.4 1.5.1.1 0 .1-.1.1-.3-.4-.6-.7-1.1-.9-.1 0-.2-.1-.3-.1h-.1-.1s.1 0 .1.1c.6.4 1.1.8 1.5 1.4 0 .1.1.1 0 .2-.4-.4-.8-.8-1.4-1.1h-.1-.1l.1.1c.4.3.8.6 1.1 1 0 .1 0 .1-.1.1-.2-.2-.5-.4-.7-.5-.1 0-.2 0-.3-.1 0 0-.1-.1-.2-.1h.1c.1.1.2.1.3.2.4.4.9.8 1.2 1.4-.4-.4-1-.8-1.7-1.2-1.7-1-3.6-1.7-5.5-2.3-2.1-.7-4.3-1.2-6.5-1.5-1.1-.2-2.1-.3-3.2-.4-1.7-.2-3.5-.3-5.2-.3h-4.1c-1.3 0-2.5.1-3.8.2-3.3.3-6.6.7-9.9 1.5-2.3.6-4.5 1.4-6.6 2.5-.7.4-1.4.8-2.1 1.3-.1 0-.1.1-.2.1.3-.4.7-.7 1-1 0-.1.1-.1.2-.2-.1.1-.2 0-.2.1-.3.2-.6.3-.9.6-.1 0-.1-.1-.1-.1.3-.5.8-.7 1.2-1.1 0 0 .1-.1 0-.1h-.1c-.5.2-.9.6-1.3.9-.1 0-.1-.1-.1-.1.3-.6.9-1 1.4-1.3 0 0 .1 0 .1-.1h-.2c-.5.1-.9.5-1.3.9-.1 0-.1-.1-.1-.1.3-.5.8-.9 1.3-1.3-.6.2-1 .6-1.4 1-.1 0-.1-.1-.1-.1.3-.6.8-1 1.3-1.4.1-.1.2-.1.2-.2 0-.2-.1-.1-.1-.1-.6.2-1.1.6-1.6 1 .3-.7 1-1.1 1.5-1.6 0 0 .1-.1 0-.1h-.2c-.6.2-1 .6-1.5.8.2-.6.8-.9 1.3-1.3 0-.1.1-.1.2-.2h-.1c-.1.1-.2 0-.3.1-.4.1-.8.4-1.2.6.3-.5.8-.8 1.3-1.1 0-.1.1-.1.2-.2-.1.1-.2 0-.3.1-.3.1-.6.3-.9.4h-.1s0-.1.1-.1c.4-.4.8-.6 1.2-.9-.1-.1-.2 0-.3 0-.3.1-.7.3-1 .5-.1 0-.2.2-.3.1-.1-.1 0-.2.1-.3.2-.3.5-.4.7-.7.1-.1.2-.1.2-.2s.1-.1.1-.1h-.2c-.4.1-.7.4-1.1.5.3-.5.8-.8 1.3-1.2l.1-.1h0c-.1 0-.2.1-.3.1-.4.1-.7.4-1.2.6.3-.6.7-.8 1.1-1.1l.1-.1h-.1-.1c-.4.1-.7.3-1.1.5.2-.4.6-.6.9-.9 0 0 .1-.1 0-.1h-.2c-.3 0-.5.2-.8.3.3-.5.8-.8 1.2-1.1 0-.1 0-.1-.1-.1-.4 0-.7.2-1 .3-.1 0-.1 0-.1-.1.2-.2.5-.4.7-.6 0 0 .1-.1 0-.1h-.2c-.2.1-.5.2-.7.3.2-.5.7-.7 1.1-1.1-.1.6-.4.8-.7.9-.1 0-.1 0-.1-.1.2-.2.4-.4.6-.5 0-.1.1-.1.1-.1-.1.1-.2 0-.3.1-.1.1-.3.1-.4.2-.1 0-.1 0-.1-.1.1-.2.4-.3.6-.5.1-.1.2-.2.3-.2h.1c-.1 0-.1 0-.2.1h-.4c-.1.1-.3.1-.4.2-.1 0-.1 0-.1-.1.2-.2.4-.4.6-.5 0-.1.1-.1.2-.2.1 0 .2-.1.3-.1-.1 0-.2.1-.3.1-.1.1-.2 0-.3.1-.2 0-.3.1-.5.2-.1 0-.1 0-.1-.1.3-.3.6-.4.9-.6 0 0 .1-.1 0-.1v-.1c1.3-.8 2.6-1.4 4-1.9 3-1.2 6.1-2 9.3-2.5 1.8-.3 3.6-.5 5.5-.7 1.6-.1 3.1-.2 4.7-.3h2.7c1.9 0 3.9.1 5.8.3 3.6.3 7.2.8 10.7 1.8 2.5.7 4.9 1.5 7.2 2.7.5.4 1.2.8 1.8 1.3 0 .1-.1.1-.1.1-.1 0-.2 0-.2-.1-.3-.1-.5-.2-.7-.3.2.1.4.1.5.3.2.2.5.3.6.6l-.9-.3c-.1 0-.3-.1-.4-.1.1.1.2.1.3.2.3.2.6.3.8.6 0 .1-.1.1-.1.1-.1-.1-.3-.2-.4-.3-.1 0-.3-.1-.4-.1.1.1.2.1.3.2.1.2.5.4.6.7-.3-.1-.5-.3-.8-.4-.1-.1-.2 0-.3-.1h-.1c.1 0 .1.1.2.2.3.2.6.4.9.7.1.1 0 .1-.1.1l-.6-.3c-.1-.1-.1 0-.2 0 0 0 0 .1.1.1.3.2.6.4.8.7-.4-.1-.8-.4-1.2-.4-.1 0-.2-.1-.2.1.5.2.9.5 1.3 1-.5 0-.7-.4-1.1-.4l-.1-.1s.1 0 .1.1c.2.3.6.5.8.8 0 0 .1.1.1.2-.3-.1-.6-.3-.9-.4-.1 0-.2 0-.3-.1l.2.2c.4.3.8.5 1 1-.4-.2-.8-.4-1.3-.6h-.1-.1l.1.1c.5.3 1 .6 1.3 1.2-.4-.2-.8-.5-1.2-.6-.1-.1-.2 0-.2 0-.1-.1-.1 0-.1 0 .1-.1.1-.1.2 0z"/><path class="aqst1" d="M-46.1 20.4h-1.2c-.4 0-.4 0-.2-.3.5-.9 1.1-1.9 1.6-2.8.3-.5.6-1 .8-1.5.1-.2.1-.4 0-.6-.9-1.4-1.7-2.8-2.5-4.2 0-.1-.1-.2-.1-.2-.1-.2 0-.2.1-.2 1 0 2.1-.1 3.1-.1.3 0 .4.1.4.3.3 1.8.6 3.6.8 5.4.1.9.3 1.8.4 2.7.1.4.3.7.8.7.4 0 .8-.1 1.2-.2 1.1-.3 2.3-.6 3.5-.5.2 0 .3 0 .5.1.2 0 .3.1.4.3 0 .2-.1.3-.3.4-.3.2-.7.2-1 .2-1.4.1-2.7.2-4.1.3-1.4.1-2.8.2-4.2.2zM12.3 20.1c-.1.1-.2 0-.3 0H8c-1.9 0-3.9-.1-5.8-.4-.3 0-.6-.1-.8-.2-.1-.1-.3-.2-.2-.4 0-.2.1-.3.3-.3.5-.2 1.1-.1 1.6 0 1.1.1 2.1.4 3.1.6.3.1.6 0 .8-.1.3-.1.4-.3.5-.6.4-2.4.7-4.7 1.1-7.1.1-.4.1-.8.2-1.2 0-.1.1-.3.2-.3 1.1 0 2.3.1 3.5.1-.3.5-.5.9-.7 1.3-.7 1.1-1.3 2.2-2 3.3-.1.2-.1.4 0 .6.8 1.4 1.6 2.8 2.4 4.3 0 .2.1.3.1.4z"/><path class="aqst2" d="M8.1 6.5c-.2-.1-.4-.1-.7-.3.4 0 .6.1.8.2 0 .1-.1.1-.1.1z"/><path class="aqst3" d="M-43.4 7c.1-.1.2-.2.4-.2.1 0 .1-.1.1.1-.1.1-.2.1-.3.2-.1-.1-.1-.1-.2-.1z"/><path class="aqst4" d="M-42.9 12.9c0 .1 0 .1.1.1-.1.1-.2.3-.3.1-.1 0 .1-.1.2-.2z"/><path class="aqst5" d="M7.6 7.1c.1 0 .3.1.4.2-.1 0-.1 0-.1.1-.2 0-.3-.1-.3-.3-.1.1-.1 0 0 0z"/><path class="aqst6" d="M-42.1 17.4s0 .1.1.1l-.3.3c0-.1.1-.3.2-.4z"/><path class="aqst7" d="M6.6 17.3l.1-.1.3.3c0 .1 0 .1-.1.1l-.3-.3z"/><path class="aqst8" d="M-43.2 7.5c.1-.1.3-.2.5-.2-.1.1-.2.2-.4.3 0-.1-.1-.1-.1-.1z"/><path class="aqst9" d="M6 13.7c-.1 0-.2-.1-.3-.3.2.1.4.1.5.2-.1 0-.2 0-.2.1z"/><path class="aqst5" d="M5.8 16.9c-.1-.1-.2-.1-.3-.2 0-.1.1-.1.1-.1.1.1.2.1.3.2 0 0-.1 0-.1.1z"/><path class="aqst10" d="M7.8 6.8c-.2 0-.3-.1-.4-.1 0-.1 0-.1.1-.1s.2.1.3.2z"/><path class="aqst11" d="M6.7 11.2c-.1-.1-.2-.1-.4-.2.3 0 .4.1.5.2-.1-.1-.1-.1-.1 0z"/><path class="aqst12" d="M-42.2 11.4c.1-.1.2-.2.4-.2-.1.1-.2.2-.3.2h-.1z"/><path class="aqst10" d="M-41.4 13.2c-.1.1-.2.1-.2.1 0-.1-.1-.1-.2-.1.1-.1.2-.1.3-.1.1 0 .1-.1.1.1z"/><path class="aqst13" d="M-42.4 16.4c0 .1 0 .1.1.1 0 .1-.1.2-.2.2-.1-.1 0-.2.1-.3z"/><path class="aqst14" d="M7.1 10.1c-.1-.1-.2-.1-.3-.2 0-.1.1-.1.1-.1.1 0 .2 0 .3.1 0 .1-.1.1-.1.2z"/><path class="aqst15" d="M-43.8 7.6c0 .1.1.1.1.1-.1.1-.2.1-.3.1 0-.2.1-.2.2-.2z"/><path class="aqst16" d="M7.5 7.6c.1.1.2 0 .2.1-.1 0-.1 0-.2.1-.1 0-.2-.1-.2-.1 0-.2.1-.1.2-.1z"/><path class="aqst3" d="M-43.4 6.6c.1-.1.2-.1.3-.1.1 0 .1-.1.1.1-.1 0-.2.1-.3.1 0-.1-.1-.1-.1-.1z"/><path class="aqst17" d="M8.4 6.5c.1 0 .1 0 .1-.1.1 0 .2.1.2.2-.1.1-.2 0-.3-.1z"/><path class="aqst18" d="M-41.5 12.5c-.1 0-.2.1-.2.1 0-.1-.1-.1-.1-.1h.3c0-.1 0 0 0 0z"/><path class="aqst19" d="M7.5 8.4c-.1 0-.2-.1-.2-.2.2 0 .3 0 .4.1-.1 0-.1 0-.2.1z"/><path class="aqst20" d="M-41.4 13.7c.1-.1.2-.1.3-.1 0 .1-.1.2-.2.2 0-.1 0-.1-.1-.1z"/><path class="aqst21" d="M-42.8 9.7c.1-.1.2-.1.3-.1 0 .1-.1.1-.2.2 0-.1-.1-.1-.1-.1z"/><path class="aqst22" d="M-40.9 16.3c.1-.1.2-.1.3-.1-.1.1-.2.1-.3.1z"/><path class="aqst23" d="M-41.9 10.7s-.1 0-.1.1c-.1-.1-.2 0-.3 0 .1-.1.2-.1.3-.1.1-.1.1-.1.1 0z"/><path class="aqst24" d="M-43.1 8.5c.1-.1.2-.1.4-.1 0 .1-.1.2-.2.2-.1-.1-.1-.1-.2-.1z"/><path class="aqst25" d="M-43.7 8.1c0 .1.1.1.1.1-.1.1-.2.1-.3.1 0-.1.1-.2.2-.2z"/><path class="aqst26" d="M7.5 12.9s.1 0 0 0c.2-.1.2 0 .3.1-.1.1-.2 0-.3-.1z"/><path class="aqst20" d="M-41.2 16.9c.1-.1.1-.1.2-.1s.1 0 .1.1c-.1 0-.1.1-.2.1 0 0 0-.1-.1-.1z"/><path class="aqst27" d="M-42.4 17.1c0 .1 0 .1.1.1 0 .1-.1.1-.2.2 0-.2.1-.3.1-.3z"/><path class="aqst25" d="M-43.6 9.1c0 .1.1.1.1.1-.1.1-.1.1-.3.1 0-.1.1-.1.2-.2z"/><path class="aqst6" d="M7.2 15l.1-.1c.1.1.1.1.1.3-.1 0-.1-.1-.2-.2z"/><path class="aqst22" d="M-41.1 15.7c.1-.1.2-.1.3 0 0 .1-.1.1-.2.1 0-.1 0-.1-.1-.1z"/><path class="aqst8" d="M6.7 10.4s.1 0 .1.1c-.1 0-.1 0-.1.1-.1 0-.1-.1-.2-.1 0-.2.1-.1.2-.1z"/><path class="aqst22" d="M5.6 15.6c-.1 0-.1 0-.2-.1.1-.1.2-.1.2.1 0-.1 0 0 0 0z"/><path class="aqst28" d="M-41.2 14.4c.1-.1.2-.1.3 0l-.1.1c-.1-.1-.1-.1-.2-.1z"/><path class="aqst4" d="M7.1 16.5l.1-.1c.1 0 .1.1.1.2-.1.1-.2 0-.2-.1z"/><path class="aqst29" d="M-43.9 7.1c0 .1.1.1.1.1-.1.1-.1.2-.2.1s0-.1.1-.2z"/><path class="aqst10" d="M6.3 12.4c-.1 0-.2 0-.2-.1.1 0 .2 0 .2.1z"/><path class="aqst30" d="M8.4 7.5c.1 0 .1 0 .1-.1.1 0 .1.1.1.1-.1.2-.1.1-.2 0z"/><path class="aqst31" d="M6.9 17.6c0-.1 0-.1 0 0 .1 0 .2 0 .2.1-.1 0-.2-.1-.2-.1z"/><path class="aqst32" d="M-43.2 6h.2c0 .1-.1.1-.2.2V6z"/><path class="aqst10" d="M5.6 16.2s-.1 0-.1-.1.1-.1.1-.1.1 0 .1.1c0 0-.1 0-.1.1z"/><path class="aqst23" d="M-42.2 10.1c-.1 0-.1 0-.2.1l-.1-.1s.1 0 .1-.1c.2 0 .2 0 .2.1z"/><path class="aqst33" d="M7.1 15.9l.1-.1c.1.1.1.1.1.2-.1 0-.1-.1-.2-.1z"/><path class="aqst34" d="M-42.5 8.9c.1-.1.2-.1.2 0h-.2c.1 0 0 0 0 0z"/><path class="aqst23" d="M6.2 13H6c0-.1.1-.1.1-.1s.1 0 .1.1z"/><path class="aqst35" d="M-44 6.7c0 .1.1.1.1.1-.1 0-.1.1-.2.1-.1-.1 0-.2.1-.2z"/><path class="aqst30" d="M-43.2 6c-.1.1-.1.1-.2.1.1-.1.2-.2.2-.1 0-.1 0-.1 0 0z"/><path class="aqst4" d="M-42.6 16s0 .1.1.1l-.1.1c-.1-.1-.1-.1 0-.2z"/><path class="aqst36" d="M7 8.8c0-.1-.1-.1 0 0 0-.2.1-.1.1-.1l-.1.1z"/><path class="aqst37" d="M8.3 8.6l.1-.1c.1 0 .1.1.1.1-.1.1-.1.1-.2 0z"/><path class="aqst20" d="M6.3 11.8c-.1 0-.1-.1-.1-.1 0-.1.1 0 .1.1z"/><path class="aqst38" d="M-37.8 10.8c.2.7.3 1.4.5 2.1.1.2 0 .3-.2.3-.4.1-.7.2-1.1.3-.2.1-.2 0-.3-.1-.5-2.2-1.1-4.3-1.6-6.5 0-.2 0-.2.2-.3.4-.1.8-.2 1.1-.4.2-.1.2 0 .3.2.2.8.4 1.6.6 2.3 0 .2.1.3.3.4 1.2.6 2.4 1.3 3.6 1.9.2.1.3.2.1.4-.1.2-.3.4-.4.6-.1.2-.2.2-.4.1-.8-.3-1.7-.8-2.7-1.3z"/><path class="aqst39" d="M-20.4 8.4c-1 .1-1.9.1-2.8.2-.8 0-1.6.1-2.4.1-.2 0-.2 0-.2-.2.7-1.8 1.4-3.6 2.2-5.5 0 0 0-.1.1-.1 1.1 1.8 2.1 3.6 3.1 5.5z"/><path class="aqst38" d="M-17.2 9.4c-.5 0-.5 0-.5-.5V4.5c0-.2.1-.3.3-.3.7 0 1.4.1 2.1.3 1 .4 1.5 1.1 1.5 2.1s-.4 1.8-1.3 2.3c-.7.4-1.4.5-2.1.5z"/><path class="aqst39" d="M-3.6 9.1c-.3 0-.6 0-.9-.1-.2 0-.2-.1-.2-.2.1-1.3.3-2.6.4-4 0-.2.1-.2.3-.2.4 0 .8 0 1.2.2 1.5.4 1.7 1.3 1.6 2.5-.1 1-.9 1.7-2 1.8h-.4z"/><path class="aqst40" d="M-9.4 4.1c.4 0 .8.1 1.1.1.1 0 .2 0 .1.2-.9 1.4-1.8 2.8-2.8 4.3-.2-.4-2-4.7-2.1-5 .5.1 1 .1 1.4.2.3.7.6 1.4.9 2.2.6-.7 1-1.3 1.4-2z"/><path class="aqst38" d="M-18.9 5.8V2.4c0-.3.1-.3.3-.3h3.9c.2 0 .3.1.3.3 0 .7 0 .7-.8.7h-2.7c-.3 0-.4.1-.4.4v5.8c0 .1.1.3-.1.3-.2.1-.4.1-.5 0-.1 0-.1-.2-.1-.3.1-1.2.1-2.4.1-3.5z"/><path class="aqst40" d="M-31 10.6c-.4.2-.8.2-1.2.4-.3.1-.2-.1-.2-.2-.3-1.3-.7-2.6-1-3.9-.1-.4-.2-.9-.3-1.3-.1-.2 0-.3.2-.4.3-.1.7-.2 1-.3.2-.1.3 0 .4.2.3 1.3.6 2.7.9 4 0 0 0 .1.1.1.1.2 0 .4-.1.6-.1.2-.1.4.2.5-.1.1 0 .2 0 .3zM-29.6 4.4c.4-.1.8-.2 1.2-.2.2 0 .2.1.2.2.1 1.1.3 2.1.4 3.2.1.7.2 1.5.3 2.2 0 .2 0 .3-.3.4-.3 0-.7.1-1 .2-.2 0-.3 0-.3-.2-.2-1.3-.3-2.5-.5-3.8-.1-.1-.1-.1-.1-.2.1-.4.2-.7.3-1.1.1-.2.1-.4-.2-.5.1-.1 0-.1 0-.2z"/><path class="aqst41" d="M1.2 12.1c-.5-.1-.9-.1-1.3-.2-.1 0-.1-.1-.1-.2.3-1.5.6-3 .9-4.4.1-.2.1-.3.3-.2l1.2.3c.2 0 .2.1.2.3-.4 1.3-.7 2.8-1.1 4.2 0 .2 0 .3-.1.2z"/><path class="aqst42" d="M-11.5 11.3c-.4 0-.4 0-.2-.3s.3-.5.5-.8c1.2-1.9 2.4-3.8 3.6-5.8.1-.2.6-.3.8-.1.1 0 0 .1 0 .1 0 .1-.1.1-.1.2-1.4 2.2-2.8 4.3-4.2 6.5-.1.1-.2.3-.4.2z"/><path class="aqst43" d="M-21.1 10.9c.1-.4.2-.7.4-1.1.1-.2.1-.3-.2-.3-1.6.1-3.3.2-4.9.3-.1 0-.3.1-.4-.1-.1-.2.2-.5.4-.5.4 0 .7 0 1.1-.1 1.7-.1 3.3-.2 5-.3.2 0 .3 0 .2.3-.2.5-.3 1-.5 1.5 0 .1-.1.2-.3.2-.2.1-.5.1-.8.1zM-5.6 10.9h-.1c-.5-.1-.4 0-.4-.5.2-1.8.4-3.7.6-5.5 0-.3.1-.4.4-.3h.2c.2 0 .2.1.2.3-.2 1.9-.4 3.8-.7 5.7.1.2 0 .3-.2.3z"/><path class="aqst38" d="M-29.6 4.4c.2.1.5.1.6.3 0 .2-.1.4-.2.6l-.3.9c0 .1 0 .2-.1.3-.4 1.3-.9 2.6-1.3 4 0 .1 0 .2-.2.3-.5-.3-.5-.3-.3-.8 0-.1.1-.3.1-.4.5-1.6 1-3.1 1.5-4.7.1-.4.1-.5.2-.5z"/><path class="aqst44" d="M.9 6.5c0-.1 0-.1 0 0 0-.7 0-.7.7-.5 1.1.2 2.2.5 3.4.8.2.1.3.2.2.4 0 .1 0 .2-.1.2 0 .2-.1.2-.3.2-1.2-.3-2.5-.6-3.7-.9-.1-.1-.3-.1-.2-.2z"/><path class="aqst45" d="M-9.4 4.1v.2c-.4.6-.8 1.3-1.2 2-.3-.8-.7-1.6-.9-2.4.7.1 1.4.1 2.1.2z"/><path class="aqst46" d="M-37.5 9.1c-.2-.1-.3-.2-.5-.3-.1-.1 0-.2.1-.3.4-.9.9-1.7 1.3-2.6.1-.2.2-.3.4-.1.4.2.4.2.2.6-.5.8-.9 1.7-1.4 2.5 0 0 0 .1-.1.2z"/><path class="aqst47" d="M-43 6.5c0-.1-.1-.1-.1-.1.1-.1.2-.1.4-.1.1 0 .1 0 .1.1-.2 0-.3.1-.4.1zM5.6 16.1c-.1 0-.1 0-.1.1-.1 0-.1 0-.2-.1.1-.1.2-.1.3 0z"/><path class="aqst48" d="M-41.4 13.2c0-.1-.1-.1-.1-.1.1-.1.2-.1.3-.1 0 .1-.1.1-.2.2z"/><path class="aqst49" d="M6.7 10.4c-.1 0-.1 0-.2.1-.1 0-.1-.1-.1-.1.1-.1.2 0 .3 0z"/><path class="aqst36" d="M-40.9 16.9s0-.1 0 0c0-.1.1-.2.1-.2.1.1 0 .1-.1.2z"/><path class="aqst50" d="M7.5 7.6c-.1 0-.1 0-.2.1-.1 0-.1-.1-.1-.1.1-.1.2-.1.3 0z"/><path class="aqst51" d="M-42.2 10.1c0-.1-.1-.1-.1-.1s.1 0 .1-.1c.1 0 .1-.1.2 0 0 .2-.1.2-.2.2z"/><path class="aqst52" d="M-29.5 6.3c0-.1 0-.2.1-.3 0 .1.1.1 0 .2l-.1.1z"/><path class="aqst36" d="M5.6 16.6s-.1 0-.1.1c0 0-.1 0-.1-.1v-.1s.1.1.2.1z"/><path class="aqst53" d="M7.2 9.4c-.1 0-.2 0-.2-.1.1 0 .1 0 .2.1zM6.1 12.9s-.1 0-.1.1c-.1 0-.1 0-.1-.1s.1-.1.2 0z"/><path class="aqst54" d="M-41.9 10.6c.1-.1.2-.1.2 0s0 .1-.1.1c0-.1 0-.1-.1-.1z"/><path class="aqst51" d="M6.9 9.9s-.1 0-.1.1l-.1-.1c.1-.1.1-.1.2 0z"/><path class="aqst55" d="M5.4 16.5v.1c-.1 0-.2 0 0-.1-.1-.1-.1 0 0 0z"/><path class="aqst56" d="M7.5 6.6c-.1 0-.1 0 0 0h-.2c0-.1.1-.1.2 0z"/><path class="aqst53" d="M-41.9 10.6c.1 0 .1 0 .1.1 0 0-.1 0-.1.1 0-.1-.1-.1-.1-.1 0-.1.1-.1.1-.1z"/><path class="aqst57" d="M-41.5 12.5c0-.1 0-.1.2-.1-.1.1-.2.1-.2.1z"/><path class="aqst58" d="M7.6 7.1c0 .1-.1.1 0 0h-.2.2z"/><path class="aqst59" d="M-42.9 6.9l-.1-.1c0-.1.1-.1.2-.1s.1 0 .1.1c-.1.1-.1.1-.2.1z"/><path class="aqst60" d="M-42.7 6.8c-.1 0-.1 0 0 0 0-.1.1-.2.1-.1s-.1.1-.1.1z"/><path class="aqst30" d="M-42.7 6.4c-.1 0-.1 0 0 0 0-.1.1-.2.1-.1l-.1.1z"/><path class="aqst61" d="M-23.4 5.3c.5.7.9 1.4 1.3 2.1-.7 0-1.4.1-2.1.1-.1 0-.1-.1-.1-.2.4-.6.6-1.3.9-2z"/><path class="aqst40" d="M-16.9 6.9v-1c0-.1.1-.2.2-.2.4 0 .7.1 1 .2.8.3.7 1.6.1 1.9-.4.2-.8.3-1.2.3-.1 0-.2-.1-.2-.2.1-.3.1-.7.1-1z"/><path class="aqst62" d="M-3.3 8h-.2c-.2 0-.2-.1-.2-.2.1-.5.1-1 .2-1.6 0-.2.1-.2.3-.2.7 0 1.1.4 1.2.9C-2 7.5-2.5 8-3.3 8z"/><g><circle class="aqst63" cx="11.8" cy="6.8" r="1.2"/><circle class="aqst64" cx="11.8" cy="6.8" r="1"/><path class="aqst63" d="M11.4 6.1h.3c.2 0 .3 0 .4.1.1.1.1.2.1.3 0 .2-.1.3-.3.4.1 0 .2.1.2.3 0 .2.1.3.1.4H12s-.1-.2-.1-.3c0-.2-.1-.3-.3-.3h-.2v.6h-.2V6.1zm.2.7h.2c.2 0 .3-.1.3-.3 0-.2-.1-.3-.3-.3h-.2v.6z"/></g><g><path class="aqst65" d="M-32.9 18.2v.1h-.6v1.5h-.1-.1-.1-.1c-.1 0 0 0 0 0v-1.7-.1h1v.2z"/><path class="aqst65" d="M-31.1 18.9c0 .2 0 .3-.1.4s-.1.2-.2.3c-.1.1-.2.2-.3.2-.1 0-.2.1-.4.1-.1 0-.3 0-.4-.1-.1 0-.2-.1-.3-.2s-.1-.2-.2-.3c0-.1-.1-.3-.1-.4 0-.2 0-.3.1-.4 0-.1.1-.2.2-.3s.2-.2.3-.2c.1 0 .2-.1.4-.1.1 0 .3 0 .4.1.1 0 .2.1.3.2.1.1.1.2.2.3.1.1.1.3.1.4zm-.4.1v-.3c0-.1 0-.2-.1-.2 0-.1-.1-.1-.2-.1h-.2c-.1 0-.2 0-.2.1-.1 0-.1.1-.2.1s-.1.1-.1.2v.6c0 .1 0 .2.1.2s.1.1.1.1h.2c.1 0 .2 0 .2-.1s.1-.1.2-.1.1-.1.1-.2c.1-.2.1-.2.1-.3zM-29.4 18.6v.3c0 .1-.1.2-.1.2-.1.1-.1.1-.2.1h-.5v.6h-.2-.1-.1c-.1 0 0 0 0 0v-1.7-.1h.7c.1 0 .1 0 .2.1.1 0 .1.1.1.1s.1.1.1.2c0 0 .1.1.1.2zm-.4 0v-.2c0-.1-.1-.1-.1-.1h-.1H-30.3v.7h.4s.1 0 .1-.1c0 0 0-.1.1-.1-.2-.1-.1-.1-.1-.2zM-27.4 18.9c0 .2 0 .3-.1.4s-.1.2-.2.3c-.1.1-.2.2-.3.2-.1 0-.2.1-.4.1-.1 0-.3 0-.4-.1-.1 0-.2-.1-.3-.2s-.1-.2-.2-.3c0-.1-.1-.3-.1-.4 0-.2 0-.3.1-.4 0-.1.1-.2.2-.3s.2-.2.3-.2c.1 0 .2-.1.4-.1.1 0 .3 0 .4.1.1 0 .2.1.3.2.1.1.1.2.2.3 0 .1.1.3.1.4zm-.4.1v-.3c0-.1 0-.2-.1-.2 0-.1-.1-.1-.2-.1h-.2c-.1 0-.2 0-.2.1-.1 0-.1.1-.2.1s-.1.1-.1.2v.6c0 .1 0 .2.1.2s.1.1.1.1h.2c.1 0 .2 0 .2-.1s.1-.1.2-.1.1-.1.1-.2c0-.2.1-.2.1-.3zM-25.4 20.4s-.1 0 0 0c-.1 0-.1 0 0 0-.1 0-.1 0 0 0-.1.1-.1.1-.2.1h-.1-.1v-.4H-27v.4h-.1-.2-.1v-.7-.1h.2s0-.1.1-.1c0 0 0-.1.1-.1 0 0 0-.1.1-.2 0-.1 0-.1.1-.2s0-.2.1-.3c0-.1 0-.3.1-.5v-.1H-25.4v1.6H-25.1v.6zm-.7-2.1h-.4c0 .1 0 .3-.1.4 0 .1 0 .2-.1.3 0 .1 0 .2-.1.2s0 .1-.1.2c0 0 0 .1-.1.1s0 .1-.1.1h.8v-1.3z"/><path class="aqst65" d="M-24.7 19.6V19.9s0 .1-.1.1l-.2.3h-.1-.1l.2-.4v-.2-.1h.4c-.1-.1-.1-.1-.1 0zM-22.6 18.2v.1h-.6v1.5h-.1-.1-.1-.1c-.1 0 0 0 0 0v-1.7-.1h1v.2zM-20.8 20.4c-.1 0-.1 0 0 0-.1.1-.1.1-.2.1h-.1-.1v-.4h-1.3v.4h-.1-.2-.1v-.7-.1h.2s0-.1.1-.1c0 0 0-.1.1-.1 0 0 0-.1.1-.2 0-.1 0-.1.1-.2s0-.2.1-.3c0-.1 0-.3.1-.5v-.1H-20.9v1.6H-20.6v.6zm-.6-2.1h-.4c0 .1 0 .3-.1.4 0 .1 0 .2-.1.3 0 .1 0 .2-.1.2s0 .1-.1.2c0 0 0 .1-.1.1s0 .1-.1.1h.8v-1.3zM-19.4 19.8v.1h-1-.1v-1.8-.1h1v.2h-.7v.5h.6v.2h-.6v.5h.7s.1.3.1.4c0-.1 0-.1 0 0zM-16.2 19.9c-.1 0-.1.1-.1.1h-.1-.1-.1l-.1-.4c0-.1 0-.1-.1-.2 0 0 0-.1-.1-.1 0 0-.1 0-.1-.1h-.2v.8h-.1-.1-.1-.1v-.8h-.1-.1s-.1 0-.1.1l-.1.1s0 .1-.1.1l-.1.4h-.1-.1-.1-.1l.1-.4c0-.1 0-.1.1-.2l.1-.1.1-.1s.1 0 .1-.1h-.1s-.1 0-.1-.1c0 0 0-.1-.1-.1 0 0 0-.1-.1-.2l-.1-.3v-.1h.4l.1.4c0 .1 0 .1.1.1 0 0 0 .1.1.1s.1 0 .1.1h.2v-.7h.4v.7h.2s.1 0 .1-.1c0 0 0-.1.1-.1 0 0 0-.1.1-.1l.1-.4h.4v.1l-.1.3c0 .1 0 .1-.1.2 0 0 0 .1-.1.1l-.1.1s-.1 0-.1.1c0 0 .1 0 .1.1 0 0 .1 0 .1.1s.1.1.1.1 0 .1.1.2l.1.4v-.1c0-.1 0-.1 0 0 0-.1 0-.1 0 0zM-14.4 19.9c-.1 0-.1.1-.1.1h-.1-.1-.1v-1-.1-.1V19.1l-.7 1h-.1-.1-.1v-1.8h.4c.1 0 0 0 0 0V19.5s0-.1.1-.1.1-.1.1-.1l.7-1H-14.2c.1 0 0 0 0 0v1.6zM-12.6 19.3v.2c0 .1 0 .1-.1.1l-.1.1s-.1.1-.2.1h-.9-.1V18v-.1H-13.1c.1 0 .1 0 .2.1.1 0 .1.1.1.2V18.5s0 .1-.1.1-.1.1-.1.1-.1 0-.1.1c.1 0 .1 0 .1.1l.1.1.1.1.2.2zm-.5-.8v-.1s0-.1-.1-.1h-.1H-13.6v.5H-13.3s.1 0 .1-.1c.1 0 .1 0 .1-.2 0 .1 0 .1 0 0zm.1.9v-.1s0-.1-.1-.1-.1 0-.1-.1-.1 0-.2 0h-.2v.5h.5l.1-.1v-.1zM-11.4 19.4c0 .1-.1.2-.1.3 0 .1-.1.1-.1.2 0 0-.1.1-.2.1h-.2-.1-.2c-.1 0 0 0 0 0v-.1-.1-.1H-12v-.1-.1l-.6-1.3v-.1h.4l.3.6c0 .1.1.1.1.2s.1.1.1.2c0-.1 0-.1.1-.2 0-.1 0-.1.1-.2l.2-.6h.4v.1l-.5 1.2zM-9.4 18.2v.1h-.6v1.5h-.1-.1-.1-.1c-.1 0 0 0 0 0v-1.5h-.5v-.1-.1h1.3c.2 0 .2 0 .2.1 0-.1 0-.1 0 0zM-6.8 20.4c-.1.1-.1.1-.2.1h-.1-.1v-.4h-1.3v.4h-.1-.2-.1v-.7-.1h.2s0-.1.1-.1c0 0 0-.1.1-.1 0 0 0-.1.1-.2 0-.1 0-.1.1-.2s0-.2.1-.3c0-.1 0-.3.1-.5v-.1H-6.9v1.6H-6.6v.6zm-.6-2.1h-.4c0 .1 0 .3-.1.4 0 .1 0 .2-.1.3 0 .1 0 .2-.1.2s0 .1-.1.2c0 0 0 .1-.1.1s0 .1-.1.1h.8v-1.3zM-5.4 19.8v.1h-1-.1v-1.8-.1h1v.2h-.7v.5h.6v.2h-.6v.5h.7s.1.3.1.4c0-.1 0-.1 0 0zM-3.8 18.2v.1h-.5v1.5h-.1-.1-.1-.1c-.1 0 0 0 0 0v-1.5h-.5v-.1-.1h1.3c.1 0 .1 0 .1.1 0-.1 0-.1 0 0zM-2 19.9c-.1 0-.1.1-.1.1h-.1-.1-.1v-1-.1-.1V19.1l-.7 1h-.1-.1-.1v-1.8h.4c.1 0 0 0 0 0V19.5s0-.1.1-.1-.2-.3-.1-.4l.7-1H-2c.1 0 0 0 0 0v1.9z"/></g></symbol><symbol id="p-kvartira" viewBox="0 0 64 12"><style>.arst0{fill:#9f1613}</style><path class="arst0" d="M6.3.1H4L1.8 2.9V.1H0v7h1.8V4l2.4 3h2.3l-3-3.7L6.3.1zm7.2 3.6c-.2-.2-.6-.4-1-.4.3-.1.4-.3.6-.6s.2-.6.2-.9c0-.6-.2-1-.4-1.3-.4-.5-1-.6-1.5-.6H8.7v7h2.9c.9 0 1.5-.3 1.9-.7.3-.1.5-.6.5-1.2s-.2-1-.5-1.3zm-3-2.3h.3c.4 0 .6.1.7.2.1.1.2.3.2.5 0 .1-.1.3-.2.4-.2.2-.5.2-.7.2h-.3V1.4zM12 5.3c-.2.2-.6.3-1.1.3h-.4V4.1h.4c.4 0 .9 0 1.1.2.1.1.2.3.2.5 0 .3-.1.4-.2.5zM20.6.1h-2l-2.7 7h1.9l.5-1.2h2.5l.4 1.2h1.9l-2.5-7zm-1.8 4.4l.8-2.3.8 2.3h-1.6zM28.6.1h-2.9v7h1.8V4.8h1.1c.6 0 1.2-.1 1.7-.6S31 3 31 2.4c0-.6-.1-1.2-.6-1.7-.6-.5-1.2-.6-1.8-.6zm.3 2.9c-.2.2-.6.2-.8.2h-.6V1.5h.6c.2 0 .6 0 .8.3.2.2.2.4.2.6 0 .1 0 .4-.2.6zm4.4-1.4h1.5V7h1.8V1.6h1.5V.1h-4.8v1.5zM46.6 7V0h-1.8l-2.6 4.4V.1h-1.8v7h1.8l2.6-4.4V7h1.8zM52.7.1h-2.9v7h1.8V4.8h1.1c.6 0 1.2-.1 1.7-.6.6-.5.6-1.2.6-1.7 0-.6-.1-1.2-.6-1.7-.5-.6-1.1-.7-1.7-.7zM53 3c-.2.2-.6.2-.8.2h-.6V1.5h.6c.2 0 .6 0 .8.3.2.2.2.4.2.6 0 .1 0 .4-.2.6zM60.9.1h-2l-2.7 7h1.9l.5-1.2h2.5l.4 1.2h1.9l-2.5-7zm-1.7 4.4l.8-2.3.8 2.3h-1.6zM14.9 9.7c-.1-.1-.3-.1-.5-.1H14v2.2h.3v-.9h.1c.1 0 .4 0 .5-.2.2-.1.2-.4.2-.5.1-.2.1-.4-.2-.5zm-.4.9h-.1v-.7h.1c.4 0 .4.2.4.3 0 .2-.1.4-.4.4zm1.7 1.1h1.2v-.3h-.9v-.7h.9v-.3h-.9v-.5h.9v-.4h-1.2v2.2zm3.6-.6L19 9.4l-.5 2.4h.3l.2-1.3.6 1.4.6-1.4.2 1.3h.3l-.4-2.4-.5 1.7zm3.3-1.6c-.7 0-1.1.5-1.1 1.1s.5 1.1 1.1 1.1c.7 0 1.1-.5 1.1-1.1s-.5-1.1-1.1-1.1zm0 2c-.5 0-.8-.3-.8-.9 0-.5.3-.9.8-.9s.8.3.8.9c0 .6-.4.9-.8.9zm3.5-1.1h-1v-.9h-.3v2.2h.3v-1h1v1h.3V9.5h-.3v.9zm1.3-.5h.5v1.9h.3V9.9h.5v-.3h-1.3v.3zm4.3.6H32v-.6h.8v-.3h-1.1v2.2h.6c.1 0 .3 0 .5-.1s.3-.3.3-.5-.1-.4-.2-.5c-.3-.2-.6-.2-.7-.2zm0 1H32v-.7h.2c.4 0 .4.2.4.3 0 .4-.3.4-.4.4zm1.8.2h1.2v-.3h-.9v-.7h.9v-.3h-.9v-.5h.9v-.4H34v2.2zm3.4-1.1c.1 0 .1-.1.2-.2s.1-.2.1-.3c0-.1-.1-.3-.1-.4-.1-.1-.4-.2-.5-.2s-.3 0-.4.1c-.1 0-.2.1-.3.2l.2.2s.1-.1.2-.1c.1-.1.2-.1.3-.1s.2 0 .3.1c.1 0 .1.1.1.2s0 .2-.1.2c-.1.1-.2.1-.3.1h-.2v.3h.2c.1 0 .3 0 .4.1.1.1.1.1.1.3s0 .2-.1.3c-.1.1-.3.1-.3.1-.1 0-.3 0-.4-.1-.1 0-.1-.1-.2-.3l-.3.1c.1.1.2.3.3.4.2.1.3.2.5.2s.4 0 .6-.2c.1-.1.2-.3.2-.5 0-.1 0-.3-.1-.4-.1 0-.2-.1-.4-.1zm3.2-.8c-.2.2-.4.4-.4.9 0 .3.1.6.4.9.1.1.4.3.8.3.1 0 .4 0 .6-.2v-.4c-.1.1-.3.3-.6.3-.5 0-.8-.4-.8-.8 0-.5.3-.9.8-.9.1 0 .4 0 .6.3v-.5c-.2-.1-.4-.1-.6-.1-.3-.1-.6 0-.8.2zm2.6 0c-.2.2-.4.4-.4.9 0 .3.1.6.4.9.1.1.4.3.8.3.1 0 .4 0 .6-.2v-.4c-.1.1-.3.3-.6.3-.5 0-.8-.4-.8-.8 0-.5.3-.9.8-.9.1 0 .4 0 .6.3v-.5c-.2-.1-.4-.1-.6-.1-.3-.1-.6 0-.8.2zm3.5-.3c-.7 0-1.1.5-1.1 1.1s.5 1.1 1.1 1.1c.7 0 1.1-.5 1.1-1.1s-.5-1.1-1.1-1.1zm0 2c-.5 0-.8-.3-.8-.9 0-.5.3-.9.8-.9s.8.3.8.9c0 .6-.4.9-.8.9zm3.1-1.8c-.1-.1-.3-.1-.5-.1h-.5v2.2h.3v-.9h.1c.1 0 .4 0 .5-.2.2-.1.2-.4.2-.5.2-.2.2-.4-.1-.5zm-.4.9h-.1v-.7h.1c.4 0 .4.2.4.3 0 .2-.2.4-.4.4z"/></symbol><symbol id="p-minimax" viewBox="0 0 64 11"><style>.asst0{fill:#fff}.asst1{fill:#c6c7c7}.asst2{fill:#fefefe}.asst3{fill:#0096cb}</style><path class="asst0" d="M62.9 3.3h-.5v1.2h.2V4H62.9v-.1H62.6v-.4H62.9v-.2zm0 1.8c-.2 0-.4 0-.6-.2-.2-.1-.3-.2-.4-.4-.1-.2-.2-.4-.2-.6 0-.2 0-.4.2-.6l.4-.4c.2-.1.4-.2.6-.2V3c-.2 0-.3 0-.5.1s-.3.2-.3.3c-.1.2-.1.4-.1.5 0 .2 0 .3.1.5s.2.3.4.3c.2.1.3.1.5.1l-.1.3zm0-1s.1.1.2.3l.1.2h.2l-.2-.2c-.1-.1-.1-.2-.2-.2.1-.2 0-.2-.1-.1.2-.1.3-.1.4-.2.1-.1.1-.1.1-.2s0-.1-.1-.2c0-.1-.1-.1-.2-.1h-.2v.2h.1s.1 0 .1.1v.1c0 .1 0 .1-.1.1h-.2l.1.2zm0-1.3c.2 0 .4.1.6.2.2.1.3.2.4.4.1.2.2.4.2.6 0 .2 0 .4-.1.6s-.2.3-.4.4c-.2.1-.4.2-.6.2v-.3c.2 0 .3 0 .5-.1s.3-.2.4-.3c.1-.2.1-.3.1-.5s0-.3-.1-.5c-.1-.1-.2-.3-.4-.3-.3-.2-.4-.2-.6-.2v-.2z"/><path class="asst1" d="M11.8.5L1.9 10.8v.1s0 .1.1.1H6.4L10 7.5V10s0 .1.1.1h.1l3-2.3V11h2.7V.5s0-.1-.1-.1h-.1L11.9 4V.5s0-.1-.1-.1c0 0-.1 0 0 .1h-.1V4.3h.1L15.5.8v10h-2.3V7.5v-.1h-.1l-3 2.3V7.2s0-.1-.1-.1h-.1l-3.8 3.6h-4L11.8.5h-.1.1z"/><path class="asst1" d="M11.8 4.2V.5L2 10.8v.1h4.2L10 7.2v2.7l3.1-2.4v3.4h2.6V.5zM23.6 10.8h.1V4.1h1.1v2.6l.1.1h2.5v-.1h.1V4.1h1v6.6h-1V7.8h-2.7v2.9h-1.2v.1h.1-.1v.1H25v-3h2.3v3H28.7l.1-.1V4l-.1-.1H27.3v2.7H25V3.9H23.6l-.1.1v6.8l.1.1z"/><path class="asst1" d="M27.4 4v2.7h-2.5V4h-1.3v6.8h1.3v-3h2.5v3h1.3V4zM30 4v.1h1.1v4.5s0 .1.1.1h.1l2.5-4.5H35v6.6h-1V6.4s0-.1-.1-.1h-.1l-2.6 4.5h-1.1V4h-.2v7H31.4l2.4-4.2V11H35.2V3.9H33.8h-.1l-2.4 4.2V3.9H30V4h-.1.1z"/><path class="asst1" d="M33.8 4l-2.6 4.6V4H30v6.9h1.3l2.5-4.5v4.5h1.3V4zM36.4 10.8h.1V4.1h2l1.2 4.6s0 .1.1.1c0 0 .1 0 .1-.1l1.2-4.6h2v6.6H42V5.5s0-.1-.1-.1c0 0-.1 0-.1.1l-1.4 5.3h-1.2l-1.4-5.3-.1-.1s-.1 0-.1.1v5.3h-1.2.1-.1v.1h1.3s.1 0 .1-.1V6.2l1.2 4.6s0 .1.1.1h1.4s.1 0 .1-.1l1.2-4.6v4.6c0 .1 0 .1.1.1H43.3V3.9h-2.2s-.1 0-.1.1l-1.2 4.3L38.7 4l-.1-.1h-2.2V10.9h.1l-.1-.1z"/><path class="asst1" d="M41.1 4l-1.3 4.7L38.6 4h-2.2v6.8h1.4V5.5l1.3 5.3h1.4l1.4-5.3v5.3h1.3V4zM49.6 10.9v-.1h-1.1L48 9.3l-.1-.1h-2.2s-.1 0-.1.1l-.4 1.5h-1l2.1-6.7h1l2.3 6.8v-.1.1h.1L47.5 4s0-.1-.1-.1h-1.2s-.1 0-.1.1L44 10.8v.1h1.3s.1 0 .1-.1l.4-1.5h2.1l.5 1.5s0 .1.1.1h1.3v-.1l-.2.1zm-2-2.8h.1l-.8-2.5s0-.1-.1-.1c0 0-.1 0-.1.1L46 8.1v.1h1.6v-.1h.1-.1V8h-1.4l.6-2.1.7 2.2h.1V8v.1z"/><path class="asst1" d="M46.8 5.6l.8 2.5h-1.5l.7-2.5zm0-1.6h-.6l-2.1 6.9h1.2l.5-1.6H48l.5 1.6h1.2L47.4 4h-.6zM59.9 8.3v.1h1.4v-.1h-.1c-.1.9-.6 1.6-1 1.9-.4.3-.9.5-1.6.5-.8 0-1.4-.3-2-.9-.5-.6-.8-1.4-.8-2.4 0-1.1.3-1.9.8-2.5.5-.6 1.2-.9 2-.9.7 0 1.3.2 1.8.7.1.1.3.4.4.7.2.3.3.6.3.9h.1v-.1h-1.3v.1h.1c-.1-.3-.2-.7-.4-1-.3-.2-.6-.3-1-.3-.5 0-.9.2-1.2.6-.3.4-.5 1-.5 1.8 0 .9.1 1.5.5 1.9.3.4.7.6 1.2.6.3 0 .7-.1.9-.3.3-.3.4-.6.5-1.1l-.1-.2v.1-.1h-.1c-.1.5-.2.8-.4 1-.2.2-.5.3-.8.3-.4 0-.8-.2-1-.5-.3-.3-.4-.9-.4-1.7 0-.8.1-1.3.4-1.7.3-.3.6-.5 1-.5.3 0 .6.1.8.3.2.2.3.5.3.9 0 0 0 .1.1.1H61.2v-.1c0-.3-.1-.6-.2-.9-.1-.3-.3-.6-.4-.8-.5-.5-1.2-.8-1.9-.7-.9 0-1.6.3-2.2.9-.6.6-.8 1.5-.8 2.7 0 1 .3 1.9.8 2.5.5.6 1.3.9 2.1.9.7 0 1.3-.2 1.7-.6.5-.4.9-1.1 1-2.1v-.1h-1.5s-.1 0-.1.1h.2z"/><path class="asst1" d="M58.7 3.9c.8 0 1.4.2 1.9.7.3.3.6 1.1.7 1.6H60c-.1-.3-.2-.7-.4-.9-.2-.2-.5-.3-.9-.3-.5 0-.8.2-1.1.5-.3.3-.4.9-.4 1.7 0 .9.1 1.4.4 1.8s.6.5 1.1.5c.3 0 .6-.1.9-.3.2-.2.3-.5.5-1h1.4c-.1.9-.6 1.6-1 2-.4.3-1 .5-1.7.5-.8 0-1.5-.3-2-.9-.5-.6-.8-1.4-.8-2.4v-.1c0-1 .3-1.9.8-2.5.3-.6 1-.8 1.9-.9zM17.1 4v.1h1.1v4.5s0 .1.1.1h.1L21 4.1h1.1v6.6h-1V6.4s0-.1-.1-.1h-.1l-2.6 4.4h-1.2V4v.1V4H17v7H18.5l2.4-4.2V11H22.3V3.9H20.9h-.1l-2.4 4.3V3.9h-1.3V4H17h.1z"/><path class="asst1" d="M20.9 4l-2.6 4.6V4h-1.2v6.9h1.3L21 6.4v4.5h1.2V4zM50.6 10.8v.1H52v-3l1.9 3H55.7v-.1l-2.4-3.7L55.6 4v-.1H53.8L52 6.6V3.9H50.5V10.9h.1v-.1h.1V4.1h1.1v2.8s0 .1.1.1h.1l2-2.9h1.3l-2.2 3v.1l2.3 3.6H54l-2-3.3s-.1-.1-.1 0-.1.1-.1.1v3.1l-1.2.1z"/><path class="asst1" d="M53.9 4l-2 2.9V4h-1.3v6.8h1.3V7.6l2.1 3.3h1.6l-2.5-3.7L55.5 4z"/><path class="asst0" d="M24.1 2.9V1.4h-.6v-.2h1.4v.2h-.6v1.5h-.2zm-1.9-1.7h.2V2c.1 0 .2 0 .2-.1 0 0 .1-.1.2-.3 0-.1.1-.2.1-.2l.1-.1c.1 0 .1-.1.2-.1h.1v.2c-.1 0-.1 0-.2.1 0 0-.1.1-.1.2s0 .2-.1.2c0 0-.1.1-.2.1.1 0 .2.1.3.3l.3.6H23l-.3-.5c-.1-.1-.2-.2-.2-.3-.1 0-.1-.1-.2-.1v.8h-.2c.1.1.1-1.6.1-1.6zm-1.6 1.7V1.2h1.3v.2h-1v.5h1v.2h-1v.6H22v.2h-1.4zm-1.5-1.7h1.1v1.7H20V1.4h-.6v1.3c0 .1-.1.2-.1.2-.1 0-.1.1-.2.1h-.2v-.2h.1c.1 0 .1 0 .1-.1V1.2zm6.7 0v.2h-.4V2h.4v.2h-.4v.7h-.2V1.2h.6zm-7.9.7v.2h.7c0 .2-.1.3-.2.5-.1.1-.2.2-.4.2-.3 0-.5-.2-.5-.5l-.2.1c.1.4.3.6.7.6.3 0 .5-.1.6-.3.1-.2.2-.4.2-.7 0-.2 0-.3-.1-.4l-.3-.3c-.1-.1-.3-.1-.5-.1s-.3 0-.5.1c-.1.1-.2.2-.2.4l.2.1c.1-.2.2-.3.5-.3.2 0 .3 0 .4.2.1.1.2.2.2.4l-.6-.2zm7.9.3V2c.2 0 .3 0 .3-.1.1-.1.1-.1.1-.2s0-.1-.1-.2c0-.1-.1-.1-.1-.1h-.2v-.2h.3c.1 0 .2 0 .2.1 0 0 .1.1.1.2v.2c0 .2 0 .3-.1.4-.1 0-.2.1-.5.1zm1.7-1.1v.2c-.2 0-.3.1-.4.2-.1.1-.2.3-.2.6 0 .2 0 .4.2.5.1.1.3.2.4.2V3c-.2 0-.3 0-.4-.1l-.3-.3c-.1-.1-.1-.3-.1-.5 0-.3.1-.5.2-.7.1-.2.3-.3.6-.3zm14.4.1h.2V2c.1 0 .2 0 .2-.1 0 0 .1-.1.2-.3 0-.1.1-.2.1-.2l.1-.1s.1-.1.2-.1h.1v.2c-.1 0-.1 0-.2.1 0 0-.1.1-.1.2s-.1.2-.1.3c0 0-.1.1-.2.1.1 0 .2.1.3.3l.3.6h-.3l-.3-.5c-.1-.1-.2-.2-.2-.3-.1 0-.1-.1-.2-.1v.8h-.2l.1-1.7zm-.5 1.1l.2.1c-.1.2-.1.3-.3.4-.1.1-.3.1-.5.1s-.3 0-.5-.1l-.3-.3c-.1-.1-.1-.3-.1-.5s0-.3.1-.5.2-.2.3-.3c.1-.1.3-.1.4-.1.2 0 .3 0 .5.1.1.1.2.2.2.4l-.2.1c0-.1-.1-.2-.2-.3-.1-.1-.2-.1-.3-.1-.1 0-.2 0-.3.1-.1.1-.2.1-.2.2s-.1.2-.1.3c0 .2 0 .3.1.4 0 .1.1.2.2.2.1.1.2.1.3.1.1 0 .2 0 .3-.1.3 0 .4-.1.4-.2zm-2.8.6V1.2h1.3v.2h-1v.5h1v.2h-1v.6H40v.2h-1.4zm-.4 0H38v-.7c-.2.1-.4.1-.6.1-.1 0-.2 0-.3-.1-.1 0-.2-.1-.2-.2s-.1-.2-.1-.3v-.5h.2v.5c0 .2 0 .3.1.4.1 0 .2.1.2.1.2 0 .3 0 .5-.1v-.9h.2l.2 1.7zm-3-1.7h.2v1.4l.9-1.4h.2v1.7h-.2V1.5l-.9 1.4h-.2V1.2zm-1.8 1.7V1.2h.2v.7h.9v-.7h.2v1.7h-.2v-.8h-.9v.8h-.2zm-1.8 0l.6-.9-.6-.8h.3l.3.5c.1.1.1.2.1.2 0-.1.1-.1.1-.2l.3-.5h.3l-.4.8.7.9H33l-.4-.6s0-.1-.1-.1c0 .1-.1.1-.1.1l-.4.6h-.4zm-1.5 0V1.2h1.3v.2h-1v.5h1v.2h-1v.6h1.1v.2h-1.4zm-1 0V1.4h-.6v-.2h1.4v.2h-.6v1.5h-.2zm-1.6 0v-.2c.2 0 .3-.1.4-.2s.2-.3.2-.5c0-.1 0-.3-.1-.4 0-.1-.1-.2-.2-.2-.1-.1-.2-.1-.3-.1v-.2c.2 0 .3 0 .4.1l.3.3c.1.1.1.3.1.5s0 .3-.1.5l-.3.3c-.1.1-.3.1-.4.1zM44 1.2v.2c0 .1 0 .2-.1.3l-.2.5h.3v.2h-.3l-.2.5h-.2l.7-1.7c-.1 0 0 0 0 0zm0 1.2v-.2h.3l-.2-.5c-.1-.1-.1-.2-.1-.3v-.2h.1l.7 1.7h-.3l-.2-.5H44zm1.7-1.2v.2h-.1c-.1 0-.2 0-.3.1-.1.1-.1.1-.1.2v.2c0 .1.1.1.1.1h.2v.2l-.1.1c0 .1-.1.1-.2.2l-.2.3h-.3l.3-.5c.1-.1.1-.2.2-.2l.1-.1c-.2 0-.3-.1-.4-.2.1 0 .1-.1.1-.2s0-.2.1-.3c0-.1.1-.1.2-.2 0 0 .2 0 .4.1zm1.8 0h.2V2c.1 0 .2 0 .2-.1 0 0 .1-.1.2-.3 0-.1.1-.2.1-.2l.1-.1c.1 0 .1-.1.2-.1h.1v.2c-.1 0-.1 0-.2.1 0 0-.1.1-.1.2-.1.1-.1.2-.2.3H48c.1 0 .2.1.3.3l.4.6h-.3l-.3-.5c-.1-.1-.1-.2-.2-.3 0 0-.1-.1-.2-.1v.8h-.2V1.2zm-1.8.9v-.2h.5v-.6h-.5v-.1h.7v1.7h-.2v-.8h-.5zm3.9-1v.2c-.2 0-.3.1-.4.2-.1.1-.2.3-.2.6 0 .2.1.4.2.5.1.1.3.2.4.2V3c-.2 0-.3 0-.4-.1l-.3-.3c-.1-.1-.1-.3-.1-.5 0-.3.1-.5.2-.7.2-.2.4-.3.6-.3zm3.2.1h1.4v1.7H54V1.4h-1v1.5h-.2V1.2zm-2 1.7V1.2h.3l.4 1.2c0 .1.1.2.1.3 0-.1.1-.2.1-.3l.4-1.2h.3v1.7h-.2V1.4l-.5 1.5h-.2L51 1.4v1.5h-.2zm-1.2 0v-.2c.2 0 .3-.1.4-.2.1-.1.2-.3.2-.5 0-.1 0-.3-.1-.4 0-.1-.1-.2-.2-.2-.1-.1-.2-.1-.3-.1v-.2c.2 0 .3 0 .4.1l.3.3c.1.1.1.3.1.5s0 .3-.1.5l-.3.3c-.1.1-.2.1-.4.1zm5.6-1.7v.2-.1c0 .1-.1.2-.1.3l-.2.5h.3v.2h-.3l-.2.5h-.2l.5-1.6h.2zm2.7 0h.2v1.4l.9-1.4h.2v1.7H59V1.5l-.9 1.4h-.2V1.2zm-1.7 1.7V1.2h.2v.7h.9v-.7h.2v1.7h-.2v-.8h-.9v.8h-.2zm-1-.5v-.2h.3l-.2-.5c0-.1-.1-.2-.1-.3v-.2h.1l.7 1.7h-.3l-.2-.5h-.3zm5.2-1.2v.2h-.1c-.1 0-.2 0-.3.1 0 .1-.1.1-.1.2v.2c0 .1.1.1.1.1h.2v.2l-.1.1c0 .1-.1.1-.2.2l-.2.3h-.3l.3-.5c.2 0 .3 0 .3-.1l.1-.1c-.2 0-.3-.1-.4-.2-.1-.1-.1-.2-.1-.3 0-.1 0-.2.1-.3 0-.1.1-.1.2-.2h.3l.2.1zm0 .9v-.2h.5v-.6h-.5v-.1h.7v1.7h-.2v-.8h-.5z"/><path class="asst2" d="M1.1.4l-.5 1L2.1.5l-1.7 2L3 .5.6 3.8 4.3.7.6 5.2 5.5.9l-5 5.5L7 1.1.6 8.2l8-7.1L0 10.4V.4h1.1zM9.5.3L1.4 7.5 7.8.4 1.4 5.8 6.3.4l-5 4.3L5 .4l-3.7 3L3.8.5.9 2.3 2.5.5l-1.7.8.5-.9H0v10.3L9.5.4V.3z"/><path class="asst0" d="M0 .4h1.2l-.6 1 1.8-1L.5 2.6 3.6.4l-3 3.5L4.9.4.6 5.3 6.3.4.6 6.6 7.7.4.6 8.2 9.5.4 0 10.7z"/><path class="asst2" d="M11.8.4L1.9 10.7v.1H6.4L10 7.3v2.5s0 .1.1.1h.1l3-2.3v3.2h2.7V.4s0-.1-.1-.1h-.1L12 3.8V.4c-.1-.1-.1-.1-.2 0V.3c-.1 0-.1 0 0 .1h-.1V4.2h.1L15.5.7v10h-2.3V7.4v-.1h-.1l-3 2.3V7.1s0-.1-.1-.1l-3.8 3.6h-4L11.8.4h-.1.1z"/><path class="asst3" d="M11.8 4.1V.4L2 10.7h4.2L10 7.1v2.7l3.1-2.4v3.3h2.6V.4z"/><path class="asst2" d="M23.6 10.7h.1V3.9h1.1v2.7h2.6l.1-.1V3.9h1v6.7h-1V7.7l-.1-.1h-2.6v3h-1.2v.1h.1-.1v.1H25v-3h2.3v3H28.7l.1-.1V3.9l-.1-.1v-.1h-1.3l-.1.1v2.6H25V3.8l-.1-.1h-1.3v.1l-.1.1v6.8l.1.1z"/><path class="asst3" d="M27.4 3.9v2.6h-2.5V3.9h-1.3v6.8h1.3v-3h2.5v3h1.3V3.9z"/><path class="asst2" d="M30 3.9V4h1.1v4.5s0 .1.1.1h.1L33.8 4H35v6.7h-1V6.2s0-.1-.1-.1h-.1l-2.6 4.5h-1.1V3.8l-.1.1h-.1v7H31.4l2.4-4.2V10.9H35.2V3.8H33.8h-.1L31.3 8V3.8H30v.1h-.1.1z"/><path class="asst3" d="M33.8 3.9l-2.6 4.5V3.9H30v6.8h1.3l2.5-4.5v4.5h1.3V3.9z"/><path class="asst2" d="M36.4 10.7h.1V3.9h2l1.2 4.6s0 .1.1.1c0 0 .1 0 .1-.1l1.2-4.6h2v6.7H42V5.3s0-.1-.1-.1c0 0-.1 0-.1.1l-1.4 5.3h-1.2l-1.4-5.3-.1-.1s-.1 0-.1.1v5.3l-1.2.1v.1h1.3s.1 0 .1-.1V6.1l1.2 4.6s0 .1.1.1h1.4s.1 0 .1-.1l1.2-4.6v4.6c0 .1 0 .1.1.1H43.3V3.8h-2.2s-.1 0-.1.1l-1.2 4.3-1.2-4.3-.1-.1h-2.2V10.8h.1v-.1z"/><path class="asst3" d="M41.1 3.9l-1.3 4.6-1.2-4.6h-2.2v6.8h1.4V5.3l1.3 5.4h1.4l1.4-5.4v5.4h1.3V3.9z"/><path class="asst2" d="M49.6 10.7v-.1h-1.1L48 9.1s0-.1-.1-.1h-2.2s-.1 0-.1.1l-.4 1.5h-1l2.1-6.7h1l2.3 6.8v-.1.1h.1l-2.2-6.9s0-.1-.1-.1h-1.2s-.1 0-.1.1L44 10.7v.1h1.3s.1 0 .1-.1l.4-1.5h2.1l.5 1.5s0 .1.1.1h1.3v-.1h-.2zm-2-2.7h.1l-.8-2.5s0-.1-.1-.1c0 0-.1 0-.1.1L46 8v.1h1.6v-.2h-1.4l.6-2.1.7 2.2h.1v-.1.1z"/><path class="asst3" d="M46.8 5.5l.8 2.5h-1.5l.7-2.5zm0-1.6h-.6l-2.1 6.9h1.2l.5-1.6H48l.5 1.6h1.2l-2.2-6.9h-.7z"/><path class="asst2" d="M59.9 8.2v.1h1.4v-.1h-.1c-.1.9-.6 1.6-1 1.9-.4.3-.9.5-1.6.5-.8 0-1.4-.3-2-.9-.5-.6-.8-1.4-.8-2.4 0-1.1.3-1.9.8-2.5.5-.6 1.2-.9 2-.9.7 0 1.3.2 1.8.7.1.1.3.4.4.7.1.3.2.6.2.9h.1V6h-1.3v.1h.1c-.1-.3-.2-.7-.4-1s-.5-.3-.9-.3c-.5 0-.9.2-1.2.6-.3.4-.5 1-.5 1.8 0 .9.1 1.5.5 1.9.3.4.7.6 1.2.6.3 0 .7-.1.9-.4.3-.3.4-.6.5-1.1h-.1v.1-.1h-.1c-.1.5-.2.8-.4 1-.2.2-.5.3-.8.3-.4 0-.8-.2-1-.5-.3-.3-.4-.9-.4-1.7 0-.8.1-1.3.4-1.7.3-.3.6-.5 1-.5.3 0 .6.1.8.3.2.2.3.5.3.9 0 0 0 .1.1.1H61.2v-.1c0-.3-.1-.6-.2-.9-.1-.3-.3-.6-.4-.8-.5-.5-1.2-.8-1.9-.8-.9 0-1.6.3-2.2 1-.6.6-.8 1.5-.8 2.7 0 1.1.3 1.9.8 2.6.5.6 1.3.9 2.1.9.7 0 1.3-.2 1.7-.6.5-.4.9-1.1 1-2.1v-.1h-1.5s-.1 0-.1.1l.2-.1z"/><path class="asst3" d="M56.6 4.7c-.5.6-.8 1.5-.8 2.6 0 1 .3 1.9.8 2.5.5.6 1.2.9 2 .9.7 0 1.2-.2 1.7-.5.4-.3.9-1 1-2h-1.4c-.1.5-.2.8-.5 1-.2.2-.5.3-.9.3-.5 0-.8-.2-1.1-.5S57 8 57 7.2s.2-1.4.4-1.7c.4-.3.8-.5 1.2-.5.3 0 .6.1.9.3.2.2.3.6.4.9h1.3c-.1-.6-.3-1.4-.7-1.6-.5-.5-1.1-.7-1.8-.7-.9-.1-1.6.2-2.1.8z"/><path class="asst2" d="M17.1 3.9V4h1.1v4.5s0 .1.1.1h.1L21 4h1.1v6.7h-1V6.2s0-.1-.1-.1h-.1l-2.6 4.5h-1.2V3.9 4v-.1H17V10.8H18.5l2.4-4.2V10.8H22.3V3.8H20.9h-.1l-2.4 4.3V3.8h-1.3v.1H17h.1z"/><path class="asst3" d="M20.9 3.9l-2.6 4.5V3.9h-1.2v6.8h1.3L21 6.2v4.5h1.2V3.9z"/><path class="asst2" d="M50.6 10.7v.1H52v-3l1.9 3H55.7v-.1L53.3 7l2.3-3.1v-.1H53.8L52 6.5V3.8H50.5V10.8h.1v-.1h.1V3.9h1.1v2.8s0 .1.1.1h.1l2-2.9h1.3l-2.2 3V7l2.3 3.6H54l-2-3.2s-.1-.1-.1 0-.1 0-.1.1v3.1l-1.2.1z"/><path class="asst3" d="M53.9 3.9l-2 2.9V3.9h-1.3v6.8h1.3V7.5l2.1 3.2h1.6L53.1 7l2.4-3.1z"/></symbol><symbol id="p-yota" viewBox="0 0 46 64"><style>.atst0{fill:#00aeef}</style><path class="atst0" d="M33 0c1.4 0 2.5 1.1 2.5 2.5V5c0 3.3-1.3 6.5-3.6 8.9-1.6 1.7-3.7 2.8-6 3.4l-.2.1v6.4h.2c2.3.5 4.3 1.7 6 3.4 2.3 2.4 3.6 5.5 3.6 8.9v2.5c0 1.4-1.1 2.5-2.5 2.5s-2.5-1.1-2.5-2.5V36c0-2-.8-3.9-2.2-5.3-1.4-1.4-3.2-2.2-5.1-2.2-1.9 0-3.8.8-5.1 2.2-1.4 1.4-2.2 3.3-2.2 5.3v2.5c0 1.4-1.1 2.5-2.5 2.5s-2.5-1.1-2.5-2.5V36c0-3.3 1.3-6.5 3.6-8.9 1.6-1.7 3.7-2.9 6-3.4h.2v-6.4l-.2-.1c-2.3-.5-4.3-1.7-6-3.4-2.3-2.4-3.6-5.5-3.6-8.9V2.6C10.8 1.2 12 0 13.4 0s2.5 1.1 2.5 2.5V5c0 2 .8 3.9 2.2 5.3 1.4 1.4 3.2 2.2 5.2 2.2 1.9 0 3.8-.8 5.1-2.2C29.8 8.9 30.6 7 30.6 5V2.6C30.5 1.2 31.6 0 33 0m-9.8 31c-2.7 0-4.9 2.2-4.9 4.9s2.2 4.9 4.9 4.9 4.9-2.2 4.9-4.9-2.2-4.9-4.9-4.9m21.9 31.2c.2.6 0 1.2-.6 1.5-.1.1-.3.1-.4.1-.5 0-.9-.3-1-.7l-.9-2.2h-5l-.9 2.2c-.2.6-.9.8-1.5.6-.6-.2-.8-.9-.6-1.5l4.4-10.6c.3-.6.7-.8 1.1-.8.5 0 .9.3 1.1.8l4.3 10.6zm-3.9-3.5l-1.6-3.8-1.6 3.8h3.2zm-17.4-1.3c0 3.3-1.8 6.5-5.8 6.5-1.9 0-3.4-.7-4.5-1.9-1-1.2-1.5-2.8-1.5-4.7 0-4.1 2.4-6.8 6-6.8 3.6.1 5.8 2.7 5.8 6.9m-2.4 0c0-2.9-1.1-4.4-3.4-4.4-3.1 0-3.6 2.8-3.6 4.4 0 1.3.3 2.4.9 3.1.6.7 1.5 1.1 2.7 1.1 2.5 0 3.4-2.2 3.4-4.2m12-6.6h-7.6c-.6 0-1.1.5-1.1 1.2 0 .6.5 1.2 1.1 1.2h2.6v9.5c0 .6.5 1.2 1.2 1.2.3 0 .6-.1.8-.3.2-.2.3-.5.3-.8v-9.5h2.7c.6 0 1.2-.5 1.2-1.2 0-.8-.6-1.3-1.2-1.3m-23.1.2c-.6-.3-1.3-.1-1.6.4l-2.9 5-2.9-5c-.3-.6-1-.7-1.6-.4-.6.3-.7 1-.4 1.6L4.7 59v3.6c0 .6.5 1.2 1.2 1.2.6 0 1.2-.5 1.2-1.2V59l3.7-6.5c.3-.5.1-1.2-.5-1.5"/></symbol><symbol viewBox="5 2 34 21" id="phone"><path class="aust0" d="M32 18v5H12v-5l4.5-8.1V7h4v2.5h3V7h4v2.8L32 18zm-5.5-7.8V8h-2v2.5h-5V8h-2v2.1L13 18v4h18v-4l-4.5-7.8z"/><path class="aust0" d="M35.4 3.9c-2.7-2.6-24.1-2.6-26.8 0C6.7 5.9 5.2 9 6 11c.4.9 1.3 2 4 2 2.9 0 4.5-1.5 4.5-4.1 0-2.3 3.8-3.6 7.5-3.6 2 0 3.9.3 5.3 1 1 .5 2.2 1.3 2.2 2.6 0 3.4 1.3 4.1 4.5 4.1 2.6 0 3.6-1.2 4-2 .9-2.1-.7-5.1-2.6-7.1zM10 12c-1.6 0-2.7-.5-3-1.4-.3-.6-.2-1.5.1-2.3 1.2.9 2.4 1.4 3.8 1.4.8 0 1.7-.2 2.6-.5C13.4 11 12.3 12 10 12zm17.7-6.7c-1.5-.7-3.5-1.1-5.7-1.1-3.7 0-7.6 1.2-8.4 3.7-2.4 1.1-4.2.9-6.1-.7.5-.9 1.1-1.8 1.9-2.4 2.2-2.2 23-2.2 25.3 0 .7.7 1.3 1.6 1.8 2.5-2.3 1.9-4.4 1.4-6.1.7-.4-1.2-1.2-2.1-2.7-2.7zm9.3 5.3c-.4.9-1.4 1.4-3 1.4-2.9 0-3.5-.5-3.5-2.8.8.3 1.7.5 2.6.5 1.2 0 2.5-.4 3.8-1.4.3.8.3 1.7.1 2.3z"/><path class="aust0" d="M21 12h2v2h-2zM18 12h2v2h-2zM24 12h2v2h-2zM21 15h2v2h-2zM18 15h2v2h-2zM24 15h2v2h-2zM21 18h2v2h-2zM18 18h2v2h-2zM24 18h2v2h-2z"/></symbol><symbol viewBox="0 0 60 64" id="project"><path class="avst0" d="M29.9 21.5c2.8 0 5-2.2 5-5s-2.2-5-5-5-5 2.2-5 5 2.2 5 5 5zm0-8c1.7 0 3 1.3 3 3s-1.3 3-3 3-3-1.3-3-3 1.3-3 3-3z"/><path class="avst0" d="M56.9 41c-1.3 0-2.4.8-2.8 2h-7.2l-9.8-21c1.2-1.5 1.9-3.4 1.9-5.5 0-3.9-2.5-7.2-6-8.5V2c0-1.1-.7-2-1.7-2h-2.7c-.9 0-1.7.9-1.7 2v6c-3.5 1.2-6 4.6-6 8.5 0 2.1.7 4 1.9 5.5L13 43H5.8c-.4-1.2-1.5-2-2.8-2-1.7 0-3 1.3-3 3s1.3 3 3 3c1.3 0 2.4-.8 2.8-2h6.3l-4.6 9.9C7 55.9 7 57 7.4 58c.2.7.7 1.2 1.2 1.7l-1.5 2.9c-.2.5 0 1.1.4 1.3.1.1.2.1.4.1.4 0 .7-.2.9-.6l1.5-2.9c.3.1.5.1.8.1 1.5 0 3-.9 3.6-2.3L20.9 45h6v1c0 1.1.9 2 2 2h2c1.1 0 2-.9 2-2v-1h6l6.2 13.3c.7 1.5 2.1 2.3 3.6 2.3.3 0 .5 0 .8-.1l1.5 2.9c.2.4.5.6.9.6.1 0 .3 0 .4-.1.5-.2.7-.8.4-1.3l-1.5-2.9c.5-.4.9-1 1.2-1.7.5-1 .4-2.1 0-3.1L47.8 45h6.3c.4 1.2 1.5 2 2.8 2 1.7 0 3-1.3 3-3s-1.3-3-3-3zm-28-39h2v5.6c-.3 0-.7-.1-1-.1s-.7 0-1 .1V2zm1 7.5c3.9 0 7 3.1 7 7s-3.1 7-7 7-7-3.1-7-7 3.1-7 7-7zm-17 47.9c-.2.5-.6.8-1.1 1-.5.2-1 .2-1.5-.1-.5-.2-.8-.6-1-1.1s-.2-1 .1-1.5l15-32.2c1 .8 2.3 1.4 3.6 1.8L12.9 57.4zm18-11.4h-2v-4h2v4zm2-3v-1c0-1.1-.9-2-2-2h-2c-1.1 0-2 .9-2 2v1h-5.1l8.1-17.4L38 43h-5.1zm17.7 14.3c-.2.5-.5.9-1 1.1s-1 .2-1.5.1c-.5-.2-.9-.5-1.1-1L32 25.3c1.3-.3 2.6-.9 3.6-1.8l15 32.2c.2.5.2 1.1 0 1.6z"/></symbol><symbol viewBox="0 0 14 20" id="social-facebook"><path class="awst0" d="M9 19v-7h3l1-4H9V6c0-.6.4-1 1-1h3V1.5S11 1 10 1 4 1 4 6v2H1v4h3v7h5z"/></symbol><symbol id="social-ok" viewBox="0 0 80 80"><style>.axst0{fill:#fff;stroke:red;stroke-width:2.961;stroke-miterlimit:10}</style><path class="axst0" d="M76 78H3.9c-1 0-1.9-.9-1.9-1.9V4c0-1 .9-1.9 1.9-1.9H76c1 0 1.9.9 1.9 1.9v72.1c0 1-.9 1.9-1.9 1.9z"/><path d="M72.9 33.9c0-2.5-1.8-4.1-4.3-4.2h-1.5v-.8-7.2c0-.7-.2-1.3-.7-1.8-4.5-5-8.9-10.1-13.4-15.1-.3-.4-.7-.7-1.1-1H16.1c-1.8.6-2.3 1.9-2.3 3.7v22.2h-1.5C9.8 29.8 8 31.4 8 34v20.8c0 2.5 1.7 4.2 4.3 4.2h1.5v13.5c0 1.8.5 3.1 2.3 3.7h48.7c1.8-.6 2.3-1.9 2.3-3.7-.1-4.2 0-8.4 0-12.6V59h1.5c2.6 0 4.3-1.7 4.3-4.2.1-7 .1-13.9 0-20.9zM16.7 6.8H50v14c0 1.4.5 1.9 1.9 1.9H64v7H16.6c.1-7.7.1-15.3.1-22.9zm38.9 30.5c-.1-.3-.3-.4-.7-.4-.3 0-.6.1-.7.4-.1.3-.2.9-.2 2v10c0 .9.1 1.5.2 1.8.1.3.4.4.7.4.4 0 .7-.2.8-.5.1-.3.2-1 .2-2v-2.5h-1.1v-3.2h6.4v11.1h-3.4l-.5-1.4c-.4.6-.8 1.1-1.4 1.4-.6.3-1.2.5-2 .5-.9 0-1.8-.2-2.6-.7-.8-.4-1.4-1-1.8-1.6s-.7-1.3-.8-2.1c-.1-.7-.1-1.8-.1-3.2v-6.2c0-2 .1-3.4.3-4.3.2-.9.8-1.7 1.9-2.5 1-.8 2.4-1.1 4-1.1s2.9.3 4 1 1.7 1.4 2.1 2.3.5 2.2.5 3.9v.9h-5.5v-1.9c-.1-1.1-.1-1.8-.3-2.1zm-9.1-3.6l-2.8 20.8h-8.3l-3.2-20.8H38c.7 5.7 1.1 10.6 1.4 14.5.3-4 .6-7.6.9-10.7l.4-3.9h5.8zM23.4 51.1c.1.2.4.3.8.3s.6-.1.8-.4c.2-.3.3-.7.3-1.3 0-1.2-.2-2-.5-2.4-.3-.4-1.2-1-2.6-1.9-1.4-.9-2.3-1.5-2.7-1.9-.4-.4-.8-1-1.1-1.7-.3-.7-.4-1.6-.4-2.7 0-1.6.2-2.8.6-3.5s1.1-1.3 2-1.7c.9-.4 2-.6 3.3-.6 1.4 0 2.6.2 3.6.7 1 .5 1.7 1 2 1.7s.5 1.9.5 3.5v.8h-5.1v-1.5c0-.7-.1-1.2-.2-1.4-.1-.2-.3-.3-.6-.3s-.6.1-.7.4-.4.6-.4 1.1c0 .7.1 1.2.3 1.6.2.3.7.8 1.5 1.3 2.4 1.4 4 2.6 4.6 3.5s.9 2.4.9 4.4c0 1.5-.2 2.6-.5 3.3-.3.7-1 1.3-2 1.8s-2.2.7-3.5.7c-1.5 0-2.7-.3-3.7-.8s-1.7-1.2-2-2.1c-.3-.9-.5-2.1-.5-3.6V47h5.1v2.5c-.1.9 0 1.4.2 1.6zm40 21.5h-46c-.4 0-.8 0-.8-.6V59.4 59H64V71.9c.2.6 0 .7-.6.7z"/></symbol><symbol viewBox="0 0 35 21" id="social-vk"><path class="ayst0" d="M4 1.7h3.2c.7 0 1.1.4 1.4 1 .4.9.7 1.7 1.1 2.5.7 1.4 1.5 2.7 2.5 4 .2.3.5.5.7.7.4.3.8.1.9-.3.2-.5.3-1 .3-1.6V5.7c0-.5 0-1-.1-1.5 0-.2-.1-.4-.1-.7-.2-.5-.6-.8-1.1-1-.1 0-.2 0-.3-.1-.2-.1-.3-.2-.2-.4.1-.2.2-.3.4-.5.3-.3.8-.4 1.2-.5h4c.5 0 1 0 1.5.1.7.1 1.1.6 1.2 1.2.1.7 0 1.5 0 2.2v3.3c0 .5 0 1 .2 1.4 0 .1.1.3.2.4.2.3.5.4.8.2l.6-.6c1.4-1.6 2.5-3.3 3.3-5.2.2-.5.4-1 .6-1.4 0-.1.1-.2.1-.3.2-.4.5-.5.9-.5h5.5c.3 0 .5 0 .8.1.5.1.7.5.6 1-.2.9-.6 1.7-1.1 2.4-.8 1.1-1.6 2.2-2.3 3.2-.4.6-.8 1.1-1.2 1.7-.3.3-.5.7-.6 1.1-.1.2 0 .5.1.7.2.2.4.5.6.7l2.1 2.1c.8.8 1.6 1.7 2.2 2.7.2.3.3.5.3.8.1.6-.3 1-.8 1.2-.2.1-.5.1-.7.1h-2.3c-.8 0-1.6 0-2.3-.1-.9 0-1.7-.4-2.4-1.1-.7-.7-1.4-1.5-2.1-2.2-.2-.3-.5-.5-.8-.7l-.6-.3c-.3 0-.5.1-.7.3-.2.2-.3.5-.4.9-.1.7-.2 1.3-.3 2-.1.6-.5 1-1.1 1.1-.7.1-1.4.1-2 0-.5 0-1-.1-1.6-.2-1.3-.2-2.6-.7-3.8-1.3-1.5-.9-2.7-2-3.7-3.3-1.2-1.5-2.3-3.1-3.2-4.7-1.6-2.3-2.7-4.6-3.8-7-.1-.2-.1-.5-.1-.7.1-.4.3-.5.7-.5h.9c.2-.1.5-.1.8-.1z"/></symbol><symbol viewBox="0 0 112 64" id="team"><path d="M56 32c-8.8 0-16-7.2-16-16S47.2 0 56 0s16 7.2 16 16-7.2 16-16 16zm0-30c-7.7 0-14 6.3-14 14s6.3 14 14 14 14-6.3 14-14S63.7 2 56 2zM80.1 64H31.9c-2.2 0-4.2-1-5.6-2.8s-1.8-4-1.2-6.1l3.2-11.7c.6-2.1 2-3.7 3.9-4.6l14-6.1.5.5s3.9 3.7 9.3 3.7c5.5 0 9.3-3.7 9.3-3.7l.5-.5 14 6.1c1.9.9 3.4 2.5 3.9 4.6l3.2 11.7c.6 2.1.1 4.3-1.2 6.1S82.3 64 80.1 64zM45.8 35.2L33 40.8c-1.4.6-2.4 1.8-2.8 3.3L27 55.7c-.4 1.5-.1 3.1.9 4.4 1 1.2 2.4 2 4 2h48.3c1.6 0 3-.7 4-2 1-1.2 1.3-2.8.9-4.4L81.8 44c-.4-1.5-1.4-2.7-2.8-3.3l-12.8-5.6C64.9 36.3 61.1 39 56 39s-8.9-2.7-10.2-3.8zM21 31c-6.1 0-11-4.9-11-11S14.9 9 21 9s11 4.9 11 11-4.9 11-11 11zm0-20c-5 0-9 4-9 9s4 9 9 9 9-4 9-9-4-9-9-9z"/><path d="M23.4 53H5c-1.5 0-3-.7-3.9-1.9s-1.3-2.7-1-4.2L2 38.8c.3-1.3 1-3 2.6-3.7l9.6-4.3.5.5S17.4 34 21 34c3.6 0 6.3-2.7 6.3-2.7l.5-.5 8.2 3.5-2.6 1.1-5.2-2.2c-1.1.9-3.7 2.8-7.2 2.8-3.4 0-6.1-1.9-7.2-2.8l-8.4 3.7c-.6.3-1.1 1-1.4 2.3l-1.9 8.1c-.2.9 0 1.8.6 2.5.6.8 1.4 1.2 2.3 1.2h19l-.6 2z"/><g><path d="M80 20c0-6.1 4.9-11 11-11s11 4.9 11 11-4.9 11-11 11-11-4.9-11-11zm2 0c0 5 4 9 9 9s9-4 9-9-4-9-9-9-9 4-9 9z"/><path d="M88.6 53H107c1.5 0 3-.7 3.9-1.9s1.3-2.7 1-4.2l-1.9-8.1c-.3-1.3-1-3-2.6-3.7l-9.6-4.3-.5.5S94.6 34 91 34c-3.6 0-6.3-2.7-6.3-2.7l-.5-.5-8.2 3.5 2.6 1.1 5.2-2.2c1.1.9 3.7 2.8 7.2 2.8 3.4 0 6.1-1.9 7.2-2.8l8.4 3.7c.6.3 1.1 1 1.4 2.3l1.9 8.1c.2.9 0 1.8-.6 2.5s-1.4 1.1-2.3 1.1H88l.6 2.1z"/></g></symbol><symbol viewBox="0 0 64 64" id="technology"><path d="M62.5 55.5l-15-15 .7-.7c.4-.4.4-1 0-1.4s-1-.4-1.4 0l-.7.7-2.8 2.8-7.6-7.6-1.4 1.4 7.6 7.6-2.8 2.8-.7.7c-.4.4-.4 1 0 1.4.2.2.5.3.7.3s.5-.1.7-.3l.7-.7 15 15c1 1 2.3 1.5 3.5 1.5s2.6-.5 3.5-1.5c2-1.9 2-5.1 0-7zm-1.4 5.6c-1.2 1.2-3.1 1.2-4.2 0l-15-15 4.2-4.2 15 15c1.2 1.2 1.2 3.1 0 4.2zM9.4 5.1L5.1.9.9 5.1l4.2 4.2c.6.6 1.4.9 2.1.9.4 0 .9-.1 1.3-.3l19.8 19.8 1.4-1.4L9.9 8.5c.6-1.1.4-2.4-.5-3.4zM6.5 8L3.7 5.1l1.4-1.4L8 6.5c.4.4.4 1 0 1.4-.4.4-1.1.4-1.5.1z"/><path d="M62.1 6.1l-1.5 1.5-5.4 5.4H51V8.8l5.7-5.7 1.2-1.2C53.3-.8 47.3-.2 43.3 3.7 41 6 39.8 9 39.8 12.2c0 1.4.3 2.8.8 4.2L16.4 40.6c-1.3-.5-2.7-.8-4.2-.8C9 39.8 6 41 3.7 43.3c-3.9 3.9-4.6 10-1.8 14.6L3 56.7 8.8 51H13v4.2L7.6 61l-1.5 1.3c1.8 1.1 3.9 1.6 6.1 1.6 3.2 0 6.2-1.3 8.5-3.6 3.4-3.4 4.3-8.4 2.7-12.7l24.2-24.2c1.3.5 2.7.8 4.2.8 3.1 0 6.1-1.2 8.5-3.5 2.3-2.3 3.5-5.3 3.5-8.5 0-2.2-.6-4.3-1.7-6.1zm-3.2 13.2c-3.2 3.2-7.9 3.8-11.7 1.8l-1.5 1.5-23.2 23.1-1.5 1.5c2 3.8 1.4 8.5-1.8 11.7-1.9 1.9-4.4 2.9-7.1 2.9-.9 0-1.7-.1-2.6-.3l5.1-5.1.3-.3V49h-7l-2 2-3.4 3.4c-.9-3.3 0-7 2.6-9.7 1.9-1.9 4.4-2.9 7.1-2.9 1.6 0 3.2.4 4.6 1.1l1.5-1.5 23.2-23.2 1.5-1.5c-.7-1.4-1.1-3-1.1-4.6 0-2.7 1-5.2 2.9-7.1 1.9-1.9 4.5-2.9 7.1-2.9.9 0 1.7.1 2.6.3L51 5.9l-2 2V15h7.1l.3-.3 5.1-5.1c.2.8.3 1.7.3 2.6 0 2.7-1 5.2-2.9 7.1z"/></symbol><symbol viewBox="-19 0 45 64" id="teplosnab"><path d="M1.3 14.3c-.4.4-.4 1 0 1.4.2.2.4.3.7.3s.5-.1.7-.3c3-3 1.4-5.8.1-7.7-1.4-2.2-2-3.4-.1-5.3.4-.4.4-1 0-1.4s-1-.4-1.4 0c-3 3-1.4 5.8-.1 7.7 1.3 2.2 1.9 3.5.1 5.3zM8.7 14.3c-.4.4-.4 1 0 1.4.2.2.5.3.7.3s.5-.1.7-.3c3-3 1.4-5.8.1-7.7-1.4-2.2-2-3.4-.1-5.3.4-.4.4-1 0-1.4s-1-.4-1.4 0c-3 3-1.3 5.7-.1 7.7 1.3 2.2 2 3.5.1 5.3zM-6.1 14.3c-.4.4-.4 1 0 1.4.2.2.5.3.7.3s.5-.1.7-.3c3-3 1.4-5.8.1-7.7-1.4-2.2-2-3.4-.1-5.3.4-.4.4-1 0-1.4s-1-.4-1.4 0c-3 3-1.4 5.8-.1 7.7 1.3 2.2 1.9 3.5.1 5.3zM26 32V22h-1c0-1.1-.9-2-2-2h-6c-1.1 0-2 .9-2 2h-1c0-1.1-.9-2-2-2H6c-1.1 0-2 .9-2 2H3c0-1.1-.9-2-2-2h-6c-1.1 0-2 .9-2 2h-1c0-1.1-.9-2-2-2h-6c-1.1 0-2 .9-2 2h-1v10h1v20h-1v10h1c0 1.1.9 2 2 2h6c1.1 0 2-.9 2-2h1c0 1.1.9 2 2 2h6c1.1 0 2-.9 2-2h1c0 1.1.9 2 2 2h6c1.1 0 2-.9 2-2h1c0 1.1.9 2 2 2h6c1.1 0 2-.9 2-2h1V52h-1V32h1zm-12 0h1v20h-1V32zm1-8v6h-1v-6h1zM3 32h1v20H3V32zm1-8v6H3v-6h1zm-12 8h1v20h-1V32zm1-8v6h-1v-6h1zm-3 38h-6V22h6v40zm2-2v-6h1v6h-1zm9 2h-6V22h6v40zm2-2v-6h1v6H3zm3 2V22h6v40H6zm8-2v-6h1v6h-1zm9 2h-6V22h6v40z"/></symbol><symbol viewBox="0 0 53 64" id="vodsnab"><path d="M51 6h-4c-1.1 0-2 .9-2 2v5h-7.3c-1.2-1.4-2.8-2.3-4.7-2.8V7.4c.6-.3 1-.8 1.4-1.3l4.8 1.2c.3.1.5.1.8.1.6 0 1.3-.2 1.8-.6.8-.6 1.2-1.5 1.2-2.4v-.8c0-.9-.4-1.8-1.2-2.4-.8-.6-1.7-.8-2.6-.5l-4.9 1.2C33.7.8 32.4 0 31 0s-2.7.8-3.4 1.9L22.8.7c-.9-.2-1.9-.1-2.6.5-.8.6-1.2 1.5-1.2 2.4v.8c0 .9.4 1.8 1.2 2.4.5.4 1.2.6 1.8.6.3 0 .5 0 .8-.1l4.9-1.2c.3.5.8 1 1.4 1.3v2.8c-1.8.4-3.5 1.4-4.7 2.8H19c-8.3 0-15 6.7-15 15v6h12v-4c0-2.8 2.2-5 5-5h3.3c1.6 1.8 4 3 6.7 3s5-1.2 6.7-3H45v5c0 1.1.9 2 2 2h4c1.1 0 2-.9 2-2V8c0-1.1-.9-2-2-2zM39.7 2.7c.3-.1.6 0 .9.2.3.1.4.4.4.7v.8c0 .3-.1.6-.4.8-.3.2-.6.3-.9.2L35 4.2V4v-.2l4.7-1.1zM31 2c1.1 0 2 .9 2 2s-.9 2-2 2-2-.9-2-2 .9-2 2-2zm-8.7 3.3c-.3.1-.6 0-.9-.2-.3-.1-.4-.4-.4-.7v-.8c0-.3.1-.6.4-.8.2-.2.6-.3.9-.2L27 3.8v.4l-4.7 1.1zM21 23c-3.9 0-7 3.1-7 7v2H6v-4c0-7.2 5.8-13 13-13h3.9c-.6 1.2-.9 2.6-.9 4s.3 2.8.9 4H21zm10 3c-3.9 0-7-3.1-7-7s3.1-7 7-7 7 3.1 7 7-3.1 7-7 7zm8.1-3c.6-1.2.9-2.6.9-4s-.3-2.8-.9-4H45v8h-5.9zM51 30h-4V8h4v22zM10 36.4l-.8 1C8.3 38.5 0 48.8 0 54c0 5.5 4.5 10 10 10s10-4.5 10-10c0-5.2-8.3-15.5-9.2-16.6l-.8-1zM10 62c-4.4 0-8-3.6-8-8 0-3.4 5.2-10.8 8-14.4 2.8 3.6 8 11 8 14.4 0 4.4-3.6 8-8 8z"/></symbol><symbol viewBox="0 0 64 64" id="zdanie-obshchestvennoe"><path d="M32 .5L0 9.7V16h3v48h58V16h3V9.7L32 .5zM5 16h6v38H5V16zm54 0v38h-6V16h6zm-8 38h-6V16h6v38zm-8 0h-6V16h6v38zm-8 0h-6V16h6v38zm-8 0h-6V16h6v38zm-8 0h-6V16h6v38zM5 56h54v2H5v-2zm0 6v-2h54v2H5zm57-48H2v-2.7l30-8.7 30 8.7V14z"/><path d="M7 17h2v36H7zM23 17h2v36h-2zM39 17h2v36h-2zM55 17h2v36h-2zM27.5 9c0 2.5 2 4.5 4.5 4.5s4.5-2 4.5-4.5-2-4.5-4.5-4.5-4.5 2-4.5 4.5zm7 0c0 1.4-1.1 2.5-2.5 2.5s-2.5-1.1-2.5-2.5 1.1-2.5 2.5-2.5 2.5 1.1 2.5 2.5z"/></symbol><symbol viewBox="0 0 64 64" id="zdanie-proizvodstvennoe"><path d="M61 64H3V16H0V9.7L32 .4l32 9.3V16h-3v48zM5 62h54V14h3v-2.7L32 2.5 2 11.3V14h3v48z"/><path d="M17 20H8v-6h9v6zm-7-2h5v-2h-5v2zM30 20h-9v-6h9v6zm-7-2h5v-2h-5v2zM43 20h-9v-6h9v6zm-7-2h5v-2h-5v2zM56 20h-9v-6h9v6zm-7-2h5v-2h-5v2zM56 62h-2V25H10v37H8V23h48z"/><path d="M23 61H11v-8h12v8zm-10-2h8v-4h-8v4zM36 61H24v-8h12v8zm-10-2h8v-4h-8v4zM49 61H37v-8h12v8zm-10-2h8v-4h-8v4zM23 52H11v-8h12v8zm-10-2h8v-4h-8v4zM36 52H24v-8h12v8zm-10-2h8v-4h-8v4zM23 43H11v-8h12v8zm-10-2h8v-4h-8v4z"/></symbol><symbol viewBox="0 0 64 64" id="zdanie-zhiloe"><path d="M32 .5L0 9.7V16h3v48h58V16h3V9.7L32 .5zM28 62V41h8v21h-8zm34-48h-3v48H38V41c0-1.1-.9-2-2-2h-8c-1.1 0-2 .9-2 2v21H5V14H2v-2.7l30-8.7 30 8.7V14z"/><path d="M19 17h-8c-1.1 0-2 .9-2 2v10c0 1.1.9 2 2 2h8c1.1 0 2-.9 2-2V19c0-1.1-.9-2-2-2zm-8 12V19h8v10h-8zM26 19v10c0 1.1.9 2 2 2h8c1.1 0 2-.9 2-2V19c0-1.1-.9-2-2-2h-8c-1.1 0-2 .9-2 2zm10 10h-8V19h8v10zM45 31h8c1.1 0 2-.9 2-2V19c0-1.1-.9-2-2-2h-8c-1.1 0-2 .9-2 2v10c0 1.1.9 2 2 2zm0-12h8v10h-8V19zM45 53h8c1.1 0 2-.9 2-2V41c0-1.1-.9-2-2-2h-8c-1.1 0-2 .9-2 2v10c0 1.1.9 2 2 2zm0-12h8v10h-8V41zM19 39h-8c-1.1 0-2 .9-2 2v10c0 1.1.9 2 2 2h8c1.1 0 2-.9 2-2V41c0-1.1-.9-2-2-2zm-8 12V41h8v10h-8z"/></symbol></svg>