<?xml version="1.0" standalone="no"?>
<!DOCTYPE svg PUBLIC "-//W3C//DTD SVG 20010904//EN"
 "http://www.w3.org/TR/2001/REC-SVG-20010904/DTD/svg10.dtd">
<svg version="1.0" xmlns="http://www.w3.org/2000/svg"
 width="16.000000pt" height="16.000000pt" viewBox="0 0 16.000000 16.000000"
 preserveAspectRatio="xMidYMid meet">
<metadata>
Created by potrace 1.11, written by Peter Selinger 2001-2013
</metadata>
<g transform="translate(0.000000,16.000000) scale(0.001893,-0.001893)"
fill="#000000" stroke="none">
<path d="M1145 6738 c-616 -672 -1126 -1231 -1134 -1243 -13 -21 -4 -36 147
-247 l161 -225 113 -31 c62 -17 150 -41 196 -53 l82 -22 1 -51 c0 -28 2 -71 4
-96 2 -40 9 -189 20 -455 9 -194 16 -354 20 -440 3 -49 7 -151 10 -225 3 -74
7 -178 10 -230 2 -52 7 -178 10 -280 8 -240 33 -877 42 -1048 6 -132 6 -134
32 -143 14 -5 35 -14 46 -19 11 -5 171 -69 355 -143 184 -73 344 -137 355
-142 11 -4 22 -9 25 -10 3 -1 16 -6 30 -12 14 -6 83 -34 154 -62 l129 -52 91
36 91 35 35 -42 c158 -193 397 -314 610 -309 81 2 98 6 287 77 l173 64 108
-41 c59 -23 110 -45 114 -48 5 -4 10 -90 13 -191 3 -101 8 -187 13 -190 4 -4
59 -27 122 -52 63 -25 287 -114 497 -198 325 -129 387 -151 415 -145 34 8 457
191 471 204 10 10 11 16 33 186 11 91 25 192 30 218 4 21 18 34 55 52 l49 25
57 -21 c32 -11 83 -29 113 -39 148 -50 316 -112 324 -120 9 -9 41 4 311 124
161 72 170 77 167 102 -3 22 0 25 17 20 12 -3 29 -8 39 -11 16 -5 393 154 414
173 4 4 10 83 13 177 3 93 7 170 8 171 1 1 102 -31 224 -72 l221 -73 499 220
c274 121 503 225 509 232 7 7 14 72 18 162 3 83 9 225 12 318 5 123 4 167 -4
168 -14 2 -30 6 -37 9 -3 1 -8 3 -12 4 -5 2 -28 8 -53 15 -25 7 -49 14 -55 16
-5 1 -17 5 -25 8 -8 3 -40 13 -70 21 -30 7 -94 26 -143 40 -48 14 -89 26 -91
26 -7 0 4 234 12 241 4 3 117 48 252 99 135 51 248 96 252 99 4 4 12 98 18
211 5 113 13 242 16 287 5 82 2 90 -33 98 -10 2 -120 29 -246 61 l-227 57 2
92 2 91 262 88 262 87 6 92 c3 51 11 200 17 331 l11 239 48 116 c27 64 78 186
113 272 l64 157 -66 60 c-36 33 -126 119 -200 191 -73 72 -137 131 -142 131
-5 0 -9 5 -9 11 0 7 -10 20 -22 31 -13 11 -135 129 -273 263 -137 133 -272
264 -300 290 -27 26 -178 172 -334 324 -157 152 -299 290 -316 306 -18 17 -70
67 -116 112 l-84 81 -235 31 c-129 17 -247 34 -261 37 -23 4 -39 -11 -169
-171 -78 -97 -145 -173 -148 -170 -3 2 -49 96 -102 207 l-97 202 -251 35 -252
34 -139 -132 c-136 -129 -140 -131 -152 -109 -7 13 -45 86 -85 163 l-73 140
-533 72 c-418 57 -535 70 -544 60 -6 -6 -57 -65 -114 -129 -57 -65 -106 -118
-109 -118 -3 0 -37 57 -74 125 -74 135 -100 162 -182 190 -44 15 -726 115
-780 115 -14 -1 -374 -387 -1140 -1222z"/>
</g>
</svg>
