<?xml version="1.0" encoding="utf-8"?>
<!-- Generator: Adobe Illustrator 19.0.1, SVG Export Plug-In . SVG Version: 6.00 Build 0)  -->
<svg version="1.1" id="Слой_2" xmlns="http://www.w3.org/2000/svg" xmlns:xlink="http://www.w3.org/1999/xlink" x="0px" y="0px"
	 viewBox="-16 0 64 64" style="enable-background:new -16 0 64 64;" xml:space="preserve">
<g>
	<path d="M46,38h-4c-1.1,0-2,0.9-2,2v6.6l-6-3.5c0,0,0-0.1,0-0.1c0-3.3-2.7-6-6-6c-0.2,0-0.4,0-0.6,0L23.9,31l14.6-8.4
		c0.7-0.4,1.2-1,1.4-1.8c0.2-0.8,0.1-1.6-0.3-2.3l-4.5-7.8l0.9-0.5c0.7-0.4,1.2-1,1.4-1.8c0.2-0.8,0.1-1.6-0.3-2.3L33.6,0
		l-49.2,28.4l12.9,3.4l4.8,8.3c0.4,0.7,1,1.2,1.8,1.4c0.3,0.1,0.5,0.1,0.8,0.1c0.5,0,1-0.1,1.5-0.4L18.7,34l3.8,6.5l0.1-0.1
		C22.2,41.2,22,42.1,22,43c0,3.3,2.7,6,6,6c1.1,0,2-0.3,2.9-0.8l9.1,5.3V62c0,1.1,0.9,2,2,2h4c1.1,0,2-0.9,2-2V40
		C48,38.9,47.1,38,46,38z M-10.4,27.7l43.3-25L35.3,7c0.1,0.2,0.2,0.5,0.1,0.8S35.2,8.3,35,8.4l-2.6,1.5l0,0l-34.6,20L-10.4,27.7z
		 M5.2,39.5c-0.2,0.1-0.5,0.2-0.8,0.1c-0.3-0.1-0.5-0.2-0.6-0.5l-4.5-7.8l34.1-19.7l4.5,7.8c0.1,0.2,0.2,0.5,0.1,0.8
		s-0.2,0.5-0.5,0.6L5.2,39.5z M20.5,33.1l1.7-1l3.2,5.5c-0.6,0.3-1.2,0.7-1.6,1.2L20.5,33.1z M24,43c0-2.2,1.8-4,4-4s4,1.8,4,4
		s-1.8,4-4,4S24,45.2,24,43z M32.6,46.9c0.4-0.5,0.8-1.1,1-1.7l6.4,3.7v2.3L32.6,46.9z M42,62V40h4l0,22H42z"/>
	<polygon points="-5.1,39.6 -10.1,31 -11.9,32 -5.9,42.4 -0.7,39.4 -1.7,37.6 	"/>
</g>
</svg>
