<?xml version="1.0" encoding="utf-8"?>
<!-- Generator: Adobe Illustrator 19.0.1, SVG Export Plug-In . SVG Version: 6.00 Build 0)  -->
<svg version="1.1" id="Слой_3" xmlns="http://www.w3.org/2000/svg" xmlns:xlink="http://www.w3.org/1999/xlink" x="0px" y="0px"
	 viewBox="-12 0 40 64" style="enable-background:new -12 0 40 64;" xml:space="preserve">
<g>
	<path d="M21.3,28.9C19.1,26,17,23.3,17,21c0-0.6-0.4-1-1-1s-1,0.4-1,1c0,3,2.3,6,4.8,9.1C22.7,33.8,26,38,26,43
		c0,10.1-8.4,19-18,19s-18-8.9-18-19c0-5.5,3.4-9.7,6.4-13.3c2.3-2.8,4.2-5.2,4.6-7.9L16.2,18c0.5-0.1,0.9-0.7,0.7-1.2
		c-0.1-0.5-0.7-0.9-1.2-0.7L-1,20.2V21c0,2.2-1.9,4.6-4.2,7.4c-3,3.7-6.8,8.4-6.8,14.6c0,11.4,9.2,21,20,21s20-9.6,20-21
		C28,37.3,24.5,32.8,21.3,28.9z"/>
	<path d="M0,17c0.1,0,0.2,0,0.2,0l16-4c0.5-0.1,0.9-0.7,0.7-1.2c-0.1-0.5-0.7-0.9-1.2-0.7l-16,4c-0.5,0.1-0.9,0.7-0.7,1.2
		C-0.9,16.7-0.4,17,0,17z"/>
	<path d="M0,12c0.1,0,0.2,0,0.2,0l16-4c0.5-0.1,0.9-0.7,0.7-1.2c-0.1-0.5-0.7-0.9-1.2-0.7l-16,4c-0.5,0.1-0.9,0.7-0.7,1.2
		C-0.9,11.7-0.4,12,0,12z"/>
	<path d="M2.7,4.9c0.5,0.2,1.1-0.1,1.3-0.6C4,4.2,4.8,2,8,2c3.2,0,4,2.2,4.1,2.3C12.2,4.7,12.6,5,13,5c0.1,0,0.2,0,0.3-0.1
		c0.5-0.2,0.8-0.7,0.6-1.3C13.9,3.5,12.6,0,8,0C3.3,0,2.1,3.5,2,3.7C1.9,4.2,2.2,4.8,2.7,4.9z"/>
	<path d="M6,23c-0.6,0-1,0.4-1,1c0,6-1,10.7-2.8,13.4l-0.5,0.7l0.6,0.6C2.5,38.9,2.6,39,2.8,39c0.5,0,1.6-0.7,5.2-2.9
		c5.1,3.2,5.1,3.1,5.7,2.5l0.6-0.6l-0.5-0.7C12,34.8,11,29.9,11,24c0-0.6-0.4-1-1-1s-1,0.4-1,1c0,4.5,0.6,8.5,1.7,11.5
		C10,35,9.2,34.6,8.5,34.1L8,33.8l-0.5,0.3C6.8,34.6,6,35,5.4,35.4C6.4,32.5,7,28.6,7,24C7,23.4,6.6,23,6,23z"/>
</g>
</svg>
