<?xml version="1.0" encoding="utf-8"?>
<!-- Generator: Adobe Illustrator 19.0.1, SVG Export Plug-In . SVG Version: 6.00 Build 0)  -->
<svg version="1.1" id="Слой_2" xmlns="http://www.w3.org/2000/svg" xmlns:xlink="http://www.w3.org/1999/xlink" x="0px" y="0px"
	 viewBox="0 0 94 64" style="enable-background:new 0 0 94 64;" xml:space="preserve">
<path d="M13.6,59.6L9,44v-9.7l10,5.8V47c0,9.5,12.3,16.9,28.1,16.9C62.7,63.9,75,56.5,75,47v-6.8l16.7-9.7c1.2-0.7,1.9-1.8,1.9-2.9
	s-0.7-2.2-1.9-2.9L51,1.3c-2.2-1.3-5.7-1.3-7.9,0L2.4,24.8c-1.2,0.7-1.9,1.8-1.9,2.9s0.7,2.2,1.9,2.9L7,33.2V44L2.4,59.6
	c-0.2,0.8,0.2,1.6,1,1.8l0.5,0.2c2.7,0.9,5.6,0.9,8.3,0l0.5-0.2C13.4,61.2,13.8,60.4,13.6,59.6z M11.5,60.1l-0.3,0.1
	c-2.1,0.5-4.3,0.5-6.4,0l-0.3-0.1c-0.3-0.1-0.4-0.4-0.4-0.6L8,47.4l3.8,12.1C11.9,59.8,11.8,60.1,11.5,60.1z M73,47
	c0,8.2-11.6,14.9-25.9,14.9C32.7,61.9,21,55.2,21,47v-5.7l22.6,13c1,0.6,2.2,0.9,3.5,0.9c1.3,0,2.5-0.3,3.5-0.9L73,41.4V47z
	 M90.7,28.8L49.6,52.6c-1.3,0.8-3.7,0.8-5,0L10.1,32.6l34-6.1c0.7,0.6,1.7,1,2.9,1c2.1,0,3.8-1.2,3.8-2.8S49.1,22,47,22
	c-2.1,0-3.8,1.2-3.8,2.7L7.4,31.1l-4-2.3c-0.6-0.3-0.9-0.8-0.9-1.1s0.3-0.8,0.9-1.1L44.1,3c0.8-0.5,1.9-0.7,3-0.7s2.2,0.2,3,0.7
	l40.7,23.5c0.6,0.3,0.9,0.8,0.9,1.1S91.3,28.5,90.7,28.8z"/>
</svg>
