<?xml version="1.0" encoding="utf-8"?>
<!-- Generator: Adobe Illustrator 19.0.1, SVG Export Plug-In . SVG Version: 6.00 Build 0)  -->
<svg version="1.1" id="Слой_1" xmlns="http://www.w3.org/2000/svg" xmlns:xlink="http://www.w3.org/1999/xlink" x="0px" y="0px"
	 viewBox="0 0 64 64" style="enable-background:new 0 0 64 64;" xml:space="preserve">
<g>
	<path d="M32,0.5L0,9.7V16h3v48h58V16h3V9.7L32,0.5z M62,14h-3v48H5V14H2v-2.7l30-8.7l30,8.7V14z"/>
	<path d="M20,38h-2v0c-1-1-1.8-1.7-3-1.9V35h3c1.1,0,2-0.9,2-2v-1c0-1.1-0.9-2-2-2h-8c-1.1,0-2,0.9-2,2v1c0,1.1,0.9,2,2,2h3v1.1
		c-1.2,0.3-2.3,1-3,1.9v0H7v2h2.1H10h1.2c0.4-1.2,1.5-2,2.8-2s2.4,0.8,2.8,2H18h0.9H20c2.8,0,5,2.2,5,5v2h-2v-2c0-1.7-1.3-3-3-3
		h-1.1H18h-1.2c-0.4,1.2-1.5,2-2.8,2s-2.4-0.8-2.8-2H10H9.1H7v2h3v0c0.9,1.2,2.4,2,4,2c1.6,0,3-0.8,4-2v0h2c0.6,0,1,0.4,1,1v4h6v-4
		C27,41.1,23.9,38,20,38z M10,32h8l0,1h-8V32z"/>
	<path d="M42,60c0.8,0,1.5-0.3,2-0.8c0.5,0.5,1.2,0.8,2,0.8s1.5-0.3,2-0.8c0.5,0.5,1.2,0.8,2,0.8s1.5-0.3,2-0.8
		c0.5,0.5,1.2,0.8,2,0.8c1.7,0,3-1.3,3-3V43c0-1.7-1.3-3-3-3c-0.8,0-1.5,0.3-2,0.8c-0.5-0.5-1.2-0.8-2-0.8s-1.5,0.3-2,0.8
		c-0.5-0.5-1.2-0.8-2-0.8s-1.5,0.3-2,0.8c-0.5-0.5-1.2-0.8-2-0.8c-1.7,0-3,1.3-3,3v14C39,58.7,40.3,60,42,60z M54,42
		c0.6,0,1,0.4,1,1v14c0,0.6-0.4,1-1,1s-1-0.4-1-1V43C53,42.4,53.4,42,54,42z M50,42c0.6,0,1,0.4,1,1v14c0,0.6-0.4,1-1,1s-1-0.4-1-1
		V43C49,42.4,49.4,42,50,42z M46,42c0.6,0,1,0.4,1,1v14c0,0.6-0.4,1-1,1s-1-0.4-1-1V43C45,42.4,45.4,42,46,42z M41,43
		c0-0.6,0.4-1,1-1s1,0.4,1,1v14c0,0.6-0.4,1-1,1s-1-0.4-1-1V43z"/>
	<path d="M50,35h4c1.7,0,3-1.3,3-3v-8c0-1.7-1.3-3-3-3h-4c-1.7,0-3,1.3-3,3v8C47,33.7,48.3,35,50,35z M49,24c0-0.6,0.4-1,1-1h4
		c0.6,0,1,0.4,1,1v8c0,0.6-0.4,1-1,1h-4c-0.6,0-1-0.4-1-1V24z"/>
	<path d="M53,32c0.6,0,1-0.4,1-1v-6c0-0.6-0.4-1-1-1s-1,0.4-1,1v6C52,31.6,52.4,32,53,32z"/>
	<path d="M35,12l-6,0v1.6c0,1.2-0.4,2.3-1.2,3.2C27.4,17.3,26,19,26,21c0,1.8,0.8,3.5,2.2,4.7c1.1,0.9,2.4,1.3,3.8,1.3
		c0.4,0,0.8,0,1.3-0.1c2.4-0.5,4.2-2.4,4.6-4.8c0.3-1.9-0.8-4.1-1.8-5.3c-0.7-0.8-1.1-2-1.1-3.1V12z M35.9,21.7
		c-0.3,1.6-1.5,2.9-3.1,3.2c-1.2,0.3-2.4,0-3.4-0.8C28.5,23.3,28,22.2,28,21c0-0.8,0.5-2,1.3-2.9c1-1.1,1.6-2.6,1.7-4.1l2,0
		c0.1,1.5,0.6,2.9,1.6,4C35.4,19,36.1,20.5,35.9,21.7z"/>
	<path d="M29,9v2h6V9c0-1.7-1.3-3-3-3S29,7.3,29,9z M33,9h-2c0-0.6,0.4-1,1-1S33,8.4,33,9z"/>
</g>
</svg>
