<?xml version="1.0" encoding="utf-8"?>
<!-- Generator: Adobe Illustrator 19.0.1, SVG Export Plug-In . SVG Version: 6.00 Build 0)  -->
<svg version="1.1" id="Слой_1" xmlns="http://www.w3.org/2000/svg" xmlns:xlink="http://www.w3.org/1999/xlink" x="0px" y="0px"
	 viewBox="0 20 64 25" style="enable-background:new 0 20 64 25;" xml:space="preserve">
<style type="text/css">
	.st0{fill:#FFFFFF;}
</style>
<g>
	<path class="st0" d="M25,37.1v3.5c0,2.4-1.6,4-4.5,4H4.1c-2.5,0-4.1-1.5-4.1-4v-3.5h0.8c1.8,0,3.4-1.3,3.4-3v-3.2
		c0-1.7-1.5-3-3.4-3H0v-3.5c0-2.4,1.6-4,4.1-4h16.4c2.5,0,4.5,1.5,4.5,4v3.5h-0.8c-1.8,0-3.4,1.3-3.4,3v3c0,1.7,1.5,3.2,3.4,3.2
		L25,37.1L25,37.1z M19.2,30.9c0-3-2.6-5.5-5.8-5.5h-1.7c-3.2,0-5.8,2.4-5.8,5.5v5.7c0,3,2.6,5.5,5.8,5.5h1.7c3.2,0,5.8-2.5,5.8-5.5
		V30.9z"/>
	<path class="st0" d="M13.5,41.3h-1.9c-2.6,0-4.9-2.2-4.9-4.7v-5.7c0-2.5,2.2-4.6,4.8-4.6h1.9c2.6,0,4.9,2.1,4.9,4.6v5.7
		C18.3,39.1,16.1,41.3,13.5,41.3L13.5,41.3z M16.6,30.8c0-1.6-1.5-2.9-3.3-2.9h-1.7c-1.8,0-3.3,1.2-3.3,2.9v3.5
		c0,1.6,1.5,2.9,3.3,2.9h1.7c1.8,0,3.3-1.2,3.3-2.9V30.8z"/>
	<path class="st0" d="M12.1,36.3L12.1,36.3c-1.8,0-2.9-0.9-2.9-2.6v-1.1c0,0,0-0.4,0.4-0.4s0.4,0.4,0.4,0.4v1.1c0,1.3,0.8,1.8,2,1.8
		h0.1c0,0,0.4,0,0.4,0.4C12.5,36.3,12.1,36.3,12.1,36.3L12.1,36.3z"/>
</g>
<g>
	<path class="st0" d="M29.45,35.25l-0.07-0.68h-0.03c-0.28,0.42-0.82,0.8-1.54,0.8c-1.02,0-1.54-0.76-1.54-1.54
		c0-1.3,1.08-2,3.02-1.99v-0.11c0-0.44-0.11-1.24-1.14-1.24c-0.47,0-0.95,0.16-1.31,0.4l-0.21-0.64c0.42-0.29,1.02-0.48,1.65-0.48
		c1.54,0,1.91,1.12,1.91,2.19v2c0,0.47,0.02,0.92,0.08,1.29H29.45z M29.31,32.52c-1-0.02-2.13,0.17-2.13,1.21
		c0,0.63,0.39,0.93,0.86,0.93c0.65,0,1.07-0.44,1.21-0.9c0.03-0.1,0.05-0.21,0.05-0.31V32.52z"/>
	<path class="st0" d="M31.93,29.89l0.99,3.01c0.17,0.49,0.3,0.93,0.4,1.37h0.03c0.11-0.44,0.26-0.89,0.43-1.37l0.97-3.01h0.96
		l-1.97,5.36h-0.87l-1.91-5.36H31.93z"/>
	<path class="st0" d="M37.59,28.38c0.01,0.33-0.22,0.6-0.58,0.6c-0.32,0-0.55-0.27-0.55-0.6c0-0.34,0.24-0.61,0.57-0.61
		C37.37,27.77,37.59,28.04,37.59,28.38z M36.57,35.25v-5.36h0.91v5.36H36.57z"/>
	<path class="st0" d="M41.78,35.25l-0.07-0.68h-0.03c-0.28,0.42-0.82,0.8-1.54,0.8c-1.02,0-1.54-0.76-1.54-1.54
		c0-1.3,1.08-2,3.02-1.99v-0.11c0-0.44-0.11-1.24-1.14-1.24c-0.47,0-0.95,0.16-1.31,0.4l-0.21-0.64c0.42-0.29,1.02-0.48,1.65-0.48
		c1.54,0,1.91,1.12,1.91,2.19v2c0,0.47,0.02,0.92,0.08,1.29H41.78z M41.64,32.52c-1-0.02-2.13,0.17-2.13,1.21
		c0,0.63,0.39,0.93,0.86,0.93c0.65,0,1.07-0.44,1.21-0.9c0.03-0.1,0.05-0.21,0.05-0.31V32.52z"/>
	<path class="st0" d="M43.87,34.25c0.27,0.19,0.75,0.39,1.2,0.39c0.66,0,0.97-0.35,0.97-0.8c0-0.46-0.26-0.72-0.93-0.99
		c-0.9-0.34-1.33-0.88-1.33-1.52c0-0.86,0.65-1.57,1.73-1.57c0.51,0,0.96,0.15,1.24,0.33l-0.23,0.71c-0.2-0.13-0.56-0.31-1.03-0.31
		c-0.54,0-0.84,0.33-0.84,0.73c0,0.44,0.3,0.64,0.95,0.91c0.87,0.35,1.32,0.82,1.32,1.62c0,0.94-0.69,1.61-1.88,1.61
		c-0.55,0-1.06-0.14-1.41-0.37L43.87,34.25z"/>
	<path class="st0" d="M50.88,35.25l-0.07-0.68h-0.03c-0.28,0.42-0.82,0.8-1.54,0.8c-1.02,0-1.54-0.76-1.54-1.54
		c0-1.3,1.08-2,3.02-1.99v-0.11c0-0.44-0.11-1.24-1.14-1.24c-0.47,0-0.95,0.16-1.31,0.4l-0.21-0.64c0.42-0.29,1.02-0.48,1.65-0.48
		c1.54,0,1.91,1.12,1.91,2.19v2c0,0.47,0.02,0.92,0.08,1.29H50.88z M50.75,32.52c-1-0.02-2.13,0.17-2.13,1.21
		c0,0.63,0.39,0.93,0.86,0.93c0.65,0,1.07-0.44,1.21-0.9c0.03-0.1,0.05-0.21,0.05-0.31V32.52z"/>
	<path class="st0" d="M53.1,27.39h0.91v7.87H53.1V27.39z"/>
	<path class="st0" d="M56.05,32.75c0.02,1.32,0.81,1.86,1.72,1.86c0.65,0,1.05-0.12,1.39-0.28l0.16,0.7
		c-0.32,0.16-0.87,0.33-1.67,0.33c-1.55,0-2.47-1.08-2.47-2.7c0-1.62,0.89-2.89,2.36-2.89c1.64,0,2.08,1.54,2.08,2.53
		c0,0.2-0.02,0.35-0.03,0.45H56.05z M58.73,32.05c0.01-0.62-0.24-1.58-1.27-1.58c-0.92,0-1.33,0.91-1.4,1.58H58.73z"/>
	<path class="st0" d="M60.62,34.25c0.27,0.19,0.75,0.39,1.2,0.39c0.66,0,0.97-0.35,0.97-0.8c0-0.46-0.26-0.72-0.93-0.99
		c-0.9-0.34-1.33-0.88-1.33-1.52c0-0.86,0.65-1.57,1.73-1.57c0.51,0,0.96,0.15,1.24,0.33l-0.23,0.71c-0.2-0.13-0.56-0.31-1.03-0.31
		c-0.54,0-0.84,0.33-0.84,0.73c0,0.44,0.3,0.64,0.95,0.91c0.87,0.35,1.32,0.82,1.32,1.62c0,0.94-0.69,1.61-1.88,1.61
		c-0.55,0-1.06-0.14-1.41-0.37L60.62,34.25z"/>
</g>
</svg>
