<?xml version="1.0" encoding="utf-8"?>
<!-- Generator: Adobe Illustrator 19.0.1, SVG Export Plug-In . SVG Version: 6.00 Build 0)  -->
<svg version="1.1" id="Слой_1" xmlns="http://www.w3.org/2000/svg" xmlns:xlink="http://www.w3.org/1999/xlink" x="0px" y="0px"
	 viewBox="0 0 64 18" style="enable-background:new 0 0 64 18;" xml:space="preserve">
<style type="text/css">
	.st0{fill:#FFFFFF;}
	.st1{fill:#0095DC;}
	.st2{fill:#5BC4F1;}
</style>
<g>
	<rect class="st0" width="64" height="18"/>
	<g>
		<path class="st1" d="M22.6,6.2c-0.9-1.3-2.5-1.4-3.9-1.4H16L14,13h3.7c1.7,0,3.4-0.3,4.5-1.7C23.3,9.9,23.7,7.7,22.6,6.2
			C22.4,6,22.8,6.5,22.6,6.2z M20.4,8.3c0,0.5-0.1,0.9-0.3,1.3l0,0c-0.3,0.5-0.7,1-1.3,1.1c-0.4,0.1-0.8,0.1-1.2,0.1h-0.2l0.9-3.6
			h0.6c0.3,0,0.7,0,1,0.1C20.3,7.4,20.4,7.9,20.4,8.3z"/>
		<path class="st1" d="M27.9,4.8L22.4,13h2.4l1-1.6h3.3l0.3,1.6h2.8l-1.6-8.2H27.9z M27.2,9.2l1.2-1.8l0.3,1.8H27.2z"/>
		<polygon class="st1" points="33.2,13 36.5,13 38.5,4.8 35.3,4.8 		"/>
		<polygon class="st1" points="41.3,10.6 42.9,13 45.8,13 43.1,8.9 47.6,4.8 44.5,4.8 42.2,7 42.8,4.8 39.9,4.8 37.9,13 40.7,13 		
			"/>
		<polygon class="st1" points="47.1,13 50.4,13 52.4,4.8 49.2,4.8 		"/>
		<polygon class="st1" points="59.2,4.8 58.4,8.3 57.1,4.8 54.2,4.8 52.2,13 54.3,13 55.4,9.2 56.9,13 60,13 62,4.8 		"/>
	</g>
	<g>
		<polygon class="st2" points="2,2 16.2,2 2,16.2 		"/>
		<polygon points="2,2 9.5,2 2,9.5 		"/>
	</g>
</g>
</svg>
