<?xml version="1.0" encoding="utf-8"?>
<!-- Generator: Adobe Illustrator 19.0.1, SVG Export Plug-In . SVG Version: 6.00 Build 0)  -->
<svg version="1.1" id="icon_logo" xmlns="http://www.w3.org/2000/svg" xmlns:xlink="http://www.w3.org/1999/xlink" x="0px" y="0px"
	 viewBox="0 0 64 64" style="enable-background:new 0 0 64 64;" xml:space="preserve">
<style type="text/css">
	.st0{fill:#15256B;}
	.st1{fill:#FFFFFF;}
</style>
<g>
	<circle class="st0" cx="32" cy="32" r="32"/>
	<path class="st1" d="M57.3,23.9c0.2-0.8-0.5-0.6-0.7-0.1c-0.2,0.5-0.4,0.9-0.7,1.3c-0.5,0.7-1.5,1.6-2.2,0.5c-0.5-0.8,0-2,0.1-2.9
		c0.1-1.3-0.4-1.7-1.3-2.6c-0.5-0.6-1.1-2.1-1.5-0.5c-0.3,1.4-0.8,2.6-1.4,3.9c-1,2-3.2,5.4-5.8,5.2C41,28.4,42.9,24,44,23
		c0.3-0.3,0.8-0.8,1.3-0.6c0.7,0.2,0.4,1.1,0.2,1.5c-0.4,0.7-1.2,0.9-1.8,1.5c-0.8,0.8,0.1,1.1,0.8,0.8c0.9-0.3,1.7-0.9,2.4-1.5
		c0.8-0.8,1.5-2.5,0.5-3.5c-0.8-0.9-2.3-0.4-3.2,0c-1.3,0.7-2.3,1.9-3,3.2c-0.4,0.7-0.7,1.5-0.9,2.4c-0.2,1.2,0.1,1.9-0.1,2.2
		c-1.1,2-4,0.4-5.7,0.7c0.9-1,1.9-2.1,2.9-3c0.8-0.8,1.8-1.5,2.1-2.7c0.2-1-0.2-1.8-1.3-1.4c-1.4,0.4-2.7,1.2-4.2,1.4
		c-0.8,0.1-1,0-1.6-0.3c-0.4-0.2-0.6-0.3-0.9,0.1c-0.2,0.3-0.2,0.9-0.3,1.3c-0.1,0.6-0.2,1-0.5,1.6c-0.5,1.2-1,2.6-1.7,3.7
		c-0.3,0.5-1.2,1.8-1.7,0.9c-0.7-1.1,0.4-3.1,0.7-4.2c-0.8,0.1-1.5,0.3-2,1.1c-0.5,0.8-0.8,1.7-1.3,2.5c-0.4,0.7-1.9,2.8-2.4,1
		c-0.4-1.3,0.8-2.8,1.6-3.7c0.4-0.5,2.2-2.5,2.6-1.1c0.7-0.5,1.3-1.2,0.1-1.6c-1-0.3-2.2,0.3-3,0.9c-1.9,1.4-3.1,3.7-3.5,6
		c-0.2,1.2-0.2,3.6,1.7,3.2c1.5-0.4,2-2.4,3-3.4c0.1,0,0.4,1.8,0.5,2c0.7,1,1.9-0.2,2.5-0.8c2.1-2.3,3-5.4,4.4-8.2
		c1.6,1,3.7,0.4,5.3-0.2c-1.4,1.9-3.4,3.2-5.1,4.7c-0.5,0.4-3.5,3-2,3.7c0.6,0.3,1.4-0.8,1.8-1.1c1-0.6,2-0.5,3.1-0.4
		c2,0.1,3.7-0.6,4.9-2.2c1.9,2.9,5.4,0,7-1.7c1.7-1.8,2.9-4,4-6.2c2,1.8-1.6,4.8,0.5,6.6C54.3,29.8,56.9,25.6,57.3,23.9z M9.3,22.6
		 M9.3,22.6c2.3-3.7,7.2-3.8,11.1-4c2.6-0.1,5.4-0.2,7.8-1.4c1-0.5,1.9-1.2,2.6-2.1c0.6-0.7,1.5-1.9,1.1-2.9
		c-0.8,0.6-1.5,1.4-2.5,1.8c-1,0.5-2.1,0.7-3.2,1c-2.4,0.5-4.8,0.6-7.2,1c-2.2,0.4-4.5,1-6.4,2.2C11.2,19.1,8.7,20.8,9.3,22.6
		 M19.9,28.8 M19.8,28.8c0.5-0.1,1-0.8,0.5-1.2c-0.4-0.4-1.2,0.1-1.6,0.3c-1.5,0.7-2.9,1.5-4.2,2.5c0.2-1.3,0.4-2.6,0.6-3.9
		c0.2-1.1,0.3-2.3,0.8-3.4c0.3-0.6,1-1.3,0.8-2.1c-0.2-1.1-1.3-0.3-1.6,0.3c-1.2,1.7-1.3,3.9-1.7,5.9c-0.5,2.4-1,4.8-1.6,7.2
		c-0.6,2.3-1.7,4.5-2.4,6.7c-0.5,1.7-1.2,3.9-0.5,5.7c0.7,1.7,2.2-0.1,2.7-1c1.1-1.9,1.5-4.3,1.8-6.5c0.3-2.1,0.2-4.5,1.3-6.4
		c0.6-1,1.4-1.9,2.3-2.7c0.5-0.4,1.1-0.8,1.6-1.1C18.8,29.1,19.4,28.9,19.8,28.8z"/>
	<path class="st1" d="M18.2,46.9c-2.2-1.7-1.7-1.6,3.4,0.9c1.5,0.8,16,5.7,25-10.5c2.1-6.5,7.9-2.2,5,2.3C49.3,43.8,42.9,51,31.4,51
		C23.5,51,19.8,48.1,18.2,46.9z"/>
</g>
</svg>
