<?xml version="1.0" encoding="utf-8"?>
<!-- Generator: Adobe Illustrator 19.0.1, SVG Export Plug-In . SVG Version: 6.00 Build 0)  -->
<svg version="1.1" id="Layer_1" xmlns="http://www.w3.org/2000/svg" xmlns:xlink="http://www.w3.org/1999/xlink" x="0px" y="0px"
	 viewBox="-447 264 64 24" style="enable-background:new -447 264 64 24;" xml:space="preserve">
<style type="text/css">
	.st0{fill:#0A67B2;}
	.st1{fill:#FFE500;}
</style>
<g>
	<rect x="-447" y="265" class="st0" width="63.3" height="23"/>
	<path class="st1" d="M-415.3,286.9c17.2,0,31.2-4.8,31.2-10.6s-14-10.5-31.2-10.5s-31.2,4.8-31.2,10.6S-432.6,286.9-415.3,286.9"/>
	<path class="st0" d="M-396.5,280.4c0,0,0.2-0.3,0.2-0.6l-0.4-1.1h-2.5l-0.4,1.1c-0.1,0.3,0.2,0.6,0.2,0.6h-5c0,0,0.3-0.2,0.4-0.6
		l2.7-7.1c0.2-0.4-0.1-0.8-0.1-0.8h8c0,0-0.3,0.2-0.1,0.8l2.8,7.1c0.2,0.4,0.5,0.6,0.5,0.6H-396.5 M-397.4,277.2l-0.6-1.5
		c-0.1-0.2-0.1-0.4-0.1-0.4l0,0c0,0,0,0.2-0.1,0.4c0,0.1-0.6,1.5-0.6,1.5H-397.4z"/>
	<path class="st0" d="M-438.4,280.4c0.3-0.2,0.3-0.8,0.3-0.8v-7.1c0-0.4-0.2-0.5-0.2-0.5h5.8c0,0-0.2,0.1-0.2,0.5v7.1
		c0,0.1,0,0.6,0.3,0.8H-438.4"/>
	<path class="st0" d="M-424.7,275.3l1.9-2.7c0.3-0.4,0-0.6,0-0.6h5.7c0,0-0.3,0.2-0.5,0.5l-2.1,2.9l2.7,4.3c0.2,0.3,0.4,0.4,0.6,0.5
		c0.1,0.1,0.2,0.1,0.2,0.1h-6.6c0,0,0.2-0.1,0-0.5l-1.8-2.9v2.7c0,0.1-0.1,0.6,0.2,0.8h-5.7c0.3-0.2,0.3-0.8,0.3-0.8v-7.1
		c0-0.4-0.2-0.5-0.2-0.5h5.7c0,0-0.2,0.1-0.2,0.5L-424.7,275.3"/>
	<path class="st0" d="M-405.5,280.4v-3c0,0-0.3,0.4-0.9,0.4h-3.5v-0.6h2.8c0.1,0,0.6,0,0.7,0.2v-2.6c-0.3,0.2-0.7,0.2-0.9,0.2h-2.8
		v-0.6h3.5c0.5,0,0.9,0.4,0.9,0.4V272h-9.6c0,0,0.2,0.1,0.2,0.5v7.1c0,0.1,0,0.6-0.3,0.8H-405.5"/>
</g>
</svg>
