<?xml version="1.0" encoding="utf-8"?>
<!-- Generator: Adobe Illustrator 19.0.1, SVG Export Plug-In . SVG Version: 6.00 Build 0)  -->
<svg version="1.1" id="Слой_1" xmlns="http://www.w3.org/2000/svg" xmlns:xlink="http://www.w3.org/1999/xlink" x="0px" y="0px"
	 viewBox="-447 270 64 22" style="enable-background:new -447 270 64 22;" xml:space="preserve">
<style type="text/css">
	.st0{fill:#B1B2B2;}
	.st1{fill:#FDFDFD;}
	.st2{fill:#22A63F;}
	.st3{fill:#E21E24;}
	.st4{fill:#006CB4;}
	.st5{fill:#FBBB00;}
	.st6{fill:#018DD1;}
</style>
<g>
	<g>
		<path class="st0" d="M-415.38,283.52c-1.07-0.03-2.47,0.01-3.86,0.08c-1.6,0.09-3.21,0.22-4.8,0.41c-2.31,0.28-4.6,0.69-6.86,1.27
			c-1.44,0.37-2.85,0.83-4.23,1.37c-0.27,0.11-0.28,0.21-0.15,0.44c0.41,0.79,0.8,1.59,1.19,2.39c0.4,0.81,0.15,1.41-0.7,1.7
			c-0.49,0.17-1,0.21-1.51,0.25c-1.74,0.15-3.48,0.22-5.23,0.28c-1.65,0.05-3.31,0.02-4.96,0.04c-0.38,0-0.49-0.22-0.3-0.56
			c0.88-1.55,1.75-3.1,2.64-4.64c0.19-0.33,0.19-0.56-0.02-0.89c-0.96-1.55-1.87-3.12-2.74-4.72c-0.17-0.3-0.09-0.47,0.25-0.52
			c0.7-0.1,1.4-0.03,2.1-0.1c0.62-0.06,1.25-0.06,1.88-0.07c0.17,0,0.2-0.05,0.18-0.22c-0.18-1.05-0.34-2.12-0.51-3.17
			c-0.04-0.25,0.07-0.37,0.24-0.49c1.18-0.83,2.44-1.5,3.75-2.09c2.61-1.18,5.33-2.01,8.12-2.64c1.65-0.38,3.31-0.67,4.98-0.92
			c1.2-0.17,2.4-0.29,3.61-0.4c3.15-0.3,6.31-0.36,9.47-0.29c1.65,0.04,3.3,0.14,4.94,0.28c2.64,0.23,5.27,0.6,7.86,1.15
			c3.31,0.7,6.54,1.67,9.6,3.13c1.06,0.51,2.08,1.08,3.05,1.74c0.27,0.19,0.32,0.4,0.28,0.69c-0.15,0.92-0.28,1.84-0.44,2.75
			c-0.04,0.25,0.06,0.29,0.25,0.29c0.66,0.02,1.32,0.05,1.98,0.07c0.61,0.02,1.21,0.04,1.82,0.06c0.39,0.01,0.5,0.2,0.31,0.55
			c-0.81,1.49-1.63,2.97-2.56,4.39c-0.36,0.55-0.38,0.95-0.04,1.5c0.85,1.39,1.63,2.83,2.44,4.24c0.09,0.16,0.21,0.31,0.11,0.49
			c-0.1,0.18-0.29,0.13-0.45,0.14c-0.76,0.07-1.53,0.07-2.29,0.03c-1.16-0.05-2.32-0.01-3.49-0.06c-1.56-0.07-3.11-0.14-4.66-0.31
			c-0.43-0.05-0.87-0.09-1.29-0.26c-0.75-0.3-0.98-0.89-0.62-1.61c0.37-0.76,0.75-1.52,1.13-2.27c0.1-0.2,0.12-0.29-0.14-0.4
			c-2.35-0.94-4.78-1.57-7.25-2.05c-1.72-0.33-3.46-0.57-5.2-0.74c-0.97-0.1-1.94-0.16-2.91-0.22
			C-411.94,283.54-413.5,283.52-415.38,283.52z"/>
		<path class="st1" d="M-440.35,288.89c0.36-0.62,0.93-1.04,1.47-1.49c-0.65,0.23-1.16,0.68-1.68,1.11
			c0.43-0.69,1.07-1.17,1.69-1.67c-0.71,0.19-1.22,0.68-1.73,1.18c-0.06-0.43,0.59-1.08,1.71-1.75c-0.3-0.03-0.65,0.11-1.02,0.38
			c-0.32,0.22-0.54,0.54-0.84,0.78c0.34-0.82,1-1.35,1.69-1.86c-0.72,0.21-1.26,0.69-1.75,1.23c0.32-0.87,1.03-1.38,1.74-1.88
			c-0.76,0.11-1.32,0.56-1.87,1.04c0.39-0.78,1.1-1.25,1.75-1.79c-0.7,0.17-1.27,0.59-1.85,0.99c-0.11-0.18,0.02-0.27,0.1-0.37
			c0.39-0.44,0.88-0.77,1.38-1.08c0.07-0.04,0.16-0.06,0.21-0.17c-0.68,0.14-1.24,0.51-1.84,0.81c0.4-0.66,1.09-0.98,1.71-1.44
			c-0.25,0.01-0.43,0.12-0.62,0.2c-0.21,0.09-0.42,0.19-0.62,0.3c-0.19,0.1-0.38,0.22-0.58,0.34c0.09-0.24,0.28-0.43,0.75-0.77
			c0.29-0.21,0.58-0.4,0.95-0.66c-0.46,0.07-0.78,0.24-1.1,0.4c-0.18,0.09-0.35,0.2-0.52,0.29c-0.06,0.03-0.13,0.11-0.19,0.03
			c-0.05-0.07,0.01-0.15,0.06-0.2c0.19-0.2,0.37-0.4,0.58-0.57c0.29-0.24,0.6-0.45,0.9-0.69c-0.58,0.18-1.09,0.51-1.62,0.8
			c0.38-0.66,1.05-0.99,1.71-1.44c-0.71,0.15-1.25,0.47-1.84,0.75c0.27-0.59,0.82-0.88,1.32-1.24c-0.5,0.05-0.9,0.37-1.44,0.57
			c0.33-0.5,0.77-0.74,1.14-1.07c-0.43,0.06-0.8,0.28-1.19,0.44c0.3-0.55,0.83-0.83,1.38-1.19c-0.58,0.05-1.03,0.28-1.5,0.45
			c0.29-0.42,0.76-0.62,1.2-0.98c-0.5,0.13-0.87,0.34-1.26,0.54c0.3-0.49,0.76-0.8,1.2-1.14c-0.45,0.1-0.84,0.33-1.26,0.51
			c0.28-0.4,0.7-0.64,1.12-0.98c-0.53,0.12-0.87,0.36-1.26,0.5c0.31-0.46,0.81-0.7,1.23-1.03c-0.47,0.12-0.87,0.39-1.32,0.56
			c0.31-0.49,0.83-0.71,1.3-0.99c-0.49,0.07-0.9,0.34-1.34,0.53c-0.06-0.11,0.01-0.15,0.06-0.19c0.17-0.14,0.81-0.51,0.99-0.64
			c0.14-0.1-0.71,0.35-1.15,0.46c0.03-0.06,1.04-0.64,1.1-0.68c2.21-1.28,4.57-2.22,7-2.97c1.92-0.59,3.87-1.05,5.84-1.41
			c1.33-0.25,2.68-0.44,4.02-0.61c1.57-0.2,3.14-0.3,4.71-0.42c0.46-0.04,0.92-0.04,1.38-0.06c1.24-0.05,2.49-0.08,3.74-0.06
			c1.74,0.02,3.47,0.06,5.2,0.19c3.84,0.28,7.64,0.8,11.37,1.75c2.89,0.74,5.71,1.7,8.35,3.11c0.6,0.31,1.17,0.63,1.7,1.02
			c0.1,0.08,0.21,0.14,0.28,0.34c-0.5-0.2-0.92-0.47-1.4-0.56c0.46,0.3,0.98,0.53,1.31,1c-0.45-0.16-0.85-0.44-1.33-0.54
			c0.44,0.32,0.93,0.57,1.26,1.04c-0.36-0.12-0.68-0.36-1.14-0.46c0.37,0.36,0.76,0.56,1.02,0.92c-0.44-0.12-0.81-0.41-1.35-0.53
			c0.5,0.39,0.97,0.68,1.28,1.16c-0.38-0.13-0.71-0.39-1.2-0.48c0.42,0.34,0.85,0.54,1.17,0.99c-0.54-0.23-1.01-0.47-1.6-0.52
			c0.58,0.35,1.09,0.68,1.44,1.21c-0.45-0.15-0.85-0.41-1.4-0.53c0.5,0.38,1,0.66,1.3,1.15c-0.47-0.21-0.91-0.49-1.42-0.57
			c0.47,0.39,1.07,0.64,1.32,1.26c-0.57-0.29-1.12-0.6-1.83-0.77c0.66,0.46,1.32,0.8,1.71,1.45c-0.51-0.24-0.96-0.6-1.52-0.75
			c0.35,0.33,0.77,0.56,1.1,0.91c0.13,0.14,0.39,0.32,0.29,0.46c-0.11,0.15-0.31-0.1-0.47-0.18c-0.4-0.2-0.79-0.42-1.32-0.51
			c0.63,0.45,1.23,0.8,1.7,1.31c0.02,0.02,0.02,0.05,0.04,0.12c-0.58-0.3-1.09-0.66-1.71-0.79c0.55,0.44,1.19,0.77,1.59,1.38
			c-0.62-0.29-1.19-0.67-1.96-0.85c0.73,0.5,1.47,0.86,1.88,1.59c-0.02,0.03-0.04,0.05-0.06,0.08c-0.3-0.2-0.59-0.4-0.9-0.59
			c-0.3-0.19-0.62-0.35-1.04-0.45c0.7,0.6,1.45,1.05,1.82,1.85c-0.56-0.47-1.12-0.95-1.88-1.06c0.71,0.52,1.41,1.03,1.75,1.89
			c-0.52-0.46-0.97-1.02-1.69-1.2c0.64,0.52,1.31,1,1.61,1.82c-0.28-0.25-0.5-0.55-0.81-0.77c-0.31-0.23-0.65-0.39-1.05-0.42
			c0.74,0.43,1.43,0.91,1.76,1.75c-0.56-0.47-1.08-0.99-1.81-1.19c0.6,0.5,1.25,0.95,1.67,1.64c-0.5-0.36-0.95-0.81-1.55-1.01
			c0.55,0.52,1.19,0.96,1.51,1.69c-0.58-0.38-1.13-0.78-1.72-1.13c-1.92-1.16-3.99-1.98-6.12-2.64c-1.69-0.52-3.41-0.92-5.14-1.23
			c-1.22-0.22-2.45-0.4-3.68-0.54c-1.62-0.18-3.24-0.31-4.87-0.39c-1.87-0.09-3.75-0.13-5.62-0.09c-1.32,0.03-2.63,0.09-3.95,0.18
			c-1.65,0.12-3.3,0.29-4.95,0.54c-2.07,0.31-4.11,0.71-6.12,1.28c-2.76,0.78-5.42,1.8-7.81,3.42
			C-439.85,288.51-440.09,288.7-440.35,288.89z"/>
		<path class="st1" d="M-446.19,281.03c0.26-0.03,0.47-0.06,0.69-0.07c0.98-0.04,1.97-0.06,2.95-0.1c0.14-0.01,0.18,0.05,0.2,0.17
			c0.21,1.36,0.42,2.72,0.63,4.08c0.22,1.43,0.45,2.86,0.67,4.3c0,0.03,0.01,0.06,0.02,0.09c0.09,0.74,0.51,1.04,1.24,0.93
			c0.92-0.14,1.8-0.46,2.72-0.58c0.71-0.09,1.42-0.25,2.15-0.1c0.2,0.04,0.39,0.1,0.42,0.35c0.03,0.26-0.15,0.37-0.35,0.46
			c-0.34,0.17-0.72,0.21-1.09,0.25c-0.95,0.09-1.89,0.16-2.84,0.21c-1.52,0.09-3.03,0.09-4.55,0.14c-0.81,0.02-1.61,0.02-2.42,0.03
			c-0.34,0-0.35-0.02-0.17-0.32c0.84-1.46,1.68-2.92,2.49-4.4c0.15-0.28,0.15-0.5-0.02-0.78c-0.93-1.46-1.79-2.97-2.64-4.48
			C-446.12,281.16-446.14,281.12-446.19,281.03z"/>
		<path class="st1" d="M-384,290.95c-1.62-0.04-3.18,0.04-4.74-0.06c-0.68-0.04-1.36-0.03-2.04-0.06c-1.3-0.07-2.61-0.15-3.9-0.33
			c-0.24-0.03-0.47-0.1-0.68-0.22c-0.16-0.09-0.24-0.22-0.22-0.42c0.02-0.18,0.13-0.27,0.3-0.31c0.54-0.12,1.08-0.08,1.62-0.03
			c1.06,0.11,2.08,0.41,3.13,0.63c0.36,0.07,0.72,0.08,1.08-0.08c0.44-0.21,0.41-0.62,0.47-0.99c0.26-1.61,0.51-3.21,0.75-4.82
			c0.17-1.11,0.35-2.22,0.51-3.34c0.03-0.24,0.12-0.3,0.34-0.29c0.94,0.05,1.88,0.09,2.82,0.12c0.21,0.01,0.42,0,0.69,0
			c-0.2,0.37-0.37,0.69-0.56,1.01c-0.73,1.24-1.45,2.47-2.19,3.7c-0.18,0.29-0.17,0.53-0.01,0.81c0.82,1.44,1.63,2.88,2.44,4.32
			C-384.14,290.69-384.09,290.79-384,290.95z"/>
	</g>
	<g>
		
			<rect x="-435.23" y="275.91" transform="matrix(0.8765 0.4814 -0.4814 0.8765 79.9768 243.6604)" class="st2" width="0.65" height="3.6"/>
		
			<rect x="-437.67" y="276.69" transform="matrix(0.9697 -0.2445 0.2445 0.9697 -81.7971 -98.3023)" class="st3" width="1.6" height="7.3"/>
		
			<rect x="-426.96" y="274.29" transform="matrix(0.9908 -0.1354 0.1354 0.9908 -41.4848 -55.1475)" class="st2" width="1.6" height="6.24"/>
		
			<rect x="-431.11" y="275.04" transform="matrix(0.9687 -0.2484 0.2484 0.9687 -82.5772 -98.1684)" class="st2" width="1.6" height="6.24"/>
		
			<rect x="-435.36" y="278.41" transform="matrix(0.4849 -0.8746 0.8746 0.4849 -469.6799 -235.4145)" class="st3" width="1.35" height="5.2"/>
		
			<rect x="-428.39" y="274.39" transform="matrix(0.9545 0.2982 -0.2982 0.9545 63.3409 140.286)" class="st3" width="0.65" height="6.67"/>
		<polygon class="st4" points="-424.01,280.2 -423.74,279.55 -417.26,279.17 -417.23,279.81 		"/>
		<polygon class="st4" points="-423.45,279.03 -421.01,273.02 -417.84,278.68 		"/>
		<polygon class="st4" points="-417.53,281.34 -418.57,281.34 -417.84,279.2 -416.84,279.13 		"/>
		<rect x="-416.3" y="272.13" class="st3" width="0.65" height="7.77"/>
		<rect x="-415.65" y="272.13" class="st3" width="4.02" height="1"/>
		
			<rect x="-396.44" y="277.49" transform="matrix(-0.9736 -0.2284 0.2284 -0.9736 -844.7164 462.222)" class="st5" width="1.66" height="5"/>
		
			<rect x="-393.96" y="274.78" transform="matrix(0.2276 -0.9738 0.9738 0.2276 -573.7341 -169.2601)" class="st4" width="0.8" height="4.47"/>
		
			<rect x="-402.69" y="274.72" transform="matrix(-0.9936 -0.1127 0.1127 -0.9936 -833.3463 508.8597)" class="st4" width="0.81" height="6.54"/>
		<polygon class="st2" points="-409.09,281.73 -408.36,281.73 -403.68,274.4 -404.4,274.37 		"/>
		<polygon class="st2" points="-405.07,274.34 -408.05,278.99 -410.25,273.92 		"/>
		<polygon class="st3" points="-406.25,274.24 -407.61,276.35 -408.6,274.05 		"/>
		<polygon class="st5" points="-421.9,277.78 -420.87,275.48 -419.56,277.63 		"/>
		<path class="st3" d="M-415.09,274.46v5.44c0,0,4,0.25,4-2.85S-415.09,274.46-415.09,274.46z"/>
		<path class="st4" d="M-400.99,274.77l-0.55,4.64c0,0,3.39,0.62,3.7-2.03C-397.53,274.73-400.99,274.77-400.99,274.77z"/>
		<path class="st5" d="M-400.32,276.06l-0.26,2.19c0,0,1.59,0.29,1.74-0.96S-400.32,276.06-400.32,276.06z"/>
		<path class="st2" d="M-414.19,275.86v2.52c0,0,1.86,0.12,1.86-1.32S-414.19,275.86-414.19,275.86z"/>
	</g>
</g>
<g>
	<path class="st6" d="M-430.54,288.26c0,0.04,0.01,0.16-0.06,0.16h-0.65v1.53c0,0.09-0.4,0.09-0.4,0v-1.72
		c0-0.08,0.04-0.12,0.12-0.12h0.93C-430.54,288.14-430.52,288.19-430.54,288.26z"/>
	<path class="st6" d="M-428.63,289.03c0,1.28-1.88,1.35-1.86,0.03C-430.48,287.8-428.63,287.73-428.63,289.03z M-429.05,289.05
		c0-0.86-0.99-0.84-1.02-0.01C-430.11,289.91-429.05,289.9-429.05,289.05z"/>
	<path class="st6" d="M-426.95,288.68c0,0.46-0.36,0.66-0.78,0.66h-0.16v0.61c0,0.1-0.4,0.1-0.4,0v-1.71c0-0.09,0.05-0.14,0.14-0.14
		h0.46C-427.34,288.1-426.95,288.25-426.95,288.68z M-427.37,288.71c0-0.22-0.16-0.31-0.36-0.31h-0.17v0.64h0.18
		C-427.51,289.04-427.37,288.92-427.37,288.71z"/>
	<path class="st6" d="M-424.88,289.03c0,1.28-1.88,1.35-1.86,0.03C-426.72,287.8-424.88,287.73-424.88,289.03z M-425.29,289.05
		c0-0.86-0.99-0.84-1.02-0.01C-426.35,289.91-425.29,289.9-425.29,289.05z"/>
	<path class="st6" d="M-422.81,290.45c0,0.09-0.35,0.09-0.35,0V290h-1.31v0.45c0,0.09-0.35,0.09-0.35,0v-0.68
		c0-0.05,0.02-0.08,0.07-0.08h0.09c0.29-0.4,0.31-0.98,0.37-1.46c0-0.08,0.04-0.12,0.11-0.13h1c0.08,0,0.11,0.04,0.11,0.12v1.46
		h0.17c0.05,0,0.08,0.03,0.07,0.08v0.69H-422.81z M-423.45,288.42h-0.46c-0.05,0.4-0.07,0.94-0.34,1.27h0.8V288.42z"/>
	<path class="st6" d="M-422.01,289.73c0,0.14-0.03,0.25-0.11,0.36l-0.2,0.28c-0.04,0.06-0.32,0.09-0.28-0.01l0.19-0.4v-0.23
		C-422.43,289.51-422.01,289.51-422.01,289.73z"/>
	<path class="st6" d="M-419.82,288.26c0,0.04,0.01,0.16-0.06,0.16h-0.65v1.53c0,0.09-0.4,0.09-0.4,0v-1.72
		c0-0.08,0.04-0.12,0.12-0.12h0.93C-419.82,288.14-419.8,288.19-419.82,288.26z"/>
	<path class="st6" d="M-418.01,290.45c0,0.09-0.35,0.09-0.35,0V290h-1.31v0.45c0,0.09-0.35,0.09-0.35,0v-0.68
		c0-0.05,0.02-0.08,0.07-0.08h0.09c0.29-0.4,0.31-0.98,0.37-1.46c0-0.08,0.04-0.12,0.11-0.13h1c0.08,0,0.11,0.04,0.11,0.12v1.46
		h0.18c0.05,0,0.08,0.03,0.07,0.08L-418.01,290.45L-418.01,290.45z M-418.65,288.42h-0.46c-0.05,0.4-0.07,0.94-0.34,1.27h0.8V288.42
		z"/>
	<path class="st6" d="M-416.57,289.85c0,0.04,0.01,0.15-0.06,0.15h-0.99c-0.08,0-0.12-0.04-0.12-0.12v-1.65
		c0-0.08,0.04-0.12,0.12-0.12h0.98c0.09,0,0.09,0.3,0,0.3h-0.7v0.46h0.59c0.09,0,0.09,0.29,0,0.29h-0.59v0.53h0.71
		C-416.56,289.7-416.57,289.81-416.57,289.85z"/>
	<path class="st6" d="M-413.22,289.95c0,0.1-0.39,0.09-0.43-0.01l-0.14-0.43c-0.06-0.18-0.15-0.32-0.36-0.32h-0.08v0.76
		c0,0.1-0.39,0.1-0.39,0v-0.76h-0.08c-0.21,0-0.31,0.14-0.36,0.32l-0.14,0.43c-0.05,0.13-0.51,0.15-0.4-0.11l0.14-0.38
		c0.07-0.19,0.16-0.36,0.36-0.44l0,0c-0.19-0.05-0.27-0.23-0.33-0.4l-0.12-0.34c-0.1-0.27,0.35-0.23,0.38-0.11l0.12,0.4
		c0.06,0.18,0.14,0.3,0.34,0.3h0.08v-0.71c0-0.1,0.39-0.1,0.39,0v0.71h0.08c0.19,0,0.29-0.13,0.34-0.3l0.13-0.4
		c0.04-0.13,0.47-0.16,0.38,0.11l-0.12,0.33c-0.06,0.17-0.14,0.33-0.33,0.4l0,0c0.2,0.09,0.28,0.25,0.36,0.44l0.13,0.38
		C-413.24,289.87-413.22,289.91-413.22,289.95z"/>
	<path class="st6" d="M-411.32,289.95c0,0.09-0.4,0.09-0.4,0v-1c0-0.07,0-0.14,0.01-0.21l0,0c-0.04,0.08-0.09,0.16-0.15,0.23
		l-0.68,0.98c-0.06,0.07-0.38,0.11-0.38,0v-1.79c0-0.09,0.4-0.09,0.4,0v1c0,0.07,0,0.13-0.01,0.2l0,0c0.05-0.08,0.1-0.15,0.15-0.23
		l0.68-0.98c0.06-0.06,0.37-0.11,0.37,0L-411.32,289.95L-411.32,289.95z"/>
	<path class="st6" d="M-409.66,288.56c0,0.14,0.04,0.33-0.2,0.41c0.23,0.04,0.39,0.22,0.39,0.46c0,0.43-0.42,0.57-0.78,0.57h-0.52
		c-0.08,0-0.12-0.04-0.12-0.12v-1.65c0-0.08,0.04-0.12,0.12-0.12h0.49C-410.28,288.1-409.66,288.13-409.66,288.56z M-409.99,288.63
		c0-0.18-0.15-0.24-0.31-0.24h-0.2v0.49h0.22C-410.12,288.88-409.99,288.8-409.99,288.63z M-409.89,289.45
		c0-0.22-0.2-0.28-0.38-0.28h-0.24v0.54h0.29C-410.05,289.71-409.89,289.63-409.89,289.45z"/>
	<path class="st6" d="M-408.37,289.48c-0.04,0.11-0.13,0.28-0.21,0.39c-0.14,0.19-0.68,0.24-0.69,0.01c0-0.13,0-0.23,0.05-0.25
		c0.03-0.01,0.13,0.12,0.29,0.04c0.05-0.02,0.08-0.09,0.11-0.15l-0.63-1.27c-0.11-0.21,0.34-0.19,0.41-0.05l0.27,0.57
		c0.06,0.12,0.11,0.24,0.16,0.37l0,0c0.04-0.13,0.09-0.26,0.14-0.39l0.22-0.58c0.03-0.11,0.47-0.13,0.4,0.05L-408.37,289.48z"/>
	<path class="st6" d="M-406.2,288.26c0,0.04,0,0.16-0.06,0.16h-0.49v1.53c0,0.1-0.4,0.1-0.4,0v-1.53h-0.49c-0.09,0-0.09-0.32,0-0.32
		h1.38C-406.19,288.1-406.2,288.23-406.2,288.26z"/>
	<path class="st6" d="M-403.45,290.45c0,0.09-0.35,0.09-0.35,0V290h-1.31v0.45c0,0.09-0.35,0.09-0.35,0v-0.68
		c0-0.05,0.02-0.08,0.07-0.08h0.09c0.29-0.41,0.31-0.98,0.37-1.46c0-0.08,0.04-0.12,0.11-0.13h1c0.08,0,0.11,0.04,0.11,0.12v1.46
		h0.17c0.05,0,0.08,0.03,0.07,0.08v0.69H-403.45z M-404.09,288.42h-0.46c-0.05,0.4-0.07,0.94-0.34,1.27h0.8V288.42z"/>
	<path class="st6" d="M-402,289.85c0,0.04,0,0.15-0.06,0.15h-0.99c-0.08,0-0.12-0.04-0.12-0.12v-1.65c0-0.08,0.04-0.12,0.12-0.12
		h0.98c0.09,0,0.09,0.3,0,0.3h-0.7v0.46h0.59c0.09,0,0.09,0.29,0,0.29h-0.59v0.53h0.71C-402,289.7-402,289.81-402,289.85z"/>
	<path class="st6" d="M-400.36,288.26c0,0.03,0.01,0.16-0.06,0.16h-0.49v1.53c0,0.1-0.4,0.1-0.4,0v-1.53h-0.49
		c-0.09,0-0.09-0.32,0-0.32h1.38C-400.35,288.1-400.36,288.23-400.36,288.26z"/>
	<path class="st6" d="M-398.53,289.95c0,0.09-0.4,0.09-0.4,0v-1c0-0.07,0-0.14,0.01-0.21l0,0c-0.04,0.08-0.1,0.15-0.15,0.23
		l-0.68,0.98c-0.05,0.08-0.37,0.1-0.37,0v-1.79c0-0.09,0.4-0.09,0.4,0v1c0,0.07,0,0.13-0.01,0.2l0,0c0.05-0.08,0.09-0.15,0.15-0.23
		l0.68-0.98c0.06-0.06,0.37-0.11,0.37,0V289.95z"/>
</g>
</svg>
