<?xml version="1.0" encoding="utf-8"?>
<!-- Generator: Adobe Illustrator 19.0.1, SVG Export Plug-In . SVG Version: 6.00 Build 0)  -->
<svg version="1.1" id="Слой_1" xmlns="http://www.w3.org/2000/svg" xmlns:xlink="http://www.w3.org/1999/xlink" x="0px" y="0px"
	 viewBox="162 29 64 11" style="enable-background:new 162 29 64 11;" xml:space="preserve">
<style type="text/css">
	.st0{fill:#9F1613;}
</style>
<g>
	<path class="st0" d="M168.92,29.04h-2.21l-2.21,2.87v-2.87h-1.8V36h1.8v-3.02l2.36,3.02h2.32l-3.02-3.68L168.92,29.04L168.92,29.04
		z M176.18,32.68c-0.22-0.22-0.59-0.37-0.96-0.41c0.26-0.11,0.41-0.26,0.55-0.55s0.18-0.55,0.18-0.85c0-0.59-0.18-1.03-0.44-1.29
		c-0.41-0.52-0.99-0.59-1.47-0.59h-2.69v6.96h2.91c0.85,0,1.51-0.26,1.88-0.66c0.26-0.26,0.52-0.7,0.52-1.36
		C176.66,33.38,176.47,32.94,176.18,32.68L176.18,32.68z M173.16,30.4h0.33c0.37,0,0.55,0.11,0.66,0.22
		c0.11,0.11,0.18,0.29,0.18,0.48c0,0.15-0.07,0.33-0.18,0.44c-0.18,0.18-0.48,0.22-0.66,0.22h-0.33V30.4z M174.67,34.27
		c-0.18,0.22-0.59,0.29-1.1,0.29h-0.41v-1.47h0.37c0.44,0,0.88,0.04,1.1,0.22c0.11,0.11,0.18,0.29,0.18,0.48
		C174.81,34.04,174.74,34.19,174.67,34.27L174.67,34.27z M183.17,29.04h-1.95L178.57,36h1.91l0.48-1.18h2.5l0.44,1.18h1.91
		L183.17,29.04L183.17,29.04z M181.44,33.42l0.77-2.25l0.77,2.25H181.44L181.44,33.42z M191.16,29.04h-2.87V36h1.8v-2.28h1.14
		c0.55,0,1.18-0.07,1.73-0.59s0.59-1.18,0.59-1.73c0-0.59-0.11-1.18-0.63-1.69C192.38,29.15,191.75,29.04,191.16,29.04L191.16,29.04
		z M191.42,31.98c-0.22,0.18-0.55,0.22-0.77,0.22h-0.59v-1.73h0.59c0.22,0,0.55,0.04,0.77,0.26c0.18,0.18,0.22,0.44,0.22,0.63
		C191.68,31.5,191.68,31.8,191.42,31.98L191.42,31.98z M195.88,30.55h1.47v5.41h1.8v-5.41h1.47v-1.51h-4.75V30.55z M209.1,35.96
		v-6.92h-1.84l-2.58,4.38v-4.38h-1.8V36h1.84l2.58-4.42v4.38H209.1z M215.17,29.04h-2.87V36h1.8v-2.28h1.14
		c0.55,0,1.18-0.07,1.73-0.59s0.59-1.18,0.59-1.73c0-0.59-0.11-1.18-0.63-1.69C216.39,29.15,215.76,29.04,215.17,29.04L215.17,29.04
		z M215.47,31.98c-0.22,0.18-0.55,0.22-0.77,0.22h-0.59v-1.73h0.59c0.22,0,0.55,0.04,0.77,0.26c0.18,0.18,0.22,0.44,0.22,0.63
		C215.69,31.5,215.65,31.8,215.47,31.98L215.47,31.98z M223.35,29.04h-1.95L218.75,36h1.91l0.48-1.18h2.5l0.44,1.18H226
		L223.35,29.04L223.35,29.04z M221.58,33.42l0.77-2.25l0.77,2.25H221.58z"/>
</g>
<g>
	<path class="st0" d="M176,39.84v-2.03h0.52c0.9,0,0.95,1.26,0.02,1.26h-0.21v0.76H176z M176.33,38.16v0.58h0.18
		c0.51,0,0.51-0.58-0.02-0.58H176.33z"/>
	<path class="st0" d="M178.52,39.84v-2.03h1.2v0.34h-0.87v0.45h0.81v0.34h-0.81v0.55h0.9v0.34H178.52z"/>
	<path class="st0" d="M182.59,37.56l0.29,2.29h-0.3l-0.17-1.25L181.82,40l-0.6-1.4l-0.18,1.24h-0.3l0.29-2.29l0.79,1.64
		L182.59,37.56z"/>
	<path class="st0" d="M187.07,39.84v-2.03h0.33v0.8l0.97,0v-0.8h0.33v2.03h-0.33v-0.88l-0.97,0v0.88H187.07z"/>
	<path class="st0" d="M190.14,39.84v-1.68h-0.48v-0.34h1.29v0.34h-0.48v1.68H190.14z"/>
	<path class="st0" d="M193.37,39.84v-2.03h1.21v0.34h-0.88v0.46h0.46c0.18,0,0.31,0.05,0.41,0.17c0.1,0.11,0.15,0.26,0.15,0.44
		c0,0.16-0.04,0.3-0.13,0.43c-0.08,0.12-0.23,0.18-0.43,0.18H193.37z M193.69,38.97v0.53h0.34c0.09,0,0.16-0.01,0.2-0.02
		c0.04-0.01,0.07-0.04,0.1-0.09c0.03-0.04,0.05-0.1,0.05-0.16c0-0.18-0.11-0.27-0.33-0.27H193.69z"/>
	<path class="st0" d="M196,39.84v-2.03h1.2v0.34h-0.87v0.45h0.81v0.34h-0.81v0.55h0.9v0.34H196z"/>
	<path class="st0" d="M199.15,38.99h-0.09v-0.31c0.29,0.01,0.44-0.09,0.44-0.31c0-0.08-0.03-0.14-0.09-0.19
		c-0.06-0.05-0.14-0.07-0.23-0.07c-0.17,0-0.28,0.08-0.33,0.25l-0.41-0.09c0.09-0.33,0.34-0.49,0.75-0.49c0.22,0,0.4,0.05,0.54,0.15
		c0.14,0.1,0.2,0.22,0.2,0.38c0,0.19-0.11,0.35-0.35,0.46c0.28,0.1,0.42,0.27,0.42,0.51c0,0.18-0.07,0.33-0.21,0.44
		c-0.14,0.11-0.34,0.16-0.6,0.16c-0.22,0-0.39-0.03-0.51-0.1c-0.12-0.07-0.22-0.2-0.29-0.4l0.39-0.12c0.04,0.11,0.09,0.19,0.15,0.23
		c0.06,0.04,0.15,0.06,0.25,0.06c0.12,0,0.21-0.02,0.28-0.07c0.07-0.05,0.1-0.12,0.1-0.2c0-0.09-0.03-0.16-0.11-0.2
		C199.38,39.02,199.28,38.99,199.15,38.99z"/>
	<path class="st0" d="M210.62,39.84v-2.03h0.52c0.9,0,0.95,1.26,0.02,1.26h-0.21v0.76H210.62z M210.95,38.16v0.58h0.18
		c0.51,0,0.51-0.58-0.02-0.58H210.95z"/>
	<path class="st0" d="M184.94,37.82c-0.53,0-0.96,0.45-0.96,1.01c0,0.56,0.43,1.01,0.96,1.01c0.53,0,0.96-0.45,0.96-1.01
		C185.9,38.27,185.47,37.82,184.94,37.82z M184.94,39.52c-0.36,0-0.66-0.31-0.66-0.69c0-0.38,0.29-0.69,0.66-0.69
		c0.36,0,0.66,0.31,0.66,0.69C185.6,39.21,185.3,39.52,184.94,39.52z"/>
	<path class="st0" d="M208.42,37.82c-0.53,0-0.96,0.45-0.96,1.01c0,0.56,0.43,1.01,0.96,1.01c0.53,0,0.96-0.45,0.96-1.01
		C209.39,38.27,208.96,37.82,208.42,37.82z M208.42,39.52c-0.36,0-0.66-0.31-0.66-0.69c0-0.38,0.29-0.69,0.66-0.69
		c0.36,0,0.66,0.31,0.66,0.69C209.08,39.21,208.79,39.52,208.42,39.52z"/>
	<path class="st0" d="M203.98,39.33c-0.12,0.11-0.26,0.19-0.43,0.19c-0.36,0-0.66-0.31-0.66-0.69c0-0.38,0.29-0.69,0.66-0.69
		c0.17,0,0.31,0.08,0.43,0.19v-0.39c-0.13-0.07-0.27-0.12-0.43-0.12c-0.53,0-0.96,0.45-0.96,1.01c0,0.56,0.43,1.01,0.96,1.01
		c0.16,0,0.3-0.05,0.43-0.12V39.33z"/>
	<path class="st0" d="M206.44,39.33c-0.12,0.11-0.26,0.19-0.43,0.19c-0.36,0-0.66-0.31-0.66-0.69c0-0.38,0.29-0.69,0.66-0.69
		c0.17,0,0.31,0.08,0.43,0.19v-0.39c-0.13-0.07-0.27-0.12-0.43-0.12c-0.53,0-0.96,0.45-0.96,1.01c0,0.56,0.43,1.01,0.96,1.01
		c0.16,0,0.3-0.05,0.43-0.12V39.33z"/>
</g>
</svg>
