<?xml version="1.0" encoding="utf-8"?>
<!-- Generator: Adobe Illustrator 19.0.1, SVG Export Plug-In . SVG Version: 6.00 Build 0)  -->
<svg version="1.1" id="Слой_1" xmlns="http://www.w3.org/2000/svg" xmlns:xlink="http://www.w3.org/1999/xlink" x="0px" y="0px"
	 viewBox="0 0 64 17" style="enable-background:new 0 0 64 17;" xml:space="preserve">
<style type="text/css">
	.st0{fill:#ACD0A4;}
	.st1{fill:#57AF47;}
	.st2{fill:#FFEFB6;}
	.st3{fill:#FFCA08;}
	.st4{fill:#F8B39B;}
	.st5{fill:#ED1B24;}
	.st6{fill:#8CCCEF;}
	.st7{fill:#009AD6;}
</style>
<g>
	<path class="st0" d="M11.7,0.3l-1.7,1.9c-0.2,0.3-0.6,0.3-0.9,0L7.5,0.3C7.3,0.1,7.1,0,6.9,0H1.4C0.9,0,0.6,0.4,0.6,0.8v15.4
		c0,0.4,0.4,0.8,0.8,0.8h5.1c0.4,0,0.8-0.4,0.8-0.8v-3.1c0-0.3,0.4-0.5,0.6-0.3l1.3,1.3c0.3,0.3,0.7,0.3,0.9,0l1.3-1.3
		c0.2-0.2,0.6-0.1,0.6,0.3v3.1c0,0.4,0.4,0.8,0.8,0.8h5.1c0.4,0,0.8-0.4,0.8-0.8V0.8c0-0.4-0.4-0.8-0.8-0.8h-5.5
		C12.1,0,11.9,0.1,11.7,0.3z"/>
	<path class="st1" d="M11.2,0.3L9.5,2.1c-0.2,0.3-0.6,0.3-0.9,0L7,0.3C6.9,0.1,6.7,0,6.4,0H1.1C0.7,0,0.3,0.4,0.3,0.8v15
		c0,0.4,0.4,0.8,0.8,0.8H6c0.4,0,0.8-0.4,0.8-0.8v-3c0-0.3,0.4-0.5,0.6-0.2l1.3,1.3c0.2,0.3,0.6,0.3,0.9,0l1.3-1.3
		c0.2-0.2,0.6-0.1,0.6,0.2v3c0,0.4,0.4,0.8,0.8,0.8h4.9c0.4,0,0.8-0.4,0.8-0.8v-15c0-0.4-0.4-0.8-0.8-0.8h-5.4
		C11.5,0,11.3,0.1,11.2,0.3z"/>
	<path class="st2" d="M31.7,10.6c0.5,0,0.8-0.4,0.8-0.8V7.1c0-0.4-0.4-0.8-0.8-0.8h-3.5c-0.3,0-0.5-0.2-0.5-0.5v0
		c0-0.3,0.2-0.5,0.5-0.5h3.1c0.5,0,0.8-0.4,0.8-0.8V0.8C32,0.4,31.7,0,31.2,0h-5.1C26.1,0,26,0,26,0h-6.5c-0.3,0-0.6,0.2-0.6,0.5v16
		c0,0.3,0.3,0.5,0.6,0.5h6.7H27h4.6c0.5,0,0.8-0.4,0.8-0.8v-3.6c0-0.4-0.4-0.8-0.8-0.8h-3.5c-0.3,0-0.5-0.2-0.5-0.5v-0.2
		c0-0.3,0.2-0.5,0.5-0.5H31.7z"/>
	<path class="st3" d="M30.9,10.3c0.4,0,0.8-0.4,0.8-0.8V6.9c0-0.4-0.4-0.8-0.8-0.8h-3.3c-0.3,0-0.5-0.2-0.5-0.5v0
		c0-0.3,0.2-0.5,0.5-0.5h2.9c0.4,0,0.8-0.4,0.8-0.8V0.8c0-0.4-0.4-0.8-0.8-0.8h-4.8c-0.1,0-0.1,0-0.2,0h-6.1c-0.3,0-0.5,0.2-0.5,0.5
		v15.5c0,0.3,0.2,0.5,0.5,0.5h6.3h0.8h4.3c0.4,0,0.8-0.4,0.8-0.8v-3.5c0-0.4-0.4-0.8-0.8-0.8h-3.3c-0.3,0-0.5-0.2-0.5-0.5v-0.2
		c0-0.3,0.2-0.5,0.5-0.5H30.9z"/>
	<path class="st4" d="M45.8,7.4h-4.6c-0.6,0-1.1,0.5-1.1,1.1v2.7l-0.2,0.6c-0.1,0.3-0.5,0.3-0.6,0.1l-0.4-0.6
		c-0.2-0.3-0.3-0.7-0.3-1V6.9c0-0.6,0.5-1.1,1.1-1.1h2.6h2.9c0.6,0,1.1-0.5,1.1-1.1V1.1c0-0.6-0.5-1.1-1.1-1.1h-2.9
		c-2.6,0-7.2-0.2-9.9,2.9c-2.6,2.9-2.3,7.9-0.3,10.6c2.3,3.2,3.6,3.6,9.1,3.6h4.6c0.6,0,1.1-0.5,1.1-1.1V8.5
		C46.9,7.9,46.4,7.4,45.8,7.4z"/>
	<path class="st5" d="M45,7.2h-4.4c-0.6,0-1.1,0.5-1.1,1.1v2.6l-0.2,0.6c-0.1,0.3-0.4,0.3-0.6,0.1l-0.3-0.6c-0.2-0.3-0.3-0.6-0.3-1
		V6.7c0-0.6,0.5-1,1-1h2.5h2.8c0.6,0,1.1-0.5,1.1-1.1V1.1C45.5,0.5,45,0,44.5,0h-2.8c-2.5,0-6.9-0.2-9.5,2.8
		c-2.5,2.8-2.2,7.7-0.3,10.3c2.2,3.1,3.4,3.5,8.8,3.5H45c0.6,0,1.1-0.5,1.1-1.1V8.3C46.1,7.7,45.6,7.2,45,7.2z"/>
	<path class="st6" d="M63.3,17.1c0.4,0,0.8-0.4,0.6-0.8L59.3,0.7c-0.1-0.4-0.5-0.7-1-0.7h-8.6c-0.5,0-0.9,0.3-1,0.8L44,16.2
		c-0.1,0.4,0.2,0.9,0.7,0.9h5.8c0.3,0,0.6-0.1,0.8-0.4l0.4-0.5c0.1-0.2,0.4-0.3,0.6-0.3h3.3c0.2,0,0.3,0.1,0.4,0.2l0.6,0.6
		c0.2,0.2,0.4,0.4,0.7,0.4H63.3z"/>
	<path class="st7" d="M62.4,16.6c0.4,0,0.7-0.4,0.6-0.8L58.6,0.7C58.4,0.3,58.1,0,57.7,0h-8.2c-0.5,0-0.9,0.3-1,0.7l-4.4,15
		c-0.1,0.4,0.2,0.8,0.6,0.8h5.5c0.3,0,0.6-0.1,0.8-0.4l0.4-0.5c0.1-0.2,0.3-0.3,0.6-0.3h3.2c0.2,0,0.3,0.1,0.4,0.2l0.5,0.6
		c0.1,0.2,0.4,0.4,0.7,0.4H62.4z"/>
	<polygon class="st5" points="10.1,12 12.4,4.9 12.4,12.2 14.5,12.2 14.5,2.8 11,2.8 9.1,9.8 7.1,2.8 3.7,2.8 3.7,12.2 5.8,12.2 
		5.8,4.9 8,12 	"/>
	<path class="st7" d="M27.7,11.5c-0.4,1.4-1.6,2.3-3,2.3c-1.7,0-3.1-1.4-3.1-3.2c0-1.8,1.4-3.2,3.1-3.2c0.5,0,1.1,0.1,1.5,0.4
		l-3.5,2.7l1.6,2.3L30,8.4c-0.9-2.2-2.9-3.7-5.3-3.7c-3.2,0-5.7,2.7-5.7,5.9c0,3.3,2.6,5.9,5.7,5.9c2.9,0,5.3-2.2,5.7-5L27.7,11.5z"
		/>
	<path class="st1" d="M33.1,2.1v0.5h0.8c0.4,0,0.8,0.4,0.8,0.8v9.6c0,0.4-0.3,0.7-0.7,0.7h-0.9v0.5h6.1v-0.5h-1
		c-0.4,0-0.7-0.3-0.7-0.7V2.8h2.1c1.4,0,2.5,1.1,2.5,2.5v0.3h0.6V2.1H33.1z"/>
	<path class="st3" d="M57.6,9.5c0,0-0.5,1.4-1.2,2c-0.1-0.6,1.2-8,1.2-8c-1.8-1.2-8-0.8-9.6,5.5c-1,4.1,0.6,5.2,1.4,5.2
		c1.6,0,3.5-1.4,4.3-2.7c-0.2,1.7,0,2.7,1.1,2.7c0.9,0,2.3-0.8,3.5-2.7C59.3,9.9,57.6,9.5,57.6,9.5z M50.8,11.6
		c-1,0,0.5-8.3,3.8-6.1C54.8,7.2,52.5,11.6,50.8,11.6z"/>
</g>
</svg>
