<?xml version="1.0" encoding="utf-8"?>
<!-- Generator: Adobe Illustrator 19.0.1, SVG Export Plug-In . SVG Version: 6.00 Build 0)  -->
<svg version="1.1" id="Layer_6_xA0_Изображение_1_"
	 xmlns="http://www.w3.org/2000/svg" xmlns:xlink="http://www.w3.org/1999/xlink" x="0px" y="0px" viewBox="-447 263 64 36"
	 style="enable-background:new -447 263 64 36;" xml:space="preserve">
<style type="text/css">
	.st0{fill:#FF0000;}
	.st1{fill:#B3B3B3;}
	.st2{fill:#B1B1B1;}
</style>
<g>
	<g>
		<path class="st0" d="M-425.34,276.6v-10.9h-3.62v-2.67h10.3v2.67h-3.4v10.9C-422.06,276.6-425.34,276.6-425.34,276.6z"/>
		<path class="st0" d="M-418.62,276.59v-9.37h6.93v1.79h-4.65v1.65h4.34v1.79h-4.34v2.36h4.65v1.79L-418.62,276.59L-418.62,276.59z"
			/>
		<path class="st0" d="M-402.26,276.59h-2.66l-1.75-2.99l-1.79,2.99H-411l2.96-4.72l-2.84-4.65h2.65l1.64,2.82l1.69-2.82h2.54
			l-2.86,4.55L-402.26,276.59z"/>
		<path class="st0" d="M-394.15,276.59h-2.19v-4.15h-2.98v4.15h-2.19v-9.36h2.19v3.42h2.98v-3.42h2.19V276.59z"/>
		<path class="st0" d="M-384.39,271.81c0,2.53-1.5,4.78-4.42,4.78c-2.91,0-4.42-2.25-4.42-4.78c0-2.53,1.5-4.79,4.42-4.79
			C-385.89,267.02-384.39,269.27-384.39,271.81z M-386.76,271.81c0-1.23-0.4-3.03-2.05-3.05c-1.67-0.01-2.06,1.84-2.06,3.05
			c0,1.22,0.39,3.05,2.06,3.05C-387.15,274.86-386.76,273.03-386.76,271.81z"/>
	</g>
	<g>
		<path class="st1" d="M-425.28,278.38h6.01l0.01,1.28h-4.6l-0.01,2.15h2.33c3.83,0,3.87,5.56,0,5.56h-3.74V278.38z M-422.09,286.09
			c0.75,0,2.03,0,2.03-1.51c0-1.4-1.23-1.46-1.96-1.46h-1.84v2.97H-422.09z"/>
		<path class="st1" d="M-417.44,287.36l-0.04-8.99h1.4l0.04,3.49h2.6c3.55,0,3.61,5.5-0.19,5.5H-417.44z M-413.7,286.09
			c0.6,0,1.45-0.47,1.45-1.44c0-1.09-0.8-1.56-1.39-1.56h-2.4v3H-413.7z M-410.13,278.38h1.41v8.99h-1.41V278.38z"/>
		<path class="st1" d="M-404.77,287.36v-7.7h-2.77v-1.29h7.02v1.29h-2.85v7.7H-404.77z"/>
	</g>
	<g>
		<path class="st0" d="M-423.42,297.4v1.6h-5.49c0.22-2.23,2.1-3.41,3.36-5.05c0.45-0.59,0.97-1.7,0.27-2.26
			c-0.54-0.43-1.68-0.32-1.89,1.1l-1.56-0.17c0.19-1.9,1.74-3.15,3.67-2.53c2.1,0.68,1.95,3.06,0.72,4.65
			c-0.71,0.91-1.65,1.63-2.19,2.66H-423.42z"/>
		<path class="st0" d="M-419.3,299v-1.81h-3.34v-1.51l3.54-5.72h1.31v5.71h1.01v1.52h-1.01V299H-419.3z M-419.3,295.67v-3.08
			l-1.88,3.08H-419.3z"/>
	</g>
	<path class="st1" d="M-428.06,284.25c-2.34,3.62-8.44,1.55-8.44-3.25c0-4.53,5.51-6.97,8.45-3.2l1.37-0.78
		c-1.78-2.51-5.74-3.22-8.46-1.52c-1.03,0.64-2.9,1.96-3.02,5.5c-0.07,2.19,1.23,4.69,3.74,5.88c2.56,1.21,6.13,0.66,7.7-1.88
		L-428.06,284.25z"/>
</g>
<path class="st2" d="M-430.99,290.62c-5.54-0.38-9.91-4.54-9.91-9.62c0-5.08,4.37-9.24,9.91-9.62v-5.55
	c-0.19,0.01-0.42,0.02-0.66,0.03c-0.54,0.04-1.08,0.13-1.08,0.13s-0.09,0.63-0.14,1.26c-0.04,0.43-0.06,0.86-0.07,1.08
	c-0.74,0.13-1.46,0.33-2.15,0.56c-0.14-0.19-0.41-0.54-0.7-0.9c-0.41-0.52-0.86-1.02-0.86-1.02s-0.49,0.21-0.98,0.42
	c-0.5,0.2-0.96,0.46-0.96,0.46s0.18,0.62,0.38,1.22c0.14,0.42,0.29,0.83,0.38,1.04c-0.63,0.36-1.23,0.77-1.79,1.22
	c-0.2-0.13-0.59-0.37-1.01-0.61c-0.59-0.34-1.2-0.67-1.2-0.67s-0.1,0.08-0.25,0.21c-0.14,0.14-0.32,0.32-0.5,0.5
	c-0.18,0.18-0.36,0.36-0.5,0.5c-0.14,0.14-0.21,0.24-0.21,0.24s0.41,0.52,0.85,1.02c0.3,0.35,0.61,0.68,0.77,0.85
	c-0.44,0.54-0.84,1.11-1.19,1.71c-0.24-0.05-0.71-0.15-1.18-0.24c-0.69-0.13-1.39-0.23-1.39-0.23s-0.26,0.43-0.43,0.9
	c-0.19,0.46-0.37,0.92-0.37,0.92s0.59,0.35,1.2,0.67c0.43,0.23,0.84,0.43,1.06,0.54c-0.19,0.64-0.34,1.3-0.42,1.98
	c-0.25,0.03-0.73,0.09-1.2,0.16c-0.69,0.1-1.38,0.24-1.38,0.24s-0.03,0.49-0.05,0.98c0.03,0.49,0.05,0.98,0.05,0.98
	s0.69,0.13,1.38,0.24c0.47,0.07,0.95,0.13,1.2,0.16c0.08,0.68,0.23,1.34,0.42,1.98c-0.22,0.11-0.64,0.31-1.06,0.54
	c-0.61,0.32-1.2,0.67-1.2,0.67s0.19,0.46,0.37,0.92c0.17,0.47,0.43,0.9,0.43,0.9s0.7-0.1,1.39-0.23c0.48-0.09,0.94-0.19,1.18-0.24
	c0.35,0.6,0.74,1.17,1.19,1.71c-0.16,0.17-0.47,0.5-0.77,0.85c-0.44,0.5-0.85,1.02-0.85,1.02s0.08,0.1,0.21,0.24
	c0.14,0.14,0.32,0.32,0.5,0.5c0.18,0.18,0.37,0.36,0.5,0.5c0.15,0.13,0.25,0.21,0.25,0.21s0.61-0.32,1.2-0.67
	c0.41-0.24,0.8-0.48,1.01-0.61c0.56,0.45,1.15,0.85,1.79,1.22c-0.08,0.21-0.23,0.61-0.38,1.04c-0.21,0.6-0.38,1.22-0.38,1.22
	s0.46,0.26,0.96,0.46c0.49,0.21,0.98,0.42,0.98,0.42s0.44-0.5,0.86-1.02c0.29-0.36,0.56-0.71,0.7-0.9c0.7,0.23,1.41,0.43,2.15,0.56
	c0.01,0.22,0.03,0.65,0.07,1.08c0.05,0.63,0.14,1.26,0.14,1.26s0.54,0.09,1.08,0.13c0.24,0.01,0.47,0.02,0.66,0.03V290.62z"/>
</svg>
