<?xml version="1.0" encoding="utf-8"?>
<!-- Generator: Adobe Illustrator 19.0.1, SVG Export Plug-In . SVG Version: 6.00 Build 0)  -->
<svg version="1.1" id="Слой_1" xmlns="http://www.w3.org/2000/svg" xmlns:xlink="http://www.w3.org/1999/xlink" x="0px" y="0px"
	 viewBox="0 0 64 64" style="enable-background:new 0 0 64 64;" xml:space="preserve">
<style type="text/css">
	.st0{fill:#00B0F9;}
	.st1{fill:#94C961;}
	.st2{fill:#F80000;}
</style>
<g>
	<path class="st0" d="M8.71,54.08V36.9L0,13.29h8.43l4.95,14.07l5.49-14.07h8.25l-9.47,23.67v17.12H8.71z"/>
	<path class="st1" d="M18.75,37.56L33.26,0l15.81,6.11l-2.45,6.35l-7.69-2.97l-3.22,8.33l7.8,3.01l-1.95,5.05l-7.8-3.01l-4.43,11.48
		l7.62,2.94l-2.45,6.35L18.75,37.56z"/>
	<path class="st2" d="M60.9,34.05l-7.25-3.56l1.34-2.72c0.62-1.27,0.93-2.12,0.91-2.56c-0.01-0.44-0.24-0.76-0.67-0.98
		c-0.47-0.23-0.94-0.17-1.41,0.18c-0.47,0.35-0.94,1-1.41,1.96c-0.6,1.23-0.92,2.21-0.95,2.97c-0.05,0.75,0.32,1.86,1.1,3.33
		c2.24,4.23,3.41,7.37,3.52,9.43c0.11,2.06-0.72,4.89-2.49,8.49c-1.28,2.62-2.48,4.42-3.59,5.42s-2.59,1.56-4.43,1.69
		c-1.85,0.14-3.72-0.26-5.62-1.2c-2.09-1.02-3.63-2.38-4.64-4.08c-1-1.69-1.37-3.4-1.09-5.12c0.28-1.72,1.09-3.96,2.44-6.71
		l1.18-2.4l7.25,3.56l-2.19,4.47c-0.67,1.38-1.01,2.31-1,2.8c0.01,0.49,0.28,0.87,0.8,1.12c0.52,0.25,1.03,0.19,1.53-0.18
		c0.5-0.37,0.99-1.05,1.47-2.04c1.06-2.16,1.51-3.69,1.36-4.6c-0.17-0.91-0.84-2.62-2.02-5.13c-1.17-2.52-1.89-4.3-2.18-5.32
		c-0.28-1.02-0.32-2.26-0.12-3.72c0.2-1.46,0.78-3.16,1.74-5.11c1.38-2.81,2.68-4.72,3.91-5.74c1.22-1.01,2.67-1.56,4.34-1.65
		c1.67-0.09,3.43,0.32,5.29,1.23c2.03,0.99,3.56,2.24,4.59,3.74c1.03,1.5,1.49,2.97,1.35,4.42c-0.13,1.45-0.92,3.63-2.35,6.54
		L60.9,34.05z"/>
	<g>
		<path class="st0" d="M2.31,62.84v-1.65l-1.44-2.27H1.8l0.92,1.55l0.91-1.55h0.91L3.1,61.19v1.65H2.31z"/>
		<path class="st0" d="M4.36,61.38c0-0.25,0.06-0.49,0.18-0.73s0.3-0.41,0.52-0.54s0.48-0.18,0.76-0.18c0.43,0,0.78,0.14,1.06,0.42
			s0.41,0.63,0.41,1.06c0,0.43-0.14,0.79-0.42,1.07s-0.63,0.42-1.05,0.42c-0.26,0-0.51-0.06-0.75-0.18
			c-0.24-0.12-0.42-0.29-0.54-0.52S4.36,61.71,4.36,61.38z M5.13,61.42c0,0.28,0.07,0.5,0.2,0.65s0.3,0.23,0.5,0.23
			s0.36-0.08,0.49-0.23s0.2-0.37,0.2-0.65c0-0.28-0.07-0.49-0.2-0.64s-0.3-0.23-0.49-0.23s-0.36,0.08-0.5,0.23
			S5.13,61.14,5.13,61.42z"/>
		<path class="st0" d="M9.75,62.84v-0.43c-0.1,0.15-0.24,0.27-0.41,0.36C9.18,62.86,9,62.91,8.81,62.91c-0.19,0-0.36-0.04-0.51-0.13
			c-0.15-0.08-0.26-0.2-0.33-0.35c-0.07-0.15-0.1-0.36-0.1-0.63V60h0.75v1.31c0,0.4,0.01,0.65,0.04,0.74s0.08,0.16,0.15,0.21
			c0.07,0.05,0.17,0.08,0.28,0.08c0.13,0,0.24-0.04,0.35-0.11s0.17-0.16,0.21-0.26S9.7,61.6,9.7,61.2V60h0.75v2.85H9.75z"/>
		<path class="st0" d="M11.95,62.84H11.2V60h0.7v0.4c0.12-0.19,0.23-0.32,0.32-0.38c0.1-0.06,0.2-0.09,0.33-0.09
			c0.17,0,0.34,0.05,0.5,0.14l-0.23,0.66c-0.13-0.08-0.24-0.12-0.35-0.12c-0.11,0-0.19,0.03-0.27,0.09
			c-0.07,0.06-0.13,0.16-0.17,0.31c-0.04,0.15-0.06,0.47-0.06,0.95V62.84z"/>
	</g>
	<g>
		<path class="st2" d="M41.92,61.56l0.77-0.08c0.05,0.26,0.14,0.45,0.28,0.57c0.14,0.12,0.33,0.18,0.57,0.18
			c0.26,0,0.45-0.05,0.58-0.16c0.13-0.11,0.19-0.23,0.19-0.38c0-0.09-0.03-0.17-0.08-0.24c-0.05-0.06-0.15-0.12-0.29-0.17
			c-0.09-0.03-0.3-0.09-0.64-0.17c-0.43-0.11-0.72-0.24-0.89-0.39c-0.24-0.22-0.36-0.48-0.36-0.79c0-0.2,0.06-0.39,0.17-0.56
			c0.11-0.17,0.28-0.31,0.49-0.4s0.47-0.14,0.77-0.14c0.49,0,0.86,0.11,1.11,0.32s0.38,0.5,0.39,0.87l-0.79,0.03
			c-0.03-0.2-0.11-0.35-0.22-0.44c-0.11-0.09-0.28-0.13-0.5-0.13c-0.23,0-0.41,0.05-0.54,0.14c-0.08,0.06-0.13,0.14-0.13,0.24
			c0,0.09,0.04,0.17,0.12,0.24c0.1,0.08,0.34,0.17,0.73,0.26s0.67,0.19,0.86,0.28c0.18,0.1,0.33,0.23,0.43,0.4
			c0.1,0.17,0.16,0.38,0.16,0.63c0,0.23-0.06,0.44-0.19,0.63c-0.13,0.2-0.3,0.34-0.53,0.44c-0.23,0.1-0.51,0.14-0.85,0.14
			c-0.5,0-0.88-0.11-1.14-0.34C42.13,62.34,41.97,62,41.92,61.56z"/>
		<path class="st2" d="M47.32,61.94l0.75,0.13c-0.1,0.28-0.25,0.48-0.46,0.63c-0.21,0.14-0.47,0.22-0.78,0.22
			c-0.5,0-0.86-0.16-1.1-0.48c-0.19-0.26-0.28-0.59-0.28-0.98c0-0.47,0.12-0.84,0.37-1.11c0.25-0.27,0.56-0.4,0.94-0.4
			c0.42,0,0.76,0.14,1,0.42s0.36,0.71,0.35,1.28h-1.89c0.01,0.22,0.07,0.4,0.18,0.52s0.26,0.19,0.43,0.19c0.12,0,0.22-0.03,0.3-0.1
			S47.28,62.08,47.32,61.94z M47.36,61.18c-0.01-0.22-0.06-0.38-0.17-0.5c-0.11-0.11-0.24-0.17-0.39-0.17
			c-0.16,0-0.3,0.06-0.41,0.18c-0.11,0.12-0.16,0.28-0.16,0.49H47.36z"/>
		<path class="st2" d="M49.33,62.84h-0.75V60h0.7v0.4c0.12-0.19,0.23-0.32,0.32-0.38c0.1-0.06,0.2-0.09,0.33-0.09
			c0.17,0,0.34,0.05,0.5,0.14l-0.23,0.66c-0.13-0.08-0.24-0.12-0.35-0.12c-0.11,0-0.19,0.03-0.27,0.09
			c-0.07,0.06-0.13,0.16-0.17,0.31c-0.04,0.15-0.06,0.47-0.06,0.95V62.84z"/>
		<path class="st2" d="M51.42,62.84L50.27,60h0.79l0.54,1.45l0.16,0.48c0.04-0.12,0.07-0.2,0.08-0.24c0.02-0.08,0.05-0.16,0.08-0.24
			L52.45,60h0.77l-1.13,2.85H51.42z"/>
		<path class="st2" d="M53.58,59.61v-0.7h0.75v0.7H53.58z M53.58,62.84V60h0.75v2.85H53.58z"/>
		<path class="st2" d="M57.47,60.84l-0.74,0.13c-0.02-0.15-0.08-0.26-0.17-0.33s-0.2-0.11-0.34-0.11c-0.19,0-0.34,0.06-0.45,0.19
			c-0.11,0.13-0.17,0.35-0.17,0.65c0,0.34,0.06,0.58,0.17,0.72c0.11,0.14,0.27,0.21,0.46,0.21c0.14,0,0.26-0.04,0.35-0.12
			c0.09-0.08,0.16-0.22,0.19-0.42l0.74,0.13c-0.08,0.34-0.22,0.6-0.44,0.77s-0.51,0.26-0.88,0.26c-0.42,0-0.75-0.13-1-0.39
			c-0.25-0.26-0.37-0.63-0.37-1.09c0-0.47,0.12-0.84,0.37-1.1c0.25-0.26,0.58-0.39,1.01-0.39c0.35,0,0.62,0.07,0.83,0.22
			S57.39,60.53,57.47,60.84z"/>
		<path class="st2" d="M59.58,61.94l0.75,0.13c-0.1,0.28-0.25,0.48-0.46,0.63c-0.21,0.14-0.47,0.22-0.78,0.22
			c-0.5,0-0.86-0.16-1.1-0.48c-0.19-0.26-0.28-0.59-0.28-0.98c0-0.47,0.12-0.84,0.37-1.11c0.25-0.27,0.56-0.4,0.94-0.4
			c0.42,0,0.76,0.14,1,0.42s0.36,0.71,0.35,1.28h-1.89c0.01,0.22,0.07,0.4,0.18,0.52c0.12,0.12,0.26,0.19,0.43,0.19
			c0.12,0,0.22-0.03,0.3-0.1C59.48,62.18,59.54,62.08,59.58,61.94z M59.63,61.18c-0.01-0.22-0.06-0.38-0.17-0.5
			c-0.11-0.11-0.24-0.17-0.39-0.17c-0.16,0-0.3,0.06-0.41,0.18c-0.11,0.12-0.16,0.28-0.16,0.49H59.63z"/>
		<path class="st2" d="M60.61,62.03l0.76-0.12c0.03,0.15,0.1,0.26,0.2,0.33c0.1,0.08,0.24,0.11,0.41,0.11
			c0.19,0,0.34-0.04,0.44-0.11c0.07-0.05,0.1-0.12,0.1-0.2c0-0.06-0.02-0.1-0.05-0.14c-0.04-0.04-0.12-0.07-0.25-0.1
			c-0.61-0.13-0.99-0.26-1.15-0.37c-0.23-0.15-0.34-0.37-0.34-0.64c0-0.25,0.1-0.45,0.29-0.62c0.19-0.17,0.5-0.25,0.91-0.25
			c0.39,0,0.68,0.06,0.87,0.19s0.32,0.31,0.39,0.56l-0.71,0.13c-0.03-0.11-0.09-0.2-0.17-0.25c-0.09-0.06-0.21-0.09-0.36-0.09
			c-0.2,0-0.34,0.03-0.43,0.08c-0.06,0.04-0.09,0.09-0.09,0.15c0,0.05,0.02,0.1,0.08,0.14c0.07,0.05,0.3,0.12,0.7,0.21
			c0.4,0.09,0.68,0.2,0.84,0.33c0.16,0.13,0.24,0.32,0.24,0.56c0,0.26-0.11,0.48-0.33,0.67s-0.54,0.28-0.97,0.28
			c-0.39,0-0.69-0.08-0.92-0.24C60.83,62.51,60.68,62.3,60.61,62.03z"/>
	</g>
	<g>
		<path class="st1" d="M15.29,62.84v-3.93h2.91v0.66h-2.12v0.87h1.97v0.66h-1.97v1.07h2.19v0.66H15.29z"/>
		<path class="st1" d="M18.78,60h0.69v0.39c0.25-0.3,0.54-0.45,0.89-0.45c0.18,0,0.34,0.04,0.47,0.11c0.13,0.08,0.24,0.19,0.33,0.34
			c0.13-0.15,0.26-0.27,0.4-0.34c0.14-0.08,0.3-0.11,0.46-0.11c0.21,0,0.39,0.04,0.53,0.13s0.25,0.21,0.32,0.37
			c0.05,0.12,0.08,0.32,0.08,0.59v1.82h-0.75v-1.63c0-0.28-0.03-0.46-0.08-0.55c-0.07-0.11-0.18-0.16-0.32-0.16
			c-0.11,0-0.2,0.03-0.3,0.1s-0.16,0.16-0.2,0.28c-0.04,0.12-0.06,0.32-0.06,0.59v1.37H20.5v-1.56c0-0.28-0.01-0.46-0.04-0.54
			c-0.03-0.08-0.07-0.14-0.12-0.18c-0.06-0.04-0.13-0.06-0.23-0.06c-0.12,0-0.22,0.03-0.31,0.09c-0.09,0.06-0.16,0.15-0.2,0.27
			c-0.04,0.12-0.06,0.31-0.06,0.59v1.38h-0.75V60z"/>
		<path class="st1" d="M23.58,60h0.7v0.42c0.09-0.14,0.21-0.26,0.37-0.35s0.33-0.13,0.52-0.13c0.33,0,0.61,0.13,0.84,0.39
			s0.35,0.62,0.35,1.08c0,0.47-0.12,0.84-0.35,1.11c-0.23,0.26-0.51,0.4-0.84,0.4c-0.16,0-0.3-0.03-0.43-0.09
			c-0.13-0.06-0.26-0.17-0.4-0.32v1.43h-0.75V60z M24.32,61.37c0,0.32,0.06,0.56,0.19,0.71c0.13,0.15,0.28,0.23,0.46,0.23
			c0.17,0,0.32-0.07,0.44-0.21c0.12-0.14,0.17-0.37,0.17-0.69c0-0.3-0.06-0.52-0.18-0.66s-0.27-0.22-0.44-0.22
			c-0.18,0-0.34,0.07-0.46,0.21C24.39,60.88,24.32,61.09,24.32,61.37z"/>
		<path class="st1" d="M26.84,62.84v-3.93h0.75v3.93H26.84z"/>
		<path class="st1" d="M28.08,61.38c0-0.25,0.06-0.49,0.18-0.73s0.3-0.41,0.52-0.54c0.23-0.12,0.48-0.18,0.76-0.18
			c0.43,0,0.78,0.14,1.06,0.42s0.41,0.63,0.41,1.06c0,0.43-0.14,0.79-0.42,1.07c-0.28,0.28-0.63,0.42-1.05,0.42
			c-0.26,0-0.51-0.06-0.75-0.18c-0.24-0.12-0.42-0.29-0.54-0.52S28.08,61.71,28.08,61.38z M28.86,61.42c0,0.28,0.07,0.5,0.2,0.65
			s0.3,0.23,0.5,0.23s0.36-0.08,0.49-0.23s0.2-0.37,0.2-0.65c0-0.28-0.07-0.49-0.2-0.64s-0.3-0.23-0.49-0.23s-0.36,0.08-0.5,0.23
			S28.86,61.14,28.86,61.42z"/>
		<path class="st1" d="M31.14,60h0.8l0.68,2.02L33.29,60h0.78l-1,2.74l-0.18,0.5c-0.07,0.17-0.13,0.29-0.19,0.38
			c-0.06,0.09-0.13,0.16-0.21,0.21c-0.08,0.05-0.17,0.1-0.29,0.13S31.96,64,31.82,64c-0.14,0-0.29-0.02-0.43-0.05l-0.07-0.59
			c0.12,0.02,0.22,0.03,0.32,0.03c0.17,0,0.3-0.05,0.39-0.15c0.08-0.1,0.15-0.23,0.19-0.39L31.14,60z"/>
		<path class="st1" d="M36.09,61.94l0.75,0.13c-0.1,0.28-0.25,0.48-0.46,0.63c-0.21,0.14-0.47,0.22-0.78,0.22
			c-0.5,0-0.86-0.16-1.1-0.48c-0.19-0.26-0.28-0.59-0.28-0.98c0-0.47,0.12-0.84,0.37-1.11c0.25-0.27,0.56-0.4,0.94-0.4
			c0.42,0,0.76,0.14,1,0.42s0.36,0.71,0.35,1.28h-1.89c0.01,0.22,0.07,0.4,0.18,0.52c0.12,0.12,0.26,0.19,0.43,0.19
			c0.12,0,0.22-0.03,0.3-0.1C35.99,62.18,36.05,62.08,36.09,61.94z M36.13,61.18c-0.01-0.22-0.06-0.38-0.17-0.5
			c-0.11-0.11-0.24-0.17-0.39-0.17c-0.16,0-0.3,0.06-0.41,0.18c-0.11,0.12-0.16,0.28-0.16,0.49H36.13z"/>
		<path class="st1" d="M39.03,61.94l0.75,0.13c-0.1,0.28-0.25,0.48-0.46,0.63c-0.21,0.14-0.47,0.22-0.78,0.22
			c-0.5,0-0.86-0.16-1.1-0.48c-0.19-0.26-0.28-0.59-0.28-0.98c0-0.47,0.12-0.84,0.37-1.11c0.25-0.27,0.56-0.4,0.94-0.4
			c0.42,0,0.76,0.14,1,0.42s0.36,0.71,0.35,1.28h-1.89c0.01,0.22,0.07,0.4,0.18,0.52s0.26,0.19,0.43,0.19c0.12,0,0.22-0.03,0.3-0.1
			S38.99,62.08,39.03,61.94z M39.07,61.18c-0.01-0.22-0.06-0.38-0.17-0.5s-0.24-0.17-0.39-0.17c-0.16,0-0.3,0.06-0.41,0.18
			c-0.11,0.12-0.16,0.28-0.16,0.49H39.07z"/>
	</g>
</g>
</svg>
