<?xml version="1.0" encoding="utf-8"?>
<!-- Generator: Adobe Illustrator 20.1.0, SVG Export Plug-In . SVG Version: 6.00 Build 0)  -->
<svg version="1.1" id="icon_logo" xmlns="http://www.w3.org/2000/svg" xmlns:xlink="http://www.w3.org/1999/xlink" x="0px" y="0px"
	 viewBox="0 0 46 64" style="enable-background:new 0 0 46 64;" xml:space="preserve">
<style type="text/css">
	.st0{fill:#00AEEF;}
</style>
<path class="st0" d="M33,0c1.4,0,2.5,1.1,2.5,2.5v2.5c0,3.3-1.3,6.5-3.6,8.9c-1.6,1.7-3.7,2.8-6,3.4l-0.2,0.1v6.4l0.2,0
	c2.3,0.5,4.3,1.7,6,3.4c2.3,2.4,3.6,5.5,3.6,8.9v2.5c0,1.4-1.1,2.5-2.5,2.5c-1.4,0-2.5-1.1-2.5-2.5V36c0-2-0.8-3.9-2.2-5.3
	c-1.4-1.4-3.2-2.2-5.1-2.2c-1.9,0-3.8,0.8-5.1,2.2c-1.4,1.4-2.2,3.3-2.2,5.3v2.5c0,1.4-1.1,2.5-2.5,2.5c-1.4,0-2.5-1.1-2.5-2.5V36
	c0-3.3,1.3-6.5,3.6-8.9c1.6-1.7,3.7-2.9,6-3.4l0.2,0v-6.4l-0.2-0.1c-2.3-0.5-4.3-1.7-6-3.4c-2.3-2.4-3.6-5.5-3.6-8.9V2.6
	C10.8,1.2,12,0,13.4,0c1.4,0,2.5,1.1,2.5,2.5v2.5c0,2,0.8,3.9,2.2,5.3c1.4,1.4,3.2,2.2,5.2,2.2c1.9,0,3.8-0.8,5.1-2.2
	c1.4-1.4,2.2-3.3,2.2-5.3V2.6C30.5,1.2,31.6,0,33,0 M23.2,31c-2.7,0-4.9,2.2-4.9,4.9c0,2.7,2.2,4.9,4.9,4.9c2.7,0,4.9-2.2,4.9-4.9
	C28.1,33.2,25.9,31,23.2,31 M45.1,62.2c0.2,0.6,0,1.2-0.6,1.5c-0.1,0.1-0.3,0.1-0.4,0.1c-0.5,0-0.9-0.3-1-0.7l-0.9-2.2h-5l-0.9,2.2
	c-0.2,0.6-0.9,0.8-1.5,0.6c-0.6-0.2-0.8-0.9-0.6-1.5l4.4-10.6c0.3-0.6,0.7-0.8,1.1-0.8c0.5,0,0.9,0.3,1.1,0.8L45.1,62.2L45.1,62.2z
	 M41.2,58.7l-1.6-3.8l-1.6,3.8H41.2z M23.8,57.4c0,3.3-1.8,6.5-5.8,6.5h0c-1.9,0-3.4-0.7-4.5-1.9c-1-1.2-1.5-2.8-1.5-4.7
	c0-4.1,2.4-6.8,6-6.8C21.6,50.6,23.8,53.2,23.8,57.4 M21.4,57.4c0-2.9-1.1-4.4-3.4-4.4c-3.1,0-3.6,2.8-3.6,4.4
	c0,1.3,0.3,2.4,0.9,3.1c0.6,0.7,1.5,1.1,2.7,1.1h0C20.5,61.6,21.4,59.4,21.4,57.4 M33.4,50.8h-7.6c-0.6,0-1.1,0.5-1.1,1.2
	c0,0.6,0.5,1.2,1.1,1.2h2.6v9.5c0,0.6,0.5,1.2,1.2,1.2c0.3,0,0.6-0.1,0.8-0.3c0.2-0.2,0.3-0.5,0.3-0.8l0-9.5h2.7
	c0.6,0,1.2-0.5,1.2-1.2C34.6,51.3,34,50.8,33.4,50.8 M10.3,51c-0.6-0.3-1.3-0.1-1.6,0.4l-2.9,5l-2.9-5c-0.3-0.6-1-0.7-1.6-0.4
	c-0.6,0.3-0.7,1-0.4,1.6L4.7,59v3.6c0,0.6,0.5,1.2,1.2,1.2c0.6,0,1.2-0.5,1.2-1.2V59l3.7-6.5C11.1,52,10.9,51.3,10.3,51"/>
</svg>
