<?xml version="1.0" encoding="utf-8"?>
<!-- Generator: Adobe Illustrator 20.1.0, SVG Export Plug-In . SVG Version: 6.00 Build 0)  -->
<svg version="1.1" id="Слой_1" xmlns="http://www.w3.org/2000/svg" xmlns:xlink="http://www.w3.org/1999/xlink" x="0px" y="0px"
	 viewBox="0 0 64 64" style="enable-background:new 0 0 64 64;" xml:space="preserve">
<path d="M60,29.2c-1.4-1.4-3-2.2-4.9-2.2H53v-9c0-1-0.4-2-0.8-3.2c-0.5-1.2-1.1-2.1-1.8-2.8l-5.5-5.5c-0.7-0.7-1.6-1.3-2.8-1.8
	C41,4.2,39.9,4,38.9,4H14.7c-1,0-1.9,0.3-2.6,1C11.5,5.7,11,6.5,11,7.5V27H8.9C7,27,5.4,27.9,4,29.2c-1.4,1.4-2,3.2-2,5.1v15.2
	c0,0.3,0.1,0.8,0.3,1C2.6,50.7,2.8,51,3.2,51H11v5.5c0,1,0.5,1.8,1.1,2.5c0.7,0.7,1.6,1,2.6,1h34.6c1,0,1.9-0.3,2.6-1
	c0.7-0.7,1.1-1.5,1.1-2.5V51h7.8c0.3,0,0.6-0.3,0.8-0.5c0.2-0.2,0.3-0.7,0.3-1V34.3C62,32.4,61.3,30.6,60,29.2z M48,55H16v-9h32V55z
	 M48,32H16V9h23v5.5c0,1,0.3,1.8,1,2.5c0.7,0.7,1.5,1,2.4,1H48V32z M56.7,36c-0.5,0.5-1,0.7-1.6,0.7s-1.2-0.2-1.6-0.7
	s-0.7-1-0.7-1.6s0.2-1.2,0.7-1.6s1-0.7,1.6-0.7s1.2,0.2,1.6,0.7s0.7,1,0.7,1.6S57.2,35.5,56.7,36z"/>
</svg>
