<?xml version="1.0" encoding="utf-8"?>
<!-- Generator: Adobe Illustrator 20.1.0, SVG Export Plug-In . SVG Version: 6.00 Build 0)  -->
<svg version="1.1" id="Слой_1" xmlns="http://www.w3.org/2000/svg" xmlns:xlink="http://www.w3.org/1999/xlink" x="0px" y="0px"
	 viewBox="0 0 64 64" style="enable-background:new 0 0 64 64;" xml:space="preserve">
<path d="M24.6,34.3c-2.2,0-7.6-8.3-10.8-17.7c-0.6-1.8-1.3-2.6-2.9-2.6H4.3C2.4,14,2,14.9,2,15.9c0,1.8,2.2,10.5,10.4,22
	c5.4,7.9,13.1,12.1,20,12.1c4.2,0,4.7-0.9,4.7-2.6v-5.9c0-1.9,0.4-2.3,1.7-2.3c1,0,2.6,0.5,6.5,4.3C49.8,48,50.5,50,53,50h6.6
	c1.9,0,2.8-0.9,2.3-2.8c-0.6-1.9-2.7-4.6-5.5-7.8c-1.5-1.8-3.8-3.8-4.5-4.8c-1-1.3-0.7-1.8,0-3c0,0,8-11.4,8.8-15.2
	c0.4-1.4,0-2.4-2-2.4h-6.6c-1.7,0-2.4,0.9-2.9,1.9c0,0-3.3,8.2-8.1,13.6c-1.5,1.5-2.2,2-3.1,2c-0.4,0-1-0.5-1-1.9V16.4
	c0-1.7-0.5-2.4-1.9-2.4H24.9c-1,0-1.7,0.8-1.7,1.5c0,1.6,2.4,2,2.6,6.5v9.8C25.8,33.9,25.4,34.3,24.6,34.3z"/>
</svg>
