<?xml version="1.0" encoding="utf-8"?>
<!-- Generator: Adobe Illustrator 20.1.0, SVG Export Plug-In . SVG Version: 6.00 Build 0)  -->
<svg version="1.1" id="Слой_1" xmlns="http://www.w3.org/2000/svg" xmlns:xlink="http://www.w3.org/1999/xlink" x="0px" y="0px"
	 viewBox="0 0 64 64" style="enable-background:new 0 0 64 64;" xml:space="preserve">
<g transform="matrix(.125 0 0 -.125 0 102.5)">
	<path d="M256,731.4c29.3,0,53.1-23,53.1-51.3c0-28.3-23.8-51.3-53.1-51.3c-29.3,0-53.1,23-53.1,51.3
		C202.9,708.4,226.7,731.4,256,731.4z M256,556.3c70.8,0,128.3,55.5,128.3,123.8c0,68.3-57.5,123.9-128.3,123.9
		c-70.8,0-128.3-55.6-128.3-123.9C127.7,611.8,185.2,556.3,256,556.3z M307.9,455.2c26.1,5.7,51.3,15.7,74.5,29.8
		c17.6,10.7,22.9,33.1,11.8,50c-11.1,17-34.2,22.1-51.8,11.4c-52.6-31.9-120.2-31.9-172.8,0c-17.6,10.7-40.8,5.6-51.8-11.4
		c-11.1-17-5.8-39.4,11.8-50c23.2-14.1,48.4-24,74.5-29.8l-71.7-69.3c-14.7-14.2-14.7-37.1,0-51.3c7.3-7.1,17-10.6,26.6-10.6
		c9.6,0,19.3,3.5,26.6,10.6l70.5,68.1l70.5-68.1c14.7-14.2,38.5-14.2,53.1,0c14.7,14.2,14.7,37.2,0,51.3
		C379.7,385.9,307.9,455.2,307.9,455.2z"/>
</g>
</svg>
