<?xml version="1.0" encoding="utf-8"?>
<!-- Generator: Adobe Illustrator 20.1.0, SVG Export Plug-In . SVG Version: 6.00 Build 0)  -->
<svg version="1.1" id="Слой_1" xmlns="http://www.w3.org/2000/svg" xmlns:xlink="http://www.w3.org/1999/xlink" x="0px" y="0px"
	 viewBox="0 0 64 64" style="enable-background:new 0 0 64 64;" xml:space="preserve">
<path d="M62,13.7c-2.2,1-4.6,1.6-7.1,1.9c2.5-1.5,4.5-3.9,5.4-6.7c-2.4,1.4-5,2.4-7.8,2.9c-2.2-2.4-5.4-3.8-9-3.8
	c-6.8,0-12.3,5.4-12.3,12.1c0,0.9,0.1,1.9,0.3,2.8c-10.2-0.5-19.3-5.3-25.4-12.7c-1.1,1.8-1.7,3.9-1.7,6.1c0,4.2,2.2,7.9,5.5,10.1
	c-2-0.1-3.9-0.6-5.6-1.5c0,0,0,0.1,0,0.2c0,5.9,4.2,10.8,9.9,11.9c-1,0.3-2.1,0.4-3.2,0.4c-0.8,0-1.6-0.1-2.3-0.2
	c1.6,4.8,6.1,8.3,11.5,8.4c-4.2,3.2-9.5,5.2-15.3,5.2c-1,0-2-0.1-2.9-0.2C7.4,54,13.9,56,20.9,56c22.6,0,35-18.5,35-34.5
	c0-0.5,0-1,0-1.6C58.3,18.2,60.3,16.1,62,13.7z"/>
</svg>
