<?xml version="1.0" encoding="utf-8"?>
<!-- Generator: Adobe Illustrator 19.0.1, SVG Export Plug-In . SVG Version: 6.00 Build 0)  -->
<svg version="1.1" id="Слой_2" xmlns="http://www.w3.org/2000/svg" xmlns:xlink="http://www.w3.org/1999/xlink" x="0px" y="0px"
	 viewBox="0 0 112 64" style="enable-background:new 0 0 112 64;" xml:space="preserve">
<g>
	<path d="M56,32c-8.8,0-16-7.2-16-16S47.2,0,56,0s16,7.2,16,16S64.8,32,56,32z M56,2c-7.7,0-14,6.3-14,14s6.3,14,14,14s14-6.3,14-14
		S63.7,2,56,2z"/>
	<path d="M80.1,64H31.9c-2.2,0-4.2-1-5.6-2.8s-1.8-4-1.2-6.1l3.2-11.7c0.6-2.1,2-3.7,3.9-4.6l14-6.1l0.5,0.5c0,0,3.9,3.7,9.3,3.7
		c5.5,0,9.3-3.7,9.3-3.7l0.5-0.5l14,6.1c1.9,0.9,3.4,2.5,3.9,4.6l3.2,11.7c0.6,2.1,0.1,4.3-1.2,6.1S82.3,64,80.1,64z M45.8,35.2
		L33,40.8c-1.4,0.6-2.4,1.8-2.8,3.3L27,55.7c-0.4,1.5-0.1,3.1,0.9,4.4c1,1.2,2.4,2,4,2h48.3c1.6,0,3-0.7,4-2c1-1.2,1.3-2.8,0.9-4.4
		L81.8,44c-0.4-1.5-1.4-2.7-2.8-3.3l-12.8-5.6C64.9,36.3,61.1,39,56,39C50.9,39,47.1,36.3,45.8,35.2z"/>
</g>
<g>
	<path d="M21,31c-6.1,0-11-4.9-11-11S14.9,9,21,9s11,4.9,11,11S27.1,31,21,31z M21,11c-5,0-9,4-9,9s4,9,9,9s9-4,9-9S26,11,21,11z"/>
	<path d="M23.4,53H5c-1.5,0-3-0.7-3.9-1.9s-1.3-2.7-1-4.2L2,38.8c0.3-1.3,1-3,2.6-3.7l9.6-4.3l0.5,0.5c0,0,2.7,2.7,6.3,2.7
		c3.6,0,6.3-2.7,6.3-2.7l0.5-0.5l8.2,3.5l-2.6,1.1l-5.2-2.2C27.1,34.1,24.5,36,21,36c-3.4,0-6.1-1.9-7.2-2.8l-8.4,3.7
		c-0.6,0.3-1.1,1-1.4,2.3l-1.9,8.1c-0.2,0.9,0,1.8,0.6,2.5C3.3,50.6,4.1,51,5,51h19L23.4,53z"/>
</g>
<g>
	<path d="M80,20c0-6.1,4.9-11,11-11s11,4.9,11,11s-4.9,11-11,11S80,26.1,80,20z M82,20c0,5,4,9,9,9s9-4,9-9s-4-9-9-9S82,15,82,20z"
		/>
	<path d="M88.6,53H107c1.5,0,3-0.7,3.9-1.9s1.3-2.7,1-4.2l-1.9-8.1c-0.3-1.3-1-3-2.6-3.7l-9.6-4.3l-0.5,0.5c0,0-2.7,2.7-6.3,2.7
		c-3.6,0-6.3-2.7-6.3-2.7l-0.5-0.5L76,34.3l2.6,1.1l5.2-2.2c1.1,0.9,3.7,2.8,7.2,2.8c3.4,0,6.1-1.9,7.2-2.8l8.4,3.7
		c0.6,0.3,1.1,1,1.4,2.3l1.9,8.1c0.2,0.9,0,1.8-0.6,2.5c-0.6,0.7-1.4,1.1-2.3,1.1H88L88.6,53z"/>
</g>
</svg>
