<?xml version="1.0" encoding="utf-8"?>
<!-- Generator: Adobe Illustrator 19.0.1, SVG Export Plug-In . SVG Version: 6.00 Build 0)  -->
<svg version="1.1" id="Слой_2" xmlns="http://www.w3.org/2000/svg" xmlns:xlink="http://www.w3.org/1999/xlink" x="0px" y="0px"
	 viewBox="0 0 64 64" style="enable-background:new 0 0 64 64;" xml:space="preserve">
<g>
	<path d="M62.5,55.5l-15-15l0.7-0.7c0.4-0.4,0.4-1,0-1.4s-1-0.4-1.4,0l-0.7,0.7l-2.8,2.8l-7.6-7.6l-1.4,1.4l7.6,7.6l-2.8,2.8
		l-0.7,0.7c-0.4,0.4-0.4,1,0,1.4c0.2,0.2,0.5,0.3,0.7,0.3s0.5-0.1,0.7-0.3l0.7-0.7l15,15c1,1,2.3,1.5,3.5,1.5s2.6-0.5,3.5-1.5
		C64.5,60.6,64.5,57.4,62.5,55.5z M61.1,61.1c-1.2,1.2-3.1,1.2-4.2,0l-15-15l4.2-4.2l15,15C62.3,58.1,62.3,60,61.1,61.1z"/>
	<path d="M9.4,5.1L5.1,0.9L0.9,5.1l4.2,4.2v0c0.6,0.6,1.4,0.9,2.1,0.9c0.4,0,0.9-0.1,1.3-0.3l19.8,19.8l1.4-1.4L9.9,8.5
		C10.5,7.4,10.3,6.1,9.4,5.1z M6.5,8L3.7,5.1l1.4-1.4L8,6.5c0.4,0.4,0.4,1,0,1.4C7.6,8.3,6.9,8.3,6.5,8z"/>
</g>
<path d="M62.1,6.1l-1.5,1.5c0,0,0,0,0,0L55.2,13H51V8.8l5.7-5.7l0,0l1.2-1.2c-4.6-2.7-10.6-2.1-14.6,1.8C41,6,39.8,9,39.8,12.2
	c0,1.4,0.3,2.8,0.8,4.2L16.4,40.6c-1.3-0.5-2.7-0.8-4.2-0.8C9,39.8,6,41,3.7,43.3c-3.9,3.9-4.6,10-1.8,14.6L3,56.7l0,0L8.8,51H13
	v4.2L7.6,61c0,0,0,0,0,0l-1.5,1.3c1.8,1.1,3.9,1.6,6.1,1.6c3.2,0,6.2-1.3,8.5-3.6c3.4-3.4,4.3-8.4,2.7-12.7l24.2-24.2
	c1.3,0.5,2.7,0.8,4.2,0.8c3.1,0,6.1-1.2,8.5-3.5c2.3-2.3,3.5-5.3,3.5-8.5C63.8,10,63.2,7.9,62.1,6.1z M58.9,19.3
	c-3.2,3.2-7.9,3.8-11.7,1.8l-1.5,1.5h0L22.5,45.7v0l-1.5,1.5c2,3.8,1.4,8.5-1.8,11.7c-1.9,1.9-4.4,2.9-7.1,2.9
	c-0.9,0-1.7-0.1-2.6-0.3l5.1-5.1l0,0l0.3-0.3V49H7.9l-2,2h0l-3.4,3.4c-0.9-3.3,0-7,2.6-9.7c1.9-1.9,4.4-2.9,7.1-2.9
	c1.6,0,3.2,0.4,4.6,1.1l1.5-1.5c0,0,0,0,0,0l23.2-23.2l0,0l1.5-1.5c-0.7-1.4-1.1-3-1.1-4.6c0-2.7,1-5.2,2.9-7.1
	c1.9-1.9,4.5-2.9,7.1-2.9c0.9,0,1.7,0.1,2.6,0.3L51,5.9v0l-2,2V15h7.1l0.3-0.3l0,0l5.1-5.1c0.2,0.8,0.3,1.7,0.3,2.6
	C61.8,14.9,60.8,17.4,58.9,19.3z"/>
</svg>
