<?xml version="1.0" encoding="utf-8"?>
<!-- Generator: Adobe Illustrator 20.1.0, SVG Export Plug-In . SVG Version: 6.00 Build 0)  -->
<svg version="1.1" id="Слой_3" xmlns="http://www.w3.org/2000/svg" xmlns:xlink="http://www.w3.org/1999/xlink" x="0px" y="0px"
	 viewBox="0 0 48 64" style="enable-background:new 0 0 48 64;" xml:space="preserve">
<g>
	<g>
		<path d="M23.3,13.3c-0.4,0.4-0.4,1,0,1.4c0.2,0.2,0.4,0.3,0.7,0.3c0.3,0,0.5-0.1,0.7-0.3c3-3,1.4-5.8,0.1-7.7
			c-1.4-2.2-2-3.4-0.1-5.3c0.4-0.4,0.4-1,0-1.4s-1-0.4-1.4,0c-3,3-1.4,5.8-0.1,7.7C24.5,10.2,25.1,11.5,23.3,13.3z"/>
		<path d="M30.7,13.3c-0.4,0.4-0.4,1,0,1.4c0.2,0.2,0.5,0.3,0.7,0.3c0.2,0,0.5-0.1,0.7-0.3c3-3,1.4-5.8,0.1-7.7
			c-1.4-2.2-2-3.4-0.1-5.3c0.4-0.4,0.4-1,0-1.4c-0.4-0.4-1-0.4-1.4,0c-3,3-1.3,5.7-0.1,7.7C31.9,10.2,32.6,11.5,30.7,13.3z"/>
		<path d="M15.9,13.3c-0.4,0.4-0.4,1,0,1.4c0.2,0.2,0.5,0.3,0.7,0.3c0.2,0,0.5-0.1,0.7-0.3c3-3,1.4-5.8,0.1-7.7
			c-1.4-2.2-2-3.4-0.1-5.3c0.4-0.4,0.4-1,0-1.4c-0.4-0.4-1-0.4-1.4,0c-3,3-1.4,5.8-0.1,7.7C17.1,10.2,17.7,11.5,15.9,13.3z"/>
	</g>
	<path d="M48,31v-8c0-0.6-0.4-1-1-1l0,0c0-1.1-0.9-2-2-2h-6c-1.1,0-2,0.9-2,2h-2c0-1.1-0.9-2-2-2h-6c-1.1,0-2,0.9-2,2h-2
		c0-1.1-0.9-2-2-2h-6c-1.1,0-2,0.9-2,2h-2c0-1.1-0.9-2-2-2H3c-1.1,0-2,0.9-2,2l0,0c-0.6,0-1,0.4-1,1v8c0,0.6,0.4,1,1,1l0,0v20l0,0
		c-0.6,0-1,0.4-1,1v8c0,0.6,0.4,1,1,1l0,0c0,1.1,0.9,2,2,2h6c1.1,0,2-0.9,2-2h2c0,1.1,0.9,2,2,2h6c1.1,0,2-0.9,2-2h2
		c0,1.1,0.9,2,2,2h6c1.1,0,2-0.9,2-2h2c0,1.1,0.9,2,2,2h6c1.1,0,2-0.9,2-2l0,0c0.6,0,1-0.4,1-1v-8c0-0.6-0.4-1-1-1l0,0V32l0,0
		C47.6,32,48,31.6,48,31z M35,32h2v20h-2V32z M37,24v6h-2v-6H37z M23,32h2v20h-2V32z M25,24v6h-2v-6H25z M11,32h2v20h-2V32z M13,24
		v6h-2v-6H13z M9,62H3v-1l0,0l0,0v-8l0,0l0,0V31l0,0l0,0v-8l0,0l0,0v-1h6V62z M11,60v-6h2v6H11z M21,62h-6V22h6V62z M23,60v-6h2v6
		H23z M27,62v-1l0,0l0,0v-8l0,0l0,0V31l0,0l0,0v-8l0,0l0,0v-1h6v1l0,0l0,0v39H27z M35,60v-6h2v6H35z M45,62h-6V22h6V62z"/>
</g>
</svg>
