<?xml version="1.0" encoding="utf-8"?>
<!-- Generator: Adobe Illustrator 19.0.1, SVG Export Plug-In . SVG Version: 6.00 Build 0)  -->
<svg version="1.1" id="Слой_2" xmlns="http://www.w3.org/2000/svg" xmlns:xlink="http://www.w3.org/1999/xlink" x="0px" y="0px"
	 viewBox="0 0 53 64" style="enable-background:new 0 0 53 64;" xml:space="preserve">
<g>
	<path d="M51,6h-4c-1.1,0-2,0.9-2,2v5h-7.3c-1.2-1.4-2.8-2.3-4.7-2.8V7.4c0.6-0.3,1-0.8,1.4-1.3l4.8,1.2c0.3,0.1,0.5,0.1,0.8,0.1
		c0.6,0,1.3-0.2,1.8-0.6C42.6,6.2,43,5.3,43,4.4V3.6c0-0.9-0.4-1.8-1.2-2.4c-0.8-0.6-1.7-0.8-2.6-0.5l-4.9,1.2C33.7,0.8,32.4,0,31,0
		s-2.7,0.8-3.4,1.9l-4.8-1.2c-0.9-0.2-1.9-0.1-2.6,0.5C19.4,1.8,19,2.7,19,3.6v0.8c0,0.9,0.4,1.8,1.2,2.4c0.5,0.4,1.2,0.6,1.8,0.6
		c0.3,0,0.5,0,0.8-0.1l4.9-1.2c0.3,0.5,0.8,1,1.4,1.3v2.8c-1.8,0.4-3.5,1.4-4.7,2.8H19c-8.3,0-15,6.7-15,15v6h12v-4c0-2.8,2.2-5,5-5
		h3.3c1.6,1.8,4,3,6.7,3s5-1.2,6.7-3H45v5c0,1.1,0.9,2,2,2h4c1.1,0,2-0.9,2-2V8C53,6.9,52.1,6,51,6z M39.7,2.7
		c0.3-0.1,0.6,0,0.9,0.2C40.9,3,41,3.3,41,3.6v0.8c0,0.3-0.1,0.6-0.4,0.8c-0.3,0.2-0.6,0.3-0.9,0.2L35,4.2c0-0.1,0-0.1,0-0.2
		s0-0.1,0-0.2L39.7,2.7z M31,2c1.1,0,2,0.9,2,2s-0.9,2-2,2s-2-0.9-2-2S29.9,2,31,2z M22.3,5.3c-0.3,0.1-0.6,0-0.9-0.2
		C21.1,5,21,4.7,21,4.4V3.6c0-0.3,0.1-0.6,0.4-0.8c0.2-0.2,0.6-0.3,0.9-0.2L27,3.8c0,0.1,0,0.1,0,0.2s0,0.1,0,0.2L22.3,5.3z M21,23
		c-3.9,0-7,3.1-7,7v2H6v-4c0-7.2,5.8-13,13-13h3.9c-0.6,1.2-0.9,2.6-0.9,4s0.3,2.8,0.9,4H21z M31,26c-3.9,0-7-3.1-7-7s3.1-7,7-7
		s7,3.1,7,7S34.9,26,31,26z M39.1,23c0.6-1.2,0.9-2.6,0.9-4s-0.3-2.8-0.9-4H45v8H39.1z M51,30h-4V8h4L51,30z"/>
	<path d="M10,36.4l-0.8,1C8.3,38.5,0,48.8,0,54c0,5.5,4.5,10,10,10s10-4.5,10-10c0-5.2-8.3-15.5-9.2-16.6L10,36.4z M10,62
		c-4.4,0-8-3.6-8-8c0-3.4,5.2-10.8,8-14.4c2.8,3.6,8,11,8,14.4C18,58.4,14.4,62,10,62z"/>
</g>
</svg>
