<?xml version="1.0" encoding="utf-8"?>
<!-- Generator: Adobe Illustrator 19.0.1, SVG Export Plug-In . SVG Version: 6.00 Build 0)  -->
<svg version="1.1" id="Слой_1" xmlns="http://www.w3.org/2000/svg" xmlns:xlink="http://www.w3.org/1999/xlink" x="0px" y="0px"
	 viewBox="0 0 64 64" style="enable-background:new 0 0 64 64;" xml:space="preserve">
<g>
	<path d="M61,64H3V16H0V9.7l32-9.3l32,9.3V16h-3V64z M5,62h54V14h3v-2.7L32,2.5L2,11.3V14h3V62z"/>
	<path d="M17,20H8v-6h9V20z M10,18h5v-2h-5V18z"/>
	<path d="M30,20h-9v-6h9V20z M23,18h5v-2h-5V18z"/>
	<path d="M43,20h-9v-6h9V20z M36,18h5v-2h-5V18z"/>
	<path d="M56,20h-9v-6h9V20z M49,18h5v-2h-5V18z"/>
	<polygon points="56,62 54,62 54,25 10,25 10,62 8,62 8,23 56,23 	"/>
	<path d="M23,61H11v-8h12V61z M13,59h8v-4h-8V59z"/>
	<path d="M36,61H24v-8h12V61z M26,59h8v-4h-8V59z"/>
	<path d="M49,61H37v-8h12V61z M39,59h8v-4h-8V59z"/>
	<path d="M23,52H11v-8h12V52z M13,50h8v-4h-8V50z"/>
	<path d="M36,52H24v-8h12V52z M26,50h8v-4h-8V50z"/>
	<path d="M23,43H11v-8h12V43z M13,41h8v-4h-8V41z"/>
</g>
</svg>
