<?xml version="1.0" encoding="utf-8"?>
<!-- Generator: Adobe Illustrator 19.0.1, SVG Export Plug-In . SVG Version: 6.00 Build 0)  -->
<svg version="1.1" id="Слой_2" xmlns="http://www.w3.org/2000/svg" xmlns:xlink="http://www.w3.org/1999/xlink" x="0px" y="0px"
	 viewBox="30 -26 44 64" style="enable-background:new 30 -26 44 64;" xml:space="preserve">
<image style="display:none;overflow:visible;opacity:0.47;" width="512" height="512" xlink:href="../../../Мои Яндекс.Картинки/14975.png"  transform="matrix(0.1262 0 0 0.1262 19.693 -26.307)">
</image>
<path class="st0" d="M68,38H36c-3.3,0-6-2.7-6-6v-52c0-3.3,2.7-6,6-6h32c3.3,0,6,2.7,6,6v52C74,35.3,71.3,38,68,38z M36-24
	c-2.2,0-4,1.8-4,4v52c0,2.2,1.8,4,4,4h32c2.2,0,4-1.8,4-4v-52c0-2.2-1.8-4-4-4H36z"/>
<g>
	<path class="st0" d="M67-9H37c-1.1,0-2-0.9-2-2v-6c0-1.1,0.9-2,2-2h30c1.1,0,2,0.9,2,2v6C69-9.9,68.1-9,67-9z M37-17v6h30v-6H37z"
		/>
	<path class="st0" d="M55,9h-6c-1.1,0-2-0.9-2-2V1c0-1.1,0.9-2,2-2h6c1.1,0,2,0.9,2,2v6C57,8.1,56.1,9,55,9z M55,7v1V7L55,7L55,7z
		 M49,1v6h6l0-6H49z"/>
	<path class="st0" d="M55,21h-6c-1.1,0-2-0.9-2-2v-6c0-1.1,0.9-2,2-2h6c1.1,0,2,0.9,2,2v6C57,20.1,56.1,21,55,21z M55,19v1V19L55,19
		L55,19z M49,13v6h6l0-6H49z"/>
	<path class="st0" d="M55,33h-6c-1.1,0-2-0.9-2-2v-6c0-1.1,0.9-2,2-2h6c1.1,0,2,0.9,2,2v6C57,32.1,56.1,33,55,33z M55,31v1V31L55,31
		L55,31z M49,25v6h6l0-6H49z"/>
	<path class="st0" d="M43,33h-6c-1.1,0-2-0.9-2-2v-6c0-1.1,0.9-2,2-2h6c1.1,0,2,0.9,2,2v6C45,32.1,44.1,33,43,33z M43,31v1V31L43,31
		L43,31z M37,25v6h6l0-6H37z"/>
	<path class="st0" d="M43,21h-6c-1.1,0-2-0.9-2-2v-6c0-1.1,0.9-2,2-2h6c1.1,0,2,0.9,2,2v6C45,20.1,44.1,21,43,21z M43,19v1V19L43,19
		L43,19z M37,13v6h6l0-6H37z"/>
	<path class="st0" d="M43,9h-6c-1.1,0-2-0.9-2-2V1c0-1.1,0.9-2,2-2h6c1.1,0,2,0.9,2,2v6C45,8.1,44.1,9,43,9z M43,7v1V7L43,7L43,7z
		 M37,1v6h6l0-6H37z"/>
	<path class="st0" d="M67,9h-6c-1.1,0-2-0.9-2-2V1c0-1.1,0.9-2,2-2h6c1.1,0,2,0.9,2,2v6C69,8.1,68.1,9,67,9z M67,7v1V7L67,7L67,7z
		 M61,1v6h6l0-6H61z"/>
</g>
<path class="st0" d="M67,33h-6c-1.1,0-2-0.9-2-2V13c0-1.1,0.9-2,2-2h6c1.1,0,2,0.9,2,2v18C69,32.1,68.1,33,67,33z M67,31v1V31L67,31
	L67,31z M61,13v18h6l0-18H61z"/>
</svg>
