<?xml version="1.0" encoding="utf-8"?>
<!-- Generator: Adobe Illustrator 19.0.1, SVG Export Plug-In . SVG Version: 6.00 Build 0)  -->
<svg version="1.1" id="Слой_2" xmlns="http://www.w3.org/2000/svg" xmlns:xlink="http://www.w3.org/1999/xlink" x="0px" y="0px"
	 viewBox="0 0 64 64" style="enable-background:new 0 0 64 64;" xml:space="preserve">
<style type="text/css">
	.st0{fill:#47B900;}
	.st1{fill:#FFFFFF;}
</style>
<g>
	<path class="st0" d="M6.5,54V31.1h5.2l3.2,15.6l3.1-15.6h5.3V54h-3.3V36l-3.5,18h-3.4L9.8,36v18H6.5z"/>
	<path class="st0" d="M26.8,31.1h7c1.9,0,3.2,0.2,4,0.6s1.4,1,2,2c0.5,0.9,0.8,2,0.8,3.2c0,1.1-0.2,2.1-0.7,3c-0.5,0.9-1,1.5-1.8,2
		c1,0.4,1.8,1.1,2.4,2c0.6,1,0.9,2.1,0.9,3.5c0,1.7-0.4,3.1-1.1,4.2c-0.7,1.1-1.6,1.9-2.6,2.1c-0.7,0.2-2.3,0.3-4.9,0.3h-5.9V31.1z
		 M30.3,34.9v5.3h2.3c1.4,0,2.2,0,2.6-0.1c0.6-0.1,1.1-0.4,1.4-0.8c0.3-0.4,0.5-1,0.5-1.8c0-0.7-0.1-1.2-0.4-1.6
		c-0.3-0.4-0.6-0.7-1-0.8c-0.4-0.1-1.5-0.2-3.4-0.2H30.3z M30.3,44v6.1h3.3c1.4,0,2.3-0.1,2.8-0.2c0.4-0.2,0.7-0.5,1-0.9
		c0.3-0.5,0.4-1.1,0.4-1.8c0-0.7-0.1-1.4-0.4-1.8c-0.3-0.5-0.7-0.8-1.2-1c-0.5-0.2-1.5-0.3-3-0.3H30.3z"/>
	<path class="st0" d="M44.3,54V31.1h12.9V35h-9.4v5.1h8.7v3.9h-8.7v6.2h9.7V54H44.3z"/>
</g>
<g>
	<polygon class="st1" points="28.6,28.9 19,19.3 9.4,28.9 6.6,26.1 19,13.7 31.4,26.1 	"/>
	<polygon class="st0" points="41.1,15.7 32,6.6 22.9,15.7 20.1,12.8 32,0.9 43.9,12.8 	"/>
	<polygon class="st1" points="54.6,28.9 45,19.3 35.4,28.9 32.6,26.1 45,13.7 57.4,26.1 	"/>
</g>
<g>
	<path class="st1" d="M10.6,61.1c0-0.1,0-0.1,0-0.2c0-0.1,0-0.2,0-0.2h0c-0.1,0.1-0.2,0.1-0.3,0.2c-0.1,0.1-0.2,0.1-0.4,0.2
		c-0.1,0-0.3,0.1-0.5,0.1c-0.2,0-0.3,0-0.5,0c-0.3,0-0.6,0-0.9-0.1c-0.3-0.1-0.6-0.2-0.8-0.4c-0.2-0.2-0.4-0.4-0.6-0.7
		c-0.1-0.3-0.2-0.7-0.2-1.1s0.1-0.8,0.2-1.1C6.8,57.3,7,57,7.2,56.8s0.5-0.4,0.8-0.5c0.3-0.1,0.6-0.2,1-0.2c0.4,0,0.7,0.1,1,0.2
		c0.3,0.1,0.5,0.3,0.7,0.5h0l0.1-0.5H12v4.8c0,0.3,0,0.5-0.1,0.7c-0.1,0.2-0.1,0.4-0.2,0.5c-0.1,0.2-0.3,0.3-0.5,0.5
		c-0.2,0.1-0.4,0.2-0.7,0.3c-0.3,0.1-0.5,0.2-0.8,0.2c-0.3,0-0.6,0.1-1,0.1c-0.2,0-0.4,0-0.6,0c-0.2,0-0.4,0-0.5,0
		c-0.2,0-0.3,0-0.4-0.1c-0.1,0-0.3-0.1-0.3-0.1v-0.9c0.3,0.1,0.5,0.1,0.8,0.2c0.3,0,0.6,0.1,0.9,0.1c0.6,0,1.1-0.1,1.5-0.3
		c0.4-0.2,0.5-0.5,0.5-0.9V61.1z M9.3,60.2c0.1,0,0.3,0,0.4,0s0.2-0.1,0.4-0.1s0.2-0.1,0.3-0.2s0.2-0.1,0.2-0.2v-2.1
		c-0.2-0.1-0.3-0.3-0.6-0.4c-0.2-0.1-0.5-0.1-0.7-0.2c-0.1,0-0.2,0-0.3,0c-0.1,0-0.2,0-0.3,0.1c-0.1,0-0.2,0.1-0.3,0.2
		c-0.1,0.1-0.2,0.2-0.2,0.3S8,57.9,8,58.1c0,0.2-0.1,0.4-0.1,0.6c0,0.2,0,0.5,0.1,0.6c0.1,0.2,0.1,0.3,0.3,0.5
		c0.1,0.1,0.3,0.2,0.4,0.3C8.9,60.2,9.1,60.2,9.3,60.2z"/>
	<path class="st1" d="M22.2,57.2h-0.1c-0.4,0-0.8,0.1-1.2,0.2c-0.3,0.1-0.6,0.3-0.8,0.5V61h-1.4v-4.7h1.2l0.1,0.7h0
		c0.2-0.2,0.4-0.4,0.7-0.6c0.3-0.1,0.7-0.2,1.1-0.2c0.1,0,0.3,0,0.4,0V57.2z"/>
	<path class="st1" d="M33.7,58.6c0,0.4-0.1,0.7-0.2,1c-0.1,0.3-0.3,0.6-0.6,0.8s-0.6,0.4-0.9,0.5c-0.4,0.1-0.8,0.2-1.2,0.2
		c-0.5,0-0.9-0.1-1.2-0.2c-0.4-0.1-0.7-0.3-0.9-0.5c-0.3-0.2-0.4-0.5-0.6-0.8c-0.1-0.3-0.2-0.6-0.2-1s0.1-0.7,0.2-1s0.3-0.6,0.6-0.8
		c0.3-0.2,0.6-0.4,0.9-0.5c0.4-0.1,0.8-0.2,1.2-0.2c0.5,0,0.9,0.1,1.2,0.2c0.4,0.1,0.7,0.3,0.9,0.5s0.4,0.5,0.6,0.8
		C33.7,57.9,33.7,58.3,33.7,58.6z M32.2,58.6c0-0.3,0-0.5-0.1-0.7c-0.1-0.2-0.2-0.4-0.3-0.5c-0.1-0.1-0.3-0.2-0.5-0.3
		s-0.4-0.1-0.6-0.1c-0.2,0-0.4,0-0.6,0.1s-0.3,0.2-0.5,0.3s-0.2,0.3-0.3,0.5c-0.1,0.2-0.1,0.4-0.1,0.7s0,0.5,0.1,0.7
		c0.1,0.2,0.2,0.4,0.3,0.5c0.1,0.1,0.3,0.2,0.5,0.3c0.2,0.1,0.4,0.1,0.6,0.1s0.4,0,0.6-0.1c0.2-0.1,0.3-0.2,0.5-0.3
		c0.1-0.1,0.2-0.3,0.3-0.5C32.2,59.1,32.2,58.9,32.2,58.6z"/>
	<path class="st1" d="M42.7,61.1c-0.6,0-1.1-0.1-1.5-0.2c-0.4-0.2-0.7-0.4-0.9-0.7c-0.1-0.1-0.2-0.3-0.2-0.5
		c-0.1-0.2-0.1-0.4-0.1-0.6v-2.9h1.4V59c0,0.2,0,0.3,0,0.4c0,0.1,0.1,0.2,0.1,0.3c0.1,0.1,0.2,0.3,0.4,0.3c0.2,0.1,0.4,0.1,0.6,0.1
		c0.3,0,0.5,0,0.7-0.1c0.2-0.1,0.3-0.2,0.4-0.4c0.1-0.2,0.1-0.4,0.1-0.6v-2.8h1.4v2.9c0,0.4-0.1,0.7-0.2,1c-0.1,0.1-0.2,0.3-0.4,0.4
		c-0.1,0.1-0.3,0.2-0.5,0.3c-0.2,0.1-0.4,0.2-0.7,0.2C43.3,61.1,43,61.1,42.7,61.1z"/>
	<path class="st1" d="M54.9,61.1c-0.3,0-0.6,0-0.9-0.1c-0.3-0.1-0.5-0.2-0.6-0.3h0c0,0.1,0,0.2,0,0.3c0,0.1,0,0.2,0,0.4v2H52v-7h1.3
		l0.1,0.5h0c0.2-0.2,0.4-0.3,0.7-0.5c0.3-0.1,0.6-0.2,1-0.2c0.3,0,0.6,0,0.9,0.1c0.3,0.1,0.6,0.2,0.8,0.4s0.4,0.4,0.6,0.8
		s0.2,0.7,0.2,1.1c0,0.4-0.1,0.8-0.2,1.1c-0.2,0.3-0.4,0.6-0.6,0.8c-0.3,0.2-0.5,0.4-0.8,0.5S55.2,61.1,54.9,61.1z M54.7,57.1
		c-0.3,0-0.5,0.1-0.7,0.1c-0.2,0.1-0.4,0.2-0.6,0.4v2.1c0.1,0.1,0.1,0.1,0.2,0.2c0.1,0.1,0.2,0.1,0.3,0.2c0.1,0,0.2,0.1,0.3,0.1
		c0.1,0,0.3,0,0.4,0c0.2,0,0.4,0,0.6-0.1c0.2-0.1,0.3-0.2,0.4-0.3c0.1-0.1,0.2-0.3,0.3-0.5c0.1-0.2,0.1-0.4,0.1-0.6
		c0-0.3,0-0.5-0.1-0.7s-0.2-0.4-0.3-0.5c-0.1-0.1-0.3-0.2-0.4-0.3C55.1,57.1,54.9,57.1,54.7,57.1z"/>
</g>
</svg>
