<?xml version="1.0" encoding="utf-8"?>
<!-- Generator: Adobe Illustrator 19.0.1, SVG Export Plug-In . SVG Version: 6.00 Build 0)  -->
<svg version="1.1" id="Слой_2" xmlns="http://www.w3.org/2000/svg" xmlns:xlink="http://www.w3.org/1999/xlink" x="0px" y="0px"
	 viewBox="0 0 64 64" style="enable-background:new 0 0 64 64;" xml:space="preserve">
<g>
	<path d="M59.7,47.9C62.4,43.2,64,37.8,64,32c0-5.8-1.6-11.2-4.3-15.9c0,0,0-0.1,0-0.1c0,0,0,0-0.1-0.1c-2.8-4.8-6.8-8.8-11.6-11.6
		c0,0,0,0-0.1-0.1c0,0-0.1,0-0.1,0C43.2,1.6,37.8,0,32,0c-5.8,0-11.2,1.6-15.9,4.3c0,0-0.1,0-0.1,0c0,0,0,0-0.1,0.1
		c-4.8,2.8-8.8,6.8-11.6,11.6c0,0,0,0-0.1,0.1c0,0,0,0.1,0,0.1C1.6,20.8,0,26.2,0,32c0,5.8,1.6,11.2,4.3,15.9c0,0,0,0.1,0,0.1
		c0,0,0,0.1,0.1,0.1c2.8,4.8,6.8,8.8,11.6,11.6c0,0,0,0,0.1,0.1c0,0,0.1,0,0.1,0C20.8,62.5,26.2,64,32,64c5.8,0,11.2-1.5,15.9-4.2
		c0,0,0.1,0,0.1,0c0,0,0,0,0.1-0.1c4.8-2.8,8.8-6.8,11.6-11.6C59.7,48.1,59.7,48,59.7,47.9C59.7,48,59.7,47.9,59.7,47.9z M47.9,57.5
		l-1-1.7c-0.3-0.5-0.9-0.6-1.4-0.4c-0.5,0.3-0.6,0.9-0.4,1.4l1,1.7c-3.9,2.1-8.4,3.4-13.1,3.5v-2c0-0.6-0.4-1-1-1c-0.6,0-1,0.4-1,1
		v2c-4.7-0.2-9.2-1.4-13.1-3.5l1-1.7c0.3-0.5,0.1-1.1-0.4-1.4c-0.5-0.3-1.1-0.1-1.4,0.4l-1,1.7C12.3,55,9,51.7,6.5,47.9l1.7-1
		c0.5-0.3,0.6-0.9,0.4-1.4c-0.3-0.5-0.9-0.6-1.4-0.4l-1.7,1C3.4,42.2,2.2,37.7,2,33h2c0.6,0,1-0.4,1-1s-0.4-1-1-1H2
		c0.2-4.7,1.4-9.2,3.5-13.1l1.7,1C7.4,19,7.6,19,7.8,19c0.3,0,0.7-0.2,0.9-0.5c0.3-0.5,0.1-1.1-0.4-1.4l-1.7-1
		C9,12.3,12.3,9,16.1,6.5l1,1.7c0.2,0.3,0.5,0.5,0.9,0.5c0.2,0,0.3,0,0.5-0.1c0.5-0.3,0.6-0.9,0.4-1.4l-1-1.7
		C21.8,3.4,26.3,2.2,31,2v2c0,0.6,0.4,1,1,1c0.6,0,1-0.4,1-1V2c4.7,0.2,9.2,1.4,13.1,3.5l-1,1.7c-0.3,0.5-0.1,1.1,0.4,1.4
		c0.2,0.1,0.3,0.1,0.5,0.1c0.3,0,0.7-0.2,0.9-0.5l1-1.7c3.9,2.4,7.2,5.7,9.6,9.6l-1.7,1c-0.5,0.3-0.6,0.9-0.4,1.4
		c0.2,0.3,0.5,0.5,0.9,0.5c0.2,0,0.3,0,0.5-0.1l1.7-1c2.1,3.9,3.4,8.4,3.5,13.1h-2c-0.6,0-1,0.4-1,1s0.4,1,1,1h2
		c-0.2,4.7-1.4,9.2-3.5,13.1l-1.7-1c-0.5-0.3-1.1-0.1-1.4,0.4c-0.3,0.5-0.1,1.1,0.4,1.4l1.7,1C55,51.7,51.7,55,47.9,57.5z"/>
	<path d="M32,8c-0.6,0-1,0.4-1,1v22H18c-0.6,0-1,0.4-1,1s0.4,1,1,1h14c0.6,0,1-0.4,1-1V9C33,8.4,32.6,8,32,8z"/>
</g>
</svg>
