<?xml version="1.0" encoding="utf-8"?>
<!-- Generator: Adobe Illustrator 20.1.0, SVG Export Plug-In . SVG Version: 6.00 Build 0)  -->
<svg version="1.1" id="Layer_1" xmlns="http://www.w3.org/2000/svg" xmlns:xlink="http://www.w3.org/1999/xlink" x="0px" y="0px"
	 viewBox="0 0 64 11" style="enable-background:new 0 0 64 11;" xml:space="preserve">
<style type="text/css">
	.st0{fill:#FFFFFF;}
	.st1{fill:#C6C7C7;}
	.st2{fill:#FEFEFE;}
	.st3{fill:#141515;}
	.st4{fill:#0096CB;}
</style>
<g>
	<rect class="st0" width="64" height="11"/>
	<g>
		<path class="st1" d="M11.82,0.55l-0.08-0.08L1.96,10.8c-0.04,0.04-0.04,0.06-0.02,0.1c0.02,0.02,0.04,0.06,0.1,0.06h4.24
			l0.06-0.04l3.61-3.46v2.48c0,0.04,0.04,0.06,0.06,0.08h0.1l2.95-2.27v3.11l0.02,0.08l0.08,0.04h2.52l0.06-0.04l0.04-0.08V0.55
			c0-0.04-0.02-0.08-0.06-0.1s-0.08-0.02-0.1,0.02l-3.71,3.52V0.55c0-0.04-0.02-0.08-0.06-0.1s-0.08-0.02-0.1,0.02L11.82,0.55h-0.1
			v3.67c0,0.04,0.02,0.06,0.04,0.08c0.04,0.02,0.08,0.02,0.1-0.02l3.73-3.5v9.98h-2.34V7.54c0-0.04-0.02-0.06-0.04-0.08h-0.1
			l-2.95,2.27v-2.5c0-0.04-0.04-0.08-0.06-0.1c-0.04-0.02-0.08-0.02-0.1,0.02l-3.75,3.61H2.27L11.9,0.62L11.82,0.55h-0.1H11.82z"/>
		<polygon class="st1" points="11.82,4.22 11.82,0.55 2.07,10.82 2.07,10.86 6.29,10.86 10.06,7.23 10.06,9.93 13.16,7.54 
			13.16,10.86 15.7,10.86 15.7,0.55 		"/>
		<polygon class="st1" points="23.63,10.84 23.73,10.84 23.73,4.11 24.8,4.11 24.8,6.7 24.84,6.76 24.9,6.8 27.38,6.8 27.44,6.76 
			27.48,6.7 27.48,4.11 28.55,4.11 28.55,10.73 27.48,10.73 27.48,7.84 27.44,7.78 27.38,7.76 24.9,7.76 24.84,7.78 24.8,7.84 
			24.8,10.73 23.63,10.73 23.63,10.84 23.73,10.84 23.63,10.84 23.63,10.94 24.9,10.94 24.96,10.92 25,10.84 25,7.95 27.28,7.95 
			27.28,10.84 27.3,10.92 27.38,10.94 28.65,10.94 28.71,10.92 28.75,10.84 28.75,4.01 28.71,3.95 28.65,3.91 27.38,3.91 27.3,3.95 
			27.28,4.01 27.28,6.61 25,6.61 25,4.01 24.96,3.95 24.9,3.91 23.63,3.91 23.57,3.95 23.53,4.01 23.53,10.84 23.57,10.92 
			23.63,10.94 		"/>
		<polygon class="st1" points="27.38,4.01 27.38,6.7 24.9,6.7 24.9,4.01 23.63,4.01 23.63,10.84 24.9,10.84 24.9,7.84 27.38,7.84 
			27.38,10.84 28.65,10.84 28.65,4.01 		"/>
		<path class="st1" d="M30,4.01v0.1h1.11v4.47c0,0.04,0.04,0.08,0.06,0.1c0.04,0.02,0.1-0.02,0.12-0.04l2.54-4.51h1.11v6.62h-0.98
			V6.36c0-0.04-0.04-0.1-0.08-0.1c-0.04-0.02-0.1,0-0.1,0.04l-2.56,4.45h-1.11V3.99H30v0.1V4.01h-0.1v6.87l0.04,0.06l0.08,0.04h1.27
			l0.1-0.04l2.38-4.16v4.12l0.04,0.06L33.87,11h1.21l0.06-0.04l0.04-0.06V4.01l-0.04-0.06l-0.06-0.04h-1.29
			c-0.04,0-0.06,0.02-0.08,0.04l-2.4,4.22V4.01l-0.04-0.06l-0.06-0.04h-1.19l-0.08,0.04L29.9,4.01H30z"/>
		<polygon class="st1" points="33.77,4.01 31.19,8.58 31.19,4.01 30,4.01 30,10.86 31.27,10.86 33.83,6.37 33.83,10.86 35.04,10.86 
			35.04,4.01 		"/>
		<path class="st1" d="M36.42,10.84h0.1V4.12h1.97l1.23,4.59c0.02,0.04,0.04,0.06,0.1,0.06c0.04,0,0.08-0.04,0.1-0.06l1.23-4.59
			h1.97v6.62h-1.13V5.47c0-0.04-0.04-0.1-0.1-0.1c-0.04-0.02-0.1,0.02-0.1,0.06l-1.37,5.31h-1.23l-1.35-5.31
			c-0.02-0.04-0.06-0.08-0.1-0.06c-0.04,0-0.08,0.04-0.08,0.1l-0.02,5.29h-1.21L36.42,10.84h0.1H36.42v0.1h1.31
			c0.04,0,0.1-0.04,0.1-0.1V6.23l1.19,4.63c0.02,0.04,0.04,0.08,0.1,0.08h1.37c0.04,0,0.08-0.04,0.1-0.08l1.19-4.63v4.59
			c0,0.06,0.04,0.1,0.1,0.1h1.31l0.06-0.04l0.04-0.08V4.02l-0.04-0.06l-0.06-0.04h-2.13c-0.04,0-0.1,0.04-0.1,0.08l-1.17,4.3
			L38.62,4c-0.02-0.04-0.06-0.08-0.1-0.08h-2.13l-0.08,0.04l-0.04,0.06v6.82l0.04,0.08l0.08,0.04v-0.12H36.42z"/>
		<polygon class="st1" points="41.07,4.01 39.8,8.66 38.55,4.01 36.42,4.01 36.42,10.84 37.73,10.84 37.73,5.47 39.1,10.84 
			40.49,10.84 41.87,5.47 41.89,10.84 43.2,10.84 43.2,4.01 		"/>
		<path class="st1" d="M49.57,10.86v-0.1h-1.13l-0.45-1.5c-0.02-0.04-0.06-0.08-0.1-0.08H45.7c-0.04,0-0.08,0.04-0.1,0.08l-0.43,1.5
			h-0.98l2.07-6.64h1.05l2.19,6.76L49.57,10.86v-0.1V10.86l0.1-0.04l-2.21-6.84c0-0.04-0.04-0.06-0.1-0.06h-1.17
			c-0.04,0-0.08,0.04-0.1,0.06l-2.13,6.84l0.02,0.1l0.08,0.04h1.17c0.04,0,0.1-0.04,0.1-0.08l0.43-1.5h2.07l0.45,1.5
			c0.02,0.04,0.04,0.08,0.1,0.08h1.21l0.08-0.04l0.02-0.1L49.57,10.86z M47.54,8.13L47.54,8.13l0.1-0.04l-0.76-2.54
			c-0.02-0.04-0.04-0.06-0.1-0.06c-0.04,0-0.1,0.04-0.1,0.06l-0.74,2.54l0.02,0.1l0.08,0.04h1.5l0.08-0.04l0.02-0.1L47.54,8.13v-0.1
			h-1.37l0.61-2.09l0.66,2.21L47.54,8.13v-0.1V8.13z"/>
		<path class="st1" d="M46.77,5.59l0.02,0.04l0.74,2.5h-0.74h-0.76L46.77,5.59z M46.79,4.01L46.79,4.01H46.2l-2.13,6.84h1.17
			l0.47-1.56h1.11h1.11l0.47,1.56h1.21L47.4,4.01C47.38,4.01,46.79,4.01,46.79,4.01z"/>
		<path class="st1" d="M59.84,8.34v0.1h1.35v-0.1l-0.1-0.02c-0.1,0.92-0.55,1.6-0.98,1.93c-0.41,0.35-0.92,0.51-1.58,0.51
			c-0.8,0-1.43-0.29-1.95-0.86c-0.51-0.59-0.76-1.39-0.78-2.42c0.02-1.11,0.27-1.93,0.78-2.52c0.53-0.59,1.19-0.9,2.03-0.9
			c0.74,0,1.31,0.23,1.78,0.7c0.12,0.12,0.27,0.39,0.39,0.68c0.1,0.29,0.2,0.64,0.23,0.9h0.1v-0.1H59.8v0.1l0.1-0.04
			c-0.08-0.35-0.16-0.74-0.41-0.96c-0.25-0.23-0.55-0.33-0.92-0.33c-0.47,0-0.9,0.2-1.19,0.57c-0.31,0.39-0.45,0.98-0.45,1.78
			c0,0.86,0.14,1.48,0.45,1.86c0.29,0.39,0.7,0.59,1.17,0.57c0.35,0.02,0.66-0.12,0.92-0.35c0.27-0.27,0.37-0.59,0.47-1.09
			L59.84,8.34v0.1V8.34l-0.1-0.02c-0.1,0.47-0.23,0.78-0.41,0.98c-0.23,0.23-0.47,0.33-0.8,0.33c-0.43,0-0.76-0.16-1.02-0.51
			c-0.27-0.33-0.41-0.9-0.41-1.74c0-0.78,0.14-1.33,0.41-1.66c0.27-0.35,0.59-0.49,1.05-0.49c0.31,0,0.57,0.1,0.8,0.29
			c0.18,0.16,0.29,0.51,0.35,0.86c0,0.04,0.04,0.08,0.1,0.08h1.31l0.06-0.04l0.04-0.08C61.18,6.05,61.1,5.7,60.99,5.4
			c-0.12-0.31-0.29-0.59-0.43-0.76c-0.49-0.49-1.15-0.76-1.93-0.74c-0.88-0.02-1.62,0.31-2.17,0.94c-0.55,0.64-0.82,1.54-0.82,2.66
			c0,1.05,0.27,1.93,0.82,2.54c0.53,0.64,1.25,0.94,2.09,0.94c0.68,0,1.25-0.18,1.72-0.55c0.45-0.37,0.92-1.09,1.05-2.07l-0.04-0.08
			L61.2,8.24h-1.35c-0.04,0-0.1,0.04-0.1,0.08L59.84,8.34z"/>
		<path class="st1" d="M58.59,3.95h0.06c0.74,0,1.35,0.25,1.8,0.74c0.29,0.29,0.59,1.07,0.66,1.64H59.8
			c-0.08-0.35-0.16-0.72-0.39-0.92c-0.23-0.2-0.51-0.29-0.86-0.29c-0.47,0-0.84,0.16-1.11,0.53C57.15,6,57.01,6.57,57.01,7.37
			c0,0.86,0.14,1.43,0.43,1.8s0.64,0.53,1.11,0.53c0.33,0,0.61-0.1,0.86-0.35c0.23-0.23,0.35-0.53,0.45-1.05h1.35
			c-0.1,0.94-0.57,1.64-0.98,1.99c-0.43,0.35-0.98,0.53-1.66,0.53c-0.82,0-1.5-0.31-2.03-0.92c-0.51-0.59-0.78-1.37-0.8-2.38V7.29
			c0.02-1.05,0.29-1.86,0.8-2.48C57.05,4.26,57.75,3.97,58.59,3.95L58.59,3.95z"/>
		<path class="st1" d="M17.11,4.01v0.1h1.13v4.45c0,0.04,0.04,0.08,0.08,0.1c0.04,0.02,0.08,0,0.1-0.04l2.56-4.49h1.13v6.62h-1V6.38
			c0-0.04-0.04-0.1-0.08-0.1s-0.1,0.02-0.1,0.04l-2.56,4.43h-1.15V4.01L17.11,4.01v0.1V4.01h-0.1v6.84l0.04,0.06l0.06,0.04h1.29
			l0.1-0.04l2.4-4.18v4.12l0.04,0.06L21,10.95h1.21l0.08-0.04l0.04-0.06V4.01l-0.04-0.06l-0.08-0.04h-1.29
			c-0.04,0-0.06,0.02-0.08,0.04l-2.42,4.24V4.01l-0.04-0.06L18.3,3.91h-1.21l-0.06,0.04l-0.04,0.06
			C16.99,4.01,17.11,4.01,17.11,4.01z"/>
		<polygon class="st1" points="20.92,4.01 18.32,8.58 18.32,4.01 17.11,4.01 17.11,10.86 18.4,10.86 21.01,6.39 21.01,10.86 
			22.21,10.86 22.21,4.01 		"/>
		<path class="st1" d="M50.52,10.82v0.1h1.33l0.06-0.04l0.04-0.08V7.93l1.89,2.95l0.08,0.04h1.62c0.04,0,0.06-0.02,0.08-0.04v-0.1
			L53.2,7.13l2.32-3.09l0.02-0.1C55.52,3.9,55.5,3.9,55.44,3.9h-1.56l-0.1,0.04l-1.82,2.64V4.02l-0.04-0.06l-0.06-0.04h-1.33
			l-0.06,0.04l-0.04,0.06v6.82l0.04,0.08l0.06,0.04L50.52,10.82h0.11v-6.7h1.13v2.81c0,0.04,0.04,0.08,0.08,0.1
			c0.04,0.02,0.08,0,0.1-0.04l1.99-2.87h1.31L53,7.11v0.1l2.34,3.55h-1.37l-2.05-3.2c-0.02-0.04-0.06-0.06-0.1-0.04
			s-0.08,0.06-0.08,0.1v3.11h-1.23v0.08h0.1h-0.09V10.82z"/>
		<polygon class="st1" points="53.86,4.01 51.85,6.92 51.85,4.01 50.52,4.01 50.52,10.82 51.85,10.82 51.85,7.62 53.9,10.86 
			55.54,10.86 53.06,7.17 55.41,4.01 		"/>
		<path class="st2" d="M1.19,0.47L0.64,1.41v0.02l0,0l0,0l0,0l0,0v0.02l0,0l0,0l0,0l0,0l0,0v0.02l0,0l0,0l0,0l0,0v0.02l0,0l0,0l0,0
			l0,0l0,0l0.02,0.02l0,0l0,0l0,0l0,0l0,0v0.02l0,0h0.02l0,0l0,0l0,0l0,0H0.7l0,0l0,0l0,0l0,0l0,0h0.02l0,0l0,0l0,0l0,0h0.02l0,0
			l0,0l0,0l0,0h0.02l0,0l0,0l1.5-0.88L0.6,2.62v0.02H0.56l0,0l0,0l0,0l0,0v0.02l0,0l0,0l0,0l0,0v0.02l0,0l0,0l0,0l0,0l0,0V2.7l0,0
			l0,0l0,0l0,0v0.02l0,0l0,0l0,0h0.02l0,0v0.02l0,0l0,0l0,0l0,0H0.6l0,0l0,0v0.02l0,0l0,0h0.02l0,0l0,0l0,0l0,0l0,0l0,0l0,0l0,0l0,0
			l0,0h0.02l0,0l0,0l0,0l0,0h0.02V2.74l0,0l0,0l0,0l2.62-1.97L0.66,3.84l0,0l0,0H0.64l0,0l0,0v0.02l0,0l0,0l0,0l0,0l0,0v0.02l0,0
			l0,0l0,0l0,0V3.9l0,0l0,0l0,0l0,0l0,0v0.02l0,0l0,0l0,0h0.02v0.02l0,0l0,0l0,0l0,0l0,0h0.02l0,0v0.02l0,0l0,0l0,0H0.7l0,0l0,0l0,0
			l0,0l0,0h0.02l0,0l0,0l0,0l0,0h0.02l0,0l0,0l0,0l0,0h0.02l0,0V3.94l0,0l0,0l0,0l3.65-3.05L0.66,5.23v0.02l0,0H0.64l0,0l0,0l0,0
			v0.02l0,0l0,0l0,0l0,0v0.02l0,0l0,0l0,0l0,0v0.02l0,0l0,0l0,0l0,0l0,0v0.02l0,0l0,0l0,0h0.02l0,0v0.02l0,0l0,0l0,0l0,0l0,0h0.02
			v0.02l0,0l0,0l0,0H0.7l0,0l0,0l0,0l0,0l0,0h0.02l0,0l0,0l0,0l0,0h0.02l0,0l0,0l0,0l0,0h0.02l0,0V5.35l0,0l0,0l0,0l0,0l4.86-4.26
			L0.66,6.56v0.02l0,0H0.64l0,0l0,0l0,0V6.6l0,0l0,0l0,0l0,0l0,0v0.02l0,0l0,0l0,0l0,0v0.02l0,0l0,0l0,0l0,0l0,0l0,0l0,0l0,0l0,0
			h0.02v0.02l0,0l0,0l0,0l0,0l0,0h0.02l0,0v0.02l0,0l0,0l0,0H0.7l0,0l0,0l0,0l0,0h0.02l0,0l0,0l0,0l0,0h0.02l0,0l0,0l0,0l0,0l0,0
			h0.02V6.66l0,0l0,0l0,0l0,0h0.02l0,0l6.31-5.53L0.66,8.22l0,0l0,0H0.64l0,0l0,0v0.02l0,0l0,0l0,0l0,0v0.02l0,0l0,0l0,0l0,0l0,0
			v0.02l0,0l0,0l0,0l0,0l0,0l0,0l0,0l0,0l0,0l0,0L0.66,8.3l0,0l0,0l0,0l0,0l0,0l0,0l0.02,0.02l0,0l0,0l0,0l0,0l0,0H0.7l0,0l0,0l0,0
			l0,0h0.02l0,0l0,0l0,0l0,0h0.02l0,0l0,0l0,0l0,0l0,0h0.02l0,0l0,0V8.3l0,0l0,0l7.93-7.07l-8.57,9.3V0.47H1.19z M9.55,0.34
			L9.55,0.34L9.55,0.34L9.55,0.34L9.55,0.34L9.55,0.34L9.55,0.34H9.51l0,0l0,0l0,0v0.02l0,0H9.49l0,0l0,0l0,0L1.53,7.43l6.33-6.99
			l0,0l0,0l0,0V0.42l0,0l0,0h0.02l0,0l0,0V0.4l0,0l0,0l0,0l0,0l0,0l0,0l0,0l0,0l0,0V0.38l0,0l0,0l0,0l0,0l0,0V0.36H7.86l0,0l0,0l0,0
			l0,0V0.34l0,0l0,0H7.84l0,0l0,0l0,0l0,0l0,0H7.82l0,0l0,0l0,0l0,0H7.8l0,0l0,0l0,0l0,0H7.78l0,0l0,0l0,0l0,0l0,0H7.76v0.02l0,0
			l0,0l0,0l0,0H7.74L1.46,5.87l4.93-5.45l0,0l0,0h0.02l0,0l0,0l0,0l0,0l0,0l0,0l0,0V0.4l0,0l0,0l0,0l0,0l0,0l0,0l0,0l0,0l0,0V0.38
			l0,0l0,0l0,0l0,0l0,0V0.36l0,0l0,0l0,0l0,0l0,0L6.39,0.34l0,0l0,0l0,0l0,0l0,0H6.37l0,0l0,0l0,0l0,0l0,0l0,0l0,0l0,0l0,0l0,0H6.35
			l0,0l0,0l0,0l0,0l0,0H6.33l0,0l0,0v0.02l0,0H6.31l0,0l0,0l0,0l-5,4.32l3.67-4.24H5V0.42l0,0l0,0l0,0l0,0l0,0V0.4l0,0l0,0l0,0l0,0
			l0,0l0,0l0,0l0,0l0,0l0,0V0.38l0,0l0,0l0,0l0,0V0.36l0,0l0,0l0,0l0,0l0,0L4.98,0.34l0,0l0,0l0,0l0,0l0,0H4.96l0,0l0,0l0,0l0,0l0,0
			H4.94l0,0l0,0l0,0l0,0l0,0l0,0l0,0l0,0l0,0l0,0H4.92l0,0l0,0v0.02l0,0H4.9l0,0l0,0l0,0L1.23,3.37l2.5-2.93l0,0h0.02l0,0l0,0l0,0
			V0.42l0,0l0,0l0,0l0,0l0,0V0.4l0,0l0,0h0.02l0,0l0,0l0,0l0,0l0,0l0,0V0.38H3.75l0,0l0,0l0,0V0.36l0,0l0,0l0,0l0,0l0,0V0.34H3.73
			l0,0l0,0l0,0l0,0l0,0H3.71l0,0l0,0l0,0l0,0l0,0l0,0l0,0l0,0l0,0l0,0H3.69l0,0l0,0l0,0l0,0l0,0H3.67l0,0l0,0v0.02l0,0l0,0H3.65
			L1.01,2.29l1.56-1.84l0,0l0,0h0.02l0,0V0.43l0,0l0,0l0,0l0,0l0,0V0.41l0,0l0,0l0,0l0,0l0,0l0,0l0,0l0,0l0,0V0.39l0,0l0,0l0,0l0,0
			V0.37l0,0l0,0l0,0l0,0l0,0L2.57,0.35l0,0l0,0l0,0l0,0l0,0H2.55l0,0l0,0l0,0l0,0l0,0l0,0H2.53l0,0l0,0l0,0l0,0H2.51l0,0l0,0l0,0
			l0,0H2.49l0,0l0,0l0,0v0.02l0,0l-1.6,0.92l0.47-0.86l0,0l0,0l0,0h0.02l0,0l0,0V0.41l0,0l0,0l0,0l0,0l0,0l0,0l0,0l0,0l0,0V0.39l0,0
			l0,0l0,0l0,0V0.37l0,0l0,0l0,0l0,0l0,0V0.35l0,0l0,0l0,0H1.36l0,0l0,0l0,0l0,0l0,0H1.34l0,0l0,0l0,0l0,0H1.32l0,0l0,0H0.09l0,0
			l0,0l0,0H0.07l0,0l0,0l0,0l0,0l0,0l0,0l0,0l0,0l0,0l0,0l0,0H0.05l0,0l0,0v0.02l0,0l0,0l0,0l0,0l0,0L0,0.38l0,0l0,0l0,0l0,0V0.4
			l0,0l0,0l0,0v10.31l0,0l0,0v0.02l0,0l0,0l0,0l0,0v0.02l0,0l0,0h0.02l0,0l0,0l0,0l0,0l0,0l0,0l0,0h0.02l0,0v0.02l0,0l0,0l0,0h0.02
			l0,0l0,0l0,0l0,0l0,0h0.02l0,0l0,0l0,0l0,0H0.1l0,0l0,0l0,0l0,0l0,0h0.02l0,0l0,0l0,0l0,0L0.1,10.75l0,0l0,0l0,0L9.59,0.44h0.02
			l0,0V0.42l0,0l0,0l0,0l0,0l0,0V0.4l0,0l0,0l0,0l0,0l0,0h0.02l0,0H9.61l0,0V0.38l0,0l0,0l0,0l0,0V0.36l0,0l0,0l0,0l0,0l0,0
			L9.59,0.34l0,0l0,0l0,0l0,0l0,0l0,0H9.55L9.55,0.34L9.55,0.34L9.55,0.34L9.55,0.34L9.55,0.34L9.55,0.34L9.55,0.34L9.55,0.34
			L9.55,0.34L9.55,0.34z"/>
		<polygon class="st3" points="0.06,0.41 1.29,0.41 0.7,1.45 2.5,0.41 0.61,2.64 3.69,0.41 0.7,3.89 4.92,0.41 0.7,5.28 6.35,0.41 
			0.7,6.61 7.79,0.41 0.7,8.25 9.55,0.41 0.06,10.71 		"/>
		<path class="st2" d="M11.82,0.41l-0.08-0.06L1.96,10.66c-0.04,0.02-0.04,0.06-0.02,0.1c0.02,0.04,0.04,0.04,0.1,0.04h4.24
			l0.06-0.02l3.61-3.46V9.8c0,0.04,0.04,0.06,0.06,0.08h0.1l2.95-2.27v3.11l0.02,0.06l0.08,0.04h2.52l0.06-0.04l0.04-0.06V0.41
			c0-0.04-0.02-0.06-0.06-0.08c-0.02-0.02-0.04-0.02-0.04-0.02l0,0l0,0l0,0c-0.04,0-0.04,0.02-0.06,0.04l-3.71,3.5V0.41
			c0-0.04-0.02-0.06-0.06-0.08c0-0.02-0.02-0.02-0.04-0.02l0,0h-0.02c-0.02,0-0.04,0.02-0.06,0.04L11.82,0.41h-0.1v3.67
			c0,0.04,0.02,0.08,0.04,0.1c0.04,0.02,0.08,0.02,0.1-0.02l3.73-3.52v9.98h-2.34V7.4c0-0.04-0.02-0.06-0.04-0.08h-0.1l-2.95,2.27
			v-2.5c0-0.04-0.04-0.08-0.06-0.1c-0.04-0.02-0.08-0.02-0.1,0.02l-3.75,3.61H2.27L11.9,0.48L11.82,0.41h-0.1H11.82z"/>
		<polygon class="st4" points="11.82,4.07 11.82,0.41 2.07,10.67 2.07,10.71 6.29,10.71 10.06,7.09 10.06,9.79 13.16,7.39 
			13.16,10.71 15.7,10.71 15.7,0.41 		"/>
		<polygon class="st2" points="23.63,10.69 23.73,10.69 23.73,3.95 24.8,3.95 24.8,6.55 24.84,6.61 24.9,6.66 27.38,6.66 
			27.44,6.61 27.48,6.55 27.48,3.95 28.55,3.95 28.55,10.61 27.48,10.61 27.48,7.7 27.44,7.64 27.38,7.62 24.9,7.62 24.84,7.64 
			24.8,7.7 24.8,10.61 23.63,10.61 23.63,10.69 23.73,10.69 23.63,10.69 23.63,10.8 24.9,10.8 24.96,10.77 25,10.69 25,7.82 
			27.28,7.82 27.28,10.69 27.3,10.77 27.38,10.8 28.65,10.8 28.71,10.77 28.75,10.69 28.75,3.87 28.71,3.79 28.65,3.77 27.38,3.77 
			27.3,3.79 27.28,3.87 27.28,6.45 25,6.45 25,3.87 24.96,3.79 24.9,3.77 23.63,3.77 23.57,3.79 23.53,3.87 23.53,10.69 
			23.57,10.77 23.63,10.8 		"/>
		<polygon class="st4" points="27.38,3.87 27.38,6.55 24.9,6.55 24.9,3.87 23.63,3.87 23.63,10.69 24.9,10.69 24.9,7.7 27.38,7.7 
			27.38,10.69 28.65,10.69 28.65,3.87 		"/>
		<path class="st2" d="M30,3.87v0.1h1.11v4.47c0,0.04,0.04,0.08,0.06,0.1c0.04,0,0.1-0.02,0.12-0.04l2.54-4.53h1.11v6.66h-0.98V6.22
			c0-0.04-0.04-0.1-0.08-0.1s-0.1,0.02-0.1,0.04l-2.56,4.45h-1.11V3.85H30v0.1V3.87h-0.1v6.84l0.04,0.08l0.08,0.04h1.27l0.1-0.04
			l2.38-4.16v4.1l0.04,0.08l0.06,0.04h1.21l0.06-0.04l0.04-0.08V3.86l-0.04-0.08l-0.06-0.02h-1.29c-0.04,0-0.06,0.02-0.08,0.04
			l-2.4,4.22V3.86l-0.04-0.08l-0.06-0.02h-1.19l-0.1,0.02l-0.04,0.08L30,3.87L30,3.87z"/>
		<polygon class="st4" points="33.77,3.87 31.19,8.44 31.19,3.87 30,3.87 30,10.71 31.27,10.71 33.83,6.23 33.83,10.71 35.04,10.71 
			35.04,3.87 		"/>
		<path class="st2" d="M36.42,10.69h0.1V3.95h1.97l1.23,4.59c0.02,0.04,0.04,0.06,0.1,0.06c0.04,0,0.08-0.04,0.1-0.06l1.23-4.59
			h1.97v6.64h-1.13V5.32c0-0.04-0.04-0.1-0.1-0.1c-0.04-0.02-0.1,0.02-0.1,0.06l-1.37,5.31h-1.23l-1.37-5.31
			c-0.02-0.04-0.06-0.08-0.1-0.06c-0.04,0-0.08,0.04-0.08,0.1l-0.02,5.29h-1.21v0.08h0.1H36.42v0.1h1.31c0.04,0,0.1-0.04,0.1-0.1
			V6.1l1.19,4.63c0.02,0.04,0.04,0.06,0.1,0.06h1.37c0.04,0,0.08-0.04,0.1-0.06l1.19-4.63v4.59c0,0.06,0.04,0.1,0.1,0.1h1.31
			l0.06-0.02l0.04-0.08V3.87l-0.04-0.08l-0.06-0.02h-2.13c-0.04,0-0.1,0.04-0.1,0.06l-1.17,4.3l-1.17-4.3
			c-0.02-0.04-0.06-0.06-0.1-0.06h-2.13l-0.08,0.02l-0.04,0.08v6.82l0.04,0.08l0.08,0.02v-0.1H36.42z"/>
		<polygon class="st4" points="41.07,3.87 39.8,8.52 38.55,3.87 36.42,3.87 36.42,10.69 37.73,10.69 37.73,5.32 39.1,10.69 
			40.49,10.69 41.87,5.32 41.89,10.69 43.2,10.69 43.2,3.87 		"/>
		<path class="st2" d="M49.57,10.71v-0.1h-1.13l-0.45-1.5c-0.02-0.04-0.06-0.08-0.1-0.08H45.7c-0.04,0-0.08,0.04-0.1,0.08l-0.43,1.5
			h-0.98l2.07-6.66h1.05l2.19,6.78L49.57,10.71v-0.1V10.71l0.1-0.04l-2.21-6.84c0-0.04-0.04-0.06-0.1-0.06h-1.17
			c-0.04,0-0.08,0.02-0.1,0.06l-2.13,6.84l0.02,0.1l0.08,0.04h1.17c0.04,0,0.1-0.02,0.1-0.06l0.43-1.5h2.07l0.45,1.5
			c0.02,0.04,0.04,0.06,0.1,0.06h1.21l0.08-0.04l0.02-0.1L49.57,10.71z M47.54,8.01L47.54,8.01l0.1-0.04l-0.78-2.54
			c-0.02-0.04-0.04-0.06-0.1-0.06c-0.04,0-0.1,0.04-0.1,0.06l-0.74,2.54l0.02,0.1l0.08,0.04h1.5l0.08-0.04l0.02-0.1L47.54,8.01V7.89
			h-1.37l0.61-2.09l0.66,2.23L47.54,8.01V7.89V8.01z"/>
		<path class="st4" d="M46.77,5.47l0.02,0.04l0.74,2.5h-0.74h-0.76L46.77,5.47z M46.79,3.87L46.79,3.87H46.2l-2.13,6.84h1.17
			l0.47-1.56h1.11h1.11l0.47,1.56h1.21L47.4,3.87C47.38,3.87,46.79,3.87,46.79,3.87z"/>
		<path class="st2" d="M59.84,8.19v0.1h1.35v-0.1l-0.1-0.02c-0.1,0.92-0.55,1.6-0.98,1.93c-0.41,0.35-0.92,0.51-1.58,0.51
			c-0.8,0-1.43-0.29-1.95-0.86c-0.51-0.59-0.76-1.39-0.78-2.44c0.02-1.09,0.27-1.93,0.78-2.52c0.53-0.59,1.19-0.88,2.03-0.88
			c0.74,0,1.31,0.23,1.78,0.7c0.12,0.12,0.27,0.39,0.39,0.68c0.1,0.29,0.2,0.64,0.23,0.9l0.1-0.02v-0.1H59.8v0.1l0.1-0.02
			c-0.08-0.35-0.16-0.74-0.41-0.96c-0.25-0.23-0.55-0.33-0.92-0.33c-0.47,0-0.9,0.18-1.19,0.57c-0.31,0.39-0.45,0.98-0.45,1.78
			c0,0.86,0.14,1.48,0.45,1.86c0.29,0.39,0.7,0.57,1.17,0.57c0.35,0,0.66-0.12,0.92-0.37c0.27-0.25,0.37-0.59,0.47-1.09h-0.1v0.1
			V8.19l-0.1-0.02c-0.1,0.47-0.23,0.78-0.41,0.98c-0.23,0.23-0.47,0.31-0.8,0.33c-0.43-0.02-0.76-0.16-1.02-0.51
			c-0.27-0.33-0.41-0.9-0.41-1.74c0-0.8,0.14-1.33,0.41-1.66c0.27-0.35,0.59-0.49,1.05-0.49c0.31,0,0.57,0.1,0.8,0.29
			c0.18,0.16,0.29,0.49,0.35,0.86c0,0.04,0.04,0.08,0.1,0.08h1.31l0.06-0.04l0.04-0.08c-0.04-0.29-0.12-0.64-0.23-0.94
			c-0.12-0.33-0.29-0.59-0.43-0.76C60.07,4,59.41,3.73,58.63,3.73c-0.88,0-1.62,0.33-2.17,0.96c-0.55,0.64-0.82,1.54-0.82,2.64
			c0,1.07,0.27,1.93,0.82,2.56c0.53,0.61,1.25,0.94,2.09,0.94c0.68,0,1.25-0.18,1.72-0.55c0.45-0.37,0.92-1.11,1.05-2.07l-0.04-0.08
			L61.2,8.09h-1.35c-0.04,0-0.1,0.04-0.1,0.08L59.84,8.19z"/>
		<path class="st4" d="M56.54,4.73c-0.53,0.61-0.8,1.5-0.8,2.58c0,1.05,0.27,1.89,0.8,2.5c0.53,0.59,1.21,0.9,2.03,0.9
			c0.66,0,1.23-0.16,1.66-0.53c0.41-0.35,0.88-1.05,0.98-1.99h-1.37c-0.1,0.49-0.23,0.8-0.45,1.05c-0.23,0.23-0.53,0.35-0.86,0.35
			c-0.47,0-0.82-0.18-1.11-0.53s-0.43-0.96-0.43-1.8c0-0.8,0.16-1.37,0.43-1.72c0.29-0.35,0.66-0.53,1.11-0.53
			c0.35,0,0.61,0.1,0.86,0.31c0.23,0.2,0.31,0.55,0.39,0.9h1.31c-0.06-0.55-0.35-1.35-0.66-1.62c-0.47-0.49-1.09-0.74-1.84-0.74
			C57.75,3.83,57.05,4.13,56.54,4.73L56.54,4.73z"/>
		<path class="st2" d="M17.11,3.89v0.1h1.13v4.47c0,0.04,0.04,0.08,0.08,0.1s0.08,0,0.1-0.04l2.56-4.51h1.13v6.64h-1V6.22
			c0-0.04-0.04-0.08-0.08-0.1s-0.1,0.02-0.1,0.04l-2.56,4.45h-1.15V3.89L17.11,3.89v0.1V3.89h-0.1v6.82l0.04,0.08l0.06,0.04h1.29
			l0.1-0.04l2.4-4.18v4.1l0.04,0.08L21,10.83h1.21l0.08-0.04l0.04-0.08V3.89l-0.04-0.08l-0.08-0.02h-1.29
			c-0.04,0-0.06,0.02-0.08,0.04l-2.42,4.24V3.89l-0.04-0.08l-0.06-0.02h-1.21l-0.06,0.02l-0.04,0.08H17.11z"/>
		<polygon class="st4" points="20.92,3.89 18.32,8.44 18.32,3.89 17.11,3.89 17.11,10.71 18.4,10.71 21.01,6.23 21.01,10.71 
			22.21,10.71 22.21,3.89 		"/>
		<path class="st2" d="M50.52,10.67v0.1h1.33l0.06-0.04l0.04-0.08V7.78l1.89,2.95l0.08,0.04h1.62c0.04,0,0.06-0.02,0.08-0.04v-0.1
			L53.2,7l2.32-3.09l0.02-0.1c-0.02-0.04-0.04-0.04-0.1-0.04h-1.56l-0.1,0.04l-1.82,2.66v-2.6l-0.04-0.06l-0.06-0.04h-1.33
			l-0.06,0.04l-0.04,0.06v6.82l0.04,0.08l0.06,0.04L50.52,10.67h0.11V3.95h1.13v2.83c0,0.04,0.04,0.08,0.08,0.1s0.08,0,0.1-0.04
			l1.99-2.89h1.31L53,6.96v0.1l2.34,3.55h-1.37l-2.05-3.2c-0.02-0.04-0.06-0.06-0.1-0.04s-0.08,0.04-0.08,0.1v3.11h-1.23v0.08h0.1
			h-0.09V10.67z"/>
		<polygon class="st4" points="53.86,3.87 51.85,6.78 51.85,3.87 50.52,3.87 50.52,10.67 51.85,10.67 51.85,7.48 53.9,10.71 
			55.54,10.71 53.06,7.02 55.41,3.87 		"/>
	</g>
	<g>
		<path d="M18.37,1.78c0.06-0.56-0.87-0.84-1.05-0.2l-0.23-0.06c0.15-0.48,0.47-0.51,0.74-0.51c1.04,0,1.01,1.81,0.02,1.81
			c-0.3,0-0.67-0.07-0.79-0.58l0.22-0.06c0.17,0.71,1.09,0.51,1.07-0.19H17.7V1.78H18.37z"/>
		<path d="M18.98,1.04h1.09v1.75h-0.23V1.25h-0.63v0.9c0,0.43-0.04,0.76-0.52,0.62l0.03-0.18c0.22,0.11,0.25-0.03,0.25-0.31V1.04
			H18.98z"/>
		<path d="M20.45,2.78V1.03h1.26v0.21h-1.03v0.53h0.97v0.2h-0.97v0.59h1.07v0.21h-1.3V2.78z"/>
		<path d="M22.08,1.04h0.23V1.8c0.47,0,0.34-0.8,0.95-0.77v0.2c-0.44,0-0.29,0.51-0.65,0.65c0.11,0.03,0.21,0.15,0.32,0.33
			l0.34,0.56h-0.25L22.73,2.3c-0.09-0.15-0.2-0.34-0.41-0.34v0.82h-0.23V1.04H22.08z"/>
		<path d="M41.72,1.04h0.23V1.8c0.47,0,0.34-0.8,0.95-0.77v0.2c-0.44,0-0.29,0.51-0.65,0.65c0.11,0.03,0.21,0.15,0.32,0.33
			l0.34,0.56h-0.25L42.37,2.3c-0.09-0.15-0.2-0.34-0.41-0.34v0.82h-0.23V1.04H41.72z"/>
		<path d="M47.2,1.04h0.23V1.8c0.47,0,0.34-0.8,0.95-0.77v0.2c-0.44,0-0.29,0.51-0.65,0.65c0.11,0.03,0.21,0.15,0.32,0.33l0.34,0.56
			h-0.25L47.85,2.3c-0.09-0.15-0.2-0.34-0.41-0.34v0.82h-0.23V1.04H47.2z"/>
		<path d="M23.94,2.78V1.24h-0.57V1.03h1.38v0.21h-0.58v1.54H23.94z"/>
		<path d="M24.98,2.78V1.03h0.69c0.84,0,0.86,1.04,0.02,1.04h-0.48v0.71H24.98z M25.21,1.87h0.48c0.5,0,0.54-0.62,0-0.62h-0.48V1.87
			z"/>
		<path d="M26.49,1.91c0-1.21,1.67-1.21,1.67,0C28.15,3.1,26.49,3.11,26.49,1.91z M26.72,1.91c0,0.92,1.19,0.94,1.19,0
			C27.92,0.96,26.72,0.98,26.72,1.91z"/>
		<path d="M48.53,1.91c0-1.21,1.67-1.21,1.67,0C50.2,3.1,48.53,3.11,48.53,1.91z M48.77,1.91c0,0.92,1.19,0.94,1.19,0
			C49.96,0.96,48.77,0.98,48.77,1.91z"/>
		<path d="M28.9,2.78V1.24h-0.57V1.03h1.38v0.21h-0.58v1.54H28.9z"/>
		<path d="M29.95,2.78V1.03h1.26v0.21h-1.03v0.53h0.97v0.2h-0.97v0.59h1.07v0.21h-1.3V2.78z"/>
		<path d="M31.39,2.78l0.67-0.91l-0.6-0.84h0.27l0.32,0.45c0.07,0.09,0.11,0.16,0.14,0.21c0.04-0.06,0.08-0.13,0.14-0.2l0.35-0.46
			h0.25l-0.61,0.82l0.66,0.92h-0.29l-0.44-0.62c-0.02-0.04-0.05-0.07-0.08-0.12c-0.04,0.06-0.07,0.11-0.08,0.13l-0.44,0.61
			L31.39,2.78L31.39,2.78z"/>
		<path d="M33.2,2.78V1.03h0.23v0.72h0.91V1.03h0.23v1.75h-0.23V1.96h-0.91v0.82H33.2z"/>
		<path d="M34.96,1.04h0.21v1.38l0.93-1.38h0.23v1.75h-0.21V1.4l-0.93,1.38h-0.23V1.04z"/>
		<path d="M37.95,2.78h-0.23v-0.7c-0.51,0.22-1.1,0.22-1.1-0.53V1.04h0.23v0.49c0,0.62,0.46,0.53,0.87,0.36V1.04h0.23L37.95,2.78
			L37.95,2.78z"/>
		<path d="M38.33,2.78V1.03h1.26v0.21h-1.03v0.53h0.97v0.2h-0.97v0.59h1.07v0.21h-1.3V2.78z"/>
		<path d="M42.94,2.78l0.67-1.75h0.25l0.71,1.75h-0.26l-0.2-0.53h-0.73l-0.19,0.53H42.94z M43.45,2.07h0.59l-0.18-0.48
			c-0.06-0.15-0.1-0.27-0.12-0.36c-0.02,0.11-0.05,0.22-0.09,0.33L43.45,2.07z"/>
		<path d="M60.56,2.78V2.01h-0.27c-0.29,0-0.38,0.2-0.52,0.41l-0.23,0.36h-0.29l0.3-0.48c0.06-0.09,0.12-0.17,0.19-0.23
			c0.03-0.03,0.08-0.06,0.14-0.09c-0.68-0.08-0.6-0.95,0.01-0.95h0.9v1.75H60.56z M60.56,1.23h-0.59c-0.45-0.01-0.47,0.58,0.02,0.58
			h0.56V1.23H60.56z"/>
		<path d="M45.95,2.78V2.01h-0.27c-0.29,0-0.38,0.2-0.52,0.41l-0.23,0.36h-0.29l0.3-0.48c0.06-0.09,0.12-0.17,0.19-0.23
			c0.03-0.03,0.08-0.06,0.14-0.09c-0.68-0.08-0.6-0.95,0.01-0.95h0.9v1.75H45.95z M45.95,1.23h-0.59c-0.45-0.01-0.47,0.58,0.02,0.58
			h0.56L45.95,1.23L45.95,1.23z"/>
		<path d="M50.48,2.78V1.03h0.35l0.41,1.24c0.04,0.11,0.07,0.2,0.08,0.26c0.02-0.06,0.05-0.16,0.09-0.28l0.42-1.21h0.31v1.75h-0.22
			V1.33l-0.51,1.46H51.2L50.7,1.3v1.49h-0.22V2.78z"/>
		<path d="M52.52,1.04h1.37v1.75h-0.23V1.25h-0.91v1.54h-0.23V1.04z"/>
		<path d="M54.08,2.78l0.67-1.75H55l0.71,1.75h-0.26l-0.2-0.53h-0.73l-0.19,0.53H54.08z M54.58,2.07h0.59l-0.18-0.48
			c-0.06-0.15-0.1-0.27-0.12-0.36c-0.02,0.11-0.05,0.22-0.09,0.33L54.58,2.07z"/>
		<path d="M55.9,2.78V1.03h0.23v0.72h0.91V1.03h0.23v1.75h-0.23V1.96h-0.91v0.82H55.9z"/>
		<path d="M57.66,1.04h0.21v1.38l0.93-1.38h0.23v1.75h-0.21V1.4l-0.93,1.38h-0.23V1.04z"/>
		<path d="M41.25,2.19c-0.21,0.65-1.15,0.55-1.15-0.28c0-0.79,0.84-0.92,1.11-0.37l0.23-0.07c-0.35-0.75-1.57-0.61-1.57,0.43
			c0,1.08,1.33,1.17,1.61,0.33L41.25,2.19z"/>
	</g>
	<g>
		<circle cx="62.85" cy="3.89" r="1.15"/>
		<circle class="st0" cx="62.85" cy="3.89" r="0.97"/>
		<g>
			<path d="M62.39,4.48v-1.2h0.53c0.45,0,0.6,0.5,0.09,0.66c0.04-0.01,0.07,0.04,0.1,0.06c0.05,0.04,0.09,0.1,0.13,0.16l0.21,0.33
				h-0.2l-0.16-0.25C63,4.09,62.92,3.96,62.73,3.96h-0.18v0.53h-0.16V4.48z M62.55,3.81h0.37c0.32,0,0.38-0.4,0.01-0.4h-0.38V3.81z"
				/>
		</g>
	</g>
</g>
</svg>
