<?xml version="1.0" encoding="utf-8"?>
<!-- Generator: Adobe Illustrator 20.1.0, SVG Export Plug-In . SVG Version: 6.00 Build 0)  -->
<svg version="1.1" id="Слой_1" xmlns="http://www.w3.org/2000/svg" xmlns:xlink="http://www.w3.org/1999/xlink" x="0px" y="0px"
	 viewBox="0 0 64 31" style="enable-background:new 0 0 64 31;" xml:space="preserve">
<style type="text/css">
	.st0{fill:#1585FF;}
	.st1{fill:#A3C1EA;}
</style>
<g>
	<path class="st0" d="M13.05,0.2C42.44,10.79,27.15,21,27.15,21C56.85,8.78,11.42-0.38,13.05,0.2z"/>
	<path class="st0" d="M27.11,3.35c21.99,8.22,10.55,16.16,10.55,16.16C59.87,10.01,25.9,2.89,27.11,3.35z"/>
	<path class="st0" d="M36.73,4.97c17.97,6.54,8.62,12.85,8.62,12.85C63.5,10.27,35.73,4.6,36.73,4.97z"/>
</g>
<g>
	<path class="st1" d="M11.7,23.11v1.21h1.4v-1.21h0.38V26H13.1v-1.35h-1.4V26h-0.37v-2.89H11.7z"/>
	<path class="st1" d="M15.62,24.65H14.5v1.04h1.25V26h-1.63v-2.89h1.56v0.31H14.5v0.91h1.12V24.65z"/>
	<path class="st1" d="M17.77,23.11v0.31h-1.16V26h-0.37v-2.89H17.77z"/>
	<path class="st1" d="M20.41,24.53c0,1.81-2.49,2.05-2.63,0.2C17.62,22.75,20.41,22.51,20.41,24.53z M18.17,24.57
		c0,1.52,1.86,1.44,1.85-0.03C20.01,23.07,18.17,23.04,18.17,24.57z"/>
	<path class="st1" d="M22.91,25.91c-1.03,0.52-2.19-0.21-2.19-1.32c0-1.08,1.16-1.93,2.2-1.39l-0.09,0.3
		c-2.18-1.05-2.19,3.19,0.01,2.11L22.91,25.91z"/>
	<path class="st1" d="M23.57,23.11l0.57,1.23c0.07,0.17,0.14,0.34,0.21,0.51h0.01c0.05-0.15,0.11-0.32,0.18-0.52l0.45-1.22h0.39
		l-0.6,1.48c-0.21,0.51-0.61,1.73-1.41,1.43l0.04-0.3c0.33,0.1,0.59-0.22,0.7-0.48c0.03-0.06,0.02-0.11-0.01-0.18l-0.96-1.95H23.57z
		"/>
	<path class="st1" d="M27.46,23.11v2.58l0.25,0.01l-0.03,0.99h-0.29L27.37,26h-1.82l-0.03,0.69h-0.29L25.2,25.7l0.22-0.01
		c0.32-0.59,0.42-1.18,0.42-1.85v-0.73H27.46z M26.19,23.96c0,0.6-0.08,1.19-0.38,1.73h1.28v-2.27h-0.9
		C26.19,23.42,26.19,23.96,26.19,23.96z"/>
	<path class="st1" d="M28.66,25.09L28.36,26h-0.39l0.98-2.89h0.45l1,2.89H30l-0.31-0.91H28.66z M29.61,24.8l-0.28-0.83
		c-0.06-0.19-0.11-0.36-0.15-0.53h-0.01c-0.04,0.17-0.09,0.35-0.15,0.52l-0.28,0.84H29.61z"/>
	<path class="st1" d="M30.82,23.14c0.59-0.1,1.52-0.17,1.75,0.55c0.26,0.83-0.68,1.32-1.38,1.15V26h-0.37V23.14z M31.19,24.54
		c1.27,0.33,1.32-1.47,0-1.12V24.54z"/>
	<path class="st1" d="M35.09,25.91c-1.03,0.52-2.2-0.21-2.19-1.32c0-1.08,1.16-1.93,2.2-1.39L35,23.5c-2.17-1.05-2.2,3.19,0.01,2.11
		L35.09,25.91z"/>
	<path class="st1" d="M36.26,23.43h-0.88v-0.32h2.14v0.32h-0.88V26h-0.38C36.26,26,36.26,23.43,36.26,23.43z"/>
	<path class="st1" d="M41.66,24.65h-1.12v1.04h1.25V26h-1.63v-2.89h1.56v0.31h-1.19v0.91h1.12L41.66,24.65L41.66,24.65z"/>
	<path class="st1" d="M42.65,23.11v1.21h1.4v-1.21h0.38V26h-0.38v-1.35h-1.4V26h-0.37v-2.89H42.65z"/>
	<path class="st1" d="M45.44,23.11v1.21h1.4v-1.21h0.38V26h-0.38v-1.35h-1.4V26h-0.37v-2.89H45.44z"/>
	<path class="st1" d="M48.33,25.09L48.03,26h-0.39l0.98-2.89h0.45l1,2.89h-0.4l-0.31-0.91H48.33z M49.28,24.8L49,23.97
		c-0.06-0.19-0.11-0.36-0.15-0.53h-0.01c-0.04,0.17-0.09,0.35-0.15,0.52l-0.28,0.84H49.28z"/>
	<path class="st1" d="M50.23,26c0.04-0.08,0.08-0.17,0.12-0.26c0.13-0.33,0.2-0.73,0.44-0.97c0.07-0.07,0.15-0.12,0.24-0.15v-0.01
		c-0.53-0.09-0.82-0.69-0.51-1.14c0.32-0.49,1.18-0.42,1.66-0.32V26h-0.37v-1.25h-0.27c-0.18,0-0.31,0.04-0.42,0.14
		c-0.2,0.2-0.28,0.63-0.38,0.9c-0.03,0.07-0.05,0.13-0.09,0.21C50.65,26,50.23,26,50.23,26z M51.79,23.41
		c-1.21-0.24-1.34,1.12,0,1.05V23.41z"/>
	<path class="st1" d="M0.53,29.37h1.35c-0.07-0.86-0.86-1.19-1.61-0.85l-0.09-0.29c2.75-1.21,2.64,3.89-0.05,2.67l0.08-0.3
		c0.77,0.35,1.63-0.05,1.67-0.93H0.53V29.37z"/>
	<path class="st1" d="M3.13,28.11v1.28h0.12l0.99-1.28h0.45L3.6,29.43c0.79,0.11,0.84,0.99,1.13,1.57h-0.4
		c-0.1-0.2-0.18-0.45-0.26-0.68c-0.13-0.38-0.32-0.64-0.81-0.64H3.13V31H2.76v-2.89H3.13z"/>
	<path class="st1" d="M7.02,30.91C6,31.42,4.83,30.7,4.83,29.58c0-1.08,1.16-1.93,2.2-1.39l-0.09,0.3
		c-2.18-1.05-2.19,3.19,0.01,2.11L7.02,30.91z"/>
	<path class="st1" d="M9.58,28.11V31H9.21v-2.58H7.87V31H7.49v-2.89H9.58z"/>
	<path class="st1" d="M11.73,29.65h-1.12v1.04h1.25V31h-1.63v-2.89h1.56v0.31H10.6v0.91h1.12v0.32H11.73z"/>
	<path class="st1" d="M12.34,28.14c0.64-0.11,1.63-0.16,1.76,0.67c0.13,0.78-0.72,1.19-1.39,1.03V31h-0.37V28.14z M12.72,29.54
		c1.27,0.33,1.32-1.47,0-1.12V29.54z"/>
	<path class="st1" d="M15.17,28.43H14.3v-0.32h2.14v0.32h-0.88V31h-0.38v-2.57H15.17z"/>
	<path class="st1" d="M17.11,28.11v1.22c0,0.46-0.01,0.84-0.03,1.22h0.01c0.15-0.3,0.33-0.61,0.54-0.96l0.94-1.49h0.37V31h-0.35
		v-1.23c0-0.47,0-0.81,0.03-1.17h-0.01c-0.14,0.32-0.34,0.65-0.54,0.97L17.16,31h-0.4v-2.89H17.11z"/>
	<path class="st1" d="M19.47,28.28c1.22-0.79,2.29,0.9,1.02,1.19v0.01c0.6,0.06,0.91,0.71,0.55,1.21c-0.35,0.47-1.2,0.44-1.65,0.17
		l0.1-0.29c1.18,0.69,1.83-0.93,0.53-0.93h-0.17v-0.28h0.17c1.06,0,0.65-1.5-0.44-0.8L19.47,28.28z"/>
	<path class="st1" d="M22.16,30.09L21.86,31h-0.39l0.98-2.89h0.45L23.89,31h-0.4l-0.31-0.91H22.16z M23.11,29.8l-0.28-0.83
		c-0.06-0.19-0.11-0.36-0.15-0.53h-0.01c-0.04,0.17-0.09,0.35-0.15,0.52l-0.28,0.84H23.11z"/>
	<path class="st1" d="M25.58,28.11v1.22c0,0.46-0.01,0.84-0.03,1.22h0.01c0.15-0.3,0.33-0.61,0.54-0.96l0.94-1.49h0.37V31h-0.35
		v-1.23c0-0.47,0-0.81,0.03-1.17h-0.01c-0.14,0.32-0.34,0.65-0.54,0.97L25.62,31h-0.4v-2.89H25.58z"/>
	<path class="st1" d="M31.04,28.11V31h-0.37v-2.58h-1.34V31h-0.37v-2.89H31.04z"/>
	<path class="st1" d="M31.7,28.14c0.59-0.1,1.52-0.17,1.75,0.55c0.26,0.83-0.68,1.32-1.38,1.15V31H31.7V28.14z M32.07,29.54
		c1.26,0.34,1.32-1.47,0-1.12V29.54z"/>
	<path class="st1" d="M36.42,29.53c0,1.81-2.49,2.05-2.63,0.2C33.63,27.75,36.42,27.51,36.42,29.53z M34.17,29.57
		c0,1.52,1.86,1.44,1.85-0.03C36.01,28.07,34.17,28.04,34.17,29.57z"/>
	<path class="st1" d="M38.4,29.65h-1.12v1.04h1.25V31H36.9v-2.89h1.56v0.31h-1.19v0.91h1.12L38.4,29.65L38.4,29.65z"/>
	<path class="st1" d="M39.38,28.11v1.28h0.12l0.99-1.28h0.45l-1.09,1.32c0.79,0.11,0.84,0.99,1.13,1.57h-0.4
		c-0.1-0.2-0.18-0.45-0.26-0.68c-0.13-0.38-0.32-0.64-0.81-0.64h-0.12V31h-0.37v-2.89H39.38z"/>
	<path class="st1" d="M42.01,28.43h-0.88v-0.32h2.14v0.32h-0.88V31h-0.38C42.01,31,42.01,28.43,42.01,28.43z"/>
	<path class="st1" d="M43.94,28.11v1.22c0,0.46-0.01,0.84-0.03,1.22h0.01c0.15-0.3,0.33-0.61,0.54-0.96l0.93-1.49h0.37V31h-0.35
		v-1.23c0-0.47,0-0.81,0.03-1.17h-0.01c-0.14,0.32-0.34,0.65-0.54,0.97L43.99,31h-0.4v-2.89H43.94z"/>
	<path class="st1" d="M46.42,28.14c0.59-0.1,1.52-0.17,1.75,0.55c0.26,0.83-0.68,1.32-1.38,1.15V31h-0.37V28.14z M46.79,29.54
		c1.26,0.34,1.32-1.47,0-1.12V29.54z"/>
	<path class="st1" d="M51.13,29.53c0,1.81-2.49,2.05-2.63,0.2C48.35,27.75,51.13,27.51,51.13,29.53z M48.89,29.57
		c0,1.52,1.86,1.44,1.85-0.03C50.73,28.07,48.89,28.04,48.89,29.57z"/>
	<path class="st1" d="M51.62,28.15c0.43-0.09,1.21-0.17,1.54,0.22c0.32,0.38,0.15,0.91-0.31,1.08v0.01
		c0.51,0.13,0.76,0.69,0.48,1.15c-0.32,0.53-0.6,0.39-1.71,0.39V28.15z M51.99,29.33h0.34c0.98,0,0.85-1.25-0.34-0.93V29.33z
		 M51.99,30.72c1.32,0.26,1.44-1.1,0.31-1.1h-0.31V30.72z"/>
	<path class="st1" d="M38,23.14c0.43-0.09,1.21-0.17,1.54,0.22c0.32,0.38,0.15,0.91-0.31,1.08v0.01c0.51,0.13,0.76,0.69,0.48,1.15
		c-0.32,0.53-0.6,0.39-1.71,0.39V23.14z M38.37,24.32h0.34c0.98,0,0.85-1.25-0.34-0.93V24.32z M38.37,25.71
		c1.32,0.26,1.44-1.1,0.31-1.1h-0.31V25.71z"/>
	<path class="st1" d="M54.41,30.09L54.11,31h-0.39l0.98-2.89h0.45L56.14,31h-0.4l-0.31-0.91H54.41z M55.36,29.8l-0.28-0.83
		c-0.06-0.19-0.11-0.36-0.15-0.53h-0.01c-0.04,0.17-0.09,0.35-0.15,0.52l-0.28,0.84H55.36z"/>
	<path class="st1" d="M56.94,28.11v1.21h1.4v-1.21h0.38V31h-0.38v-1.35h-1.4V31h-0.37v-2.89H56.94z"/>
	<path class="st1" d="M59.72,28.11v1.22c0,0.46-0.01,0.84-0.03,1.22h0.01c0.15-0.3,0.33-0.61,0.54-0.96l0.93-1.49h0.37V31h-0.35
		v-1.23c0-0.47,0-0.81,0.03-1.17h-0.01c-0.14,0.32-0.34,0.65-0.54,0.97L59.76,31h-0.4v-2.89H59.72z"/>
	<path class="st1" d="M63.68,29.65h-1.12v1.04h1.25V31h-1.63v-2.89h1.56v0.31h-1.19v0.91h1.12L63.68,29.65L63.68,29.65z"/>
</g>
</svg>
