<?xml version="1.0" encoding="utf-8"?>
<!-- Generator: Adobe Illustrator 19.0.1, SVG Export Plug-In . SVG Version: 6.00 Build 0)  -->
<svg version="1.1" id="Слой_1" xmlns="http://www.w3.org/2000/svg" xmlns:xlink="http://www.w3.org/1999/xlink" x="0px" y="0px"
	 viewBox="0 0 64 60" style="enable-background:new 0 0 64 60;" xml:space="preserve">
<style type="text/css">
	.st0{fill:#E21E24;}
	.st1{fill:#96CA63;}
	.st2{fill:#01B2F9;}
	.st3{fill:#FFFFFF;}
	.st4{fill:#FEFEFE;}
</style>
<g>
	<path class="st0" d="M34.02,30.35c0,0.19,0.08,0.35,0.16,0.51c0.13,0.28,0.3,0.54,0.49,0.78c0.58,0.72,0.99,1.54,1.52,2.29
		c0.18,0.27,0.27,0.57,0.28,0.89c0.01,0.21,0.02,0.42,0.03,0.63c0.03,0.42,0.19,0.75,0.55,0.98c0.2,0.13,0.4,0.26,0.61,0.38
		c0.31,0.18,0.52,0.44,0.6,0.78c0.12,0.5,0.38,0.93,0.69,1.33c0.31,0.41,0.63,0.83,0.94,1.24c0.05,0.07,0.1,0.13,0.2,0.13
		c0.46,0.02,0.91,0.1,1.37,0.07c0.28-0.02,0.53-0.1,0.73-0.3c0.04-0.04,0.08-0.09,0.15-0.09c0.6,0,1.2,0,1.82,0
		c-0.11,0.23-0.23,0.41-0.39,0.57c-0.3,0.29-0.45,0.65-0.4,1.06c0.05,0.45-0.13,0.76-0.46,1.06c-0.54,0.49-1.09,0.96-1.63,1.45
		c-0.51,0.46-1.04,0.91-1.54,1.39c-0.36,0.34-0.72,0.68-1.05,1.05c-0.39,0.44-0.73,0.88-0.74,1.52c-0.01,0.51-0.13,1.01-0.21,1.52
		c-0.02,0.16,0.02,0.27,0.14,0.38c0.25,0.22,0.49,0.44,0.74,0.66c0.11,0.09,0.15,0.2,0.1,0.34c-0.47,1.32-1.06,2.56-2.21,3.45
		c-0.23,0.18-0.5,0.31-0.81,0.35c-0.2,0.02-0.29,0.11-0.28,0.33c0.02,0.4-0.03,0.8,0.02,1.2c0.04,0.35-0.12,0.53-0.38,0.67
		c-0.56,0.29-0.94,0.76-1.31,1.25c-0.23,0.31-0.42,0.64-0.57,1c-0.05,0.11-0.1,0.16-0.23,0.17c-0.44,0.02-0.88,0.1-1.32,0.16
		c-0.54,0.07-1.05,0.25-1.6,0.31C29.6,59.88,29.14,60,28.67,60c-0.09,0-0.17,0-0.24-0.09c-0.9-1.1-1.92-2.1-2.82-3.21
		c-0.85-1.05-1.59-2.15-2-3.45c-0.17-0.54-0.26-1.1-0.29-1.66c-0.01-0.13,0.04-0.24,0.13-0.32c0.33-0.3,0.41-0.66,0.37-1.11
		c-0.09-1.05-0.43-1.97-1.18-2.74c-0.4-0.41-0.81-0.83-1.18-1.27c-0.13-0.16-0.18-0.32-0.17-0.53c0.04-0.55,0.12-1.09,0.11-1.64
		c-0.01-0.57-0.05-0.59-0.59-0.43c-0.26,0.07-0.51-0.05-0.77-0.05c-0.17,0-0.34-0.08-0.52-0.07c-0.17,0.01-0.29-0.05-0.28-0.27
		c0.02-0.29,0-0.57,0.01-0.86c0-0.14-0.03-0.2-0.19-0.2c-0.69,0.01-1.39,0-2.08,0.02c-0.5,0.01-0.99,0.04-1.49,0.09
		c-0.4,0.04-0.81,0.06-1.2,0.19c-0.12,0.04-0.16-0.03-0.21-0.1c-0.47-0.64-0.83-1.34-1.16-2.06c-0.33-0.71-0.63-1.45-1-2.14
		c-0.1-0.19-0.2-0.4-0.33-0.56c-0.24-0.28-0.29-0.58-0.28-0.94c0.03-1.17,0.01-2.33,0.21-3.49c0.22-1.27,0.74-2.41,1.52-3.42
		c0.05-0.06,0.09-0.11,0.18-0.12c0.76-0.04,1.44-0.35,2.1-0.7c0.78-0.41,1.55-0.86,2.34-1.27c0.6-0.32,1.21-0.6,1.9-0.68
		c0.17-0.02,0.33-0.09,0.5-0.14c0.27-0.02,0.5-0.11,0.69-0.31c0.46-0.27,0.93-0.54,1.42-0.83c0,0.19,0,0.36,0,0.52
		c0,0.08,0,0.15,0.11,0.16c0.36,0.04,0.59,0.27,0.81,0.53c0.04,0.04,0.06,0.11,0.13,0.12c0.41,0.02,0.76,0.23,1.14,0.32
		c0.11,0.02,0.13,0.06,0.12,0.17c-0.03,0.24-0.13,0.46-0.21,0.69c-0.03,0.09-0.03,0.16,0.06,0.23c0.35,0.27,0.69,0.56,1.03,0.84
		c0.27,0.22,0.55,0.44,0.86,0.61c0.15,0.08,0.27,0.08,0.35-0.08c0.07-0.14,0.19-0.17,0.34-0.16c0.32,0.03,0.64,0.05,0.97,0.08
		c0.52,0.03,1.05,0.11,1.57,0.03c0.18-0.03,0.35-0.1,0.55-0.11c0.34-0.02,0.63,0.13,0.94,0.2c0.56,0.12,1.14,0.18,1.69,0.37
		c0.34,0.12,0.66,0.14,0.98-0.07c0.28-0.18,0.39-0.12,0.51,0.19C34.05,30.26,34,30.27,34.02,30.35z"/>
	<path class="st1" d="M20.73,26.46c-0.19,0.2-0.42,0.29-0.69,0.31c-0.43-0.14-0.86-0.28-1.3-0.34c-0.16-0.02-0.33-0.04-0.49,0.03
		c-0.21,0.08-0.37-0.01-0.55-0.08c-0.34-0.14-0.4-0.36-0.42-0.71c-0.02-0.54,0.07-1.01,0.49-1.38c0.28-0.25,0.31-0.58,0.34-0.92
		c0.04-0.54,0.18-1.07,0.19-1.61c0-0.08,0.02-0.13,0.11-0.14c0.05-0.01,0.1-0.04,0.14-0.06c0.53-0.27,0.53-0.27,0.89,0.2
		c0.19,0.24,0.38,0.49,0.57,0.73c0.06,0.07,0.1,0.12,0.2,0.06c0.18-0.11,0.37-0.08,0.56-0.01c0.31,0.11,0.37,0.08,0.56-0.19
		c0.18-0.25,0.27-0.53,0.31-0.84c0.01-0.12-0.01-0.19-0.14-0.23c-0.22-0.06-0.4-0.2-0.53-0.4c-0.1-0.14-0.09-0.24,0.11-0.29
		c0.38-0.1,0.76-0.1,1.14-0.07c0.49,0.04,0.99,0.08,1.48,0.12c0.18,0.02,0.29-0.05,0.4-0.19c0.17-0.23,0.35-0.45,0.53-0.67
		c0.05-0.06,0.09-0.12,0.17-0.13c0.5-0.09,0.99-0.19,1.49-0.27c0.13-0.02,0.31-0.06,0.28,0.19c-0.01,0.1,0.07,0.05,0.11,0.03
		c0.41-0.22,0.75-0.52,1.06-0.86c0.05-0.06,0.04-0.12,0.02-0.19c-0.03-0.08-0.07-0.15-0.09-0.23c-0.04-0.15-0.04-0.3,0-0.45
		c0.05-0.22,0.25-0.12,0.38-0.14c0.24-0.04,0.47-0.07,0.68-0.21c0.13-0.09,0.22-0.06,0.18,0.12c-0.02,0.09-0.02,0.17,0.04,0.24
		c0.16,0.16,0.1,0.33,0.02,0.5c-0.12,0.26-0.24,0.52-0.36,0.78c-0.05,0.11-0.07,0.2,0.1,0.24c0.15,0.04,0.28,0.15,0.42,0.22
		c0.08,0.04,0.17,0.07,0.25-0.01c0.38-0.33,0.84-0.53,1.27-0.77c0.19-0.11,0.24-0.22,0.15-0.41c-0.02-0.03-0.02-0.07-0.04-0.11
		c-0.24-0.43-0.16-0.81,0.13-1.19c0.23-0.3,0.43-0.61,0.65-0.92c0.08-0.11,0.16-0.23,0.1-0.37c-0.06-0.14-0.21-0.15-0.33-0.15
		c-0.31,0.01-0.61,0.05-0.92,0.08c-0.07,0.01-0.1,0.06-0.13,0.11c-0.34,0.46-0.77,0.79-1.31,0.99c-0.54,0.2-1.04,0.47-1.53,0.77
		c-0.11,0.07-0.18,0.06-0.26-0.05c-0.18-0.24-0.37-0.48-0.56-0.71c-0.08-0.09-0.07-0.16,0.01-0.25c0.84-0.89,1.75-1.69,2.8-2.33
		c0.19-0.11,0.38-0.21,0.61-0.2c0.09,0.01,0.14-0.06,0.17-0.12c0.23-0.44,0.6-0.51,1.05-0.44c0.64,0.1,1.28,0.2,1.88,0.45
		c0.21,0.09,0.41,0.19,0.58,0.35c0.18,0.17,0.3,0.38,0.23,0.64c-0.03,0.12,0.03,0.16,0.12,0.2c0.42,0.17,0.84,0.14,1.26,0
		c0.39-0.13,0.75-0.34,1.13-0.5c0.19-0.08,0.39-0.16,0.6-0.18c0.14-0.01,0.15-0.05,0.08-0.17c-0.28-0.45-0.54-0.9-0.83-1.35
		c-0.09-0.14-0.11-0.26-0.06-0.4c0.07-0.22,0.18-0.43,0.21-0.66c0.01-0.08,0.05-0.07,0.11-0.06c0.22,0.03,0.39,0.14,0.54,0.3
		c0.27,0.32,0.41,0.7,0.54,1.08c0.05,0.16,0.12,0.25,0.32,0.27c0.32,0.03,0.61,0.19,0.91,0.31c0.22,0.09,0.43,0.19,0.67,0.16
		c0.21-0.02,0.23-0.07,0.1-0.24c-0.26-0.35-0.5-0.72-0.6-1.15c-0.07-0.3-0.06-0.32,0.25-0.32c0.23,0,0.46,0,0.74,0
		c-0.08-0.09-0.01-0.26-0.21-0.17c-0.07,0.03-0.07-0.07-0.1-0.12c-0.04-0.06,0.01-0.08,0.06-0.11c0.31-0.16,0.64-0.29,0.89-0.55
		c0.06-0.06,0.12-0.04,0.19-0.04c0.51,0,0.97,0.19,1.43,0.37c1.85,0.74,3.57,1.73,5.27,2.76c3.77,2.3,6.67,5.45,9.01,9.15
		c1.67,2.64,2.72,5.52,3.38,8.55c0.02,0.1,0.02,0.19-0.04,0.27c-0.23,0.29-0.29,0.62-0.21,0.98c0,0.01,0,0.03,0.01,0.04
		c0.03,0.29-0.01,0.33-0.28,0.23c-0.68-0.25-1.05-0.78-1.18-1.45c-0.07-0.36-0.18-0.52-0.55-0.55c-0.19-0.01-0.37-0.12-0.55-0.18
		c-0.17-0.06-0.27-0.04-0.33,0.16c-0.1,0.3-0.13,0.59,0.01,0.88c0.09,0.18,0.04,0.3-0.1,0.43c-0.32,0.29-0.62,0.6-0.93,0.89
		c-0.13,0.12-0.18,0.26-0.18,0.44c0.01,0.68,0.01,1.37,0,2.06c0,0.21,0.03,0.4,0.19,0.55c0.08,0.08,0.14,0.18,0.21,0.26
		c0.09,0.1,0.1,0.19,0.05,0.32c-0.14,0.33-0.28,0.65-0.37,1.01c-0.06,0.24-0.24,0.46-0.28,0.73c-0.01,0.04-0.02,0.09-0.02,0.13
		c-0.03,0.28-0.07,0.3-0.32,0.17c-0.42-0.23-0.64-0.61-0.71-1.07c-0.02-0.12-0.05-0.16-0.17-0.18c-0.35-0.08-0.54-0.34-0.69-0.64
		c-0.31-0.64-0.4-1.32-0.42-2.02c-0.01-0.16-0.03-0.27-0.2-0.35c-0.22-0.11-0.36-0.31-0.52-0.5c-0.03-0.03-0.05-0.08-0.04-0.12
		c0.11-0.64-0.12-1.22-0.32-1.8c-0.16-0.46-0.36-0.9-0.66-1.3c0.08,0.56,0.15,1.12,0.18,1.69c0.03,0.57,0.04,1.14,0.03,1.78
		c-0.36-0.47-0.68-0.89-0.77-1.43c-0.01-0.08,0.02-0.16-0.1-0.2c-0.42-0.13-0.74-0.42-0.98-0.77c-0.3-0.44-0.67-0.61-1.19-0.54
		c-0.2,0.03-0.35,0.06-0.49,0.21c-0.26,0.28-0.55,0.51-0.88,0.7c-0.13,0.08-0.24,0.08-0.32-0.07c-0.19-0.36-0.43-0.53-0.88-0.34
		c-0.39,0.17-0.83,0.02-1.24-0.07c-0.6-0.14-1.17-0.38-1.8-0.42c-0.09-0.01-0.12-0.09-0.16-0.14c-0.41-0.52-0.79-1.07-1.25-1.54
		c-0.22-0.22-0.45-0.43-0.72-0.57c-0.27-0.15-0.55-0.2-0.85-0.09c-0.09,0.03-0.14,0.07-0.1,0.18c0.14,0.36,0.25,0.73,0.47,1.04
		c0.16,0.23,0.36,0.43,0.66,0.45c0.09,0.01,0.13,0.06,0.17,0.13c0.54,0.97,1.41,1.39,2.48,1.5c0.61,0.06,1.22,0.03,1.83,0.02
		c0.17,0,0.29,0.04,0.37,0.19c0.2,0.38,0.5,0.52,0.94,0.47c0.39-0.04,0.37,0,0.53,0.35c0.18,0.38,0.18,0.73-0.02,1.09
		c-0.11,0.22-0.19,0.46-0.27,0.69c-0.03,0.08-0.07,0.14-0.17,0.15c-0.83,0.04-1.48,0.47-2.1,0.96c-0.69,0.54-1.34,1.12-2.03,1.65
		c-0.61,0.48-1.28,0.85-2.07,0.95c-0.21,0.03-0.34,0.02-0.43-0.22c-0.19-0.54-0.43-1.06-0.65-1.59c-0.06-0.15-0.15-0.27-0.27-0.38
		c-0.53-0.47-1.05-0.95-1.57-1.42c-0.1-0.09-0.13-0.2-0.14-0.32c-0.07-0.54-0.13-1.07-0.19-1.61c-0.02-0.14-0.05-0.26-0.13-0.38
		c-0.35-0.53-0.7-1.07-1.05-1.61c-0.06-0.09-0.1-0.13-0.23-0.12c-0.15,0.02-0.28-0.09-0.39-0.2c-0.25-0.26-0.49-0.53-0.73-0.8
		c-0.17-0.18-0.35-0.35-0.56-0.49c0.01-0.01,0.02-0.02,0.03-0.04c0.09,0.05,0.15,0.01,0.22-0.06c0.22-0.21,0.44-0.41,0.67-0.6
		c0.28-0.24,0.28-0.24,0.06-0.53c-0.08-0.1-0.16-0.2-0.23-0.3c-0.04-0.05-0.09-0.11-0.16-0.1c-0.51,0.03-1.03,0-1.5,0.23
		c-0.2,0.1-0.36,0.08-0.54-0.03c-0.35-0.2-0.69-0.44-1.1-0.52c-0.12-0.02-0.1-0.12-0.1-0.2c0-0.43,0-0.86,0-1.29
		c0-0.27,0.08-0.58-0.37-0.63c0.11-0.06,0.18-0.04,0.24-0.03c0.57,0.08,1.15,0.11,1.7,0.33c0.21,0.08,0.41,0.06,0.58-0.15
		c0.15-0.19,0.34-0.34,0.5-0.52c0.06-0.07,0.12-0.1,0.22-0.06c0.41,0.17,0.84,0.23,1.28,0.21c0.36-0.02,0.64,0.08,0.86,0.37
		c0.07,0.09,0.14,0.2,0.29,0.2c0.54-0.02,1.08-0.01,1.6-0.19c0.18-0.06,0.2-0.12,0.05-0.24c-0.36-0.27-0.73-0.53-1.07-0.83
		c-0.6-0.51-1.29-0.97-1.32-1.93c-0.17,0.19-0.39,0.31-0.42,0.52c-0.05,0.37-0.18,0.73-0.25,1.1c-0.04,0.2-0.13,0.2-0.28,0.17
		c-0.33-0.05-0.64-0.17-0.95-0.29c-0.27-0.11-0.54-0.19-0.82-0.22c-0.07-0.01-0.17-0.05-0.19,0.08c-0.06,0.38-0.21,0.74-0.23,1.12
		c0,0.15-0.08,0.16-0.19,0.12c-0.14-0.06-0.27-0.12-0.41-0.19c-0.13-0.06-0.23-0.06-0.34,0.06c-0.19,0.21-0.24,0.2-0.46,0.01
		c-0.05-0.05-0.1-0.09-0.15-0.14c-0.22-0.18-0.25-0.18-0.39,0.07c-0.5,0.85-0.95,1.72-1.25,2.69c-0.1-0.42-0.25-0.85-0.64-0.98
		c-0.44-0.15-0.39-0.42-0.38-0.74c0-0.11-0.02-0.23,0-0.34c0.08-0.46-0.28-0.68-0.5-0.98c-0.02,0.37-0.02,0.73-0.02,1.09
		c0,0.08,0.01,0.16-0.07,0.22c-0.46,0.34-0.81,0.78-1.17,1.22c-0.27,0.32-0.26,0.32-0.61,0.08c-0.23-0.16-0.46-0.32-0.69-0.48
		c-0.15-0.11-0.32-0.21-0.43-0.37c-0.22-0.3-0.26-0.73,0.25-0.82c0.15-0.03,0.18-0.1,0.17-0.23c-0.01-0.23,0.03-0.45,0.17-0.64
		c0.08-0.11,0.05-0.18-0.02-0.27c-0.36-0.45-0.71-0.9-1.06-1.35c-0.08-0.11-0.17-0.13-0.29-0.11c-0.24,0.04-0.44,0.15-0.63,0.29
		c-0.4,0.29-0.72,0.66-1.03,1.04c-0.25,0.3-0.28,0.32-0.66,0.19c-0.22-0.07-0.43-0.19-0.66-0.21c-0.09-0.01-0.18-0.01-0.24,0.08
		C21.08,25.68,20.86,26.05,20.73,26.46z M41.51,22.69c-0.07,0.44-0.16,0.84-0.2,1.24c-0.02,0.21-0.1,0.21-0.26,0.17
		c-0.23-0.06-0.47-0.12-0.7-0.17c-0.2-0.04-0.38,0.12-0.37,0.31c0.01,0.41,0.36,0.76,0.77,0.76c0.13,0,0.26,0.01,0.38,0
		c0.11-0.01,0.2,0.03,0.28,0.11c0.21,0.22,0.43,0.44,0.65,0.66c0.07,0.07,0.1,0.13,0.05,0.24c-0.14,0.32-0.16,0.65-0.16,0.99
		c0,0.15,0.05,0.19,0.19,0.19c0.24-0.01,0.48,0,0.72,0c0.62,0,0.62,0,0.96-0.51c0.09-0.13,0.06-0.21-0.03-0.29
		c-0.15-0.13-0.3-0.25-0.45-0.38c-0.23-0.19-0.41-0.39-0.34-0.73c0.04-0.18-0.25-0.65-0.42-0.67c-0.29-0.03-0.22-0.2-0.17-0.36
		c0.03-0.12,0.1-0.22,0.17-0.32c0.22-0.29,0.21-0.31-0.09-0.51c-0.1-0.07-0.21-0.14-0.33-0.14c-0.24,0.01-0.36-0.16-0.48-0.32
		C41.64,22.89,41.59,22.81,41.51,22.69z M32.52,23.58c-0.32,0.04-0.37,0.23-0.39,0.49C32.27,23.9,32.38,23.76,32.52,23.58z
		 M36.21,23.5l-0.01,0.01l0.01,0L36.21,23.5z"/>
	<path class="st2" d="M8.54,21.37c0.02-0.15,0.09-0.27,0.17-0.38c0.83-1.23,1.84-2.31,2.92-3.32c1.86-1.73,3.86-3.29,6.08-4.54
		c2.6-1.46,5.39-2.43,8.32-2.98c1.89-0.35,3.8-0.49,5.73-0.44c1.09,0.03,2.18,0.1,3.26,0.26c0.03,0,0.06,0.01,0.13,0.03
		c-0.49,0.04-0.97,0.06-1.35,0.29c-0.5,0.3-1.03,0.27-1.56,0.26c-0.19,0-0.28,0.04-0.35,0.24c-0.31,0.85-0.92,1.43-1.7,1.85
		c-0.82,0.45-1.72,0.71-2.61,0.99c-0.8,0.25-1.59,0.49-2.35,0.86c-0.48,0.23-0.92,0.51-1.31,0.87c-0.08,0.08-0.16,0.09-0.26,0.09
		c-0.65,0-1.29,0-1.94,0c-0.12,0-0.19,0.03-0.25,0.14c-0.25,0.48-0.74,0.61-1.18,0.81c-0.07,0.03-0.12-0.02-0.15-0.06
		c-0.31-0.39-0.68-0.6-1.19-0.65c-0.37-0.03-0.71-0.24-1.03-0.44c-0.56-0.35-1.17-0.5-1.83-0.45c-0.19,0.02-0.37,0.08-0.53,0.16
		c-0.5,0.24-0.9,0.6-1.28,0.99c-0.78,0.81-1.41,1.74-2.07,2.65c-0.59,0.82-1.17,1.64-1.85,2.39c-0.54,0.59-1.13,1.13-1.88,1.45
		c-0.16,0.07-0.23,0.05-0.18-0.14C8.44,22.01,8.48,21.69,8.54,21.37z"/>
	<path class="st2" d="M58.14,36.29c0.56,0.56,1.18,0.93,1.84,1.25c0.09,0.04,0.13,0.11,0.19,0.18c0.46,0.55,0.56,1.17,0.56,1.89
		c0,2.22-0.36,4.37-1.15,6.44c-0.19,0.49-0.44,0.96-0.77,1.37c-0.23,0.28-0.5,0.52-0.86,0.63c-0.09,0.03-0.12,0.07-0.13,0.16
		c-0.02,0.2-0.06,0.4-0.09,0.6c-0.04,0.35-0.22,0.62-0.49,0.83c-0.24,0.19-0.53,0.19-0.77,0.01c-0.23-0.17-0.4-0.38-0.45-0.67
		c-0.06-0.32-0.13-0.65-0.22-0.97c-0.11-0.36-0.02-0.72,0.01-1.07c0.11-1.04,0.21-2.08,0.35-3.12c0.08-0.6,0.3-1.16,0.46-1.74
		c0.04-0.15,0.22-0.2,0.35-0.27c0.15-0.09,0.23-0.21,0.21-0.38c-0.04-0.41,0.1-0.76,0.28-1.12c0.42-0.84,0.82-1.69,1.23-2.53
		c0.06-0.13,0.07-0.21-0.05-0.33C58.34,37.15,58.13,36.79,58.14,36.29z"/>
	<path class="st2" d="M5.21,48.56c-1.27-2.96-2.02-5.99-2.2-9.22c0.16,0.1,0.24,0.21,0.32,0.31c0.39,0.48,0.71,1,0.93,1.56
		c0.25,0.61,0.71,0.89,1.3,1.01c0.16,0.04,0.22,0.09,0.21,0.26c-0.01,0.33-0.05,0.67,0.01,0.99c0.06,0.32,0.37,0.51,0.55,0.77
		c0.43,0.62,0.81,1.27,1.32,1.83c0.11,0.12,0,0.16-0.06,0.21c-0.43,0.37-0.86,0.73-1.29,1.1C5.93,47.72,5.55,48.07,5.21,48.56z"/>
	<path class="st2" d="M44.32,50.64c-0.12,0.16-0.15,0.32-0.14,0.48c0,0.12-0.03,0.22-0.09,0.32c-0.37,0.61-0.63,1.25-0.6,1.97
		c0.01,0.24-0.08,0.42-0.25,0.59c-0.45,0.46-0.82,0.98-1.24,1.46c-0.06,0.07-0.13,0.14-0.2,0.22c-0.25,0.28-0.55,0.39-0.93,0.28
		c-0.32-0.09-0.64-0.16-0.97-0.22c-0.13-0.02-0.11-0.1-0.1-0.18c0.04-0.32,0.18-0.59,0.41-0.81c0.13-0.12,0.13-0.2-0.01-0.31
		c-0.26-0.21-0.51-0.45-0.76-0.67c-0.09-0.08-0.1-0.12,0-0.2c0.37-0.29,0.74-0.59,1.11-0.89c0.12-0.09,0.26-0.12,0.4-0.15
		c0.65-0.13,1.21-0.39,1.65-0.92c0.27-0.32,0.63-0.56,1-0.76C43.81,50.74,44.04,50.66,44.32,50.64z"/>
	<g>
		<path class="st3" d="M32.93,0.04c0.21,0.08,0.43,0.06,0.64,0.08c1.36,0.13,2.72,0.24,4.09,0.36c0.21,0.02,0.42,0.04,0.63,0.05
			c0.15,0.01,0.23,0.09,0.24,0.22c0.03,0.29,0.02,0.57-0.06,0.85c-0.05,0.18-0.14,0.26-0.34,0.24c-0.55-0.05-1.11-0.09-1.66-0.15
			c-0.17-0.02-0.22,0.05-0.24,0.21c-0.11,1.29-0.22,2.58-0.33,3.86c-0.06,0.7-0.12,1.41-0.18,2.11c-0.03,0.29-0.09,0.35-0.37,0.37
			c-0.34,0.02-0.68-0.02-1.01-0.1c-0.18-0.04-0.26-0.14-0.25-0.34c0.09-1,0.18-2.01,0.26-3.01c0.06-0.74,0.13-1.48,0.19-2.22
			c0.03-0.29,0.05-0.58,0.08-0.88c0.01-0.12-0.01-0.17-0.14-0.18c-0.54-0.04-1.08-0.09-1.62-0.13c-0.34-0.03-0.4-0.08-0.4-0.43
			c0-0.32-0.01-0.65,0.22-0.92C32.78,0.04,32.86,0.04,32.93,0.04z"/>
		<path class="st3" d="M0,18.38c0.29-0.34,0.49-0.73,0.73-1.1c0.74-1.16,1.48-2.32,2.21-3.49c0.15-0.24,0.25-0.27,0.5-0.14
			c0.22,0.11,0.42,0.23,0.6,0.4c0.13,0.12,0.15,0.25,0.05,0.4c-0.3,0.46-0.58,0.93-0.89,1.39c-0.11,0.16-0.08,0.23,0.07,0.33
			c1.69,1.06,3.37,2.13,5.05,3.2c0.28,0.18,0.3,0.23,0.16,0.53c-0.14,0.29-0.31,0.57-0.53,0.81c-0.14,0.16-0.27,0.18-0.47,0.06
			c-1.68-1.07-3.37-2.13-5.04-3.21c-0.2-0.13-0.28-0.11-0.39,0.09c-0.27,0.45-0.56,0.89-0.84,1.34c-0.11,0.17-0.23,0.22-0.41,0.14
			C0.5,18.96,0.21,18.79,0,18.51C0,18.47,0,18.42,0,18.38z"/>
		<path class="st3" d="M19.7,4.98c0.16-0.3,0.32-0.54,0.51-0.75c0.55-0.62,1.23-0.86,2.05-0.71c0.31,0.05,0.56,0.22,0.77,0.44
			c0.1,0.11,0.14,0.08,0.2-0.03c0.12-0.22,0.26-0.42,0.42-0.61c0.7-0.84,1.92-1.03,2.7-0.41c0.33,0.26,0.53,0.61,0.67,1
			c0.31,0.88,0.5,1.79,0.76,2.69c0.1,0.35,0.18,0.7,0.28,1.04c0.06,0.2,0,0.3-0.17,0.38c-0.3,0.13-0.62,0.22-0.95,0.26
			C26.73,8.29,26.61,8.22,26.56,8c-0.26-1-0.54-2-0.81-3c-0.06-0.22-0.14-0.43-0.28-0.61c-0.33-0.47-0.91-0.5-1.29-0.07
			c-0.2,0.22-0.33,0.49-0.45,0.75c-0.05,0.1-0.02,0.19,0.01,0.29c0.29,1.06,0.57,2.12,0.86,3.18c0.06,0.23,0,0.36-0.21,0.44
			c-0.3,0.11-0.6,0.2-0.91,0.24c-0.2,0.03-0.31-0.04-0.37-0.26c-0.27-1.02-0.55-2.05-0.83-3.07c-0.06-0.23-0.15-0.44-0.3-0.63
			c-0.3-0.38-0.8-0.42-1.15-0.1c-0.26,0.24-0.42,0.55-0.56,0.86c-0.03,0.08-0.01,0.14,0.01,0.22c0.29,1.08,0.58,2.16,0.88,3.24
			c0.06,0.22-0.01,0.33-0.19,0.41c-0.31,0.13-0.64,0.22-0.98,0.26c-0.16,0.02-0.27-0.04-0.32-0.22c-0.46-1.72-0.92-3.44-1.39-5.16
			c-0.04-0.14,0.01-0.24,0.13-0.3c0.28-0.14,0.57-0.22,0.88-0.24c0.16-0.01,0.24,0.07,0.27,0.21C19.6,4.61,19.64,4.77,19.7,4.98z"/>
		<path class="st3" d="M45.39,10.73c-0.19,0.04-0.38,0.08-0.57,0.11c-0.83,0.13-1.84-0.32-2.28-1.04c-0.36-0.58-0.28-1.16,0.02-1.74
			c0.29-0.55,0.75-0.83,1.37-0.85c0.68-0.02,1.3,0.21,1.91,0.47c0.16,0.07,0.32,0.14,0.47,0.21c0.09,0.05,0.14,0.03,0.17-0.06
			c0-0.01,0.01-0.03,0.02-0.04c0.41-0.83,0.24-1.25-0.63-1.58c-0.47-0.18-0.95-0.19-1.45-0.17c-0.4,0.01-0.48-0.1-0.37-0.49
			c0.15-0.52,0.32-0.65,0.85-0.65c1,0,1.89,0.32,2.68,0.93c0.62,0.47,0.81,1.09,0.6,1.84C48,8.27,47.7,8.8,47.46,9.36
			c-0.31,0.71-0.64,1.41-0.96,2.11c-0.11,0.24-0.19,0.28-0.44,0.19c-0.2-0.07-0.39-0.16-0.58-0.26c-0.24-0.13-0.26-0.2-0.15-0.45
			c0.03-0.07,0.05-0.14,0.08-0.21c0.01-0.01,0.01-0.02,0.02-0.03C45.41,10.72,45.4,10.73,45.39,10.73z M44.78,9.9
			c0.27,0.01,0.51-0.07,0.75-0.16c0.07-0.03,0.13-0.07,0.16-0.15c0.09-0.21,0.19-0.41,0.28-0.62c0.03-0.06,0.06-0.13-0.03-0.17
			c-0.44-0.2-0.87-0.46-1.38-0.45c-0.36,0-0.64,0.23-0.73,0.58c-0.08,0.33,0.05,0.62,0.36,0.8C44.37,9.84,44.57,9.91,44.78,9.9z"/>
		<path class="st3" d="M17,11.35c-0.12,0.5-0.34,0.95-0.74,1.28c-0.51,0.43-1.08,0.69-1.78,0.61c-0.9-0.1-1.81-1.37-1.3-2.38
			c0.28-0.54,0.71-0.93,1.18-1.28c0.24-0.18,0.5-0.34,0.75-0.49c0.12-0.07,0.14-0.14,0.06-0.25c0-0.01-0.01-0.01-0.01-0.02
			c-0.47-0.77-0.89-0.86-1.63-0.34c-0.4,0.28-0.69,0.67-0.94,1.09c-0.24,0.41-0.41,0.42-0.69,0.04c-0.31-0.41-0.32-0.59-0.03-1.02
			c0.61-0.89,1.42-1.51,2.47-1.78c0.56-0.15,1.07-0.01,1.49,0.41c0.23,0.23,0.42,0.49,0.59,0.76c0.6,0.95,1.2,1.91,1.8,2.86
			c0.16,0.25,0.15,0.32-0.1,0.5c-0.16,0.12-0.34,0.23-0.51,0.32c-0.24,0.13-0.31,0.11-0.46-0.12C17.12,11.48,17.1,11.39,17,11.35z
			 M15.16,11.92c0.57,0,1.21-0.77,1.11-1.32c-0.01-0.03-0.02-0.06-0.03-0.08c-0.12-0.2-0.25-0.39-0.37-0.59
			c-0.06-0.09-0.11-0.1-0.2-0.04c-0.26,0.17-0.54,0.33-0.78,0.53c-0.16,0.13-0.29,0.28-0.38,0.47
			C14.3,11.34,14.66,11.92,15.16,11.92z"/>
		<path class="st3" d="M9.72,17.3c-0.33,0-0.64-0.07-0.94-0.22c-0.88-0.43-1.56-1.07-2.03-1.93c-0.56-1.03-0.39-2.15,0.44-3.04
			c0.54-0.58,1.16-0.99,1.98-0.96c0.68,0.03,1.23,0.37,1.72,0.81c0.09,0.08,0.18,0.16,0.26,0.25c0.28,0.28,0.28,0.49,0.01,0.78
			c-0.52,0.55-1.04,1.09-1.56,1.63c-0.19,0.2-0.38,0.41-0.58,0.6c-0.08,0.08-0.09,0.13,0,0.21c0.61,0.55,1.3,0.55,1.89-0.01
			c0.45-0.42,0.76-0.92,1-1.49c0.15-0.35,0.26-0.36,0.54-0.11c0.52,0.47,0.54,0.56,0.2,1.17c-0.5,0.89-1.13,1.65-2.08,2.09
			C10.32,17.23,10.03,17.3,9.72,17.3z M8.75,12.46c-0.05,0.01-0.12,0.02-0.19,0.04c-0.43,0.14-0.72,0.43-0.83,0.87
			c-0.12,0.48,0.12,0.86,0.41,1.21c0.06,0.07,0.11,0.05,0.16-0.01c0.47-0.5,0.94-0.99,1.41-1.48c0.06-0.07,0.08-0.12,0-0.19
			C9.44,12.65,9.15,12.47,8.75,12.46z"/>
		<path class="st3" d="M56.25,13.03c1.08,0.01,1.8,0.57,2.35,1.39c0.74,1.11,0.53,2.3-0.54,3.24c-0.1,0.08-0.19,0.17-0.29,0.25
			c-0.28,0.23-0.51,0.22-0.75-0.05c-0.65-0.75-1.3-1.5-1.95-2.25c-0.2-0.23-0.2-0.24-0.41-0.01c-0.52,0.56-0.54,1.17-0.06,1.79
			c0.37,0.48,0.84,0.83,1.37,1.12c0.35,0.2,0.36,0.28,0.06,0.56c-0.49,0.46-0.6,0.47-1.15,0.1c-0.66-0.43-1.21-0.97-1.62-1.64
			c-0.6-0.98-0.56-1.95,0.17-2.85c0.63-0.78,1.39-1.4,2.41-1.6C55.97,13.05,56.13,13.04,56.25,13.03z M57.74,15.44
			c0.01-0.18-0.04-0.34-0.13-0.49c-0.47-0.76-1.19-0.79-1.9-0.28c-0.09,0.07-0.06,0.12-0.01,0.18c0.44,0.51,0.89,1.02,1.33,1.54
			c0.05,0.06,0.09,0.1,0.17,0.03C57.5,16.15,57.73,15.86,57.74,15.44z"/>
		<path class="st3" d="M50.26,12.57c0.37-0.29,0.74-0.57,1.1-0.84c0.73-0.57,1.47-1.13,2.19-1.7c0.18-0.15,0.34-0.15,0.53-0.04
			c0.24,0.14,0.47,0.3,0.68,0.48c0.22,0.19,0.23,0.3,0.01,0.5c-0.38,0.35-0.81,0.62-1.22,0.93c-1.04,0.77-2.09,1.53-3.13,2.3
			c-0.2,0.15-0.38,0.16-0.58,0.04c-0.38-0.22-0.74-0.49-1.09-0.77c-0.2-0.17-0.26-0.36-0.18-0.62c0.51-1.62,1-3.24,1.51-4.86
			c0.18-0.59,0.3-0.63,0.81-0.28c0.17,0.12,0.34,0.25,0.5,0.38c0.18,0.14,0.21,0.3,0.13,0.52c-0.42,1.23-0.82,2.47-1.23,3.7
			C50.28,12.38,50.23,12.46,50.26,12.57z"/>
		<path class="st3" d="M56.16,21.12c-0.01-0.15,0.1-0.2,0.2-0.26c1.01-0.65,2.01-1.29,3.02-1.93c1.18-0.75,2.36-1.5,3.53-2.26
			c0.2-0.13,0.35-0.1,0.49,0.06c0.2,0.24,0.37,0.5,0.5,0.78c0.1,0.21,0.05,0.34-0.15,0.47c-1.68,1.06-3.35,2.14-5.02,3.21
			c-0.52,0.33-1.04,0.66-1.56,1c-0.16,0.11-0.29,0.1-0.41-0.05c-0.23-0.27-0.43-0.56-0.56-0.89C56.18,21.2,56.17,21.15,56.16,21.12z
			"/>
		<path class="st3" d="M40.8,4.16c0.22-0.14,0.42-0.27,0.63-0.38c0.49-0.27,0.96-0.23,1.43,0.05c0.16,0.09,0.22,0.21,0.17,0.4
			c-0.08,0.31-0.15,0.61-0.28,0.9c-0.1,0.21-0.19,0.25-0.36,0.11c-0.46-0.37-0.9-0.28-1.35,0.02c-0.29,0.2-0.49,0.42-0.58,0.78
			c-0.24,0.92-0.53,1.83-0.79,2.75c-0.05,0.16-0.13,0.25-0.3,0.23C39,8.99,38.64,8.89,38.31,8.72c-0.15-0.07-0.19-0.18-0.14-0.35
			c0.49-1.68,0.98-3.36,1.46-5.04c0.07-0.23,0.19-0.29,0.39-0.25c0.25,0.05,0.5,0.11,0.73,0.22c0.16,0.07,0.2,0.19,0.16,0.35
			C40.88,3.81,40.8,3.97,40.8,4.16z"/>
	</g>
	<path class="st1" d="M8.54,21.37c-0.06,0.32-0.1,0.64-0.25,0.93C8.3,21.97,8.39,21.67,8.54,21.37z"/>
	<path class="st1" d="M34.02,30.35c-0.03-0.08,0.03-0.09,0.09-0.1c0.06,0.04,0.12,0.08,0.19,0.13c-0.01,0.01-0.02,0.02-0.03,0.04
		C34.19,30.4,34.1,30.37,34.02,30.35z"/>
	<path class="st2" d="M32.52,23.58c-0.14,0.18-0.25,0.32-0.39,0.49C32.15,23.82,32.2,23.62,32.52,23.58z"/>
	<polygon class="st4" points="36.21,23.5 36.21,23.51 36.2,23.51 	"/>
	<path class="st4" d="M45.39,10.73c0.01,0,0.02-0.01,0.03-0.01c-0.01,0.01-0.01,0.02-0.02,0.03C45.4,10.75,45.39,10.73,45.39,10.73z
		"/>
</g>
</svg>
