<?xml version="1.0" encoding="utf-8"?>
<!-- Generator: Adobe Illustrator 19.0.1, SVG Export Plug-In . SVG Version: 6.00 Build 0)  -->
<svg version="1.1" id="Слой_1" xmlns="http://www.w3.org/2000/svg" xmlns:xlink="http://www.w3.org/1999/xlink" x="0px" y="0px"
	 viewBox="0 0 64 20" style="enable-background:new 0 0 64 20;" xml:space="preserve">
<style type="text/css">
	.st0{fill:#1D61A4;}
	.st1{fill:#FFFFFF;}
</style>
<g>
	<g>
		<circle class="st0" cx="3.52" cy="14.48" r="3.31"/>
		<circle class="st0" cx="28.22" cy="4.95" r="3.31"/>
		<circle class="st0" cx="19.39" cy="3.4" r="1.24"/>
		<circle class="st0" cx="10.97" cy="6.51" r="6.42"/>
		<circle class="st0" cx="21.53" cy="8.06" r="2.76"/>
		<circle class="st1" cx="9.04" cy="3.4" r="1.24"/>
	</g>
	<g>
		<path class="st1" d="M11.86,17.44L11.86,17.44c-0.2-0.13-0.43-0.21-0.66-0.25c0.54-0.16,1.08-0.6,0.79-1.22
			c-0.24-0.52-0.95-0.55-1.44-0.55H8.47v0.32l0.05,0.01c0.19,0.03,0.49,0.05,0.49,0.3v2.63c0,0.26-0.29,0.25-0.49,0.27l-0.06,0.01
			v0.32h2c0.51,0,1.18-0.02,1.55-0.42C12.41,18.44,12.31,17.76,11.86,17.44z M10.73,16.86c-0.12,0.12-0.32,0.18-0.58,0.18h-0.07
			v-1.26l0.08,0c0.28-0.02,0.56,0.02,0.7,0.29C10.98,16.31,10.92,16.67,10.73,16.86C10.61,16.98,10.85,16.74,10.73,16.86z
			 M10.07,17.43c0.01,0,0.03,0,0.04,0l0.02,0c0.57-0.03,1.04,0.24,0.96,0.88c-0.03,0.26-0.16,0.49-0.42,0.57
			c-0.15,0.05-0.54,0.07-0.6-0.14V17.43z"/>
		<path class="st1" d="M15.75,15.73l0.05,0.01c0.2,0.03,0.48,0.06,0.48,0.3l-1.55,1.93v-1.96c0-0.25,0.29-0.26,0.48-0.27l0.06,0
			v-0.33h-2.12v0.32l0.06,0.01c0.18,0.02,0.49,0.06,0.49,0.3v2.64c0,0.26-0.29,0.25-0.49,0.26l-0.06,0v0.33h2.12v-0.33l-0.06,0
			c-0.25-0.02-0.47-0.05-0.48-0.33l1.55-1.93v2c0,0.26-0.29,0.24-0.48,0.26l-0.06,0v0.32h2.12v-0.33l-0.06,0
			c-0.19-0.01-0.49-0.03-0.49-0.28v-2.64c0-0.25,0.3-0.26,0.49-0.27l0.06,0v-0.33h-2.12V15.73z"/>
		<path class="st1" d="M21.99,17.21c-0.51-0.29-1.11-0.25-1.67-0.23v-1.2h0.56c0.14,0,0.28,0.01,0.41,0.03
			c0.27,0.04,0.47,0.54,0.56,0.76l0.02,0.04h0.31v-1.19h-3.45v0.32l0.05,0.01c0.19,0.02,0.49,0.05,0.49,0.3v2.63
			c0,0.27-0.29,0.25-0.49,0.27l-0.06,0.01v0.32h2.3c0.53,0,1.13-0.2,1.38-0.71C22.63,18.07,22.47,17.48,21.99,17.21
			C21.84,17.12,22.15,17.3,21.99,17.21z M21.34,18.13c0,0.29-0.1,0.6-0.38,0.73c-0.15,0.07-0.57,0.11-0.64-0.12v-1.37
			C20.86,17.34,21.34,17.5,21.34,18.13z"/>
		<path class="st1" d="M26.58,15.65c-0.25-0.16-0.62-0.24-1.11-0.24h-2.12v0.32l0.05,0.01c0.19,0.02,0.49,0.05,0.49,0.3v2.63
			c0,0.27-0.29,0.25-0.49,0.27l-0.06,0.01v0.32h2.15v-0.32l-0.06-0.01c-0.2-0.02-0.49-0.04-0.49-0.29v-0.99h0.24
			c0.55,0,1.23-0.1,1.58-0.59C27.08,16.65,27.05,15.95,26.58,15.65C26.34,15.49,26.84,15.82,26.58,15.65z M24.95,15.78h0.16
			c0.49,0,0.72,0.28,0.71,0.77c-0.01,0.51-0.33,0.75-0.82,0.75h-0.05V15.78z"/>
		<path class="st1" d="M31.28,15.84c-0.81-0.73-2.22-0.72-2.98,0.07c-0.79,0.82-0.75,2.27,0.15,3c0.82,0.66,2.17,0.61,2.9-0.15
			C32.11,17.98,32.09,16.58,31.28,15.84C31.1,15.68,31.47,16.02,31.28,15.84z M30.51,18.53c-0.33,0.69-1.17,0.52-1.43-0.12
			c-0.26-0.63-0.25-1.55,0.01-2.18c0.27-0.63,1.06-0.74,1.41-0.11C30.85,16.77,30.83,17.88,30.51,18.53L30.51,18.53z"/>
		<path class="st1" d="M32.61,16.6h0.31l0.01-0.04c0.07-0.22,0.23-0.57,0.43-0.7c0.15-0.1,0.35-0.09,0.53-0.09h0.06v2.89
			c0,0.2-0.14,0.24-0.3,0.25l-0.27,0.03v0.32h2.2v-0.32l-0.05-0.01C35.32,18.91,35,18.9,35,18.63v-2.86h0.06
			c0.18,0,0.38-0.01,0.53,0.09c0.2,0.13,0.35,0.49,0.43,0.7l0.01,0.04h0.31v-1.19h-3.74V16.6z"/>
		<path class="st1" d="M40.43,18.02c-0.16,0.41-0.38,0.82-0.84,0.87c-0.42,0.05-0.94,0.12-0.94-0.42v-1.01h0.32
			c0.39,0,0.57,0.25,0.62,0.62l0.01,0.05h0.32v-1.68H39.6l-0.01,0.05c-0.06,0.36-0.24,0.59-0.62,0.59h-0.32v-1.31h0.48
			c0.5,0,0.84,0.16,1.03,0.67l0.01,0.04h0.31v-1.08h-3.43v0.32l0.05,0.01c0.19,0.02,0.49,0.05,0.49,0.3v2.63
			c0,0.26-0.29,0.25-0.49,0.27l-0.06,0v0.33h3.62l0.08-1.29h-0.3L40.43,18.02z"/>
		<path class="st1" d="M45.57,18.91c-0.25-0.06-0.43-0.23-0.57-0.44c-0.32-0.45-0.64-0.91-0.95-1.37c0.36-0.41,0.76-1.07,1.27-1.3
			c0.1-0.04,0.19-0.06,0.29-0.06l0.06,0v-0.33H44.1v0.32l0.06,0.01c0.23,0.02,0.38,0,0.31,0.23c-0.09,0.28-0.45,0.59-0.63,0.8
			l-0.26-0.39c-0.05-0.08-0.36-0.45-0.31-0.54c0.05-0.1,0.38-0.09,0.46-0.1l0.06,0v-0.33h-2.4v0.33l0.06,0
			c0.39,0.03,0.62,0.24,0.84,0.55c0.28,0.38,0.55,0.78,0.81,1.17c-0.16,0.18-0.31,0.36-0.45,0.52l-0.42,0.47
			c-0.22,0.25-0.44,0.46-0.79,0.48l-0.06,0v0.33h1.57v-0.32l-0.06,0c-0.1-0.01-0.23-0.01-0.32-0.06c-0.02-0.01-0.03-0.02-0.03-0.02
			c-0.1-0.21,0.67-0.94,0.77-1.06c0.17,0.26,0.52,0.62,0.59,0.92c0.06,0.25-0.17,0.2-0.41,0.22l-0.06,0v0.33h2.4v-0.33l-0.06,0
			C45.69,18.93,45.63,18.92,45.57,18.91C45.52,18.9,45.63,18.92,45.57,18.91z"/>
		<path class="st1" d="M51.51,18.91c-0.15-0.03-0.29-0.07-0.29-0.25v-2.64c0-0.25,0.27-0.26,0.46-0.27l0.06,0v-0.33h-1.77l0,0.06
			c-0.01,0.15-0.06,0.31-0.11,0.44l-0.72,1.84l-0.88-2.35h-1.82v0.32l0.06,0c0.34,0.02,0.55,0.17,0.55,0.53v1.85
			c0,0.49-0.05,0.75-0.58,0.82l-0.05,0.01v0.32h1.73v-0.32l-0.05-0.01c-0.52-0.06-0.6-0.36-0.6-0.85v-1.92l0.82,2.24
			c0.09,0.25,0.2,0.5,0.27,0.75l0.01,0.05H49l1.18-3.01v2.46c0,0.27-0.32,0.27-0.52,0.29l-0.06,0.01v0.32h2.15v-0.32l-0.05-0.01
			C51.65,18.93,51.59,18.92,51.51,18.91z"/>
		<path class="st1" d="M56.56,18.91c-0.27-0.06-0.35-0.27-0.45-0.5c-0.15-0.35-0.29-0.7-0.43-1.06c-0.26-0.65-0.52-1.31-0.79-1.96
			l-0.02-0.04h-0.61l-0.02,0.04c-0.25,0.6-0.47,1.14-0.68,1.63l-0.61,1.48c-0.11,0.28-0.33,0.41-0.62,0.42l-0.06,0v0.33h1.65v-0.32
			l-0.06-0.01c-0.17-0.02-0.44-0.02-0.49-0.21c-0.04-0.17,0.17-0.56,0.23-0.71h1.2l0.3,0.73c0.01,0.03,0.02,0.05,0.02,0.06
			c0,0.01,0,0.03,0.01,0.03c-0.07,0.09-0.37,0.09-0.47,0.1l-0.06,0v0.32h2.16v-0.33l-0.06,0C56.68,18.93,56.62,18.93,56.56,18.91
			C56.5,18.9,56.62,18.93,56.56,18.91z M54.67,17.63h-0.89l0.44-1.12L54.67,17.63z"/>
		<path class="st1" d="M63.48,15.88c0.06-0.13,0.35-0.13,0.46-0.14l0.06,0v-0.33h-2.09v0.32l0.05,0.01c0.18,0.02,0.44,0.08,0.44,0.3
			v2.67c0,0.31-1.23,0.3-1.23-0.06v-2.64c0-0.24,0.25-0.26,0.44-0.27l0.06,0v-0.33h-2.04v0.32l0.05,0.01
			c0.18,0.02,0.44,0.08,0.44,0.3v2.67c0,0.31-1.23,0.3-1.23-0.06v-2.64c0-0.24,0.24-0.26,0.43-0.27l0.06,0v-0.33H57.3v0.32
			l0.06,0.01c0.18,0.02,0.49,0.06,0.49,0.3v2.64c0,0.26-0.29,0.25-0.49,0.26l-0.06,0v0.33H64v-0.33l-0.06,0
			c-0.19-0.01-0.49-0.03-0.49-0.28v-2.64C63.45,15.96,63.46,15.92,63.48,15.88z"/>
	</g>
</g>
</svg>
