<?xml version="1.0" encoding="utf-8"?>
<!-- Generator: Adobe Illustrator 19.0.1, SVG Export Plug-In . SVG Version: 6.00 Build 0)  -->
<svg version="1.1" id="Laag_1" xmlns="http://www.w3.org/2000/svg" xmlns:xlink="http://www.w3.org/1999/xlink" x="0px" y="0px"
	 viewBox="128 30 64 25" style="enable-background:new 128 30 64 25;" xml:space="preserve">
<style type="text/css">
	.st0{fill:#006EB6;}
	.st1{fill:#7C7F7E;}
</style>
<g>
	<polygon class="st0" points="172.4,30.18 178,30.18 186.48,48.44 183.84,54.69 	"/>
	<polygon class="st0" points="172.4,30.18 178,30.18 186.48,48.44 183.84,54.69 	"/>
	<polygon class="st0" points="164.37,30.18 169.93,30.18 178.45,48.44 175.81,54.69 	"/>
	<polygon class="st0" points="164.37,30.18 169.93,30.18 178.45,48.44 175.81,54.69 	"/>
	<path class="st1" d="M191.55,36.8l-3.85,9.05l-7.43-15.74h7.1c4.63,0,4.63,4.58,4.63,4.58C192,35.7,191.55,36.8,191.55,36.8
		L191.55,36.8z"/>
	<path class="st1" d="M155.89,30.14c-0.41,0-1.58,0.04-3.57,0.12v18.99h2.6v-7.3l0,0V39.6l0,0v-7.02c0.61-0.08,1.05-0.12,1.42-0.12
		c3.45,0,5.15,1.18,5.15,3.49c0,2.52-1.62,3.81-4.83,3.81c0,0-0.08,0-0.12,0l1.05,2.31c4.38-0.2,6.57-2.35,6.57-6.37
		C164.17,31.97,161.41,30.14,155.89,30.14z"/>
	<polygon class="st1" points="147.57,30.14 143.72,43.29 140.31,32.34 138.04,32.34 134.59,43.33 130.81,30.14 128.14,30.14 
		134.06,49.25 134.87,49.25 139.09,36.27 143.55,49.25 144.37,49.25 150.25,30.14 	"/>
</g>
<g>
	<path class="st0" d="M128.3,51.26v-0.45h0.39v0.45H128.3z M128.3,54v-2.32h0.39V54H128.3z"/>
	<path class="st0" d="M129.39,54v-2.32h0.35v0.33c0.55-0.82,1.53-0.27,1.53,0.56V54h-0.39V52.6c0-0.89-1.1-0.7-1.1,0.14V54H129.39z"
		/>
	<path class="st0" d="M131.99,54v-2.32h0.35v0.33c0.55-0.82,1.53-0.27,1.53,0.56V54h-0.39V52.6c0-0.89-1.1-0.7-1.1,0.14V54H131.99z"
		/>
	<path class="st0" d="M134.43,52.85c0-1.57,2.14-1.55,2.17-0.03C136.64,54.37,134.43,54.45,134.43,52.85z M134.84,52.85
		c0,1.12,1.37,1.1,1.36-0.01C136.19,51.74,134.84,51.73,134.84,52.85z"/>
	<path class="st0" d="M137.82,54l-0.88-2.32h0.42l0.5,1.39c0.05,0.15,0.1,0.31,0.15,0.47c0.04-0.12,0.08-0.27,0.15-0.44l0.51-1.41
		h0.4L138.18,54H137.82z"/>
	<path class="st0" d="M142.96,53.65l0.06,0.35c-0.57,0.12-0.84-0.09-0.84-0.67v-1.33h-0.29v-0.31h0.29v-0.57l0.39-0.24v0.81h0.4
		v0.31h-0.4v1.35C142.57,53.65,142.69,53.69,142.96,53.65z"/>
	<path class="st0" d="M143.46,51.26v-0.45h0.39v0.45H143.46z M143.46,54v-2.32h0.39V54H143.46z"/>
	<path class="st0" d="M145.2,54l-0.88-2.32h0.42l0.5,1.39c0.05,0.15,0.1,0.31,0.15,0.47c0.04-0.12,0.08-0.27,0.15-0.44l0.51-1.41
		h0.4L145.57,54H145.2z"/>
	<path class="st0" d="M148.48,53.26l0.41,0.05c-0.15,0.55-0.57,0.75-1.01,0.75c-0.64,0-1.12-0.38-1.12-1.26
		c0-0.83,0.57-1.16,1.08-1.16c0.7,0,1.05,0.49,1.05,1.31h-1.73c0.02,0.54,0.34,0.8,0.69,0.8C148.16,53.74,148.37,53.59,148.48,53.26
		z M147.2,52.62h1.29c-0.02-0.2-0.07-0.34-0.15-0.44C147.94,51.7,147.21,52.01,147.2,52.62z"/>
	<path class="st0" d="M150.84,54.89v-3.21h0.36v0.3c0.41-0.57,1.28-0.4,1.54,0.23c0.08,0.19,0.12,0.39,0.12,0.61
		c0,0.24-0.04,0.45-0.13,0.64c-0.25,0.56-1.07,0.83-1.49,0.3v1.13H150.84z M151.2,52.86c0,1.11,1.26,1.06,1.25-0.03
		C152.44,51.72,151.2,51.75,151.2,52.86z"/>
	<path class="st0" d="M157.54,53.16l0.39,0.05c-0.15,0.63-0.5,0.85-0.96,0.85c-0.6,0-1.05-0.41-1.05-1.2c0-0.75,0.4-1.22,1.06-1.22
		c0.32,0,0.79,0.12,0.93,0.73l-0.38,0.06c-0.09-0.39-0.32-0.47-0.55-0.47c-0.5,0-0.64,0.48-0.64,0.89c0,0.5,0.18,0.89,0.65,0.89
		C157.22,53.73,157.47,53.6,157.54,53.16z"/>
	<path class="st0" d="M158.37,54v-3.2h0.39v1.82l0.93-0.94h0.51l-0.89,0.86l0.98,1.46h-0.48l-0.77-1.18l-0.28,0.27V54H158.37z"/>
	<path class="st0" d="M160.58,53.52c-0.1-0.98,1-0.76,1.6-0.98c0.16-0.69-1.08-0.83-1.16-0.13l-0.38-0.05
		c0.09-0.56,0.58-0.71,1.09-0.71c0.61,0,0.92,0.3,0.85,0.88v0.52c0,0.31-0.04,0.68,0.13,0.97h-0.41c0,0-0.07-0.11-0.08-0.29
		c-0.41,0.37-0.89,0.36-1.07,0.32C160.79,53.96,160.61,53.75,160.58,53.52z M162.19,52.84c-0.35,0.18-1.23,0.06-1.19,0.54
		c0.05,0.67,1.21,0.34,1.19-0.21V52.84z"/>
	<path class="st0" d="M153.34,53.52c-0.1-0.98,1-0.76,1.6-0.98c0.16-0.69-1.08-0.83-1.16-0.13l-0.38-0.05
		c0.09-0.56,0.58-0.71,1.09-0.71c0.61,0,0.92,0.3,0.85,0.88v0.52c0,0.31-0.04,0.68,0.13,0.97h-0.41c0,0-0.07-0.11-0.08-0.29
		c-0.41,0.37-0.89,0.36-1.07,0.32C153.54,53.96,153.36,53.75,153.34,53.52z M154.94,52.84c-0.35,0.18-1.23,0.06-1.19,0.54
		c0.05,0.67,1.21,0.34,1.19-0.21V52.84z"/>
	<path class="st0" d="M139.45,53.52c-0.1-0.98,1-0.76,1.6-0.98c0.16-0.69-1.08-0.83-1.16-0.13l-0.38-0.05
		c0.09-0.56,0.58-0.71,1.09-0.71c0.61,0,0.92,0.3,0.85,0.88v0.52c0,0.31-0.04,0.68,0.13,0.97h-0.41c0,0-0.07-0.11-0.08-0.29
		c-0.41,0.37-0.89,0.36-1.07,0.32C139.65,53.96,139.47,53.75,139.45,53.52z M141.05,52.84c-0.35,0.18-1.23,0.06-1.19,0.54
		c0.05,0.67,1.21,0.34,1.19-0.21V52.84z"/>
	<path class="st0" d="M163.23,54.2l0.38,0.06c0.04,0.34,0.49,0.44,0.77,0.34c0.4-0.15,0.41-0.51,0.41-0.89
		c-0.69,0.81-1.64-0.05-1.64-0.87c-0.01-0.85,1-1.72,1.68-0.87v-0.28h0.36v2c0,0.65-0.16,1.14-0.89,1.24
		C163.8,55,163.21,54.79,163.23,54.2z M163.55,52.8c0,1.08,1.28,1.1,1.27,0.01C164.82,51.77,163.55,51.73,163.55,52.8z"/>
	<path class="st0" d="M165.9,51.26v-0.45h0.39v0.45H165.9z M165.9,54v-2.32h0.39V54H165.9z"/>
	<path class="st0" d="M166.99,54v-2.32h0.35v0.33c0.55-0.82,1.53-0.27,1.53,0.56V54h-0.39V52.6c0-0.89-1.1-0.7-1.1,0.14V54H166.99z"
		/>
	<path class="st0" d="M169.51,54.2l0.38,0.06c0.04,0.34,0.49,0.44,0.77,0.34c0.4-0.15,0.41-0.51,0.41-0.89
		c-0.69,0.81-1.64-0.05-1.64-0.87c-0.01-0.85,1-1.72,1.68-0.87v-0.28h0.36v2c0,0.65-0.16,1.14-0.89,1.24
		C170.09,55,169.5,54.79,169.51,54.2z M169.84,52.8c0,1.08,1.28,1.1,1.27,0.01C171.1,51.77,169.84,51.73,169.84,52.8z"/>
</g>
</svg>
