<?xml version="1.0" encoding="utf-8"?>
<!-- Generator: Adobe Illustrator 19.0.1, SVG Export Plug-In . SVG Version: 6.00 Build 0)  -->
<svg version="1.1" id="Слой_1" xmlns="http://www.w3.org/2000/svg" xmlns:xlink="http://www.w3.org/1999/xlink" x="0px" y="0px"
	 viewBox="5 2 34 21" style="enable-background:new 5 2 34 21;" xml:space="preserve">
<path class="st0" d="M32,18v5H12v-5l4.5-8.1V7h4v2.5h3V7h4v2.8L32,18z M26.5,10.2V8h-2v2.5h-5V8h-2v2.1L13,18v4h18v-4L26.5,10.2z"/>
<path class="st0" d="M35.4,3.9c-2.7-2.6-24.1-2.6-26.8,0C6.7,5.9,5.2,9,6,11c0.4,0.9,1.3,2,4,2c2.9,0,4.5-1.5,4.5-4.1
	c0-2.3,3.8-3.6,7.5-3.6c2,0,3.9,0.3,5.3,1c1,0.5,2.2,1.3,2.2,2.6c0,3.4,1.3,4.1,4.5,4.1c2.6,0,3.6-1.2,4-2
	C38.9,8.9,37.3,5.9,35.4,3.9z M10,12c-1.6,0-2.7-0.5-3-1.4C6.7,10,6.8,9.1,7.1,8.3c1.2,0.9,2.4,1.4,3.8,1.4c0.8,0,1.7-0.2,2.6-0.5
	C13.4,11,12.3,12,10,12z M27.7,5.3c-1.5-0.7-3.5-1.1-5.7-1.1c-3.7,0-7.6,1.2-8.4,3.7c-2.4,1.1-4.2,0.9-6.1-0.7
	C8,6.3,8.6,5.4,9.4,4.8c2.2-2.2,23-2.2,25.3,0c0.7,0.7,1.3,1.6,1.8,2.5c-2.3,1.9-4.4,1.4-6.1,0.7C30,6.8,29.2,5.9,27.7,5.3z
	 M37,10.6c-0.4,0.9-1.4,1.4-3,1.4c-2.9,0-3.5-0.5-3.5-2.8c0.8,0.3,1.7,0.5,2.6,0.5c1.2,0,2.5-0.4,3.8-1.4C37.2,9.1,37.2,10,37,10.6z
	"/>
<g>
	<rect x="21" y="12" class="st0" width="2" height="2"/>
	<rect x="18" y="12" class="st0" width="2" height="2"/>
	<rect x="24" y="12" class="st0" width="2" height="2"/>
	<rect x="21" y="15" class="st0" width="2" height="2"/>
	<rect x="18" y="15" class="st0" width="2" height="2"/>
	<rect x="24" y="15" class="st0" width="2" height="2"/>
	<rect x="21" y="18" class="st0" width="2" height="2"/>
	<rect x="18" y="18" class="st0" width="2" height="2"/>
	<rect x="24" y="18" class="st0" width="2" height="2"/>
</g>
</svg>
