<?xml version="1.0" encoding="utf-8"?>
<!-- Generator: Adobe Illustrator 19.0.1, SVG Export Plug-In . SVG Version: 6.00 Build 0)  -->
<svg version="1.1" id="Слой_1" xmlns="http://www.w3.org/2000/svg" xmlns:xlink="http://www.w3.org/1999/xlink" x="0px" y="0px"
	 viewBox="0 0 64 64" style="enable-background:new 0 0 64 64;" xml:space="preserve">
<g>
	<path d="M22,5C12.6,5,5,12.6,5,22s7.6,17,17,17s17-7.6,17-17S31.4,5,22,5z M22,37c-8.3,0-15-6.7-15-15S13.7,7,22,7s15,6.7,15,15
		S30.3,37,22,37z"/>
	<path d="M22,9C14.8,9,9,14.8,9,22c0,0.6,0.4,1,1,1s1-0.4,1-1c0-6.1,4.9-11,11-11c0.6,0,1-0.4,1-1S22.6,9,22,9z"/>
	<path d="M62.8,55.4l-22-22c2-3.3,3.2-7.2,3.2-11.4C44,9.9,34.1,0,22,0S0,9.9,0,22s9.9,22,22,22c4.2,0,8.1-1.2,11.4-3.2l22,22
		c0.8,0.8,1.8,1.2,2.8,1.2s2.1-0.4,2.8-1.2l1.8-1.8c0.8-0.8,1.2-1.8,1.2-2.8S63.6,56.2,62.8,55.4z M2,22C2,11,11,2,22,2s20,9,20,20
		s-9,20-20,20S2,33,2,22z M39.7,35.1L57.6,53L53,57.6L35.1,39.7C36.8,38.4,38.4,36.8,39.7,35.1z M61.4,59.7l-1.8,1.8
		c-0.8,0.8-2.1,0.8-2.8,0L54.4,59l4.6-4.6l2.4,2.4c0.4,0.4,0.6,0.9,0.6,1.4S61.8,59.3,61.4,59.7z"/>
</g>
</svg>
