<?xml version="1.0" encoding="utf-8"?>
<!-- Generator: Adobe Illustrator 19.0.1, SVG Export Plug-In . SVG Version: 6.00 Build 0)  -->
<svg version="1.1" id="Слой_1" xmlns="http://www.w3.org/2000/svg" xmlns:xlink="http://www.w3.org/1999/xlink" x="0px" y="0px"
	 viewBox="0 0 64 64" style="enable-background:new 0 0 64 64;" xml:space="preserve">
<g>
	<path d="M32,0.5L0,9.7V16h3v48h23h12h23V16h3V9.7L32,0.5z M28,62V41h8v21H28z M62,14h-3v48H38V41c0-1.1-0.9-2-2-2h-8
		c-1.1,0-2,0.9-2,2v21H5V14H2v-2.7l30-8.7l30,8.7V14z"/>
	<path d="M19,17h-8c-1.1,0-2,0.9-2,2v10c0,1.1,0.9,2,2,2h8c1.1,0,2-0.9,2-2V19C21,17.9,20.1,17,19,17z M11,29V19h8l0,10H11z"/>
	<path d="M26,19v10c0,1.1,0.9,2,2,2h8c1.1,0,2-0.9,2-2V19c0-1.1-0.9-2-2-2h-8C26.9,17,26,17.9,26,19z M36,29h-8V19h8L36,29z"/>
	<path d="M45,31h8c1.1,0,2-0.9,2-2V19c0-1.1-0.9-2-2-2h-8c-1.1,0-2,0.9-2,2v10C43,30.1,43.9,31,45,31z M45,19h8l0,10h-8V19z"/>
	<path d="M45,53h8c1.1,0,2-0.9,2-2V41c0-1.1-0.9-2-2-2h-8c-1.1,0-2,0.9-2,2v10C43,52.1,43.9,53,45,53z M45,41h8l0,10h-8V41z"/>
	<path d="M19,39h-8c-1.1,0-2,0.9-2,2v10c0,1.1,0.9,2,2,2h8c1.1,0,2-0.9,2-2V41C21,39.9,20.1,39,19,39z M11,51V41h8l0,10H11z"/>
</g>
</svg>
