<?xml version="1.0" encoding="utf-8"?>
<!-- Generator: Adobe Illustrator 19.0.1, SVG Export Plug-In . SVG Version: 6.00 Build 0)  -->
<svg version="1.1" id="Слой_1" xmlns="http://www.w3.org/2000/svg" xmlns:xlink="http://www.w3.org/1999/xlink" x="0px" y="0px"
	 viewBox="0 0 64 64" style="enable-background:new 0 0 64 64;" xml:space="preserve">
<g>
	<path d="M32,0.5L0,9.7V16h3v48h58V16h3V9.7L32,0.5z M5,16h6v38H5V16z M59,16v38h-6V16H59z M51,54h-6V16h6V54z M43,54h-6V16h6V54z
		 M35,54h-6V16h6V54z M27,54h-6V16h6V54z M19,54h-6V16h6V54z M5,56h54v2H5V56z M5,62v-2h54v2H5z M62,14h-2h-1H5H4H2v-2.7l30-8.7
		l30,8.7V14z"/>
	<rect x="7" y="17" width="2" height="36"/>
	<rect x="23" y="17" width="2" height="36"/>
	<rect x="39" y="17" width="2" height="36"/>
	<rect x="55" y="17" width="2" height="36"/>
	<path d="M27.5,9c0,2.5,2,4.5,4.5,4.5s4.5-2,4.5-4.5s-2-4.5-4.5-4.5S27.5,6.5,27.5,9z M34.5,9c0,1.4-1.1,2.5-2.5,2.5
		c-1.4,0-2.5-1.1-2.5-2.5s1.1-2.5,2.5-2.5C33.4,6.5,34.5,7.6,34.5,9z"/>
</g>
</svg>
