<?xml version="1.0" encoding="utf-8"?>
<!-- Generator: Adobe Illustrator 20.1.0, SVG Export Plug-In . SVG Version: 6.00 Build 0)  -->
<svg version="1.1" id="Слой_1" xmlns="http://www.w3.org/2000/svg" xmlns:xlink="http://www.w3.org/1999/xlink" x="0px" y="0px"
	 viewBox="0 0 1026 333" style="enable-background:new 0 0 1026 333;" xml:space="preserve">
<style type="text/css">
	.st0{fill:#FFFFFF;}
</style>
<g>
	<path d="M710.9,43.1c-0.3-0.3-0.6-0.6-1-0.9c-1.4-1.2-1.2-2.9,0.6-3.5c4.1-1.5,10-0.4,14.2-0.4c0-7.2,22.5-5.7,27.8-6
		c4.9-0.2,11.5,0.4,16.1-1.4c4.1-1.6,3.9-5.7,9.9-4.6c2.1,0.4,3.7,2.8,6.4,3.3c5.5,1.2,11.1-1,16.7,0.8c2.4,0.8,2.6,2.3,0.9,4.1
		c-0.3,0.3-0.7,0.4-1.3,0.8c4.9,4.4,45.9,2.3,46.1,4.9c0.1,0.8-1,1.6-1.7,2.7c0.5,4.5,26.1,2.8,29,2c3.7-1,5.5-3,9.5-3.7
		c5.2-1,13.6,0.4,18.5,1.1c4.1,0.6,7.3,2.8,11.5,3.6c5.7,1.2,11.9-1.1,17.5,0.2c10.6,2.5,21,4.7,32.6,5.2c2.2-6.5,22.6-1.5,28.2-0.6
		c5,0.8,9.2,2.9,13.8,4.3c4.7,1.4,10,1.9,15.7,2.8c0,1,0,1.9,0,2.9c-1.3,0.4-7.1,4.2-8.6,4.3c-2.7,0.3-7.3-2.2-9.8-2.7
		c-6.9-1.7-10.1,0.8-16.8,1.5c7.6,3.5,11.9,3.2,20.1,5.3c0,7.9,0,15.7,0,23.6c-7.6,2.4-8.3,3.7-16.8,1.7c-6.5-1.6-8.1-1.7-13.5,1.4
		c0,1.4,0,3,0,4.9c-6.9,1.2-13.6,2.5-20.4,3.9c-6.3,1.3-12.9-0.5-19.1,1.4c-8,2.5-3.2,3.5-6.4,8.8c-2.6,4.1-11.3,8.2-15.8,10.2
		c-1.4,0.6-2.4,0.1-3.1-1.3c-2.8-5.3-1.8-11.7-1.8-17.4c-7.4,2.2-15.7-0.3-22.9,2.5c0.5,0.2,8.4,1.3,8.2,3.1
		c-0.3,3.9-9.6,5-12.1,5.7c5.5,3.7,0.1,8.9-0.7,13.8c-1.6,9.7,1.5,10.1-9.3,13.4c-1.5,7.7-2,12-9,14.5c-3.2,1.1-7.7,1-11.1,1.7
		c-3.1,0.6-10.6,5.2-13.2,4.8c-2.3-0.3-4.5-6.3-4.4-8.2c-1.4,0.3-2.6,0.6-3.8,0.7c-4.1,0.4-4.9-8.8-9.7-9.2c-9.5-0.8-6.2,17-8,20.9
		c-5.1,10.9-23.9,11.6-33.7,13.3c0,4.9,0,9.5,0,14.4c7.3-1.5,15.3-6,22.3-8.6c2.6-0.9,8.1-4.2,10.8-3.7c4.6,0.8,6.6,3.2,2.5,5.8
		c0.8,1.1,2,2.2,2.2,3.3c0.1,1.1-0.9,2.4-1.4,3.7c6.4,0.8,11.1-4.2,18.8-2c-2.5,2.8-7.4,1.5-10.7,2.4c1.3,0.3,6.3-0.4,6.2,1.8
		c-0.1,1.5-3.4,1.3-4.1,1.3c1.4,1.1,2.5,2.4,3.3,4c0.4,0.9,0.3,1.9-0.7,2.5c-1,0.6-2.5,0.5-3.3-0.4c-0.8-0.9-1.4-1.9-2.1-2.9
		c-2.3,1.4-1.3,12.5-1.3,14.1c-1.2,0.3-2.3,0.6-3.4,0.8c-1,2.9-1.3,6-1,9.1c2.3,0,4.3-2.6,6.5-3.1c2.7-0.6,5,0.8,7.5,0.3
		c4.3-0.9,8.1-3.9,11.6-6.4c0.1-5.6-0.2-11.5,0.3-17.4c4.7-2.5,5.6,2,9.4,3c2,0.5,3-0.4,3.8-3.3c-0.8-0.5-1.4-1.2-2-2
		c0-1.1,1.2-1.2,2-1.3c3.6-0.5,7.7,2.8,10.9,3.2c5.7,0.8,11,0,17.3,1.7c8,2.1,17.8,5.5,22.1,12.9c-7,4-11.6-6.4-18.4-2.1
		c1.8,1,3.4,1.9,5.2,2.9c0,8.3,0.5,12.2,6.7,17.8c3.1,2.7,15.9,7.7,15.7,11.8c-0.3,8.5-5.2,20.5-13.3,24.2
		c-1.5,11-6.5,25.6-19.4,27.2c-10.1,1.3-18.4-2.9-25.7-9.3c0.3-0.8,0.7-1.6,1-2.4c-1.8-0.9-5.7,1.6-8.3,1.1c-6.1-1.2-9-4.7-16.3-4.2
		c-9.6,0.6-27.1,10.7-35.8,6.3c-2.8-1.5-7.4-15.1-9.8-18.4c1.3-0.2,2.4-0.3,3.6-0.4c-2.3-7.2-7.3-21.8-1.9-29.4
		c5-6.9,20.7-2.2,24.7-10.5c-1-1.5-2-3-3.1-4.7c-1.8,1.7-0.2,4-1.4,5.8c-6.9-3.2-4-19.9-4-25.7c-0.1,0-0.2,0-0.3,0
		c-0.5,9.2-2.8,21.3-13.9,21.3c0,2.9,0,5.7,0,8.8c-7.6,0.4-23,1.5-23-7.9c-7.9,3.2-12.7-4.1-18.6-9.2c-8.7-7.5-12.8-14.2-8.6-26.7
		c-1-0.8-2.2-1.1-3.4-0.7c-2.3-0.1-4.4-6.9-7.2-8.6c-5-3.1-10.5-1.9-15.9,0.3c-4.4,1.8-12,4.8-15.3,7.9c-4.2,3.8-3.3,8.7-7.6,12.7
		c-1.5,1.5-3.5,1.4-4.9-0.1c-6.8-7.7-9.1-12.8-12.9-21.9c-7,1.1-6.5-1.7-13.1-4.3c-6.7-2.6-14.6-2.8-21.7-2.4
		c0,15.8-16.6,9.2-22.7,18.2c0,0.1-2.3,10.3-0.2,5c-1.3,3.3-2.9,5.7-5.2,8.5c-4.8,5.8-11,9.6-17.8,12.7c0.5,6.6-2.6,8.1-7.5,11.8
		c-0.7,8,2.1,15.6-4.5,21.1c-2.3,1.9-7.6,1.8-9.3,4.3c-2.1,3.1-0.3,6.8-2.2,10.2c-1.1,1.9-4.6,3.1-6.2,5c-3.2,3.6-3.6,7.5-8,10.5
		c-7.7,5.2-22.2,8-31.2,6c-2.9-0.7-10.9-15.3-12.4-18.3c-3.1-6.3-6.9-14.8-7.5-21.4c-0.9-9.8,0.6-13.8-4.2-21.9
		c-1.6-2.6-3.5-14.1-5.7-14.5c-5.9-1-12.2-2.5-18.1-2.6c-8.6-0.2-17.3,2.8-26,2.3c-9.5-0.6-24.9-9-28.2-18.6
		c-3.2-9.3,0.3-29.9,5.7-37.6c3.9-5.5,12.3-7.9,15.4-13c2.9-4.8,1.9-12.7,2.5-18.3c-0.9-0.3-1.8-0.6-2.8-0.9c0-9-3-23.5,5.9-28.7
		c-2.5-2.1-0.9-4.7,1.4-7.1c4.2-4.3,8,0.9,11.5-1.8c-1.7-2.9-2.8-5.1,0.5-7.5c2.1-1.5,4.5-2.4,7.5-2.8c-0.9,1.5-1.5,2.6-2.2,3.8
		c1.1,0.4,2.1,0.8,3.3,1.2c-0.5,0.9-0.8,1.5-1.3,2.5c3.6,3,7.3,5.9,11,8.8c1.2,1,1.4,2,0.2,2.9c-2.7,1.9-6.5,1.9-9.7,2.2
		c1.2,2.3,1.3,2.4,3.2,1.7c6.2-2.2,11.5-2.8,13.3-9.2c2.2-8-2.5-8.5,6-12.9c-0.6-2.8-2-5.9,0.9-7.9c4.3-2.9,8.7-3.4,13.6-4
		c0.5-3.2-2.3-3.6,1.7-5.5c18-8.4,33.9-17.3,54.5-12.9c-0.1,0.9-0.2,1.5-0.3,2.3c4.3-0.3,29.6,0.9,30.2,6.4
		c0.7,6.9-14.6,3.3-19.2,2.8c1.6,3.4,4.6,5.3,7.9,5.1c-0.1-0.6-0.2-1.2-0.2-1.7c1.7-1,6.6-0.5,8.7-0.9c4.2-0.8,7-2.7,11.8-2.9
		c-0.6-1.8-2.4-5.1,0.6-5.6c2.1-0.4,3.9,0.5,5.7,1.4c1.1,0.6,0.5,1.5-0.1,2.3c3.5,1.9,11.8-3.1,15.6-3.6c6.4-0.8,12-0.7,18.4-1.6
		c3.7-0.5,7.7-0.9,11.6-1.3c5.3-0.5,13.1,3.1,17.9,1.7c-1.3-1-2.6-2-3.9-2.9c-1.2-1.2-1.2-2.4,0.2-3.5c4.5-3.4,8.3-6.7,14.4-4.6
		c3,1,1.8,12.7,1.2,14.8c0.5,0.9,1.3,1.3,2,0.4c1.2-1.6,4.3-2.8,5.2-4.5c-2-0.3-8.4-4.5-5.2-7.3c1.1-1,2.4-1.8,3.8-2.3
		c1.4-0.5,4.8,3.2,6.3,3.5c-0.5-0.7-0.9-1.3-1.6-2.2C701.4,42,707,41.6,710.9,43.1c1.9,0.6,3.6,3.6,5.7,3.6
		C716,44.3,714.1,43.1,710.9,43.1C710.6,42.8,714.1,43.1,710.9,43.1z M678.8,154.7c-0.4,3-0.2,3.1,2.5,2.6c1.3-0.2,2.6-0.5,4.1-0.7
		c2.2,10.2,6.5,15.7,13.1,24c4.7,5.9,7.4-8.8,8.1-9.9c3.2-5,12.3-8.8,17.9-11.6c4.3-2.1,10.9-4.7,15.7-3c3.9,1.4,8.3,11.3,9.9,11.2
		c8-0.6,7.4-0.4,10,8.2c2.1,6.7,4.8,18.6,14.3,18.6c-1.2-5.4-14.4-11.7-12.1-16.4c0.9-1.8,1.9-3.6,4.3-3.7c5.1-0.1,11.4,7.7,15,6.5
		c3.2-1,9.7-3.9,8.3-8.3c-1.1-3.6-4.2-5.7-6.9-8.1c-1.9-1.6-1.9-3.7,0-5.3c2.8-2.4,8.9-1.5,12.3-2c6.1-0.9,12.7-1.8,18.3-4.5
		c10.1-4.8,14.4-11.1,7.4-20.4c-0.9-1.2-0.7-2.2,0.6-3c1.5-0.8,3-1.5,4.6-2.2c0-0.2-0.1-0.3-0.1-0.5c-2.1,0-10,0.6-10.5-2.6
		c-0.3-2.1,5.3-4.1,6.7-4.2c5.4-0.3,2.2-0.3,4.7,2.6c4.9-2.2,15.7,0.3,13.9,8.2c2.3,0.8,4.2,0.1,5.9-0.8c0.9-0.4,1-1.3,0.5-2
		c-1.8-2.4-5.7-5.2-1.9-7.9c10.6-7.6,34.5-8,35.9-25.2c0.3-3.3-0.4-4-3.6-4.2c-1.4-0.1-12,0.4-11.1-3.3c0.8-3.2,13-7.3,16.3-8.4
		c7-2.6,12.6-2,20-2.1c6-0.1,12,1.2,17.5-0.9c3.9-1.4,10.8-7.8,15.5-4.7c0.6,0.4,0.8,1.5,1.2,2.4c3.9-0.4,7.1-2.8,10.7-4.4
		c2.5,11.2-30.4,6.4-22.6,25c0.4,1,1.3,1.3,2.2,0.9c4.8-2.6,11.4-6.1,15.2-10.2c2.8-3-3.5-6.3,1.6-8.4c8-3.3,15.2-1.7,23.4-3
		c7.4-1.2,14.7-3.3,22.2-4.6c-0.3-3.7-6.2-2.9-6.4-6.4c7.5,0.6,11.3-2.7,18.6-1.3c1.8,0.4,8.9,3.5,10.9,3.1c2.3-0.4,5.6-3.4,8.1-4.3
		c0-0.2-0.1-0.3-0.1-0.5c-4.7-1.3-9.2-0.2-13.4-1.5c-3.9-1.2-7.2-4-11.7-5.1c-7.3-1.7-20.7-4.9-28.1-3.3c-1.4,0.3-2.7,3-3.2,3.1
		c-3.2,0.5-6.8-0.7-10-1c-4.8-0.4-10.4,0.3-15-0.8c-2.6-0.6-4.4-2.5-6.9-3.2c-4.2-1.2-9.1,0.1-13.4-0.1c-5.7-0.2-9.2-2.8-14.4-3.7
		c-6.2-1-16.1-2.7-22.6-1.2c-3.8,0.9-5.9,2.9-10,3.5c-4.1,0.6-8.7-0.3-12.9,0c-3.3,0.3-15.4,3.3-15.3-3.9c0.7-0.5,1.3-1,2.2-1.8
		c-8.2-1.8-16.2,0.7-24.5,0.3c-5.5-0.3-16.7,0.3-20.6-3.5c-1.7-1.6,0.2-3.1,1.3-4.4c-2.1-3.5-10.7-1.8-13.8-1.9
		c-5.7-0.2-6-1.1-10.3-3.3c-4.8-2.5-6.4,3.1-9.5,4.3c-3,1.2-7.2,1.2-10.4,1.4c-10.7,0.8-22.6-0.3-32.9,3c0.3,1.2,0.5,2.1,0.8,3.2
		c-2.8,0-14.9-2.1-16.6,1.5c1.4,0.6,10.5,3.5,7.5,6.5c-0.2,0.2-15-4-17.6-3.8c1.6,1.5,1.6,1.5,1.8,3c-2.8,0-8.3-4.7-10.2-3.3
		c-0.8,0.6-2,0.9-2,2.2c0.3,6.1,12.2,5.5,15,11.5c-5,0.5-7.6-7.2-12.4-2.5c-2.2,2.2-4.6,4.3-7.7,5.1c-3.1,0.8-6.9-0.2-9.2-2.7
		c2.5,0.2,8.1,1.9,9.7-0.8c0.8-1.2,2.5-13.6-0.3-14.4c-5.3-1.5-9.9,2.2-13.6,5.6c0.8,0.7,5.7,3.6,5.2,5c-0.1,0.2-25.2,0-27.9,0.4
		c-4.2,0.7-8.6,1.1-12.9,1.4c-7.4,0.5-16.4,4.1-23.5,3.8c-2.2-0.1-2.6-0.8-1.4-2.9c-1.7-0.8-3.4-1.7-5.4-0.6
		c0.3,0.7,0.6,1.3,0.8,1.9c0.7,2.2,0.1,3.2-2.2,3.4c-6.1,0.6-10.6,4.4-16.6,3.3c0,0.7,0.1,1.3,0.1,1.9c-5.1,1.2-8.4-0.9-12.6-6.9
		c4.4-1.5,18.5,4.8,21.3-1c-3.8-4.1-15.5-5.8-20.9-6.3c-3.1-0.3-6.6,0.5-9.7-0.1c0.3-2.2-0.5-3.1-2.6-2.8c-2-0.4-4.1-0.7-6.1-0.9
		c-16.4-0.6-32.2,8-46.2,15.6c0.3,0.6,0.5,0.9,0.7,1.3c1,1.9,0.6,2.8-1.5,3.3c-4.4,1.1-7.9,1-12.1,3.4c-1.2,0.7-2.1,1.6-1.5,3.1
		c0.7,1.9,0.3,4.5,3,5.3c3.5,1,7.1-2.5,10.4-1.5c3.4,1.1,4.3,6.1,7.5,6.9c5.7,1.3,12.7-3,15.4-8c-0.2-0.7-0.7-1.2-1.4-1.6
		c-2.4-2.2-2.3-4.2,0.5-6c2.8-1.8,14-11.2,17.4-8.4c4.3,3.6-2.7,5.6-6.1,8c-2,1.4-2.1,3-0.5,4.9c4,4.8,16.1-1.5,21.9,1.8
		c-4,2-8.3,1.7-12.6,2c-3.3,0.2-3.3,0.3-2.6,3.3c0,0.2,0.1,0.3,0.1,0.5c0.2,1.5-0.2,2.1-1.8,2c-1.1-0.1-2.2-0.4-3.3-0.5
		c-2.5-0.3-1.5,1.1-2.9,2.2c-2.7,2.1-2.6,2.9-6.8,4.1c-6.7,1.9-15.7,2.2-22.5,1c-3.8-0.6-4.6-1.4-3.8-5.1c-5.2-1.4-0.3,5.6-5.4,6.5
		c-12,2.2-22.5,9.2-34.8,11.9c2.3,1,5.1,2.2,6.8,4.3c2.3,2.9,0.9,6.1-2.7,6.7c-4.8,0.8-10.2-0.4-15.1-0.3c-3.7,0.1-5.9,9.2-2.7,11
		c15.3,8.7,24.5-6,37-10.8c10.6-4.1,28.3,0.5,35.4,9.4c0.3-2,1.7-2.8,3-3.5c-5.4-2.2-10.5-3.9-14.5-8.3c-1.1-1.2-0.8-2.1,0.7-2.8
		c7.9-3.4,23.1,12.6,27.5,17.8c1.6,0,3.3-0.4,4.8-2c-0.3-0.3-0.5-0.5-0.7-0.8c-2.1-2.1-1.7-3.6,1.2-4.3c4.7-1.2,7.8-0.6,11-3.2
		c2.9-2.4,2.5-8.1,8.3-9.2c4.7-0.9,7.2,3.2,11.8,2.7c2.6-0.3,4.6-7.7,9.1-2.7c-0.6,1.8-1.5,2.6,0.6,3.8c1.7,1,8.8,2.5,8.6,5.3
		c-0.4,5.1-13,1.7-15.2,1.5c-7.9-0.8-17-0.4-24.5,2.9c-2.6,1.1-2.8,3-0.7,4.7c5.3,4.3,16.2,1.9,22.3,1.9c1.8,0,2.3,0.7,1.8,2.4
		c-5.2,18.5-31,6.3-44.3,8.7c-2.9,0.5-3.9,2.1-7.6,2c-4-0.1-9.2-2.5-13-3.7c-2.5-0.8-5.1-1.1-6.9-2.9c-1.9-1.9,1.3-4.9-2.2-5.9
		c-8.1-2.3-21.1,1.2-29.3,2c-9.8,1-19,1.6-26.5,8.3c-1.9,1.7-3,4.8-5.5,6.8c-2.7,2.3-6.1,3.7-8.8,6c-8.3,6.8-3.6,11.9-8.1,20.3
		c11.3,12.1,19.8,18.6,36.9,17.7c10.3-0.6,36-6.1,39.4,6.3c0.8,2.8-0.2,5.2,1.1,7.9c1.5,3.2,6.2,5.2,8.1,8.6c5.1,9.2-2,9.9-1.5,18.3
		c0.3,4.2,7.2,16.2,9.3,19.5c1,1.6,9,14.1,10.4,14.4c8.1,1.7,21.5-0.7,28.8-4.6c7.2-3.8,9-10.9,15.6-15.1c4.6-2.9-2.6-7.8,3.2-10.7
		c5.2-2.5,15.2-4,13.5-11.8c-1.4-6.5-7.9-11.4-1-17.5c10.8-9.5,25.5-12.7,31.9-27.1c-15.9,1.6-21.6,1-33.9-9.4
		c-4.2-3.5-4.2-4.9-6.9-9.2c-3-4.8-9.1-8.7-11.5-13.6c-1.5-3.1,6.8-1.2,7.8-0.7c4,2.1,7.9,8.7,10.9,12.1c2.8,3.1,11.6,17,14.5,17
		c12.5,0,34.3-7.2,42.8-16.6c-2.1-3.5-8.5-5.8-12-5.8c-3.9,0-5.7,3.5-10.3,1.9c-3.4-1.2-7.1-6.9-9.4-9.3c-4-4.3,6.2-1.7,6.7-1.5
		c5.9,1.9,10.5,4.3,16.9,5.6C653.7,150.1,666.7,149,678.8,154.7C678.4,157.7,678.3,154.5,678.8,154.7z M871.8,263.5
		c8.1,5.8,13.6,9.7,24,8.9c12.1-0.9,19.4-13.4,20.1-24.9c0.3-4-11.3-7.9-14.8-10.7c-5.4-4.4-8.3-10.6-12.8-16.2
		c-1-1.2-2.1-1.2-2.8,0.2c-1.3,2.4-3.6,11.8-7.7,11c-3.8-0.7-7.4-2.1-10.6-4.2c-1.8-1.2-1.9-2.8-0.6-4.5c0.5-0.7,1-1.3,1.6-2
		c-5.8-2.7-10.9-2.1-16.2,1c-2.4,1.4-2.5,3.9-5.5,4.8c-2.5,0.7-5.5-1.6-8.1-1.4c-4.7,0.4-8.6,5.1-12.3,7.3
		c-6.9,4.1-15.1,4.4-22.3,8.1c-1.3,0.7-1.4,1.2-0.8,2.6c0.2,0.4,0.4,0.7,0.6,1c1.7,2.8,1.6,3-1.6,3.4c1.1,2.3,7.3,15.8,8.7,16.5
		c4.9,2.3,14.8-1.9,19.8-3.1c7.1-1.6,14.3-3.7,21.7-3c4.4,0.4,9.1,4.6,12.6,4.8c1.3,0.1,6.7-2.6,7.3-2c0.9,0.9,0.1,1.8-0.1,2.7
		C871.9,263.9,872,264,871.8,263.5C873.8,265,872,264,871.8,263.5z M817.5,188.9c-6.4-5.4-19.2,4.1-25.6,7c-1.9,0.9-2.2,1.5-1,3.3
		c4,5.8,12.2,6.3,18.5,5.6c1.1-0.1,6.2-7.5,6.4-7.8c0.9-2.2-2-5.3-0.2-6.7C816.1,189.8,816.7,189.4,817.5,188.9
		C814.6,186.5,816.7,189.4,817.5,188.9z M906,216.4c-3.6-2-5.2-5.2-8.6-7.3c-4.1-2.6-10.3-3.3-14.9-4.4c-2.9-0.7-5.7-1.4-8.6-2
		c-2.6-0.1-5.1,0.5-7.4,1.6c-3.8-0.6-5-5.1-9.4-3.5c1.9,0.6,2.1,1.8,1.3,3.4c5.3,0.6,10.1,1.4,14.8,4c2.4,1.3,1.1,2.2,0.5,4
		c5.8,2.2,10,1.2,15.4,1.2c2.2,0,3.7-1.3,6.2-0.8C899.9,213.6,900.6,216.9,906,216.4C905.2,215.9,903.1,216.7,906,216.4z
		 M850.3,138.1c2.2,1.4,17.7-5.4,21-5.9c4.9-0.7,7-0.5,10.2-4.1c1.4-1.7,5-7.4,1.6-8.9c-3.3-1.4-9.3,6-12.8,7.5
		c-7.2,3.2-15.3,3.5-22.6,6.4C849,134.8,850.7,136,850.3,138.1C852.2,139.3,850.7,136,850.3,138.1z M482.6,94.3
		c-5.2-4.4-10.7-8.5-13.6-13.4c-0.4-0.6-0.1-1.6-0.2-2.7c-1.5,0.9-2.9,1.5-4,2.4c-2,1.6-2,3.4,0,5c0.9,0.7,2,1.2,3.1,1.8
		c3.8,2.2-0.3,4.5-2.2,6c1.2,0.7,2.1,1.2,3.3,1.8c-1,0.7-1.7,1.3-2.8,2.1C469.9,97,480,98,482.6,94.3
		C481.3,93.3,481.7,95.6,482.6,94.3z M753.7,189.3c3,2.6,20.6,21.8,25,17.8c1.2-1.1,2.1-2.3,2.6-4.1
		C771.5,200.4,764.1,189.4,753.7,189.3C756.4,191.7,756.3,189.3,753.7,189.3z M878.6,114.3c1.8,3.7,15.3,0.8,15.4-2.3
		C884.5,109.3,885.9,109.5,878.6,114.3C879.5,116.3,879.1,114,878.6,114.3z M829,207.6c0.7-3.3-2.9-3.4-3.6-5.5
		c0.5-1.5,2-1.1,3.4-1.7c-1.7-0.1-3.1,0-4.4-0.3c-2.4-0.4-0.9-2.3,0-3c-3,0-4.7,2.2-5.2,4.8c-0.5,2.7,0.6,5.3,3,6.8
		c0.2-1.9-0.6-4.2,1.8-5.3C825.9,204.6,825.9,207.9,829,207.6C829.8,204.3,825.9,207.9,829,207.6z M891.2,100.1
		c-2.9-3.5-1.6-7.9-3.6-11.4c-4.4,2.6-2,18.5,1.4,17c-0.3-0.7-0.7-1.4-1.1-2.1c-0.7-1.3-0.4-2.1,0.9-2.7
		C889.4,100.6,890.1,100.4,891.2,100.1C888.7,97,890.1,100.4,891.2,100.1z M450.9,94.2c1.7,0.2,11.3-1.6,10.3-4.9
		c-0.2-0.7-1.1-1.4-1.8-1.6C455.6,86.4,451.3,89.6,450.9,94.2C454.5,94.5,451.3,89.6,450.9,94.2z M803.4,213.5
		c-5.3-3.6-15.7-4-21.8-3.4C783.4,211.6,793.9,213.2,803.4,213.5C801.3,212.2,793.9,213.2,803.4,213.5z M771.5,206.4
		c0,1.6,0,3,0,4.5c2.4,0.3,4.7,0.7,7.1,1c0-1.2,0-2.2,0-3.2C775.8,209,773.9,207.2,771.5,206.4C771.5,207.9,773.9,207.2,771.5,206.4
		z M882.6,108.5c-1.9-1-3.3-0.4-4.5,1.1c0.6,0.8,1.2,1.7,1.8,2.5C881.3,111.4,882.2,110.1,882.6,108.5
		C880.8,107.5,882,109.5,882.6,108.5z M870.8,110.1c-1,1.3-1.2,3.2-0.6,6.7c0.4-0.4,1-0.6,1-0.9
		C871.2,114.1,871.6,112.1,870.8,110.1C869.8,111.4,871.6,112.1,870.8,110.1z M827,196.7c0,0.1,0,0.1,0,0.2c1,0,2,0,3,0
		c0-0.1,0-0.1,0-0.2C829,196.7,828,196.7,827,196.7C827,196.8,828,196.7,827,196.7z M767,203.3c-0.9-0.6-1.4-1-2.2-1.5
		C764.9,203.1,765.6,203.3,767,203.3z"/>
	<path d="M270.4,331.9c-1.4-2.6-4.3-2.7-6.7-3.8c-2.9-1.4,0.4-8.2,2.1-9.3c-0.8-0.5-6.2-2.7-6-4c0.1-0.6,1.3-1,2.4-1.8
		c0-2,0-4.5,0-6.9c-5.1-3-2.5-13.8-2.5-18.8c0-2.2,0.5-2.6,2.8-2.3c0.5,0.1,1.1,0.1,1.9,0.2c0.3-5.1-0.7-12,0.9-16.8
		c1.6-4.9,5.9-7.4,6.1-13.2c-21.2-8.7-29.2-26.6-25.9-48.7c-7.5-1.7-11.8-4.8-18.3-8c-7.9-3.9-18.2-4.6-26.8-6
		c-6.9-1.1-16.9-1.7-22.8-6.1c-4.3-3.2-7.3-7.7-12.1-11.2c0,1.8,0,3.3,0,4.8c-6.2,0.5-11.3-5.5-15.1-9.6c-5.3-5.7-7.9-7.3-14.4-11.3
		c-13.3-8.3-12.5-15.2-12.5-29.9c-4.4-2.9-9.2-2.7-13.1-6.6c-5-5-8.2-9.1-15.5-11.8c-8-3-16.8-2.9-25.1-4.4c-3.1-0.6-7.1-2.5-10-2.1
		c-4.1,0.5-5.6,4.4-10.4,2.5c-0.1-0.7-0.2-1.5-0.4-2.4c-2-0.3-10.6,7.1-12.8,8c-5.6,2.4-12.4,4.3-18.4,4.8c0-3.4,0-6.6,0-9.9
		c-6.5-1.7-5.4-1.4-8.2-6c0-1.7,0-3.3,0-5c-1.6-0.6-3-1.6-4.2-2.9c-2.7-7,0.8-15.5-0.5-22.6c2.3-1.4,3.2-3.5,2.8-6.2
		c-2.7-0.4-4.7-2.1-6.8-3.7c0-0.5,0-1,0-1.4c5.4-1.7,9.8,0,15.1-0.7c-4-5.8-19.2-3.6-5.7-8.9c9.9-3.9,20.1-5.6,30.6-4.5
		c17.2,1.8,39.4,0,53.7,9.3c-0.9-2.2-2.3-4,0.9-4.8c2.8-0.7,8.5-3.3,9.5,0.5c13.8-4.1,28.3-0.5,42.3-3c-4-1.3-4.1-0.9-6.5-4.9
		c-4.7,1.6-14.3,6.3-18,0.4c5.8-7.2,11.1-8.3,20.5-6.3c3.8,0.8,6.9,3.4,10.6,4.2c5.3,1.1,10,0,15.5,1.7c1-2.5,5.9-5.2,8.5-4.1
		c1.4,0.6,0.1,4.7,2.1,6.1c2.3,1.6,7.4,1.1,8.9,3.5c-0.8,0.6-1.6,1.3-2.5,2c0.2,0.7,0.5,1.5,0.8,2.6c5.4-1.9,9.3-4.6,15.1-3.3
		c-0.1-1.6,0.5-3.1-0.2-4.6c-6.7,1.8-13.1-1.3-19-4.4c4.8,0,9-3.2,13.4-2.9c3.3,0.2,2.8,0.9,4.5,1.6c1.5,0.6,0.2,3.9,4,2.3
		c0-3.2,0-6.4,0-9.6c-1.2,0-2.1-0.6-2.6-1.7c0.2-1.1,12.2-1.8,13.8-2.1c-0.1-2-1.5-1.3-3.2-2.2c-1.6-0.8-1.9-1.7-1.4-3.5
		c-1.5-0.4-6.1-0.6-6.3-2.9c-0.3-5.7,13.3-3.8,15.4-3.2c4.6,1.2,10.7,7.6,15.3,6c-0.9-0.3-4.7-0.8-4.8-2.7c-0.2-3,6.4-2,8.2-2
		c-7.9-0.6-15.9-1.1-23.3-4.8c4.7-4.3,16.7-2.3,22.8-4C248.5,6.2,255,5,265.1,5c9.7,0,18.4,0.5,27.8,1.9c11.7,1.8,7.4,4.3-1.3,6.4
		c0.7,3.8-8.6,4.7-11.5,5.8c4.3,2,8.4,2.1,12.6,1.3c-1.3,0-6.1,0.9-6.4-1.1c-0.2-1.7,23.3-7.3,26-7.6c11.8-1.3,24.1-0.5,35.7-2.3
		c-1.8-2-6,1-6.9-1.7C339.9,4,349.4,5,348.5,5c12.8-1,26.2,0,39.1,0c-0.7,0.8-1.4,1.5-2.1,2.3c11.3-0.5,23.2-1.1,34.2,2.1
		c-4.9,1.5-9.5,1.7-13.9,2.8c5.8,0,11.1,1.1,16.9,1.1c8.1,0,16-2.5,23.8,0.9c-6.4,1.6-12.9,3.3-19.4,5c-0.3,3.9-3.4,3.3-5.4,6.4
		c1.1,2.3,14.9,0.5,17.8,1.2c2.8,3.4,0.1,19.9,0.1,23.3c-5.7,1.5-11.4,2.9-17.2,4.1c-0.3,1.5-0.6,3.1-0.9,4.5
		c2.5-0.1,18.6-2.2,18.2,3.4c-0.3,4.2-16.7,4.6-19,4.5c0,0.9-0.1,1.7-0.1,2.8c14.6,0,15.7,4.3,14,18.8c-1.6,13.3-16.2,10.5-26.8,7.2
		c0-3.8,0-7.4,0-11.2c-7.7,0.6-18.4,0.7-25.7,3c-4.2,1.3-7.8,3.8-11.9,5.3c-4.3,1.6-9.1,1.1-12.9,4.4c-6.6,5.8-5.8,10.7-17,7.5
		c-6.6-1.9-14.7-6.5-14.7-14c-0.6-0.2-1.1-0.4-1.7-0.7c0-4.1-1-7.2-1.3-11.1c-3.6,0-4.1-3.4-6.5-5.4c-5.4-4.5-9-6.2-15.9-5.8
		c4.3,11.6-3.6,14.8,10.9,19.7c1.8,0.6,2,0.9,1.5,3.1c2.6,0,10.7,3.9,4.6,6.2c-3.1,1.2-6.8,1.7-10,2.5c3.9,2,8.3-1.4,12.1-0.7
		c3.6,0.7,7.2,4.4,8.7,7.5c-3.6,0.7-9.2-1.5-11.8-0.4c0.3,4.6,7.7,3,8.2,7.9c-0.1,0.1-0.5,0.3-0.8,0.5c0.8,7,1.7,13.6,1,20.9
		c-4.7,1-11.3,0.2-16.1-0.8c-2.7-0.5-2-3.9-2-5.9c-1.4-0.6-1.9,0-1.9,1.2c0,2.5,0,4.9,0,7.6c-5.3,1.6-10.3,3.7-15.8,5
		c-0.2-1.3-0.3-2.1-0.5-3.1c-12,1.1-17.3,10.6-28.6,13.1c-0.4,7.5-6,5.3-9.4,10.2c-2.2,3.1,1,13.7-3.3,14.3
		c-2.7,0.4-4.1-1.4-5.5-3.4c-1.3,2.9-0.7,4.9,1.9,6c3,1.2,12.6,2.4,16,1.9c2.1-0.3,12.8-9.5,14.4-5.1c0.2,0.5,0.1,1.1,0.2,1.6
		c4.1-0.3,6.4-1.2,11-0.6c6,0.8,12.4,0.6,18,3.1c5,2.2,8.7,5.3,14.2,6.6c6.9,1.6,13.1,0.8,17.1,7.9c1.5,2.6-1.4,2.7-2.5,4.5
		c1.4-0.4,4.7-2,5.7,0c0.3,0.6-0.1,1.5-0.3,2.4c7.7-3.7,11.6,0.3,19.1,1.7c7.6,1.4,13.6,1.5,20.5,5.7c1.5,0.9,1.9,2,1.2,3.7
		c-2.9,6.1-3.6,8.5-3.8,15.4c-0.2,6.2-0.6,8.2-4.6,12.9c-3.6,4.2-5.4,4.9-7.1,10.6c-1.6,5.4-1.8,9.6-7.3,12.8
		c-8.4,4.8-16.4,2.6-21.7,11.1c-5.4,8.6-11.8,16.9-23.7,14.5c0.2,1.1,1.1,1.4,1.6,2c2.1,2.2,1.8,4.2-1,5.1
		c-6.5,2.2-12.7,4.2-19.1,6.3c-1.3,0.4-2.9,7.2-5.9,9c-3.2,2-3.3,3-0.2,5c0.6,0.4,1.1,0.8,1.8,1.3
		C284,321.7,274.9,331.9,270.4,331.9C269.5,330.3,271,331.9,270.4,331.9z M278.3,73.7c-8.8-3.3-23.4-9.6-23.4,4.8
		c0,3.7,1.9,4.2,1.7,7.4c-0.2,3.1-3.8,12.7-8.2,11.4c-6.7-2.1-6.1-3.7-7.9-8.8c-11.1-3-22.4-3.5-32.2-10.6c-1.3-0.9-1.6-2.1-0.5-3.3
		c2.8-3.3,7.7-6.7,11.7-8.3c2.1-0.8,7.9-0.4,8.8-2.9c-1.2-0.8-3-0.4-3.7-2.4c2,0,3.7-0.1,5.5,0c2.8,0.3,3.6,1.7,2.5,4.3
		c-0.2,0.4-0.4,0.9-0.6,1.4c3.6,1.9,10.8-0.4,15.1-0.4c-2-1.9-13.2-3.3-12.6-6c0.4-2,9.3-2.5,11.1-3.3c-4.3-12-11-1-17.3-2.4
		c-0.8-0.2-0.8-2.2-1.9-2.5c-1-0.2-4,0.4-4.9,0.1c-4-1.3-5-4.2-8.6-6c-2.3-1.1-4.7-1-6.9,0.1c-1.9,0.9-0.6,2.9-0.1,4.3
		c-3.1,0.2-7.5-1.9-10,0.9c0.4,0.2,0.9,0.3,1.1,0.6c4.2,4.8-26.5,0.5-28.1,1.1c0.7,1.3,1.2,3.3-0.2,4.5c-1.5,1.3-11.7-2.2-13.3-2.5
		c-4.1-0.8-5.7,1.2-6.6-3.1c-8.6-1-17.4-1.6-26.1-2.1c-4.6-0.2-19,3.2-20.5,0.1c-2.5,0.4-5,0.5-7.4,1.8c3.3,7.5-3.4,1.1-5.5,0.4
		c-9.4-3.1-21.5-3.2-31.3-3.9c-8.9-0.6-18.7-2.8-27.6-2.1c-8.4,0.6-16.9,4.3-24.9,6.8c2.2,1.3,13.7,3.8,12.2,6.4
		c-1.3,2.3-12.1,0.1-14.9,1.3c4.7,5.2,10.9-0.4,14.7,2.3c6.6,4.7-8.8,4.2-9.5,7.4c-1.4,6.1,24.5,7.4,21.7,10.3
		c-2.2,1.7-4.6,2.9-7.4,3.6c5.2-0.8,11-2.7,15.5-5.5c3.6-2.3,6.7-8,11.6-6.5c-0.5,1-1,1.9-1.5,2.8c3.9,1.5,6.6-2.4,10.1-3
		c3.6-0.6,9.5,2,13.3,2.6c10,1.6,19,2.5,28,7.3c5.9,3.1,7.9,7.3,12.7,11.3c4.9,4,10.9,5,16.2,9c1.4,1,1.1,2-0.5,2.6
		c-1.6-0.1-2.8,0.5-3.7,1.8c-1.6,13.1,2,18.5,12.9,25.3c5.3,3.3,8.1,5.4,12.2,10.1c3.3,3.7,8.6,11.7,14.4,11.6
		c-4.2-4.1-8.4-8.1-12.1-12.6c-1-1.2-0.6-2.2,1-2.6c5.8-1.2,19.5,15.5,23.6,19.1c7.1,6.3,15.2,8.2,25.1,9.8c11,1.8,21.1,4,30.9,8.9
		c4.1,2.1,6.5,4.8,11.8,5.4c3.1,0.3,8.3-1.7,10.8,0.4c3.3,2.7,3.5,7.6,0.5,10.7c-3.2,3.2-5.4,5.2-7,8.8c-1,2.2,1.2,2.5-1.4,4.9
		c5.1,7.2,9.4,15.3,17.1,20.2c8.9,5.6,12.8,2.9,11.9,14.4c-0.7,8-1,16.3-4.5,23.5c-1.5,3.1-3.6,5.1-4.2,8.7
		c-0.7,4.6,2.1,9.1,0.1,13.4c-1.4,3.1-3.4,0.1-5,2c1.3,0.9,2.8,1.6,4.3,2.2c2.2,1.2-1.2,7.3-1.6,9.2c0.6,0.7,8.7,4.4,9.4,3.9
		c5-3.7,9.2-8.2,13.7-12.4c-3-2.3-5.5-4.5-0.4-6.8c5.2-2.4,2.3-7.7,6.2-8.6c5.9-1.5,14.1-4,19.9-6.4c1.4-0.6,1.5-1.5,0.5-2.7
		c-1.6-0.8-2.5-2.1-2.6-3.9c8.5,1.5,17-1.1,22.2-8.7c2.3-3.4,2-6.7,5-9.4c2.6-2.3,8.3-3.2,11.5-4.1c9.4-2.6,11.9-4.3,15-13.9
		c2.5-7.6,8.7-8.6,11.6-15.4c0.4-1,0.3-1.9-0.7-2.5c-7.4-4.3-13.7-4.2-21.8-5.8c-3.6-0.7-7.2-3.4-10.9-3.5
		c-4.3-0.1-6.6,3.6-11.2,1.5c1.1-1.1,3-0.9,4.1-2.6c-3.2-0.3-5.5,1.8-8.3,2.3c0.1-3.6,3.5-3.9,5.2-5.7c-0.9-5.2-7.2-6.5-11.3-7.6
		c-7.5-2-12.7-4.3-19.8-7.3c-5.8-2.5-29.2-1.4-30.1-4.7c-4.6,1.4-9.6,5.1-13.9,5.7c-2.9,0.4-9.8-0.6-12.9-1.1
		c-8.4-1.3-2.5-9.7-7.1-11.1c-3.1-1-6.4-0.6-9.5-1.1c-4.8-0.7-1-5.4,0-7.5c0.9-2,0.5-2.8-1.7-3c-9.3-0.9-10.2,8.7-21.6,5
		c-4.2-1.3-6.9-5.5-6.8-10c0.2-5.2,2.7-8.8,7.4-9.9c3.4-0.8,6.6-0.4,10-0.2c2.5,0.4,5,0.6,7.5,0.6c0-1.1,0.5-1.9,1.3-2.5
		c9.3-1.2,13.9-0.4,19.6,7.3c1.3,1.8,3.3,2,5.2,0.4c-3.1-4.3-5.9-9.1-0.5-13.1c3-2.3,6.6-3.5,9.6-5.8c2.7-2.1-0.7-5.6,1.4-6.7
		c4.6-2.4,11.9-5.5,16.1-7.8c-0.1,0.1,3.1-3.4,3.5-3.7c3.4-2.6,11.4-2.7,15.7-3.3c0.1,0.2,0.1,0.4,0.2,0.5c-1.5,1.1-3,2.1-4.4,3.2
		c0.1,0.2,0.2,0.4,0.3,0.6c3.8-1.3,7.6-2.6,11.3-4c-2.3,0-17.8-1.8-9.9-5.8c0-0.2-0.1-0.3-0.1-0.5c-5.5-0.2-10,1.9-15.2,3.5
		c0.1-0.6,0.2-0.9,0.5-1.1c6.1-6.2,14-5.8,22-6.4c2.4-0.2,18.1-0.7,17.9-4.3c-0.1-1-0.6-1.9-1.7-2.1c-3.3-0.7-7.2,1.4-10.2-0.8
		c1.9-0.8,3.6-1.4,5.2-2c-2.6-1.8-6.1-1.6-8.8-3.4c-2.3-1.6-3.7-4.4-5.9-5.9c-6.2-4.1-8,1.8-15.6-0.2
		C277.9,78.4,277.2,77,278.3,73.7C275,72.5,277.2,77,278.3,73.7z M380.9,6.2c-5.2,0-36.8-3-38.6,1.4c1.7,0,6.6-1.5,6.8,1.5
		c0.1,1.3-28,3.1-30.8,3.3c-9.8,0.7-21.6,2.4-30.4,6.9c1,0,6-0.7,6.5,1.1c1.1,4.1-17.9,5.3-20.2,5.8c4.1,1.4,8.6,0.1,12.5,2.4
		c-2.7,1.5-5.1,1.6-8,1.9c8.3,5.1,18.2,0.1,27.1,1.4c8.9,1.2,11.3,7.3,17.3,12.5c1.3-0.7,2.7-0.9,4.2-0.8c0.7,0.2,1.3,0.9,1.6,1.5
		c0.6,1.3-1.7,2.5-2.4,3c-1.9-0.4,5.7,0.7,5.1,2.3c-0.8,2,0.1,4.9-3,5.8c0.9,0.4,1.5,0.7,2.3,1.1c-6.4,9.4,13.4,15.8,20.4,15.9
		c4.9,0.1,4.4-4.8,7.1-7.8c4.7-5.2,11.5-4.6,17.4-6.7c5.9-2.1,9.2-5.5,16-6.2c6.7-0.6,15-0.2,21.2-3.3c-3.5-0.2-6.4-0.4-9.9-0.7
		c3.8-3.6,4.1-3,9-3.1c1.4,0,2.6,2.3,3.9,0.2c-4.3-3.5-11.4-0.3-13.6-6.5c4.3-2.6,7.6-1.4,12.3-1.7c6-0.3,3.7-1.2,9.1-1.8
		c0-0.2,0-0.3,0.1-0.5c-1.8-0.7-3.6-1.4-5.4-2.1c0.3-0.7,0.6-1.2,0.8-1.6c-0.8-0.4-1.5-0.8-2.4-1.3c1.9-2.1,4.4-1,6.6-1.8
		c-0.8-0.4-1.4-0.7-1.9-1c-1.5-1-1.6-2.1-0.2-3.3c1.8-1.1,3.5-2.4,5-3.8c-2.3-0.7-4.2-1.3-6-1.9c7.5-0.9,14.5-1.8,21.6-4.3
		c-8.3-2.5-21.5-0.1-30.3-0.6c-10.2-0.6-21.3,5-31.1,2.9c9.3-4.5,19.5-4.7,29.8-6.2c-10.5-3.5-21.6-1.4-32.7-1.4
		C378.5,7.3,379.9,7.2,380.9,6.2C380.1,6.2,379.9,7.2,380.9,6.2z M299.8,10.1c0-0.2,0-0.5,0.1-0.7c-12.6-4.6-29.3-3.2-42.6-3.2
		c-12,0-24.9,4.1-37,6.5c0,0.2,0,0.3-0.1,0.5c9.7,2.6,19.4,2.7,29.3,3.3c-3.3,2.1-15.3,0.5-16.7,3.2c4,1.9,8.5,1.9,12.9,3.3
		c-9.2,3.2-12.6-0.1-20.1-4.1c-5.1-2.7-14.5-4.4-18.8,0.7c2.8,1.8,6.2,1.1,9.4,2.4c-1.3,0.7-2.2,1.3-3.2,1.9
		c5.5,4.6,12.9-3.3,18,1.4c-1.6,1.8-5,1.3-5.6,4.6c8.5,0.9,20.4,3,28.6,0c-1.9-0.9-4.1,0.5-5.2-1.8c2.9-0.9,11.9-1.1,13.5-4
		c-1.3-0.8-3.5,0.3-4-2c10.6-3,21.2-4.2,31.9-7.4C289.4,11.1,297.2,10.8,299.8,10.1C299.8,9.9,297.6,10.7,299.8,10.1z M274.5,45.8
		c-5.2,0.3-8.9-2.4-13.8-2.9c-5-0.4-8.8,1.9-13.8,0.3c-1.3-0.4-2-3.1-3.5-3.5c-1.5-0.4-3,0.8-4.3,0.6c-4.8-0.7-10.6-1-15.3,1
		c-6.7,2.9,3.7,6.3,5.4,6.8c4.7,1.4,11.4,0.2,16.3,0.4c9,0.4,22.7,0.7,27.6,10c-1.6,0.1-16.3,4.3-16.7,5c4.1,1.4,9.3,0.2,13.7,1.3
		c6.7,1.7,13.2,3.9,20,5.4c0.6-1.6,1.8-2.7,3.4-3.4c-2.6-2-5.2-3.6-7.9-5.6c-1.3-1-1.2-2,0.3-2.7c6.2-3.2,9.4,5.8,15.7-0.5
		c0.1-0.1,0.1-0.1,0.2-0.5c-4.8-1.4-9.7-2.6-14.6-3.6c-3.8-0.8-1.5-1.8-2.1-4.2C283,49,274.8,49,274.5,45.8
		C273.8,45.8,274.7,47.8,274.5,45.8z M124.8,43.4c6.6,2.9,11.7-0.9,18.2-2.3c-0.9,8.4,12,3.4,16.6,6.8c-4,0.4-7.5,0.7-11,1
		c8.5,6.5,26.5,0.7,36.8,2c0.4-0.9,0.9-1.8,1.4-2.8c-2.4-0.4-5-1.2-7.1-2.5c-2.5-1.5-2.9-3.1-2.2-5.9c-3.7-0.4-5.9,3.6-8.8,4
		c-2.3,0.4-12-0.9-14.6-1.4C143.6,40.2,132.3,31.2,124.8,43.4C125.6,43.7,125.5,42.2,124.8,43.4z M438.6,62.1
		c-2.8-7.3-20.1-0.5-24.4,0.9C422.5,65.9,430.2,65.6,438.6,62.1C438,60.7,437.8,62.5,438.6,62.1z M250.3,33.8
		c-7.3,0.8-15.2,0.8-22.5,0.5c-7.5-0.4-13.6-3.4-21.3-3.9C211.4,32.2,250.3,42.7,250.3,33.8C249.1,34,250.3,35.5,250.3,33.8z
		 M325.6,104.9c1.4-8.3-14-4.4-16.4-2.3C310.6,104.6,322.9,105.6,325.6,104.9C326,102.8,324.9,105.1,325.6,104.9z M200.6,38.4
		c-4.5,0.5-7.1,1.3-11.1,3.5c4.3,2,8.4,4.2,13.2,1.4C201.7,41.8,199.4,41.1,200.6,38.4C198.3,38.6,199.4,41.1,200.6,38.4z
		 M178.3,52.4c3.1,1.6,6.5,1.9,10,1.7c-2.3-1.7-5.7-2.3-8.4-3C179.1,51,178.3,51.1,178.3,52.4C181.4,54,178.3,51.1,178.3,52.4z
		 M254.5,184c-1.8-1.9-2-2-4.1-1.1C251.6,183.2,252.8,183.5,254.5,184z M269.1,56.8c0.1-0.2,0.1-0.4,0.2-0.6
		c-0.8-0.1-1.7-0.2-2.5-0.3c0,0.1,0,0.2-0.1,0.4C267.5,56.4,268.3,56.6,269.1,56.8C269.2,56.6,268.3,56.6,269.1,56.8z"/>
	<path d="M614.5,225.3c1-1,2-1.9,2.9-2.9c1.5-1.7,3.6-1.5,4.5,0.6c3,6.8-5.2,16.5-7.3,23.2c-2.2,7.2-4.3,13.9-7.4,21
		c-1.3,3.1-6.3,4.7-9.2,3.1c-6.2-3.4-3.9-25.5-3-30.9C596.2,232.7,608.8,219.1,614.5,225.3C615.5,224.3,614,224.8,614.5,225.3z
		 M607.9,245.9c7.1-0.1,15.7-16.1,13.1-22.2c-0.9-2.1-22.8,8.9-17.4,18.9C604.6,244.4,605.8,246.1,607.9,245.9
		C611.8,245.8,605.8,246.1,607.9,245.9z"/>
	<path class="st0" d="M678.8,154.7c-12.1-5.7-25-4.6-37.8-7.3c-5.6-1.2-10.4-2.7-15.6-4.8c-0.7-0.3-12.3-3.9-8.1,0.6
		c1.9,2.1,6.6,8.2,9.4,9.3c4.9,1.8,5.6-1.9,10.3-1.9c3.1,0,10,2.5,12,5.8c-8.6,9.3-30.3,16.6-42.8,16.6c-2.9,0-11.8-14-14.5-17
		c-2.9-3.3-6.1-8.7-9.8-10.9c-0.8-0.5-10.7-4.2-8.9-0.4c2.3,4.7,8.1,7.6,10.7,12.3c2.9,5.2,2.7,6.4,7.6,10.5
		c3.7,3.1,9.1,8.7,13.6,10.3c5.8,2,14.3-0.3,20.4-0.9c-6.4,14.4-21.1,17.5-31.9,27.1c-6.7,5.9-0.4,11,1,17.5
		c1.7,7.7-8.5,9.4-13.5,11.8c-5.7,2.8,1.3,7.8-3.2,10.7c-6.6,4.2-8.3,11.3-15.6,15.1c-7.6,4-20.6,6.4-28.8,4.6
		c-1.7-0.4-7.7-10.6-9.1-12.5c-2.8-3.9-9.7-14.8-10.5-19.7c-1.2-7.2,5.8-10.5,2.6-18.1c-1.8-4.2-6.6-6-8.6-9.6
		c-1.9-3.3-0.8-5.1-1.8-8.7c-1.7-6.3-7.3-6.2-13.8-7.5c-7.8-1.5-15.4,0.6-23.4,1.1c-18.2,1.1-26.9-4.6-39.1-17.6
		c4-7.4,0.2-12.6,6.6-19.1c2.9-3,7.2-4.5,10.3-7.2c2.5-2.1,3.6-5,5.5-6.8c6.4-6.3,15.2-7,23.9-8c9.1-1,23-4.8,31.8-2.3
		c3.6,1,0.4,3.5,1.8,5.2c2.2,2.7,3.6,2.5,7.3,3.7c3.5,1.1,9.3,3.5,13,3.7c4.6,0.3,3.7-1.3,7.6-2c13.3-2.3,39.1,9.6,44.3-8.7
		c0.5-1.7,0-2.4-1.8-2.4c-6.3,0-17,2.4-22.3-1.9c-2.1-1.8-1.9-3.6,0.7-4.7c7.5-3.3,16.5-3.8,24.5-2.9c2.9,0.3,14.7,3.7,15.2-1.5
		c0.2-2.7-6.8-4.2-8.6-5.3c-2.1-1.2-1.2-2-0.6-3.8c-4.5-5-6.5,2.5-9.1,2.7c-4.6,0.5-7.1-3.6-11.8-2.7c-5.7,1.1-5.4,6.9-8.3,9.2
		c-3.2,2.6-6.2,2.1-11,3.2c-2.9,0.7-3.3,2.2-1.2,4.3c0.2,0.2,0.4,0.5,0.7,0.8c-1.4,1.6-3.2,2-4.8,2c-4.2-4.9-19.7-21.2-27.5-17.8
		c-1.5,0.6-1.8,1.5-0.7,2.8c3.9,4.5,9.1,6.2,14.5,8.3c-1.4,0.7-2.8,1.5-3,3.5c-7.1-8.9-24.8-13.5-35.4-9.4
		c-12.5,4.8-21.6,19.5-37,10.8c-3.1-1.8-1-11,2.7-11c4.9-0.1,10.2,1.1,15.1,0.3c3.6-0.6,5-3.8,2.7-6.7c-1.6-2.1-4.4-3.3-6.8-4.3
		c12.3-2.7,22.9-9.7,34.8-11.9c5.1-0.9,0.1-7.9,5.4-6.5c-0.7,3.7,0,4.4,3.8,5.1c6.8,1.2,15.9,0.9,22.5-1c3.3-1,3.7-1,6.1-2.7
		c2.1-1.5-0.2-3.9,3.5-3.5c1.1,0.1,2.2,0.5,3.3,0.5c1.6,0.1,2-0.5,1.8-2c0-0.2-0.1-0.3-0.1-0.5c-0.6-3.1-0.6-3.1,2.6-3.3
		c4.3-0.3,8.6,0,12.6-2c-5.9-3.3-18,3-21.9-1.8c-1.6-1.9-1.5-3.5,0.5-4.9c2.8-2,11.1-4.8,6.1-8c-4-2.5-14.6,6.6-17.4,8.4
		c-2.8,1.8-2.9,3.8-0.5,6c0.7,0.4,1.1,0.9,1.4,1.6c-2.8,5.1-9.7,9.4-15.4,8c-3.2-0.7-4-5.8-7.5-6.9c-3.3-1.1-6.9,2.5-10.4,1.5
		c-2.7-0.8-2.3-3.4-3-5.3c-0.5-1.5,0.3-2.4,1.5-3.1c4.1-2.4,7.6-2.3,12.1-3.4c2-0.5,2.4-1.4,1.5-3.3c-0.2-0.3-0.4-0.7-0.7-1.3
		c14-7.6,29.8-16.2,46.2-15.6c1.4,0.2,2.7,0.4,4.1,0.6c3.2-0.7,4.8,0.3,4.6,3.2c3,0.7,6.5-0.2,9.7,0.1c5,0.5,17.5,2.5,20.9,6.3
		c-2.8,5.8-16.9-0.5-21.3,1c4.2,6,7.5,8.2,12.6,6.9c0-0.6-0.1-1.1-0.1-1.9c6.1,1.1,10.5-2.7,16.6-3.3c2.3-0.2,2.9-1.3,2.2-3.4
		c-0.2-0.6-0.5-1.2-0.8-1.9c2-1.1,3.7-0.2,5.4,0.6c-1.2,2-0.9,2.8,1.4,2.9c6.8,0.3,13.9-3.7,20.9-4c5.3-0.2,10.4-0.4,15.5-1.2
		c3.1-0.5,27.7,0.2,27.9-0.4c0.5-1.4-4.5-4.4-5.2-5c3.8-3.4,8.3-7.1,13.6-5.6c2.9,0.8,0.8,13.5,0.3,14.4c-1.7,2.7-7.3,1-9.7,0.8
		c2.2,2.5,6,3.6,9.2,2.7c3.1-0.8,5.4-3,7.7-5.1c4.7-4.5,7.6,3,12.4,2.5c-2.9-6-14.7-5.4-15-11.5c-0.1-1.3,1.1-1.6,2-2.2
		c1.7-1.2,7.4,3.3,10.2,3.3c-0.2-1.5-0.2-1.5-1.8-3c3-0.3,17.4,4,17.6,3.8c3-3.1-6.1-6-7.5-6.5c1.5-3.4,13.4-1.5,16.6-1.5
		c-0.3-1.1-0.5-2-0.8-3.2c10.3-3.4,22.2-2.2,32.9-3c3.2-0.2,7.4-0.3,10.4-1.4c3.1-1.2,4.7-6.8,9.5-4.3c4.3,2.2,4.1,3.1,10.3,3.3
		c3.3,0.1,11.7-1.5,13.8,1.9c-1.1,1.2-3,2.7-1.3,4.4c4,3.9,15.1,3.1,20.6,3.5c8.3,0.5,16.2-2.1,24.5-0.3c-0.9,0.7-1.5,1.2-2.2,1.8
		c-0.1,7.2,12.1,4.3,15.3,3.9c3.7-0.5,7.1-0.1,10.8-0.1c5.9,0,7-2.3,12.1-3.5c5.9-1.3,15.3,0,21.1,1c5.7,1,9.7,3.6,15.9,4
		c4.5,0.2,9-1,13.4,0.1c2.4,0.6,4.4,2.6,6.9,3.2c4,1,9,0.3,13.1,0.7c3.8,0.3,8.1,1.6,11.9,1.1c0.1,0,2.1-2.8,3.2-3.1
		c7.2-1.5,21,1.6,28.1,3.3c4.7,1.1,7.6,3.8,11.7,5.1c4.3,1.3,8.8,0.2,13.4,1.5c0,0.2,0.1,0.3,0.1,0.5c-10.3,3.8-7.1,3.5-19,1.2
		c-7.4-1.4-11,1.8-18.6,1.3c0.3,3.5,6.2,2.7,6.4,6.4c-7.4,1.2-14.8,3.4-22.2,4.6c-8.4,1.4-15.1-0.4-23.4,3c-5,2.1,1.3,5.3-1.6,8.4
		c-3.8,4-10.4,7.6-15.2,10.2c-0.9,0.5-1.8,0.1-2.2-0.9c-7.9-18.9,25.1-13.6,22.6-25c-3.5,1.6-6.8,4-10.7,4.4c-0.4-0.9-0.6-2-1.2-2.4
		c-3.9-2.6-10.6,2.3-14.1,3.7c-6.8,2.8-11.3,1.8-19,1.9c-6.1,0.1-12.1-0.7-18,1.2c-3.7,1.1-17.4,5.7-18.3,9.3
		c-0.9,3.7,10,3.2,11.1,3.3c3.2,0.2,3.8,1,3.6,4.2c-1.4,17.3-25.2,17.7-35.9,25.2c-3.8,2.7,0.1,5.4,1.9,7.9c0.6,0.8,0.4,1.6-0.5,2
		c-1.8,0.9-3.6,1.6-5.9,0.8c1.7-7.9-9-10.4-13.9-8.2c-2.5-2.9,0.7-2.9-4.7-2.6c-1.4,0.1-7,2.1-6.7,4.2c0.4,3.2,8.4,2.6,10.5,2.6
		c0,0.2,0.1,0.3,0.1,0.5c-1.6,0.6-3.1,1.4-4.6,2.2c-1.3,0.9-1.5,1.8-0.6,3c6.9,9.3,2.8,15.6-7.4,20.4c-5.1,2.4-10.5,3.1-16,4
		c-3.8,0.6-11.7-0.1-14.6,2.5c-1.9,1.6-1.8,3.7,0,5.3c2.7,2.4,5.7,4.5,6.9,8.1c1.4,4.4-5.2,7.2-8.3,8.3c-3.6,1.2-9.9-6.7-15-6.5
		c-2.4,0.1-3.4,1.8-4.3,3.7c-2.3,4.7,11,11.1,12.1,16.4c-9.2,0-12.3-12-14.3-18.6c-2.6-8.5-1.8-8.8-10-8.2
		c-1.7,0.1-5.3-8.6-8.5-10.1c-5.6-2.8-11.6-0.5-17.1,2c-4.5,2.1-14.3,6.1-17.5,10.1c-0.9,1.1-3.4,17.7-8.5,11.4
		c-6.7-8.4-10.9-13.8-13.1-24c-1.5,0.3-2.8,0.5-4.1,0.7C678.5,157.8,678.4,157.7,678.8,154.7C678.3,154.5,678.4,157.7,678.8,154.7z
		 M633.6,117.9c-0.1-0.2-0.1-0.4-0.2-0.6c-5.2,0-3.7-0.7-7.6-4c-1.8-1.6-1.7-2.6,0.6-3.7c1.7,0,2.8-0.7,3.4-2c0.1-3.7-9.8-0.5-11,0
		c-2.5,1.1-3.1,3-2,5.5c1.9,4.1,6.2,4.8,3.8,9.3c-0.8,1.5-0.6,2.6,0.9,3.4c2.8,1.5,5.7,2.1,8.8,1.1c2.9-1,3.4-3,1.5-5.3
		c-0.4-0.5-0.8-1.1-1.4-1.8C631.7,119,632.6,118.5,633.6,117.9C633.6,117.7,632.6,118.5,633.6,117.9z"/>
	<path class="st0" d="M871.8,263.5c0.2,0.4,0.1,0.3,0.1,0.3c0.3-0.9,1-1.8,0.1-2.7c-1-1-5,2.4-6.3,2.3c-4.4-0.4-8.4-4.6-13.5-5.1
		c-6.4-0.6-12.7,1.1-18.9,2.4c-5.7,1.2-16.9,6.3-22.5,3.7c-2-0.9-7.6-14-8.7-16.5c3.2-0.5,3.3-0.6,1.6-3.4c-0.2-0.3-0.4-0.7-0.6-1
		c-0.6-1.3-0.5-1.9,0.8-2.6c6.4-3.3,14.5-3,20.7-6.7c4.3-2.5,8.3-8.2,13.9-8.7c6.6-0.6,6.7,1.4,12.6-2c6.2-3.6,9.6-5.9,17.3-2.4
		c-0.5,0.7-1.1,1.3-1.6,2c-1.3,1.8-1.2,3.3,0.6,4.5c3.2,2.2,6.8,3.5,10.6,4.2c4,0.8,6.4-8.7,7.7-11c0.8-1.4,1.8-1.4,2.8-0.2
		c4.5,5.6,7.3,11.6,12.8,16.2c3,2.4,15,7.2,14.8,10.7c-0.8,11.4-8.1,24-20.1,24.9C885.6,273.3,879.8,269.2,871.8,263.5
		C872,264,873.8,265,871.8,263.5z"/>
	<path class="st0" d="M817.5,188.9c-0.8,0.5-1.4,0.9-1.9,1.3c-1.8,1.3,0.9,4.7,0.2,6.7c-0.3,0.8-5.5,7.7-6.4,7.8
		c-6.3,0.7-14.5,0.3-18.5-5.6c-1.2-1.8-1-2.4,1-3.3C798.3,193.1,811.1,183.5,817.5,188.9C816.7,189.4,814.6,186.5,817.5,188.9z"/>
	<path class="st0" d="M906,216.4c-3.9,0.4-5.9-2.2-9.2-2.8c-3.4-0.7-4-0.1-7.6-0.1c-5.2,0-10,0.8-15.4-1.2c0.6-1.8,1.9-2.7-0.5-4
		c-4.8-2.6-9.5-3.4-14.8-4c0.9-1.6,0.7-2.8-1.3-3.4c4.5-1.6,5.6,2.9,9.4,3.5c2.3-1.1,4.8-1.6,7.4-1.6c2.9,0.7,5.7,1.3,8.6,2
		c4.6,1.1,10.8,1.8,14.9,4.4C900.8,211.2,902.5,214.4,906,216.4C903.1,216.7,905.2,215.9,906,216.4z"/>
	<path class="st0" d="M850.3,138.1c0.4-2.2-1.3-3.3-2.5-5c7.3-2.9,15.3-3.2,22.6-6.4c3.9-1.7,8.9-9.1,12.8-7.5
		c3.3,1.4,0.2,5.3-0.8,7.2c-2.8,5.6-5.3,5-11,5.8C868.3,132.7,851.9,139.1,850.3,138.1C850.7,136,852.2,139.3,850.3,138.1z"/>
	<path class="st0" d="M482.6,94.3c-2.6,3.7-12.7,2.7-16.5,3c1.1-0.9,1.9-1.4,2.8-2.1c-1.2-0.6-2.1-1.1-3.3-1.8c1.9-1.4,6-3.8,2.2-6
		c-1-0.6-2.2-1.1-3.1-1.8c-2-1.6-2-3.4,0-5c1.2-0.9,2.6-1.5,4-2.4c0.1,1.1-0.2,2.1,0.2,2.7C471.8,85.9,477.4,90,482.6,94.3
		C481.7,95.6,481.3,93.3,482.6,94.3z"/>
	<path class="st0" d="M753.7,189.3c10.4,0.1,17.8,11,27.6,13.7c-0.5,1.8-1.5,3-2.6,4.1C774.4,211.1,756.5,191.8,753.7,189.3
		C756.3,189.3,756.4,191.7,753.7,189.3z"/>
	<path class="st0" d="M878.6,114.3c7.3-4.8,5.3-5.2,15.4-2.3C893.9,115,880.5,118.4,878.6,114.3C879.1,114,879.5,116.3,878.6,114.3z
		"/>
	<path class="st0" d="M829,207.6c-3.1,0.2-3.1-3-4.9-4.2c-2.3,1.1-1.5,3.4-1.8,5.3c-2.4-1.5-3.5-4.1-3-6.8c0.4-2.5,2.1-4.8,5.2-4.8
		c-0.9,0.7-2.4,2.7,0,3c1.3,0.2,2.7,0.2,4.4,0.3c-1.4,0.5-2.9,0.1-3.4,1.7C826.1,204.2,829.8,204.3,829,207.6
		C825.9,207.9,829.8,204.3,829,207.6z"/>
	<path class="st0" d="M891.2,100.1c-1,0.3-1.8,0.5-2.5,0.8c-1.3,0.6-1.6,1.4-0.9,2.7c0.5,0.6,0.8,1.3,1.1,2.1
		c-3.4,1.5-5.8-14.4-1.4-17C889.6,92.3,888.1,96.4,891.2,100.1C890.1,100.4,888.7,97,891.2,100.1z"/>
	<path class="st0" d="M450.9,94.2c0.4-4.6,4.6-7.8,8.5-6.5c0.7,0.3,1.6,0.9,1.8,1.6C462.3,92.7,452.4,94.3,450.9,94.2
		C451.3,89.6,454.5,94.5,450.9,94.2z"/>
	<path class="st0" d="M803.4,213.5c-9.5-0.3-19.9-1.9-21.8-3.4C787.8,209.6,798,209.9,803.4,213.5
		C793.9,213.2,801.3,212.2,803.4,213.5z"/>
	<path class="st0" d="M771.5,206.4c2.3,0.9,4.3,2.6,7.1,2.3c0,1.1,0,2.1,0,3.2c-2.4-0.3-4.7-0.6-7.1-1
		C771.5,209.4,771.5,207.9,771.5,206.4C773.9,207.2,771.5,207.9,771.5,206.4z"/>
	<path class="st0" d="M882.6,108.5c-0.4,1.7-1.3,2.9-2.7,3.7c-0.6-0.9-1.2-1.7-1.8-2.5C879.4,108,880.8,107.5,882.6,108.5
		C882,109.5,880.8,107.5,882.6,108.5z"/>
	<path class="st0" d="M870.8,110.1c0.8,2,0.4,3.9,0.4,5.8c0,0.3-0.6,0.6-1,0.9C869.6,113.3,869.8,111.4,870.8,110.1
		C871.6,112.1,869.8,111.4,870.8,110.1z"/>
	<path class="st0" d="M710.9,43.1c3.2,0.1,5.1,1.2,5.7,3.6C715.3,46.7,711.6,43.4,710.9,43.1C711,43,710.9,43.1,710.9,43.1z"/>
	<path class="st0" d="M827,196.7c1,0,2,0,3,0c0,0.1,0,0.1,0,0.2c-1,0-2,0-3,0C827,196.8,827,196.8,827,196.7
		C828,196.7,827,196.8,827,196.7z"/>
	<path class="st0" d="M767,203.3c-1.4,0-2-0.1-2.2-1.5C765.5,202.3,766,202.6,767,203.3z"/>
	<path class="st0" d="M278.3,73.7c-1.2,3.2-0.5,4.6,2.6,5.4c7.3,1.9,9.4-3.3,15.6,0.2c2,1.1,3.8,4.5,5.9,5.9
		c2.7,1.8,6.2,1.6,8.8,3.4c-1.7,0.6-3.3,1.3-5.2,2c3,2.2,6.8,0.1,10.2,0.8c1.1,0.2,1.6,1,1.7,2.1c0.2,3.7-15.9,4.1-17.9,4.3
		c-8,0.7-15.8,0.2-22,6.4c-0.2,0.2-0.4,0.5-0.5,1.1c5.2-1.6,9.7-3.7,15.2-3.5c0,0.2,0.1,0.3,0.1,0.5c-7.6,3.9,7.6,5.8,9.9,5.8
		c-3.8,1.3-7.6,2.6-11.3,4c-0.1-0.2-0.2-0.4-0.3-0.6c1.5-1.1,3-2.1,4.4-3.2c-0.1-0.2-0.1-0.4-0.2-0.5c-4.3,0.7-12.3,0.8-15.7,3.3
		c-0.4,0.3-3.6,3.8-3.5,3.7c-4.2,2.3-11.5,5.4-16.1,7.8c-2.1,1.1,1.3,4.6-1.4,6.7c-3,2.3-6.6,3.6-9.6,5.8c-5.4,4.1-2.7,8.8,0.5,13.1
		c-2,1.5-3.9,1.4-5.2-0.4c-5.6-7.6-9.8-8.8-19.6-7.3c-0.9,0.5-1.3,1.3-1.3,2.5c-1.9,0-3.7-0.2-5.6-0.4c-4,0.4-7.8-0.9-11.9,0
		c-4.7,1.1-7.2,4.7-7.4,9.9c-0.1,4.5,2.6,8.7,6.8,10c11.4,3.6,12.4-5.9,21.6-5c2.2,0.2,2.6,1,1.7,3c-0.9,2-4.7,6.8,0,7.5
		c3.1,0.4,6.4,0.1,9.5,1.1c5,1.6-2,9.7,7.1,11.1c3.1,0.5,10.2,1.5,12.9,1.1c4.4-0.6,9.2-4.3,13.9-5.7c1.1,4.3,6.2,1,9.6,1
		c5.8-0.1,14.9,1.3,20.5,3.7c6.1,2.6,10.9,5.6,17.6,7.1c4.7,1,12.4,1.5,13.5,7.8c-1.7,1.8-5.2,2.1-5.2,5.7c2.8-0.5,5.1-2.5,8.3-2.3
		c-1.1,1.7-3,1.5-4.1,2.6c5,2.2,6.3-1.5,11.2-1.5c3.7,0,7.4,2.7,10.9,3.5c8.1,1.8,14.2,1.5,21.8,5.8c1,0.6,1.1,1.5,0.7,2.5
		c-2.6,6-8.9,7.3-11.4,13.8c-4.1,10.5-3.9,12.3-15.3,15.4c-2.8,0.8-9.2,2-11.5,4.1c-2.8,2.6-1.7,5-3.7,7.8
		c-5.7,8.1-13.8,12.1-23.5,10.4c0.1,1.8,1,3.1,2.6,3.9c1,1.1,0.8,2.1-0.5,2.7c-5.8,2.3-14,4.9-19.9,6.4c-4,1-1,6.2-6.2,8.6
		c-5.1,2.3-2.6,4.5,0.4,6.8c-4.5,4.2-8.7,8.7-13.7,12.4c-0.6,0.4-8.5-2.9-9.4-3.9c0.4-1.9,3.9-8,1.6-9.2c-1.5-0.6-2.9-1.3-4.3-2.2
		c1.7-1.9,3.7,1.1,5-2c1.8-4-0.6-7.9-0.2-12c0.3-3.6,1.8-5.7,3.2-8.8c3.7-8.3,4.9-15.6,5.6-24.8c0.8-10-1.8-8.9-10.1-13.4
		c-8.8-4.7-13.2-13.3-18.8-21.2c2.6-2.5,0.4-2.7,1.4-4.9c1.6-3.6,3.9-5.6,7-8.8c3-3,2.7-7.9-0.5-10.7c-2.5-2.1-7.8-0.1-10.8-0.4
		c-5.3-0.6-7.7-3.3-11.8-5.4c-9.7-4.9-19.8-7.1-30.9-8.9c-10-1.6-18-3.5-25.1-9.8c-4-3.6-17.8-20.3-23.6-19.1c-1.6,0.3-2,1.3-1,2.6
		c3.7,4.5,7.9,8.5,12.1,12.6c-5.3,0.1-9.9-6.3-12.9-9.9c-4.7-5.5-7.6-8-13.7-11.8c-10.8-6.8-14.5-12.4-12.9-25.3
		c0.9-1.3,2.2-1.9,3.7-1.8c1.6-0.5,1.8-1.6,0.5-2.6c-5-3.7-10.9-5-15.5-8.4c-5.4-4-7.1-8.5-13.4-11.8c-8.2-4.4-16.5-5.5-25.7-6.9
		c-4-0.6-10.1-3.1-14.1-2.8c-3.9,0.3-7.8,4.3-11.6,2.9c0.5-1,0.9-1.8,1.5-2.8c-4.8-1.5-8,4.3-11.6,6.5c-4.5,2.8-10.3,4.7-15.5,5.5
		c2.7-0.7,5.2-1.9,7.4-3.6C32.6,77.8,6,76.5,8,70.5c0.6-1.9,14.6-4.1,10.4-6.8C13.7,60.5,8,66.5,2.7,60.7c2.5-1.1,14.4,0.5,14.9-1.3
		c0.8-3-10.3-5.2-12.2-6.4c7.4-2.3,15.1-5.6,22.8-6.6c9.6-1.2,20.1,1.2,29.7,1.9c9.1,0.7,21.4,0.6,30,3.7c2.4,0.9,10.1,7.2,6.8-0.2
		c2.4-1.3,5-1.4,7.4-1.8c1.3,2.7,16.7-0.3,20.5-0.1c8.7,0.4,17.5,1.1,26.1,2.1c0.9,4.3,2.1,2.2,6.6,3.1c2.2,0.4,11.9,3.7,13.3,2.5
		c1.4-1.2,0.8-3.2,0.2-4.5c2.2-0.7,32.1,3.4,28.1-1.1c-0.2-0.3-0.7-0.4-1.1-0.6c2.5-2.8,6.8-0.7,10-0.9c-0.5-1.4-1.8-3.4,0.1-4.3
		c2.3-1,4.6-1.2,6.9-0.1c2.8,1.4,3.5,5.2,7,6.4c1.5,0.5,4-2,5.6-1.4c1,0.4,2.1,3.2,2.8,3.3c6.3,1.4,13-9.8,17.3,2.4
		c-1.7,0.7-10.6,1.1-11.1,3.3c-0.5,2.4,10.6,4.1,12.6,6c-4.1,0-11.4,2.4-15.1,0.4c0.2-0.5,0.4-0.9,0.6-1.4c1.1-2.6,0.3-4-2.5-4.3
		c-1.7-0.2-3.5,0-5.5,0c0.7,2.1,2.5,1.6,3.7,2.4c-0.9,2.5-6.7,2.1-8.8,2.9c-4,1.6-8.9,5-11.7,8.3c-1,1.2-0.8,2.3,0.5,3.3
		c9.8,7,21.1,7.5,32.2,10.6c2,5.6,0.4,6.5,7.9,8.8c4.4,1.4,8.1-8.3,8.2-11.4c0.2-3-1.5-4-1.7-7.4C254.3,64.1,270.1,70.7,278.3,73.7
		C277.2,77,275,72.5,278.3,73.7z"/>
	<path class="st0" d="M380.9,6.2c-1,1-2.4,1-3.2,2.4c11.2,0,22.1-2.1,32.7,1.4c-10.3,1.5-20.5,1.7-29.8,6.2c9.8,2,20.9-3.5,31.1-2.9
		c8.8,0.5,22-1.8,30.3,0.6c-7.1,2.6-14.1,3.4-21.6,4.3c1.8,0.6,3.7,1.2,6,1.9c-1.5,1.4-3.2,2.7-5,3.8c-1.4,1.2-1.3,2.3,0.2,3.3
		c0.5,0.3,1.1,0.6,1.9,1c-2.2,0.8-4.6-0.3-6.6,1.8c0.9,0.5,1.6,0.9,2.4,1.3c-0.2,0.4-0.4,0.9-0.8,1.6c1.9,0.7,3.6,1.4,5.4,2.1
		c0,0.2,0,0.3-0.1,0.5c-5.4,0.7-3.1,1.5-9.1,1.8c-4.6,0.3-8-0.9-12.3,1.7c2.2,6.2,9.3,3,13.6,6.5c-1.2,2-2.5-0.3-3.9-0.2
		c-4.3,0.1-5.4-0.3-9,3.1c3.5,0.2,6.5,0.4,9.9,0.7c-5.6,2.8-12.8,2.5-18.9,3.1c-8.2,0.8-11.4,3.7-18.3,6.4
		c-5.4,2.1-11.5,1.4-16.2,5.7c-2.9,2.7-3.8,8.8-8.4,8.8c-7.3-0.1-26.8-6.6-20.4-15.9c-0.8-0.4-1.5-0.7-2.3-1.1
		c3.1-0.9,2.2-3.8,3-5.8c0.6-1.6-7-2.7-5.1-2.3c0.7-0.5,2.9-1.7,2.4-3c-0.3-0.6-1-1.3-1.6-1.5c-1.5-0.2-2.9,0.1-4.2,0.8
		c-6.1-5.3-8.1-11.5-17.3-12.5c-8.9-1-18.9,3.7-27.1-1.4c2.9-0.3,5.3-0.4,8-1.9c-4-2.3-8.4-1-12.5-2.4c2.6-0.6,21.3-1.8,20.2-5.8
		c-0.5-1.9-5.5-1.1-6.5-1.1c8.6-4.3,20.8-6.2,30.4-6.9c3.3-0.2,30.9-1.8,30.8-3.3c-0.2-3-5.2-1.5-6.8-1.5
		C344.1,3.2,375.8,6.2,380.9,6.2C379.9,7.2,380.1,6.2,380.9,6.2z"/>
	<path class="st0" d="M299.8,10.1c-2.8,0.7-10.5,0.8-9.6,4.6c-10.7,3.2-21.3,4.4-31.9,7.4c0.5,2.3,2.6,1.2,4,2
		c-1.6,2.8-10.6,3.1-13.5,4c1.1,2.4,3.4,0.9,5.2,1.8c-8.2,3-20.1,1-28.6,0c0.7-3.2,4-2.7,5.6-4.6c-5.1-4.7-12.4,3.3-18-1.4
		c1-0.6,2-1.2,3.2-1.9c-3.2-1.3-6.5-0.6-9.4-2.4c4.3-5.2,13.7-3.5,18.8-0.7c7.4,3.9,10.6,7.5,20.1,4.1c-4.4-1.4-8.9-1.4-12.9-3.3
		c1.3-2.6,13.8-1.4,16.7-3.2c-10-0.6-19.6-0.7-29.3-3.3c0-0.2,0-0.3,0.1-0.5c12-2.4,25-6.5,37-6.5c13.3,0,30.1-1.5,42.6,3.2
		C299.8,9.6,299.8,9.9,299.8,10.1C297.6,10.7,299.8,9.9,299.8,10.1z"/>
	<path class="st0" d="M274.5,45.8c0.2,3.2,8.5,3.2,10.8,4.1c0.6,2.4-1.7,3.4,2.1,4.2c4.9,1,9.8,2.2,14.6,3.6
		c-0.2,0.3-0.2,0.4-0.2,0.5c-6.2,6.1-9.4-2.7-15.7,0.5c-1.5,0.8-1.6,1.8-0.3,2.7c2.6,1.9,5.3,3.5,7.9,5.6c-1.6,0.7-2.8,1.8-3.4,3.4
		c-6.8-1.5-13.3-3.7-20-5.4c-4.4-1.1-9.7,0.1-13.7-1.3c0.4-0.7,15-4.9,16.7-5c-4.9-9.3-18.6-9.6-27.6-10c-4.9-0.2-11.6,1-16.3-0.4
		c-1.7-0.5-12.1-3.9-5.4-6.8c4.6-2,8.5-0.9,13.3-0.7c1.8,0.1,3.5-1.3,5.2-1c2.3,0.5,2.5,2.8,4.6,3.5c4.6,1.4,7.6-0.7,12.2-0.5
		C264.7,42.9,268.7,46.1,274.5,45.8C274.7,47.8,273.8,45.8,274.5,45.8z"/>
	<path class="st0" d="M124.8,43.4c7.5-12.1,18.9-3.1,29.4-1.1c3.1,0.6,10.6,1.3,13.6,1.1c3.3-0.2,6-4.2,9.8-3.8
		c-0.8,2.8-0.3,4.4,2.2,5.9c2.1,1.3,4.7,2.1,7.1,2.5c-0.5,1-0.9,1.9-1.4,2.8c-10.3-1.3-28.2,4.6-36.8-2c3.5-0.3,7-0.7,11-1
		c-4.6-3.3-17.5,1.6-16.6-6.8C136.5,42.5,131.5,46.3,124.8,43.4C125.5,42.2,125.6,43.7,124.8,43.4z"/>
	<path class="st0" d="M438.6,62.1c-8.4,3.5-16,3.7-24.4,0.9C418.5,61.7,435.7,54.8,438.6,62.1C437.8,62.5,438,60.7,438.6,62.1z"/>
	<path class="st0" d="M250.3,33.8c0,8.8-39.1-1.8-43.7-3.4c7.6,0.5,13.7,3.5,21.3,3.9C235.2,34.7,243,34.7,250.3,33.8
		C250.3,35.5,249.1,34,250.3,33.8z"/>
	<path class="st0" d="M325.6,104.9c-2.7,0.7-15-0.3-16.4-2.3C311.6,100.4,327,96.6,325.6,104.9C324.9,105.1,326,102.8,325.6,104.9z"
		/>
	<path class="st0" d="M200.6,38.4c-1.2,2.7,1.1,3.4,2.1,5c-4.8,2.7-8.9,0.5-13.2-1.4C193.5,39.7,196,38.9,200.6,38.4
		C199.4,41.1,198.3,38.6,200.6,38.4z"/>
	<path class="st0" d="M178.3,52.4c0-1.3,0.8-1.4,1.6-1.3c2.7,0.6,6.2,1.2,8.4,3C184.8,54.3,181.4,54,178.3,52.4
		C178.3,51.1,181.4,54,178.3,52.4z"/>
	<path class="st0" d="M254.5,184c-1.7-0.4-2.9-0.7-4.1-1.1C252.5,182,252.7,182,254.5,184z"/>
	<path class="st0" d="M269.1,56.8c-0.8-0.2-1.6-0.3-2.4-0.5c0-0.1,0-0.2,0.1-0.4c0.8,0.1,1.7,0.2,2.5,0.3
		C269.3,56.4,269.2,56.6,269.1,56.8C268.3,56.6,269.2,56.6,269.1,56.8z"/>
	<path d="M154.1,35.3c-2,0.1-4.1,0.1-6.1-0.2c-0.7-0.4-1.3-1.2-1.5-1.9c-1.2-4,16.4-0.2,17.7-0.4c0.8-0.1,11.5-6.2,11.6,0.6
		C175.8,36.3,154.5,40.4,154.1,35.3C152.6,35.3,154.3,37.4,154.1,35.3z M147.6,33.1c1.4,3.7,7.1-1.4,8.4,3.3
		c3,0.2,16.8-1.8,18.2-2.6c-2.2-0.6-4.2-1.5-6.1-2.9C162.7,38.9,153.4,27.9,147.6,33.1C148.1,34.4,148.8,32,147.6,33.1z"/>
	<path class="st0" d="M607.9,245.9c-2.1,0.2-3.2-1.5-4.3-3.4c-5.2-9.5,16.3-21.2,17.4-18.9C623.6,229.8,615,245.8,607.9,245.9
		C605.8,246.1,611.8,245.8,607.9,245.9z"/>
	<path d="M633.6,117.9c-1,0.6-1.9,1.1-3.1,1.8c0.6,0.8,1,1.3,1.4,1.8c1.9,2.4,1.3,4.4-1.5,5.3c-3.1,1-6,0.5-8.8-1.1
		c-1.5-0.8-1.7-1.9-0.9-3.4c2.4-4.5-2-5.3-3.8-9.3c-1.1-2.5-0.5-4.4,2-5.5c1.1-0.5,11-3.7,11,0c-0.6,1.3-1.8,2-3.4,2
		c-2.3,1.1-2.4,2.1-0.6,3.7c3.9,3.3,2.4,4,7.6,4C633.5,117.5,633.6,117.7,633.6,117.9C632.6,118.5,633.6,117.7,633.6,117.9z"/>
	<path class="st0" d="M147.6,33.1c5.9-5.2,15.2,5.9,20.5-2.2c1.9,1.3,3.9,2.3,6.1,2.9c-1.4,0.9-15.2,2.8-18.2,2.6
		C154.7,31.7,148.9,36.7,147.6,33.1C148.8,32,148.1,34.4,147.6,33.1z"/>
</g>
</svg>
