<?xml version="1.0" encoding="utf-8"?><svg width="118" height="524" viewBox="0 0 118 524" xmlns="http://www.w3.org/2000/svg" xmlns:xlink="http://www.w3.org/1999/xlink"><svg id="carousel__left" viewBox="-5 -5 92 92" width="92" height="92"><style>.ast0{opacity:.3}.ast1{opacity:.8}.ast2{fill:none;stroke:#fff;stroke-miterlimit:10}</style><path class="ast0" d="M41 0C18.4 0 0 18.4 0 41s18.4 41 41 41 41-18.4 41-41S63.6 0 41 0zm0 76.1c-19.3 0-35-15.7-35-35s15.7-35 35-35 35 15.7 35 35-15.7 35-35 35z"/><circle class="ast1" cx="41" cy="41.1" r="35"/><path class="ast2" d="M45 51.6L34.4 41 45 30.4"/></svg><svg id="carousel__left_active" viewBox="-5 -5 92 92" width="92" height="92" y="92"><style>.bst0{opacity:.3}.bst1{opacity:.8;fill:#167ee2}.bst2{fill:none;stroke:#fff;stroke-miterlimit:10}</style><path class="bst0" d="M41 0C18.4 0 0 18.4 0 41s18.4 41 41 41 41-18.4 41-41S63.6 0 41 0zm0 76.1c-19.3 0-35-15.7-35-35s15.7-35 35-35 35 15.7 35 35-15.7 35-35 35z"/><circle class="bst1" cx="41" cy="41.1" r="35"/><path class="bst2" d="M45 51.6L34.4 41 45 30.4"/></svg><svg id="carousel__right" viewBox="-5 -5 92 92" width="92" height="92" y="184"><style>.cst0{opacity:.3}.cst1{opacity:.8}.cst2{fill:none;stroke:#fff;stroke-miterlimit:10}</style><path class="cst0" d="M41 0C18.4 0 0 18.4 0 41s18.4 41 41 41 41-18.4 41-41S63.6 0 41 0zm0 76.1c-19.3 0-35-15.7-35-35s15.7-35 35-35 35 15.7 35 35-15.7 35-35 35z"/><circle class="cst1" cx="41" cy="41.1" r="35"/><path class="cst2" d="M37 30.4L47.6 41 37 51.6"/></svg><svg id="carousel__right_active" viewBox="-5 -5 92 92" width="92" height="92" y="276"><style>.dst0{opacity:.3}.dst1{opacity:.8;fill:#167ee2}.dst2{fill:none;stroke:#fff;stroke-miterlimit:10}</style><path class="dst0" d="M41 0C18.4 0 0 18.4 0 41s18.4 41 41 41 41-18.4 41-41S63.6 0 41 0zm0 76.1c-19.3 0-35-15.7-35-35s15.7-35 35-35 35 15.7 35 35-15.7 35-35 35z"/><circle class="dst1" cx="41" cy="41.1" r="35"/><path class="dst2" d="M37 30.4L47.6 41 37 51.6"/></svg><svg id="hands" viewBox="-5 -5 110 110" width="110" height="110" y="368"><style>.est0{fill:#000101}.est1{fill:#000001}.est2{opacity:.5;fill:#f9f9f9}.est3{fill:#020202}.est4{opacity:.5;fill:#000001}.est5{fill:#2b5083}.est6{opacity:.5;fill:#5d5d5d}</style><path class="est0" d="M74.371 30.397c-.844-.527-.629-.558.097-.902 3.133-1.487 6.297-2.902 9.529-4.169 2.294-.9 4.612-1.727 6.939-2.533.434-.15.825-.347 1.167-.669 1.364-1.283 2.978-2.174 4.682-2.912.534-.231 1.069-.452 1.659-.536.479-.067.941-.244 1.417-.334a3.507 3.507 0 0 0 1.642-.793c.863-.731 1.93-1.039 2.962-1.418.12-.044.253-.069.381-.073.875-.025 1.75-.053 2.626-.059.411-.003.498.102.518.525.011.227.004.454.004.681l.002 38.264c0 .162-.009.325.002.487.023.323-.117.562-.362.753-.511.399-1.014.806-1.577 1.135-2.632 1.535-5.256 3.085-7.894 4.611-.757.438-1.552.811-2.328 1.217-.603.315-1.201.642-1.808.949-.372.189-.738.419-1.188.355l.002-.289c.056-1.108-.165-2.187-.447-3.241-.382-1.43-.863-2.833-1.3-4.249-.038-.125-.074-.245-.197-.315.027-.199-.026-.383-.087-.57a25.932 25.932 0 0 0-1.276-3.255c-.46-.963-.96-1.911-1.279-2.937-.355-1.145-.723-2.285-1.08-3.429a10.714 10.714 0 0 0-.571-1.443c-.992-2.075-1.97-4.156-2.952-6.235a6.407 6.407 0 0 0-.701-1.163c-.748-.979-1.474-1.975-2.222-2.955-.275-.36-.563-.715-.88-1.037-.797-.808-1.612-1.599-2.426-2.39-.161-.156-.331-.349-.532-.411-.829-.254-1.632-.627-2.522-.66z"/><path class="est1" d="M7.194 68.201c-.371.407-.74.816-1.114 1.219-.471.508-.476.511-1.141.229-1.819-.771-3.634-1.553-5.455-2.319-2.598-1.092-5.2-2.172-7.8-3.258l-.357-.153a.472.472 0 0 1-.307-.452 25.771 25.771 0 0 1-.008-.681l.001-40.679c0-.032-.004-.065.001-.097.041-.307-.154-.722.161-.897.342-.189.568.202.804.397.579.48 1.217.857 1.898 1.169.327.149.664.282 1.021.297 2.204.091 4.238.823 6.275 1.584 1.28.478 2.506 1.062 3.717 1.678 2.487 1.266 5.073 2.301 7.636 3.395a91.665 91.665 0 0 0 6.713 2.57c.213.072.418.175.618.279.172.09.146.271.158.43-.095.086-.217.155-.283.259-.793 1.259-1.695 2.451-2.317 3.816-.362.795-.77 1.568-1.139 2.36-.451.968-.964 1.904-1.344 2.907-1.763 4.662-3.551 9.314-5.316 13.975-.507 1.34-.678 2.761-.901 4.167-.009.06.022.127.034.19-.054.075-.14.144-.157.227-.474 2.26-.941 4.521-1.406 6.782-.019.092-.002.192-.002.288l.01.318z"/><path class="est2" d="M8.749 60.586c-.012-.064-.044-.13-.034-.19.223-1.406.394-2.827.901-4.167 1.764-4.661 3.553-9.313 5.316-13.975.379-1.003.893-1.94 1.344-2.907.369-.792.777-1.565 1.139-2.36.622-1.365 1.524-2.556 2.317-3.816.066-.104.187-.174.283-.259.182.064.362.141.548.189.408.104.835.151 1.226.298 1.315.495 2.675.749 4.068.868.561.048 1.056.296 1.536.569.189.108.246.29.167.502-.099.266-.295.501-.287.825.849.302 1.726.339 2.588.424 1.13.112 2.264.051 3.398-.024.539-.035.888-.254 1.143-.737.241-.456.555-.875.861-1.293.648-.886 1.47-1.548 2.537-1.868.992-.297 1.985-.588 2.98-.875a19.133 19.133 0 0 0 3.689-1.479 18.38 18.38 0 0 1 1.312-.632 6.195 6.195 0 0 1 1.969-.482c1.035-.086 2.064-.207 3.095.005.285.059.576.1.852.189 1.266.411 2.569.652 3.87.918 3.394.693 6.801 1.339 10.145 2.246 1.555.422 3.064.388 4.608.075a6.919 6.919 0 0 0 1.57-.492c.26-.121.43-.27.332-.599-.064-.216.06-.382.248-.473.436-.212.87-.435 1.363-.491.19-.022.392-.015.538-.178.89.033 1.693.406 2.523.664.201.062.371.254.532.411.814.791 1.629 1.582 2.426 2.39.318.322.606.676.88 1.037.747.98 1.473 1.976 2.222 2.955.278.364.506.752.701 1.163.983 2.079 1.96 4.16 2.952 6.235.224.469.416.948.571 1.443.358 1.144.726 2.284 1.08 3.429.318 1.027.818 1.974 1.279 2.937a25.78 25.78 0 0 1 1.276 3.255c.06.188.113.372.087.57-1.462.147-2.881.514-4.304.857-.081.02-.143.116-.215.177-.142-.019-.289-.062-.397.083-.522.072-.976.338-1.46.517-.428.158-.854.302-1.312.343-.82.072-1.589.296-2.264.793-.182.134-.39.231-.588.342-.203.113-.424.177-.655.138-.575-.098-1.148-.206-1.722-.313-.236-.044-.338-.212-.288-.425.14-.599.275-1.203.469-1.786.328-.982.303-1.978.201-2.983-.009-.093-.06-.181-.099-.295-.096.034-.204.04-.262.098-1.159 1.138-2.372 2.21-3.724 3.117-.192.129-.224.292-.15.502.151.428.292.859.436 1.29.382 1.141.322 2.232-.351 3.263-.301.461-.556.955-.879 1.399-.813 1.117-1.888 1.508-3.245 1.146a9.095 9.095 0 0 1-2.399-1.04c-.138-.084-.267-.187-.411-.26-.222-.112-.413-.414-.681-.274-.362.189-.077.518-.063.78.045.842.135 1.68.042 2.526-.166 1.524-.942 2.664-2.158 3.54-.266.192-.563.32-.888.377l-1.723.301c-.223.039-.447.072-.669.118-.31.064-.536.223-.591.56a2.09 2.09 0 0 1-.04.191c-.325 1.191-1.214 1.889-2.211 2.465-.522.301-1.122.272-1.711.227-.689-.052-1.316-.338-1.978-.493-.311-.073-.604-.226-.991-.215-.125.78-.753 1.234-1.217 1.801-.296.361-.68.586-1.152.67a9.39 9.39 0 0 1-1.447.166 2.762 2.762 0 0 1-1.229-.238c-.854-.39-1.749-.698-2.549-1.2-.281-.177-.525-.188-.815-.037a8.182 8.182 0 0 1-2.198.759c-.851.169-1.682.024-2.51-.129-.449-.083-.698-.459-.914-.823-.392-.663-.962-1.131-1.595-1.54a3.795 3.795 0 0 0-1.337-.555 23.91 23.91 0 0 1-1.605-.393c-.613-.167-1.096-.51-1.49-1.027-.474-.62-.923-1.241-1.073-2.07-.92.437-1.762.181-2.598-.08-.625-.196-1.171-.553-1.708-.918-.448-.305-.746-.713-.806-1.272a46.802 46.802 0 0 0-.191-1.544c-.03-.212-.148-.358-.393-.32-1.222.188-2.29-.306-3.364-.766-.443-.19-.71-.545-.863-.999a4.4 4.4 0 0 1-.206-1.341c-.004-.26-.004-.519-.018-.778-.008-.141-.087-.242-.241-.239-.186.005-.441.202-.422.329.03.192.079.381.124.57.075.315.171.627.226.945.06.345.043.619-.479.645-.064.003-.126.029-.19.043-1.537.323-1.547.34-2.906-.477a3.88 3.88 0 0 0-1.651-.523c-.723-.071-1.39-.295-2.047-.581a12.46 12.46 0 0 0-2.591-.816c-.157-.031-.32-.033-.48-.049l-.211-.071c-.882-.312-1.798-.435-2.724-.508zm19.357 1.665c.072-.035.151-.049.184-.095.566-.802 1.424-1.096 2.313-1.309 1.25-.299 2.304.047 3.131 1.047.291.352.534.733.728 1.146.096.205.178.417.276.622.152.317.208.344.52.258.156-.043.305-.115.463-.148 1.142-.236 2.203-.092 3.079.742.552.526.853 1.217 1.093 1.926a3.34 3.34 0 0 1-.036 2.29c-.056.151-.111.302-.16.455a.174.174 0 0 0 .128.225c.35.06.704.108 1.059.132.29.02.583.003.875-.001.311-.004.518.107.716.384.66.923 1.362 1.815 2.062 2.708.279.356.598.681.897 1.022.141.161.315.254.514.153.413-.209.749-.046 1.084.177.458.306.927.597 1.376.915.501.354 1.05.483 1.654.446.698-.042 1.317-.325 1.926-.627a.716.716 0 0 0 .31-.356c.143-.36.269-.729.282-1.127.008-.246-.058-.429-.258-.589a313.986 313.986 0 0 1-3.479-2.812c-.767-.631-1.578-1.139-2.619-1.118a.317.317 0 0 1-.096-.016c-.139-.044-.213-.142-.207-.285.007-.151.102-.234.249-.225.817.047 1.592.186 2.277.712 1.003.771 2.038 1.502 2.97 2.358.995.912 2.125 1.564 3.381 2.052 1.148.447 2.256.491 3.403.044.479-.187.817-.511 1.109-.908a.643.643 0 0 0 .084-.175c.151-.427.325-.849.443-1.285.156-.576.003-.871-.556-1.156a8.815 8.815 0 0 1-1.706-1.114 41.298 41.298 0 0 1-1.66-1.498c-1.318-1.247-2.562-2.579-4.11-3.559a.53.53 0 0 1-.132-.139c-.072-.096-.016-.176.038-.256.06-.089.148-.141.243-.096.145.069.281.16.415.25 1.165.78 2.167 1.75 3.166 2.724.928.906 1.845 1.824 2.905 2.583 1.109.794 2.342 1.227 3.696 1.347a2.582 2.582 0 0 0 1.664-.397c.746-.468 1.283-1.092 1.537-1.935.49-1.624.492-3.164-.588-4.622-.599-.808-1.17-1.616-1.926-2.293-.554-.496-1.08-.981-1.772-1.315-1.139-.549-2.142-1.336-3.167-2.076-.12-.087-.296-.145-.299-.335.041-.234.312-.216.402-.403.139-.293.347-.199.565-.075 2.027 1.161 4.034 2.35 5.798 3.903.438.386.904.739 1.352 1.113 1.527 1.276 3.311 2 5.218 2.486.465.119.837.045 1.16-.267.989-.957 1.645-2.084 1.651-3.502.007-1.668-.646-3.106-1.698-4.346a20.264 20.264 0 0 0-4.863-4.151 77.967 77.967 0 0 1-3.337-2.181c-3.017-2.079-6.075-4.091-9.265-5.899a28.762 28.762 0 0 1-3.179-2.065c-1.07-.808-2.261-1.383-3.498-1.879-.886-.355-1.783-.551-2.747-.472-.492.04-.957.132-1.417.298a20.665 20.665 0 0 0-3.006 1.36c-1.049.581-2.094 1.167-3.14 1.752a29.764 29.764 0 0 1-5.237 2.308 2.87 2.87 0 0 1-3.325-1.138 2.207 2.207 0 0 1 .212-2.691c.354-.384.76-.707 1.194-.994.486-.322.977-.638 1.473-.945a5.13 5.13 0 0 0 1.53-1.473.678.678 0 0 0 .127-.26c.015-.089-.024-.197-.136-.213a1.817 1.817 0 0 0-.383-.013 21.758 21.758 0 0 1-5.901-.371c-.406-.083-.546-.021-.614.369-.182 1.032-.61 1.979-.965 2.951-.156.426-.283.862-.442 1.287-.579 1.551-.885 3.182-1.391 4.755a27.98 27.98 0 0 0-.584 2.156c-.438 1.861-.837 3.731-1.29 5.588-.439 1.801-.761 3.613-.775 5.471-.002.226-.012.455.023.675.019.119.133.233.287.192.527-.139 1.101-.205 1.332-.827.021-.058.076-.104.119-.153.14-.157.281-.207.508-.125 1.075.384 2.092.874 3.004 1.567.589.449 1.175.909 1.759 1.361zm21.399-32.422c-1.609.001-3.055.286-4.392 1.031-1.538.857-3.182 1.443-4.876 1.901-.5.135-.995.294-1.499.411-1.402.324-2.466 1.107-3.223 2.322-.223.358-.449.713-.672 1.071-.24.385-.478.772-.719 1.156-.579.921-1.319 1.671-2.268 2.225-.586.342-1.138.746-1.69 1.143a4.082 4.082 0 0 0-.641.592 1.323 1.323 0 0 0-.29.497c-.234.832.203 1.847.992 2.229.622.302 1.277.431 1.973.181 1.495-.537 2.975-1.108 4.374-1.867 1.111-.603 2.21-1.226 3.315-1.84 1.447-.804 2.925-1.536 4.528-1.984.562-.157 1.123-.31 1.712-.335.992-.042 1.926.186 2.839.552 1.12.449 2.15 1.059 3.148 1.726 1.834 1.224 3.659 2.461 5.495 3.682 3.536 2.351 6.904 4.951 10.579 7.095.73.426 1.349 1.005 1.93 1.624.955 1.016 1.925 2.018 2.891 3.025.135.14.271.28.419.407.259.223.382.225.696.033.055-.034.114-.064.163-.105.94-.796 1.888-1.584 2.814-2.397.339-.297.547-.74.944-.973.385-.226.416-.509.319-.902-.924-3.742-1.617-7.537-2.741-11.234-.594-1.954-1.176-3.907-1.903-5.816a8.549 8.549 0 0 1-.386-1.303c-.086-.411-.204-.816-.319-1.221-.056-.197-.207-.241-.375-.147-.834.465-1.741.691-2.672.845-1.387.23-2.751.258-4.14-.109-3.351-.887-6.755-1.55-10.148-2.253-1.427-.296-2.86-.543-4.251-1.004a5.13 5.13 0 0 0-1.926-.258zM38.604 69.952c.238-.422.385-.701.55-.97.92-1.5-.002-3.511-.885-4.241a2.117 2.117 0 0 0-1.142-.499c-.623-.064-1.227-.041-1.809.228-.228.105-.441.291-.771.208-.1-.275-.202-.578-.319-.875-.276-.699-.621-1.354-1.177-1.88a2.221 2.221 0 0 0-1.773-.633 5.25 5.25 0 0 0-1.506.365c-.435.169-.789.424-1.034.839-.121.205-.185.482-.503.57-.364-.303-.728-.626-1.112-.922a38.684 38.684 0 0 0-1.718-1.273 6.925 6.925 0 0 0-1.738-.856c-.355-.118-.495-.031-.503.323a63.185 63.185 0 0 0-.008 1.947c.002.193.028.389.069.579.093.433.296.778.752.933.429.145.844.33 1.272.48.667.233 1.333.238 1.993-.044.172-.074.339-.191.628-.103.059.338.074.719.102 1.098.043.582.073 1.165.201 1.739.068.303.2.547.458.714.545.352 1.091.712 1.724.881 1.376.367 1.363.337 2.315-.413.161-.127.309-.354.645-.177 0 .323-.003.678.001 1.034.004.396.094.772.299 1.114.535.897 1.22 1.591 2.317 1.741.224.031.441.116.665.142.904.106 1.646.553 2.362 1.072.533.387.978.849 1.306 1.421.19.331.457.532.856.547.193.007.383.067.576.088 1.11.124 2.48-.274 3.36-.971-.019-.059-.021-.134-.059-.174-.776-.832-1.426-1.764-2.108-2.67-.137-.182-.274-.354-.478-.475-.877-.523-1.8-.889-2.84-.889-.258.002-.516.002-.968.002zm27.93-6.554l-.062-.065c-.021.038-.05.075-.061.116-.004.014.035.04.054.06l.069-.111z"/><path class="est3" d="M85.984 58.002c.108-.145.255-.102.397-.083-.108.243.027.44.126.639.494.986.982 1.975 1.494 2.951.24.458.507.907.804 1.33.431.616.942 1.167 1.627 1.506.761.377 1.537.724 2.411.344l-.002.289c-.671.318-1.321.139-1.965-.09-.943-.335-1.676-.954-2.24-1.762a17.4 17.4 0 0 1-1.054-1.728c-.485-.907-.934-1.834-1.386-2.758-.096-.199-.142-.424-.212-.638zM11.474 61.089l.211.071c-.096.749-.361 1.443-.73 2.092-.558.983-1.107 1.973-1.725 2.918a6.853 6.853 0 0 1-2.036 2.03l-.01-.318c.616-.526 1.257-1.051 1.694-1.725 1.036-1.596 2.092-3.194 2.596-5.068z"/><path class="est4" d="M92.843 64.689c-.874.38-1.651.033-2.411-.344-.685-.339-1.196-.89-1.627-1.506a12.143 12.143 0 0 1-.804-1.33c-.512-.976-1-1.965-1.494-2.951-.1-.199-.234-.396-.126-.639.071-.061.134-.157.215-.177 1.423-.343 2.842-.71 4.304-.857.123.069.159.19.197.315.436 1.415.917 2.819 1.3 4.249.281 1.053.503 2.132.446 3.24zM11.474 61.089c-.504 1.874-1.56 3.472-2.596 5.069-.437.674-1.078 1.199-1.694 1.725 0-.096-.017-.195.002-.287.465-2.262.932-4.523 1.406-6.782.017-.083.103-.152.157-.227.926.072 1.842.195 2.725.502z"/><path class="est3" d="M28.106 62.251c-.584-.452-1.17-.911-1.762-1.362-.912-.693-1.929-1.183-3.004-1.567-.227-.081-.368-.032-.508.125-.043.048-.097.095-.119.153-.231.622-.805.688-1.332.827-.154.041-.268-.073-.287-.192-.036-.221-.025-.45-.023-.675.014-1.858.336-3.671.775-5.471.453-1.857.851-3.727 1.29-5.588.171-.724.356-1.448.584-2.156.505-1.573.812-3.204 1.391-4.755.159-.425.286-.861.442-1.287.355-.973.783-1.919.965-2.951.069-.389.209-.452.614-.369 1.95.4 3.918.508 5.901.371.127-.009.257-.005.383.013.112.016.15.124.136.213a.707.707 0 0 1-.127.26 5.106 5.106 0 0 1-1.53 1.473c-.496.307-.987.623-1.473.945-.433.287-.84.61-1.194.994a2.206 2.206 0 0 0-.212 2.691 2.87 2.87 0 0 0 3.325 1.138 29.805 29.805 0 0 0 5.237-2.308c1.046-.585 2.091-1.171 3.14-1.752a20.881 20.881 0 0 1 3.006-1.36c.46-.166.925-.258 1.417-.298.965-.078 1.861.117 2.747.472 1.238.496 2.429 1.071 3.498 1.879 1.01.763 2.08 1.442 3.179 2.065 3.19 1.808 6.248 3.82 9.265 5.899a78.94 78.94 0 0 0 3.337 2.181 20.286 20.286 0 0 1 4.863 4.151c1.052 1.241 1.704 2.678 1.698 4.346-.006 1.418-.661 2.545-1.651 3.502-.323.313-.695.386-1.16.267-1.906-.486-3.691-1.21-5.218-2.486-.448-.374-.914-.728-1.352-1.113-1.764-1.554-3.771-2.742-5.798-3.903-.217-.124-.425-.218-.565.075-.089.187-.361.169-.402.403.002.19.178.248.299.335 1.025.74 2.028 1.527 3.167 2.076.692.334 1.218.819 1.772 1.315.756.677 1.328 1.485 1.926 2.293 1.08 1.458 1.078 2.999.588 4.622-.254.843-.791 1.467-1.537 1.935a2.582 2.582 0 0 1-1.664.397c-1.355-.12-2.587-.553-3.696-1.347-1.06-.759-1.977-1.677-2.905-2.583-.998-.975-2.001-1.944-3.166-2.724a3.31 3.31 0 0 0-.415-.25c-.094-.045-.183.007-.243.096-.054.08-.11.161-.038.256.038.051.08.106.132.139 1.549.98 2.792 2.313 4.11 3.559a41.995 41.995 0 0 0 1.66 1.498c.52.441 1.097.803 1.706 1.114.559.285.712.581.556 1.156-.118.437-.292.858-.443 1.285a.707.707 0 0 1-.084.175c-.292.397-.63.721-1.109.908-1.147.447-2.255.403-3.403-.044-1.256-.489-2.386-1.14-3.381-2.052-.933-.855-1.967-1.587-2.97-2.358-.685-.526-1.459-.665-2.277-.712-.147-.009-.243.074-.249.225-.006.143.068.242.207.285.031.01.064.017.096.016 1.041-.021 1.852.487 2.619 1.118a323.56 323.56 0 0 0 3.479 2.812c.199.159.266.343.258.589-.013.398-.139.767-.282 1.127a.716.716 0 0 1-.31.356c-.609.303-1.228.585-1.926.627-.604.037-1.153-.092-1.654-.446-.45-.318-.918-.609-1.376-.915-.335-.224-.671-.387-1.084-.177-.199.101-.373.008-.514-.153-.299-.341-.618-.666-.897-1.022-.701-.893-1.403-1.785-2.062-2.708-.198-.277-.405-.388-.716-.384-.292.003-.584.021-.875.001a10.822 10.822 0 0 1-1.059-.132.173.173 0 0 1-.128-.225c.049-.153.104-.304.16-.455a3.334 3.334 0 0 0 .036-2.29c-.239-.709-.54-1.4-1.093-1.926-.876-.834-1.937-.978-3.079-.742-.158.033-.307.105-.463.148-.312.086-.369.059-.52-.258-.098-.204-.179-.416-.276-.622a5.384 5.384 0 0 0-.728-1.146c-.827-1-1.881-1.346-3.131-1.047-.889.213-1.748.507-2.313 1.309-.03.047-.11.06-.181.096z"/><path class="est3" d="M49.505 29.829a5.107 5.107 0 0 1 1.923.258c1.391.461 2.824.709 4.251 1.004 3.393.703 6.797 1.366 10.148 2.253 1.389.368 2.753.339 4.14.109.932-.154 1.839-.38 2.672-.845.168-.094.319-.05.375.147.115.404.233.809.319 1.221.094.446.224.877.386 1.303.727 1.908 1.308 3.862 1.903 5.816 1.125 3.697 1.817 7.493 2.741 11.234.097.393.067.676-.319.902-.397.232-.605.675-.944.973-.926.812-1.873 1.6-2.814 2.397-.049.041-.108.072-.163.105-.313.192-.437.191-.696-.033a6.184 6.184 0 0 1-.419-.407c-.965-1.007-1.935-2.009-2.891-3.025-.581-.618-1.2-1.197-1.93-1.624-3.675-2.144-7.043-4.744-10.579-7.095-1.836-1.221-3.661-2.458-5.495-3.682-.999-.666-2.029-1.277-3.148-1.726-.913-.366-1.847-.594-2.839-.552-.589.025-1.15.178-1.712.335-1.603.447-3.081 1.18-4.528 1.984-1.105.614-2.205 1.237-3.315 1.84-1.399.759-2.879 1.331-4.374 1.867-.695.249-1.35.12-1.973-.181-.789-.382-1.226-1.397-.992-2.229.051-.18.164-.356.29-.497.193-.216.406-.423.641-.592.552-.397 1.104-.801 1.69-1.143.949-.553 1.689-1.303 2.268-2.225.242-.384.479-.771.719-1.156.223-.357.449-.713.672-1.071.757-1.215 1.821-1.998 3.223-2.322.504-.116.999-.276 1.499-.411 1.694-.457 3.338-1.044 4.876-1.901 1.341-.745 2.786-1.03 4.395-1.031zM38.604 69.952h.968c1.039 0 1.963.366 2.84.889.203.121.341.293.478.475.682.906 1.332 1.838 2.108 2.67.038.041.04.115.058.174-.881.697-2.25 1.094-3.36.971-.193-.022-.383-.081-.576-.088-.399-.014-.667-.215-.856-.547a4.527 4.527 0 0 0-1.306-1.421c-.715-.519-1.458-.967-2.362-1.072-.224-.026-.441-.112-.665-.142-1.098-.151-1.783-.845-2.317-1.741a2.192 2.192 0 0 1-.299-1.114c-.004-.356-.001-.711-.001-1.034-.336-.177-.484.05-.645.177-.952.749-.939.78-2.315.413-.634-.169-1.18-.528-1.724-.881-.258-.167-.39-.411-.458-.714-.128-.574-.158-1.157-.201-1.739-.028-.38-.043-.761-.102-1.098-.289-.088-.455.03-.628.103-.659.281-1.326.277-1.993.044-.428-.149-.843-.334-1.272-.48-.456-.155-.659-.499-.752-.933a2.89 2.89 0 0 1-.069-.579 60.177 60.177 0 0 1 .008-1.947c.008-.354.148-.441.503-.323a6.875 6.875 0 0 1 1.738.856c.587.404 1.154.837 1.718 1.273.384.297.748.619 1.112.922.318-.088.382-.366.503-.57.245-.415.599-.67 1.034-.839a5.25 5.25 0 0 1 1.506-.365c.685-.053 1.272.16 1.773.633.556.526.901 1.182 1.177 1.88.117.297.219.6.319.875.33.083.543-.103.771-.208.583-.269 1.186-.292 1.809-.228.439.045.816.229 1.142.499.883.73 1.805 2.741.885 4.241-.164.267-.311.547-.549.968z"/><path class="est5" d="M66.534 63.398l-.068.11c-.019-.02-.058-.046-.054-.06.011-.041.039-.077.061-.116l.061.066z"/><circle class="est6" cx="3.5" cy="64.609" r="1.5"/><circle class="est6" cx="96.5" cy="60.609" r="1.5"/></svg><svg id="sec-two__map" viewBox="-5 -5 118 46" width="118" height="46" y="478"><style>.fst0{fill:#fff}</style><path d="M75.1 4.2c0-.1 0-.1 0 0-.2-.1-.2-.2-.2-.3 0-.1.1-.2.3-.2h1.4v-.1c0-.2 0-.2.2-.3.2 0 .4-.1.6-.1.9-.1 1.7-.2 2.6-.2h.4c.3 0 .5-.1.8-.1.2-.4.6-.5 1-.5.1 0 .2.1.2.2s.2.2.3.2h1.4c.2 0 .3 0 .5.1.3 0 .4.1.2.3l-.1.1.3.3h.2c.5-.1 1-.1 1.5.1.4.1.8.1 1.2 0 .4-.1.9-.1 1.3 0h.1c.1 0 .2 0 .2.2 0 .1-.1.1-.1.2l-.1.1s0 .1.1.1c.2.1.5.2.7.3h.2c.4-.2.8-.2 1.2-.2h.8c.2 0 .3-.1.4-.2.2-.2.4-.2.5-.2h.9c.1 0 .2 0 .3.1.3.1.6.1 1 .1.2 0 .4 0 .6.1.2.2.6.3.9.3h1.6c.2 0 .3.1.4.2.1.1.2.2.3.2h1.2c.4 0 .9 0 1.3.1h.1s0-.1.1-.1c.1-.2.1-.2.3-.2h.4c.7.1 1.5.2 2.2.3.3 0 .6.1.9.2.2 0 .3.1.5.2.1.1.2.2.4.3.4-.2.7-.1 1.1 0 .1 0 .2 0 .3.1v.3c-.2 0-.3.1-.5.1-.1 0-.2.1-.3.2-.1.2-.3.2-.4.1-.5-.2-1.1-.3-1.7-.4-.3.2-.3.2-.9.3.1 0 .2.1.2.1.2.1.3.2.4.3.1.1.2.1.3.1.2-.1.3-.1.5 0s.4.1.6.2v2.6c-.1 0-.1.1-.2.1-.2.1-.4.1-.6.3 0 0-.1.1-.2.1s-.2 0-.2-.1c-.5-.2-1-.3-1.5-.3h-.2c-.1.1-.2.2-.4.3v.5c-.1 0-.2.1-.3.1-.6 0-1.2.2-1.7.3-.4.1-.8.2-1.1.1-.5-.1-1 .1-1.5.3 0 0-.1.1-.1.2v.3c0 .2-.1.4-.3.5-.3.1-.5.3-.7.5-.1.1-.2.2-.4.2-.1.1-.2.1-.3.2-.2.1-.3.1-.4-.1-.1-.3-.2-.5-.2-.9v-.9-.2h-.1c-.3.3-.6.3-.9.2-.4-.1-.9-.1-1.3 0 0 0-.1 0-.1.1.1 0 .3.1.4.1h.2c.1 0 .2.1.2.1 0 .1 0 .2-.1.2-.1.1-.2.1-.3.1l-.9.3c.3.2.3.4.2.7v.1c-.2.3-.3.7-.2 1.1v.5c0 .2-.1.3-.3.4-.2.1-.5.1-.7.2v.1c.1.5-.2.9-.5 1.3 0 .1-.2.1-.2.1-.6 0-1.2.2-1.8.3-.2 0-.4.1-.6.3-.1.1-.1.1-.3.1-.2 0-.3-.1-.3-.2v-.1c-.2-.1-.2-.3-.2-.6-.2 0-.3.1-.4.1-.2 0-.2 0-.3-.2 0-.2-.1-.3-.2-.4l-.3-.3s-.1-.1-.2-.1c-.2 0-.5.2-.5.4v.1c-.2.3-.2.3-.2.6v.9c0 .3-.1.5-.3.6-.6.5-1.2.9-2 .9-.3 0-.6.1-.9.2-.1 0-.3.1-.4.1v1.6h.2c.5-.2 1.1-.5 1.6-.8.2-.1.4-.2.6-.1.1 0 .2 0 .2-.1.2-.1.3-.2.5-.3.3-.1.6-.1.8.1.2.1.2.3 0 .4l-.1.1c.3.4.3.4 0 .8.2 0 .3 0 .5-.1 0-.1.1-.1.2-.1.5-.1.9-.1 1.4 0-.1.1-.3.2-.4.2h-.8v.1h.6c.1 0 .1.1.1.2s-.1.1-.2.1h-.3c.1.1.2.1.2.2.1.1.1.2.1.3 0 .1 0 .2-.1.3-.1.1-.3 0-.3-.1-.1-.1-.1-.2-.2-.3v.5c0 .1-.1.2-.1.4v.7c-.1 0-.2.1-.3.1-.1.3-.1.6-.1 1 .1-.1.2-.1.3-.2.3-.3.7-.3 1.1-.1l.6-.3h.1c.2-.1.4-.3.6-.4v-1.9c.3-.1.5-.1.7.1.1 0 .1 0 .2.1h.3c.1 0 .1-.2.2-.3-.1 0-.1-.1-.2-.1-.1-.1-.1-.2 0-.2.2-.1.6 0 .7.2l.1.1c.1.1.2.2.4.1.3-.2.6-.2.9-.1.6.1 1.1.3 1.7.4.2 0 .3.1.5.2s.4.2.5.5c0 .1.1.1.2.2s.2.1.3.2c.1.1.1.2 0 .2h-.1c-.3 0-.6-.1-.9-.3h-.1c-.2-.2-.5-.2-.8 0 .1.2.4.2.5.4v.9c0 .1 0 .2.1.2 0 .1.1.2.1.2 0 .2.2.4.4.5.3.2.6.4.9.7.2.1.4.3.6.3.3.1.3.1.3.4 0 .7-.2 1.3-.7 1.9-.1.1-.1.2-.2.3 0 .2-.2.3-.3.4-.1 0-.2.1-.2.1-.1.4-.2.7-.2 1.1-.1.3-.3.6-.4.8-.1.1-.1.2-.2.4s-.2.3-.3.3c-.3.1-.6.2-.8.3h-.2c-.2-.1-.4-.1-.6-.1h-.5c-.3 0-.6-.1-.8-.4-.2-.2-.4-.4-.6-.5h-.1c0-.1.1-.2.1-.3-.1-.1-.2 0-.3.1-.2.2-.4.3-.6 0-.2-.2-.5-.4-.8-.4-.6-.1-1.2-.1-1.8.1-.5.1-1.1.3-1.6.4-.2.1-.5.1-.7.2-.2.1-.4.1-.5 0-.2-.1-.3-.2-.3-.4-.1-.6-.3-1.1-.7-1.5l-.1-.1h.4c0-.2-.1-.3-.2-.4-.1-.1-.1-.2-.1-.3v-1.7c0-.1 0-.2.1-.3v-.1-.2c0-.2.1-.3.2-.3.3-.1.6-.2 1-.3.3-.1.7-.2 1-.3.2-.1.4-.2.5-.4-.1-.2-.2-.3-.3-.5-.2.2 0 .4-.1.6-.2 0-.3-.1-.3-.2-.1-.2-.1-.3-.1-.5v-1.8-.3 1.1c0 .2-.1.3-.2.4-.1 0-.1.1-.2.1-.2.1-.3.3-.3.5s-.1.2-.2.2H84v1h-.3c-.6-.1-1.3-.2-1.9-.3-.2 0-.3-.1-.3-.3v-.3h-.1c-.2.2-.3.2-.6.1-.6-.3-1-.8-1.5-1.3-.2-.2-.4-.4-.6-.5-.1-.1-.2-.2-.2-.3v-1.8c0-.1 0-.1.1-.2 0-.1-.1-.1-.2-.1-.2 0-.3 0-.3-.3 0-.2-.1-.3-.2-.4-.2-.2-.4-.3-.6-.5-.1 0-.2-.1-.3 0-.2 0-.4.1-.6.1-.2 0-.4.1-.6.2-.5.3-1 .6-1.5.8 0 0-.1 0-.1.1-.2.1-.3.2-.3.4 0 .4-.1.7-.4.9-.2.2-.4.2-.5 0l-.9-1.2c-.2-.3-.4-.7-.4-1.1v-.1h-.2c-.1 0-.1 0-.2.1-.3.1-.3 0-.4-.3-.3-.1-.7-.3-1-.4-.2-.1-.4-.1-.6-.1H68v.4c0 .2-.1.4-.3.5-.4.3-.9.6-1.4.7-.2.1-.4.1-.6.2-.2.1-.2.1-.2.3.1.6-.2 1-.6 1.4-.3.4-.7.8-1.2 1-.2.1-.4.2-.6.4.2.7-.3 1-.8 1.2v1.5c.1.5-.2.8-.6 1-.2.1-.5.2-.7.3-.2.1-.3.1-.3.4v.5c0 .2-.1.4-.2.4-.4.1-.5.4-.7.8-.2.5-.6.8-1 1-.5.3-1.1.4-1.7.5-.4 0-.8.1-1.1.1-.4 0-.5-.1-.5-.5 0-.1 0-.1-.1-.2s-.2-.2-.2-.3c-.3-.4-.6-.8-.8-1.3-.1-.2-.1-.3-.1-.5s-.1-.5-.3-.6c-.2-.2-.3-.5-.3-.8v-2c0-.1 0-.2-.1-.3-.1-.2-.3-.4-.5-.5-.2-.1-.2-.3-.2-.5v-.7c0-.3-.1-.4-.4-.4h-.3c-.2 0-.4 0-.6-.2-.3-.2-.6-.2-.9-.2-.6.1-1.2.2-1.8.2-.3 0-.6.1-.9.1-.6 0-1.1-.2-1.6-.5l-.1-.1c-.2-.4-.6-.6-.9-.9-.5-.4-.5-.4-.5-1v-1.7-.2c.1-.1.1-.3.1-.4v-.5c0-.3.1-.6.3-.8.1-.1.1-.2.2-.3.1-.2.3-.4.4-.5.3-.2.6-.5 1-.7.2-.1.3-.3.3-.5 0-.3.1-.7 0-1 0-.2.1-.4.1-.7-.1 0-.2-.1-.3-.1v-.2-1.7-.3-.1c-.1-.3.1-.4.2-.6.2-.2.4-.3.6-.2.1 0 .2.1.3.1.1.1 0 .2 0 .3V9.7c-.1 0-.3.1-.4.1h-.3c-.1 0-.1-.1-.1-.2.1-.2.2-.4.4-.6.2-.2.5-.2.8-.1.1.1.2.1.3 0v-.1c-.3-.3-.1-.6.1-.8.3-.2.5-.3.8-.3-.1.1-.1.3-.2.4.1 0 .2.1.3.1v.1c-.1.2-.1.2.1.4.3.1.5.3.7.5.1.1.2.2.3.2.2.1.2.3 0 .4-.1.1-.2.1-.3.1-.1 0-.3 0-.5.1h-.3c.1.2.1.3.3.2.5-.2.9-.4 1.4-.6V9v-.7c0-.2.1-.3.2-.4.3.3.5.2.6.1 0-.1-.1-.3-.1-.4-.1-.2 0-.3.1-.4.4-.2.8-.4 1.2-.4h.3v-.1c-.1-.3-.1-.3.1-.5l.6-.3c.4-.2.8-.3 1.1-.6.1-.1.4-.2.6-.3l1.2-.3h.1c.5-.2 1-.2 1.6-.1.2 0 .3.1.5.1 0 0 .1 0 .1.1V5h.2c.3-.1.6-.1.9 0 .5.1 1.1.3 1.6.4.2 0 .3.1.5.2s.2.3 0 .4h-.5c-.4.1-.8 0-1.2 0-.1 0-.2 0-.3-.1.2.3.4.6.9.6v-.2h.7c.1 0 .2 0 .3-.1.2-.3.5-.3.7-.3h.4c0-.1-.1-.2-.1-.3-.1-.2 0-.3.2-.3s.4 0 .6.1c.1.1.1.2 0 .3h.4c.5-.3 1.1-.4 1.6-.4h.5c.2.1.3.1.5 0s.4-.1.6-.2h.4c.1.1.2.1.2 0 .7-.4 1.4-.2 2.1 0 .1 0 .3.1.4 0l-.1-.1c-.1 0-.2-.1-.3-.1-.2-.2-.2-.3.1-.5.1-.1.3-.2.4-.3.3-.2.7-.3 1-.2.1.1.2.2.2.3v.4c.1.2.1.4 0 .6 0 .1-.1.2-.1.3.1.1.2.1.2 0 .1-.2.4-.3.6-.5h-.1c-.2 0-.3-.1-.4-.3v-.1c-.1-.1-.1-.2 0-.3 0-.1.2-.2.3-.3.1 0 .2.1.3.1.2.2.2.2.4.2 0-.1-.1-.1-.1-.2.1 0 .1-.1.2-.1.3.1.8 0 1.2.2.1.1.5.4.6.4-.1-.3-.3-.4-.6-.4zm11.9 17c-.3.1-.5.3-.5.6s.1.5.3.7c0-.2-.1-.5.2-.6l.1.1c.1.1.1.2.2.3 0 .1.1.1.2.1 0 0 .1-.1 0-.2 0-.1-.1-.1-.2-.2l-.2-.2c.1-.2.3-.1.4-.2h-.4c-.2-.1-.2-.2-.1-.4h.4c-.1-.1-.2-.1-.4 0zm-14.6-4.5c0 .1 0 .2.1.3 0 .3.1.6.3.9.3.5.7 1 1 1.4.1.2.3.2.4 0 .3-.2.4-.5.4-.9 0-.3.1-.5.4-.6.3-.1.6-.3 1-.5.2-.1.3-.2.5-.3.2-.2.5-.3.7-.3.3 0 .5-.1.8-.1h.2c.3.2.5.4.7.6.1.1.2.2.2.4s.1.3.3.2c.1 0 .2-.1.4-.1s.3 0 .3.2c.1.2.2.4.2.6 0 .1.1.3.1.4 0 .3.1.7.3.9.2.2.4.4.6.7.1.1.2.2.4.2h.3v-.2c-.1-.3-.3-.6-.6-.7-.2-.1-.4-.3-.5-.4-.3-.3-.1-.7.2-.8.3-.1.5-.1.8.1.2.1.4.3.6.5.1.1.2.1.4.1.3-.1.5-.2.7-.4.3-.3.3-.4.1-.8l-.3-.3c-.1-.1-.2-.2-.4-.3-.2-.2-.2-.4 0-.6.1-.1.3-.2.4-.1.3 0 .6 0 .9-.1.3-.1.6-.1.9-.2.3 0 .6-.1.8-.2.2-.1.5-.2.7-.4.2-.1.3-.3.5-.4.1-.1.2-.3.2-.4v-.6c0-.1 0-.1-.1-.1l-.2-.2c-.3-.3-.2-.4.1-.6.1 0 .1-.1.2-.1s.1-.1.2-.1h-.4c-.2 0-.4 0-.5-.1-.1 0-.2-.1-.2-.2s.1-.2.1-.2c.2-.1.5-.2.7-.3h.2c.2 0 .2.1.1.3v.1h.1c.2-.1.4-.1.6-.1.1 0 .2.1.2.1.1.1.2.3.4.4.1.1.2.2.2.4 0 .1.1.2.2.2s.2-.1.3-.1c.2-.1.2-.2.1-.3l-.3-.3c-.1-.2-.1-.3.1-.5.3-.2.6-.4.8-.6.2-.1.4-.2.6-.1h.4c.6-.3 1.1-.6 1.5-1.1.3-.3.5-.7.5-1.1 0-.2-.1-.3-.3-.3h-.5c-.3 0-.5-.1-.7-.2-.2-.1-.2-.2 0-.4.3-.1.5-.3.8-.4.3-.1.6-.3.9-.4.4-.2.8-.3 1.3-.2h.5c.5-.1 1-.1 1.5 0 .2 0 .4 0 .6-.1.2-.1.4-.3.6-.4.3-.1.6-.2.9-.2.2 0 .2 0 .2.2v.1c.4-.1.8-.3 1.2-.5 0 .2 0 .4-.2.5l-1.8.9c-.1 0-.1.1-.2.1-.2.2-.4.4-.3.7 0 .2.1.4.2.6 0 .1.1.1.2.1.3-.2.6-.3.8-.5 0-.3.1-.4.3-.5.1-.1.2-.1.3-.2.1-.1.2-.3 0-.5-.1-.2-.1-.4.1-.5.6-.2 1.2-.4 1.9-.3.3.1.6 0 .9-.1.5-.2 1-.3 1.5-.4h.5v-.1l-.3-.3c-.1-.1-.3-.1-.4-.3h.7c.2 0 .4 0 .5-.2 0 0 .1-.1.2-.1h.3c.5.1.9.2 1.4.4.1 0 .2.1.3 0 .1-.2.4-.3.6-.4.1 0 .1 0 .2-.1-.2-.1-.3-.1-.4-.1-.3-.1-.5-.1-.8 0-.1 0-.2 0-.2-.1-.3-.3-.7-.4-1-.5-.9-.2-1.8-.3-2.7-.3h-.5c-.1 0-.2 0-.2.1-.1.2-.1.2-.4.2-.4-.1-.8-.1-1.1-.1-.4 0-.8 0-1.2-.1-.2 0-.3 0-.4-.1-.2-.2-.4-.3-.6-.3h-1.1c-.5 0-1 0-1.4-.4-.1-.1-.2-.1-.3 0-.3.1-.7.1-1 0-.5-.1-.7-.2-.9-.1h-.4c-.2 0-.4 0-.5.2 0 .1-.1.1-.2.1h-1.2c-.3 0-.7 0-1 .2-.1.1-.3.1-.4 0l-.6-.3c-.1-.1-.2-.2-.2-.3.1 0 .1-.1.2-.2-.1 0-.2-.1-.3-.1-.4-.1-.8-.1-1.1 0-.6.1-1.1.1-1.7 0-.3-.1-.7-.1-1 0-.3.1-.5 0-.6-.2-.2-.2-.2-.2 0-.4l.1-.1c-.1-.1-.2-.2-.3-.2H82.8c-.2 0-.3-.1-.3-.2l-.1-.1c-.3-.1-.7.1-.9.4 0 .1-.1.1-.2.2-.4 0-.7.1-1.1.1h-.9c-.7.1-1.4.1-2.1.2-.1 0-.3 0-.4.1 0 .1.1.2.1.3H75.5c-.1 0-.3 0-.4.1 0 .1 0 .1.1.1s.2.1.3.1c.1.1.3.2.3.3v.2h-.2c-.1 0-.1-.1-.2-.1-.3-.3-1-.4-1.4-.2.1.1.1.2.2.3-.4.1-.6 0-.8-.3-.2-.2-.2-.2-.4 0-.1.1-.2.2-.1.3v.1c0 .2.2.3.3.3.1 0 .3 0 .4.1.4.1.6.3.7.7-.3 0-.4 0-.6-.3-.1-.1-.2-.2-.3-.2-.2 0-.3.1-.4.2-.2.2-.4.4-.6.5-.3.2-.9.1-1.1-.2h.6c.2 0 .4 0 .4-.1.2-.3.3-.6.1-1-.1-.1-.1-.3 0-.4 0-.1 0-.2-.1-.2-.2-.1-.4-.1-.6 0-.3.1-.5.3-.7.5 0 0 0 .1-.1.1 0 .1.1.1.1.1l.3.3.1.1-.1.1H71c-.2 0-.4-.1-.6-.2-.5-.1-1-.1-1.5.1-.1.1-.3.1-.4 0-.1-.1-.2-.1-.3 0-.2.1-.4.1-.5.2-.2.1-.4.1-.6 0h-.2c-.3 0-.7.1-1 .2l-.9.3c-.2.1-.4.1-.5-.1 0-.1.1-.1.1-.2-.2-.2-.3-.2-.6-.1 0 .1.1.2.1.3-.1.1-.1.2-.3.2h-.4c-.2 0-.4.1-.6.2-.1.2-.3.2-.5.2H62h-.1v.2c-.3 0-.5 0-.8-.1l-.6-.6c.1-.1.3-.1.4 0 .2 0 .4.1.6.1h1c.1 0 .2 0 .3-.2-.2-.1-.5-.2-.7-.3-.5-.1-1-.3-1.5-.4-.1-.1-.3-.1-.6-.1h-.2c-.1 0-.2 0-.2-.2v-.1c-.4 0-.7-.1-1-.1-.3 0-.5 0-.7.1-.3.1-.7.2-1 .2-.2.1-.4.1-.6.1-.2.1-.4.1-.6.3-.2.2-.4.3-.7.4l-.6.3c-.2.1-.3.2-.5.3 0 .1 0 .1.1.1.1.2.1.4-.2.4h-.1c-.3 0-.6.1-.9.3-.3.2-.4.2-.3.6 0 .1 0 .1.1.2.1.2.2.2.3.2.2 0 .3 0 .5-.1.1 0 .3-.1.4-.1.2 0 .3 0 .4.2.1.2.2.3.3.5.1.1.2.2.3.2.4 0 .7-.1.9-.4.1-.2.2-.3.3-.4l.2-.2c-.1-.1-.2-.1-.2-.2-.2-.2-.2-.4 0-.6l.1-.1c.2-.1.4-.2.6-.4.2-.1.3-.2.4-.3.3-.2.5-.2.8-.2.1 0 .2.1.3.2 0 .1-.1.2-.2.2-.2.2-.5.3-.7.5-.1.1-.2.2-.2.4s.2.3.4.4h.3c.3 0 .6-.1 1-.1.3 0 .5 0 .8.2-.3.1-.5.2-.7.2h-.5c-.4 0-.4 0-.4.4 0 .2 0 .2-.2.2-.1 0-.2 0-.3-.1-.2 0-.3 0-.4.2 0 .3-.2.4-.4.4s-.4 0-.6.1c-.3 0-.6.1-.9.1-.5.1-1 0-1.4-.1-.2 0-.2-.2-.2-.3v-.1c-.3-.1-.3 0-.3.2v.1c0 .2 0 .3-.2.4-.1 0-.2 0-.3.1-.3 0-.6.1-.9.3-.1.1-.3.2-.5.3-.2.1-.4.1-.6.2-.4.2-.8.3-1.2.4-.1 0-.1 0-.2.1.1.1.2.1.3.1.1 0 .2.1.2.1.2.1.2.3.3.4 0 .3-.1.4-.4.5H48.1c-.2 0-.2.1-.2.3 0 .2 0 .4-.1.5-.1.3 0 .3.2.5.1 0 .1 0 .2.1.4.1.8.1 1.2.1.3 0 .5-.1.8-.3.5-.3.9-.7 1.4-1 .2-.1.4-.2.6-.2.3 0 .6-.1.8-.1.2 0 .5 0 .7.1.3.3.7.5 1.2.6.2.1.3.1.5.2l.3.3c0-.2.1-.3.4-.4-.2-.1-.4-.1-.5-.2-.4-.2-.8-.4-1.1-.7 0-.1-.1-.2-.1-.2.1-.1.2-.1.2-.1h.2c.5.2 1 .5 1.4.7.2.1.3.2.4.4l.5.5c.1.1.2.2.2.4.2 0 .4 0 .6-.2-.1 0-.1-.1-.1-.1-.2-.2-.2-.3.1-.4.2 0 .3-.1.5-.1h.5c.2 0 .2-.1.3-.3 0-.2.1-.4.2-.5.2-.1.3-.3.5-.4.2-.2.4-.2.7 0 .1 0 .1.1.2.1.2.1.3.2.5.1.1-.3.3-.4.6-.4h.1c.2 0 .3.1.2.3-.1.1 0 .2.1.3.1 0 .1.1.2.1l.6.3c.2.1.2.3 0 .4-.1 0-.2.1-.3.1-.3 0-.7 0-1-.1-.3-.1-.5-.1-.8-.1-.7 0-1.3.2-1.9.4-.1 0-.3.1-.3.3 0 .2.1.3.2.3.1.1.2.1.3.1h2c.2 0 .3.1.2.3-.1.2-.2.5-.3.7-.1.3-.4.4-.7.4-.5 0-1 0-1.5-.1-.5 0-.9-.1-1.3-.2-.3-.1-.6 0-.8.2-.2.2-.4.2-.6.2-.1 0-.3-.1-.4-.1-.5-.1-1-.3-1.5-.4-.1 0-.1 0-.2-.1-.2-.1-.2-.2-.2-.4v-.1c0-.2 0-.2-.2-.3-.1 0-.3-.1-.4-.1-.4 0-.8 0-1.2.1-.7.1-1.4.2-2.1.2-.7 0-1.4.3-2 .6-.1.1-.2.1-.2.3 0 .3-.1.4-.3.6-.1.1-.3.2-.5.3-.3.2-.7.4-.9.7-.3.3-.5.7-.4 1.2.1.2 0 .5-.1.7-.1.2-.1.2.1.4.1.1.3.2.4.4.2.2.5.4.7.7.2.2.4.4.6.5.4.2.9.3 1.4.2.4-.1.7 0 1.1-.1.5 0 .9-.1 1.4-.2.4-.1.7-.1 1.1.2.2.1.3.1.5.1h.4c.3 0 .4.2.4.4v.8c0 .1 0 .2.1.3.4.2.6.6.8.9.1.1.1.2.2.3.2.3.1.6-.1.9-.1.1-.1.2-.2.3-.2.4-.2.6.1 1 .2.2.2.4.3.6.1.3.2.5.3.8.2.4.5.8.8 1.1.1.2.3.3.2.5 0 .1.1.2.2.3h.3c.7 0 1.4-.1 2-.2.4-.1.8-.3 1.1-.5.3-.2.5-.4.6-.7.1-.4.3-.6.7-.7.3-.1.3-.3.2-.6-.1-.2-.1-.5.2-.6.2-.1.4-.2.7-.3.2-.1.3-.2.5-.3.3-.2.4-.4.3-.7-.1-.2-.1-.4-.2-.6-.4-.6-.3-1.1.3-1.5.4-.3.7-.6 1.2-.7-.4-.4-.4-.4-.3-.4.8-.5 1.4-1.1 1.9-1.9 0 0 0-.1.1-.2-.2 0-.4 0-.6.1-.4 0-.7.1-1.1.1-.3 0-.5-.1-.7-.3-.1-.1-.3-.2-.4-.4-.4-.3-.8-.6-1.1-.9-.1-.1-.2-.2-.2-.4s-.1-.5-.3-.6c-.3-.3-.6-.7-.9-1 0-.1-.1-.1-.1-.2v-.2H61.3c.2 0 .4.1.5.2.2.3.4.5.7.8.1.1.3.3.4.5.1.2.2.4.4.5.4.2.7.6.7 1.1 0 .1.1.2.2.2h.3c.3-.1.6-.1.8-.2.6-.2 1.2-.3 1.8-.5.4-.1.8-.3 1.2-.6.2-.1.4-.3.6-.5-.1-.1-.2-.1-.3-.2l-.6-.3c-.2-.2-.3-.2-.5-.1s-.5.2-.7.2c-.2 0-.3 0-.5-.1l-.3-.3-.6-.6c-.2-.2-.1-.3.1-.3.3 0 .5 0 .7.2.2.2.4.3.7.3.4.1.8.1 1.2.2.6.2 1.3.3 1.9.2.4 0 .7.1 1 .2.2.1.4.2.7.3.1 0 .2.1.2.1 0 .3 0 .3.2.3h.3zm19.7 11.8c.3.1.5.3.6.5.2.3.6.5 1 .4h.3c.2 0 .5 0 .7.1h.2c.3-.1.6-.2.8-.3.2-.1.3-.2.3-.4 0-.1.1-.2.1-.3.5-.5.6-1.1.7-1.8 0-.3 0-.3-.2-.4-.2-.1-.4-.1-.5-.3-.3-.3-.6-.5-.9-.7-.2-.2-.4-.4-.5-.7 0-.1-.1-.2-.2-.3-.2-.2-.4-.5-.5-.7-.1-.1-.2-.1-.3 0-.1.1-.1.2-.1.3-.1.2-.2.5-.3.7-.3.4-.4.5-.7.4-.3-.1-.6-.3-.9-.4-.3-.1-.3-.3-.1-.6 0-.1.1-.1.2-.2-.4-.1-.7-.2-1.1-.2-.3.1-.7.2-.8.5-.1.3-.3.4-.6.3-.1 0-.1 0-.2-.1-.3-.1-.6-.1-.8.1-.1.1-.3.2-.5.3-.1.1-.2.1-.2.2-.1.2-.3.3-.5.4-.2.1-.5.2-.7.2l-1.2.3c-.4.1-.4.2-.2.5.1.2.1.3-.2.3 0 0 0 .1.1.1.3.4.5.8.6 1.3 0 .3.4.6.7.4.2-.1.5-.1.7-.2.6-.1 1.2-.3 1.8-.4.4-.1.9-.2 1.3-.2.5 0 .9.1 1.3.5.3.2.3.2.6 0 .1-.1.2-.2.3-.1 0 .3-.1.4-.1.5zm-5.7-8.2c-.3-.3-.5-.3-.9-.1-.5.3-1 .5-1.5.7-.1.1-.3.1-.4.2-.1.1-.2.1-.1.3.1.2.2.4.5.5.2.1.3.1.5.2.3.1.7.1 1 0 .1 0 .2 0 .2-.1 0-.3.2-.5.4-.6.3-.2.3-.3 0-.5-.1-.1-.1-.2 0-.3.1-.2.2-.3.3-.3zm5.9 2.5c.1 0 .1 0 .1.1.3.1.6.1.9.2.2 0 .4 0 .6-.1.3-.2.6-.2.9.1l.1.1c.2.1.5.2.7.2-.1-.1-.2-.1-.3-.2-.1 0-.2-.1-.2-.2-.1-.3-.3-.4-.5-.5-.7-.3-1.4-.5-2.2-.6-.3-.1-.5-.1-.8.1-.2.1-.4.1-.5-.1l-.1-.1c-.2-.1-.3-.2-.5-.1.2.2.2.2.2.4.2 0 .3 0 .5.1.4 0 .8.2 1.1.4.1-.1.2 0 0 .2 0-.1 0 0 0 0zm-2.7-8.7c.1.2.3.3.3.5l.1.1c.2 0 .3 0 .4-.2.2-.2.4-.3.7-.3.6-.1 1.2-.3 1.8-.3.1 0 .2 0 .2-.1.1-.3.3-.6.4-.9.1-.1 0-.2 0-.3-.1-.1-.2-.1-.4-.1-.1 0-.2.1-.2.2 0 .2-.1.2-.3.3-.4.3-.9.4-1.3.6-.4.1-.8.2-1.3.3-.2.1-.3.1-.4.2zM50.9 9.8c-.1-.1-.3-.2-.4-.4-.2-.2-.4-.4-.6-.5-.1 0-.2-.1-.2-.2v-.3c-.1 0-.2-.1-.2-.1V8c-.2.1-.3.2-.4.3-.2.2-.2.4 0 .5 0 .2.2.2.3.3.2.1.2.3 0 .4-.1.1-.2.1-.3.2.1.1.2.1.4.2l-.3.3c.5 0 .9-.1 1.3-.1.2-.1.3-.1.4-.3zm31.7 12c-.1 0-.2-.1-.3-.1-.2 0-.5-.1-.6-.3l-.2-.2c-.4-.3-.8-.5-1.2-.8-.2-.1-.4-.1-.5-.1l1.3 1.3c.3.3.6.5.9.6.2.1.3.1.3 0 .1-.1.2-.2.3-.4zM92.8 12c.1.2.2.3.4.2.4-.1.7-.2 1-.3.1 0 .2-.1.2-.2h-.2c-.2-.1-.5-.1-.7-.2-.1 0-.3-.1-.3.1s-.2.3-.4.4zm.6-2.3c.2.3.2.6.2 1v.3c0 .2.1.2.3.1 0-.1-.1-.1-.1-.2-.1-.2 0-.3.1-.3s.1 0 .2-.1c-.2-.3-.3-.6-.3-.9v-.2s0-.1-.1-.1c0 0-.1 0-.1.1 0 0-.1.2-.2.3zm-45.8.1c.3.1.9-.1 1.1-.3.1-.1.1-.3-.1-.3-.2-.1-.3-.1-.5 0-.3.1-.5.3-.5.6zm35 12.8c.2.2 1.9.4 2.2.4-.2-.2-.4-.2-.6-.2-.5-.1-.9-.1-1.4-.1-.1-.2-.2-.1-.2-.1zm-1.1-.5v.5c.3 0 .5.1.7.1v-.3c-.2 0-.5-.1-.7-.3zm11.3-10.6c.1.1.1.2.2.3.2-.1.2-.3.3-.4H93c-.1 0-.2.1-.2.1zm-.8 0c-.1.2-.1.4-.1.8l.1-.1c0-.2.1-.4 0-.7zM49 9.2c.1.1.1.1.2.1l.1.1.1-.1s0-.1-.1-.1-.1-.1-.2-.1l-.1.1zm32 12.6c-.1-.1-.2-.1-.2-.2 0 .2.1.2.2.2zM28.5 36c-.1-.2-.3-.3-.5-.3-.1 0-.1 0-.2-.1-.2-.1-.2-.1-.1-.3v-.1l.2-.6c-.1-.1-.2-.2-.4-.3-.1 0-.2-.1-.2-.2s.1-.1.3-.2v-.7c0-.2-.2-.2-.3-.3v-1-.9c0-.2.1-.3.3-.3h.2v-.3c0-.5 0-.9.1-1.4 0-.2.1-.3.2-.5.2-.3.4-.5.5-.9v-.2c-.2-.1-.5-.2-.7-.4-.6-.3-1-.7-1.3-1.3-.2-.3-.4-.7-.6-1-.1-.1-.2-.3-.1-.4v-1.9c0-.1 0-.2.1-.4 0 0-.1 0-.1-.1-.3-.1-.6-.1-.9-.2-.2-.1-.4-.2-.5-.4-.1-.2-.3-.2-.4-.3-.3-.1-.7-.2-1-.3-.6-.2-1.3-.3-2-.4-.4-.1-.8-.1-1.2-.3l-.9-.3c-.2-.1-.3-.2-.3-.4 0-.1 0-.1-.1-.1-.3-.2-.6-.4-1-.7v.5c-.3 0-.5-.1-.8-.2-.4-.3-.8-.7-1.1-1.2-.2-.4-.5-.6-.9-.7-.4-.2-.7-.4-1-.7-.1-.1-.2-.2-.3-.2-.2-.1-.3-.3-.3-.5v-.4-1.4-.2c-.2-.1-.4-.2-.6-.2-.2 0-.3 0-.4-.3l-.1-.1c-.3-.1-.5-.3-.5-.6 0-.1-.1-.1-.1-.2-.3-.2-.5-.3-.8-.5-.4-.2-.9-.3-1.3-.4-.7-.1-1.5-.2-2.2-.3-.2 0-.3-.1-.5-.1s-.3 0-.5.1l-.2.2c-.3.2-.5.1-.6-.3-.4.2-.5.2-.6.3-.3.4-.7.6-1.1.8-.5.2-1.1.4-1.6.5h-.3v-.8c0-.3 0-.3-.2-.3-.1 0-.2-.1-.3-.1-.3-.2-.4-.3-.4-.5v-.6c-.1-.1-.2-.1-.3-.2-.2-.1-.2-.2-.2-.4V7.7c0-.1 0-.2.1-.3 0 0 0-.1-.1-.1L.7 7v-.4c-.3-.1-.5-.2-.7-.4V6c.3-.1.7-.2 1-.2.1 0 .3 0 .4.1h.1l-.1-.1c-.3-.1-.6-.2-.8-.3-.1 0-.2-.1-.2-.2 0-.2.2-.1.3-.2.2-.1.5-.2.7-.2.3-.1.6-.3.9-.4.7-.1 1.3-.1 1.9 0 .4 0 .8.1 1.2.1.9.1 1.8.1 2.7.3.4.1.8.1 1.3.2.2 0 .3.1.4.3 0 0 0 .1.1.1l.1-.1c0-.1-.1-.1-.1-.2-.2-.1-.1-.1 0-.2.1 0 .2 0 .3-.1.2 0 .4-.1.6-.1h.2V5c.2-.1.3-.1.5-.2.1 0 .2-.1.3-.1.3-.1.5 0 .8 0 .3 0 .6.1.9 0 .3-.1.7 0 1 0 .3 0 .6 0 .9-.1-.3-.1-.6-.1-.6-.5h-.2c-.2.1-.5.2-.7.3-.2.1-.5.1-.7 0-.2 0-.3-.1-.4-.3.2-.1.3-.2.4-.4.1-.2.2-.3.4-.3h.9c.4 0 .9.1 1.2.3.4.3.6.3 1 .2.3-.1.6 0 .9.1.1 0 .2.1.2.1.1-.3.5-.3.7-.5h.1c.2 0 .2.1.1.3-.1.1 0 .2 0 .3.1.1.2.2.3.2.2.1.4.1.6.2.1 0 .2.1.3.1l-.3.3c0 .1 0 .1.1.2.2 0 .3-.1.5-.1.2-.1.5-.2.7-.3h.2c.1 0 .1 0 .3.1v-.3c0-.2 0-.2-.2-.2-.2.1-.4.1-.7 0-.4-.2-.8-.3-1.2-.5h.4c.2 0 .3 0 .5-.2.1-.1.2-.1.3-.1h.4c.3 0 .3 0 .3.3.2.2.2.2.4.1V3c-.1 0-.2 0-.2-.1l-.1-.1.1-.1h.7c.2 0 .4-.1.7-.1 0-.1 0-.2-.1-.2s-.3-.1-.3-.2 0-.2-.1-.3c-.2 0-.3-.1-.5-.1-.1 0-.2-.1-.2-.2s.1-.2.2-.2c.2-.1.4-.2.6-.2.2-.1.4-.1.6 0 .2.1.4.1.7.2.2.1.4.1.5.3.2.2.5.3.7.2-.1 0-.2-.1-.3-.1-.1 0-.2-.1-.2-.2s.1-.2.2-.2h.7-.2c-.5-.1-1-.1-1.5-.2-.3 0-.6-.1-.8-.3.1-.1.2-.1.3-.1.2 0 .5 0 .7-.1.4-.1.9-.1 1.3-.2.1 0 .2 0 .3-.1.1-.1.2-.1.3-.2.2-.1.3-.2.3-.2h3.8l.1.1c.3.1.6.1.9.1.2 0 .5 0 .7.1.1 0 .2.1.2.2s-.1.1-.2.2c-.1 0-.2 0-.2.1-.2 0-.4.1-.6.1 0 .2 0 .3-.2.3-.1 0-.3.1-.4.1-.2.1-.4.1-.6.2.5.2.9.3 1.4.2h-.4c-.1 0-.2 0-.3-.1 0-.2.1-.2.2-.2.2 0 .3-.1.5-.1s.5-.1.7-.1c.2 0 .3-.1.4-.2.1-.1.2-.1.2-.2.2 0 .3 0 .5-.1h.6c.4 0 .8-.1 1.2-.1h.1c.3-.1.7-.1 1-.1h1.1c-.1-.1-.2-.1-.3-.1-.1 0-.2.1-.3 0-.1 0-.1-.1-.2-.1V.1L36 0h4.7c-.1.1-.1.2-.2.2.5 0 1 0 1.5-.1h.5c.1 0 .3 0 .3.1.1.1.2.1.3.1.3 0 .7 0 1 .1-.5.2-.9.2-1.3.3h.4c.2 0 .4 0 .5.1H45c.2 0 .4 0 .6-.1.5-.1.9 0 1.4.1 0 0 .1 0 .1.1-.7.2-1.4.4-2.1.5v.2c0 .1-.1.1-.2.2s-.3.1-.4.3c.1 0 .2.1.3.1h.4c.4-.1.8-.1 1.2 0v2.6c-.6.1-1.2.3-1.8.4 0 .2-.1.3-.1.5.2 0 .4-.1.5-.1.4 0 .7 0 1.1.1.1 0 .2.1.3.2.1.1.1.2-.1.3-.1 0-.1.1-.2.1-.5.1-.9.2-1.4.3h-.3v.3c.3 0 .6 0 .9.1.1 0 .3.1.4.1.1 0 .2.1.1.3v2.3c0 .2 0 .2-.2.3-.3.1-.6.1-.9.2-.5.1-1 0-1.5-.2 0 0-.1-.1-.1-.2v-1h-.2c-.6.1-1.2.2-1.8.2-.3 0-.6.1-.9.2-.2 0-.3.1-.5.3-.1.1-.3.2-.4.2-.3.1-.6.1-.9.2-.3.1-.5.2-.7.4-.1.1-.3.3-.3.5s-.2.3-.4.4h-.3c-.3 0-.5-.1-.8-.1-.6-.1-1-.5-1.3-.9-.1-.1-.2-.2-.1-.4v-.2c-.1 0-.1-.1-.2-.1v-.1-.5c0-.1 0-.2-.1-.3v-.1-.2H34c-.1 0-.2 0-.2-.1-.1-.3-.4-.5-.6-.7-.1-.1-.3-.2-.4-.3-.2-.1-.3-.2-.5-.1h-.5c0 .1.1.1.1.1-.1.1 0 .3 0 .4v1c0 .1 0 .2.2.3.2.2.4.2.6.3.1 0 .2 0 .3.1 0-.2 0-.2-.1.1h.4c.2 0 .3.1.4.3 0 .2-.1.3-.3.4-.2 0-.3.1-.5.1-.1 0-.3.1-.5.1.2.1.4.1.6 0 .1-.1.3-.1.4-.1.1 0 .2 0 .3.1 0 .1.1.1.2.1.3.1.6.3.7.6l-.1.1c-.1 0-.2 0-.3.1-.2 0-.3 0-.5-.1-.1-.1-.2-.1-.3 0 0 .2.1.3.3.4h.1c.2.1.4.1.4.3 0 0 0 .1.1.1l-.1.1c.2.3.1.6.1.9v1.4c-.1 0-.2 0-.3.1-.2 0-.3.1-.5-.1H32.6c-.1 0-.2-.1-.2-.3v-.4c-.1-.1-.2 0-.2.1v.7c0 .1 0 .2-.1.2-.4.1-.9.3-1.3.4h-.2c0-.1 0-.2-.1-.3l-1.2.3c-.3 0-.3.1-.3.3 0 .1-.1.2-.2.2h-.2c-.4 0-.6.2-.9.5-.1.1-.1.1-.2.1h-.2v.2c0 .2-.1.4-.3.5l-.6.3c-.1.1-.2.1-.3.2v1.2c0 .1.1.3-.1.3-.2.1-.4 0-.5-.1-.1-.1-.1-.2-.2-.2-.1.3-.1.5.2.6.2.1.5.2.8.1.2-.1.3 0 .5 0 .1 0 .1 0 .2.1.2.1.4 0 .5-.1.1-.1.3-.2.5-.3.2-.1.4-.1.6-.2.2-.1.2 0 .3.2v.1s.1 0 .1-.1c.2-.2.4-.2.7-.1.5.2.9.2 1.4.2.4 0 .8.1 1.1.4.2.1.4.3.6.4.4.2.8.3 1.2.3.4 0 .8.2 1.1.5.1.1.2.2.2.3.1.2.1.2-.1.4-.1 0-.1.1-.2.1H35.3c.1 0 .2 0 .3.1v.3s.1 0 .1-.1c.4-.3.8-.3 1.2 0 .3.2.6.2.9.3h.5c.5 0 .9.2 1.3.4.1.1.2.1.3.2.1.1.2.2.1.3-.1.2-.2.3-.3.5-.1.1-.1.2-.1.4v1.4c0 .4-.2.7-.5.9-.1.1-.2.1-.2.2-.4.3-.5.6-.5 1.1 0 .4-.2.8-.4 1.1-.1.2-.3.3-.5.3-.2.1-.4.1-.6.2-.5.1-.9.3-1.3.5-.1.1-.2.1-.2.3 0 .5-.3.9-.6 1.2l-.9.6c-.2.1-.5.1-.7.1h-.3l.2.2c.2.2.2.5-.1.6-.3.1-.5.1-.8.2-.1 0-.3 0-.4.1-.1 0-.2.1-.2.2-.1.2-.2.2-.4.2H31c-.1 0-.2.1-.1.2.1.2 0 .3-.1.5-.1.1-.3.2-.5.4s-.2.3 0 .4c.3.2.3.2 0 .5l-.9.9-.4.4c-.4-.5-.4-.5-.5-.5zM32 11.3h-.6c-.2 0-.4-.1-.6-.2-.1 0-.1-.1-.1-.2l.1-.1s.1 0 .1-.1c-.2-.1-.2-.1-.4 0l-.9.3c-.1 0-.2.1-.4.1.3-.4.7-.6 1.1-.7.3-.1.6-.1.8-.1.7 0 1.4-.1 2-.2.1 0 .2-.1.3-.1.1-.1.1-.3 0-.3s-.2-.1-.2-.1h-.3c-.2 0-.4 0-.6-.1l.6-.3c-.1 0-.2-.1-.3-.1-.4-.1-.8-.3-1.1-.7-.1-.1-.2-.2-.3-.4-.1-.2-.2-.2-.5-.1-.1 0-.2.1-.2.1-.3.1-.6.2-.9.1-.3-.1-.4-.3-.3-.5v-.1c-.3-.1-.6-.3-.9-.4-.4-.1-.7-.1-1.1 0-.2 0-.3.1-.3.3 0 .3-.1.5-.1.8 0 .1.1.2.1.3.1.1.1.3 0 .4-.1.3-.3.7-.4 1-.1.2-.2.3-.5.3l-.6-.3c-.2-.1-.3-.3-.2-.5v-.2c-.1 0-.2 0-.2-.1-.3 0-.6-.1-.9-.1-.4-.1-.8-.2-1.2-.4-.3-.2-.6-.4-.9-.5-.4-.1-.4-.3-.1-.6.3-.3.7-.5 1-.7.1-.1.2-.1.3-.1.1 0 .3 0 .4-.1.1 0 .2 0 .3-.2-.1-.1-.3 0-.4-.2h.6c.3 0 .3.2.2.4 0 .1-.1.1-.1.2.2.1.4.2.6 0 .2-.2.5-.2.8-.1h.2c0-.1-.1-.1-.1-.1-.2-.1-.4-.1-.6-.2-.1 0-.2-.1-.4-.1-.1 0-.2-.1-.2-.2s.1-.1.2-.1c.2 0 .5-.1.7-.1.1 0 .2-.1.3-.1 0-.1-.1-.3-.1-.4 0-.2-.1-.3-.3-.3h-.2c-.3 0-.3 0-.4.3-.1.2-.2.3-.5.3-.2 0-.3-.1-.3-.3 0 0 0-.1-.1-.1-.1-.2-.2-.2-.4-.1-.3.1-.5.1-.7-.2l-.3-.3c0-.1-.1-.1-.1-.2-.2-.1-.5-.1-.8 0-.1 0-.1.1-.1.2s0 .1.1.2c-.1.1-.2.1-.3.1H21c-.1 0-.3 0-.4.1v.1c.1.1.1.2-.1.3-.1 0-.3.1-.4.1-.6.1-1.1 0-1.7-.2-.3-.1-.6-.1-.9 0 0 0 0 .1.1.1.1.1 0 .3-.1.4-.1.1-.2.1-.3 0-.2-.2-.5-.2-.8-.2h-.7c-.3 0-.3-.1-.3-.3h-.3c-.3.1-.6 0-1-.1-.1-.3-.5-.3-.9-.3-.3 0-.5 0-.8-.1-.3-.1-.6 0-.9.1-.2.1-.4.1-.6.2h-.2s0-.1-.1-.2c-.2 0-.5 0-.7.2 0 .1.1.2.1.3 0 .1-.1.2-.2.1l-.1-.1c0-.2-.2-.3-.4-.3-.4-.1-.8-.2-1.2-.2-.7-.1-1.4-.2-2.1-.2-.7-.1-1.4-.1-2.1-.2-.7-.1-1.4 0-2 .2-.4.1-.8.3-1.3.4-.1 0-.1 0-.2.1.3.2.7.4 1 .5.1 0 .1 0 .2.1l.1.1s0 .1-.1.1h-.3S1.1 6 1 6c-.3 0-.6 0-.9.1.2.2.5.4.7.3.2 0 .5 0 .7-.1.2 0 .3 0 .3.1s0 .2-.1.3c0 0-.1 0-.1.1-.1.1-.2.1-.3.2-.2 0-.3 0-.5.1s-.2.3 0 .5c0 0 .1 0 .1.1.7.1 1.3.3 2 .3.1 0 .1 0 .2.1 0 .1 0 .2-.1.2-.1.2-.3.2-.4.3-.1 0-.2.1-.3.1.3 0 .5-.1.7-.2.6-.2 1.2-.5 1.6-1 .1-.1.3-.3.5-.1 0 .1-.1.2-.1.3.3.1.5 0 .6-.2.2-.2.3-.3.6-.1.1 0 .2.1.3.1l1.8.3c.8.1 1.6.3 2.3.8.1.1.3.2.4.3.1.1.2.1.2.2.1.3.2.5.5.6.1 0 .2.1.2.2l.1.1h.2c.5.1.9.3 1.2.6 0 0 .1.1.1.2 0 0-.1.1-.2.1h-.2c-.1 0-.1.1-.1.1 0 .4-.1.9-.1 1.3 0 .2.1.4.3.5.2.1.3.3.4.4l.2.2c.3.2.6.4.9.5.2.1.4.2.5.4.2.3.4.5.6.8.2.3.5.5.8.7.1.1.3.2.5.2l-.3-.3c-.3-.3-.6-.7-.9-1.1-.1-.1-.1-.2.1-.3.1 0 .2 0 .3.1.1.1.2.1.2.2.5.4.9.8 1.4 1.2.1.1.3.2.4.3.1.1.2.2.2.3 0 .2.1.3.3.4.1.1.2.1.3.2.7.3 1.5.5 2.3.6.9.1 1.7.4 2.6.6.2.1.4.1.5.3.1.2.3.3.4.4.2.1.5.1.7.2.3.1.5.1.8 0 .2-.1.4 0 .5.1.3.4.4.8-.1 1.2-.2.1-.3.3-.5.4-.2.2-.3.4-.1.6v.2c-.1 0-.1.1-.2.1.1.1.1.1.1.2.2.3.5.6.7 1 .3.5.7.9 1.3 1.2.2.1.4.2.7.3.4.1.5.3.4.7-.1.7-.1 1.4-.2 2.1 0 .5-.2 1-.6 1.3-.1.1-.1.2-.2.4 0 .2-.1.4-.1.6 0 .2 0 .3.1.5s.1.4 0 .7c-.1.2-.1.2-.4.2-.1 0-.1 0-.2.1.1.1.3.1.4.2.2.1.2.2.1.3-.1.4-.1.5-.1.6v.2c-.1.2 0 .2.1.3.1 0 .2.1.3.1.1 0 .2.1.2.1.2.2.2.2.4 0 .2-.1.3-.3.5-.5.3-.3.6-.5.9-.8l-.1-.1c-.3-.2-.4-.5 0-.6.2-.1.3-.2.4-.3.1-.1.1-.2 0-.3-.1-.2 0-.3.2-.4h.2c.1 0 .3-.1.4-.2.1-.2.3-.2.5-.2s.3 0 .5-.1c.1 0 .3 0 .4-.1.4-.2.5-.2.1-.6-.1-.1-.1-.1-.1-.3.1 0 .3 0 .4.1.3.1.6 0 .9-.1.3-.2.6-.4.8-.6.3-.3.5-.6.5-1 0-.1.1-.2.2-.3.5-.2 1-.5 1.6-.5.2 0 .3-.1.5-.1.2-.1.4-.2.5-.4.2-.3.3-.6.3-.9v-.2c0-.3.2-.5.4-.7.1-.1.3-.2.4-.3.2-.1.4-.3.4-.6 0-.1 0-.2-.1-.2-.5-.3-1-.6-1.7-.6-.5 0-1-.1-1.5-.4-.2-.1-.5-.1-.7 0-.3.2-.5.2-.9.1.2-.1.3-.2.5-.3-.3-.1-.6.1-.9.2 0-.4.4-.4.6-.6 0-.2-.1-.3-.2-.4-.3-.3-.6-.4-1.1-.4-.6 0-1.1-.2-1.6-.6-.4-.3-.9-.5-1.4-.4-.4 0-.8 0-1.1-.2-.3-.1-.5-.1-.7.1-.1.1-.2.1-.3-.1v-.2c-.2.1-.4.1-.6.2-.2.1-.4.2-.6.4-.1.1-.2.1-.3.1-.1 0-.3-.1-.4-.1-.2-.1-.3-.1-.5 0-.3.1-.6 0-.9-.1-.2-.1-.3-.3-.3-.5 0-.1 0-.2.1-.2 0-.2 0-.3-.2-.3-.1 0-.2-.1-.4-.1H24c-.3 0-.4-.2-.2-.5.1-.1.2-.3.2-.4.1-.2 0-.3-.2-.3-.3 0-.5 0-.7.1-.1 0-.1.1-.1.2-.1.2-.2.3-.4.3-.3.1-.7.1-1 0-.2-.1-.4-.2-.5-.4-.2-.4-.3-.7-.2-1.1.1-.2.1-.4.3-.5.3-.2.7-.3 1.1-.3.3 0 .6.1.8.1h.3c.1-.3.1-.3.3-.3.4 0 .8.1 1.2.1.1 0 .3.1.3.2.1.2.2.4.3.5.1.2.3.3.6.1v-.1c-.1-.1-.1-.2-.2-.3-.3-.4-.3-.8.2-1.2.2-.1.4-.2.5-.3.2-.1.3-.2.5-.3.2-.1.2-.2.1-.5 0-.1-.1-.2 0-.2.1-.1.2-.1.2 0 .1 0 .2 0 .3-.1.2-.3.5-.5.9-.5.1 0 .2 0 .3-.1v-.1c0-.3 0-.4.3-.4.1 0 .3-.1.4-.1.4-.1.8-.2 1.3-.2-.1.2-.4.2-.5.5.7-.4 1.2-.5 1.6-.7.1 0 .1 0 .2-.1-.1 0-.2.1-.2.1zm2.6-5.6h.1c.1 0 .1.1.1.2l-.1.1c-.1.2-.1.3 0 .4l.3.3c.5.5 1.2.8 1.9.8.3 0 .4-.1.5-.4.1-.3.2-.5.4-.6.4-.3.8-.4 1.2-.5.1 0 .2 0 .3-.1.1 0 .2-.1.3-.2.3-.3.6-.5 1-.5.2 0 .4-.1.6-.1.6 0 1.2-.1 1.9-.2.1 0 .1 0 .2-.1-.4-.1-.7 0-1-.1.1-.1.2-.2.3-.2.1-.1.3-.2.5-.1.1 0 .2.1.3.1.1 0 .2.1.3-.1-.2-.1-.4-.2-.7-.2-.4 0-.7-.1-.8-.5.3-.1.6-.3.9-.2.3 0 .6.1.9.2 0-.2 0-.2.2-.3h.2c-.1-.2-.4-.1-.6-.3 0-.1.1-.1.1-.1-.1-.1-.3 0-.3-.2.2-.2.4-.1.7-.1-.1 0-.1-.1-.2-.1-.2-.1-.2-.2 0-.4.1-.1.2-.1.3-.2l.2-.2c-.2-.2-.4-.2-.6-.3.3 0 .5 0 .8-.1.3 0 .5-.1.8-.2.2-.1.5-.1.7-.2-.3-.1-.6-.1-.9 0 .2 0 .1 0 0 0-.5 0-.9 0-1.4.1-.1 0-.2-.1-.3-.1-.1 0-.1-.1-.2-.1-.5 0-.9 0-1.4.1-.4 0-.8.2-1.1.2-.3.1-.6.1-1 .1.1 0 .1-.1.2-.1.6-.3 1.2-.4 1.8-.4.4-.1.9-.1 1.3-.2h-.2c-.1 0-.3 0-.4-.2 0 0-.1-.1-.2-.1h-1.2c-.5 0-.9.1-1.4.1h-.2c.1-.1.2-.1.4-.2H36.2l-.1.1h.5c.1 0 .2.1.1.2 0 .1-.1.1-.2.1H35.3c-.2 0-.4 0-.7.1-.2.1-.4.1-.6.1h-.2c-.5.1-1.1.1-1.6.1-.1 0-.2 0-.3.1-.2.3-.5.3-.8.4-.2 0-.5.1-.7.1-.1 0-.2.1-.3.1h.5c.1 0 .2 0 .2.1s0 .1-.1.2-.3.2-.5.2c-.3 0-.6.1-.9.1-.2 0-.5 0-.7.2.5.1.9 0 1.4.2-.2.3-.5.1-.8.3.3 0 .4.1.5.1.3.1.7 0 1 0 .6 0 1.1 0 1.7-.1.1 0 .3 0 .4.1.1.1.3.2.5.3.3.2.6.5.7.9h.1c.1 0 .1-.1.2-.1h.2c.2.1.2.2.1.3 0 0-.1.1-.2.1.1 0 .2 0 .3.1.3.3.3.3.2.5v.1c0 .2 0 .4-.3.5zm-3-5.1c0-.1 0-.1 0 0-.2-.1-.4-.3-.6-.2-.4.1-.7 0-1.1-.1-.1 0-.3-.1-.4-.1h-3.1c-.2 0-.4 0-.6.1-.1 0-.2.1-.2.1-.1.1-.2.2-.4.2-.7.1-1.4.2-2 .3.2.1.4.2.6.2.5.1 1 .1 1.5.2h1c-.3.2-.5.3-.8.3h-.7c-.1 0-.2 0-.3.1.1 0 .2.1.2.1.2.1.5.1.7.2.1 0 .2 0 .3.1v.1c-.2 0-.4.1-.6.1-.5 0-.9 0-1.3-.5-.1-.1-.2-.1-.3-.2-.2-.1-.4-.1-.6-.2-.5-.2-.9 0-1.3.2v.1c.3.2.6.1 1 .3 0 0-.1 0-.2.1.1.1.2.2.3.2.3 0 .6 0 .9-.1.3-.2.5-.2.7 0-.2.2-.5.2-.6.5h.3c.4 0 .9 0 1.3.1.4 0 .8.1 1.3 0 0 0 .1 0 .1-.1h-.3c-.1 0-.2 0-.2-.2.5-.1 1-.2 1.4-.4-.2-.1-.4 0-.4-.2.3-.1.5-.2.8-.2h.8c.3-.1.7-.2 1-.3.3-.1.5-.2.8-.2V.9c.3-.2.6-.3 1-.3zm-2.8 5.3h-.3c-.1 0-.2.1-.2.1-.1.2-.3.2-.5.2h-.5c-.1 0-.2 0-.3.1H27.6c.4 0 .8 0 1.1.2.3.3.5.4.8.5.4.1.7.1 1.2.2-.2-.2.1-.2.2-.4 0-.1-.2-.2-.3-.3-.2-.1-.3-.2-.5-.3-.1-.1-.1-.2.1-.3.2-.1.3 0 .4 0 .2.1.3.2.5.2.1.1.2.1.4 0 .1-.1.2-.2.4-.3-.1 0-.2-.1-.2-.1-.3-.1-.5-.1-.8-.2-.2 0-.4-.1-.5-.1-.4-.1-.4-.1-.3-.4v-.1c-.2-.1-.5-.2-.8-.2-.2 0-.3 0-.4-.3-.3.1-.6.1-.8-.1-.1-.1-.2-.1-.3-.2-.3-.2-.5-.1-.8 0-.1 0-.1.1-.2.1-.4.1-.7.1-1-.3-.1-.1-.2-.2-.3-.1-.1 0-.1 0-.2.1-.3.1-.6.1-.9 0h-.2c-.2 0-.3.1-.5.1-.1 0-.2.1-.3.2 0 .2.1.3.2.3 0 0 .1.1.2.1.2.1.5.1.7.1.8 0 1.5 0 2.3.1.5.1 1 .1 1.5.4.1.2.3.4.5.7zM13.1 4.2c.1.1.3.1.4.2.3 0 .6 0 .8-.2.2-.1.5-.2.7-.2 0 .4 0 .5.5.6h.7c.2 0 .4 0 .6.2-.4 0-.8.1-1.2.1.6.3 1.2.4 1.8.2.5-.2 1-.2 1.6-.1.2 0 .3.1.5.1.1-.1.1-.2.2-.3-.1 0-.2 0-.3-.1-.1 0-.2-.1-.3-.1-.3-.2-.4-.4-.3-.7-.2.1-.4.2-.6.2 0 0 0 .1-.1.1-.1.2-.2.2-.4.1-.4-.3-.7-.3-1-.2h-.3c-.2 0-.4-.1-.6-.2-.3-.2-.5-.3-.9-.3-.3 0-.7-.1-1-.1-.2 0-.5 0-.6.3-.1.1-.1.3-.2.4zm33.2 2.1c0-.1-.1-.2-.3-.2-.4-.1-.9-.1-1.3-.1h-.1c-.3.1-.5.2-.8.3.3.1.7.3 1 .2.4-.1.9-.2 1.3-.3.1.2.1.1.2.1zM25.9 8.5v1.2c0 .2.2.4.4.3l.1-.1c.1-.2.1-.4.2-.7v-.5-.2c-.2.1-.4.1-.7 0zm-4.1-5.7c.4.1.7.2 1.1.5h.1c.4.1.8.1 1.3.1.6 0 1.2 0 1.8-.1h.2l.1-.1h-.1c-.9.1-1.7.1-2.6.1-.2 0-.4 0-.6-.1-.4-.4-.9-.4-1.3-.4zM34.3 11c0-.2 0-.2-.2-.3-.2-.1-.4-.2-.5-.3-.1-.1-.2-.1-.3-.1-.2.1-.3.1-.5.2-.1 0-.1.1-.2.2.1.1.3.2.4.2h.5c.1 0 .2 0 .3.1.1.1.2.1.3.1 0-.1.1-.1.2-.1zM21.4 4.2c-.1-.1-.2-.1-.3-.2 0-.1 0-.2-.1-.3-.4-.1-.8.1-1.1.3.7.4 1 .5 1.5.2zm-2.7 1c.3.2.7.2 1.1.2-.3-.2-.5-.3-.9-.3 0 0-.2 0-.2.1zm7.6 14.4c.2 0 .3.1.5.1-.2-.2-.2-.2-.5-.1zm-.6.1c0-.1 0-.1 0 0 0-.1-.1-.1-.2-.1.1 0 .2 0 .2.1zm2.5-14.1s0 .1 0 0l.1.1h.1c-.1-.1-.2-.1-.2-.1z"/><path class="fst0" d="M36.2 0l-.1.1c0 .1-.1.1 0 .2 0 .1.1.1.2.1h.3c.1 0 .2 0 .3.1h-1.1c-.3 0-.7 0-1 .1h-.1c-.4-.1-.8 0-1.2.1h-.6c-.2 0-.3 0-.5.1-.1 0-.2.1-.2.2-.1.2-.3.2-.4.2-.2 0-.5.1-.7.1-.2 0-.3.1-.5.1-.1 0-.2 0-.2.2 0 .1.2.1.3.1h.4c-.5.1-.9.1-1.4-.2.2-.1.4-.1.6-.2.1 0 .3-.1.4-.1.2-.1.2-.1.2-.3.2 0 .4-.1.6-.1.1 0 .2 0 .2-.1.1 0 .2-.1.2-.2s-.1-.2-.2-.2c-.2-.1-.4-.1-.7-.1-.3 0-.6 0-.9-.1C30 .1 30 0 30 0h6.2z"/><path d="M64.9 24.3l.3-.3c.1-.1.2-.1.3-.1.1 0 .2.1.2.2.1.2.1.4 0 .6-.3.5-.5 1.1-.7 1.7-.1.2-.1.3-.1.5v.2c-.2.6-.5 1.2-.7 1.8-.1.3-.5.5-.8.4-.3-.1-.5-.4-.5-.7v-.5V26c0-.1 0-.2.1-.3.1-.1.1-.2.1-.4 0-.3.2-.6.5-.7.1-.1.3-.1.4-.1.2-.1.4-.2.5-.3.1-.2.3-.2.4 0-.1 0-.1 0 0 .1zm-.7 2.2c.4 0 .6-.1.7-.5l.6-1.5c.1-.2 0-.4 0-.5-.1-.1-.2-.2-.3 0-.2.3-.4.4-.7.5-.1 0-.3.1-.4.2-.2.1-.3.3-.3.5s0 .3-.1.4c-.2.2-.2.3-.1.5.2.3.4.4.6.4z"/><path class="fst0" d="M72.4 16.7c-.2 0-.3.1-.5.1-.3 0-.3 0-.2-.3-.1 0-.2-.1-.2-.1-.2-.1-.4-.2-.7-.3-.3-.1-.7-.2-1-.2-.7 0-1.3 0-1.9-.2-.4-.1-.8-.2-1.2-.2-.3 0-.5-.1-.7-.3-.2-.2-.4-.3-.7-.2-.2 0-.3.2-.1.3l.6.6.3.3c.1.1.3.2.5.1s.5-.1.7-.2c.3-.1.3-.1.5.1l.6.3c.1.1.2.1.3.2-.2.2-.4.4-.6.5-.4.3-.8.4-1.2.6-.6.2-1.2.3-1.8.5-.3.1-.6.2-.8.2H64c-.1 0-.2-.1-.2-.2-.1-.5-.3-.8-.7-1.1-.2-.1-.3-.3-.4-.5-.1-.2-.2-.3-.4-.5s-.5-.5-.7-.8c-.1-.2-.3-.2-.5-.2H60.5v.2c0 .1.1.1.1.2.3.3.6.6.9 1 .2.2.2.4.3.6 0 .2.1.3.2.4.4.3.8.6 1.1.9.1.1.3.2.4.4.2.2.4.3.7.3.4 0 .7-.1 1.1-.1.2 0 .4 0 .6-.1 0 .1-.1.1-.1.2-.5.8-1.1 1.4-1.9 1.9.1-.1.1-.1 0-.1-.4.2-.8.4-1.2.7-.5.4-.6.9-.3 1.5.1.2.2.4.2.6.1.3 0 .6-.3.7-.2.1-.3.2-.5.3-.2.1-.4.2-.7.3-.3.1-.3.4-.2.6.1.3.1.4-.2.6-.4.1-.6.4-.7.7-.1.3-.3.5-.6.7-.3.2-.7.4-1.1.5-.7.2-1.4.2-2 .2H56c-.1 0-.2-.1-.2-.3 0-.2-.1-.4-.2-.5-.3-.3-.6-.7-.8-1.1-.1-.2-.2-.5-.3-.8-.1-.2-.1-.4-.3-.6-.3-.3-.3-.6-.1-1 .1-.1.1-.2.2-.3.2-.3.2-.6.1-.9-.1-.1-.1-.2-.2-.3-.3-.3-.5-.7-.8-.9-.1-.1-.1-.2-.1-.3v-.8c0-.3-.1-.4-.4-.4h-.4c-.2 0-.3 0-.5-.1-.2-.2-.6-.1-1-.1-.5.1-.9.1-1.4.2-.4 0-.7 0-1.1.1-.5.1-.9-.1-1.4-.2-.3-.1-.5-.3-.6-.5-.2-.3-.4-.5-.7-.7-.1-.1-.3-.2-.4-.4-.2-.2-.2-.2-.1-.4s.2-.5.1-.7c-.1-.5.1-.9.4-1.2.3-.3.6-.5.9-.7.2-.1.3-.2.5-.3.2-.1.3-.3.3-.6 0-.1.1-.2.2-.3.6-.4 1.3-.6 2-.6s1.4-.2 2.1-.2c.4 0 .8-.1 1.2-.1.1 0 .3 0 .4.1.2 0 .2.1.2.3v.1c0 .2 0 .3.2.4.1 0 .1 0 .2.1.5.2 1 .3 1.5.4.1 0 .3.1.4.1.2 0 .5 0 .6-.2.2-.2.5-.3.8-.2.4.1.9.2 1.3.2.5.1 1 .1 1.5.1.3 0 .6-.1.7-.4.1-.2.2-.5.3-.7.1-.2 0-.3-.2-.3h-2c-.1 0-.2-.1-.3-.1-.1-.1-.2-.2-.2-.3 0-.2.1-.2.3-.3.6-.2 1.3-.4 1.9-.4.3 0 .5 0 .8.1.3.1.7.1 1 .1.1 0 .2 0 .3-.1.2-.1.2-.3 0-.4l-.6-.3c-.1 0-.2-.1-.2-.1-.1-.1-.1-.1-.1-.3.1-.2.1-.3-.2-.3h-.1c-.4 0-.5.1-.6.4-.2 0-.4 0-.5-.1-.1 0-.1-.1-.2-.1-.2-.2-.4-.2-.7 0-.2.1-.3.3-.5.4-.2.1-.2.3-.2.5s-.1.2-.3.3H58c-.2 0-.3 0-.5.1-.3.1-.3.2-.1.4 0 0 .1 0 .1.1-.2.2-.4.3-.6.2 0-.2-.1-.3-.2-.4-.2-.1-.3-.3-.5-.5l-.4-.4c-.5-.3-1-.5-1.4-.7-.1 0-.1-.1-.2 0-.1 0-.2.1-.2.1s0 .1.1.2c.3.4.6.6 1.1.7.1.1.3.1.5.2-.3 0-.3.2-.4.4l-.3-.3c-.1-.1-.3-.2-.5-.2-.4-.1-.8-.3-1.2-.6-.2-.2-.4-.2-.7-.1-.3 0-.6.1-.8.1-.2 0-.4.1-.6.2-.5.3-.9.6-1.4 1-.2.2-.5.2-.8.3-.4 0-.8 0-1.2-.1-.1 0-.1 0-.2-.1-.2-.1-.3-.2-.2-.5 0-.2 0-.4.1-.5 0-.2.1-.2.2-.3h1.7c.3 0 .4-.2.4-.5 0-.2-.1-.3-.3-.4-.1-.1-.2-.1-.2-.1-.1 0-.2-.1-.3-.1.1 0 .1 0 .2-.1.4-.1.8-.2 1.2-.4.2-.1.4-.1.6-.2.2-.1.4-.2.5-.3.3-.2.6-.3.9-.3.1 0 .2 0 .3-.1.2-.1.3-.2.2-.4v-.1c0-.2.1-.3.3-.2v.1c0 .2 0 .3.2.3.5.1.9.2 1.4.1.3-.1.6-.1.9-.1.2 0 .4-.1.6-.1.3 0 .4-.1.4-.4 0-.2.1-.3.4-.2.1 0 .2 0 .3.1.2 0 .2 0 .2-.2-.1-.4-.1-.4.4-.4h.5c.2 0 .5-.1.7-.2-.3-.1-.5-.2-.8-.2-.3 0-.6.1-1 .1h-.3c-.2 0-.3-.2-.4-.4 0-.2.1-.3.2-.4.2-.2.5-.3.7-.5.1-.1.2-.1.2-.2s-.1-.2-.3-.2c-.2 0-.5 0-.7.2-.1.1-.3.2-.4.3-.2.1-.4.2-.6.4.3.4.3.4.2.4-.2.2-.2.4 0 .6l.2.2-.2.2-.4.4c-.2.3-.6.4-.9.4-.1 0-.2-.1-.3-.2-.1-.2-.2-.3-.3-.5-.1-.1-.3-.2-.4-.2-.1 0-.3.1-.4.1-.2 0-.3.1-.5.1s-.3-.1-.3-.2 0-.1-.1-.2c-.1-.4-.1-.4.3-.6.3-.1.6-.3.9-.2h.1c.3 0 .3-.2.2-.4 0 0 0-.1-.1-.1.2-.1.3-.2.5-.3l.6-.3c.3-.1.5-.2.7-.4.2-.2.4-.3.6-.3.2 0 .4-.1.5-.1.3-.1.7-.2 1-.2.2-.1.5-.1.7-.1.3 0 .7.1 1 .1v.1c0 .1 0 .2.2.2.3-.1.4-.1.4-.1h.7c.5.1 1 .2 1.5.4.2.1.5.2.7.3-.1.2-.2.2-.3.2-.3.1-.7.1-1 0-.2 0-.4-.1-.6-.1-.1 0-.3-.1-.4 0 .2.2.3.5.6.6.2.2.5.2.8.1v-.2h.4c.2 0 .4 0 .5-.2.1 0 .3-.1.5-.1h.4c.2 0 .2-.1.2-.3 0-.1-.1-.2-.1-.3.2-.1.3-.1.6.1 0 .1-.1.1-.1.2.2.2.4.1.5.1l.9-.3c.3-.1.7-.1 1-.2h.2c.2.1.4.1.6 0 .2-.1.4-.1.5-.2h.3c.1.1.3.1.4 0 .5-.3 1-.3 1.5-.1.2 0 .4.1.6.2h.3l.1-.1s0-.1-.1-.1l-.3-.3c-.1 0-.1-.1-.1-.1s0-.1.1-.1c.2-.2.5-.4.7-.5.2-.1.4-.1.6 0 .1 0 .1.1.1.2-.1.2 0 .3 0 .4.2.3.1.7-.1 1-.1.2-.3.2-.4.1h-.6c.2.3.8.4 1.1.2.2-.1.5-.3.6-.5.1-.1.3-.2.4-.2.1 0 .3.1.3.2.1.2.3.3.6.3.1-.3-.2-.6-.5-.7h-.5c-.2 0-.3-.1-.3-.3v-.1c-.1-.1 0-.2.1-.3.2-.1.2-.1.4 0 .2.2.5.3.8.3-.1-.2-.2-.2-.2-.3.4-.2 1.1 0 1.4.2.1.1.1.1.2.1h.2s.1-.1 0-.2c-.1-.2-.2-.3-.3-.3-.1 0-.2-.1-.3-.1-.1 0-.1 0-.2-.1.1-.2.2-.1.4-.1H76.8c0-.1-.1-.2-.1-.3.1-.1.3-.1.4-.1.7-.1 1.4-.1 2.1-.2h.9c.4 0 .7-.1 1.1-.1.1 0 .2-.1.2-.2.1-.3.6-.5.9-.4l.1.1c.1.1.2.2.3.2H84.5c.1 0 .2.1.3.2l-.1.1c-.1.2-.1.2 0 .4.2.2.4.3.6.2.3-.1.7-.1 1 0 .6.2 1.1.1 1.7 0 .4-.1.8-.1 1.1 0 .1 0 .2 0 .3.1l-.2.2c0 .2.1.3.2.3l.6.3c.1.1.3.1.4 0 .3-.2.7-.2 1-.2h1.2c.1 0 .2-.1.2-.1.1-.2.3-.2.5-.2h.4c.2 0 .5 0 .7.1.3.1.6.1 1 0h.3c.4.3.9.4 1.4.4h1.1c.2 0 .5 0 .6.3.2.1.4.1.5.1.4 0 .8 0 1.2.1.4 0 .8.1 1.1.1.2 0 .3 0 .4-.2 0-.1.1-.1.2-.1h.5c.9.1 1.8.1 2.7.3.4.1.8.2 1 .5.1.1.1.1.2.1.3-.1.5-.1.8 0 .1 0 .2.1.4.1-.1 0-.2.1-.2.1-.2.1-.5.2-.6.4-.1.1-.2.1-.3 0-.4-.2-.9-.3-1.4-.4h-.3c-.1 0-.2 0-.2.1-.1.2-.3.2-.5.2h-.7c.1.2.2.3.4.3.1.1.2.1.3.3V7h-.5c-.5 0-1 .2-1.5.4-.3.1-.6.2-.9.1-.6-.1-1.3 0-1.9.3-.3.1-.3.3-.1.5.1.2.1.3 0 .5-.1.1-.2.1-.3.2-.2.1-.3.2-.5.4-.2.3-.5.4-.8.5-.1 0-.2 0-.2-.1-.1-.2-.2-.4-.2-.6 0-.3.1-.5.3-.7.1 0 .1-.1.2-.1l1.8-.9c.2-.1.3-.2.2-.5-.4.2-.7.4-1.2.5v-.1c0-.2-.1-.2-.2-.2-.3 0-.6.1-.9.2-.2.1-.4.2-.6.4-.2.1-.4.2-.6.1-.5-.1-1-.1-1.5 0h-.5c-.4-.1-.9 0-1.3.2-.3.1-.6.3-.9.4-.3.1-.5.3-.8.4-.2.1-.2.2 0 .4.2.1.4.2.7.2h.5c.2 0 .3.1.3.3 0 .4-.2.8-.5 1.1-.4.5-.9.8-1.5 1.1-.1.1-.3.1-.4 0-.2 0-.4 0-.6.1-.3.2-.6.4-.8.6-.2.1-.2.2-.1.5l.3.3c.1.2.1.2-.1.3-.1 0-.2.1-.3.1-.1 0-.2 0-.2-.2s-.1-.3-.2-.4c-.1-.1-.2-.3-.4-.4-.1-.1-.1-.1-.2-.1-.2 0-.4 0-.6.1h-.1v-.1c.1-.2 0-.2-.1-.3h-.2c-.2.1-.5.2-.7.3-.1 0-.1.1-.1.2s.1.2.2.2c.2 0 .4.1.5.1h.4c-.1 0-.1.1-.2.1s-.1.1-.2.1c-.3.2-.4.3-.1.6l.2.2.1.1v.6c0 .2-.1.3-.2.4-.2.2-.3.3-.5.4-.2.1-.4.3-.7.4-.3.2-.6.2-.8.2-.3 0-.6.1-.9.2-.3.1-.6.1-.9.1-.2 0-.3 0-.4.1-.2.2-.2.4 0 .6.1.1.2.2.4.3l.3.3c.2.3.2.5-.1.8-.2.2-.4.3-.7.4-.1 0-.2 0-.4-.1-.2-.2-.4-.4-.6-.5-.2-.1-.5-.2-.8-.1-.4.1-.5.6-.2.8.2.2.3.3.5.4.3.2.5.4.6.7v.2h-.3c-.1-.1-.3-.1-.4-.2-.2-.2-.4-.4-.6-.7-.2-.3-.3-.6-.3-.9 0-.1 0-.3-.1-.4-.1-.2-.1-.4-.2-.6-.1-.2-.1-.2-.3-.2-.1 0-.2.1-.4.1-.2.1-.3 0-.3-.2s0-.3-.2-.4c-.2-.2-.5-.4-.7-.6h-.2c-.3 0-.5.1-.8.1-.3 0-.5.1-.7.3-.1.1-.3.2-.5.3-.3.2-.6.3-1 .5-.3.1-.4.3-.4.6 0 .4-.1.7-.4.9-.1.1-.3.1-.4 0-.4-.4-.8-.9-1-1.4-.2-.3-.3-.6-.3-.9.3 0 .3-.1.3-.2zm-5.5-4.3c-.1-.1-.1-.1-.2-.1-.2 0-.3 0-.4-.2l-.1-.1-.2-.2c-.1-.1-.1-.2 0-.2.1-.1.2-.1.3-.1.1 0 .1-.1.1-.2s-.1-.2-.2-.2c-.4 0-.7 0-1.1.2-.2.1-.3.3-.2.5.1.2.2.4.4.6.2.1.2.2.1.4 0 0 0 .1-.1.1-.1.2-.1.3.1.4.3.2.6.2.9.1.3-.1.4-.3.2-.6 0-.1-.1-.1-.1-.2.3 0 .4-.1.5-.2zM92.1 28.5c0-.1.1-.2 0-.3-.1-.1-.2 0-.3.1-.3.2-.3.2-.6 0-.4-.3-.8-.4-1.3-.5-.5 0-.9.1-1.3.2-.6.1-1.2.3-1.8.4-.2.1-.5.1-.7.2-.3.1-.7-.1-.7-.4-.1-.5-.3-.9-.6-1.3 0 0 0-.1-.1-.1.3 0 .3-.1.2-.3-.2-.3-.2-.4.2-.5l1.2-.3c.2-.1.5-.2.7-.2.2-.1.3-.2.5-.4.1-.1.2-.1.2-.2.2-.1.3-.2.5-.3.3-.2.5-.2.8-.1.1 0 .1.1.2.1.3.1.5 0 .6-.3.2-.3.5-.5.8-.5.4-.1.7.1 1.1.2l-.2.2c-.2.2-.2.4.1.6.3.2.6.3.9.4.2.1.4 0 .5-.2.1-.2.2-.5.3-.7 0-.1.1-.2.1-.3.1-.1.2-.1.3 0 .2.2.4.5.5.7.1.1.1.2.2.3 0 .3.2.5.5.7.3.2.6.4.9.7.1.1.4.2.5.3.3.1.3.1.2.4-.1.7-.2 1.3-.7 1.8.2-.3.2-.2.2-.1 0 .2-.1.3-.3.4-.3.1-.6.2-.8.3h-.2c-.2-.1-.4-.1-.7-.1h-.3c-.4.1-.7-.1-1-.4-.1-.2-.3-.4-.6-.5zM86.4 20.3c-.1.1-.1.1-.2.1-.1.1-.2.2 0 .3.3.3.3.3 0 .5-.2.2-.4.3-.4.6 0 .1-.1.1-.2.1-.3.1-.7 0-1 0-.2 0-.3-.1-.5-.2s-.4-.3-.5-.5c-.1-.1-.1-.2.1-.3.1-.1.3-.1.4-.2.5-.2 1-.4 1.5-.7.2-.1.5 0 .8.3zM92.3 22.8s0-.1 0 0c.2-.3.2-.3 0-.4-.4-.2-.7-.4-1.1-.4-.2 0-.3 0-.5-.1 0-.2 0-.2-.2-.4.2-.1.4 0 .5.1l.1.1c.1.2.3.2.5.1.3-.2.5-.1.8-.1.7.1 1.5.4 2.2.6.2.1.5.2.5.5 0 .1.1.1.2.2s.2.1.3.2c-.2 0-.5 0-.7-.2 0 0-.1 0-.1-.1-.3-.3-.6-.3-.9-.1-.2.1-.4.1-.6.1-.3-.1-.6-.1-.9-.2 0 .2-.1.1-.1.1z"/><path class="fst0" d="M89.6 14.1c.1-.1.3-.1.4-.1.4-.1.8-.2 1.3-.3.5-.1.9-.3 1.3-.6l.3-.3c0-.1.1-.2.2-.2s.3 0 .4.1c.1.1.1.2 0 .3-.1.3-.3.6-.4.9 0 .1-.1.1-.2.1-.6 0-1.2.2-1.8.3-.3 0-.5.1-.7.3-.1.1-.2.2-.4.2l-.1-.1c0-.3-.2-.4-.3-.6zM50.9 9.8c-.1.1-.2.2-.4.2-.4 0-.9.1-1.3.1l.3-.3c-.1-.1-.2-.1-.4-.2.1-.1.2-.1.3-.2.2-.2.2-.3 0-.4-.1 0-.3 0-.4-.1-.2-.2-.2-.4 0-.5.1-.1.3-.2.4-.3v.3c0 .1.1.1.2.1v.3c0 .1.1.1.2.2.2.1.4.3.6.5.2.1.4.2.5.3zM82.6 21.8c-.1.2-.2.3-.3.4-.1.1-.2.1-.3 0-.3-.2-.7-.4-.9-.6l-1.3-1.3c.1 0 .4 0 .5.1.4.2.8.5 1.2.8.1.1.2.1.2.2.2.2.4.3.6.3 0 .1.1.1.3.1zM83.8-33c.2-.1.4-.2.5-.4.1-.1.2-.1.3-.1.2.1.5.1.7.2h.2c0 .1-.1.2-.2.2-.3.1-.7.2-1 .3-.3.1-.4 0-.5-.2zM87 21.2c-.1.3-.1.3.1.3h.4c-.1.1-.3 0-.4.2l.2.2.2.2v.2c-.1.1-.1 0-.2-.1s-.1-.2-.2-.3l-.1-.1c-.3.1-.2.4-.2.6-.3-.2-.3-.4-.3-.7.1-.2.2-.5.5-.5zM84.4-35.3c.1-.2.2-.3.2-.5l.1-.1.1.1v.2c0 .3.1.6.3.9-.1 0-.2 0-.2.1-.2.1-.2.2-.1.3 0 .1.1.1.1.2-.2.1-.3 0-.3-.1v-.3c0-.2 0-.5-.2-.8zM47.6 9.8c.1-.3.2-.5.5-.7.2-.1.3-.1.5 0s.2.2.1.3c-.3.3-.8.5-1.1.4zM82.6 22.6h.2c.5 0 .9.1 1.4.1.2 0 .5.1.6.2-.3.1-2-.2-2.2-.3zM81.5 22.1c.3.2.5.3.8.3v.3c-.3 0-.5-.1-.7-.1-.1-.1-.1-.3-.1-.5zM83.8-33.5l.2-.2h.3c-.1.1-.1.3-.3.4-.1 0-.2-.1-.2-.2zM83-33.5c.1.3 0 .5 0 .7l-.1.1c0-.3 0-.6.1-.8z"/><path class="fst0" d="M49 9.2l.1-.1c.1 0 .2.1.2.1l.1.1-.1.1s-.1 0-.1-.1c-.1 0-.1 0-.2-.1zM75.1 4.2c.3 0 .5.1.6.4-.1-.1-.5-.3-.6-.4zM87 21.2h.4-.4zM81 21.8c-.1 0-.2 0-.2-.2.1.1.1.2.2.2zM32 11.3c-.4.2-.8.3-1.3.5.1-.2.4-.2.5-.5-.4 0-.9.1-1.3.2-.1 0-.3.1-.4.1-.3.1-.3.2-.3.4v.1c-.1 0-.2.1-.3.1-.4 0-.7.2-.9.5-.2.3-.3.3-.4.3-.1 0-.2-.1-.2 0-.1.1 0 .2 0 .2.1.2.1.3-.1.5-.1.1-.3.2-.5.3-.2.1-.4.2-.5.3-.5.4-.5.8-.2 1.2.1.1.1.2.2.3v.1c-.3.1-.4.1-.6-.2-.1-.2-.2-.4-.3-.5-.1-.1-.2-.2-.3-.2-.4 0-.8-.1-1.2-.1-.2 0-.3.1-.3.3h-.3c-.3 0-.6-.1-.8-.1-.4 0-.8.1-1.1.3-.2.1-.3.3-.3.5-.1.4-.1.8.2 1.1.1.2.3.3.5.4.3.1.7.1 1 0 .2 0 .3-.1.4-.3 0-.1.1-.1.1-.2.2-.1.5-.2.7-.1.2 0 .2.1.2.3-.1.1-.1.3-.2.4-.1.3-.1.4.2.5h.6c.1 0 .3 0 .4.1.2.1.2.1.2.3 0 .1 0 .2-.1.2 0 .2.1.4.3.5.3.1.6.2.9.1h.5c.1 0 .3.1.4.1.1 0 .3 0 .3-.1.1-.2.4-.3.6-.4.2-.1.4-.1.6-.2v.2c.1.1.2.2.3.1.2-.3.5-.2.7-.1.4.2.7.2 1.1.2.5 0 1 .1 1.4.4.5.4 1 .5 1.6.6.4 0 .8.2 1.1.4.1.1.2.2.2.4-.2.2-.5.2-.6.6.3-.1.5-.3.9-.2-.1.1-.3.2-.5.3.3.1.6.1.9-.1.2-.2.5-.2.7 0 .5.3 1 .4 1.5.4.6 0 1.1.3 1.7.6.1.1.1.1.1.2-.1.2-.2.4-.4.6-.1.1-.3.2-.4.3-.2.2-.3.4-.4.7v.2c0 .4-.1.7-.3.9-.1.2-.3.3-.5.4-.2.1-.3.1-.5.1-.6.1-1.1.3-1.6.5-.1.1-.2.2-.2.3 0 .4-.2.7-.5 1-.3.2-.5.4-.8.6-.3.2-.6.2-.9.1-.1 0-.2 0-.4-.1 0 .1 0 .2.1.3.3.3.3.4-.1.6-.1 0-.3.1-.4.1-.2 0-.3 0-.5.1-.2 0-.4.1-.5.2-.1.1-.2.2-.4.2h-.2c-.2.1-.3.2-.2.4v.3c-.1.2-.3.3-.4.3-.4.2-.4.5 0 .6l.1.1c-.3.3-.6.6-.9.8l-.5.5c-.2.2-.2.1-.4 0-.1-.1-.2-.1-.2-.1-.1 0-.2-.1-.3-.1-.2-.1-.2-.1-.1-.3V32c0-.1.1-.2.1-.3.1-.2.1-.2-.1-.3-.1-.1-.3-.1-.4-.2 0-.1.1-.1.2-.1.2.1.3.1.4-.2.1-.2.1-.4 0-.7-.1-.1-.1-.3-.1-.5s0-.4.1-.6c0-.1.1-.3.2-.4.4-.4.5-.8.6-1.3.1-.7.1-1.4.2-2.1 0-.4-.1-.5-.4-.7-.2-.1-.4-.2-.7-.3-.5-.3-.9-.7-1.3-1.2-.2-.3-.4-.7-.7-1 0-.1-.1-.1-.1-.2.1-.1.1-.1.2-.1.1-.1.1-.1 0-.2-.1-.3-.1-.4.1-.6.1-.1.3-.3.5-.4.5-.4.4-.9.1-1.2-.1-.2-.3-.2-.5-.1-.3.1-.5.1-.8 0-.2-.1-.5-.1-.7-.2-.2-.1-.3-.2-.4-.4-.1-.2-.3-.3-.5-.3-.8-.3-1.7-.5-2.6-.6-.8-.1-1.5-.3-2.3-.6-.1 0-.2-.1-.3-.2-.2-.1-.3-.2-.3-.4 0-.1-.1-.2-.2-.3-.1-.1-.3-.2-.4-.3-.5-.4-.9-.8-1.4-1.2l-.2-.2c-.1 0-.2-.1-.3-.1-.2 0-.2.1-.1.3.3.4.6.7.9 1.1l.3.3c-.2 0-.4-.1-.5-.2-.3-.2-.5-.5-.8-.7-.2-.2-.4-.5-.6-.8-.1-.2-.3-.3-.5-.4-.3-.1-.6-.3-.9-.5l-.2-.2-.4-.4c-.2-.1-.3-.3-.3-.5-.1-.5 0-.9.1-1.3 0-.1.1-.1.1-.1h.2c.1 0 .1-.1.2-.1 0 0 0-.1-.1-.2-.3-.3-.7-.5-1.2-.6h-.2l-.1-.1c0-.1-.1-.2-.2-.2-.3-.1-.4-.3-.5-.6 0-.1-.1-.2-.2-.2-.2-.1-.3-.2-.4-.3-.9-.7-1.7-.9-2.5-1l-1.8-.3c-.1 0-.2 0-.3-.1-.3-.1-.4-.1-.6.2-.2.1-.4.2-.6.1 0-.1.1-.2.1-.3-.2-.1-.4 0-.5.1-.4.5-1 .8-1.6 1-.3.1-.5.2-.7.2.1-.1.2-.1.4-.2 0 0 .2 0 .3-.1.1-.1.1-.1.1-.2C3 8 3 8 2.9 8c-.7 0-1.3-.2-1.9-.4 0 0-.1 0-.1-.1-.2-.1-.2-.4 0-.5h.4c.1 0 .3-.1.4-.1 0 0 .1 0 .1-.1.1-.1.2-.2.1-.3 0-.1-.1-.1-.3-.1-.2 0-.5.1-.7.1-.3 0-.5-.1-.7-.3C.4 6 .7 6 1 6c.1 0 .2.1.4.1h.3l.1-.1-.1-.1c-.1 0-.1 0-.2-.1-.4-.1-.7-.2-1-.5.1 0 .1 0 .2-.1.4-.1.8-.3 1.2-.4.7-.2 1.3-.4 2-.2.7.1 1.4.1 2.1.2.7 0 1.4.1 2.1.2.4 0 .8.1 1.2.2.2 0 .4.1.4.3l.1.1c.1.1.2 0 .2-.1s-.1-.2-.1-.3c.2-.2.5-.2.8-.2 0 .1 0 .2.1.2h.2c.2 0 .4-.1.6-.2.3-.1.6-.1.9-.1.2.1.5.1.7.1.4 0 .8 0 1.2.1.3.1.6.1 1 .1h.3c0 .3 0 .3.3.3h.7c.3 0 .6.1.8.2.1.1.2.1.3 0 .1-.1.1-.3.1-.4l-.1-.1c.3-.1.6-.1.9 0 .5.3 1.1.3 1.7.2.1 0 .3 0 .4-.1.2-.1.2-.1.1-.3v-.1c-.2.1 0 0 .1.1h.3c.1 0 .2 0 .3-.1 0-.1 0-.1-.1-.2s0-.2.1-.2c.3-.1.5-.1.8 0 .1 0 .1.1.1.2s.2.2.3.3c.2.2.4.3.7.1.2-.1.3-.1.4.1 0 0 0 .1.1.1.1.2.1.3.3.3.2 0 .4-.1.5-.3.1-.3.1-.3.4-.3h.2c.2 0 .3.1.3.3 0 .1.1.2.1.4-.1 0-.2.1-.3.1-.2 0-.5.1-.7.1-.1 0-.2 0-.2.1s0 .2.2.2c.1 0 .2.1.4.1.2.1.4.1.6.2.1 0 .1.1.1.1h-.2c-.3-.1-.5-.1-.8.1-.2.1-.4.1-.6 0 0-.1.1-.1.1-.2.1-.2 0-.4-.2-.4h-.6c.1.2.3.2.4.2 0 .1-.2.1-.3.2-.1 0-.3 0-.4.1-.1 0-.2 0-.3.1-.3.2-.7.5-1 .7-.3.3-.3.5.1.6.3.1.6.3.9.5.4.2.8.3 1.2.4.3.1.6.1.9.1.1 0 .2 0 .2.1v.2c-.1.2 0 .4.2.5.2.1.4.3.6.3.3.1.4 0 .5-.3.1-.3.3-.7.4-1 .1-.2.1-.3 0-.4-.1-.1-.1-.2-.1-.3 0-.3 0-.5.1-.8 0-.2.2-.2.3-.3.4-.1.8-.1 1.1 0 .3.1.6.3.9.4v.1c-.1.3 0 .5.3.5.3.1.6 0 .9-.1.1 0 .2-.1.2-.1.2-.1.3-.1.5.1.1.1.2.2.3.4.3.4.7.6 1.1.7.1 0 .2 0 .3.1l-.6.3c.2.1.4.1.6.1h.3c.1 0 .2 0 .2.1.1.1.2.3 0 .3-.1.1-.2.1-.3.1-.7.1-1.4.2-2 .2-.3 0-.6.1-.8.1-.4.1-.8.3-1.1.7.2-.1.3-.1.4-.1l.9-.3h.4c-.1 0-.1 0-.1.1-.1 0-.1.1-.1.1 0 .1.1.1.1.2.2.1.4.2.6.2.2.1.4.1.6.1zM34.6 5.7c.2-.1.3-.2.3-.4v-.1c.1-.2 0-.3-.2-.4-.1 0-.2 0-.3-.1.1-.1.1-.1.2-.1.2-.1.1-.3-.1-.3h-.2c-.1 0-.2.1-.2.1H34c-.1-.4-.4-.6-.7-.9-.1-.1-.3-.2-.5-.3-.1-.2-.2-.2-.4-.2-.6 0-1.1 0-1.7.1-.3 0-.7.1-1 0-.1 0-.2-.1-.3-.2.3-.1.6 0 .8-.3-.4-.2-.9-.1-1.4-.2.2-.2.5-.1.7-.2.3 0 .6-.1.9-.1.2 0 .4-.1.5-.2 0 0 .1-.1.1-.2s-.1-.1-.2-.1h-.5c.1-.1.2-.1.3-.1.2 0 .5-.1.7-.1.3 0 .6-.1.8-.4.1-.1.2-.1.3-.1.5 0 1.1-.1 1.6-.1h.2c.2 0 .4 0 .6-.1.2-.1.4-.1.7-.1H36.7c.1 0 .2 0 .2-.1s0-.2-.1-.2h-.5l.1-.1H40.3c-.1.1-.3.1-.4.2h.2c.5 0 .9-.1 1.4-.1h1.2c.1 0 .2 0 .2.1.1.2.2.2.4.2h.2c-.4.1-.9.1-1.3.2-.6.1-1.2.2-1.8.4 0 0-.1 0-.2.1.4.1.7 0 1-.1.2-.1.6-.2 1-.2.5 0 .9 0 1.4-.1.1 0 .1.1.2.1s.2.1.3.1c.5 0 .9 0 1.4-.1.1 0 .2 0 .3-.1.3-.1.6-.1.9 0-.2.1-.5.1-.7.2-.3.1-.5.1-.8.2-.3 0-.5 0-.8.1.2.1.5.1.6.3l-.2.2c-.1.1-.2.1-.3.2-.1.1-.1.3 0 .4.1 0 .1.1.2.1-.2.1-.5 0-.7.1 0 .2.2.1.3.2l-.1.1c.1.2.4.1.6.3h-.2c-.2 0-.2 0-.2.3-.3-.1-.6-.1-.9-.2-.3 0-.6.1-.9.2.1.4.4.5.8.5.3 0 .5.1.7.2-.1.1-.2.1-.3.1-.1 0-.2-.1-.3-.1-.2-.1-.3 0-.5.1-.1.1-.2.1-.3.2.3.1.7.1 1 .1-.1 0-.2.1-.2.1-.6.2-1.2.2-1.9.2-.2 0-.4 0-.6.1-.4 0-.7.2-1 .5-.1.1-.2.1-.3.2-.1 0-.2 0-.3.1-.5.1-.9.2-1.2.5-.2.2-.3.4-.4.6-.1.3-.2.4-.5.4-.7 0-1.4-.3-1.9-.8l-.3-.3c-.2-.2-.2-.3 0-.4l.1-.1c.1-.1.1-.1-.1-.2-.4.1-.4.1-.5.1zM31.6.6c-.3.1-.7.2-1.1.3v.3c-.3.1-.5.1-.8.2-.3.1-.7.2-1 .3h-.8c-.3 0-.5.1-.8.2.1.2.3.1.4.2-.5.2-1 .3-1.4.4 0 .2.1.2.2.2h.3s-.1 0-.1.1c-.4.1-.8.1-1.3 0-.4 0-.9 0-1.3-.1h-.3c.1-.3.4-.3.6-.5-.1-.2-.3-.2-.6-.1s-.6.2-.9.1c-.1 0-.2-.1-.3-.2.1 0 .2 0 .4-.1-.3-.1-.7-.1-1-.3v-.1c.4-.3.8-.5 1.3-.2.2.1.4.1.6.2.1 0 .2.1.3.2.3.4.8.5 1.3.5.2 0 .4-.1.6-.1V2c-.1 0-.2 0-.3-.1-.2-.1-.5-.1-.7-.2-.1 0-.2-.1-.2-.1.1-.1.2-.1.3-.1h.7c.3 0 .6-.1.8-.3h-1c-.5 0-1-.1-1.5-.2-.2 0-.4-.1-.6-.2.7-.1 1.4-.2 2-.3.2 0 .3-.1.4-.2.1-.1.1-.1.2-.1.2 0 .4-.1.6-.1h3.1c.1 0 .3 0 .4.1.4.1.7.2 1.1.1 0 0 .2.1.4.3 0-.1 0-.1 0 0z"/><path class="fst0" d="M28.8 5.9c-.2-.3-.4-.5-.6-.6-.5-.2-1-.3-1.5-.4-.7-.1-1.5-.1-2.3-.1-.2 0-.5 0-.7-.1-.1 0-.1-.1-.2-.1-.1-.1-.2-.2-.2-.3 0-.1.1-.2.3-.2.2-.1.3-.1.5-.1h.2c.3.1.6.1.9 0 .1 0 .1 0 .2-.1.1 0 .3 0 .3.1.2.4.6.4 1 .3.1 0 .1 0 .2-.1.3-.1.5-.1.8 0 .1.1.2.1.3.2.3.1.5.1.8.1 0 .2.2.3.4.3.3 0 .5.1.8.2v.1c0 .2 0 .2.3.3.2 0 .4.1.5.1.3.1.5.1.8.2.1 0 .1 0 .2.1-.1.1-.3.2-.4.3-.1.1-.2.1-.4 0s-.3-.2-.5-.2c-.1-.1-.3-.1-.4 0-.1.1-.1.2 0 .3.2.1.3.2.5.3.1.1.2.1.3.3-.1.2-.4.2-.3.4-.4-.1-.8-.1-1.2-.2-.3-.1-.5-.1-.8-.3-.3-.2-.7-.3-1.1-.2H26.9c.1-.1.2-.1.3-.1h.5c.2 0 .3-.1.5-.2 0-.1.1-.1.2-.1.1-.2.2-.2.4-.2zM13.1 4.2c.1-.1.2-.3.2-.4.1-.2.4-.3.6-.3.3 0 .7 0 1 .1.3 0 .6.1.9.3.2.1.4.2.6.2h.3c.3 0 .6 0 .9.2.2.1.3.1.4-.1 0 0 0-.1.1-.1.2-.1.4-.2.6-.2-.1.4 0 .6.3.7.1.1.2.1.3.1.1 0 .2.1.3.1 0 .1-.1.2-.2.3-.1-.1-.2-.1-.4-.1-.6-.1-1.1 0-1.7.1-.6.1-1.2 0-1.8-.2.4 0 .8-.1 1.2-.1-.2-.2-.4-.2-.6-.2h-.6-.1c-.3-.1-.4-.2-.4-.6-.3 0-.5.1-.7.2-.3.1-.5.2-.8.2-.2 0-.3-.1-.4-.2zM46.3 6.3c-.1 0-.1.1-.2.1-.4.1-.9.2-1.3.3-.4.1-.7-.1-1-.2.3-.1.6-.2.8-.3h.1c.4-.2.9-.2 1.3-.1.1 0 .2 0 .3.2zM25.9 8.5c.3 0 .5 0 .7.1v.7c0 .2-.1.4-.2.7l-.1.1c-.2.1-.4-.1-.4-.3v-1-.3zM21.8 2.8c.5 0 .9 0 1.3.3.2.1.4.1.6.1.9 0 1.7 0 2.6-.1h.1c0 .1-.1.1-.1.1h-.2c-.6 0-1.2.1-1.8.1-.4 0-.8-.1-1.3-.1h-.1c-.4-.2-.8-.3-1.1-.4zM34.3 11c-.1 0-.2.1-.3.1-.1 0-.2 0-.3-.1-.1-.1-.2-.1-.3-.1h-.5c-.1 0-.3 0-.4-.2.1-.1.1-.2.2-.2.2-.1.3-.2.5-.2.1 0 .2 0 .3.1.1.1.3.2.5.3.3.1.3.1.3.3zM21.4 4.2c-.4.3-.8.2-1.4-.1.3-.2.7-.4 1.1-.3 0 .1 0 .2.1.3 0 0 .1 0 .2.1z"/><path class="fst0" d="M18.7 5.2c0-.2.1-.1.2-.1.3 0 .6.1.9.3-.4 0-.7 0-1.1-.2zM26.3 19.6c.3-.1.3-.1.5.1-.2 0-.3-.1-.5-.1zM25.7 19.7c-.1 0-.1 0-.2-.1.1 0 .2 0 .2.1 0-.1 0-.1 0 0zM28.2 5.6h.1c0 .1-.1.1-.1 0 0 .1 0 0 0 0zM32 11.3c0-.1.1-.1.2-.1-.1.1-.2.1-.2.1z"/><path d="M16.2 3.3H15.6c-.2 0-.3-.1-.3-.2s.1-.2.3-.3h.4c.4.1.7.2 1 .3h.2c.1 0 .2 0 .3-.2.1-.2.2-.2.4-.1 0 0 .1 0 .1.1.1.1.2.1.3.1.1 0 .2 0 .2.1s-.1.2-.2.2c-.2 0-.5.1-.8.1-.3 0-.5.1-.8.1h-.4c-.1.1-.1.1-.1-.2zm-.7-.2c.1.1.1.1.2.1H16.3s0 .1.1.2c.2 0 .4 0 .7-.1.2 0 .4-.1.7-.1.2 0 .4 0 .6-.1-.2-.1-.4-.2-.7-.3-.2.4-.3.4-.8.3-.4 0-.6 0-.9-.1-.2 0-.4 0-.5.1z"/><path class="fst0" d="M64.2 26.5c-.2 0-.4-.1-.5-.3-.1-.2-.1-.4.1-.5.1-.1.2-.3.1-.4-.1-.3.1-.4.3-.5.1-.1.3-.1.4-.2.3-.1.5-.2.7-.5.1-.1.2-.1.3 0 .1.2.1.3 0 .5l-.6 1.5c-.2.3-.4.4-.8.4z"/><path d="M66.9 12.4c-.1.1-.2.1-.3.2.1.1.1.1.1.2.2.3.2.5-.2.6-.3.1-.6 0-.9-.1-.2-.1-.2-.2-.1-.4 0 0 0-.1.1-.1.1-.2.1-.3-.1-.4-.2-.1-.3-.3-.4-.6-.1-.2 0-.4.2-.5.3-.2.7-.2 1.1-.2.1 0 .2.1.2.2s-.1.1-.1.2c-.1 0-.2.1-.3.1-.1.1-.1.1 0 .2 0 .1.1.1.2.2l.1.1c.1.2.2.2.4.2-.1.1-.1.1 0 .1z"/><path class="fst0" d="M15.5 3.1c.1-.1.3-.1.5-.1.3 0 .6.1.9.2.4.1.5 0 .8-.3.2.1.4.2.7.3-.2.1-.4.1-.6.1-.2 0-.4.1-.7.1-.2 0-.4 0-.7.1 0-.1 0-.2-.1-.2H15.7c-.1-.1-.2-.1-.2-.2z"/></svg></svg>